M48
;Layer_Color=6321
;FILE_FORMAT=4:4
METRIC,LZ
;TYPE=PLATED
T1F00S00C0.2000
T2F00S00C0.3000
T4F00S00C0.7620
T6F00S00C0.8128
T7F00S00C1.2900
T8F00S00C2.1000
;TYPE=NON_PLATED
T9F00S00C3.5000
%
T01
X0398525Y0210956
X0397725
X0383495Y0304272
Y0305372
X0382395
Y0304272
T02
X04232362Y02113121
X04232362Y02122
X04232362Y02130879
X04222901Y02122
X04222901Y02113121
X04214315Y0214606
X04204315
X04193315
X04184315Y0214581
X04174315Y0214606
X04164315
X04153315
X04144315Y0214581
X04134Y02138
X0411Y0213725
X04102Y021375
X04101Y02119
Y02109
X04106Y02114
X04111Y02109
Y02119
X0411Y0209075
X04102Y020905
X04106Y02083
X041Y02078
X04112
X04106Y0205775
X04106992Y02046996
X04066434Y0205775
X04038Y020455
X04025Y0208006
X040095Y020855
X03999Y02108
X04035Y0210975
X04045
X04056
X04065Y0211
X04060168Y02102447
X0407
X0405
X0404
X04035Y0215025
X04045
X04056
X04065Y0215
X04077Y02136
X04059Y0218796
X04047Y02188
Y02201
X04059
X040685Y02212
Y022255
X04077209Y02219116
X04090668Y02219
X04102023Y02222
Y0221
X04084521Y02208679
X0408627Y02234093
X0407354Y0224
X04074Y0225
X04063Y0224
X04044407
X040875Y02261
X04102023Y02257
Y022705
X04133023
Y02257
X04123046Y02246
X04112046Y02245907
X04112Y02234
X04123Y02234093
X04133023Y02222
Y0221
X04218Y02265
X04231225Y02266
X0421625Y0229
X04221966Y02296
X04220581Y02340671
Y02354171
X04189581
Y02340671
X0419243Y02327
X0418Y023155
X039865Y02306
X03972Y02215
X03975Y02172
Y02163
X03974Y0214975
X03991
X03995Y02177
X0398125Y02128
X03974Y02073
X0399Y02058
X04
X04160547Y02094268
X0396425Y02064
X03948Y02072
X03938
X03934Y02084
X03901Y02085
X03896Y02093
Y02102447
X03903Y0210925
X03929Y02117
X03938Y02117
X03948Y0211756
X039645Y02127307
X039645Y02136
Y02145
Y02154
Y02163
X0396425Y02172
X03924439Y02152
Y02142907
X0393175Y0213
X03923Y02044
X03798Y02059
Y02079
X03778Y0207191
X03769Y020926
X03778Y02115
X03796Y02114
X0381896Y02128
Y0213762
Y0215162
X038057Y0214975
X03762Y0215006
X03764Y02130879
X03745Y0214375
X03701Y02159
X03688Y0215825
X03681Y0214
X03691Y0212
X03746Y02084
X0382896Y0212862
X0383896Y02128
Y0213762
X0383596Y02223
X03813Y02267
X036955Y023
X03686627Y02335
X03689Y02451
X0372292Y0252911
X03724Y02568
X03709Y0258
X03704Y02605
X0370871Y0263071
X03724Y02668
X03723Y02681
X0369Y0270691
X040208Y026468
X04033Y02629
X040208Y02612
X04169
X04183Y02605
X041845Y02544
X04165685Y02554
X0418978Y0248875
Y0247525
X0422078
Y0248875
Y0244025
Y0242675
X04220581Y02402671
Y02389171
X04189581
Y02402671
X0418978Y0242675
Y0244025
X04175Y02669
X04174315Y02681
X041535Y02674
X04211Y02679
Y02688
X04221
Y02679
X04231
Y02688
Y0266881
Y02728
X04224Y02733
X04231Y02748528
X04205Y02747
X04194
X04187Y0274
X0418Y02747
X04172Y0274
X04165Y02747
X04187884Y02774
X041965Y02771
X04205464
X04214315
X0421Y02763
X04201
X04214Y02718
X0421Y02801
X04199964
X04205Y0280851
X04215
X04210609Y02818
X04199964
X04188714Y028185
X04192Y0280851
X0418673Y02783174
X04172Y02797
Y0282
X04188714Y02923374
X04207114Y02931974
X04205992Y02956994
X04191Y02974
X04178Y02982
X04187Y03013
X04202Y030016
X04232362Y03002
X0414Y03005
X0411Y03028785
X03988Y0302377
X04012Y02994
X0401285Y02946
X04045
X03958745Y02934873
X03934745Y02944705
X03906004Y0294845
X03896934
Y0299065
X03906004
X03936Y02994
X03953Y0297955
X03961Y0302377
X03935Y0303977
X03923Y03034
X03908
X03892515Y03035515
X03881Y0302085
X038715Y0304272
X0386075Y0303305
X0385045Y0302822
X0385375Y0300705
Y0299705
X0382675Y0299005
X0381575Y0298905
X03804Y02991
X03784Y02992
X0377245Y0301805
Y0303022
X03781992Y03075994
X03785Y03086
X03783Y03102
X03806Y03090418
Y03078
X03833985Y0308705
X03857Y0307572
X03866Y03069
X03864Y0305772
X0382675Y0301605
X0381575Y03015
X0381955Y029696
Y029596
X03671Y02951
Y02977
X0368434Y02911
X036955
X03708Y02909
Y029
X0370795Y02891
X036955Y02888901
X0368434
X03679Y02829
X03691Y02829
X03687Y02814157
X03723Y02802157
Y02783
X03868Y02789
X03839Y03121
X0382Y03127
X0381993Y03152
X0383896Y03147
T04
X04184Y03045418
Y03090418
T06
X04221Y0314468
Y03165
Y0318532
T07
X04159Y03032918
Y03102918
T08
X041605Y026498
X03716Y02853
T09
X04206089Y0207191
X0368991
Y03258088
X04206089
M30
