%TF.GenerationSoftware,KiCad,Pcbnew,10.0.0*%
%TF.CreationDate,2026-05-11T10:30:11-04:00*%
%TF.ProjectId,SpecterShield-BE-HNQR,53706563-7465-4725-9368-69656c642d42,rev?*%
%TF.SameCoordinates,Original*%
%TF.FileFunction,Soldermask,Top*%
%TF.FilePolarity,Negative*%
%FSLAX46Y46*%
G04 Gerber Fmt 4.6, Leading zero omitted, Abs format (unit mm)*
G04 Created by KiCad (PCBNEW 10.0.0) date 2026-05-11 10:30:11*
%MOMM*%
%LPD*%
G01*
G04 APERTURE LIST*
G04 Aperture macros list*
%AMRoundRect*
0 Rectangle with rounded corners*
0 $1 Rounding radius*
0 $2 $3 $4 $5 $6 $7 $8 $9 X,Y pos of 4 corners*
0 Add a 4 corners polygon primitive as box body*
4,1,4,$2,$3,$4,$5,$6,$7,$8,$9,$2,$3,0*
0 Add four circle primitives for the rounded corners*
1,1,$1+$1,$2,$3*
1,1,$1+$1,$4,$5*
1,1,$1+$1,$6,$7*
1,1,$1+$1,$8,$9*
0 Add four rect primitives between the rounded corners*
20,1,$1+$1,$2,$3,$4,$5,0*
20,1,$1+$1,$4,$5,$6,$7,0*
20,1,$1+$1,$6,$7,$8,$9,0*
20,1,$1+$1,$8,$9,$2,$3,0*%
%AMFreePoly0*
4,1,21,5.389370,0.893370,5.400500,0.866500,5.400500,-0.866500,5.389370,-0.893370,5.362500,-0.904500,1.237500,-0.904500,1.210630,-0.893370,1.199500,-0.866500,1.199500,-0.488000,-1.237500,-0.488000,-1.264370,-0.476870,-1.275500,-0.450000,-1.275500,0.450000,-1.264370,0.476870,-1.237500,0.488000,1.199500,0.488000,1.199500,0.866500,1.210630,0.893370,1.237500,0.904500,5.362500,0.904500,
5.389370,0.893370,5.389370,0.893370,$1*%
G04 Aperture macros list end*
%ADD10C,0.010000*%
%ADD11C,0.100000*%
%ADD12RoundRect,0.038000X-1.755000X-0.500000X1.755000X-0.500000X1.755000X0.500000X-1.755000X0.500000X0*%
%ADD13C,1.676000*%
%ADD14RoundRect,0.038000X1.755000X0.500000X-1.755000X0.500000X-1.755000X-0.500000X1.755000X-0.500000X0*%
%ADD15RoundRect,0.266521X0.346479X0.471479X-0.346479X0.471479X-0.346479X-0.471479X0.346479X-0.471479X0*%
%ADD16RoundRect,0.264339X0.673661X-0.436161X0.673661X0.436161X-0.673661X0.436161X-0.673661X-0.436161X0*%
%ADD17RoundRect,0.265833X-0.372167X-0.472167X0.372167X-0.472167X0.372167X0.472167X-0.372167X0.472167X0*%
%ADD18RoundRect,0.265833X0.372167X0.472167X-0.372167X0.472167X-0.372167X-0.472167X0.372167X-0.472167X0*%
%ADD19RoundRect,0.265833X-0.472167X0.372167X-0.472167X-0.372167X0.472167X-0.372167X0.472167X0.372167X0*%
%ADD20RoundRect,0.269000X0.269000X0.269000X-0.269000X0.269000X-0.269000X-0.269000X0.269000X-0.269000X0*%
%ADD21RoundRect,0.265833X0.472167X-0.372167X0.472167X0.372167X-0.472167X0.372167X-0.472167X-0.372167X0*%
%ADD22RoundRect,0.266170X-0.496830X0.359330X-0.496830X-0.359330X0.496830X-0.359330X0.496830X0.359330X0*%
%ADD23RoundRect,0.266170X0.496830X-0.359330X0.496830X0.359330X-0.496830X0.359330X-0.496830X-0.359330X0*%
%ADD24RoundRect,0.266170X0.359330X0.496830X-0.359330X0.496830X-0.359330X-0.496830X0.359330X-0.496830X0*%
%ADD25RoundRect,0.169000X-0.606500X-0.169000X0.606500X-0.169000X0.606500X0.169000X-0.606500X0.169000X0*%
%ADD26RoundRect,0.169000X0.169000X-0.606500X0.169000X0.606500X-0.169000X0.606500X-0.169000X-0.606500X0*%
%ADD27RoundRect,0.038000X0.406400X-0.127000X0.406400X0.127000X-0.406400X0.127000X-0.406400X-0.127000X0*%
%ADD28RoundRect,0.038000X-0.127000X-0.406400X0.127000X-0.406400X0.127000X0.406400X-0.127000X0.406400X0*%
%ADD29RoundRect,0.038000X-1.104900X-1.104900X1.104900X-1.104900X1.104900X1.104900X-1.104900X1.104900X0*%
%ADD30RoundRect,0.038000X0.150000X1.182000X-0.150000X1.182000X-0.150000X-1.182000X0.150000X-1.182000X0*%
%ADD31RoundRect,0.244000X0.244000X0.394000X-0.244000X0.394000X-0.244000X-0.394000X0.244000X-0.394000X0*%
%ADD32RoundRect,0.169000X-0.169000X0.844000X-0.169000X-0.844000X0.169000X-0.844000X0.169000X0.844000X0*%
%ADD33RoundRect,0.244000X0.944000X0.244000X-0.944000X0.244000X-0.944000X-0.244000X0.944000X-0.244000X0*%
%ADD34FreePoly0,180.000000*%
%ADD35RoundRect,0.038000X0.550000X-0.900000X0.550000X0.900000X-0.550000X0.900000X-0.550000X-0.900000X0*%
%ADD36RoundRect,0.269000X0.269000X1.519000X-0.269000X1.519000X-0.269000X-1.519000X0.269000X-1.519000X0*%
%ADD37RoundRect,0.262667X0.525333X1.475333X-0.525333X1.475333X-0.525333X-1.475333X0.525333X-1.475333X0*%
%ADD38RoundRect,0.269000X0.269000X-0.269000X0.269000X0.269000X-0.269000X0.269000X-0.269000X-0.269000X0*%
%ADD39RoundRect,0.269000X-0.269000X-0.269000X0.269000X-0.269000X0.269000X0.269000X-0.269000X0.269000X0*%
%ADD40RoundRect,0.169000X-0.844000X-0.169000X0.844000X-0.169000X0.844000X0.169000X-0.844000X0.169000X0*%
%ADD41RoundRect,0.038000X-1.205000X-1.650000X1.205000X-1.650000X1.205000X1.650000X-1.205000X1.650000X0*%
%ADD42RoundRect,0.244000X0.244000X-0.944000X0.244000X0.944000X-0.244000X0.944000X-0.244000X-0.944000X0*%
%ADD43FreePoly0,90.000000*%
%ADD44RoundRect,0.266170X-0.359330X-0.496830X0.359330X-0.496830X0.359330X0.496830X-0.359330X0.496830X0*%
%ADD45RoundRect,0.260556X-1.027444X-0.677444X1.027444X-0.677444X1.027444X0.677444X-1.027444X0.677444X0*%
%ADD46RoundRect,0.169000X-0.169000X0.606500X-0.169000X-0.606500X0.169000X-0.606500X0.169000X0.606500X0*%
%ADD47RoundRect,0.263334X-0.487166X-1.099666X0.487166X-1.099666X0.487166X1.099666X-0.487166X1.099666X0*%
%ADD48RoundRect,0.038000X0.850000X0.850000X-0.850000X0.850000X-0.850000X-0.850000X0.850000X-0.850000X0*%
%ADD49C,1.776000*%
%ADD50RoundRect,0.267273X0.320727X-0.320727X0.320727X0.320727X-0.320727X0.320727X-0.320727X-0.320727X0*%
%ADD51RoundRect,0.037500X0.462500X-0.087500X0.462500X0.087500X-0.462500X0.087500X-0.462500X-0.087500X0*%
%ADD52RoundRect,0.062000X0.248000X-0.438000X0.248000X0.438000X-0.248000X0.438000X-0.248000X-0.438000X0*%
%ADD53RoundRect,0.081500X0.081500X-0.231500X0.081500X0.231500X-0.081500X0.231500X-0.081500X-0.231500X0*%
%ADD54RoundRect,0.042000X0.458000X-0.133000X0.458000X0.133000X-0.458000X0.133000X-0.458000X-0.133000X0*%
%ADD55RoundRect,0.081500X-0.081500X0.231500X-0.081500X-0.231500X0.081500X-0.231500X0.081500X0.231500X0*%
%ADD56RoundRect,0.260556X0.677444X-1.027444X0.677444X1.027444X-0.677444X1.027444X-0.677444X-1.027444X0*%
%ADD57RoundRect,0.038000X-0.550000X0.900000X-0.550000X-0.900000X0.550000X-0.900000X0.550000X0.900000X0*%
%ADD58RoundRect,0.194000X-0.644000X0.194000X-0.644000X-0.194000X0.644000X-0.194000X0.644000X0.194000X0*%
%ADD59RoundRect,0.219000X-0.619000X0.219000X-0.619000X-0.219000X0.619000X-0.219000X0.619000X0.219000X0*%
%ADD60RoundRect,0.244000X-0.594000X0.244000X-0.594000X-0.244000X0.594000X-0.244000X0.594000X0.244000X0*%
%ADD61O,1.776000X1.076000*%
%ADD62C,2.276000*%
%ADD63RoundRect,0.102000X-0.600000X-1.950000X0.600000X-1.950000X0.600000X1.950000X-0.600000X1.950000X0*%
%ADD64RoundRect,0.102000X-0.599438X-1.562705X0.599438X-1.562705X0.599438X1.562705X-0.599438X1.562705X0*%
%ADD65RoundRect,0.102000X-0.599981X-1.550000X0.599981X-1.550000X0.599981X1.550000X-0.599981X1.550000X0*%
%ADD66RoundRect,0.102000X-0.598259X-1.550535X0.598259X-1.550535X0.598259X1.550535X-0.598259X1.550535X0*%
%ADD67RoundRect,0.102000X-0.603426X-1.548665X0.603426X-1.548665X0.603426X1.548665X-0.603426X1.548665X0*%
%ADD68RoundRect,0.102000X-1.105000X-1.950000X1.105000X-1.950000X1.105000X1.950000X-1.105000X1.950000X0*%
%ADD69RoundRect,0.102000X-1.124997X-1.949997X1.124997X-1.949997X1.124997X1.949997X-1.124997X1.949997X0*%
G04 APERTURE END LIST*
D10*
%TO.C,BZ601*%
X38030560Y3697920D02*
X35992080Y1659440D01*
X34890000Y2700000D01*
X33990000Y2750000D01*
X33990000Y4700000D01*
X36928480Y4700000D01*
X38030560Y3697920D01*
G36*
X38030560Y3697920D02*
G01*
X35992080Y1659440D01*
X34890000Y2700000D01*
X33990000Y2750000D01*
X33990000Y4700000D01*
X36928480Y4700000D01*
X38030560Y3697920D01*
G37*
X38030560Y-3947920D02*
X37028480Y-5000000D01*
X34130000Y-5000000D01*
X34110000Y-2964349D01*
X34990000Y-2961520D01*
X36092080Y-2009440D01*
X38030560Y-3947920D01*
G36*
X38030560Y-3947920D02*
G01*
X37028480Y-5000000D01*
X34130000Y-5000000D01*
X34110000Y-2964349D01*
X34990000Y-2961520D01*
X36092080Y-2009440D01*
X38030560Y-3947920D01*
G37*
X45630000Y3070000D02*
X44690000Y2710000D01*
X43637920Y1759440D01*
X41699440Y3697920D01*
X42651520Y4700000D01*
X45630000Y4700000D01*
X45630000Y3070000D01*
G36*
X45630000Y3070000D02*
G01*
X44690000Y2710000D01*
X43637920Y1759440D01*
X41699440Y3697920D01*
X42651520Y4700000D01*
X45630000Y4700000D01*
X45630000Y3070000D01*
G37*
X45090000Y-3311520D02*
X44827341Y-3574179D01*
X44820000Y-5125564D01*
X43380110Y-5110000D01*
X43051520Y-5350000D01*
X41599440Y-3947920D01*
X43637920Y-1909440D01*
X45090000Y-3311520D01*
G36*
X45090000Y-3311520D02*
G01*
X44827341Y-3574179D01*
X44820000Y-5125564D01*
X43380110Y-5110000D01*
X43051520Y-5350000D01*
X41599440Y-3947920D01*
X43637920Y-1909440D01*
X45090000Y-3311520D01*
G37*
%TO.C,J501*%
X53870000Y20130000D02*
X51720000Y20130000D01*
X51720000Y20630000D01*
X51020000Y20630000D01*
X51020000Y21930000D01*
X52420000Y21930000D01*
X52420000Y22630000D01*
X53870000Y22630000D01*
X53870000Y20130000D01*
G36*
X53870000Y20130000D02*
G01*
X51720000Y20130000D01*
X51720000Y20630000D01*
X51020000Y20630000D01*
X51020000Y21930000D01*
X52420000Y21930000D01*
X52420000Y22630000D01*
X53870000Y22630000D01*
X53870000Y20130000D01*
G37*
X61520000Y21930000D02*
X62920000Y21930000D01*
X62920000Y20630000D01*
X62220000Y20630000D01*
X62220000Y20130000D01*
X60070000Y20130000D01*
X60070000Y22630000D01*
X61520000Y22630000D01*
X61520000Y21930000D01*
G36*
X61520000Y21930000D02*
G01*
X62920000Y21930000D01*
X62920000Y20630000D01*
X62220000Y20630000D01*
X62220000Y20130000D01*
X60070000Y20130000D01*
X60070000Y22630000D01*
X61520000Y22630000D01*
X61520000Y21930000D01*
G37*
%TO.C,U301*%
D11*
X44317500Y26080000D02*
G75*
G02*
X44417500Y25980000I0J-100000D01*
G01*
X44417500Y25580000D02*
G75*
G02*
X44317500Y25480000I-99999J-1D01*
G01*
%TD*%
D12*
%TO.C,J201*%
X74853600Y30283000D03*
D13*
X77008600Y30283000D03*
D12*
X79158600Y30283000D03*
X74853600Y27743000D03*
D13*
X77008600Y27743000D03*
D12*
X79163600Y27743000D03*
X74853600Y25203000D03*
D13*
X77008600Y25203000D03*
D12*
X79158600Y25203000D03*
X74853600Y22663000D03*
D13*
X77008600Y22663000D03*
D12*
X79163600Y22663000D03*
X74853600Y20123000D03*
D13*
X77008600Y20123000D03*
D12*
X79158600Y20123000D03*
X74853600Y17583000D03*
D13*
X77008600Y17583000D03*
D12*
X79163600Y17583000D03*
X74853600Y15043000D03*
D13*
X77008600Y15043000D03*
D12*
X79158600Y15043000D03*
X74853600Y12503000D03*
D13*
X77008600Y12503000D03*
D12*
X79163600Y12503000D03*
%TD*%
D14*
%TO.C,J202*%
X79163600Y7448400D03*
D13*
X77008600Y7448400D03*
D14*
X74853600Y7448400D03*
X79163600Y4908400D03*
D13*
X77008600Y4908400D03*
D14*
X74853600Y4908400D03*
X79163600Y2368400D03*
D13*
X77008600Y2368400D03*
D14*
X74853600Y2368400D03*
X79163600Y-171600D03*
D13*
X77008600Y-171600D03*
D14*
X74853600Y-171600D03*
X79163600Y-2711600D03*
D13*
X77008600Y-2711600D03*
D14*
X74853600Y-2711600D03*
X79163600Y-5251600D03*
D13*
X77008600Y-5251600D03*
D14*
X74853600Y-5251600D03*
%TD*%
%TO.C,J203*%
X30878200Y16617800D03*
D13*
X28723200Y16617800D03*
D14*
X26568200Y16617800D03*
X30878200Y19157800D03*
D13*
X28723200Y19157800D03*
D14*
X26568200Y19157800D03*
X30878200Y21697800D03*
D13*
X28723200Y21697800D03*
D14*
X26568200Y21697800D03*
X30878200Y24237800D03*
D13*
X28723200Y24237800D03*
D14*
X26568200Y24237800D03*
X30878200Y26777800D03*
D13*
X28723200Y26777800D03*
D14*
X26568200Y26777800D03*
X30878200Y29317800D03*
D13*
X28723200Y29317800D03*
D14*
X26568200Y29317800D03*
X30878200Y31857800D03*
D13*
X28723200Y31857800D03*
D14*
X26568200Y31857800D03*
X30878200Y34397800D03*
D13*
X28723200Y34397800D03*
D14*
X26568200Y34397800D03*
X30878200Y36937800D03*
D13*
X28723200Y36937800D03*
D14*
X26568200Y36937800D03*
X30878200Y39477800D03*
D13*
X28723200Y39477800D03*
D14*
X26568200Y39477800D03*
%TD*%
%TO.C,J204*%
X30878200Y-5277000D03*
D13*
X28723200Y-5277000D03*
D14*
X26573200Y-5277000D03*
X30878200Y-2737000D03*
D13*
X28723200Y-2737000D03*
D14*
X26568200Y-2737000D03*
X30878200Y-197000D03*
D13*
X28723200Y-197000D03*
D14*
X26573200Y-197000D03*
X30878200Y2343000D03*
D13*
X28723200Y2343000D03*
D14*
X26568200Y2343000D03*
X30878200Y4883000D03*
D13*
X28723200Y4883000D03*
D14*
X26573200Y4883000D03*
X30878200Y7423000D03*
D13*
X28723200Y7423000D03*
D14*
X26568200Y7423000D03*
X30878200Y9963000D03*
D13*
X28723200Y9963000D03*
D14*
X26573200Y9963000D03*
X30878200Y12503000D03*
D13*
X28723200Y12503000D03*
D14*
X26568200Y12503000D03*
%TD*%
D15*
%TO.C,D303*%
X26600000Y55025000D03*
X24550000Y55025000D03*
%TD*%
D16*
%TO.C,C301*%
X42600000Y30812500D03*
X42600000Y33937500D03*
%TD*%
D17*
%TO.C,R335*%
X52710000Y36000000D03*
X54710000Y36000000D03*
%TD*%
%TO.C,R407*%
X50590000Y3940000D03*
X52590000Y3940000D03*
%TD*%
D18*
%TO.C,R328*%
X62870000Y40250000D03*
X60870000Y40250000D03*
%TD*%
D19*
%TO.C,R313*%
X34220000Y22570000D03*
X34220000Y20570000D03*
%TD*%
D18*
%TO.C,R322*%
X63930000Y37310000D03*
X61930000Y37310000D03*
%TD*%
%TO.C,R502*%
X63040000Y18180000D03*
X61040000Y18180000D03*
%TD*%
D20*
%TO.C,D305*%
X64377500Y46090000D03*
X61877500Y46090000D03*
%TD*%
D17*
%TO.C,R406*%
X50590000Y-3740000D03*
X52590000Y-3740000D03*
%TD*%
D21*
%TO.C,R321*%
X68820000Y38800000D03*
X68820000Y40800000D03*
%TD*%
D17*
%TO.C,R318*%
X40837500Y23825000D03*
X42837500Y23825000D03*
%TD*%
%TO.C,R312*%
X43690000Y53030000D03*
X45690000Y53030000D03*
%TD*%
D22*
%TO.C,C502*%
X51530000Y16357500D03*
X51530000Y14282500D03*
%TD*%
D23*
%TO.C,C309*%
X50200000Y36362500D03*
X50200000Y38437500D03*
%TD*%
D24*
%TO.C,C308*%
X42897500Y28920000D03*
X40822500Y28920000D03*
%TD*%
D18*
%TO.C,R411*%
X48820000Y-480000D03*
X46820000Y-480000D03*
%TD*%
D19*
%TO.C,R302*%
X34270000Y40930000D03*
X34270000Y38930000D03*
%TD*%
%TO.C,R402*%
X57190000Y3370000D03*
X57190000Y1370000D03*
%TD*%
D17*
%TO.C,R311*%
X43690000Y55030000D03*
X45690000Y55030000D03*
%TD*%
D25*
%TO.C,Q307*%
X68062500Y32475000D03*
X68062500Y30575000D03*
X69937500Y31525000D03*
%TD*%
D21*
%TO.C,R316*%
X45937500Y19925000D03*
X45937500Y21925000D03*
%TD*%
D17*
%TO.C,R303*%
X45250000Y34500000D03*
X47250000Y34500000D03*
%TD*%
D26*
%TO.C,Q309*%
X48370000Y30912500D03*
X50270000Y30912500D03*
X49320000Y32787500D03*
%TD*%
D27*
%TO.C,U401*%
X54976901Y-1556900D03*
X54976901Y-2056899D03*
X54976901Y-2556900D03*
X54976901Y-3056900D03*
X54976901Y-3556901D03*
X54976901Y-4056900D03*
D28*
X55670001Y-4750000D03*
X56170000Y-4750000D03*
X56670001Y-4750000D03*
X57170001Y-4750000D03*
X57670002Y-4750000D03*
X58170001Y-4750000D03*
D27*
X58863101Y-4056900D03*
X58863101Y-3556901D03*
X58863101Y-3056900D03*
X58863101Y-2556900D03*
X58863101Y-2056899D03*
X58863101Y-1556900D03*
D28*
X58170001Y-863800D03*
X57670002Y-863800D03*
X57170001Y-863800D03*
X56670001Y-863800D03*
X56170000Y-863800D03*
X55670001Y-863800D03*
D29*
X56920001Y-2806900D03*
%TD*%
D30*
%TO.C,J501*%
X54220000Y19648000D03*
X54720000Y19648000D03*
X55220000Y19648000D03*
X55720000Y19648000D03*
X56220000Y19648000D03*
X56720000Y19648000D03*
X57220000Y19648000D03*
X57720000Y19648000D03*
X58220000Y19648000D03*
X58720000Y19648000D03*
X59220000Y19648000D03*
X59720000Y19648000D03*
%TD*%
D15*
%TO.C,D304*%
X26550000Y53025000D03*
X24500000Y53025000D03*
%TD*%
D22*
%TO.C,C314*%
X61200000Y30827500D03*
X61200000Y28752500D03*
%TD*%
D15*
%TO.C,D307*%
X26600000Y57100000D03*
X24550000Y57100000D03*
%TD*%
D31*
%TO.C,D601*%
X46360000Y12240000D03*
X43060000Y12240000D03*
%TD*%
D22*
%TO.C,C310*%
X47717500Y26925000D03*
X47717500Y24850000D03*
%TD*%
D21*
%TO.C,R503*%
X59240000Y14330000D03*
X59240000Y16330000D03*
%TD*%
D19*
%TO.C,R325*%
X64110000Y22750000D03*
X64110000Y20750000D03*
%TD*%
D22*
%TO.C,C303*%
X42018000Y22005000D03*
X42018000Y19930000D03*
%TD*%
D23*
%TO.C,C401*%
X65180000Y-1067500D03*
X65180000Y1007500D03*
%TD*%
D32*
%TO.C,U303*%
X59422500Y33825000D03*
X58152500Y33825000D03*
X56882500Y33825000D03*
X55612500Y33825000D03*
X54342500Y33825000D03*
X53072500Y33825000D03*
X51802500Y33825000D03*
X51802500Y28875000D03*
X53072500Y28875000D03*
X54342500Y28875000D03*
X55612500Y28875000D03*
X56882500Y28875000D03*
X58152500Y28875000D03*
X59422500Y28875000D03*
%TD*%
D33*
%TO.C,Q601*%
X40750000Y8350000D03*
D34*
X40662500Y9850000D03*
D33*
X40750000Y11350000D03*
%TD*%
D21*
%TO.C,R309*%
X36310000Y20570000D03*
X36310000Y22570000D03*
%TD*%
D35*
%TO.C,SW302*%
X75650000Y47225000D03*
X75650000Y53425000D03*
X79350000Y47225000D03*
X79350000Y53425000D03*
%TD*%
D23*
%TO.C,C402*%
X63220000Y-1077500D03*
X63220000Y997500D03*
%TD*%
D19*
%TO.C,R305*%
X71790000Y11730000D03*
X71790000Y9730000D03*
%TD*%
%TO.C,R306*%
X47837500Y20325000D03*
X47837500Y18325000D03*
%TD*%
D17*
%TO.C,R308*%
X46560000Y28970000D03*
X48560000Y28970000D03*
%TD*%
D18*
%TO.C,R326*%
X68550000Y36200000D03*
X66550000Y36200000D03*
%TD*%
%TO.C,R405*%
X71120000Y-4140000D03*
X69120000Y-4140000D03*
%TD*%
D36*
%TO.C,J303*%
X37870000Y50180000D03*
D13*
X37870000Y52030000D03*
D36*
X35870000Y50180000D03*
D13*
X35870000Y52030000D03*
D37*
X40220000Y55930000D03*
X33520000Y55930000D03*
%TD*%
D17*
%TO.C,R408*%
X50590000Y100000D03*
X52590000Y100000D03*
%TD*%
D38*
%TO.C,D308*%
X45360000Y40190000D03*
X45360000Y42690000D03*
%TD*%
D19*
%TO.C,R314*%
X43870000Y47430000D03*
X43870000Y45430000D03*
%TD*%
D17*
%TO.C,R602*%
X38570000Y6340000D03*
X40570000Y6340000D03*
%TD*%
D22*
%TO.C,C311*%
X49820000Y26937500D03*
X49820000Y24862500D03*
%TD*%
D17*
%TO.C,R333*%
X69950000Y13850000D03*
X71950000Y13850000D03*
%TD*%
D39*
%TO.C,D306*%
X56220000Y43830000D03*
X58720000Y43830000D03*
%TD*%
D22*
%TO.C,C404*%
X63240000Y-2782500D03*
X63240000Y-4857500D03*
%TD*%
D38*
%TO.C,D312*%
X65150000Y29170000D03*
X65150000Y31670000D03*
%TD*%
D24*
%TO.C,C501*%
X52627500Y18190000D03*
X50552500Y18190000D03*
%TD*%
D17*
%TO.C,R320*%
X65950000Y19710000D03*
X67950000Y19710000D03*
%TD*%
D19*
%TO.C,R601*%
X61150000Y16360000D03*
X61150000Y14360000D03*
%TD*%
D40*
%TO.C,U302*%
X46065000Y47797500D03*
X46065000Y46527500D03*
X46065000Y45257500D03*
X46065000Y43987500D03*
X51015000Y43987500D03*
X51015000Y45257500D03*
X51015000Y46527500D03*
X51015000Y47797500D03*
D41*
X48540000Y45892500D03*
%TD*%
D42*
%TO.C,Q305*%
X66180000Y43740000D03*
D43*
X67680000Y43827500D03*
D42*
X69180000Y43740000D03*
%TD*%
D17*
%TO.C,R412*%
X50590000Y-1820000D03*
X52590000Y-1820000D03*
%TD*%
D44*
%TO.C,C304*%
X47850000Y22225000D03*
X49925000Y22225000D03*
%TD*%
D17*
%TO.C,R331*%
X68495000Y28855000D03*
X70495000Y28855000D03*
%TD*%
D45*
%TO.C,D309*%
X47900000Y41200000D03*
X51900000Y41200000D03*
%TD*%
D21*
%TO.C,R330*%
X62070000Y42100000D03*
X62070000Y44100000D03*
%TD*%
D46*
%TO.C,Q306*%
X66180000Y27407500D03*
X64280000Y27407500D03*
X65230000Y25532500D03*
%TD*%
D22*
%TO.C,C405*%
X61260000Y-2782500D03*
X61260000Y-4857500D03*
%TD*%
D21*
%TO.C,R505*%
X57310000Y14330000D03*
X57310000Y16330000D03*
%TD*%
D24*
%TO.C,C305*%
X45845500Y18089310D03*
X43770500Y18089310D03*
%TD*%
D21*
%TO.C,R409*%
X55260000Y1360000D03*
X55260000Y3360000D03*
%TD*%
D23*
%TO.C,C407*%
X46330000Y-4727500D03*
X46330000Y-2652500D03*
%TD*%
D47*
%TO.C,L301*%
X39802500Y26360000D03*
X42777500Y26360000D03*
%TD*%
D17*
%TO.C,R329*%
X66540000Y34205000D03*
X68540000Y34205000D03*
%TD*%
D18*
%TO.C,R401*%
X71230000Y4880000D03*
X69230000Y4880000D03*
%TD*%
D48*
%TO.C,J302*%
X35490000Y43575000D03*
D49*
X35490000Y46115000D03*
%TD*%
D50*
%TO.C,D301*%
X32140000Y44282500D03*
X32140000Y47082500D03*
%TD*%
D17*
%TO.C,R332*%
X43590000Y57030000D03*
X45590000Y57030000D03*
%TD*%
D51*
%TO.C,U301*%
X44487500Y25405000D03*
D52*
X44677500Y25780000D03*
D51*
X44487500Y26155000D03*
D53*
X44437500Y24605000D03*
X44937500Y24605000D03*
X45437500Y24605000D03*
X45937500Y24605000D03*
D54*
X45887500Y25430000D03*
X45887500Y26130000D03*
D55*
X45937500Y26955000D03*
X45437500Y26955000D03*
X44937500Y26955000D03*
X44437500Y26955000D03*
%TD*%
D19*
%TO.C,R317*%
X44007500Y21925000D03*
X44007500Y19925000D03*
%TD*%
%TO.C,R315*%
X41910000Y47440000D03*
X41910000Y45440000D03*
%TD*%
D17*
%TO.C,R324*%
X62260000Y48770000D03*
X64260000Y48770000D03*
%TD*%
D19*
%TO.C,R323*%
X65810000Y40990000D03*
X65810000Y38990000D03*
%TD*%
%TO.C,R603*%
X43340000Y10170000D03*
X43340000Y8170000D03*
%TD*%
%TO.C,R319*%
X67870000Y17880000D03*
X67870000Y15880000D03*
%TD*%
D56*
%TO.C,D302*%
X39190000Y42432500D03*
X39190000Y46432500D03*
%TD*%
D18*
%TO.C,R337*%
X59120000Y39420000D03*
X57120000Y39420000D03*
%TD*%
D26*
%TO.C,Q302*%
X33600000Y35182500D03*
X35500000Y35182500D03*
X34550000Y37057500D03*
%TD*%
D21*
%TO.C,R504*%
X55390000Y14330000D03*
X55390000Y16330000D03*
%TD*%
D39*
%TO.C,D311*%
X56020000Y47100000D03*
X58520000Y47100000D03*
%TD*%
D57*
%TO.C,SW301*%
X79350000Y42475000D03*
X79350000Y36275000D03*
X75650000Y42475000D03*
X75650000Y36275000D03*
%TD*%
D26*
%TO.C,Q304*%
X66010000Y21722500D03*
X67910000Y21722500D03*
X66960000Y23597500D03*
%TD*%
%TO.C,Q301*%
X45470000Y36562500D03*
X47370000Y36562500D03*
X46420000Y38437500D03*
%TD*%
D22*
%TO.C,C316*%
X60250000Y49967500D03*
X60250000Y47892500D03*
%TD*%
D25*
%TO.C,Q308*%
X56812500Y37700000D03*
X56812500Y35800000D03*
X58687500Y36750000D03*
%TD*%
%TO.C,Q303*%
X37037500Y34600000D03*
X37037500Y32700000D03*
X38912500Y33650000D03*
%TD*%
D23*
%TO.C,C406*%
X48380000Y-4727500D03*
X48380000Y-2652500D03*
%TD*%
D21*
%TO.C,R304*%
X34910000Y31340000D03*
X34910000Y33340000D03*
%TD*%
D38*
%TO.C,D310*%
X69880000Y9630000D03*
X69880000Y12130000D03*
%TD*%
D19*
%TO.C,R410*%
X59090000Y3380000D03*
X59090000Y1380000D03*
%TD*%
D23*
%TO.C,C306*%
X43380000Y41652500D03*
X43380000Y43727500D03*
%TD*%
D18*
%TO.C,R413*%
X52590000Y2040000D03*
X50590000Y2040000D03*
%TD*%
D19*
%TO.C,R301*%
X36240000Y40890000D03*
X36240000Y38890000D03*
%TD*%
D58*
%TO.C,J301*%
X28590000Y47225000D03*
D59*
X28590000Y45205000D03*
D60*
X28590000Y43975000D03*
D58*
X28590000Y46225000D03*
D59*
X28590000Y48245000D03*
D60*
X28590000Y49475000D03*
D61*
X28410000Y51045000D03*
X24610000Y51045000D03*
X28410000Y42405000D03*
X24610000Y42405000D03*
%TD*%
D21*
%TO.C,R310*%
X36300000Y16720000D03*
X36300000Y18720000D03*
%TD*%
D18*
%TO.C,R334*%
X57340000Y49010000D03*
X55340000Y49010000D03*
%TD*%
D23*
%TO.C,C302*%
X44727500Y28385000D03*
X44727500Y30460000D03*
%TD*%
D21*
%TO.C,R501*%
X53490000Y14320000D03*
X53490000Y16320000D03*
%TD*%
D18*
%TO.C,R336*%
X62850000Y34810000D03*
X60850000Y34810000D03*
%TD*%
D22*
%TO.C,C307*%
X34250000Y18747500D03*
X34250000Y16672500D03*
%TD*%
D18*
%TO.C,R327*%
X58710000Y41900000D03*
X56710000Y41900000D03*
%TD*%
D62*
%TO.C,J401*%
X32340000Y-36110000D03*
X76790000Y-15790000D03*
D63*
X46310000Y-12900000D03*
X48850000Y-12900000D03*
X51390000Y-12900000D03*
X53930000Y-12900000D03*
D64*
X46309492Y-38612705D03*
D65*
X48850019Y-38600000D03*
D66*
X51388279Y-38600535D03*
D67*
X53933426Y-38598665D03*
D68*
X61145000Y-21200000D03*
D69*
X58584997Y-21200003D03*
%TD*%
D23*
%TO.C,C403*%
X61260000Y-1087500D03*
X61260000Y987500D03*
%TD*%
%TO.C,C312*%
X63180000Y29812500D03*
X63180000Y31887500D03*
%TD*%
D18*
%TO.C,R307*%
X39110000Y36440000D03*
X37110000Y36440000D03*
%TD*%
M02*
