M48
; DRILL file KiCad 10.0.0 date 2026-05-11T10:30:11
; FORMAT={-:-/ absolute / inch / decimal}
; #@! TF.CreationDate,2026-05-11T10:30:11-04:00
; #@! TF.GenerationSoftware,Kicad,Pcbnew,10.0.0
; #@! TF.FileFunction,Plated,1,4,PTH
FMAT,2
INCH
; #@! TA.AperFunction,Plated,PTH,ViaDrill
T1C0.0118
; #@! TA.AperFunction,Plated,PTH,ComponentDrill
T2C0.0118
; #@! TA.AperFunction,Plated,PTH,ViaDrill
T3C0.0157
; #@! TA.AperFunction,Plated,PTH,ViaDrill
T4C0.0197
; #@! TA.AperFunction,Plated,PTH,ComponentDrill
T5C0.0197
; #@! TA.AperFunction,Plated,PTH,ComponentDrill
T6C0.0315
; #@! TA.AperFunction,Plated,PTH,ComponentDrill
T7C0.0394
%
G90
G05
T1
X0.9429Y0.463
X0.9488Y1.8535
X0.9508Y0.0756
X0.9535Y0.8634
X0.9559Y1.2764
X0.985Y-0.5224
X0.9965Y-0.9535
X1.0039Y-1.4846
X1.0991Y2.2691
X1.1126Y2.2079
X1.1146Y2.1689
X1.1165Y-1.478
X1.1189Y2.0894
X1.2146Y-0.3736
X1.2394Y0.1476
X1.2472Y0.5768
X1.2591Y1.911
X1.2665Y-1.1252
X1.2862Y0.8043
X1.2992Y1.5075
X1.3016Y0.7024
X1.3142Y0.0028
X1.3217Y1.7303
X1.3283Y1.2224
X1.3283Y0.0543
X1.3319Y2.072
X1.3335Y0.3
X1.3336Y1.4294
X1.3453Y-0.2374
X1.3469Y-0.0925
X1.3472Y1.1728
X1.3575Y0.2157
X1.3583Y1.9232
X1.3618Y0.4441
X1.3756Y0.5094
X1.3764Y1.072
X1.3809Y2.1339
X1.3854Y2.2744
X1.3996Y0.3205
X1.4134Y1.3474
X1.4295Y0.6102
X1.4406Y-0.0791
X1.4567Y2.2133
X1.4646Y0.2835
X1.4717Y1.5646
X1.4787Y0.4445
X1.4902Y-0.0433
X1.4906Y0.7921
X1.4917Y1.2335
X1.5325Y1.3543
X1.535Y1.752
X1.5508Y1.515
X1.5543Y-0.1382
X1.5594Y0.0705
X1.5685Y2.0083
X1.5689Y0.5799
X1.5713Y-0.0102
X1.5969Y0.1724
X1.6033Y1.8602
X1.6051Y0.5039
X1.6098Y1.6921
X1.6197Y2.0433
X1.6276Y-0.0059
X1.628Y-0.1043
X1.6329Y2.2726
X1.6339Y2.1348
X1.6407Y2.2063
X1.6486Y1.6496
X1.652Y0.635
X1.6604Y1.3917
X1.6689Y2.1665
X1.6693Y0.3602
X1.6705Y2.1012
X1.6736Y2.2433
X1.6878Y1.835
X1.6969Y-1.1547
X1.7165Y0.2449
X1.7177Y-0.3575
X1.7323Y1.3213
X1.7406Y1.574
X1.7602Y0.3728
X1.7677Y-0.2437
X1.7705Y1.8027
X1.772Y-0.0941
X1.7795Y0.5228
X1.7835Y-0.1465
X1.785Y-0.026
X1.7913Y1.1575
X1.7937Y1.2752
X1.7941Y-0.2724
X1.8371Y0.8217
X1.8374Y2.0287
X1.839Y0.9835
X1.8425Y0.9492
X1.8433Y2.2441
X1.8657Y0.3921
X1.8665Y1.8846
X1.8701Y2.1528
X1.8787Y1.013
X1.8799Y0.285
X1.8811Y2.0217
X1.8843Y-1.1539
X1.8874Y0.0248
X1.9094Y1.378
X1.9142Y1.0122
X1.926Y0.9492
X1.939Y2.0413
X1.9421Y1.1917
X1.9425Y1.7063
X1.9425Y-0.0673
X1.9524Y0.0795
X1.9587Y-0.2154
X1.9614Y1.015
X1.9644Y1.338
X1.9673Y1.1366
X1.9693Y0.6063
X1.9742Y1.8523
X1.9764Y1.3945
X1.9854Y-0.8677
X1.9886Y-0.2925
X1.9906Y-0.9508
X1.9917Y-0.0339
X1.9957Y-1.0921
X1.9992Y0.5051
X2.0055Y1.0106
X2.0091Y0.9429
X2.0094Y1.8028
X2.0094Y1.2756
X2.0319Y1.2504
X2.0323Y-0.1664
X2.0346Y0.0035
X2.0449Y0.1145
X2.0484Y-0.811
X2.0551Y-0.9
X2.0567Y0.3315
X2.0571Y1.8576
X2.061Y-1.0331
X2.0783Y-0.2122
X2.1008Y1.5386
X2.1008Y0.2232
X2.1039Y1.4591
X2.1055Y0.7713
X2.1102Y-0.7929
X2.1157Y1.1843
X2.1165Y1.3996
X2.1177Y1.2756
X2.1203Y-0.125
X2.1236Y1.6531
X2.1236Y0.1382
X2.124Y-0.3858
X2.1368Y1.9606
X2.1374Y-0.0114
X2.139Y-0.2409
X2.1437Y0.4315
X2.1469Y0.5146
X2.1535Y1.8543
X2.1598Y-0.6382
X2.1614Y0.6921
X2.1669Y-0.0437
X2.1669Y-0.1854
X2.1677Y1.2161
X2.1736Y0.8602
X2.1752Y-0.715
X2.1866Y-0.2275
X2.2102Y0.3291
X2.2114Y-0.0035
X2.2142Y-0.5984
X2.226Y-0.4791
X2.2295Y-0.6709
X2.2398Y1.4319
X2.2425Y-1.1051
X2.2437Y-0.739
X2.2441Y1.0744
X2.2484Y1.7988
X2.2516Y0.3921
X2.2768Y0.6941
X2.2839Y-0.1535
X2.2854Y-0.3291
X2.2878Y0.8685
X2.2894Y0.337
X2.2894Y-0.2186
X2.2898Y1.0791
X2.2906Y1.5898
X2.2917Y0.5079
X2.3035Y0.422
X2.3228Y1.2724
X2.3299Y1.9835
X2.3315Y-0.2323
X2.3571Y-1.5213
X2.3587Y1.7244
X2.3587Y-0.1213
X2.3618Y-0.0622
X2.3622Y-0.0055
X2.3624Y1.4963
X2.3626Y1.2142
X2.3709Y0.022
X2.3709Y-0.7189
X2.372Y-0.0965
X2.3831Y1.276
X2.4004Y0.3217
X2.4079Y0.411
X2.4098Y1.174
X2.4378Y1.3268
X2.4453Y-0.1602
X2.4543Y1.7776
X2.4551Y0.9898
X2.4555Y1.5232
X2.4579Y1.0807
X2.4862Y-0.8339
X2.4949Y0.4374
X2.4965Y1.3201
X2.4976Y1.6783
X2.5075Y0.6307
X2.5122Y0.074
X2.524Y-0.1598
X2.5429Y1.3728
X2.5646Y1.2795
X2.5689Y0.9498
X2.5689Y0.7156
X2.5709Y1.9331
X2.5827Y1.8972
X2.589Y0.1417
X2.5992Y0.0677
X2.6008Y0.376
X2.6024Y-0.1091
X2.6236Y0.626
X2.6417Y1.4795
X2.6539Y1.6031
X2.6567Y1.3815
X2.6583Y-0.3535
X2.6685Y0.9354
X2.6815Y0.0012
X2.6827Y1.2366
X2.702Y-0.3937
X2.7039Y0.8299
X2.7071Y0.4315
X2.7079Y1.0803
X2.7232Y0.7295
X2.7386Y0.7858
X2.7388Y1.1053
X2.7504Y1.0217
X2.7602Y1.7201
X2.7638Y0.6535
X2.7843Y0.7516
X2.7874Y1.4685
X2.7953Y-0.211
X2.7961Y1.7819
X2.8016Y-0.0063
X2.811Y1.1008
X2.811Y0.0783
X2.8114Y0.926
X2.8126Y1.0189
X2.8138Y1.989
X2.8476Y-0.1114
X2.852Y-0.152
X2.8543Y1.9043
X2.8543Y-0.2366
X2.8575Y-1.0543
X2.8583Y1.3933
X2.8689Y2.0343
X2.8843Y0.3488
X2.8886Y1.6409
X2.8949Y0.0461
X2.9091Y0.237
X2.9173Y2.185
X2.9185Y1.5854
X2.9295Y1.6996
X2.9465Y1.0488
X2.9472Y0.6445
X2.9512Y0.1346
X2.9543Y0.8476
X2.9732Y-0.1488
X3.0146Y1.7591
X3.0547Y1.7287
X3.0748Y1.7795
X3.078Y-0.0622
X3.1146Y0.7421
X3.1185Y0.9472
X3.1185Y0.4232
X3.1236Y1.1402
X3.1382Y0.548
X3.1612Y0.4226
X3.1634Y-0.3839
X3.1752Y-0.9996
X3.1882Y0.3941
X3.1906Y2.189
X3.1929Y1.7591
X3.1941Y-1.5193
X3.1953Y1.3008
X3.2016Y0.1366
X3.2102Y0.8417
T2
X1.7397Y1.015
X1.8835Y1.854
X1.8835Y1.8068
X1.8835Y1.7595
X1.9386Y1.854
X1.9386Y1.8068
X1.9386Y1.7595
T3
X1.0522Y1.9478
X1.0522Y1.7313
X1.1752Y1.8602
X1.1752Y1.8199
X1.1898Y1.7157
X1.1969Y1.9478
X1.2244Y1.6858
X1.285Y1.6858
X2.1644Y1.9821
T4
X1.5894Y0.7843
X1.6669Y0.7256
X1.724Y0.6559
X1.8795Y0.9311
X1.965Y0.8142
T6
X1.1308Y1.5542
X1.1308Y1.4542
X1.1308Y1.3542
X1.1308Y1.2542
X1.1308Y1.1542
X1.1308Y1.0542
X1.1308Y0.9542
X1.1308Y0.8542
X1.1308Y0.7542
X1.1308Y0.6542
X1.1308Y0.4922
X1.1308Y0.3922
X1.1308Y0.2922
X1.1308Y0.1922
X1.1308Y0.0922
X1.1308Y-0.0078
X1.1308Y-0.1078
X1.1308Y-0.2078
X1.4122Y2.0484
X1.4909Y2.0484
X3.0318Y1.1922
X3.0318Y1.0922
X3.0318Y0.9922
X3.0318Y0.8922
X3.0318Y0.7922
X3.0318Y0.6922
X3.0318Y0.5922
X3.0318Y0.4922
X3.0318Y0.2932
X3.0318Y0.1932
X3.0318Y0.0932
X3.0318Y-0.0068
X3.0318Y-0.1068
X3.0318Y-0.2068
T7
X1.3972Y1.8156
X1.3972Y1.7156
T5
G00X0.9827Y2.0096
M15
G01X0.9551Y2.0096
M16
G05
G00X0.9827Y1.6695
M15
G01X0.9551Y1.6695
M16
G05
G00X1.1323Y2.0096
M15
G01X1.1047Y2.0096
M16
G05
G00X1.1323Y1.6695
M15
G01X1.1047Y1.6695
M16
G05
M30
