%TF.GenerationSoftware,KiCad,Pcbnew,10.0.0*%
%TF.CreationDate,2026-05-11T10:30:11-04:00*%
%TF.ProjectId,SpecterShield-BE-HNQR,53706563-7465-4725-9368-69656c642d42,rev?*%
%TF.SameCoordinates,Original*%
%TF.FileFunction,Paste,Top*%
%TF.FilePolarity,Positive*%
%FSLAX46Y46*%
G04 Gerber Fmt 4.6, Leading zero omitted, Abs format (unit mm)*
G04 Created by KiCad (PCBNEW 10.0.0) date 2026-05-11 10:30:11*
%MOMM*%
%LPD*%
G01*
G04 APERTURE LIST*
G04 Aperture macros list*
%AMRoundRect*
0 Rectangle with rounded corners*
0 $1 Rounding radius*
0 $2 $3 $4 $5 $6 $7 $8 $9 X,Y pos of 4 corners*
0 Add a 4 corners polygon primitive as box body*
4,1,4,$2,$3,$4,$5,$6,$7,$8,$9,$2,$3,0*
0 Add four circle primitives for the rounded corners*
1,1,$1+$1,$2,$3*
1,1,$1+$1,$4,$5*
1,1,$1+$1,$6,$7*
1,1,$1+$1,$8,$9*
0 Add four rect primitives between the rounded corners*
20,1,$1+$1,$2,$3,$4,$5,0*
20,1,$1+$1,$4,$5,$6,$7,0*
20,1,$1+$1,$6,$7,$8,$9,0*
20,1,$1+$1,$8,$9,$2,$3,0*%
%AMFreePoly0*
4,1,9,5.362500,-0.866500,1.237500,-0.866500,1.237500,-0.450000,-1.237500,-0.450000,-1.237500,0.450000,1.237500,0.450000,1.237500,0.866500,5.362500,0.866500,5.362500,-0.866500,5.362500,-0.866500,$1*%
G04 Aperture macros list end*
%ADD10C,0.010000*%
%ADD11R,3.510000X1.000000*%
%ADD12RoundRect,0.250000X0.325000X0.450000X-0.325000X0.450000X-0.325000X-0.450000X0.325000X-0.450000X0*%
%ADD13RoundRect,0.250000X0.650000X-0.412500X0.650000X0.412500X-0.650000X0.412500X-0.650000X-0.412500X0*%
%ADD14RoundRect,0.250000X-0.350000X-0.450000X0.350000X-0.450000X0.350000X0.450000X-0.350000X0.450000X0*%
%ADD15RoundRect,0.250000X0.350000X0.450000X-0.350000X0.450000X-0.350000X-0.450000X0.350000X-0.450000X0*%
%ADD16RoundRect,0.250000X-0.450000X0.350000X-0.450000X-0.350000X0.450000X-0.350000X0.450000X0.350000X0*%
%ADD17RoundRect,0.250000X0.250000X0.250000X-0.250000X0.250000X-0.250000X-0.250000X0.250000X-0.250000X0*%
%ADD18RoundRect,0.250000X0.450000X-0.350000X0.450000X0.350000X-0.450000X0.350000X-0.450000X-0.350000X0*%
%ADD19RoundRect,0.250000X-0.475000X0.337500X-0.475000X-0.337500X0.475000X-0.337500X0.475000X0.337500X0*%
%ADD20RoundRect,0.250000X0.475000X-0.337500X0.475000X0.337500X-0.475000X0.337500X-0.475000X-0.337500X0*%
%ADD21RoundRect,0.250000X0.337500X0.475000X-0.337500X0.475000X-0.337500X-0.475000X0.337500X-0.475000X0*%
%ADD22RoundRect,0.150000X-0.587500X-0.150000X0.587500X-0.150000X0.587500X0.150000X-0.587500X0.150000X0*%
%ADD23RoundRect,0.150000X0.150000X-0.587500X0.150000X0.587500X-0.150000X0.587500X-0.150000X-0.587500X0*%
%ADD24R,0.812800X0.254000*%
%ADD25R,0.254000X0.812800*%
%ADD26R,2.209800X2.209800*%
%ADD27R,0.300000X2.364000*%
%ADD28RoundRect,0.225000X0.225000X0.375000X-0.225000X0.375000X-0.225000X-0.375000X0.225000X-0.375000X0*%
%ADD29RoundRect,0.150000X-0.150000X0.825000X-0.150000X-0.825000X0.150000X-0.825000X0.150000X0.825000X0*%
%ADD30RoundRect,0.225000X0.925000X0.225000X-0.925000X0.225000X-0.925000X-0.225000X0.925000X-0.225000X0*%
%ADD31FreePoly0,180.000000*%
%ADD32R,1.100000X1.800000*%
%ADD33RoundRect,0.250000X0.250000X1.500000X-0.250000X1.500000X-0.250000X-1.500000X0.250000X-1.500000X0*%
%ADD34RoundRect,0.250001X0.499999X1.449999X-0.499999X1.449999X-0.499999X-1.449999X0.499999X-1.449999X0*%
%ADD35RoundRect,0.250000X0.250000X-0.250000X0.250000X0.250000X-0.250000X0.250000X-0.250000X-0.250000X0*%
%ADD36RoundRect,0.250000X-0.250000X-0.250000X0.250000X-0.250000X0.250000X0.250000X-0.250000X0.250000X0*%
%ADD37RoundRect,0.250000X-0.255000X-0.440000X0.255000X-0.440000X0.255000X0.440000X-0.255000X0.440000X0*%
%ADD38RoundRect,0.150000X-0.825000X-0.150000X0.825000X-0.150000X0.825000X0.150000X-0.825000X0.150000X0*%
%ADD39RoundRect,0.225000X0.225000X-0.925000X0.225000X0.925000X-0.225000X0.925000X-0.225000X-0.925000X0*%
%ADD40FreePoly0,90.000000*%
%ADD41RoundRect,0.250000X-0.337500X-0.475000X0.337500X-0.475000X0.337500X0.475000X-0.337500X0.475000X0*%
%ADD42RoundRect,0.250000X-1.000000X-0.650000X1.000000X-0.650000X1.000000X0.650000X-1.000000X0.650000X0*%
%ADD43RoundRect,0.150000X-0.150000X0.587500X-0.150000X-0.587500X0.150000X-0.587500X0.150000X0.587500X0*%
%ADD44RoundRect,0.250001X-0.462499X-1.074999X0.462499X-1.074999X0.462499X1.074999X-0.462499X1.074999X0*%
%ADD45RoundRect,0.250000X0.300000X-0.300000X0.300000X0.300000X-0.300000X0.300000X-0.300000X-0.300000X0*%
%ADD46RoundRect,0.025000X0.115000X-0.100000X0.115000X0.100000X-0.115000X0.100000X-0.115000X-0.100000X0*%
%ADD47RoundRect,0.035000X0.425000X-0.140000X0.425000X0.140000X-0.425000X0.140000X-0.425000X-0.140000X0*%
%ADD48RoundRect,0.052000X0.208000X-0.448000X0.208000X0.448000X-0.208000X0.448000X-0.208000X-0.448000X0*%
%ADD49RoundRect,0.062500X0.062500X-0.212500X0.062500X0.212500X-0.062500X0.212500X-0.062500X-0.212500X0*%
%ADD50RoundRect,0.062500X-0.062500X0.212500X-0.062500X-0.212500X0.062500X-0.212500X0.062500X0.212500X0*%
%ADD51RoundRect,0.250000X0.650000X-1.000000X0.650000X1.000000X-0.650000X1.000000X-0.650000X-1.000000X0*%
%ADD52RoundRect,0.175000X-0.625000X0.175000X-0.625000X-0.175000X0.625000X-0.175000X0.625000X0.175000X0*%
%ADD53RoundRect,0.200000X-0.600000X0.200000X-0.600000X-0.200000X0.600000X-0.200000X0.600000X0.200000X0*%
%ADD54RoundRect,0.225000X-0.575000X0.225000X-0.575000X-0.225000X0.575000X-0.225000X0.575000X0.225000X0*%
%ADD55R,1.200000X3.900000*%
%ADD56R,1.198876X3.125410*%
%ADD57R,1.199962X3.100000*%
%ADD58R,1.196518X3.101070*%
%ADD59R,1.206853X3.097330*%
%ADD60R,2.210000X3.900000*%
%ADD61R,2.249994X3.899994*%
G04 APERTURE END LIST*
D10*
%TO.C,BZ601*%
X37880560Y3697920D02*
X36042080Y1859440D01*
X35090000Y2761520D01*
X34094528Y2802226D01*
X34080000Y4600000D01*
X36928480Y4600000D01*
X37880560Y3697920D01*
G36*
X37880560Y3697920D02*
G01*
X36042080Y1859440D01*
X35090000Y2761520D01*
X34094528Y2802226D01*
X34080000Y4600000D01*
X36928480Y4600000D01*
X37880560Y3697920D01*
G37*
X37880560Y-3997920D02*
X36928480Y-4900000D01*
X34180000Y-4900000D01*
X34170002Y-3060762D01*
X35090000Y-3061520D01*
X36042080Y-2159440D01*
X37880560Y-3997920D01*
G36*
X37880560Y-3997920D02*
G01*
X36928480Y-4900000D01*
X34180000Y-4900000D01*
X34170002Y-3060762D01*
X35090000Y-3061520D01*
X36042080Y-2159440D01*
X37880560Y-3997920D01*
G37*
X45530000Y3120000D02*
X44590000Y2761520D01*
X43637920Y1859440D01*
X41799440Y3697920D01*
X42751520Y4600000D01*
X45530000Y4600000D01*
X45530000Y3120000D01*
G36*
X45530000Y3120000D02*
G01*
X44590000Y2761520D01*
X43637920Y1859440D01*
X41799440Y3697920D01*
X42751520Y4600000D01*
X45530000Y4600000D01*
X45530000Y3120000D01*
G37*
X44890000Y-3311520D02*
X44721078Y-3480442D01*
X44738156Y-4998156D01*
X43191053Y-5010467D01*
X43051520Y-5150000D01*
X41799440Y-3997920D01*
X43637920Y-2159440D01*
X44890000Y-3311520D01*
G36*
X44890000Y-3311520D02*
G01*
X44721078Y-3480442D01*
X44738156Y-4998156D01*
X43191053Y-5010467D01*
X43051520Y-5150000D01*
X41799440Y-3997920D01*
X43637920Y-2159440D01*
X44890000Y-3311520D01*
G37*
%TO.C,J501*%
X53770000Y20230000D02*
X51820000Y20230000D01*
X51820000Y20730000D01*
X51120000Y20730000D01*
X51120000Y21830000D01*
X52520000Y21830000D01*
X52520000Y22530000D01*
X53770000Y22530000D01*
X53770000Y20230000D01*
G36*
X53770000Y20230000D02*
G01*
X51820000Y20230000D01*
X51820000Y20730000D01*
X51120000Y20730000D01*
X51120000Y21830000D01*
X52520000Y21830000D01*
X52520000Y22530000D01*
X53770000Y22530000D01*
X53770000Y20230000D01*
G37*
X61420000Y21830000D02*
X62820000Y21830000D01*
X62820000Y20730000D01*
X62120000Y20730000D01*
X62120000Y20230000D01*
X60170000Y20230000D01*
X60170000Y22530000D01*
X61420000Y22530000D01*
X61420000Y21830000D01*
G36*
X61420000Y21830000D02*
G01*
X62820000Y21830000D01*
X62820000Y20730000D01*
X62120000Y20730000D01*
X62120000Y20230000D01*
X60170000Y20230000D01*
X60170000Y22530000D01*
X61420000Y22530000D01*
X61420000Y21830000D01*
G37*
%TD*%
D11*
%TO.C,J201*%
X74853600Y30283000D03*
X79158600Y30283000D03*
X74853600Y27743000D03*
X79163600Y27743000D03*
X74853600Y25203000D03*
X79158600Y25203000D03*
X74853600Y22663000D03*
X79163600Y22663000D03*
X74853600Y20123000D03*
X79158600Y20123000D03*
X74853600Y17583000D03*
X79163600Y17583000D03*
X74853600Y15043000D03*
X79158600Y15043000D03*
X74853600Y12503000D03*
X79163600Y12503000D03*
%TD*%
%TO.C,J202*%
X79163600Y7448400D03*
X74853600Y7448400D03*
X79163600Y4908400D03*
X74853600Y4908400D03*
X79163600Y2368400D03*
X74853600Y2368400D03*
X79163600Y-171600D03*
X74853600Y-171600D03*
X79163600Y-2711600D03*
X74853600Y-2711600D03*
X79163600Y-5251600D03*
X74853600Y-5251600D03*
%TD*%
%TO.C,J203*%
X30878200Y16617800D03*
X26568200Y16617800D03*
X30878200Y19157800D03*
X26568200Y19157800D03*
X30878200Y21697800D03*
X26568200Y21697800D03*
X30878200Y24237800D03*
X26568200Y24237800D03*
X30878200Y26777800D03*
X26568200Y26777800D03*
X30878200Y29317800D03*
X26568200Y29317800D03*
X30878200Y31857800D03*
X26568200Y31857800D03*
X30878200Y34397800D03*
X26568200Y34397800D03*
X30878200Y36937800D03*
X26568200Y36937800D03*
X30878200Y39477800D03*
X26568200Y39477800D03*
%TD*%
%TO.C,J204*%
X30878200Y-5277000D03*
X26573200Y-5277000D03*
X30878200Y-2737000D03*
X26568200Y-2737000D03*
X30878200Y-197000D03*
X26573200Y-197000D03*
X30878200Y2343000D03*
X26568200Y2343000D03*
X30878200Y4883000D03*
X26573200Y4883000D03*
X30878200Y7423000D03*
X26568200Y7423000D03*
X30878200Y9963000D03*
X26573200Y9963000D03*
X30878200Y12503000D03*
X26568200Y12503000D03*
%TD*%
D12*
%TO.C,D303*%
X26600000Y55025000D03*
X24550000Y55025000D03*
%TD*%
D13*
%TO.C,C301*%
X42600000Y30812500D03*
X42600000Y33937500D03*
%TD*%
D14*
%TO.C,R335*%
X52710000Y36000000D03*
X54710000Y36000000D03*
%TD*%
%TO.C,R407*%
X50590000Y3940000D03*
X52590000Y3940000D03*
%TD*%
D15*
%TO.C,R328*%
X62870000Y40250000D03*
X60870000Y40250000D03*
%TD*%
D16*
%TO.C,R313*%
X34220000Y22570000D03*
X34220000Y20570000D03*
%TD*%
D15*
%TO.C,R322*%
X63930000Y37310000D03*
X61930000Y37310000D03*
%TD*%
%TO.C,R502*%
X63040000Y18180000D03*
X61040000Y18180000D03*
%TD*%
D17*
%TO.C,D305*%
X64377500Y46090000D03*
X61877500Y46090000D03*
%TD*%
D14*
%TO.C,R406*%
X50590000Y-3740000D03*
X52590000Y-3740000D03*
%TD*%
D18*
%TO.C,R321*%
X68820000Y38800000D03*
X68820000Y40800000D03*
%TD*%
D14*
%TO.C,R318*%
X40837500Y23825000D03*
X42837500Y23825000D03*
%TD*%
%TO.C,R312*%
X43690000Y53030000D03*
X45690000Y53030000D03*
%TD*%
D19*
%TO.C,C502*%
X51530000Y16357500D03*
X51530000Y14282500D03*
%TD*%
D20*
%TO.C,C309*%
X50200000Y36362500D03*
X50200000Y38437500D03*
%TD*%
D21*
%TO.C,C308*%
X42897500Y28920000D03*
X40822500Y28920000D03*
%TD*%
D15*
%TO.C,R411*%
X48820000Y-480000D03*
X46820000Y-480000D03*
%TD*%
D16*
%TO.C,R302*%
X34270000Y40930000D03*
X34270000Y38930000D03*
%TD*%
%TO.C,R402*%
X57190000Y3370000D03*
X57190000Y1370000D03*
%TD*%
D14*
%TO.C,R311*%
X43690000Y55030000D03*
X45690000Y55030000D03*
%TD*%
D22*
%TO.C,Q307*%
X68062500Y32475000D03*
X68062500Y30575000D03*
X69937500Y31525000D03*
%TD*%
D18*
%TO.C,R316*%
X45937500Y19925000D03*
X45937500Y21925000D03*
%TD*%
D14*
%TO.C,R303*%
X45250000Y34500000D03*
X47250000Y34500000D03*
%TD*%
D23*
%TO.C,Q309*%
X48370000Y30912500D03*
X50270000Y30912500D03*
X49320000Y32787500D03*
%TD*%
D24*
%TO.C,U401*%
X54976901Y-1556900D03*
X54976901Y-2056899D03*
X54976901Y-2556900D03*
X54976901Y-3056900D03*
X54976901Y-3556901D03*
X54976901Y-4056900D03*
D25*
X55670001Y-4750000D03*
X56170000Y-4750000D03*
X56670001Y-4750000D03*
X57170001Y-4750000D03*
X57670002Y-4750000D03*
X58170001Y-4750000D03*
D24*
X58863101Y-4056900D03*
X58863101Y-3556901D03*
X58863101Y-3056900D03*
X58863101Y-2556900D03*
X58863101Y-2056899D03*
X58863101Y-1556900D03*
D25*
X58170001Y-863800D03*
X57670002Y-863800D03*
X57170001Y-863800D03*
X56670001Y-863800D03*
X56170000Y-863800D03*
X55670001Y-863800D03*
D26*
X56920001Y-2806900D03*
%TD*%
D27*
%TO.C,J501*%
X54220000Y19648000D03*
X54720000Y19648000D03*
X55220000Y19648000D03*
X55720000Y19648000D03*
X56220000Y19648000D03*
X56720000Y19648000D03*
X57220000Y19648000D03*
X57720000Y19648000D03*
X58220000Y19648000D03*
X58720000Y19648000D03*
X59220000Y19648000D03*
X59720000Y19648000D03*
%TD*%
D12*
%TO.C,D304*%
X26550000Y53025000D03*
X24500000Y53025000D03*
%TD*%
D19*
%TO.C,C314*%
X61200000Y30827500D03*
X61200000Y28752500D03*
%TD*%
D12*
%TO.C,D307*%
X26600000Y57100000D03*
X24550000Y57100000D03*
%TD*%
D28*
%TO.C,D601*%
X46360000Y12240000D03*
X43060000Y12240000D03*
%TD*%
D19*
%TO.C,C310*%
X47717500Y26925000D03*
X47717500Y24850000D03*
%TD*%
D18*
%TO.C,R503*%
X59240000Y14330000D03*
X59240000Y16330000D03*
%TD*%
D16*
%TO.C,R325*%
X64110000Y22750000D03*
X64110000Y20750000D03*
%TD*%
D19*
%TO.C,C303*%
X42018000Y22005000D03*
X42018000Y19930000D03*
%TD*%
D20*
%TO.C,C401*%
X65180000Y-1067500D03*
X65180000Y1007500D03*
%TD*%
D29*
%TO.C,U303*%
X59422500Y33825000D03*
X58152500Y33825000D03*
X56882500Y33825000D03*
X55612500Y33825000D03*
X54342500Y33825000D03*
X53072500Y33825000D03*
X51802500Y33825000D03*
X51802500Y28875000D03*
X53072500Y28875000D03*
X54342500Y28875000D03*
X55612500Y28875000D03*
X56882500Y28875000D03*
X58152500Y28875000D03*
X59422500Y28875000D03*
%TD*%
D30*
%TO.C,Q601*%
X40750000Y8350000D03*
D31*
X40662500Y9850000D03*
D30*
X40750000Y11350000D03*
%TD*%
D18*
%TO.C,R309*%
X36310000Y20570000D03*
X36310000Y22570000D03*
%TD*%
D32*
%TO.C,SW302*%
X75650000Y47225000D03*
X75650000Y53425000D03*
X79350000Y47225000D03*
X79350000Y53425000D03*
%TD*%
D20*
%TO.C,C402*%
X63220000Y-1077500D03*
X63220000Y997500D03*
%TD*%
D16*
%TO.C,R305*%
X71790000Y11730000D03*
X71790000Y9730000D03*
%TD*%
%TO.C,R306*%
X47837500Y20325000D03*
X47837500Y18325000D03*
%TD*%
D14*
%TO.C,R308*%
X46560000Y28970000D03*
X48560000Y28970000D03*
%TD*%
D15*
%TO.C,R326*%
X68550000Y36200000D03*
X66550000Y36200000D03*
%TD*%
%TO.C,R405*%
X71120000Y-4140000D03*
X69120000Y-4140000D03*
%TD*%
D33*
%TO.C,J303*%
X37870000Y50180000D03*
X35870000Y50180000D03*
D34*
X40220000Y55930000D03*
X33520000Y55930000D03*
%TD*%
D14*
%TO.C,R408*%
X50590000Y100000D03*
X52590000Y100000D03*
%TD*%
D35*
%TO.C,D308*%
X45360000Y40190000D03*
X45360000Y42690000D03*
%TD*%
D16*
%TO.C,R314*%
X43870000Y47430000D03*
X43870000Y45430000D03*
%TD*%
D14*
%TO.C,R602*%
X38570000Y6340000D03*
X40570000Y6340000D03*
%TD*%
D19*
%TO.C,C311*%
X49820000Y26937500D03*
X49820000Y24862500D03*
%TD*%
D14*
%TO.C,R333*%
X69950000Y13850000D03*
X71950000Y13850000D03*
%TD*%
D36*
%TO.C,D306*%
X56220000Y43830000D03*
X58720000Y43830000D03*
%TD*%
D19*
%TO.C,C404*%
X63240000Y-2782500D03*
X63240000Y-4857500D03*
%TD*%
D35*
%TO.C,D312*%
X65150000Y29170000D03*
X65150000Y31670000D03*
%TD*%
D21*
%TO.C,C501*%
X52627500Y18190000D03*
X50552500Y18190000D03*
%TD*%
D14*
%TO.C,R320*%
X65950000Y19710000D03*
X67950000Y19710000D03*
%TD*%
D16*
%TO.C,R601*%
X61150000Y16360000D03*
X61150000Y14360000D03*
%TD*%
D37*
%TO.C,U302*%
X47940000Y46717500D03*
X47940000Y45067500D03*
X49140000Y46717500D03*
X49140000Y45067500D03*
D38*
X46065000Y47797500D03*
X46065000Y46527500D03*
X46065000Y45257500D03*
X46065000Y43987500D03*
X51015000Y43987500D03*
X51015000Y45257500D03*
X51015000Y46527500D03*
X51015000Y47797500D03*
%TD*%
D39*
%TO.C,Q305*%
X66180000Y43740000D03*
D40*
X67680000Y43827500D03*
D39*
X69180000Y43740000D03*
%TD*%
D14*
%TO.C,R412*%
X50590000Y-1820000D03*
X52590000Y-1820000D03*
%TD*%
D41*
%TO.C,C304*%
X47850000Y22225000D03*
X49925000Y22225000D03*
%TD*%
D14*
%TO.C,R331*%
X68495000Y28855000D03*
X70495000Y28855000D03*
%TD*%
D42*
%TO.C,D309*%
X47900000Y41200000D03*
X51900000Y41200000D03*
%TD*%
D18*
%TO.C,R330*%
X62070000Y42100000D03*
X62070000Y44100000D03*
%TD*%
D43*
%TO.C,Q306*%
X66180000Y27407500D03*
X64280000Y27407500D03*
X65230000Y25532500D03*
%TD*%
D19*
%TO.C,C405*%
X61260000Y-2782500D03*
X61260000Y-4857500D03*
%TD*%
D18*
%TO.C,R505*%
X57310000Y14330000D03*
X57310000Y16330000D03*
%TD*%
D21*
%TO.C,C305*%
X45845500Y18089310D03*
X43770500Y18089310D03*
%TD*%
D18*
%TO.C,R409*%
X55260000Y1360000D03*
X55260000Y3360000D03*
%TD*%
D20*
%TO.C,C407*%
X46330000Y-4727500D03*
X46330000Y-2652500D03*
%TD*%
D44*
%TO.C,L301*%
X39802500Y26360000D03*
X42777500Y26360000D03*
%TD*%
D14*
%TO.C,R329*%
X66540000Y34205000D03*
X68540000Y34205000D03*
%TD*%
D15*
%TO.C,R401*%
X71230000Y4880000D03*
X69230000Y4880000D03*
%TD*%
D45*
%TO.C,D301*%
X32140000Y44282500D03*
X32140000Y47082500D03*
%TD*%
D14*
%TO.C,R332*%
X43590000Y57030000D03*
X45590000Y57030000D03*
%TD*%
D46*
%TO.C,U301*%
X44127500Y25405000D03*
D47*
X45927500Y25430000D03*
D48*
X44727500Y25780000D03*
D47*
X45927500Y26130000D03*
D46*
X44127500Y26155000D03*
D49*
X44437500Y24605000D03*
X44937500Y24605000D03*
X45437500Y24605000D03*
X45937500Y24605000D03*
D50*
X45937500Y26955000D03*
X45437500Y26955000D03*
X44937500Y26955000D03*
X44437500Y26955000D03*
%TD*%
D16*
%TO.C,R317*%
X44007500Y21925000D03*
X44007500Y19925000D03*
%TD*%
%TO.C,R315*%
X41910000Y47440000D03*
X41910000Y45440000D03*
%TD*%
D14*
%TO.C,R324*%
X62260000Y48770000D03*
X64260000Y48770000D03*
%TD*%
D16*
%TO.C,R323*%
X65810000Y40990000D03*
X65810000Y38990000D03*
%TD*%
%TO.C,R603*%
X43340000Y10170000D03*
X43340000Y8170000D03*
%TD*%
%TO.C,R319*%
X67870000Y17880000D03*
X67870000Y15880000D03*
%TD*%
D51*
%TO.C,D302*%
X39190000Y42432500D03*
X39190000Y46432500D03*
%TD*%
D15*
%TO.C,R337*%
X59120000Y39420000D03*
X57120000Y39420000D03*
%TD*%
D23*
%TO.C,Q302*%
X33600000Y35182500D03*
X35500000Y35182500D03*
X34550000Y37057500D03*
%TD*%
D18*
%TO.C,R504*%
X55390000Y14330000D03*
X55390000Y16330000D03*
%TD*%
D36*
%TO.C,D311*%
X56020000Y47100000D03*
X58520000Y47100000D03*
%TD*%
D32*
%TO.C,SW301*%
X79350000Y42475000D03*
X79350000Y36275000D03*
X75650000Y42475000D03*
X75650000Y36275000D03*
%TD*%
D23*
%TO.C,Q304*%
X66010000Y21722500D03*
X67910000Y21722500D03*
X66960000Y23597500D03*
%TD*%
%TO.C,Q301*%
X45470000Y36562500D03*
X47370000Y36562500D03*
X46420000Y38437500D03*
%TD*%
D19*
%TO.C,C316*%
X60250000Y49967500D03*
X60250000Y47892500D03*
%TD*%
D22*
%TO.C,Q308*%
X56812500Y37700000D03*
X56812500Y35800000D03*
X58687500Y36750000D03*
%TD*%
%TO.C,Q303*%
X37037500Y34600000D03*
X37037500Y32700000D03*
X38912500Y33650000D03*
%TD*%
D20*
%TO.C,C406*%
X48380000Y-4727500D03*
X48380000Y-2652500D03*
%TD*%
D18*
%TO.C,R304*%
X34910000Y31340000D03*
X34910000Y33340000D03*
%TD*%
D35*
%TO.C,D310*%
X69880000Y9630000D03*
X69880000Y12130000D03*
%TD*%
D16*
%TO.C,R410*%
X59090000Y3380000D03*
X59090000Y1380000D03*
%TD*%
D20*
%TO.C,C306*%
X43380000Y41652500D03*
X43380000Y43727500D03*
%TD*%
D15*
%TO.C,R413*%
X52590000Y2040000D03*
X50590000Y2040000D03*
%TD*%
D16*
%TO.C,R301*%
X36240000Y40890000D03*
X36240000Y38890000D03*
%TD*%
D52*
%TO.C,J301*%
X28590000Y47225000D03*
D53*
X28590000Y45205000D03*
D54*
X28590000Y43975000D03*
D52*
X28590000Y46225000D03*
D53*
X28590000Y48245000D03*
D54*
X28590000Y49475000D03*
%TD*%
D18*
%TO.C,R310*%
X36300000Y16720000D03*
X36300000Y18720000D03*
%TD*%
D15*
%TO.C,R334*%
X57340000Y49010000D03*
X55340000Y49010000D03*
%TD*%
D20*
%TO.C,C302*%
X44727500Y28385000D03*
X44727500Y30460000D03*
%TD*%
D18*
%TO.C,R501*%
X53490000Y14320000D03*
X53490000Y16320000D03*
%TD*%
D15*
%TO.C,R336*%
X62850000Y34810000D03*
X60850000Y34810000D03*
%TD*%
D19*
%TO.C,C307*%
X34250000Y18747500D03*
X34250000Y16672500D03*
%TD*%
D15*
%TO.C,R327*%
X58710000Y41900000D03*
X56710000Y41900000D03*
%TD*%
D55*
%TO.C,J401*%
X46310000Y-12900000D03*
X48850000Y-12900000D03*
X51390000Y-12900000D03*
X53930000Y-12900000D03*
D56*
X46309492Y-38612705D03*
D57*
X48850019Y-38600000D03*
D58*
X51388279Y-38600535D03*
D59*
X53933426Y-38598665D03*
D60*
X61145000Y-21200000D03*
D61*
X58584997Y-21200003D03*
%TD*%
D20*
%TO.C,C403*%
X61260000Y-1087500D03*
X61260000Y987500D03*
%TD*%
%TO.C,C312*%
X63180000Y29812500D03*
X63180000Y31887500D03*
%TD*%
D15*
%TO.C,R307*%
X39110000Y36440000D03*
X37110000Y36440000D03*
%TD*%
M02*
