%TF.GenerationSoftware,KiCad,Pcbnew,10.0.0*%
%TF.CreationDate,2026-05-11T10:30:11-04:00*%
%TF.ProjectId,SpecterShield-BE-HNQR,53706563-7465-4725-9368-69656c642d42,rev?*%
%TF.SameCoordinates,Original*%
%TF.FileFunction,Copper,L2,Inr*%
%TF.FilePolarity,Positive*%
%FSLAX46Y46*%
G04 Gerber Fmt 4.6, Leading zero omitted, Abs format (unit mm)*
G04 Created by KiCad (PCBNEW 10.0.0) date 2026-05-11 10:30:11*
%MOMM*%
%LPD*%
G01*
G04 APERTURE LIST*
%TA.AperFunction,ComponentPad*%
%ADD10C,1.600000*%
%TD*%
%TA.AperFunction,HeatsinkPad*%
%ADD11C,0.500000*%
%TD*%
%TA.AperFunction,ComponentPad*%
%ADD12R,1.700000X1.700000*%
%TD*%
%TA.AperFunction,ComponentPad*%
%ADD13C,1.700000*%
%TD*%
%TA.AperFunction,ComponentPad*%
%ADD14C,0.500000*%
%TD*%
%TA.AperFunction,ComponentPad*%
%ADD15O,1.700000X1.000000*%
%TD*%
%TA.AperFunction,ViaPad*%
%ADD16C,0.500000*%
%TD*%
%TA.AperFunction,ViaPad*%
%ADD17C,0.600000*%
%TD*%
%TA.AperFunction,ViaPad*%
%ADD18C,1.000000*%
%TD*%
%TA.AperFunction,ViaPad*%
%ADD19C,0.800000*%
%TD*%
G04 APERTURE END LIST*
D10*
%TO.N,unconnected-(J201-Pin_1-Pad1)*%
%TO.C,J201*%
X77008600Y30283000D03*
%TO.N,unconnected-(J201-Pin_2-Pad2)_1*%
X77008600Y27743000D03*
%TO.N,/STM32F469I-DISCO-Interface/NRST*%
X77008600Y25203000D03*
%TO.N,+3V3*%
X77008600Y22663000D03*
%TO.N,+5V*%
X77008600Y20123000D03*
%TO.N,GND*%
X77008600Y17583000D03*
X77008600Y15043000D03*
%TO.N,PWR_VOUT*%
X77008600Y12503000D03*
%TD*%
%TO.N,PWR_nBUTTON*%
%TO.C,J202*%
X77008600Y7448400D03*
%TO.N,SC_nOFF*%
X77008600Y4908400D03*
%TO.N,SC_VCC_SEL1*%
X77008600Y2368400D03*
%TO.N,SC_VCC_SEL2*%
X77008600Y-171600D03*
%TO.N,SC_nCMDVCC*%
X77008600Y-2711600D03*
%TO.N,SC_CLK*%
X77008600Y-5251600D03*
%TD*%
%TO.N,SC_RST*%
%TO.C,J203*%
X28723200Y16617800D03*
%TO.N,BAT_MEAS*%
X28723200Y19157800D03*
%TO.N,CHG_STATE*%
X28723200Y21697800D03*
%TO.N,PWR_HOLD2*%
X28723200Y24237800D03*
%TO.N,PWR_nCharger*%
X28723200Y26777800D03*
%TO.N,unconnected-(J203-Pin_6-Pad6)*%
X28723200Y29317800D03*
%TO.N,GND*%
X28723200Y31857800D03*
%TO.N,unconnected-(J203-Pin_8-Pad8)*%
X28723200Y34397800D03*
%TO.N,I2C_SDA*%
X28723200Y36937800D03*
%TO.N,I2C_SCL*%
X28723200Y39477800D03*
%TD*%
%TO.N,QR_UART_TX*%
%TO.C,J204*%
X28723200Y-5277000D03*
%TO.N,QR_UART_RX*%
X28723200Y-2737000D03*
%TO.N,QR_TRIG*%
X28723200Y-197000D03*
%TO.N,UC_BEEP*%
X28723200Y2343000D03*
%TO.N,SC_CLKDIV2*%
X28723200Y4883000D03*
%TO.N,SC_IO*%
X28723200Y7423000D03*
%TO.N,SC_AUX1*%
X28723200Y9963000D03*
%TO.N,SC_CLKDIV1*%
X28723200Y12503000D03*
%TD*%
%TO.N,BATT_P*%
%TO.C,J303*%
X37870000Y52030000D03*
%TO.N,GND*%
X35870000Y52030000D03*
%TD*%
D11*
%TO.N,GND*%
%TO.C,U302*%
X47840000Y47092500D03*
X47840000Y45892500D03*
X47840000Y44692500D03*
X49240000Y47092500D03*
X49240000Y45892500D03*
X49240000Y44692500D03*
%TD*%
D12*
%TO.N,GND*%
%TO.C,J302*%
X35490000Y43575000D03*
D13*
%TO.N,USB_P*%
X35490000Y46115000D03*
%TD*%
D14*
%TO.N,/Power/V_SW*%
%TO.C,U301*%
X44187500Y25780000D03*
%TD*%
D15*
%TO.N,GND*%
%TO.C,J301*%
X28410000Y51045000D03*
X24610000Y51045000D03*
X28410000Y42405000D03*
X24610000Y42405000D03*
%TD*%
D16*
%TO.N,PWR_EN*%
X57000000Y27290000D03*
%TO.N,+3V3*%
X55040000Y-1110000D03*
X50590000Y-860000D03*
X69565000Y28075000D03*
X59990000Y-1580000D03*
X70720000Y19090000D03*
%TO.N,+5V*%
X60250000Y-2450000D03*
X41340000Y-150000D03*
%TO.N,GND*%
X65250000Y24125000D03*
X65760000Y3600000D03*
X80350000Y-9750000D03*
X33000000Y38290000D03*
X33740000Y1380000D03*
X58160000Y27410000D03*
X77590000Y43910000D03*
X49820000Y25780000D03*
X35075000Y54200000D03*
X60530000Y32410000D03*
X58050000Y-8360000D03*
X52350000Y-26240000D03*
X33060000Y17840000D03*
X33872762Y36306356D03*
X74840000Y26640000D03*
X71470000Y50520000D03*
X31680000Y14650000D03*
X46820000Y57000000D03*
X25020000Y-13270000D03*
X40560000Y4380000D03*
X63440000Y42630000D03*
X32670000Y20430000D03*
X50510000Y-7430000D03*
X40890000Y42980000D03*
X49340000Y-1710000D03*
X54900000Y17580000D03*
X56890000Y36370000D03*
X67480000Y35090000D03*
X44970000Y45789449D03*
X38990000Y44500000D03*
X37000000Y56217861D03*
X52200000Y-22860000D03*
X67100000Y37580000D03*
X68140000Y31410000D03*
X58011551Y-3898449D03*
X39840000Y51010000D03*
X48920000Y24110000D03*
X58150000Y8560000D03*
X49750000Y-5470000D03*
X58210000Y12900000D03*
X63810000Y1880000D03*
X45340000Y-660000D03*
X70110000Y43690000D03*
X31980000Y48540000D03*
X66060000Y9550000D03*
X71440000Y25880000D03*
X60220000Y-18260000D03*
X48620000Y25710000D03*
D17*
X26725000Y49475000D03*
D16*
X53360000Y39080000D03*
X81160000Y33040000D03*
X66020000Y1720000D03*
X49970000Y28870000D03*
X40725000Y47250000D03*
X63370000Y11110000D03*
X54530000Y13070000D03*
X39480000Y-3510000D03*
X66640000Y15900000D03*
X49590000Y2020000D03*
X59180000Y50380000D03*
X60010000Y30840000D03*
X62430000Y27450000D03*
X62370000Y38690000D03*
X42870000Y46610000D03*
X28360000Y-37540000D03*
X52790000Y-5390000D03*
X53950000Y-9800000D03*
X45560000Y32390000D03*
X69860000Y25950000D03*
X56240000Y-15200000D03*
X50430000Y-22040000D03*
X37200000Y7200000D03*
X39610000Y1790000D03*
X75040000Y21530000D03*
X32170000Y-28580000D03*
X68630000Y-10000000D03*
X52030000Y-20600000D03*
X81540000Y21380000D03*
X72500000Y-6010000D03*
X39390000Y38480000D03*
X41475000Y57725000D03*
D18*
X49910000Y20680000D03*
D16*
X39910000Y-260000D03*
X74410000Y43170000D03*
X59870000Y-38640000D03*
X34170000Y-6030000D03*
X67410000Y40720000D03*
X80650000Y-25390000D03*
X79210000Y24060000D03*
X33380000Y70000D03*
X65600000Y48190000D03*
X79340000Y28960000D03*
X56140000Y8360000D03*
X72580000Y-26780000D03*
X48500000Y35000000D03*
X81320000Y3470000D03*
X58510000Y10720000D03*
X73890000Y6020000D03*
D18*
X47740000Y23650000D03*
D16*
X41500000Y54225000D03*
D17*
X30220000Y43580000D03*
D16*
X58150000Y-5552417D03*
X49340000Y43340000D03*
X34210000Y-2350000D03*
X54450000Y10960000D03*
D18*
X42340000Y18430000D03*
D16*
X70200000Y16600000D03*
X62360000Y25140000D03*
X73370000Y41680000D03*
X47780000Y51350000D03*
X81100000Y44680000D03*
X41350000Y-2650000D03*
X76570000Y44680000D03*
X49250000Y51850000D03*
X50690000Y-27740000D03*
X37380000Y39740000D03*
X53360000Y5670000D03*
X30850000Y-9490000D03*
X34500000Y48850000D03*
X60220000Y560000D03*
X58180000Y40380000D03*
X34960000Y27230000D03*
X47860000Y-29310000D03*
X57830000Y17630000D03*
X53440000Y37060000D03*
X25310000Y-24220000D03*
X63690000Y16020000D03*
X43630000Y-9080000D03*
X62110000Y-4070000D03*
X45500000Y29400000D03*
X35900000Y34225000D03*
X24220000Y21930000D03*
X80980000Y10010000D03*
X51030000Y23950000D03*
X37860000Y20120000D03*
X53940000Y3510000D03*
X51040000Y32400000D03*
X74960000Y3420000D03*
X67780000Y23760000D03*
X24100000Y47080000D03*
X60970000Y8170000D03*
X35550000Y8140000D03*
X66100000Y-2770000D03*
X52240000Y8420000D03*
X54275000Y49800000D03*
X45010000Y-2390000D03*
X39850000Y14730000D03*
X71020000Y45260000D03*
X33830000Y52630000D03*
X47410000Y47870000D03*
X47390000Y9960000D03*
X72500000Y48370000D03*
X69170000Y18530000D03*
X45300000Y-3720000D03*
X31480000Y3750000D03*
X46710000Y24980000D03*
X64110000Y-4060000D03*
X72330000Y-2830000D03*
X47720000Y25730000D03*
X37890000Y31330000D03*
X68760000Y10960000D03*
X50200000Y35420000D03*
X71410000Y23520000D03*
D17*
X26725000Y43975000D03*
D16*
X33570000Y43950000D03*
X34590000Y11280000D03*
X55060000Y30890000D03*
X43100000Y-29330000D03*
X61210000Y29820000D03*
X73260000Y8860000D03*
X24280000Y32420000D03*
X55250000Y-18160000D03*
X56630000Y-17040000D03*
X72870000Y51670000D03*
X71000000Y-5360000D03*
X74860000Y16370000D03*
X35190000Y57770000D03*
D18*
X43790000Y16660000D03*
D16*
X65250000Y18175000D03*
X42400000Y9150000D03*
X46800000Y24110000D03*
X44210000Y39980000D03*
X24150000Y1920000D03*
D17*
X30400000Y49475000D03*
D16*
X74100000Y55500000D03*
X54860000Y-16210000D03*
X34480000Y5480000D03*
X75520000Y-3780000D03*
X41960000Y16130000D03*
D18*
X40370000Y19920000D03*
D16*
X23950000Y11760000D03*
X68680000Y21080000D03*
X37560000Y11290000D03*
X41140000Y51900000D03*
X25500000Y-37710000D03*
X42175000Y35350000D03*
X41875000Y41900000D03*
X59220000Y-5900000D03*
X43600000Y6220000D03*
X63150000Y-21180000D03*
X34940000Y12940000D03*
X73530000Y1170000D03*
X40770000Y12800000D03*
X81130000Y-38590000D03*
X78180000Y-1580000D03*
X63410000Y33530000D03*
X64590000Y34870000D03*
X50780000Y12830000D03*
X47750000Y7240000D03*
X72600000Y35390000D03*
X79710000Y13920000D03*
X45200000Y13280000D03*
X56960000Y-28070000D03*
X36310000Y15500000D03*
X68780000Y27440000D03*
X74130000Y40270000D03*
X28260000Y56080000D03*
X56540000Y-12170000D03*
X45570000Y-6920000D03*
X67520000Y-8980000D03*
X59910000Y43800000D03*
X68110000Y30000D03*
X50560000Y-24150000D03*
X53480000Y19590000D03*
X79110000Y18850000D03*
X81040000Y55600000D03*
X53940000Y41990000D03*
X55210000Y21850000D03*
X41675000Y56040000D03*
%TO.N,PWR_VOUT*%
X65140000Y32500000D03*
D19*
X54975000Y50345000D03*
D16*
%TO.N,PWR_nBUTTON*%
X80295100Y10734900D03*
X71400000Y27960000D03*
%TO.N,SC_VCC_SEL1*%
X51680000Y90000D03*
X71400000Y1990000D03*
%TO.N,SC_VCC_SEL2*%
X71160000Y-160000D03*
X54290000Y-290000D03*
%TO.N,SC_nCMDVCC*%
X53854747Y-3175253D03*
X72440000Y-3860000D03*
%TO.N,SC_RST*%
X33870000Y7620000D03*
X51940000Y2909525D03*
%TO.N,CHG_STATE*%
X46670000Y51530000D03*
X50145002Y47048517D03*
X34220000Y29790000D03*
%TO.N,PWR_HOLD2*%
X33740000Y31050000D03*
X49895000Y33985000D03*
%TO.N,QR_UART_TX*%
X36590000Y-2010000D03*
%TO.N,QR_UART_RX*%
X37850000Y-1100000D03*
%TO.N,QR_TRIG*%
X50020000Y15400000D03*
X58110000Y22060000D03*
%TO.N,SC_CLKDIV2*%
X54330000Y-6120000D03*
X44900000Y-6190000D03*
X47940000Y630000D03*
%TO.N,SC_IO*%
X57190000Y9960000D03*
%TO.N,SC_CLKDIV1*%
X51620000Y-4227500D03*
%TO.N,Net-(D303-K)*%
X28310000Y55090000D03*
X42390000Y55030000D03*
D17*
%TO.N,USB_P*%
X54700000Y47100000D03*
D16*
X52250000Y47183960D03*
%TO.N,PWR_VIN*%
X57110000Y45690000D03*
X62340000Y45150000D03*
%TO.N,Net-(Q309-G)*%
X53790000Y32400000D03*
X53760000Y35550000D03*
X49330000Y30270000D03*
X53740000Y30080000D03*
%TO.N,PWR_EN_PreR*%
X79210000Y10750000D03*
X60003750Y38006250D03*
%TO.N,Net-(Q309-D)*%
X59000000Y32320000D03*
X51610000Y31760000D03*
%TO.N,Net-(D304-K)*%
X28420000Y53070000D03*
X42430000Y53370000D03*
%TO.N,BATT_P*%
X44000000Y33561544D03*
X38925000Y34400000D03*
D17*
%TO.N,Net-(J301-CC2)*%
X31099996Y42820000D03*
X29850000Y46225000D03*
D16*
%TO.N,Net-(U302-~{STDBY})*%
X51040000Y45790000D03*
X47500000Y54680000D03*
D17*
%TO.N,BOOST_VOUT*%
X46661966Y20871853D03*
X50940000Y25670000D03*
D16*
%TO.N,/SmartCard_Reader/SC_PRES_Out*%
X55539647Y-5779647D03*
X56990000Y-18770000D03*
%TO.N,/SmartCard_Reader/SC_VCC_Out*%
X55040000Y-4710000D03*
X59910000Y-3080000D03*
%TO.N,Net-(U401-XTAL1)*%
X56170000Y-90000D03*
X60000000Y-140000D03*
%TO.N,Net-(D307-K)*%
X42510000Y56980000D03*
X27915963Y57634037D03*
%TO.N,ON_SW*%
X65300000Y49100000D03*
X78100000Y45200000D03*
X70800000Y37300000D03*
%TO.N,Net-(Q601-B)*%
X44710000Y9470000D03*
X61160000Y10440000D03*
%TO.N,Net-(D310-K)*%
X53600000Y-20140000D03*
%TO.N,PWR_EN*%
X69560000Y19960000D03*
X61920000Y33700000D03*
D17*
%TO.N,Net-(J301-CC1)*%
X32640000Y42820000D03*
X29850000Y47250000D03*
%TD*%
%TA.AperFunction,Conductor*%
%TO.N,GND*%
G36*
X27430168Y58129815D02*
G01*
X27475923Y58077011D01*
X27485867Y58007853D01*
X27470516Y57963500D01*
X27402980Y57846526D01*
X27402979Y57846522D01*
X27365463Y57706512D01*
X27365463Y57561562D01*
X27383839Y57492984D01*
X27402980Y57421549D01*
X27475451Y57296026D01*
X27475453Y57296024D01*
X27475454Y57296022D01*
X27577948Y57193528D01*
X27577949Y57193527D01*
X27577951Y57193526D01*
X27703474Y57121055D01*
X27703475Y57121055D01*
X27703478Y57121053D01*
X27843488Y57083537D01*
X27843491Y57083537D01*
X27988435Y57083537D01*
X27988438Y57083537D01*
X28128448Y57121053D01*
X28253978Y57193528D01*
X28356472Y57296022D01*
X28428947Y57421552D01*
X28466463Y57561562D01*
X28466463Y57706512D01*
X28428947Y57846522D01*
X28361410Y57963500D01*
X28344937Y58031400D01*
X28367789Y58097427D01*
X28422711Y58140618D01*
X28468797Y58149500D01*
X50002917Y58149500D01*
X50069956Y58129815D01*
X50115711Y58077011D01*
X50126917Y58025500D01*
X50126917Y50980117D01*
X50157441Y50906426D01*
X50213843Y50850024D01*
X50287535Y50819500D01*
X54227750Y50819500D01*
X54294789Y50799815D01*
X54340544Y50747011D01*
X54350488Y50677853D01*
X54342311Y50648047D01*
X54301420Y50549329D01*
X54301418Y50549323D01*
X54274500Y50413996D01*
X54274500Y50413993D01*
X54274500Y50276007D01*
X54274500Y50276005D01*
X54274499Y50276005D01*
X54301418Y50140678D01*
X54301421Y50140668D01*
X54354221Y50013196D01*
X54354228Y50013183D01*
X54430885Y49898459D01*
X54430888Y49898455D01*
X54528454Y49800889D01*
X54528458Y49800886D01*
X54643182Y49724229D01*
X54643195Y49724222D01*
X54770667Y49671422D01*
X54770672Y49671420D01*
X54770676Y49671420D01*
X54770677Y49671419D01*
X54906004Y49644500D01*
X54906007Y49644500D01*
X55043995Y49644500D01*
X55135041Y49662611D01*
X55179328Y49671420D01*
X55306811Y49724225D01*
X55421542Y49800886D01*
X55519114Y49898458D01*
X55595775Y50013189D01*
X55648580Y50140672D01*
X55673957Y50268249D01*
X55675500Y50276005D01*
X55675500Y50413996D01*
X55648581Y50549323D01*
X55648580Y50549324D01*
X55648580Y50549328D01*
X55607688Y50648049D01*
X55600220Y50717517D01*
X55631495Y50779996D01*
X55691584Y50815648D01*
X55722250Y50819500D01*
X72367297Y50819500D01*
X72367299Y50819500D01*
X72440991Y50850024D01*
X72497393Y50906426D01*
X72527917Y50980118D01*
X72527917Y55910222D01*
X76099500Y55910222D01*
X76099500Y55689779D01*
X76133985Y55472048D01*
X76202103Y55262397D01*
X76202104Y55262394D01*
X76302187Y55065975D01*
X76431752Y54887642D01*
X76431756Y54887637D01*
X76587636Y54731757D01*
X76587641Y54731753D01*
X76700862Y54649494D01*
X76765978Y54602185D01*
X76889003Y54539500D01*
X76962393Y54502105D01*
X76962396Y54502104D01*
X77031966Y54479500D01*
X77172049Y54433985D01*
X77389778Y54399500D01*
X77389779Y54399500D01*
X77610221Y54399500D01*
X77610222Y54399500D01*
X77827951Y54433985D01*
X78037606Y54502105D01*
X78234022Y54602185D01*
X78412365Y54731758D01*
X78568242Y54887635D01*
X78697815Y55065978D01*
X78797895Y55262394D01*
X78866015Y55472049D01*
X78900500Y55689778D01*
X78900500Y55910222D01*
X78866015Y56127951D01*
X78797895Y56337606D01*
X78797895Y56337607D01*
X78751072Y56429500D01*
X78697815Y56534022D01*
X78681260Y56556808D01*
X78568247Y56712359D01*
X78568243Y56712364D01*
X78412363Y56868244D01*
X78412358Y56868248D01*
X78234025Y56997813D01*
X78234024Y56997814D01*
X78234022Y56997815D01*
X78126747Y57052475D01*
X78037606Y57097896D01*
X78037603Y57097897D01*
X77827952Y57166015D01*
X77719086Y57183258D01*
X77610222Y57200500D01*
X77389778Y57200500D01*
X77317201Y57189005D01*
X77172047Y57166015D01*
X76962396Y57097897D01*
X76962393Y57097896D01*
X76765974Y56997813D01*
X76587641Y56868248D01*
X76587636Y56868244D01*
X76431756Y56712364D01*
X76431752Y56712359D01*
X76302187Y56534026D01*
X76202104Y56337607D01*
X76202103Y56337604D01*
X76133985Y56127953D01*
X76099500Y55910222D01*
X72527917Y55910222D01*
X72527917Y58025500D01*
X72547602Y58092539D01*
X72600406Y58138294D01*
X72651917Y58149500D01*
X82065500Y58149500D01*
X82132539Y58129815D01*
X82178294Y58077011D01*
X82189500Y58025500D01*
X82189500Y-40325500D01*
X82169815Y-40392539D01*
X82117011Y-40438294D01*
X82065500Y-40449500D01*
X23714500Y-40449500D01*
X23647461Y-40429815D01*
X23601706Y-40377011D01*
X23590500Y-40325500D01*
X23590500Y-36023389D01*
X31239500Y-36023389D01*
X31239500Y-36196611D01*
X31266598Y-36367701D01*
X31320127Y-36532445D01*
X31398768Y-36686788D01*
X31500586Y-36826928D01*
X31623072Y-36949414D01*
X31763212Y-37051232D01*
X31917555Y-37129873D01*
X32082299Y-37183402D01*
X32253389Y-37210500D01*
X32253390Y-37210500D01*
X32426610Y-37210500D01*
X32426611Y-37210500D01*
X32597701Y-37183402D01*
X32762445Y-37129873D01*
X32916788Y-37051232D01*
X33056928Y-36949414D01*
X33179414Y-36826928D01*
X33281232Y-36686788D01*
X33359873Y-36532445D01*
X33413402Y-36367701D01*
X33440500Y-36196611D01*
X33440500Y-36023389D01*
X33418326Y-35883389D01*
X53980677Y-35883389D01*
X53980677Y-36056610D01*
X54014467Y-36226481D01*
X54014470Y-36226493D01*
X54080750Y-36386509D01*
X54080757Y-36386522D01*
X54176984Y-36530535D01*
X54176987Y-36530539D01*
X54299460Y-36653012D01*
X54299464Y-36653015D01*
X54443477Y-36749242D01*
X54443490Y-36749249D01*
X54603506Y-36815529D01*
X54603511Y-36815531D01*
X54773389Y-36849322D01*
X54773392Y-36849323D01*
X54773394Y-36849323D01*
X54946608Y-36849323D01*
X54946609Y-36849322D01*
X55116489Y-36815531D01*
X55276516Y-36749246D01*
X55420536Y-36653015D01*
X55543015Y-36530536D01*
X55639246Y-36386516D01*
X55705531Y-36226489D01*
X55739323Y-36056606D01*
X55739323Y-35883394D01*
X55739323Y-35883391D01*
X55739322Y-35883389D01*
X55705532Y-35713518D01*
X55705531Y-35713511D01*
X55694780Y-35687555D01*
X55639249Y-35553490D01*
X55639242Y-35553477D01*
X55543015Y-35409464D01*
X55543012Y-35409460D01*
X55420539Y-35286987D01*
X55420535Y-35286984D01*
X55276522Y-35190757D01*
X55276509Y-35190750D01*
X55116493Y-35124470D01*
X55116481Y-35124467D01*
X54946609Y-35090677D01*
X54946606Y-35090677D01*
X54773394Y-35090677D01*
X54773391Y-35090677D01*
X54603518Y-35124467D01*
X54603506Y-35124470D01*
X54443490Y-35190750D01*
X54443477Y-35190757D01*
X54299464Y-35286984D01*
X54299460Y-35286987D01*
X54176987Y-35409460D01*
X54176984Y-35409464D01*
X54080757Y-35553477D01*
X54080750Y-35553490D01*
X54014470Y-35713506D01*
X54014467Y-35713518D01*
X53980677Y-35883389D01*
X33418326Y-35883389D01*
X33413402Y-35852299D01*
X33359873Y-35687555D01*
X33281232Y-35533212D01*
X33179414Y-35393072D01*
X33056928Y-35270586D01*
X32916788Y-35168768D01*
X32762445Y-35090127D01*
X32597701Y-35036598D01*
X32597699Y-35036597D01*
X32597698Y-35036597D01*
X32466271Y-35015781D01*
X32426611Y-35009500D01*
X32253389Y-35009500D01*
X32213728Y-35015781D01*
X32082302Y-35036597D01*
X31917552Y-35090128D01*
X31763211Y-35168768D01*
X31683256Y-35226859D01*
X31623072Y-35270586D01*
X31623070Y-35270588D01*
X31623069Y-35270588D01*
X31500588Y-35393069D01*
X31500588Y-35393070D01*
X31500586Y-35393072D01*
X31456859Y-35453256D01*
X31398768Y-35533211D01*
X31320128Y-35687552D01*
X31266597Y-35852302D01*
X31239500Y-36023389D01*
X23590500Y-36023389D01*
X23590500Y-20067525D01*
X53049500Y-20067525D01*
X53049500Y-20212475D01*
X53087016Y-20352485D01*
X53087017Y-20352488D01*
X53159488Y-20478011D01*
X53159490Y-20478013D01*
X53159491Y-20478015D01*
X53261985Y-20580509D01*
X53261986Y-20580510D01*
X53261988Y-20580511D01*
X53387511Y-20652982D01*
X53387512Y-20652982D01*
X53387515Y-20652984D01*
X53527525Y-20690500D01*
X53527528Y-20690500D01*
X53672472Y-20690500D01*
X53672475Y-20690500D01*
X53812485Y-20652984D01*
X53938015Y-20580509D01*
X54040509Y-20478015D01*
X54112984Y-20352485D01*
X54150500Y-20212475D01*
X54150500Y-20067525D01*
X54112984Y-19927515D01*
X54040509Y-19801985D01*
X53938015Y-19699491D01*
X53938013Y-19699490D01*
X53938011Y-19699488D01*
X53812488Y-19627017D01*
X53812489Y-19627017D01*
X53801006Y-19623940D01*
X53672475Y-19589500D01*
X53527525Y-19589500D01*
X53398993Y-19623940D01*
X53387511Y-19627017D01*
X53261988Y-19699488D01*
X53261982Y-19699493D01*
X53159493Y-19801982D01*
X53159488Y-19801988D01*
X53087017Y-19927511D01*
X53087016Y-19927515D01*
X53049500Y-20067525D01*
X23590500Y-20067525D01*
X23590500Y-18697525D01*
X56439500Y-18697525D01*
X56439500Y-18842475D01*
X56477016Y-18982485D01*
X56477017Y-18982488D01*
X56549488Y-19108011D01*
X56549490Y-19108013D01*
X56549491Y-19108015D01*
X56651985Y-19210509D01*
X56651986Y-19210510D01*
X56651988Y-19210511D01*
X56777511Y-19282982D01*
X56777512Y-19282982D01*
X56777515Y-19282984D01*
X56917525Y-19320500D01*
X56917528Y-19320500D01*
X57062472Y-19320500D01*
X57062475Y-19320500D01*
X57202485Y-19282984D01*
X57328015Y-19210509D01*
X57430509Y-19108015D01*
X57502984Y-18982485D01*
X57540500Y-18842475D01*
X57540500Y-18697525D01*
X57502984Y-18557515D01*
X57430509Y-18431985D01*
X57328015Y-18329491D01*
X57328013Y-18329490D01*
X57328011Y-18329488D01*
X57202488Y-18257017D01*
X57202489Y-18257017D01*
X57191006Y-18253940D01*
X57062475Y-18219500D01*
X56917525Y-18219500D01*
X56788993Y-18253940D01*
X56777511Y-18257017D01*
X56651988Y-18329488D01*
X56651982Y-18329493D01*
X56549493Y-18431982D01*
X56549488Y-18431988D01*
X56477017Y-18557511D01*
X56477016Y-18557515D01*
X56439500Y-18697525D01*
X23590500Y-18697525D01*
X23590500Y-15883389D01*
X44480677Y-15883389D01*
X44480677Y-16056610D01*
X44514467Y-16226481D01*
X44514470Y-16226493D01*
X44580750Y-16386509D01*
X44580757Y-16386522D01*
X44676984Y-16530535D01*
X44676987Y-16530539D01*
X44799460Y-16653012D01*
X44799464Y-16653015D01*
X44943477Y-16749242D01*
X44943490Y-16749249D01*
X45089846Y-16809871D01*
X45103511Y-16815531D01*
X45273389Y-16849322D01*
X45273392Y-16849323D01*
X45273394Y-16849323D01*
X45446608Y-16849323D01*
X45446609Y-16849322D01*
X45616489Y-16815531D01*
X45776516Y-16749246D01*
X45920536Y-16653015D01*
X46043015Y-16530536D01*
X46139246Y-16386516D01*
X46205531Y-16226489D01*
X46239323Y-16056606D01*
X46239323Y-15883394D01*
X46239323Y-15883391D01*
X46239322Y-15883389D01*
X46207361Y-15722708D01*
X46205532Y-15713516D01*
X46205531Y-15713515D01*
X46205531Y-15713511D01*
X46201338Y-15703389D01*
X75689500Y-15703389D01*
X75689500Y-15876611D01*
X75716598Y-16047701D01*
X75770127Y-16212445D01*
X75848768Y-16366788D01*
X75950586Y-16506928D01*
X76073072Y-16629414D01*
X76213212Y-16731232D01*
X76367555Y-16809873D01*
X76532299Y-16863402D01*
X76703389Y-16890500D01*
X76703390Y-16890500D01*
X76876610Y-16890500D01*
X76876611Y-16890500D01*
X77047701Y-16863402D01*
X77212445Y-16809873D01*
X77366788Y-16731232D01*
X77506928Y-16629414D01*
X77629414Y-16506928D01*
X77731232Y-16366788D01*
X77809873Y-16212445D01*
X77863402Y-16047701D01*
X77890500Y-15876611D01*
X77890500Y-15703389D01*
X77863402Y-15532299D01*
X77809873Y-15367555D01*
X77731232Y-15213212D01*
X77629414Y-15073072D01*
X77506928Y-14950586D01*
X77366788Y-14848768D01*
X77212445Y-14770127D01*
X77047701Y-14716598D01*
X77047699Y-14716597D01*
X77047698Y-14716597D01*
X76916271Y-14695781D01*
X76876611Y-14689500D01*
X76703389Y-14689500D01*
X76663728Y-14695781D01*
X76532302Y-14716597D01*
X76367552Y-14770128D01*
X76213211Y-14848768D01*
X76133256Y-14906859D01*
X76073072Y-14950586D01*
X76073070Y-14950588D01*
X76073069Y-14950588D01*
X75950588Y-15073069D01*
X75950588Y-15073070D01*
X75950586Y-15073072D01*
X75913245Y-15124467D01*
X75848768Y-15213211D01*
X75770128Y-15367552D01*
X75716597Y-15532302D01*
X75689500Y-15703389D01*
X46201338Y-15703389D01*
X46139249Y-15553490D01*
X46139242Y-15553477D01*
X46043015Y-15409464D01*
X46043012Y-15409460D01*
X45920539Y-15286987D01*
X45920535Y-15286984D01*
X45776522Y-15190757D01*
X45776509Y-15190750D01*
X45616493Y-15124470D01*
X45616481Y-15124467D01*
X45446609Y-15090677D01*
X45446606Y-15090677D01*
X45273394Y-15090677D01*
X45273391Y-15090677D01*
X45103518Y-15124467D01*
X45103506Y-15124470D01*
X44943490Y-15190750D01*
X44943477Y-15190757D01*
X44799464Y-15286984D01*
X44799460Y-15286987D01*
X44676987Y-15409460D01*
X44676984Y-15409464D01*
X44580757Y-15553477D01*
X44580750Y-15553490D01*
X44514470Y-15713506D01*
X44514467Y-15713518D01*
X44480677Y-15883389D01*
X23590500Y-15883389D01*
X23590500Y-5190389D01*
X27622700Y-5190389D01*
X27622700Y-5363611D01*
X27649798Y-5534701D01*
X27696039Y-5677016D01*
X27703328Y-5699447D01*
X27738597Y-5768666D01*
X27781968Y-5853788D01*
X27883786Y-5993928D01*
X28006272Y-6116414D01*
X28146412Y-6218232D01*
X28300755Y-6296873D01*
X28465499Y-6350402D01*
X28636589Y-6377500D01*
X28636590Y-6377500D01*
X28809810Y-6377500D01*
X28809811Y-6377500D01*
X28980901Y-6350402D01*
X29145645Y-6296873D01*
X29299988Y-6218232D01*
X29438599Y-6117525D01*
X44349500Y-6117525D01*
X44349500Y-6262475D01*
X44387016Y-6402485D01*
X44387017Y-6402488D01*
X44459488Y-6528011D01*
X44459490Y-6528013D01*
X44459491Y-6528015D01*
X44561985Y-6630509D01*
X44561986Y-6630510D01*
X44561988Y-6630511D01*
X44687511Y-6702982D01*
X44687512Y-6702982D01*
X44687515Y-6702984D01*
X44827525Y-6740500D01*
X44827528Y-6740500D01*
X44972472Y-6740500D01*
X44972475Y-6740500D01*
X45112485Y-6702984D01*
X45238015Y-6630509D01*
X45340509Y-6528015D01*
X45412984Y-6402485D01*
X45450500Y-6262475D01*
X45450500Y-6117525D01*
X45431743Y-6047525D01*
X53779500Y-6047525D01*
X53779500Y-6192475D01*
X53806337Y-6292631D01*
X53817017Y-6332488D01*
X53889488Y-6458011D01*
X53889490Y-6458013D01*
X53889491Y-6458015D01*
X53991985Y-6560509D01*
X53991986Y-6560510D01*
X53991988Y-6560511D01*
X54117511Y-6632982D01*
X54117512Y-6632982D01*
X54117515Y-6632984D01*
X54257525Y-6670500D01*
X54257528Y-6670500D01*
X54402472Y-6670500D01*
X54402475Y-6670500D01*
X54542485Y-6632984D01*
X54668015Y-6560509D01*
X54770509Y-6458015D01*
X54842984Y-6332485D01*
X54880500Y-6192475D01*
X54880500Y-6192471D01*
X54881561Y-6184415D01*
X54884385Y-6184786D01*
X54900185Y-6130980D01*
X54952989Y-6085225D01*
X55022147Y-6075281D01*
X55085703Y-6104306D01*
X55093123Y-6112182D01*
X55093391Y-6111915D01*
X55099138Y-6117662D01*
X55201632Y-6220156D01*
X55201633Y-6220157D01*
X55201635Y-6220158D01*
X55327158Y-6292629D01*
X55327159Y-6292629D01*
X55327162Y-6292631D01*
X55467172Y-6330147D01*
X55467175Y-6330147D01*
X55612119Y-6330147D01*
X55612122Y-6330147D01*
X55752132Y-6292631D01*
X55877662Y-6220156D01*
X55980156Y-6117662D01*
X56052631Y-5992132D01*
X56090147Y-5852122D01*
X56090147Y-5707172D01*
X56052631Y-5567162D01*
X56033887Y-5534697D01*
X55980158Y-5441635D01*
X55980153Y-5441629D01*
X55877664Y-5339140D01*
X55877662Y-5339138D01*
X55752132Y-5266663D01*
X55612122Y-5229147D01*
X55575771Y-5229147D01*
X55561264Y-5225601D01*
X55543435Y-5215266D01*
X55523668Y-5209462D01*
X55513824Y-5198102D01*
X55500815Y-5190561D01*
X55491403Y-5172226D01*
X55485132Y-5164989D01*
X75908100Y-5164989D01*
X75908100Y-5338211D01*
X75935198Y-5509301D01*
X75988727Y-5674045D01*
X76067368Y-5828388D01*
X76169186Y-5968528D01*
X76291672Y-6091014D01*
X76431812Y-6192832D01*
X76586155Y-6271473D01*
X76750899Y-6325002D01*
X76921989Y-6352100D01*
X76921990Y-6352100D01*
X77095210Y-6352100D01*
X77095211Y-6352100D01*
X77266301Y-6325002D01*
X77431045Y-6271473D01*
X77585388Y-6192832D01*
X77725528Y-6091014D01*
X77848014Y-5968528D01*
X77949832Y-5828388D01*
X78028473Y-5674045D01*
X78082002Y-5509301D01*
X78109100Y-5338211D01*
X78109100Y-5164989D01*
X78082002Y-4993899D01*
X78028473Y-4829155D01*
X77949832Y-4674812D01*
X77848014Y-4534672D01*
X77725528Y-4412186D01*
X77585388Y-4310368D01*
X77431045Y-4231727D01*
X77266301Y-4178198D01*
X77266299Y-4178197D01*
X77266298Y-4178197D01*
X77119992Y-4155025D01*
X77095211Y-4151100D01*
X76921989Y-4151100D01*
X76897208Y-4155025D01*
X76750902Y-4178197D01*
X76586152Y-4231728D01*
X76431811Y-4310368D01*
X76351856Y-4368459D01*
X76291672Y-4412186D01*
X76291670Y-4412188D01*
X76291669Y-4412188D01*
X76169188Y-4534669D01*
X76169188Y-4534670D01*
X76169186Y-4534672D01*
X76150732Y-4560072D01*
X76067368Y-4674811D01*
X75988728Y-4829152D01*
X75935197Y-4993902D01*
X75908100Y-5164989D01*
X55485132Y-5164989D01*
X55477913Y-5156658D01*
X55475773Y-5141779D01*
X55468907Y-5128403D01*
X55470901Y-5107894D01*
X55467969Y-5087500D01*
X55474805Y-5067746D01*
X55475670Y-5058861D01*
X55479608Y-5053870D01*
X55483320Y-5043147D01*
X55552982Y-4922488D01*
X55552981Y-4922488D01*
X55552984Y-4922485D01*
X55590500Y-4782475D01*
X55590500Y-4637525D01*
X55552984Y-4497515D01*
X55503720Y-4412188D01*
X55480511Y-4371988D01*
X55480506Y-4371982D01*
X55378017Y-4269493D01*
X55378011Y-4269488D01*
X55252488Y-4197017D01*
X55252489Y-4197017D01*
X55241006Y-4193940D01*
X55112475Y-4159500D01*
X54967525Y-4159500D01*
X54838993Y-4193940D01*
X54827511Y-4197017D01*
X54701988Y-4269488D01*
X54701982Y-4269493D01*
X54599493Y-4371982D01*
X54599488Y-4371988D01*
X54527017Y-4497511D01*
X54527016Y-4497515D01*
X54489500Y-4637525D01*
X54489500Y-4782475D01*
X54508814Y-4854555D01*
X54527017Y-4922488D01*
X54599488Y-5048011D01*
X54599490Y-5048013D01*
X54599491Y-5048015D01*
X54701985Y-5150509D01*
X54701986Y-5150510D01*
X54701988Y-5150511D01*
X54827511Y-5222982D01*
X54827512Y-5222982D01*
X54827515Y-5222984D01*
X54967525Y-5260500D01*
X54967528Y-5260500D01*
X54988940Y-5260500D01*
X55055979Y-5280185D01*
X55101734Y-5332989D01*
X55111678Y-5402147D01*
X55096327Y-5446500D01*
X55026664Y-5567158D01*
X54989146Y-5707175D01*
X54988086Y-5715232D01*
X54985261Y-5714860D01*
X54969462Y-5768666D01*
X54916658Y-5814421D01*
X54847500Y-5824365D01*
X54783944Y-5795340D01*
X54776522Y-5787465D01*
X54776256Y-5787732D01*
X54668017Y-5679493D01*
X54668011Y-5679488D01*
X54542488Y-5607017D01*
X54542489Y-5607017D01*
X54531006Y-5603940D01*
X54402475Y-5569500D01*
X54257525Y-5569500D01*
X54128993Y-5603940D01*
X54117511Y-5607017D01*
X53991988Y-5679488D01*
X53991982Y-5679493D01*
X53889493Y-5781982D01*
X53889488Y-5781988D01*
X53817017Y-5907511D01*
X53817016Y-5907515D01*
X53779500Y-6047525D01*
X45431743Y-6047525D01*
X45412984Y-5977515D01*
X45407796Y-5968530D01*
X45340511Y-5851988D01*
X45340506Y-5851982D01*
X45238017Y-5749493D01*
X45238011Y-5749488D01*
X45112488Y-5677017D01*
X45112489Y-5677017D01*
X45101006Y-5673940D01*
X44972475Y-5639500D01*
X44827525Y-5639500D01*
X44698993Y-5673940D01*
X44687511Y-5677017D01*
X44561988Y-5749488D01*
X44561982Y-5749493D01*
X44459493Y-5851982D01*
X44459488Y-5851988D01*
X44387017Y-5977511D01*
X44387016Y-5977515D01*
X44349500Y-6117525D01*
X29438599Y-6117525D01*
X29440128Y-6116414D01*
X29562614Y-5993928D01*
X29664432Y-5853788D01*
X29743073Y-5699445D01*
X29796602Y-5534701D01*
X29823700Y-5363611D01*
X29823700Y-5190389D01*
X29796602Y-5019299D01*
X29743073Y-4854555D01*
X29664432Y-4700212D01*
X29562614Y-4560072D01*
X29440128Y-4437586D01*
X29299988Y-4335768D01*
X29169911Y-4269491D01*
X29146148Y-4257383D01*
X29146146Y-4257381D01*
X29145651Y-4257129D01*
X29145645Y-4257127D01*
X28980901Y-4203598D01*
X28980899Y-4203597D01*
X28980898Y-4203597D01*
X28849471Y-4182781D01*
X28809811Y-4176500D01*
X28636589Y-4176500D01*
X28596928Y-4182781D01*
X28465502Y-4203597D01*
X28300752Y-4257128D01*
X28146411Y-4335768D01*
X28066456Y-4393859D01*
X28006272Y-4437586D01*
X28006270Y-4437588D01*
X28006269Y-4437588D01*
X27883788Y-4560069D01*
X27883788Y-4560070D01*
X27883786Y-4560072D01*
X27879830Y-4565517D01*
X27781968Y-4700211D01*
X27703328Y-4854552D01*
X27649797Y-5019302D01*
X27630399Y-5141779D01*
X27622700Y-5190389D01*
X23590500Y-5190389D01*
X23590500Y-4155025D01*
X51069500Y-4155025D01*
X51069500Y-4299975D01*
X51099568Y-4412188D01*
X51107017Y-4439988D01*
X51179488Y-4565511D01*
X51179490Y-4565513D01*
X51179491Y-4565515D01*
X51281985Y-4668009D01*
X51281986Y-4668010D01*
X51281988Y-4668011D01*
X51407511Y-4740482D01*
X51407512Y-4740482D01*
X51407515Y-4740484D01*
X51547525Y-4778000D01*
X51547528Y-4778000D01*
X51692472Y-4778000D01*
X51692475Y-4778000D01*
X51832485Y-4740484D01*
X51958015Y-4668009D01*
X52060509Y-4565515D01*
X52132984Y-4439985D01*
X52170500Y-4299975D01*
X52170500Y-4155025D01*
X52132984Y-4015015D01*
X52085329Y-3932475D01*
X52060511Y-3889488D01*
X52060506Y-3889482D01*
X51958549Y-3787525D01*
X71889500Y-3787525D01*
X71889500Y-3932475D01*
X71911616Y-4015011D01*
X71927017Y-4072488D01*
X71999488Y-4198011D01*
X71999490Y-4198013D01*
X71999491Y-4198015D01*
X72101985Y-4300509D01*
X72101986Y-4300510D01*
X72101988Y-4300511D01*
X72227511Y-4372982D01*
X72227512Y-4372982D01*
X72227515Y-4372984D01*
X72367525Y-4410500D01*
X72367528Y-4410500D01*
X72512472Y-4410500D01*
X72512475Y-4410500D01*
X72652485Y-4372984D01*
X72778015Y-4300509D01*
X72880509Y-4198015D01*
X72952984Y-4072485D01*
X72990500Y-3932475D01*
X72990500Y-3787525D01*
X72952984Y-3647515D01*
X72943160Y-3630500D01*
X72880511Y-3521988D01*
X72880506Y-3521982D01*
X72778017Y-3419493D01*
X72778011Y-3419488D01*
X72652488Y-3347017D01*
X72652489Y-3347017D01*
X72641006Y-3343940D01*
X72512475Y-3309500D01*
X72367525Y-3309500D01*
X72238993Y-3343940D01*
X72227511Y-3347017D01*
X72101988Y-3419488D01*
X72101982Y-3419493D01*
X71999493Y-3521982D01*
X71999488Y-3521988D01*
X71927017Y-3647511D01*
X71927016Y-3647515D01*
X71889500Y-3787525D01*
X51958549Y-3787525D01*
X51958017Y-3786993D01*
X51958011Y-3786988D01*
X51832488Y-3714517D01*
X51832489Y-3714517D01*
X51821006Y-3711440D01*
X51692475Y-3677000D01*
X51547525Y-3677000D01*
X51418993Y-3711440D01*
X51407511Y-3714517D01*
X51281988Y-3786988D01*
X51281982Y-3786993D01*
X51179493Y-3889482D01*
X51179488Y-3889488D01*
X51107017Y-4015011D01*
X51107016Y-4015015D01*
X51069500Y-4155025D01*
X23590500Y-4155025D01*
X23590500Y-2650389D01*
X27622700Y-2650389D01*
X27622700Y-2823610D01*
X27645325Y-2966464D01*
X27649798Y-2994701D01*
X27703327Y-3159445D01*
X27781968Y-3313788D01*
X27883786Y-3453928D01*
X28006272Y-3576414D01*
X28146412Y-3678232D01*
X28300755Y-3756873D01*
X28465499Y-3810402D01*
X28636589Y-3837500D01*
X28636590Y-3837500D01*
X28809810Y-3837500D01*
X28809811Y-3837500D01*
X28980901Y-3810402D01*
X29145645Y-3756873D01*
X29299988Y-3678232D01*
X29440128Y-3576414D01*
X29562614Y-3453928D01*
X29664432Y-3313788D01*
X29743073Y-3159445D01*
X29761485Y-3102778D01*
X53304247Y-3102778D01*
X53304247Y-3247728D01*
X53330852Y-3347017D01*
X53341764Y-3387741D01*
X53414235Y-3513264D01*
X53414237Y-3513266D01*
X53414238Y-3513268D01*
X53516732Y-3615762D01*
X53516733Y-3615763D01*
X53516735Y-3615764D01*
X53642258Y-3688235D01*
X53642259Y-3688235D01*
X53642262Y-3688237D01*
X53782272Y-3725753D01*
X53782275Y-3725753D01*
X53927219Y-3725753D01*
X53927222Y-3725753D01*
X54067232Y-3688237D01*
X54192762Y-3615762D01*
X54295256Y-3513268D01*
X54367731Y-3387738D01*
X54405247Y-3247728D01*
X54405247Y-3102778D01*
X54379724Y-3007525D01*
X59359500Y-3007525D01*
X59359500Y-3152475D01*
X59395918Y-3288388D01*
X59397017Y-3292488D01*
X59469488Y-3418011D01*
X59469490Y-3418013D01*
X59469491Y-3418015D01*
X59571985Y-3520509D01*
X59571986Y-3520510D01*
X59571988Y-3520511D01*
X59697511Y-3592982D01*
X59697512Y-3592982D01*
X59697515Y-3592984D01*
X59837525Y-3630500D01*
X59837528Y-3630500D01*
X59982472Y-3630500D01*
X59982475Y-3630500D01*
X60122485Y-3592984D01*
X60248015Y-3520509D01*
X60350509Y-3418015D01*
X60422984Y-3292485D01*
X60460500Y-3152475D01*
X60460500Y-3035721D01*
X60480185Y-2968682D01*
X60522500Y-2928334D01*
X60588015Y-2890509D01*
X60690509Y-2788015D01*
X60762984Y-2662485D01*
X60773031Y-2624989D01*
X75908100Y-2624989D01*
X75908100Y-2798210D01*
X75934748Y-2966464D01*
X75935198Y-2969301D01*
X75988727Y-3134045D01*
X76067368Y-3288388D01*
X76169186Y-3428528D01*
X76291672Y-3551014D01*
X76431812Y-3652832D01*
X76586155Y-3731473D01*
X76750899Y-3785002D01*
X76921989Y-3812100D01*
X76921990Y-3812100D01*
X77095210Y-3812100D01*
X77095211Y-3812100D01*
X77266301Y-3785002D01*
X77431045Y-3731473D01*
X77585388Y-3652832D01*
X77725528Y-3551014D01*
X77848014Y-3428528D01*
X77949832Y-3288388D01*
X78028473Y-3134045D01*
X78082002Y-2969301D01*
X78109100Y-2798211D01*
X78109100Y-2624989D01*
X78082002Y-2453899D01*
X78028473Y-2289155D01*
X77949832Y-2134812D01*
X77848014Y-1994672D01*
X77725528Y-1872186D01*
X77585388Y-1770368D01*
X77431045Y-1691727D01*
X77266301Y-1638198D01*
X77266299Y-1638197D01*
X77266298Y-1638197D01*
X77134871Y-1617381D01*
X77095211Y-1611100D01*
X76921989Y-1611100D01*
X76882328Y-1617381D01*
X76750902Y-1638197D01*
X76586152Y-1691728D01*
X76431811Y-1770368D01*
X76394447Y-1797515D01*
X76291672Y-1872186D01*
X76291670Y-1872188D01*
X76291669Y-1872188D01*
X76169188Y-1994669D01*
X76169188Y-1994670D01*
X76169186Y-1994672D01*
X76129294Y-2049578D01*
X76067368Y-2134811D01*
X75988728Y-2289152D01*
X75935197Y-2453902D01*
X75908100Y-2624989D01*
X60773031Y-2624989D01*
X60800500Y-2522475D01*
X60800500Y-2377525D01*
X60762984Y-2237515D01*
X60754306Y-2222485D01*
X60690511Y-2111988D01*
X60690506Y-2111982D01*
X60588017Y-2009493D01*
X60588015Y-2009491D01*
X60537661Y-1980419D01*
X60489446Y-1929851D01*
X60476224Y-1861244D01*
X60492277Y-1811029D01*
X60502984Y-1792485D01*
X60540500Y-1652475D01*
X60540500Y-1507525D01*
X60502984Y-1367515D01*
X60471212Y-1312485D01*
X60430511Y-1241988D01*
X60430506Y-1241982D01*
X60328017Y-1139493D01*
X60328011Y-1139488D01*
X60202488Y-1067017D01*
X60202489Y-1067017D01*
X60191006Y-1063940D01*
X60062475Y-1029500D01*
X59917525Y-1029500D01*
X59788993Y-1063940D01*
X59777511Y-1067017D01*
X59651988Y-1139488D01*
X59651982Y-1139493D01*
X59549493Y-1241982D01*
X59549488Y-1241988D01*
X59477017Y-1367511D01*
X59477016Y-1367515D01*
X59439500Y-1507525D01*
X59439500Y-1652475D01*
X59456824Y-1717127D01*
X59477017Y-1792488D01*
X59549488Y-1918011D01*
X59549490Y-1918013D01*
X59549491Y-1918015D01*
X59651985Y-2020509D01*
X59702338Y-2049580D01*
X59750552Y-2100145D01*
X59763776Y-2168752D01*
X59747725Y-2218964D01*
X59737018Y-2237509D01*
X59737017Y-2237510D01*
X59737016Y-2237515D01*
X59699500Y-2377525D01*
X59699500Y-2377527D01*
X59699500Y-2494278D01*
X59679815Y-2561317D01*
X59637501Y-2601665D01*
X59571985Y-2639491D01*
X59571982Y-2639493D01*
X59469493Y-2741982D01*
X59469488Y-2741988D01*
X59397017Y-2867511D01*
X59397016Y-2867515D01*
X59359500Y-3007525D01*
X54379724Y-3007525D01*
X54367731Y-2962768D01*
X54347850Y-2928334D01*
X54295258Y-2837241D01*
X54295253Y-2837235D01*
X54192764Y-2734746D01*
X54192758Y-2734741D01*
X54067235Y-2662270D01*
X54067236Y-2662270D01*
X54055753Y-2659193D01*
X53927222Y-2624753D01*
X53782272Y-2624753D01*
X53653740Y-2659193D01*
X53642258Y-2662270D01*
X53516735Y-2734741D01*
X53516729Y-2734746D01*
X53414240Y-2837235D01*
X53414235Y-2837241D01*
X53341764Y-2962764D01*
X53340012Y-2969301D01*
X53304247Y-3102778D01*
X29761485Y-3102778D01*
X29796602Y-2994701D01*
X29823700Y-2823611D01*
X29823700Y-2650389D01*
X29796602Y-2479299D01*
X29743073Y-2314555D01*
X29664432Y-2160212D01*
X29562614Y-2020072D01*
X29480067Y-1937525D01*
X36039500Y-1937525D01*
X36039500Y-2082475D01*
X36076073Y-2218964D01*
X36077017Y-2222488D01*
X36149488Y-2348011D01*
X36149490Y-2348013D01*
X36149491Y-2348015D01*
X36251985Y-2450509D01*
X36251986Y-2450510D01*
X36251988Y-2450511D01*
X36377511Y-2522982D01*
X36377512Y-2522982D01*
X36377515Y-2522984D01*
X36517525Y-2560500D01*
X36517528Y-2560500D01*
X36662472Y-2560500D01*
X36662475Y-2560500D01*
X36802485Y-2522984D01*
X36928015Y-2450509D01*
X37030509Y-2348015D01*
X37102984Y-2222485D01*
X37140500Y-2082475D01*
X37140500Y-1937525D01*
X37102984Y-1797515D01*
X37101975Y-1795768D01*
X37030511Y-1671988D01*
X37030506Y-1671982D01*
X36928017Y-1569493D01*
X36928011Y-1569488D01*
X36802488Y-1497017D01*
X36802489Y-1497017D01*
X36791006Y-1493940D01*
X36662475Y-1459500D01*
X36517525Y-1459500D01*
X36388993Y-1493940D01*
X36377511Y-1497017D01*
X36251988Y-1569488D01*
X36251982Y-1569493D01*
X36149493Y-1671982D01*
X36149488Y-1671988D01*
X36077017Y-1797511D01*
X36077016Y-1797515D01*
X36039500Y-1937525D01*
X29480067Y-1937525D01*
X29440128Y-1897586D01*
X29299988Y-1795768D01*
X29145645Y-1717127D01*
X28980901Y-1663598D01*
X28980899Y-1663597D01*
X28980898Y-1663597D01*
X28849471Y-1642781D01*
X28809811Y-1636500D01*
X28636589Y-1636500D01*
X28596928Y-1642781D01*
X28465502Y-1663597D01*
X28300752Y-1717128D01*
X28146411Y-1795768D01*
X28066456Y-1853859D01*
X28006272Y-1897586D01*
X28006270Y-1897588D01*
X28006269Y-1897588D01*
X27883788Y-2020069D01*
X27883788Y-2020070D01*
X27883786Y-2020072D01*
X27862349Y-2049578D01*
X27781968Y-2160211D01*
X27703328Y-2314552D01*
X27649797Y-2479302D01*
X27622700Y-2650389D01*
X23590500Y-2650389D01*
X23590500Y-110389D01*
X27622700Y-110389D01*
X27622700Y-283610D01*
X27645571Y-428017D01*
X27649798Y-454701D01*
X27697978Y-602984D01*
X27703328Y-619447D01*
X27730605Y-672982D01*
X27781968Y-773788D01*
X27883786Y-913928D01*
X28006272Y-1036414D01*
X28146412Y-1138232D01*
X28300755Y-1216873D01*
X28465499Y-1270402D01*
X28636589Y-1297500D01*
X28636590Y-1297500D01*
X28809810Y-1297500D01*
X28809811Y-1297500D01*
X28980901Y-1270402D01*
X29145645Y-1216873D01*
X29299988Y-1138232D01*
X29440128Y-1036414D01*
X29449017Y-1027525D01*
X37299500Y-1027525D01*
X37299500Y-1172475D01*
X37318934Y-1245002D01*
X37337017Y-1312488D01*
X37409488Y-1438011D01*
X37409490Y-1438013D01*
X37409491Y-1438015D01*
X37511985Y-1540509D01*
X37511986Y-1540510D01*
X37511988Y-1540511D01*
X37637511Y-1612982D01*
X37637512Y-1612982D01*
X37637515Y-1612984D01*
X37777525Y-1650500D01*
X37777528Y-1650500D01*
X37922472Y-1650500D01*
X37922475Y-1650500D01*
X38062485Y-1612984D01*
X38188015Y-1540509D01*
X38290509Y-1438015D01*
X38362984Y-1312485D01*
X38400500Y-1172475D01*
X38400500Y-1027525D01*
X38362984Y-887515D01*
X38335657Y-840184D01*
X38305255Y-787525D01*
X50039500Y-787525D01*
X50039500Y-932475D01*
X50067649Y-1037527D01*
X50077017Y-1072488D01*
X50149488Y-1198011D01*
X50149490Y-1198013D01*
X50149491Y-1198015D01*
X50251985Y-1300509D01*
X50251986Y-1300510D01*
X50251988Y-1300511D01*
X50377511Y-1372982D01*
X50377512Y-1372982D01*
X50377515Y-1372984D01*
X50517525Y-1410500D01*
X50517528Y-1410500D01*
X50662472Y-1410500D01*
X50662475Y-1410500D01*
X50802485Y-1372984D01*
X50928015Y-1300509D01*
X51030509Y-1198015D01*
X51102984Y-1072485D01*
X51140500Y-932475D01*
X51140500Y-787525D01*
X51102984Y-647515D01*
X51091723Y-628011D01*
X51030511Y-521988D01*
X51030506Y-521982D01*
X50928017Y-419493D01*
X50928011Y-419488D01*
X50802488Y-347017D01*
X50802489Y-347017D01*
X50791006Y-343940D01*
X50662475Y-309500D01*
X50517525Y-309500D01*
X50388993Y-343940D01*
X50377511Y-347017D01*
X50251988Y-419488D01*
X50251982Y-419493D01*
X50149493Y-521982D01*
X50149488Y-521988D01*
X50077017Y-647511D01*
X50077016Y-647515D01*
X50039500Y-787525D01*
X38305255Y-787525D01*
X38290511Y-761988D01*
X38290506Y-761982D01*
X38188017Y-659493D01*
X38188011Y-659488D01*
X38062488Y-587017D01*
X38062489Y-587017D01*
X38038201Y-580509D01*
X37922475Y-549500D01*
X37777525Y-549500D01*
X37661799Y-580509D01*
X37637511Y-587017D01*
X37511988Y-659488D01*
X37511982Y-659493D01*
X37409493Y-761982D01*
X37409488Y-761988D01*
X37337017Y-887511D01*
X37336744Y-888529D01*
X37299500Y-1027525D01*
X29449017Y-1027525D01*
X29562614Y-913928D01*
X29664432Y-773788D01*
X29743073Y-619445D01*
X29796602Y-454701D01*
X29823700Y-283611D01*
X29823700Y-110389D01*
X29818495Y-77525D01*
X40789500Y-77525D01*
X40789500Y-222475D01*
X40827016Y-362485D01*
X40827017Y-362488D01*
X40899488Y-488011D01*
X40899490Y-488013D01*
X40899491Y-488015D01*
X41001985Y-590509D01*
X41001986Y-590510D01*
X41001988Y-590511D01*
X41127511Y-662982D01*
X41127512Y-662982D01*
X41127515Y-662984D01*
X41267525Y-700500D01*
X41267528Y-700500D01*
X41412472Y-700500D01*
X41412475Y-700500D01*
X41552485Y-662984D01*
X41678015Y-590509D01*
X41780509Y-488015D01*
X41852984Y-362485D01*
X41890500Y-222475D01*
X41890500Y-77525D01*
X41852984Y62485D01*
X41847210Y72485D01*
X41780511Y188012D01*
X41780506Y188018D01*
X41678017Y290507D01*
X41678011Y290512D01*
X41552488Y362983D01*
X41552489Y362983D01*
X41541006Y366060D01*
X41412475Y400500D01*
X41267525Y400500D01*
X41138993Y366060D01*
X41127511Y362983D01*
X41001988Y290512D01*
X41001982Y290507D01*
X40899493Y188018D01*
X40899488Y188012D01*
X40827017Y62489D01*
X40827016Y62485D01*
X40789500Y-77525D01*
X29818495Y-77525D01*
X29796602Y60701D01*
X29743073Y225445D01*
X29664432Y379788D01*
X29562614Y519928D01*
X29440128Y642414D01*
X29357461Y702475D01*
X47389500Y702475D01*
X47389500Y557525D01*
X47425551Y422984D01*
X47427017Y417512D01*
X47499488Y291989D01*
X47499490Y291987D01*
X47499491Y291985D01*
X47601985Y189491D01*
X47601986Y189490D01*
X47601988Y189489D01*
X47727511Y117018D01*
X47727512Y117018D01*
X47727515Y117016D01*
X47867525Y79500D01*
X47867528Y79500D01*
X48012472Y79500D01*
X48012475Y79500D01*
X48152485Y117016D01*
X48231222Y162475D01*
X51129500Y162475D01*
X51129500Y17525D01*
X51157649Y-87527D01*
X51167017Y-122488D01*
X51239488Y-248011D01*
X51239490Y-248013D01*
X51239491Y-248015D01*
X51341985Y-350509D01*
X51341986Y-350510D01*
X51341988Y-350511D01*
X51467511Y-422982D01*
X51467512Y-422982D01*
X51467515Y-422984D01*
X51607525Y-460500D01*
X51607528Y-460500D01*
X51752472Y-460500D01*
X51752475Y-460500D01*
X51892485Y-422984D01*
X52018015Y-350509D01*
X52120509Y-248015D01*
X52138112Y-217525D01*
X53739500Y-217525D01*
X53739500Y-362475D01*
X53775817Y-498011D01*
X53777017Y-502488D01*
X53849488Y-628011D01*
X53849490Y-628013D01*
X53849491Y-628015D01*
X53951985Y-730509D01*
X53951986Y-730510D01*
X53951988Y-730511D01*
X54077511Y-802982D01*
X54077512Y-802982D01*
X54077515Y-802984D01*
X54217525Y-840500D01*
X54217528Y-840500D01*
X54362467Y-840500D01*
X54362475Y-840500D01*
X54362482Y-840497D01*
X54364866Y-840184D01*
X54366893Y-840500D01*
X54370602Y-840500D01*
X54370602Y-841078D01*
X54433902Y-850944D01*
X54486162Y-897320D01*
X54505053Y-964587D01*
X54500836Y-995215D01*
X54489500Y-1037525D01*
X54489500Y-1182475D01*
X54527016Y-1322485D01*
X54527017Y-1322488D01*
X54599488Y-1448011D01*
X54599490Y-1448013D01*
X54599491Y-1448015D01*
X54701985Y-1550509D01*
X54701986Y-1550510D01*
X54701988Y-1550511D01*
X54827511Y-1622982D01*
X54827512Y-1622982D01*
X54827515Y-1622984D01*
X54967525Y-1660500D01*
X54967528Y-1660500D01*
X55112472Y-1660500D01*
X55112475Y-1660500D01*
X55252485Y-1622984D01*
X55378015Y-1550509D01*
X55480509Y-1448015D01*
X55552984Y-1322485D01*
X55590500Y-1182475D01*
X55590500Y-1037525D01*
X55552984Y-897515D01*
X55552871Y-897320D01*
X55480511Y-771988D01*
X55480506Y-771982D01*
X55378017Y-669493D01*
X55378011Y-669488D01*
X55252488Y-597017D01*
X55252489Y-597017D01*
X55228201Y-590509D01*
X55112475Y-559500D01*
X54967525Y-559500D01*
X54967521Y-559500D01*
X54965120Y-559816D01*
X54963094Y-559500D01*
X54959398Y-559500D01*
X54959398Y-558923D01*
X54896085Y-549049D01*
X54843830Y-502668D01*
X54824946Y-435399D01*
X54829161Y-404788D01*
X54840500Y-362475D01*
X54840500Y-217525D01*
X54802984Y-77515D01*
X54802982Y-77511D01*
X54799454Y-71400D01*
X54799453Y-71399D01*
X54794051Y-62044D01*
X54768348Y-17525D01*
X55619500Y-17525D01*
X55619500Y-162475D01*
X55651959Y-283611D01*
X55657017Y-302488D01*
X55729488Y-428011D01*
X55729490Y-428013D01*
X55729491Y-428015D01*
X55831985Y-530509D01*
X55831986Y-530510D01*
X55831988Y-530511D01*
X55957511Y-602982D01*
X55957512Y-602982D01*
X55957515Y-602984D01*
X56097525Y-640500D01*
X56097528Y-640500D01*
X56242472Y-640500D01*
X56242475Y-640500D01*
X56382485Y-602984D01*
X56508015Y-530509D01*
X56610509Y-428015D01*
X56682984Y-302485D01*
X56720500Y-162475D01*
X56720500Y-67525D01*
X59449500Y-67525D01*
X59449500Y-212475D01*
X59475498Y-309500D01*
X59487017Y-352488D01*
X59559488Y-478011D01*
X59559490Y-478013D01*
X59559491Y-478015D01*
X59661985Y-580509D01*
X59661986Y-580510D01*
X59661988Y-580511D01*
X59787511Y-652982D01*
X59787512Y-652982D01*
X59787515Y-652984D01*
X59927525Y-690500D01*
X59927528Y-690500D01*
X60072472Y-690500D01*
X60072475Y-690500D01*
X60212485Y-652984D01*
X60338015Y-580509D01*
X60440509Y-478015D01*
X60512984Y-352485D01*
X60550500Y-212475D01*
X60550500Y-87525D01*
X70609500Y-87525D01*
X70609500Y-232475D01*
X70647016Y-372485D01*
X70647017Y-372488D01*
X70719488Y-498011D01*
X70719490Y-498013D01*
X70719491Y-498015D01*
X70821985Y-600509D01*
X70821986Y-600510D01*
X70821988Y-600511D01*
X70947511Y-672982D01*
X70947512Y-672982D01*
X70947515Y-672984D01*
X71087525Y-710500D01*
X71087528Y-710500D01*
X71232472Y-710500D01*
X71232475Y-710500D01*
X71372485Y-672984D01*
X71498015Y-600509D01*
X71600509Y-498015D01*
X71672984Y-372485D01*
X71710500Y-232475D01*
X71710500Y-87525D01*
X71709820Y-84989D01*
X75908100Y-84989D01*
X75908100Y-258210D01*
X75934994Y-428017D01*
X75935198Y-429301D01*
X75988727Y-594045D01*
X76067368Y-748388D01*
X76169186Y-888528D01*
X76291672Y-1011014D01*
X76431812Y-1112832D01*
X76586155Y-1191473D01*
X76750899Y-1245002D01*
X76921989Y-1272100D01*
X76921990Y-1272100D01*
X77095210Y-1272100D01*
X77095211Y-1272100D01*
X77266301Y-1245002D01*
X77431045Y-1191473D01*
X77585388Y-1112832D01*
X77725528Y-1011014D01*
X77848014Y-888528D01*
X77949832Y-748388D01*
X78028473Y-594045D01*
X78082002Y-429301D01*
X78109100Y-258211D01*
X78109100Y-84989D01*
X78082002Y86101D01*
X78028473Y250845D01*
X77949832Y405188D01*
X77848014Y545328D01*
X77725528Y667814D01*
X77585388Y769632D01*
X77431045Y848273D01*
X77266301Y901802D01*
X77266299Y901803D01*
X77266298Y901803D01*
X77134871Y922619D01*
X77095211Y928900D01*
X76921989Y928900D01*
X76882328Y922619D01*
X76750902Y901803D01*
X76586152Y848272D01*
X76431811Y769632D01*
X76351856Y711541D01*
X76291672Y667814D01*
X76291670Y667812D01*
X76291669Y667812D01*
X76169188Y545331D01*
X76169188Y545330D01*
X76169186Y545328D01*
X76150732Y519928D01*
X76067368Y405189D01*
X75988728Y250848D01*
X75988727Y250846D01*
X75988727Y250845D01*
X75980475Y225448D01*
X75935197Y86098D01*
X75908100Y-84989D01*
X71709820Y-84989D01*
X71672984Y52485D01*
X71668242Y60698D01*
X71600511Y178012D01*
X71600506Y178018D01*
X71498017Y280507D01*
X71498011Y280512D01*
X71372488Y352983D01*
X71372489Y352983D01*
X71361006Y356060D01*
X71232475Y390500D01*
X71087525Y390500D01*
X70958993Y356060D01*
X70947511Y352983D01*
X70821988Y280512D01*
X70821982Y280507D01*
X70719493Y178018D01*
X70719488Y178012D01*
X70647017Y52489D01*
X70647016Y52485D01*
X70609500Y-87525D01*
X60550500Y-87525D01*
X60550500Y-67525D01*
X60512984Y72485D01*
X60484116Y122485D01*
X60440511Y198012D01*
X60440506Y198018D01*
X60338017Y300507D01*
X60338011Y300512D01*
X60212488Y372983D01*
X60212489Y372983D01*
X60187092Y379788D01*
X60072475Y410500D01*
X59927525Y410500D01*
X59812908Y379788D01*
X59787511Y372983D01*
X59661988Y300512D01*
X59661982Y300507D01*
X59559493Y198018D01*
X59559488Y198012D01*
X59487017Y72489D01*
X59487016Y72485D01*
X59449500Y-67525D01*
X56720500Y-67525D01*
X56720500Y-17525D01*
X56682984Y122485D01*
X56666805Y150507D01*
X56610511Y248012D01*
X56610506Y248018D01*
X56508017Y350507D01*
X56508011Y350512D01*
X56382488Y422983D01*
X56382489Y422983D01*
X56363698Y428018D01*
X56242475Y460500D01*
X56097525Y460500D01*
X55976302Y428018D01*
X55957511Y422983D01*
X55831988Y350512D01*
X55831982Y350507D01*
X55729493Y248018D01*
X55729488Y248012D01*
X55657017Y122489D01*
X55657016Y122485D01*
X55619500Y-17525D01*
X54768348Y-17525D01*
X54730509Y48015D01*
X54628015Y150509D01*
X54628013Y150510D01*
X54628011Y150512D01*
X54502488Y222983D01*
X54502489Y222983D01*
X54491006Y226060D01*
X54362475Y260500D01*
X54217525Y260500D01*
X54088993Y226060D01*
X54077511Y222983D01*
X53951988Y150512D01*
X53951982Y150507D01*
X53849493Y48018D01*
X53849488Y48012D01*
X53777017Y-77511D01*
X53777016Y-77515D01*
X53739500Y-217525D01*
X52138112Y-217525D01*
X52192984Y-122485D01*
X52230500Y17525D01*
X52230500Y162475D01*
X52192984Y302485D01*
X52165258Y350507D01*
X52120511Y428012D01*
X52120506Y428018D01*
X52018017Y530507D01*
X52018011Y530512D01*
X51892488Y602983D01*
X51892489Y602983D01*
X51881006Y606060D01*
X51752475Y640500D01*
X51607525Y640500D01*
X51478993Y606060D01*
X51467511Y602983D01*
X51341988Y530512D01*
X51341982Y530507D01*
X51239493Y428018D01*
X51239488Y428012D01*
X51167017Y302489D01*
X51164202Y291983D01*
X51129500Y162475D01*
X48231222Y162475D01*
X48278015Y189491D01*
X48380509Y291985D01*
X48452984Y417515D01*
X48490500Y557525D01*
X48490500Y702475D01*
X48452984Y842485D01*
X48449642Y848273D01*
X48380511Y968012D01*
X48380506Y968018D01*
X48278017Y1070507D01*
X48278011Y1070512D01*
X48152488Y1142983D01*
X48152489Y1142983D01*
X48141006Y1146060D01*
X48012475Y1180500D01*
X47867525Y1180500D01*
X47738993Y1146060D01*
X47727511Y1142983D01*
X47601988Y1070512D01*
X47601982Y1070507D01*
X47499493Y968018D01*
X47499488Y968012D01*
X47427017Y842489D01*
X47427016Y842485D01*
X47389500Y702475D01*
X29357461Y702475D01*
X29299988Y744232D01*
X29145645Y822873D01*
X28980901Y876402D01*
X28980899Y876403D01*
X28980898Y876403D01*
X28849471Y897219D01*
X28809811Y903500D01*
X28636589Y903500D01*
X28596928Y897219D01*
X28465502Y876403D01*
X28300752Y822872D01*
X28146411Y744232D01*
X28088936Y702473D01*
X28006272Y642414D01*
X28006270Y642412D01*
X28006269Y642412D01*
X27883788Y519931D01*
X27883788Y519930D01*
X27883786Y519928D01*
X27840609Y460500D01*
X27781968Y379789D01*
X27703328Y225448D01*
X27649797Y60698D01*
X27622700Y-110389D01*
X23590500Y-110389D01*
X23590500Y2429611D01*
X27622700Y2429611D01*
X27622700Y2256390D01*
X27649052Y2090004D01*
X27649798Y2085299D01*
X27703327Y1920555D01*
X27781968Y1766212D01*
X27883786Y1626072D01*
X28006272Y1503586D01*
X28146412Y1401768D01*
X28300755Y1323127D01*
X28465499Y1269598D01*
X28636589Y1242500D01*
X28636590Y1242500D01*
X28809810Y1242500D01*
X28809811Y1242500D01*
X28980901Y1269598D01*
X29145645Y1323127D01*
X29299988Y1401768D01*
X29440128Y1503586D01*
X29562614Y1626072D01*
X29664432Y1766212D01*
X29743073Y1920555D01*
X29789186Y2062475D01*
X70849500Y2062475D01*
X70849500Y1917525D01*
X70883239Y1791612D01*
X70887017Y1777512D01*
X70959488Y1651989D01*
X70959490Y1651987D01*
X70959491Y1651985D01*
X71061985Y1549491D01*
X71061986Y1549490D01*
X71061988Y1549489D01*
X71187511Y1477018D01*
X71187512Y1477018D01*
X71187515Y1477016D01*
X71327525Y1439500D01*
X71327528Y1439500D01*
X71472472Y1439500D01*
X71472475Y1439500D01*
X71612485Y1477016D01*
X71738015Y1549491D01*
X71840509Y1651985D01*
X71912984Y1777515D01*
X71950500Y1917525D01*
X71950500Y2062475D01*
X71912984Y2202485D01*
X71881862Y2256389D01*
X71840511Y2328012D01*
X71840506Y2328018D01*
X71738017Y2430507D01*
X71738011Y2430512D01*
X71695578Y2455011D01*
X75908100Y2455011D01*
X75908100Y2281790D01*
X75920660Y2202485D01*
X75935198Y2110699D01*
X75988727Y1945955D01*
X76067368Y1791612D01*
X76169186Y1651472D01*
X76291672Y1528986D01*
X76431812Y1427168D01*
X76586155Y1348527D01*
X76750899Y1294998D01*
X76921989Y1267900D01*
X76921990Y1267900D01*
X77095210Y1267900D01*
X77095211Y1267900D01*
X77266301Y1294998D01*
X77431045Y1348527D01*
X77585388Y1427168D01*
X77725528Y1528986D01*
X77848014Y1651472D01*
X77949832Y1791612D01*
X78028473Y1945955D01*
X78082002Y2110699D01*
X78109100Y2281789D01*
X78109100Y2455011D01*
X78082002Y2626101D01*
X78028473Y2790845D01*
X77949832Y2945188D01*
X77848014Y3085328D01*
X77725528Y3207814D01*
X77585388Y3309632D01*
X77431045Y3388273D01*
X77266301Y3441802D01*
X77266299Y3441803D01*
X77266298Y3441803D01*
X77134871Y3462619D01*
X77095211Y3468900D01*
X76921989Y3468900D01*
X76882328Y3462619D01*
X76750902Y3441803D01*
X76586152Y3388272D01*
X76431811Y3309632D01*
X76351856Y3251541D01*
X76291672Y3207814D01*
X76291670Y3207812D01*
X76291669Y3207812D01*
X76169188Y3085331D01*
X76169188Y3085330D01*
X76169186Y3085328D01*
X76150732Y3059928D01*
X76067368Y2945189D01*
X75988728Y2790848D01*
X75935197Y2626098D01*
X75908100Y2455011D01*
X71695578Y2455011D01*
X71612488Y2502983D01*
X71612489Y2502983D01*
X71601006Y2506060D01*
X71472475Y2540500D01*
X71327525Y2540500D01*
X71198993Y2506060D01*
X71187511Y2502983D01*
X71061988Y2430512D01*
X71061982Y2430507D01*
X70959493Y2328018D01*
X70959488Y2328012D01*
X70887017Y2202489D01*
X70887016Y2202485D01*
X70849500Y2062475D01*
X29789186Y2062475D01*
X29796602Y2085299D01*
X29815163Y2202485D01*
X29823700Y2256389D01*
X29823700Y2429611D01*
X29806137Y2540500D01*
X29796602Y2600701D01*
X29743073Y2765445D01*
X29664432Y2919788D01*
X29619232Y2982000D01*
X51389500Y2982000D01*
X51389500Y2837050D01*
X51401881Y2790845D01*
X51427017Y2697037D01*
X51499488Y2571514D01*
X51499490Y2571512D01*
X51499491Y2571510D01*
X51601985Y2469016D01*
X51601986Y2469015D01*
X51601988Y2469014D01*
X51727511Y2396543D01*
X51727512Y2396543D01*
X51727515Y2396541D01*
X51867525Y2359025D01*
X51867528Y2359025D01*
X52012472Y2359025D01*
X52012475Y2359025D01*
X52152485Y2396541D01*
X52278015Y2469016D01*
X52380509Y2571510D01*
X52452984Y2697040D01*
X52490500Y2837050D01*
X52490500Y2982000D01*
X52452984Y3122010D01*
X52380509Y3247540D01*
X52278015Y3350034D01*
X52278013Y3350035D01*
X52278011Y3350037D01*
X52152488Y3422508D01*
X52152489Y3422508D01*
X52141006Y3425585D01*
X52012475Y3460025D01*
X51867525Y3460025D01*
X51738993Y3425585D01*
X51727511Y3422508D01*
X51601988Y3350037D01*
X51601982Y3350032D01*
X51499493Y3247543D01*
X51499488Y3247537D01*
X51427017Y3122014D01*
X51427016Y3122010D01*
X51389500Y2982000D01*
X29619232Y2982000D01*
X29562614Y3059928D01*
X29440128Y3182414D01*
X29299988Y3284232D01*
X29145645Y3362873D01*
X28980901Y3416402D01*
X28980899Y3416403D01*
X28980898Y3416403D01*
X28849471Y3437219D01*
X28809811Y3443500D01*
X28636589Y3443500D01*
X28596928Y3437219D01*
X28465502Y3416403D01*
X28300752Y3362872D01*
X28146411Y3284232D01*
X28066456Y3226141D01*
X28006272Y3182414D01*
X28006270Y3182412D01*
X28006269Y3182412D01*
X27883788Y3059931D01*
X27883788Y3059930D01*
X27883786Y3059928D01*
X27840059Y2999744D01*
X27781968Y2919789D01*
X27703328Y2765448D01*
X27649797Y2600698D01*
X27622700Y2429611D01*
X23590500Y2429611D01*
X23590500Y4969611D01*
X27622700Y4969611D01*
X27622700Y4796389D01*
X27649798Y4625299D01*
X27703327Y4460555D01*
X27781968Y4306212D01*
X27883786Y4166072D01*
X28006272Y4043586D01*
X28146412Y3941768D01*
X28300755Y3863127D01*
X28465499Y3809598D01*
X28636589Y3782500D01*
X28636590Y3782500D01*
X28809810Y3782500D01*
X28809811Y3782500D01*
X28980901Y3809598D01*
X29145645Y3863127D01*
X29299988Y3941768D01*
X29440128Y4043586D01*
X29562614Y4166072D01*
X29664432Y4306212D01*
X29743073Y4460555D01*
X29796602Y4625299D01*
X29823700Y4796389D01*
X29823700Y4969611D01*
X29819677Y4995011D01*
X75908100Y4995011D01*
X75908100Y4821789D01*
X75935198Y4650699D01*
X75988727Y4485955D01*
X76067368Y4331612D01*
X76169186Y4191472D01*
X76291672Y4068986D01*
X76431812Y3967168D01*
X76586155Y3888527D01*
X76750899Y3834998D01*
X76921989Y3807900D01*
X76921990Y3807900D01*
X77095210Y3807900D01*
X77095211Y3807900D01*
X77266301Y3834998D01*
X77431045Y3888527D01*
X77585388Y3967168D01*
X77725528Y4068986D01*
X77848014Y4191472D01*
X77949832Y4331612D01*
X78028473Y4485955D01*
X78082002Y4650699D01*
X78109100Y4821789D01*
X78109100Y4995011D01*
X78082002Y5166101D01*
X78028473Y5330845D01*
X77949832Y5485188D01*
X77848014Y5625328D01*
X77725528Y5747814D01*
X77585388Y5849632D01*
X77431045Y5928273D01*
X77266301Y5981802D01*
X77266299Y5981803D01*
X77266298Y5981803D01*
X77134871Y6002619D01*
X77095211Y6008900D01*
X76921989Y6008900D01*
X76882328Y6002619D01*
X76750902Y5981803D01*
X76586152Y5928272D01*
X76431811Y5849632D01*
X76351856Y5791541D01*
X76291672Y5747814D01*
X76291670Y5747812D01*
X76291669Y5747812D01*
X76169188Y5625331D01*
X76169188Y5625330D01*
X76169186Y5625328D01*
X76150732Y5599928D01*
X76067368Y5485189D01*
X75988728Y5330848D01*
X75935197Y5166098D01*
X75908100Y4995011D01*
X29819677Y4995011D01*
X29796602Y5140701D01*
X29743073Y5305445D01*
X29664432Y5459788D01*
X29562614Y5599928D01*
X29440128Y5722414D01*
X29299988Y5824232D01*
X29145645Y5902873D01*
X28980901Y5956402D01*
X28980899Y5956403D01*
X28980898Y5956403D01*
X28849471Y5977219D01*
X28809811Y5983500D01*
X28636589Y5983500D01*
X28596928Y5977219D01*
X28465502Y5956403D01*
X28300752Y5902872D01*
X28146411Y5824232D01*
X28066456Y5766141D01*
X28006272Y5722414D01*
X28006270Y5722412D01*
X28006269Y5722412D01*
X27883788Y5599931D01*
X27883788Y5599930D01*
X27883786Y5599928D01*
X27840059Y5539744D01*
X27781968Y5459789D01*
X27703328Y5305448D01*
X27649797Y5140698D01*
X27626723Y4995011D01*
X27622700Y4969611D01*
X23590500Y4969611D01*
X23590500Y7509611D01*
X27622700Y7509611D01*
X27622700Y7336390D01*
X27647550Y7179489D01*
X27649798Y7165299D01*
X27703327Y7000555D01*
X27781968Y6846212D01*
X27883786Y6706072D01*
X28006272Y6583586D01*
X28146412Y6481768D01*
X28300755Y6403127D01*
X28465499Y6349598D01*
X28636589Y6322500D01*
X28636590Y6322500D01*
X28809810Y6322500D01*
X28809811Y6322500D01*
X28980901Y6349598D01*
X29145645Y6403127D01*
X29299988Y6481768D01*
X29440128Y6583586D01*
X29562614Y6706072D01*
X29664432Y6846212D01*
X29743073Y7000555D01*
X29796602Y7165299D01*
X29823700Y7336389D01*
X29823700Y7509611D01*
X29796602Y7680701D01*
X29792776Y7692475D01*
X33319500Y7692475D01*
X33319500Y7547525D01*
X33357016Y7407515D01*
X33357017Y7407512D01*
X33429488Y7281989D01*
X33429490Y7281987D01*
X33429491Y7281985D01*
X33531985Y7179491D01*
X33531986Y7179490D01*
X33531988Y7179489D01*
X33657511Y7107018D01*
X33657512Y7107018D01*
X33657515Y7107016D01*
X33797525Y7069500D01*
X33797528Y7069500D01*
X33942472Y7069500D01*
X33942475Y7069500D01*
X34082485Y7107016D01*
X34208015Y7179491D01*
X34310509Y7281985D01*
X34382984Y7407515D01*
X34417147Y7535011D01*
X75908100Y7535011D01*
X75908100Y7361789D01*
X75935198Y7190699D01*
X75988727Y7025955D01*
X76067368Y6871612D01*
X76169186Y6731472D01*
X76291672Y6608986D01*
X76431812Y6507168D01*
X76586155Y6428527D01*
X76750899Y6374998D01*
X76921989Y6347900D01*
X76921990Y6347900D01*
X77095210Y6347900D01*
X77095211Y6347900D01*
X77266301Y6374998D01*
X77431045Y6428527D01*
X77585388Y6507168D01*
X77725528Y6608986D01*
X77848014Y6731472D01*
X77949832Y6871612D01*
X78028473Y7025955D01*
X78082002Y7190699D01*
X78109100Y7361789D01*
X78109100Y7535011D01*
X78082002Y7706101D01*
X78028473Y7870845D01*
X77949832Y8025188D01*
X77848014Y8165328D01*
X77725528Y8287814D01*
X77585388Y8389632D01*
X77431045Y8468273D01*
X77266301Y8521802D01*
X77266299Y8521803D01*
X77266298Y8521803D01*
X77134871Y8542619D01*
X77095211Y8548900D01*
X76921989Y8548900D01*
X76882328Y8542619D01*
X76750902Y8521803D01*
X76586152Y8468272D01*
X76431811Y8389632D01*
X76351856Y8331541D01*
X76291672Y8287814D01*
X76291670Y8287812D01*
X76291669Y8287812D01*
X76169188Y8165331D01*
X76169188Y8165330D01*
X76169186Y8165328D01*
X76150732Y8139928D01*
X76067368Y8025189D01*
X75988728Y7870848D01*
X75935197Y7706098D01*
X75910082Y7547528D01*
X75908100Y7535011D01*
X34417147Y7535011D01*
X34420500Y7547525D01*
X34420500Y7692475D01*
X34382984Y7832485D01*
X34310509Y7958015D01*
X34208015Y8060509D01*
X34208013Y8060510D01*
X34208011Y8060512D01*
X34082488Y8132983D01*
X34082489Y8132983D01*
X34056562Y8139930D01*
X33942475Y8170500D01*
X33797525Y8170500D01*
X33683438Y8139930D01*
X33657511Y8132983D01*
X33531988Y8060512D01*
X33531982Y8060507D01*
X33429493Y7958018D01*
X33429488Y7958012D01*
X33357017Y7832489D01*
X33357016Y7832485D01*
X33319500Y7692475D01*
X29792776Y7692475D01*
X29743073Y7845445D01*
X29664432Y7999788D01*
X29562614Y8139928D01*
X29440128Y8262414D01*
X29299988Y8364232D01*
X29145645Y8442873D01*
X28980901Y8496402D01*
X28980899Y8496403D01*
X28980898Y8496403D01*
X28849471Y8517219D01*
X28809811Y8523500D01*
X28636589Y8523500D01*
X28596928Y8517219D01*
X28465502Y8496403D01*
X28300752Y8442872D01*
X28146411Y8364232D01*
X28066456Y8306141D01*
X28006272Y8262414D01*
X28006270Y8262412D01*
X28006269Y8262412D01*
X27883788Y8139931D01*
X27883788Y8139930D01*
X27883786Y8139928D01*
X27840059Y8079744D01*
X27781968Y7999789D01*
X27703328Y7845448D01*
X27649797Y7680698D01*
X27622700Y7509611D01*
X23590500Y7509611D01*
X23590500Y10049611D01*
X27622700Y10049611D01*
X27622700Y9876390D01*
X27649797Y9705303D01*
X27649797Y9705301D01*
X27649798Y9705299D01*
X27703327Y9540555D01*
X27781968Y9386212D01*
X27883786Y9246072D01*
X28006272Y9123586D01*
X28146412Y9021768D01*
X28300755Y8943127D01*
X28465499Y8889598D01*
X28636589Y8862500D01*
X28636590Y8862500D01*
X28809810Y8862500D01*
X28809811Y8862500D01*
X28980901Y8889598D01*
X29145645Y8943127D01*
X29299988Y9021768D01*
X29440128Y9123586D01*
X29562614Y9246072D01*
X29664432Y9386212D01*
X29743073Y9540555D01*
X29743697Y9542475D01*
X44159500Y9542475D01*
X44159500Y9397525D01*
X44197016Y9257515D01*
X44197017Y9257512D01*
X44269488Y9131989D01*
X44269490Y9131987D01*
X44269491Y9131985D01*
X44371985Y9029491D01*
X44371986Y9029490D01*
X44371988Y9029489D01*
X44497511Y8957018D01*
X44497512Y8957018D01*
X44497515Y8957016D01*
X44637525Y8919500D01*
X44637528Y8919500D01*
X44782472Y8919500D01*
X44782475Y8919500D01*
X44922485Y8957016D01*
X45048015Y9029491D01*
X45150509Y9131985D01*
X45222984Y9257515D01*
X45260500Y9397525D01*
X45260500Y9542475D01*
X45222984Y9682485D01*
X45209812Y9705299D01*
X45150511Y9808012D01*
X45150506Y9808018D01*
X45048017Y9910507D01*
X45048015Y9910509D01*
X44922485Y9982984D01*
X44782475Y10020500D01*
X44637525Y10020500D01*
X44508993Y9986060D01*
X44497511Y9982983D01*
X44371988Y9910512D01*
X44371982Y9910507D01*
X44269493Y9808018D01*
X44269488Y9808012D01*
X44197017Y9682489D01*
X44197016Y9682485D01*
X44159500Y9542475D01*
X29743697Y9542475D01*
X29796602Y9705299D01*
X29823700Y9876389D01*
X29823700Y10032475D01*
X56639500Y10032475D01*
X56639500Y9887525D01*
X56660805Y9808015D01*
X56677017Y9747512D01*
X56749488Y9621989D01*
X56749490Y9621987D01*
X56749491Y9621985D01*
X56851985Y9519491D01*
X56851986Y9519490D01*
X56851988Y9519489D01*
X56977511Y9447018D01*
X56977512Y9447018D01*
X56977515Y9447016D01*
X57117525Y9409500D01*
X57117528Y9409500D01*
X57262472Y9409500D01*
X57262475Y9409500D01*
X57402485Y9447016D01*
X57528015Y9519491D01*
X57630509Y9621985D01*
X57702984Y9747515D01*
X57740500Y9887525D01*
X57740500Y10032475D01*
X57702984Y10172485D01*
X57675146Y10220701D01*
X57630511Y10298012D01*
X57630506Y10298018D01*
X57528017Y10400507D01*
X57528015Y10400509D01*
X57506006Y10413216D01*
X57506005Y10413217D01*
X57402488Y10472983D01*
X57402489Y10472983D01*
X57391006Y10476060D01*
X57262475Y10510500D01*
X57117525Y10510500D01*
X56988993Y10476060D01*
X56977511Y10472983D01*
X56851988Y10400512D01*
X56851982Y10400507D01*
X56749493Y10298018D01*
X56749488Y10298012D01*
X56677017Y10172489D01*
X56677016Y10172485D01*
X56639500Y10032475D01*
X29823700Y10032475D01*
X29823700Y10049611D01*
X29796602Y10220701D01*
X29743073Y10385445D01*
X29678349Y10512475D01*
X60609500Y10512475D01*
X60609500Y10367525D01*
X60629097Y10294389D01*
X60647017Y10227512D01*
X60719488Y10101989D01*
X60719490Y10101987D01*
X60719491Y10101985D01*
X60821985Y9999491D01*
X60821986Y9999490D01*
X60821988Y9999489D01*
X60947511Y9927018D01*
X60947512Y9927018D01*
X60947515Y9927016D01*
X61087525Y9889500D01*
X61087528Y9889500D01*
X61232472Y9889500D01*
X61232475Y9889500D01*
X61372485Y9927016D01*
X61498015Y9999491D01*
X61600509Y10101985D01*
X61672984Y10227515D01*
X61710500Y10367525D01*
X61710500Y10512475D01*
X61672984Y10652485D01*
X61667245Y10662425D01*
X61605944Y10768602D01*
X61604069Y10771848D01*
X61600509Y10778015D01*
X61556049Y10822475D01*
X78659500Y10822475D01*
X78659500Y10677525D01*
X78696407Y10539789D01*
X78697017Y10537512D01*
X78769488Y10411989D01*
X78769490Y10411987D01*
X78769491Y10411985D01*
X78871985Y10309491D01*
X78871986Y10309490D01*
X78871988Y10309489D01*
X78997511Y10237018D01*
X78997512Y10237018D01*
X78997515Y10237016D01*
X79137525Y10199500D01*
X79137528Y10199500D01*
X79282472Y10199500D01*
X79282475Y10199500D01*
X79422485Y10237016D01*
X79548015Y10309491D01*
X79650509Y10411985D01*
X79650509Y10411986D01*
X79656256Y10417732D01*
X79657648Y10416340D01*
X79705419Y10451237D01*
X79775164Y10455407D01*
X79836092Y10421208D01*
X79849643Y10403334D01*
X79854589Y10396888D01*
X79854591Y10396885D01*
X79957085Y10294391D01*
X79957086Y10294390D01*
X79957088Y10294389D01*
X80082611Y10221918D01*
X80082612Y10221918D01*
X80082615Y10221916D01*
X80222625Y10184400D01*
X80222628Y10184400D01*
X80367572Y10184400D01*
X80367575Y10184400D01*
X80507585Y10221916D01*
X80633115Y10294391D01*
X80735609Y10396885D01*
X80808084Y10522415D01*
X80845600Y10662425D01*
X80845600Y10807375D01*
X80808084Y10947385D01*
X80804851Y10952984D01*
X80735611Y11072912D01*
X80735606Y11072918D01*
X80633117Y11175407D01*
X80633111Y11175412D01*
X80507588Y11247883D01*
X80507589Y11247883D01*
X80496106Y11250960D01*
X80367575Y11285400D01*
X80222625Y11285400D01*
X80094093Y11250960D01*
X80082611Y11247883D01*
X79957088Y11175412D01*
X79957082Y11175407D01*
X79848844Y11067168D01*
X79847454Y11068558D01*
X79799651Y11033654D01*
X79729905Y11029501D01*
X79668985Y11063715D01*
X79655372Y11081677D01*
X79650511Y11088012D01*
X79650509Y11088015D01*
X79548015Y11190509D01*
X79548013Y11190510D01*
X79548011Y11190512D01*
X79422488Y11262983D01*
X79422489Y11262983D01*
X79411006Y11266060D01*
X79282475Y11300500D01*
X79137525Y11300500D01*
X79008993Y11266060D01*
X78997511Y11262983D01*
X78871988Y11190512D01*
X78871982Y11190507D01*
X78769493Y11088018D01*
X78769488Y11088012D01*
X78697017Y10962489D01*
X78697016Y10962485D01*
X78659500Y10822475D01*
X61556049Y10822475D01*
X61498015Y10880509D01*
X61498013Y10880510D01*
X61498011Y10880512D01*
X61372488Y10952983D01*
X61372489Y10952983D01*
X61337012Y10962489D01*
X61232475Y10990500D01*
X61087525Y10990500D01*
X60982988Y10962489D01*
X60947511Y10952983D01*
X60821988Y10880512D01*
X60821982Y10880507D01*
X60719493Y10778018D01*
X60719488Y10778012D01*
X60647017Y10652489D01*
X60647016Y10652485D01*
X60609500Y10512475D01*
X29678349Y10512475D01*
X29664432Y10539788D01*
X29562614Y10679928D01*
X29440128Y10802414D01*
X29299988Y10904232D01*
X29145645Y10982873D01*
X28980901Y11036402D01*
X28980899Y11036403D01*
X28980898Y11036403D01*
X28849471Y11057219D01*
X28809811Y11063500D01*
X28636589Y11063500D01*
X28596928Y11057219D01*
X28465502Y11036403D01*
X28300752Y10982872D01*
X28146411Y10904232D01*
X28113764Y10880512D01*
X28006272Y10802414D01*
X28006270Y10802412D01*
X28006269Y10802412D01*
X27883788Y10679931D01*
X27883788Y10679930D01*
X27883786Y10679928D01*
X27854999Y10640306D01*
X27781968Y10539789D01*
X27703328Y10385448D01*
X27649797Y10220698D01*
X27622700Y10049611D01*
X23590500Y10049611D01*
X23590500Y12589611D01*
X27622700Y12589611D01*
X27622700Y12416389D01*
X27649798Y12245299D01*
X27703327Y12080555D01*
X27781968Y11926212D01*
X27883786Y11786072D01*
X28006272Y11663586D01*
X28146412Y11561768D01*
X28300755Y11483127D01*
X28465499Y11429598D01*
X28636589Y11402500D01*
X28636590Y11402500D01*
X28809810Y11402500D01*
X28809811Y11402500D01*
X28980901Y11429598D01*
X29145645Y11483127D01*
X29299988Y11561768D01*
X29440128Y11663586D01*
X29562614Y11786072D01*
X29664432Y11926212D01*
X29743073Y12080555D01*
X29796602Y12245299D01*
X29823700Y12416389D01*
X29823700Y12589611D01*
X29796602Y12760701D01*
X29743073Y12925445D01*
X29664432Y13079788D01*
X29562614Y13219928D01*
X29440128Y13342414D01*
X29299988Y13444232D01*
X29145645Y13522873D01*
X28980901Y13576402D01*
X28980899Y13576403D01*
X28980898Y13576403D01*
X28849471Y13597219D01*
X28809811Y13603500D01*
X28636589Y13603500D01*
X28596928Y13597219D01*
X28465502Y13576403D01*
X28300752Y13522872D01*
X28146411Y13444232D01*
X28066456Y13386141D01*
X28006272Y13342414D01*
X28006270Y13342412D01*
X28006269Y13342412D01*
X27883788Y13219931D01*
X27883788Y13219930D01*
X27883786Y13219928D01*
X27840059Y13159744D01*
X27781968Y13079789D01*
X27703328Y12925448D01*
X27649797Y12760698D01*
X27622700Y12589611D01*
X23590500Y12589611D01*
X23590500Y15472475D01*
X49469500Y15472475D01*
X49469500Y15327525D01*
X49504369Y15197394D01*
X49507017Y15187512D01*
X49579488Y15061989D01*
X49579490Y15061987D01*
X49579491Y15061985D01*
X49681985Y14959491D01*
X49681986Y14959490D01*
X49681988Y14959489D01*
X49807511Y14887018D01*
X49807512Y14887018D01*
X49807515Y14887016D01*
X49947525Y14849500D01*
X49947528Y14849500D01*
X50092472Y14849500D01*
X50092475Y14849500D01*
X50232485Y14887016D01*
X50358015Y14959491D01*
X50460509Y15061985D01*
X50496746Y15124750D01*
X50532982Y15187511D01*
X50532982Y15187513D01*
X50532984Y15187515D01*
X50570500Y15327525D01*
X50570500Y15472475D01*
X50532984Y15612485D01*
X50460509Y15738015D01*
X50358015Y15840509D01*
X50358013Y15840510D01*
X50358011Y15840512D01*
X50232488Y15912983D01*
X50232489Y15912983D01*
X50221006Y15916060D01*
X50092475Y15950500D01*
X49947525Y15950500D01*
X49818993Y15916060D01*
X49807511Y15912983D01*
X49681988Y15840512D01*
X49681982Y15840507D01*
X49579493Y15738018D01*
X49579488Y15738012D01*
X49507017Y15612489D01*
X49507016Y15612485D01*
X49469500Y15472475D01*
X23590500Y15472475D01*
X23590500Y16704411D01*
X27622700Y16704411D01*
X27622700Y16531190D01*
X27639758Y16423485D01*
X27649798Y16360099D01*
X27703327Y16195355D01*
X27781968Y16041012D01*
X27883786Y15900872D01*
X28006272Y15778386D01*
X28146412Y15676568D01*
X28300755Y15597927D01*
X28465499Y15544398D01*
X28636589Y15517300D01*
X28636590Y15517300D01*
X28809810Y15517300D01*
X28809811Y15517300D01*
X28980901Y15544398D01*
X29145645Y15597927D01*
X29299988Y15676568D01*
X29440128Y15778386D01*
X29562614Y15900872D01*
X29664432Y16041012D01*
X29743073Y16195355D01*
X29796602Y16360099D01*
X29823700Y16531189D01*
X29823700Y16704411D01*
X29796602Y16875501D01*
X29743073Y17040245D01*
X29664432Y17194588D01*
X29562614Y17334728D01*
X29440128Y17457214D01*
X29370058Y17508123D01*
X29299986Y17559034D01*
X29259427Y17579699D01*
X29259426Y17579699D01*
X29252949Y17582999D01*
X29145645Y17637673D01*
X28999010Y17685318D01*
X75708600Y17685318D01*
X75708600Y17480683D01*
X75740609Y17278583D01*
X75803844Y17083969D01*
X75896741Y16901650D01*
X75896747Y16901641D01*
X75929123Y16857079D01*
X75929124Y16857078D01*
X76608600Y17536554D01*
X76608600Y17530339D01*
X76635859Y17428606D01*
X76688520Y17337394D01*
X76762994Y17262920D01*
X76854206Y17210259D01*
X76955939Y17183000D01*
X76962153Y17183000D01*
X76282676Y16503526D01*
X76327250Y16471141D01*
X76420780Y16423485D01*
X76471576Y16375511D01*
X76488371Y16307690D01*
X76465834Y16241555D01*
X76420780Y16202515D01*
X76327244Y16154857D01*
X76282677Y16122477D01*
X76282677Y16122476D01*
X76962154Y15443000D01*
X76955939Y15443000D01*
X76854206Y15415741D01*
X76762994Y15363080D01*
X76688520Y15288606D01*
X76635859Y15197394D01*
X76608600Y15095661D01*
X76608600Y15089447D01*
X75929124Y15768923D01*
X75929123Y15768923D01*
X75896743Y15724356D01*
X75803844Y15542032D01*
X75740609Y15347418D01*
X75708600Y15145318D01*
X75708600Y14940683D01*
X75740609Y14738583D01*
X75803844Y14543969D01*
X75896741Y14361650D01*
X75896747Y14361641D01*
X75929123Y14317079D01*
X75929124Y14317078D01*
X76608600Y14996554D01*
X76608600Y14990339D01*
X76635859Y14888606D01*
X76688520Y14797394D01*
X76762994Y14722920D01*
X76854206Y14670259D01*
X76955939Y14643000D01*
X76962153Y14643000D01*
X76282676Y13963526D01*
X76327250Y13931141D01*
X76509570Y13838245D01*
X76670213Y13786048D01*
X76727889Y13746610D01*
X76755087Y13682252D01*
X76743172Y13613405D01*
X76695928Y13561930D01*
X76670215Y13550186D01*
X76586149Y13522871D01*
X76431811Y13444232D01*
X76351856Y13386141D01*
X76291672Y13342414D01*
X76291670Y13342412D01*
X76291669Y13342412D01*
X76169188Y13219931D01*
X76169188Y13219930D01*
X76169186Y13219928D01*
X76125459Y13159744D01*
X76067368Y13079789D01*
X75988728Y12925448D01*
X75935197Y12760698D01*
X75908100Y12589611D01*
X75908100Y12416389D01*
X75935198Y12245299D01*
X75988727Y12080555D01*
X76067368Y11926212D01*
X76169186Y11786072D01*
X76291672Y11663586D01*
X76431812Y11561768D01*
X76586155Y11483127D01*
X76750899Y11429598D01*
X76921989Y11402500D01*
X76921990Y11402500D01*
X77095210Y11402500D01*
X77095211Y11402500D01*
X77266301Y11429598D01*
X77431045Y11483127D01*
X77585388Y11561768D01*
X77725528Y11663586D01*
X77848014Y11786072D01*
X77949832Y11926212D01*
X78028473Y12080555D01*
X78082002Y12245299D01*
X78109100Y12416389D01*
X78109100Y12589611D01*
X78082002Y12760701D01*
X78028473Y12925445D01*
X77949832Y13079788D01*
X77848014Y13219928D01*
X77725528Y13342414D01*
X77585388Y13444232D01*
X77431049Y13522872D01*
X77346985Y13550186D01*
X77289310Y13589624D01*
X77262112Y13653983D01*
X77274027Y13722829D01*
X77321272Y13774305D01*
X77346986Y13786048D01*
X77507629Y13838245D01*
X77689949Y13931141D01*
X77734521Y13963526D01*
X77055047Y14643000D01*
X77061261Y14643000D01*
X77162994Y14670259D01*
X77254206Y14722920D01*
X77328680Y14797394D01*
X77381341Y14888606D01*
X77408600Y14990339D01*
X77408600Y14996553D01*
X78088074Y14317079D01*
X78120459Y14361651D01*
X78213355Y14543969D01*
X78276590Y14738583D01*
X78308600Y14940683D01*
X78308600Y15145318D01*
X78276590Y15347418D01*
X78213355Y15542032D01*
X78120459Y15724350D01*
X78088074Y15768923D01*
X78088074Y15768924D01*
X77408600Y15089449D01*
X77408600Y15095661D01*
X77381341Y15197394D01*
X77328680Y15288606D01*
X77254206Y15363080D01*
X77162994Y15415741D01*
X77061261Y15443000D01*
X77055046Y15443000D01*
X77734522Y16122476D01*
X77734521Y16122477D01*
X77689959Y16154853D01*
X77689950Y16154859D01*
X77596419Y16202515D01*
X77545623Y16250489D01*
X77528828Y16318310D01*
X77551365Y16384445D01*
X77596420Y16423485D01*
X77689946Y16471139D01*
X77689947Y16471139D01*
X77734521Y16503526D01*
X77055047Y17183000D01*
X77061261Y17183000D01*
X77162994Y17210259D01*
X77254206Y17262920D01*
X77328680Y17337394D01*
X77381341Y17428606D01*
X77408600Y17530339D01*
X77408600Y17536553D01*
X78088074Y16857079D01*
X78120459Y16901651D01*
X78213355Y17083969D01*
X78276590Y17278583D01*
X78308600Y17480683D01*
X78308600Y17685318D01*
X78276590Y17887418D01*
X78213355Y18082032D01*
X78120459Y18264350D01*
X78088074Y18308923D01*
X78088074Y18308924D01*
X77408600Y17629449D01*
X77408600Y17635661D01*
X77381341Y17737394D01*
X77328680Y17828606D01*
X77254206Y17903080D01*
X77162994Y17955741D01*
X77061261Y17983000D01*
X77055046Y17983000D01*
X77734522Y18662476D01*
X77734521Y18662477D01*
X77689959Y18694853D01*
X77689950Y18694859D01*
X77507631Y18787756D01*
X77346985Y18839953D01*
X77289310Y18879391D01*
X77262112Y18943750D01*
X77274027Y19012596D01*
X77321271Y19064072D01*
X77346981Y19075813D01*
X77431045Y19103127D01*
X77585388Y19181768D01*
X77725528Y19283586D01*
X77848014Y19406072D01*
X77949832Y19546212D01*
X78028473Y19700555D01*
X78082002Y19865299D01*
X78109100Y20036389D01*
X78109100Y20209611D01*
X78082002Y20380701D01*
X78028473Y20545445D01*
X77949832Y20699788D01*
X77848014Y20839928D01*
X77725528Y20962414D01*
X77585388Y21064232D01*
X77431045Y21142873D01*
X77266301Y21196402D01*
X77266299Y21196403D01*
X77266298Y21196403D01*
X77134871Y21217219D01*
X77095211Y21223500D01*
X76921989Y21223500D01*
X76882328Y21217219D01*
X76750902Y21196403D01*
X76586152Y21142872D01*
X76431811Y21064232D01*
X76387341Y21031922D01*
X76291672Y20962414D01*
X76291670Y20962412D01*
X76291669Y20962412D01*
X76169188Y20839931D01*
X76169188Y20839930D01*
X76169186Y20839928D01*
X76125459Y20779744D01*
X76067368Y20699789D01*
X75988728Y20545448D01*
X75935197Y20380698D01*
X75908100Y20209611D01*
X75908100Y20036390D01*
X75933704Y19874728D01*
X75935198Y19865299D01*
X75988727Y19700555D01*
X76067368Y19546212D01*
X76169186Y19406072D01*
X76291672Y19283586D01*
X76431812Y19181768D01*
X76586155Y19103127D01*
X76670213Y19075815D01*
X76727889Y19036377D01*
X76755087Y18972019D01*
X76743172Y18903172D01*
X76695928Y18851697D01*
X76670214Y18839953D01*
X76509568Y18787756D01*
X76327244Y18694857D01*
X76282677Y18662477D01*
X76282677Y18662476D01*
X76962154Y17983000D01*
X76955939Y17983000D01*
X76854206Y17955741D01*
X76762994Y17903080D01*
X76688520Y17828606D01*
X76635859Y17737394D01*
X76608600Y17635661D01*
X76608600Y17629447D01*
X75929124Y18308923D01*
X75929123Y18308923D01*
X75896743Y18264356D01*
X75803844Y18082032D01*
X75740609Y17887418D01*
X75708600Y17685318D01*
X28999010Y17685318D01*
X28980901Y17691202D01*
X28980899Y17691203D01*
X28980898Y17691203D01*
X28849471Y17712019D01*
X28809811Y17718300D01*
X28636589Y17718300D01*
X28596928Y17712019D01*
X28465502Y17691203D01*
X28300752Y17637672D01*
X28146411Y17559032D01*
X28066456Y17500941D01*
X28006272Y17457214D01*
X28006270Y17457212D01*
X28006269Y17457212D01*
X27883788Y17334731D01*
X27883788Y17334730D01*
X27883786Y17334728D01*
X27842994Y17278583D01*
X27781968Y17194589D01*
X27703328Y17040248D01*
X27649797Y16875498D01*
X27622700Y16704411D01*
X23590500Y16704411D01*
X23590500Y19244411D01*
X27622700Y19244411D01*
X27622700Y19071189D01*
X27649798Y18900099D01*
X27703327Y18735355D01*
X27781968Y18581012D01*
X27883786Y18440872D01*
X28006272Y18318386D01*
X28146412Y18216568D01*
X28300755Y18137927D01*
X28465499Y18084398D01*
X28636589Y18057300D01*
X28636590Y18057300D01*
X28809810Y18057300D01*
X28809811Y18057300D01*
X28980901Y18084398D01*
X29145645Y18137927D01*
X29299988Y18216568D01*
X29440128Y18318386D01*
X29562614Y18440872D01*
X29664432Y18581012D01*
X29743073Y18735355D01*
X29796602Y18900099D01*
X29823700Y19071189D01*
X29823700Y19162475D01*
X70169500Y19162475D01*
X70169500Y19017525D01*
X70207016Y18877515D01*
X70207017Y18877512D01*
X70279488Y18751989D01*
X70279490Y18751987D01*
X70279491Y18751985D01*
X70381985Y18649491D01*
X70381986Y18649490D01*
X70381988Y18649489D01*
X70507511Y18577018D01*
X70507512Y18577018D01*
X70507515Y18577016D01*
X70647525Y18539500D01*
X70647528Y18539500D01*
X70792472Y18539500D01*
X70792475Y18539500D01*
X70932485Y18577016D01*
X71058015Y18649491D01*
X71160509Y18751985D01*
X71232984Y18877515D01*
X71270500Y19017525D01*
X71270500Y19162475D01*
X71232984Y19302485D01*
X71173178Y19406071D01*
X71160511Y19428012D01*
X71160506Y19428018D01*
X71058017Y19530507D01*
X71058011Y19530512D01*
X70932488Y19602983D01*
X70932489Y19602983D01*
X70921006Y19606060D01*
X70792475Y19640500D01*
X70647525Y19640500D01*
X70518993Y19606060D01*
X70507511Y19602983D01*
X70381988Y19530512D01*
X70381982Y19530507D01*
X70279493Y19428018D01*
X70279488Y19428012D01*
X70207017Y19302489D01*
X70207016Y19302485D01*
X70169500Y19162475D01*
X29823700Y19162475D01*
X29823700Y19244411D01*
X29796602Y19415501D01*
X29743073Y19580245D01*
X29664432Y19734588D01*
X29562614Y19874728D01*
X29440128Y19997214D01*
X29391596Y20032475D01*
X69009500Y20032475D01*
X69009500Y19887525D01*
X69015456Y19865299D01*
X69047017Y19747512D01*
X69119488Y19621989D01*
X69119490Y19621987D01*
X69119491Y19621985D01*
X69221985Y19519491D01*
X69221986Y19519490D01*
X69221988Y19519489D01*
X69347511Y19447018D01*
X69347512Y19447018D01*
X69347515Y19447016D01*
X69487525Y19409500D01*
X69487528Y19409500D01*
X69632472Y19409500D01*
X69632475Y19409500D01*
X69772485Y19447016D01*
X69898015Y19519491D01*
X70000509Y19621985D01*
X70072984Y19747515D01*
X70110500Y19887525D01*
X70110500Y20032475D01*
X70072984Y20172485D01*
X70069989Y20177672D01*
X70000511Y20298012D01*
X70000506Y20298018D01*
X69898017Y20400507D01*
X69898011Y20400512D01*
X69772488Y20472983D01*
X69772489Y20472983D01*
X69761006Y20476060D01*
X69632475Y20510500D01*
X69487525Y20510500D01*
X69358993Y20476060D01*
X69347511Y20472983D01*
X69221988Y20400512D01*
X69221982Y20400507D01*
X69119493Y20298018D01*
X69119488Y20298012D01*
X69047017Y20172489D01*
X69047016Y20172485D01*
X69009500Y20032475D01*
X29391596Y20032475D01*
X29299988Y20099032D01*
X29145645Y20177673D01*
X28980901Y20231202D01*
X28980899Y20231203D01*
X28980898Y20231203D01*
X28849471Y20252019D01*
X28809811Y20258300D01*
X28636589Y20258300D01*
X28596928Y20252019D01*
X28465502Y20231203D01*
X28300752Y20177672D01*
X28146411Y20099032D01*
X28066456Y20040941D01*
X28006272Y19997214D01*
X28006270Y19997212D01*
X28006269Y19997212D01*
X27883788Y19874731D01*
X27883788Y19874730D01*
X27883786Y19874728D01*
X27840059Y19814544D01*
X27781968Y19734589D01*
X27703328Y19580248D01*
X27649797Y19415498D01*
X27631898Y19302485D01*
X27622700Y19244411D01*
X23590500Y19244411D01*
X23590500Y21784411D01*
X27622700Y21784411D01*
X27622700Y21611189D01*
X27649798Y21440099D01*
X27703327Y21275355D01*
X27781968Y21121012D01*
X27883786Y20980872D01*
X28006272Y20858386D01*
X28146412Y20756568D01*
X28300755Y20677927D01*
X28465499Y20624398D01*
X28636589Y20597300D01*
X28636590Y20597300D01*
X28809810Y20597300D01*
X28809811Y20597300D01*
X28980901Y20624398D01*
X29145645Y20677927D01*
X29299988Y20756568D01*
X29440128Y20858386D01*
X29532652Y20950910D01*
X46061466Y20950910D01*
X46061466Y20792796D01*
X46092245Y20677929D01*
X46102389Y20640070D01*
X46102392Y20640063D01*
X46181441Y20503144D01*
X46181445Y20503139D01*
X46181446Y20503137D01*
X46293250Y20391333D01*
X46293252Y20391332D01*
X46293256Y20391329D01*
X46430175Y20312280D01*
X46430182Y20312276D01*
X46582909Y20271353D01*
X46582911Y20271353D01*
X46741021Y20271353D01*
X46741023Y20271353D01*
X46893750Y20312276D01*
X47030682Y20391333D01*
X47142486Y20503137D01*
X47221543Y20640069D01*
X47262466Y20792796D01*
X47262466Y20950910D01*
X47221543Y21103637D01*
X47152341Y21223500D01*
X47142490Y21240563D01*
X47142484Y21240571D01*
X47030683Y21352372D01*
X47030675Y21352378D01*
X46893756Y21431427D01*
X46893752Y21431429D01*
X46893750Y21431430D01*
X46741023Y21472353D01*
X46582909Y21472353D01*
X46430182Y21431430D01*
X46430175Y21431427D01*
X46293256Y21352378D01*
X46293248Y21352372D01*
X46181447Y21240571D01*
X46181441Y21240563D01*
X46102392Y21103644D01*
X46102389Y21103637D01*
X46061466Y20950910D01*
X29532652Y20950910D01*
X29562614Y20980872D01*
X29664432Y21121012D01*
X29743073Y21275355D01*
X29796602Y21440099D01*
X29823700Y21611189D01*
X29823700Y21784411D01*
X29796602Y21955501D01*
X29743073Y22120245D01*
X29743073Y22120246D01*
X29736842Y22132475D01*
X57559500Y22132475D01*
X57559500Y21987525D01*
X57597016Y21847515D01*
X57597017Y21847512D01*
X57669488Y21721989D01*
X57669490Y21721987D01*
X57669491Y21721985D01*
X57771985Y21619491D01*
X57771986Y21619490D01*
X57771988Y21619489D01*
X57897511Y21547018D01*
X57897512Y21547018D01*
X57897515Y21547016D01*
X58037525Y21509500D01*
X58037528Y21509500D01*
X58182472Y21509500D01*
X58182475Y21509500D01*
X58322485Y21547016D01*
X58448015Y21619491D01*
X58550509Y21721985D01*
X58622984Y21847515D01*
X58660500Y21987525D01*
X58660500Y22132475D01*
X58622984Y22272485D01*
X58621769Y22274589D01*
X58550511Y22398012D01*
X58550506Y22398018D01*
X58448017Y22500507D01*
X58448011Y22500512D01*
X58322488Y22572983D01*
X58322489Y22572983D01*
X58311006Y22576060D01*
X58182475Y22610500D01*
X58037525Y22610500D01*
X57908993Y22576060D01*
X57897511Y22572983D01*
X57771988Y22500512D01*
X57771982Y22500507D01*
X57669493Y22398018D01*
X57669488Y22398012D01*
X57597017Y22272489D01*
X57597016Y22272485D01*
X57559500Y22132475D01*
X29736842Y22132475D01*
X29703003Y22198887D01*
X29664432Y22274588D01*
X29562614Y22414728D01*
X29440128Y22537214D01*
X29339259Y22610500D01*
X29299986Y22639034D01*
X29290242Y22643998D01*
X29145645Y22717673D01*
X29047351Y22749611D01*
X75908100Y22749611D01*
X75908100Y22576389D01*
X75914305Y22537214D01*
X75933704Y22414728D01*
X75935198Y22405299D01*
X75988727Y22240555D01*
X76067368Y22086212D01*
X76169186Y21946072D01*
X76291672Y21823586D01*
X76431812Y21721768D01*
X76586155Y21643127D01*
X76750899Y21589598D01*
X76921989Y21562500D01*
X76921990Y21562500D01*
X77095210Y21562500D01*
X77095211Y21562500D01*
X77266301Y21589598D01*
X77431045Y21643127D01*
X77585388Y21721768D01*
X77725528Y21823586D01*
X77848014Y21946072D01*
X77949832Y22086212D01*
X78028473Y22240555D01*
X78082002Y22405299D01*
X78109100Y22576389D01*
X78109100Y22749611D01*
X78082002Y22920701D01*
X78028473Y23085445D01*
X77949832Y23239788D01*
X77848014Y23379928D01*
X77725528Y23502414D01*
X77585388Y23604232D01*
X77431045Y23682873D01*
X77266301Y23736402D01*
X77266299Y23736403D01*
X77266298Y23736403D01*
X77134871Y23757219D01*
X77095211Y23763500D01*
X76921989Y23763500D01*
X76882328Y23757219D01*
X76750902Y23736403D01*
X76586152Y23682872D01*
X76431811Y23604232D01*
X76351856Y23546141D01*
X76291672Y23502414D01*
X76291670Y23502412D01*
X76291669Y23502412D01*
X76169188Y23379931D01*
X76169188Y23379930D01*
X76169186Y23379928D01*
X76125459Y23319744D01*
X76067368Y23239789D01*
X75988728Y23085448D01*
X75935197Y22920698D01*
X75911520Y22771203D01*
X75908100Y22749611D01*
X29047351Y22749611D01*
X28980901Y22771202D01*
X28980899Y22771203D01*
X28980898Y22771203D01*
X28849471Y22792019D01*
X28809811Y22798300D01*
X28636589Y22798300D01*
X28596928Y22792019D01*
X28465502Y22771203D01*
X28300752Y22717672D01*
X28146411Y22639032D01*
X28107141Y22610500D01*
X28006272Y22537214D01*
X28006270Y22537212D01*
X28006269Y22537212D01*
X27883788Y22414731D01*
X27883788Y22414730D01*
X27883786Y22414728D01*
X27871641Y22398012D01*
X27781968Y22274589D01*
X27703328Y22120248D01*
X27649797Y21955498D01*
X27648304Y21946071D01*
X27622700Y21784411D01*
X23590500Y21784411D01*
X23590500Y24324411D01*
X27622700Y24324411D01*
X27622700Y24151189D01*
X27649798Y23980099D01*
X27703327Y23815355D01*
X27781968Y23661012D01*
X27883786Y23520872D01*
X28006272Y23398386D01*
X28146412Y23296568D01*
X28300755Y23217927D01*
X28465499Y23164398D01*
X28636589Y23137300D01*
X28636590Y23137300D01*
X28809810Y23137300D01*
X28809811Y23137300D01*
X28980901Y23164398D01*
X29145645Y23217927D01*
X29299988Y23296568D01*
X29440128Y23398386D01*
X29562614Y23520872D01*
X29664432Y23661012D01*
X29743073Y23815355D01*
X29796602Y23980099D01*
X29823700Y24151189D01*
X29823700Y24324411D01*
X29796602Y24495501D01*
X29743073Y24660245D01*
X29664432Y24814588D01*
X29562614Y24954728D01*
X29440128Y25077214D01*
X29299988Y25179032D01*
X29145645Y25257673D01*
X28980901Y25311202D01*
X28980899Y25311203D01*
X28980898Y25311203D01*
X28849471Y25332019D01*
X28809811Y25338300D01*
X28636589Y25338300D01*
X28596928Y25332019D01*
X28465502Y25311203D01*
X28300752Y25257672D01*
X28146411Y25179032D01*
X28066456Y25120941D01*
X28006272Y25077214D01*
X28006270Y25077212D01*
X28006269Y25077212D01*
X27883788Y24954731D01*
X27883788Y24954730D01*
X27883786Y24954728D01*
X27840059Y24894544D01*
X27781968Y24814589D01*
X27703328Y24660248D01*
X27649797Y24495498D01*
X27648304Y24486071D01*
X27622700Y24324411D01*
X23590500Y24324411D01*
X23590500Y26864411D01*
X27622700Y26864411D01*
X27622700Y26691189D01*
X27649798Y26520099D01*
X27703327Y26355355D01*
X27781968Y26201012D01*
X27883786Y26060872D01*
X28006272Y25938386D01*
X28146412Y25836568D01*
X28300755Y25757927D01*
X28465499Y25704398D01*
X28636589Y25677300D01*
X28636590Y25677300D01*
X28809810Y25677300D01*
X28809811Y25677300D01*
X28980901Y25704398D01*
X29145645Y25757927D01*
X29299988Y25836568D01*
X29321882Y25852475D01*
X43637000Y25852475D01*
X43637000Y25707525D01*
X43674516Y25567515D01*
X43674517Y25567512D01*
X43746988Y25441989D01*
X43746990Y25441987D01*
X43746991Y25441985D01*
X43849485Y25339491D01*
X43849486Y25339490D01*
X43849488Y25339489D01*
X43975011Y25267018D01*
X43975012Y25267018D01*
X43975015Y25267016D01*
X44115025Y25229500D01*
X44115028Y25229500D01*
X44259972Y25229500D01*
X44259975Y25229500D01*
X44399985Y25267016D01*
X44525515Y25339491D01*
X44628009Y25441985D01*
X44700484Y25567515D01*
X44738000Y25707525D01*
X44738000Y25749057D01*
X50339500Y25749057D01*
X50339500Y25590943D01*
X50345779Y25567512D01*
X50380423Y25438217D01*
X50380426Y25438210D01*
X50459475Y25301291D01*
X50459479Y25301286D01*
X50459480Y25301284D01*
X50571284Y25189480D01*
X50571286Y25189479D01*
X50571290Y25189476D01*
X50697881Y25116390D01*
X50708216Y25110423D01*
X50860943Y25069500D01*
X50860945Y25069500D01*
X51019055Y25069500D01*
X51019057Y25069500D01*
X51171784Y25110423D01*
X51308716Y25189480D01*
X51408847Y25289611D01*
X75908100Y25289611D01*
X75908100Y25116389D01*
X75916277Y25064761D01*
X75933704Y24954728D01*
X75935198Y24945299D01*
X75988727Y24780555D01*
X76067368Y24626212D01*
X76169186Y24486072D01*
X76291672Y24363586D01*
X76431812Y24261768D01*
X76586155Y24183127D01*
X76750899Y24129598D01*
X76921989Y24102500D01*
X76921990Y24102500D01*
X77095210Y24102500D01*
X77095211Y24102500D01*
X77266301Y24129598D01*
X77431045Y24183127D01*
X77585388Y24261768D01*
X77725528Y24363586D01*
X77848014Y24486072D01*
X77949832Y24626212D01*
X78028473Y24780555D01*
X78082002Y24945299D01*
X78109100Y25116389D01*
X78109100Y25289611D01*
X78082002Y25460701D01*
X78028473Y25625445D01*
X77949832Y25779788D01*
X77848014Y25919928D01*
X77725528Y26042414D01*
X77585388Y26144232D01*
X77431045Y26222873D01*
X77266301Y26276402D01*
X77266299Y26276403D01*
X77266298Y26276403D01*
X77134871Y26297219D01*
X77095211Y26303500D01*
X76921989Y26303500D01*
X76882328Y26297219D01*
X76750902Y26276403D01*
X76586152Y26222872D01*
X76431811Y26144232D01*
X76395723Y26118012D01*
X76291672Y26042414D01*
X76291670Y26042412D01*
X76291669Y26042412D01*
X76169188Y25919931D01*
X76169188Y25919930D01*
X76169186Y25919928D01*
X76156009Y25901791D01*
X76067368Y25779789D01*
X75988728Y25625448D01*
X75935197Y25460698D01*
X75911520Y25311203D01*
X75908100Y25289611D01*
X51408847Y25289611D01*
X51420520Y25301284D01*
X51499577Y25438216D01*
X51540500Y25590943D01*
X51540500Y25749057D01*
X51499577Y25901784D01*
X51489102Y25919928D01*
X51420524Y26038710D01*
X51420518Y26038718D01*
X51308717Y26150519D01*
X51308709Y26150525D01*
X51171790Y26229574D01*
X51171786Y26229576D01*
X51171784Y26229577D01*
X51019057Y26270500D01*
X50860943Y26270500D01*
X50708216Y26229577D01*
X50708209Y26229574D01*
X50571290Y26150525D01*
X50571282Y26150519D01*
X50459481Y26038718D01*
X50459475Y26038710D01*
X50380426Y25901791D01*
X50380423Y25901784D01*
X50339500Y25749057D01*
X44738000Y25749057D01*
X44738000Y25852475D01*
X44700484Y25992485D01*
X44673792Y26038716D01*
X44628011Y26118012D01*
X44628006Y26118018D01*
X44525517Y26220507D01*
X44525511Y26220512D01*
X44399988Y26292983D01*
X44399989Y26292983D01*
X44360739Y26303500D01*
X44259975Y26330500D01*
X44115025Y26330500D01*
X44014261Y26303500D01*
X43975011Y26292983D01*
X43849488Y26220512D01*
X43849482Y26220507D01*
X43746993Y26118018D01*
X43746988Y26118012D01*
X43674517Y25992489D01*
X43674516Y25992485D01*
X43637000Y25852475D01*
X29321882Y25852475D01*
X29440128Y25938386D01*
X29562614Y26060872D01*
X29664432Y26201012D01*
X29743073Y26355355D01*
X29796602Y26520099D01*
X29823700Y26691189D01*
X29823700Y26864411D01*
X29796602Y27035501D01*
X29743073Y27200245D01*
X29664432Y27354588D01*
X29658702Y27362475D01*
X56449500Y27362475D01*
X56449500Y27217525D01*
X56487016Y27077515D01*
X56487017Y27077512D01*
X56559488Y26951989D01*
X56559490Y26951987D01*
X56559491Y26951985D01*
X56661985Y26849491D01*
X56661986Y26849490D01*
X56661988Y26849489D01*
X56787511Y26777018D01*
X56787512Y26777018D01*
X56787515Y26777016D01*
X56927525Y26739500D01*
X56927528Y26739500D01*
X57072472Y26739500D01*
X57072475Y26739500D01*
X57212485Y26777016D01*
X57338015Y26849491D01*
X57440509Y26951985D01*
X57512984Y27077515D01*
X57550500Y27217525D01*
X57550500Y27362475D01*
X57512984Y27502485D01*
X57443990Y27621985D01*
X57440511Y27628012D01*
X57440506Y27628018D01*
X57338017Y27730507D01*
X57338011Y27730512D01*
X57212488Y27802983D01*
X57212489Y27802983D01*
X57201006Y27806060D01*
X57072475Y27840500D01*
X56927525Y27840500D01*
X56798993Y27806060D01*
X56787511Y27802983D01*
X56661988Y27730512D01*
X56661982Y27730507D01*
X56559493Y27628018D01*
X56559488Y27628012D01*
X56487017Y27502489D01*
X56487016Y27502485D01*
X56449500Y27362475D01*
X29658702Y27362475D01*
X29562614Y27494728D01*
X29440128Y27617214D01*
X29299988Y27719032D01*
X29145645Y27797673D01*
X28980901Y27851202D01*
X28980899Y27851203D01*
X28980898Y27851203D01*
X28849471Y27872019D01*
X28809811Y27878300D01*
X28636589Y27878300D01*
X28596928Y27872019D01*
X28465502Y27851203D01*
X28465499Y27851202D01*
X28317101Y27802984D01*
X28300752Y27797672D01*
X28146411Y27719032D01*
X28066456Y27660941D01*
X28006272Y27617214D01*
X28006270Y27617212D01*
X28006269Y27617212D01*
X27883788Y27494731D01*
X27883788Y27494730D01*
X27883786Y27494728D01*
X27849123Y27447018D01*
X27781968Y27354589D01*
X27703328Y27200248D01*
X27649797Y27035498D01*
X27648304Y27026071D01*
X27622700Y26864411D01*
X23590500Y26864411D01*
X23590500Y28147475D01*
X69014500Y28147475D01*
X69014500Y28002525D01*
X69050927Y27866580D01*
X69052017Y27862512D01*
X69124488Y27736989D01*
X69124490Y27736987D01*
X69124491Y27736985D01*
X69226985Y27634491D01*
X69226986Y27634490D01*
X69226988Y27634489D01*
X69352511Y27562018D01*
X69352512Y27562018D01*
X69352515Y27562016D01*
X69492525Y27524500D01*
X69492528Y27524500D01*
X69637472Y27524500D01*
X69637475Y27524500D01*
X69777485Y27562016D01*
X69903015Y27634491D01*
X70005509Y27736985D01*
X70077984Y27862515D01*
X70115500Y28002525D01*
X70115500Y28032475D01*
X70849500Y28032475D01*
X70849500Y27887525D01*
X70887016Y27747515D01*
X70887017Y27747512D01*
X70959488Y27621989D01*
X70959490Y27621987D01*
X70959491Y27621985D01*
X71061985Y27519491D01*
X71061986Y27519490D01*
X71061988Y27519489D01*
X71187511Y27447018D01*
X71187512Y27447018D01*
X71187515Y27447016D01*
X71327525Y27409500D01*
X71327528Y27409500D01*
X71472472Y27409500D01*
X71472475Y27409500D01*
X71612485Y27447016D01*
X71738015Y27519491D01*
X71840509Y27621985D01*
X71912984Y27747515D01*
X71934982Y27829611D01*
X75908100Y27829611D01*
X75908100Y27656389D01*
X75913548Y27621989D01*
X75933704Y27494728D01*
X75935198Y27485299D01*
X75988727Y27320555D01*
X76067368Y27166212D01*
X76169186Y27026072D01*
X76291672Y26903586D01*
X76431812Y26801768D01*
X76586155Y26723127D01*
X76750899Y26669598D01*
X76921989Y26642500D01*
X76921990Y26642500D01*
X77095210Y26642500D01*
X77095211Y26642500D01*
X77266301Y26669598D01*
X77431045Y26723127D01*
X77585388Y26801768D01*
X77725528Y26903586D01*
X77848014Y27026072D01*
X77949832Y27166212D01*
X78028473Y27320555D01*
X78082002Y27485299D01*
X78109100Y27656389D01*
X78109100Y27829611D01*
X78082002Y28000701D01*
X78028473Y28165445D01*
X77949832Y28319788D01*
X77848014Y28459928D01*
X77725528Y28582414D01*
X77585388Y28684232D01*
X77431045Y28762873D01*
X77266301Y28816402D01*
X77266299Y28816403D01*
X77266298Y28816403D01*
X77134871Y28837219D01*
X77095211Y28843500D01*
X76921989Y28843500D01*
X76882328Y28837219D01*
X76750902Y28816403D01*
X76586152Y28762872D01*
X76431811Y28684232D01*
X76351856Y28626141D01*
X76291672Y28582414D01*
X76291670Y28582412D01*
X76291669Y28582412D01*
X76169188Y28459931D01*
X76169188Y28459930D01*
X76169186Y28459928D01*
X76126018Y28400512D01*
X76067368Y28319789D01*
X75988728Y28165448D01*
X75988727Y28165446D01*
X75988727Y28165445D01*
X75961962Y28083073D01*
X75935197Y28000698D01*
X75913955Y27866580D01*
X75908100Y27829611D01*
X71934982Y27829611D01*
X71950500Y27887525D01*
X71950500Y28032475D01*
X71912984Y28172485D01*
X71840509Y28298015D01*
X71738015Y28400509D01*
X71738013Y28400510D01*
X71738011Y28400512D01*
X71612488Y28472983D01*
X71612489Y28472983D01*
X71601006Y28476060D01*
X71472475Y28510500D01*
X71327525Y28510500D01*
X71198993Y28476060D01*
X71187511Y28472983D01*
X71061988Y28400512D01*
X71061982Y28400507D01*
X70959493Y28298018D01*
X70959488Y28298012D01*
X70887017Y28172489D01*
X70887016Y28172485D01*
X70849500Y28032475D01*
X70115500Y28032475D01*
X70115500Y28147475D01*
X70077984Y28287485D01*
X70071955Y28297927D01*
X70005511Y28413012D01*
X70005506Y28413018D01*
X69903017Y28515507D01*
X69903011Y28515512D01*
X69777488Y28587983D01*
X69777489Y28587983D01*
X69766006Y28591060D01*
X69637475Y28625500D01*
X69492525Y28625500D01*
X69363993Y28591060D01*
X69352511Y28587983D01*
X69226988Y28515512D01*
X69226982Y28515507D01*
X69124493Y28413018D01*
X69124488Y28413012D01*
X69052017Y28287489D01*
X69052016Y28287485D01*
X69014500Y28147475D01*
X23590500Y28147475D01*
X23590500Y31960118D01*
X27423200Y31960118D01*
X27423200Y31755483D01*
X27455209Y31553383D01*
X27518444Y31358769D01*
X27611341Y31176450D01*
X27611347Y31176441D01*
X27643723Y31131879D01*
X27643724Y31131878D01*
X28323200Y31811354D01*
X28323200Y31805139D01*
X28350459Y31703406D01*
X28403120Y31612194D01*
X28477594Y31537720D01*
X28568806Y31485059D01*
X28670539Y31457800D01*
X28676753Y31457800D01*
X27997276Y30778326D01*
X28041850Y30745941D01*
X28224170Y30653045D01*
X28384813Y30600848D01*
X28442489Y30561410D01*
X28469687Y30497052D01*
X28457772Y30428205D01*
X28410528Y30376730D01*
X28384815Y30364986D01*
X28300749Y30337671D01*
X28146411Y30259032D01*
X28104318Y30228449D01*
X28006272Y30157214D01*
X28006270Y30157212D01*
X28006269Y30157212D01*
X27883788Y30034731D01*
X27883788Y30034730D01*
X27883786Y30034728D01*
X27864024Y30007528D01*
X27781968Y29894589D01*
X27703328Y29740248D01*
X27703327Y29740246D01*
X27703327Y29740245D01*
X27695946Y29717528D01*
X27649797Y29575498D01*
X27630235Y29451985D01*
X27622700Y29404411D01*
X27622700Y29231189D01*
X27649798Y29060099D01*
X27703327Y28895355D01*
X27781968Y28741012D01*
X27883786Y28600872D01*
X28006272Y28478386D01*
X28146412Y28376568D01*
X28300755Y28297927D01*
X28465499Y28244398D01*
X28636589Y28217300D01*
X28636590Y28217300D01*
X28809810Y28217300D01*
X28809811Y28217300D01*
X28980901Y28244398D01*
X29145645Y28297927D01*
X29299988Y28376568D01*
X29440128Y28478386D01*
X29562614Y28600872D01*
X29664432Y28741012D01*
X29743073Y28895355D01*
X29796602Y29060099D01*
X29823700Y29231189D01*
X29823700Y29404411D01*
X29796602Y29575501D01*
X29743073Y29740245D01*
X29680794Y29862475D01*
X33669500Y29862475D01*
X33669500Y29717525D01*
X33690410Y29639489D01*
X33707017Y29577512D01*
X33779488Y29451989D01*
X33779490Y29451987D01*
X33779491Y29451985D01*
X33881985Y29349491D01*
X33881986Y29349490D01*
X33881988Y29349489D01*
X34007511Y29277018D01*
X34007512Y29277018D01*
X34007515Y29277016D01*
X34147525Y29239500D01*
X34147528Y29239500D01*
X34292472Y29239500D01*
X34292475Y29239500D01*
X34432485Y29277016D01*
X34558015Y29349491D01*
X34660509Y29451985D01*
X34732984Y29577515D01*
X34770500Y29717525D01*
X34770500Y29862475D01*
X34732984Y30002485D01*
X34730072Y30007528D01*
X34660511Y30128012D01*
X34660506Y30128018D01*
X34558017Y30230507D01*
X34558015Y30230509D01*
X34536006Y30243216D01*
X34536005Y30243217D01*
X34432488Y30302983D01*
X34432489Y30302983D01*
X34421006Y30306060D01*
X34292475Y30340500D01*
X34147525Y30340500D01*
X34087172Y30324329D01*
X34069402Y30319567D01*
X34069400Y30319567D01*
X34007515Y30302984D01*
X33881985Y30230509D01*
X33879925Y30228450D01*
X33879924Y30228449D01*
X33779493Y30128018D01*
X33779488Y30128012D01*
X33707017Y30002489D01*
X33707016Y30002485D01*
X33669500Y29862475D01*
X29680794Y29862475D01*
X29664432Y29894588D01*
X29562614Y30034728D01*
X29440128Y30157214D01*
X29299988Y30259032D01*
X29145649Y30337672D01*
X29130867Y30342475D01*
X48779500Y30342475D01*
X48779500Y30197525D01*
X48817016Y30057515D01*
X48817017Y30057512D01*
X48889488Y29931989D01*
X48889490Y29931987D01*
X48889491Y29931985D01*
X48991985Y29829491D01*
X48991986Y29829490D01*
X48991988Y29829489D01*
X49117511Y29757018D01*
X49117512Y29757018D01*
X49117515Y29757016D01*
X49257525Y29719500D01*
X49257528Y29719500D01*
X49402472Y29719500D01*
X49402475Y29719500D01*
X49542485Y29757016D01*
X49668015Y29829491D01*
X49770509Y29931985D01*
X49842984Y30057515D01*
X49868429Y30152475D01*
X53189500Y30152475D01*
X53189500Y30007525D01*
X53219762Y29894588D01*
X53227017Y29867512D01*
X53299488Y29741989D01*
X53299490Y29741987D01*
X53299491Y29741985D01*
X53401985Y29639491D01*
X53401986Y29639490D01*
X53401988Y29639489D01*
X53527511Y29567018D01*
X53527512Y29567018D01*
X53527515Y29567016D01*
X53667525Y29529500D01*
X53667528Y29529500D01*
X53812472Y29529500D01*
X53812475Y29529500D01*
X53952485Y29567016D01*
X54078015Y29639491D01*
X54180509Y29741985D01*
X54252984Y29867515D01*
X54290500Y30007525D01*
X54290500Y30152475D01*
X54252984Y30292485D01*
X54237348Y30319567D01*
X54208455Y30369611D01*
X75908100Y30369611D01*
X75908100Y30196389D01*
X75908685Y30192697D01*
X75933704Y30034728D01*
X75935198Y30025299D01*
X75988727Y29860555D01*
X76067368Y29706212D01*
X76169186Y29566072D01*
X76291672Y29443586D01*
X76431812Y29341768D01*
X76586155Y29263127D01*
X76750899Y29209598D01*
X76921989Y29182500D01*
X76921990Y29182500D01*
X77095210Y29182500D01*
X77095211Y29182500D01*
X77266301Y29209598D01*
X77431045Y29263127D01*
X77585388Y29341768D01*
X77725528Y29443586D01*
X77848014Y29566072D01*
X77949832Y29706212D01*
X78028473Y29860555D01*
X78082002Y30025299D01*
X78109100Y30196389D01*
X78109100Y30369611D01*
X78082002Y30540701D01*
X78028473Y30705445D01*
X77949832Y30859788D01*
X77848014Y30999928D01*
X77725528Y31122414D01*
X77585388Y31224232D01*
X77431047Y31302872D01*
X77431046Y31302873D01*
X77431045Y31302873D01*
X77266301Y31356402D01*
X77266299Y31356403D01*
X77266298Y31356403D01*
X77134871Y31377219D01*
X77095211Y31383500D01*
X76921989Y31383500D01*
X76882328Y31377219D01*
X76750902Y31356403D01*
X76586152Y31302872D01*
X76431811Y31224232D01*
X76351856Y31166141D01*
X76291672Y31122414D01*
X76291670Y31122412D01*
X76291669Y31122412D01*
X76169188Y30999931D01*
X76169188Y30999930D01*
X76169186Y30999928D01*
X76125459Y30939744D01*
X76067368Y30859789D01*
X75988728Y30705448D01*
X75935197Y30540698D01*
X75915767Y30418018D01*
X75908100Y30369611D01*
X54208455Y30369611D01*
X54204345Y30376730D01*
X54180509Y30418015D01*
X54078015Y30520509D01*
X54078013Y30520510D01*
X54078011Y30520512D01*
X53952488Y30592983D01*
X53952489Y30592983D01*
X53923136Y30600848D01*
X53812475Y30630500D01*
X53667525Y30630500D01*
X53556864Y30600848D01*
X53527511Y30592983D01*
X53401988Y30520512D01*
X53401982Y30520507D01*
X53299493Y30418018D01*
X53299488Y30418012D01*
X53227017Y30292489D01*
X53227016Y30292485D01*
X53189500Y30152475D01*
X49868429Y30152475D01*
X49880500Y30197525D01*
X49880500Y30342475D01*
X49842984Y30482485D01*
X49833160Y30499500D01*
X49770511Y30608012D01*
X49770506Y30608018D01*
X49668017Y30710507D01*
X49668011Y30710512D01*
X49542488Y30782983D01*
X49542489Y30782983D01*
X49531006Y30786060D01*
X49402475Y30820500D01*
X49257525Y30820500D01*
X49128993Y30786060D01*
X49117511Y30782983D01*
X48991988Y30710512D01*
X48991982Y30710507D01*
X48889493Y30608018D01*
X48889488Y30608012D01*
X48817017Y30482489D01*
X48817016Y30482485D01*
X48779500Y30342475D01*
X29130867Y30342475D01*
X29061585Y30364986D01*
X29003910Y30404424D01*
X28976712Y30468783D01*
X28988627Y30537629D01*
X29035872Y30589105D01*
X29061586Y30600848D01*
X29222229Y30653045D01*
X29404549Y30745941D01*
X29449121Y30778326D01*
X29104972Y31122475D01*
X33189500Y31122475D01*
X33189500Y30977525D01*
X33221048Y30859789D01*
X33227017Y30837512D01*
X33299488Y30711989D01*
X33299490Y30711987D01*
X33299491Y30711985D01*
X33401985Y30609491D01*
X33401986Y30609490D01*
X33401988Y30609489D01*
X33527511Y30537018D01*
X33527512Y30537018D01*
X33527515Y30537016D01*
X33667525Y30499500D01*
X33667528Y30499500D01*
X33812473Y30499500D01*
X33812475Y30499500D01*
X33952485Y30537016D01*
X34078015Y30609491D01*
X34180509Y30711985D01*
X34252984Y30837515D01*
X34290500Y30977525D01*
X34290500Y31122475D01*
X34252984Y31262485D01*
X34229666Y31302872D01*
X34180511Y31388012D01*
X34180506Y31388018D01*
X34078017Y31490507D01*
X34078011Y31490512D01*
X33952488Y31562983D01*
X33952489Y31562983D01*
X33941006Y31566060D01*
X33812475Y31600500D01*
X33667525Y31600500D01*
X33538993Y31566060D01*
X33527511Y31562983D01*
X33401988Y31490512D01*
X33401982Y31490507D01*
X33299493Y31388018D01*
X33299488Y31388012D01*
X33227017Y31262489D01*
X33227016Y31262485D01*
X33189500Y31122475D01*
X29104972Y31122475D01*
X28769647Y31457800D01*
X28775861Y31457800D01*
X28877594Y31485059D01*
X28968806Y31537720D01*
X29043280Y31612194D01*
X29095941Y31703406D01*
X29123200Y31805139D01*
X29123200Y31811352D01*
X29802674Y31131878D01*
X29802674Y31131879D01*
X29835059Y31176451D01*
X29840381Y31186895D01*
X29840381Y31186896D01*
X29840382Y31186897D01*
X29927955Y31358769D01*
X29991190Y31553383D01*
X30023200Y31755483D01*
X30023200Y31832475D01*
X51059500Y31832475D01*
X51059500Y31687525D01*
X51095444Y31553383D01*
X51097017Y31547512D01*
X51169488Y31421989D01*
X51169490Y31421987D01*
X51169491Y31421985D01*
X51271985Y31319491D01*
X51271986Y31319490D01*
X51271988Y31319489D01*
X51397511Y31247018D01*
X51397512Y31247018D01*
X51397515Y31247016D01*
X51537525Y31209500D01*
X51537528Y31209500D01*
X51682472Y31209500D01*
X51682475Y31209500D01*
X51822485Y31247016D01*
X51948015Y31319491D01*
X52050509Y31421985D01*
X52122984Y31547515D01*
X52160500Y31687525D01*
X52160500Y31832475D01*
X52122984Y31972485D01*
X52117500Y31981983D01*
X52050511Y32098012D01*
X52050506Y32098018D01*
X51948017Y32200507D01*
X51948011Y32200512D01*
X51822488Y32272983D01*
X51822489Y32272983D01*
X51811006Y32276060D01*
X51682475Y32310500D01*
X51537525Y32310500D01*
X51408993Y32276060D01*
X51397511Y32272983D01*
X51271988Y32200512D01*
X51271982Y32200507D01*
X51169493Y32098018D01*
X51169488Y32098012D01*
X51097017Y31972489D01*
X51097016Y31972485D01*
X51059500Y31832475D01*
X30023200Y31832475D01*
X30023200Y31960118D01*
X29991190Y32162218D01*
X29927954Y32356835D01*
X29893576Y32424306D01*
X29893575Y32424307D01*
X29869032Y32472475D01*
X53239500Y32472475D01*
X53239500Y32327525D01*
X53273534Y32200509D01*
X53277017Y32187512D01*
X53349488Y32061989D01*
X53349490Y32061987D01*
X53349491Y32061985D01*
X53451985Y31959491D01*
X53451986Y31959490D01*
X53451988Y31959489D01*
X53577511Y31887018D01*
X53577512Y31887018D01*
X53577515Y31887016D01*
X53717525Y31849500D01*
X53717528Y31849500D01*
X53862472Y31849500D01*
X53862475Y31849500D01*
X54002485Y31887016D01*
X54128015Y31959491D01*
X54230509Y32061985D01*
X54302984Y32187515D01*
X54340500Y32327525D01*
X54340500Y32392475D01*
X58449500Y32392475D01*
X58449500Y32247525D01*
X58487016Y32107515D01*
X58487017Y32107512D01*
X58559488Y31981989D01*
X58559490Y31981987D01*
X58559491Y31981985D01*
X58661985Y31879491D01*
X58661986Y31879490D01*
X58661988Y31879489D01*
X58787511Y31807018D01*
X58787512Y31807018D01*
X58787515Y31807016D01*
X58927525Y31769500D01*
X58927528Y31769500D01*
X59072472Y31769500D01*
X59072475Y31769500D01*
X59212485Y31807016D01*
X59338015Y31879491D01*
X59440509Y31981985D01*
X59512984Y32107515D01*
X59550500Y32247525D01*
X59550500Y32392475D01*
X59512984Y32532485D01*
X59512117Y32533986D01*
X59489896Y32572475D01*
X64589500Y32572475D01*
X64589500Y32427525D01*
X64620857Y32310500D01*
X64627017Y32287512D01*
X64699488Y32161989D01*
X64699490Y32161987D01*
X64699491Y32161985D01*
X64801985Y32059491D01*
X64801986Y32059490D01*
X64801988Y32059489D01*
X64927511Y31987018D01*
X64927512Y31987018D01*
X64927515Y31987016D01*
X65067525Y31949500D01*
X65067528Y31949500D01*
X65212472Y31949500D01*
X65212475Y31949500D01*
X65352485Y31987016D01*
X65478015Y32059491D01*
X65580509Y32161985D01*
X65652984Y32287515D01*
X65690500Y32427525D01*
X65690500Y32572475D01*
X65652984Y32712485D01*
X65638244Y32738015D01*
X65580511Y32838012D01*
X65580506Y32838018D01*
X65478017Y32940507D01*
X65478011Y32940512D01*
X65352488Y33012983D01*
X65352489Y33012983D01*
X65341006Y33016060D01*
X65212475Y33050500D01*
X65067525Y33050500D01*
X64938993Y33016060D01*
X64927511Y33012983D01*
X64801988Y32940512D01*
X64801982Y32940507D01*
X64699493Y32838018D01*
X64699488Y32838012D01*
X64627017Y32712489D01*
X64627016Y32712485D01*
X64589500Y32572475D01*
X59489896Y32572475D01*
X59440511Y32658012D01*
X59440506Y32658018D01*
X59338017Y32760507D01*
X59338011Y32760512D01*
X59212488Y32832983D01*
X59212489Y32832983D01*
X59184409Y32840507D01*
X59072475Y32870500D01*
X58927525Y32870500D01*
X58815591Y32840507D01*
X58787511Y32832983D01*
X58661988Y32760512D01*
X58661982Y32760507D01*
X58559493Y32658018D01*
X58559488Y32658012D01*
X58487017Y32532489D01*
X58487016Y32532485D01*
X58449500Y32392475D01*
X54340500Y32392475D01*
X54340500Y32472475D01*
X54302984Y32612485D01*
X54276695Y32658018D01*
X54230511Y32738012D01*
X54230506Y32738018D01*
X54128017Y32840507D01*
X54128011Y32840512D01*
X54002488Y32912983D01*
X54002489Y32912983D01*
X53991006Y32916060D01*
X53862475Y32950500D01*
X53717525Y32950500D01*
X53588993Y32916060D01*
X53577511Y32912983D01*
X53451988Y32840512D01*
X53451982Y32840507D01*
X53349493Y32738018D01*
X53349488Y32738012D01*
X53277017Y32612489D01*
X53277016Y32612485D01*
X53239500Y32472475D01*
X29869032Y32472475D01*
X29835059Y32539150D01*
X29802674Y32583723D01*
X29802674Y32583724D01*
X29123200Y31904249D01*
X29123200Y31910461D01*
X29095941Y32012194D01*
X29043280Y32103406D01*
X28968806Y32177880D01*
X28877594Y32230541D01*
X28775861Y32257800D01*
X28769646Y32257800D01*
X29449122Y32937276D01*
X29449121Y32937277D01*
X29404559Y32969653D01*
X29404550Y32969659D01*
X29222231Y33062556D01*
X29061585Y33114753D01*
X29003910Y33154191D01*
X28976712Y33218550D01*
X28988627Y33287396D01*
X29035871Y33338872D01*
X29061581Y33350613D01*
X29145645Y33377927D01*
X29299988Y33456568D01*
X29440128Y33558386D01*
X29515761Y33634019D01*
X43449500Y33634019D01*
X43449500Y33489069D01*
X43483553Y33361983D01*
X43487017Y33349056D01*
X43559488Y33223533D01*
X43559490Y33223531D01*
X43559491Y33223529D01*
X43661985Y33121035D01*
X43661986Y33121034D01*
X43661988Y33121033D01*
X43787511Y33048562D01*
X43787512Y33048562D01*
X43787515Y33048560D01*
X43927525Y33011044D01*
X43927528Y33011044D01*
X44072472Y33011044D01*
X44072475Y33011044D01*
X44212485Y33048560D01*
X44338015Y33121035D01*
X44440509Y33223529D01*
X44512984Y33349059D01*
X44550500Y33489069D01*
X44550500Y33634019D01*
X44512984Y33774029D01*
X44503891Y33789778D01*
X44440511Y33899556D01*
X44440506Y33899562D01*
X44338017Y34002051D01*
X44338011Y34002056D01*
X44242023Y34057475D01*
X49344500Y34057475D01*
X49344500Y33912525D01*
X49382016Y33772515D01*
X49382017Y33772512D01*
X49454488Y33646989D01*
X49454490Y33646987D01*
X49454491Y33646985D01*
X49556985Y33544491D01*
X49556986Y33544490D01*
X49556988Y33544489D01*
X49682511Y33472018D01*
X49682512Y33472018D01*
X49682515Y33472016D01*
X49822525Y33434500D01*
X49822528Y33434500D01*
X49967472Y33434500D01*
X49967475Y33434500D01*
X50107485Y33472016D01*
X50233015Y33544491D01*
X50335509Y33646985D01*
X50407961Y33772475D01*
X61369500Y33772475D01*
X61369500Y33627525D01*
X61391750Y33544489D01*
X61407017Y33487512D01*
X61479488Y33361989D01*
X61479490Y33361987D01*
X61479491Y33361985D01*
X61581985Y33259491D01*
X61581986Y33259490D01*
X61581988Y33259489D01*
X61707511Y33187018D01*
X61707512Y33187018D01*
X61707515Y33187016D01*
X61847525Y33149500D01*
X61847528Y33149500D01*
X61992472Y33149500D01*
X61992475Y33149500D01*
X62132485Y33187016D01*
X62258015Y33259491D01*
X62360509Y33361985D01*
X62432984Y33487515D01*
X62470500Y33627525D01*
X62470500Y33772475D01*
X62432984Y33912485D01*
X62432959Y33912528D01*
X62409540Y33953092D01*
X62409539Y33953093D01*
X62396686Y33975355D01*
X62376555Y34010222D01*
X76099500Y34010222D01*
X76099500Y33789778D01*
X76102234Y33772515D01*
X76133985Y33572048D01*
X76202103Y33362397D01*
X76202104Y33362394D01*
X76254537Y33259491D01*
X76291465Y33187016D01*
X76302187Y33165975D01*
X76431752Y32987642D01*
X76431756Y32987637D01*
X76587636Y32831757D01*
X76587641Y32831753D01*
X76685697Y32760512D01*
X76765978Y32702185D01*
X76894375Y32636763D01*
X76962393Y32602105D01*
X76962396Y32602104D01*
X77053587Y32572475D01*
X77172049Y32533985D01*
X77389778Y32499500D01*
X77389779Y32499500D01*
X77610221Y32499500D01*
X77610222Y32499500D01*
X77827951Y32533985D01*
X78037606Y32602105D01*
X78234022Y32702185D01*
X78412365Y32831758D01*
X78568242Y32987635D01*
X78697815Y33165978D01*
X78797895Y33362394D01*
X78866015Y33572049D01*
X78900500Y33789778D01*
X78900500Y34010222D01*
X78866015Y34227951D01*
X78801826Y34425507D01*
X78797896Y34437604D01*
X78797895Y34437607D01*
X78748015Y34535500D01*
X78697815Y34634022D01*
X78681260Y34656808D01*
X78568247Y34812359D01*
X78568243Y34812364D01*
X78412363Y34968244D01*
X78412358Y34968248D01*
X78234025Y35097813D01*
X78234024Y35097814D01*
X78234022Y35097815D01*
X78171096Y35129878D01*
X78037606Y35197896D01*
X78037603Y35197897D01*
X77827952Y35266015D01*
X77719086Y35283258D01*
X77610222Y35300500D01*
X77389778Y35300500D01*
X77317201Y35289005D01*
X77172047Y35266015D01*
X76962396Y35197897D01*
X76962393Y35197896D01*
X76765974Y35097813D01*
X76587641Y34968248D01*
X76587636Y34968244D01*
X76431756Y34812364D01*
X76431752Y34812359D01*
X76302187Y34634026D01*
X76202104Y34437607D01*
X76202103Y34437604D01*
X76133985Y34227953D01*
X76099500Y34010222D01*
X62376555Y34010222D01*
X62360509Y34038015D01*
X62258015Y34140509D01*
X62258013Y34140510D01*
X62258011Y34140512D01*
X62132488Y34212983D01*
X62132489Y34212983D01*
X62121006Y34216060D01*
X61992475Y34250500D01*
X61847525Y34250500D01*
X61718993Y34216060D01*
X61707511Y34212983D01*
X61581988Y34140512D01*
X61581982Y34140507D01*
X61479493Y34038018D01*
X61479488Y34038012D01*
X61407017Y33912489D01*
X61407016Y33912485D01*
X61369500Y33772475D01*
X50407961Y33772475D01*
X50407984Y33772515D01*
X50445500Y33912525D01*
X50445500Y34057475D01*
X50407984Y34197485D01*
X50399036Y34212983D01*
X50335511Y34323012D01*
X50335506Y34323018D01*
X50233017Y34425507D01*
X50233011Y34425512D01*
X50107488Y34497983D01*
X50107489Y34497983D01*
X50096006Y34501060D01*
X49967475Y34535500D01*
X49822525Y34535500D01*
X49693993Y34501060D01*
X49682511Y34497983D01*
X49556988Y34425512D01*
X49556982Y34425507D01*
X49454493Y34323018D01*
X49454488Y34323012D01*
X49382017Y34197489D01*
X49379344Y34187512D01*
X49344500Y34057475D01*
X44242023Y34057475D01*
X44212488Y34074527D01*
X44212489Y34074527D01*
X44201006Y34077604D01*
X44072475Y34112044D01*
X43927525Y34112044D01*
X43798993Y34077604D01*
X43787511Y34074527D01*
X43661988Y34002056D01*
X43661982Y34002051D01*
X43559493Y33899562D01*
X43559488Y33899556D01*
X43487017Y33774033D01*
X43486600Y33772475D01*
X43449500Y33634019D01*
X29515761Y33634019D01*
X29562614Y33680872D01*
X29664432Y33821012D01*
X29743073Y33975355D01*
X29796602Y34140099D01*
X29823700Y34311189D01*
X29823700Y34472475D01*
X38374500Y34472475D01*
X38374500Y34327525D01*
X38409345Y34197485D01*
X38412017Y34187512D01*
X38484488Y34061989D01*
X38484490Y34061987D01*
X38484491Y34061985D01*
X38586985Y33959491D01*
X38586986Y33959490D01*
X38586988Y33959489D01*
X38712511Y33887018D01*
X38712512Y33887018D01*
X38712515Y33887016D01*
X38852525Y33849500D01*
X38852528Y33849500D01*
X38997472Y33849500D01*
X38997475Y33849500D01*
X39137485Y33887016D01*
X39263015Y33959491D01*
X39365509Y34061985D01*
X39437984Y34187515D01*
X39475500Y34327525D01*
X39475500Y34472475D01*
X39437984Y34612485D01*
X39425547Y34634026D01*
X39365511Y34738012D01*
X39365506Y34738018D01*
X39263017Y34840507D01*
X39263011Y34840512D01*
X39137488Y34912983D01*
X39137489Y34912983D01*
X39126006Y34916060D01*
X38997475Y34950500D01*
X38852525Y34950500D01*
X38723993Y34916060D01*
X38712511Y34912983D01*
X38586988Y34840512D01*
X38586982Y34840507D01*
X38484493Y34738018D01*
X38484488Y34738012D01*
X38412017Y34612489D01*
X38412016Y34612485D01*
X38374500Y34472475D01*
X29823700Y34472475D01*
X29823700Y34484411D01*
X29796602Y34655501D01*
X29743073Y34820245D01*
X29664432Y34974588D01*
X29562614Y35114728D01*
X29440128Y35237214D01*
X29299988Y35339032D01*
X29145645Y35417673D01*
X28980901Y35471202D01*
X28980899Y35471203D01*
X28980898Y35471203D01*
X28849471Y35492019D01*
X28809811Y35498300D01*
X28636589Y35498300D01*
X28596928Y35492019D01*
X28465502Y35471203D01*
X28300752Y35417672D01*
X28146411Y35339032D01*
X28093377Y35300500D01*
X28006272Y35237214D01*
X28006270Y35237212D01*
X28006269Y35237212D01*
X27883788Y35114731D01*
X27883788Y35114730D01*
X27883786Y35114728D01*
X27840059Y35054544D01*
X27781968Y34974589D01*
X27703328Y34820248D01*
X27649797Y34655498D01*
X27622700Y34484411D01*
X27622700Y34311190D01*
X27649732Y34140512D01*
X27649798Y34140099D01*
X27694652Y34002053D01*
X27703328Y33975353D01*
X27711410Y33959491D01*
X27781968Y33821012D01*
X27883786Y33680872D01*
X28006272Y33558386D01*
X28146412Y33456568D01*
X28300755Y33377927D01*
X28384813Y33350615D01*
X28442489Y33311177D01*
X28469687Y33246819D01*
X28457772Y33177972D01*
X28410528Y33126497D01*
X28384814Y33114753D01*
X28224168Y33062556D01*
X28041844Y32969657D01*
X27997277Y32937277D01*
X27997277Y32937276D01*
X28676754Y32257800D01*
X28670539Y32257800D01*
X28568806Y32230541D01*
X28477594Y32177880D01*
X28403120Y32103406D01*
X28350459Y32012194D01*
X28323200Y31910461D01*
X28323200Y31904247D01*
X27643724Y32583723D01*
X27643723Y32583723D01*
X27611343Y32539156D01*
X27518444Y32356832D01*
X27455209Y32162218D01*
X27423200Y31960118D01*
X23590500Y31960118D01*
X23590500Y35622475D01*
X53209500Y35622475D01*
X53209500Y35477525D01*
X53225538Y35417672D01*
X53247017Y35337512D01*
X53319488Y35211989D01*
X53319490Y35211987D01*
X53319491Y35211985D01*
X53421985Y35109491D01*
X53421986Y35109490D01*
X53421988Y35109489D01*
X53547511Y35037018D01*
X53547512Y35037018D01*
X53547515Y35037016D01*
X53687525Y34999500D01*
X53687528Y34999500D01*
X53832472Y34999500D01*
X53832475Y34999500D01*
X53972485Y35037016D01*
X54098015Y35109491D01*
X54200509Y35211985D01*
X54272984Y35337515D01*
X54310500Y35477525D01*
X54310500Y35622475D01*
X54272984Y35762485D01*
X54229789Y35837300D01*
X54200511Y35888012D01*
X54200506Y35888018D01*
X54098017Y35990507D01*
X54098011Y35990512D01*
X53972488Y36062983D01*
X53972489Y36062983D01*
X53961006Y36066060D01*
X53832475Y36100500D01*
X53687525Y36100500D01*
X53558993Y36066060D01*
X53547511Y36062983D01*
X53421988Y35990512D01*
X53421982Y35990507D01*
X53319493Y35888018D01*
X53319488Y35888012D01*
X53247017Y35762489D01*
X53247016Y35762485D01*
X53209500Y35622475D01*
X23590500Y35622475D01*
X23590500Y37024411D01*
X27622700Y37024411D01*
X27622700Y36851189D01*
X27649798Y36680099D01*
X27703327Y36515355D01*
X27781968Y36361012D01*
X27883786Y36220872D01*
X28006272Y36098386D01*
X28146412Y35996568D01*
X28300755Y35917927D01*
X28465499Y35864398D01*
X28636589Y35837300D01*
X28636590Y35837300D01*
X28809810Y35837300D01*
X28809811Y35837300D01*
X28980901Y35864398D01*
X29145645Y35917927D01*
X29299988Y35996568D01*
X29440128Y36098386D01*
X29562614Y36220872D01*
X29664432Y36361012D01*
X29743073Y36515355D01*
X29796602Y36680099D01*
X29823700Y36851189D01*
X29823700Y37024411D01*
X29796602Y37195501D01*
X29743073Y37360245D01*
X29736842Y37372475D01*
X70249500Y37372475D01*
X70249500Y37227525D01*
X70258082Y37195498D01*
X70287017Y37087512D01*
X70359488Y36961989D01*
X70359490Y36961987D01*
X70359491Y36961985D01*
X70461985Y36859491D01*
X70461986Y36859490D01*
X70461988Y36859489D01*
X70587511Y36787018D01*
X70587512Y36787018D01*
X70587515Y36787016D01*
X70727525Y36749500D01*
X70727528Y36749500D01*
X70872472Y36749500D01*
X70872475Y36749500D01*
X71012485Y36787016D01*
X71138015Y36859491D01*
X71240509Y36961985D01*
X71312984Y37087515D01*
X71350500Y37227525D01*
X71350500Y37372475D01*
X71312984Y37512485D01*
X71311769Y37514589D01*
X71240511Y37638012D01*
X71240506Y37638018D01*
X71138017Y37740507D01*
X71138011Y37740512D01*
X71012488Y37812983D01*
X71012489Y37812983D01*
X71001006Y37816060D01*
X70872475Y37850500D01*
X70727525Y37850500D01*
X70598993Y37816060D01*
X70587511Y37812983D01*
X70461988Y37740512D01*
X70461982Y37740507D01*
X70359493Y37638018D01*
X70359488Y37638012D01*
X70287017Y37512489D01*
X70287016Y37512485D01*
X70249500Y37372475D01*
X29736842Y37372475D01*
X29664432Y37514588D01*
X29562614Y37654728D01*
X29440128Y37777214D01*
X29299988Y37879032D01*
X29145649Y37957672D01*
X29132429Y37961967D01*
X29111025Y37968922D01*
X29060560Y37985319D01*
X28980901Y38011202D01*
X28980899Y38011203D01*
X28980898Y38011203D01*
X28849471Y38032019D01*
X28809811Y38038300D01*
X28636589Y38038300D01*
X28596928Y38032019D01*
X28465502Y38011203D01*
X28300752Y37957672D01*
X28146411Y37879032D01*
X28107141Y37850500D01*
X28006272Y37777214D01*
X28006270Y37777212D01*
X28006269Y37777212D01*
X27883788Y37654731D01*
X27883788Y37654730D01*
X27883786Y37654728D01*
X27871641Y37638012D01*
X27781968Y37514589D01*
X27703328Y37360248D01*
X27649797Y37195498D01*
X27632695Y37087515D01*
X27622700Y37024411D01*
X23590500Y37024411D01*
X23590500Y38078725D01*
X59453250Y38078725D01*
X59453250Y37933775D01*
X59490766Y37793765D01*
X59490767Y37793762D01*
X59563238Y37668239D01*
X59563240Y37668237D01*
X59563241Y37668235D01*
X59665735Y37565741D01*
X59665736Y37565740D01*
X59665738Y37565739D01*
X59791261Y37493268D01*
X59791262Y37493268D01*
X59791265Y37493266D01*
X59931275Y37455750D01*
X59931278Y37455750D01*
X60076222Y37455750D01*
X60076225Y37455750D01*
X60216235Y37493266D01*
X60341765Y37565741D01*
X60444259Y37668235D01*
X60516734Y37793765D01*
X60554250Y37933775D01*
X60554250Y38078725D01*
X60516734Y38218735D01*
X60444259Y38344265D01*
X60341765Y38446759D01*
X60341763Y38446760D01*
X60341761Y38446762D01*
X60216238Y38519233D01*
X60216239Y38519233D01*
X60204756Y38522310D01*
X60076225Y38556750D01*
X59931275Y38556750D01*
X59802743Y38522310D01*
X59791261Y38519233D01*
X59665738Y38446762D01*
X59665732Y38446757D01*
X59563243Y38344268D01*
X59563238Y38344262D01*
X59490767Y38218739D01*
X59490766Y38218735D01*
X59453250Y38078725D01*
X23590500Y38078725D01*
X23590500Y39564411D01*
X27622700Y39564411D01*
X27622700Y39391189D01*
X27649798Y39220099D01*
X27703327Y39055355D01*
X27781968Y38901012D01*
X27883786Y38760872D01*
X28006272Y38638386D01*
X28146412Y38536568D01*
X28300755Y38457927D01*
X28465499Y38404398D01*
X28636589Y38377300D01*
X28636590Y38377300D01*
X28809810Y38377300D01*
X28809811Y38377300D01*
X28980901Y38404398D01*
X29145645Y38457927D01*
X29299988Y38536568D01*
X29440128Y38638386D01*
X29562614Y38760872D01*
X29664432Y38901012D01*
X29743073Y39055355D01*
X29796602Y39220099D01*
X29823700Y39391189D01*
X29823700Y39564411D01*
X29796602Y39735501D01*
X29743073Y39900245D01*
X29664432Y40054588D01*
X29562614Y40194728D01*
X29440128Y40317214D01*
X29299988Y40419032D01*
X29145645Y40497673D01*
X28980901Y40551202D01*
X28980899Y40551203D01*
X28980898Y40551203D01*
X28849471Y40572019D01*
X28809811Y40578300D01*
X28636589Y40578300D01*
X28596928Y40572019D01*
X28465502Y40551203D01*
X28300752Y40497672D01*
X28146411Y40419032D01*
X28066456Y40360941D01*
X28006272Y40317214D01*
X28006270Y40317212D01*
X28006269Y40317212D01*
X27883788Y40194731D01*
X27883788Y40194730D01*
X27883786Y40194728D01*
X27840059Y40134544D01*
X27781968Y40054589D01*
X27703328Y39900248D01*
X27649797Y39735498D01*
X27622700Y39564411D01*
X23590500Y39564411D01*
X23590500Y41417667D01*
X23610185Y41484706D01*
X23662989Y41530461D01*
X23732147Y41540405D01*
X23783393Y41520768D01*
X23786319Y41518813D01*
X23786328Y41518808D01*
X23968306Y41443431D01*
X23968318Y41443428D01*
X24161504Y41405001D01*
X24161508Y41405000D01*
X24360000Y41405000D01*
X24360000Y42155000D01*
X24860000Y42155000D01*
X24860000Y41405000D01*
X25058492Y41405000D01*
X25058495Y41405001D01*
X25251681Y41443428D01*
X25251693Y41443431D01*
X25433671Y41518808D01*
X25433684Y41518815D01*
X25597462Y41628249D01*
X25597466Y41628252D01*
X25736748Y41767534D01*
X25736751Y41767538D01*
X25846185Y41931316D01*
X25846192Y41931329D01*
X25921569Y42113308D01*
X25921569Y42113310D01*
X25929862Y42155000D01*
X25009728Y42155000D01*
X25101614Y42193060D01*
X25171940Y42263386D01*
X25210000Y42355272D01*
X25210000Y42454728D01*
X25171940Y42546614D01*
X25101614Y42616940D01*
X25009728Y42655000D01*
X25929862Y42655000D01*
X27090138Y42655000D01*
X28010272Y42655000D01*
X27918386Y42616940D01*
X27848060Y42546614D01*
X27810000Y42454728D01*
X27810000Y42355272D01*
X27848060Y42263386D01*
X27918386Y42193060D01*
X28010272Y42155000D01*
X27090138Y42155000D01*
X27098430Y42113310D01*
X27098430Y42113308D01*
X27173807Y41931329D01*
X27173814Y41931316D01*
X27283248Y41767538D01*
X27283251Y41767534D01*
X27422533Y41628252D01*
X27422537Y41628249D01*
X27586315Y41518815D01*
X27586328Y41518808D01*
X27768306Y41443431D01*
X27768318Y41443428D01*
X27961504Y41405001D01*
X27961508Y41405000D01*
X28160000Y41405000D01*
X28160000Y42155000D01*
X28660000Y42155000D01*
X28660000Y41405000D01*
X28858492Y41405000D01*
X28858495Y41405001D01*
X29051681Y41443428D01*
X29051693Y41443431D01*
X29233671Y41518808D01*
X29233684Y41518815D01*
X29397462Y41628249D01*
X29397466Y41628252D01*
X29536748Y41767534D01*
X29536751Y41767538D01*
X29646185Y41931316D01*
X29646192Y41931329D01*
X29721569Y42113308D01*
X29721569Y42113310D01*
X29729862Y42155000D01*
X28809728Y42155000D01*
X28901614Y42193060D01*
X28971940Y42263386D01*
X29010000Y42355272D01*
X29010000Y42454728D01*
X28971940Y42546614D01*
X28901614Y42616940D01*
X28809728Y42655000D01*
X29729862Y42655000D01*
X29721569Y42696691D01*
X29721569Y42696693D01*
X29654056Y42859686D01*
X29654036Y42859732D01*
X29646187Y42878681D01*
X29646185Y42878685D01*
X29632573Y42899057D01*
X30499496Y42899057D01*
X30499496Y42740943D01*
X30532723Y42616940D01*
X30540419Y42588217D01*
X30540422Y42588210D01*
X30619471Y42451291D01*
X30619475Y42451286D01*
X30619476Y42451284D01*
X30731280Y42339480D01*
X30731282Y42339479D01*
X30731286Y42339476D01*
X30831445Y42281650D01*
X30868212Y42260423D01*
X31020939Y42219500D01*
X31020941Y42219500D01*
X31179051Y42219500D01*
X31179053Y42219500D01*
X31331780Y42260423D01*
X31468712Y42339480D01*
X31580516Y42451284D01*
X31659573Y42588216D01*
X31700496Y42740943D01*
X31700496Y42899057D01*
X32039500Y42899057D01*
X32039500Y42740943D01*
X32072727Y42616940D01*
X32080423Y42588217D01*
X32080426Y42588210D01*
X32159475Y42451291D01*
X32159479Y42451286D01*
X32159480Y42451284D01*
X32271284Y42339480D01*
X32271286Y42339479D01*
X32271290Y42339476D01*
X32371449Y42281650D01*
X32408216Y42260423D01*
X32560943Y42219500D01*
X32560945Y42219500D01*
X32719055Y42219500D01*
X32719057Y42219500D01*
X32871784Y42260423D01*
X33008716Y42339480D01*
X33120520Y42451284D01*
X33199577Y42588216D01*
X33240500Y42740943D01*
X33240500Y42899057D01*
X33199577Y43051784D01*
X33186173Y43075000D01*
X33120524Y43188710D01*
X33120518Y43188718D01*
X33008717Y43300519D01*
X33008709Y43300525D01*
X32871790Y43379574D01*
X32871786Y43379576D01*
X32871784Y43379577D01*
X32719057Y43420500D01*
X32560943Y43420500D01*
X32408216Y43379577D01*
X32408209Y43379574D01*
X32271290Y43300525D01*
X32271282Y43300519D01*
X32159481Y43188718D01*
X32159475Y43188710D01*
X32080426Y43051791D01*
X32080423Y43051784D01*
X32039500Y42899057D01*
X31700496Y42899057D01*
X31659573Y43051784D01*
X31646169Y43075000D01*
X31580520Y43188710D01*
X31580514Y43188718D01*
X31468713Y43300519D01*
X31468705Y43300525D01*
X31331786Y43379574D01*
X31331782Y43379576D01*
X31331780Y43379577D01*
X31179053Y43420500D01*
X31020939Y43420500D01*
X30868212Y43379577D01*
X30868205Y43379574D01*
X30731286Y43300525D01*
X30731278Y43300519D01*
X30619477Y43188718D01*
X30619471Y43188710D01*
X30540422Y43051791D01*
X30540419Y43051784D01*
X30499496Y42899057D01*
X29632573Y42899057D01*
X29536751Y43042463D01*
X29536748Y43042467D01*
X29397466Y43181749D01*
X29397462Y43181752D01*
X29233684Y43291186D01*
X29233671Y43291193D01*
X29051693Y43366570D01*
X29051681Y43366573D01*
X28858495Y43405000D01*
X28660000Y43405000D01*
X28660000Y42655000D01*
X28160000Y42655000D01*
X28160000Y43405000D01*
X27961504Y43405000D01*
X27768318Y43366573D01*
X27768306Y43366570D01*
X27586328Y43291193D01*
X27586315Y43291186D01*
X27422537Y43181752D01*
X27422533Y43181749D01*
X27283251Y43042467D01*
X27283248Y43042463D01*
X27173814Y42878685D01*
X27173807Y42878672D01*
X27098430Y42696693D01*
X27098430Y42696691D01*
X27090138Y42655000D01*
X25929862Y42655000D01*
X25921569Y42696691D01*
X25921569Y42696693D01*
X25846192Y42878672D01*
X25846185Y42878685D01*
X25736751Y43042463D01*
X25736748Y43042467D01*
X25597466Y43181749D01*
X25597462Y43181752D01*
X25433684Y43291186D01*
X25433671Y43291193D01*
X25251693Y43366570D01*
X25251681Y43366573D01*
X25058495Y43405000D01*
X24860000Y43405000D01*
X24860000Y42655000D01*
X24360000Y42655000D01*
X24360000Y43405000D01*
X24161504Y43405000D01*
X23968318Y43366573D01*
X23968306Y43366570D01*
X23786328Y43291193D01*
X23786314Y43291185D01*
X23783384Y43289227D01*
X23781615Y43288674D01*
X23780947Y43288316D01*
X23780879Y43288443D01*
X23716705Y43268354D01*
X23649326Y43286843D01*
X23602640Y43338825D01*
X23590500Y43392334D01*
X23590500Y44472845D01*
X34140000Y44472845D01*
X34140000Y43825000D01*
X35056988Y43825000D01*
X35024075Y43767993D01*
X34990000Y43640826D01*
X34990000Y43509174D01*
X35024075Y43382007D01*
X35056988Y43325000D01*
X34140000Y43325000D01*
X34140000Y42677156D01*
X34146401Y42617628D01*
X34146403Y42617621D01*
X34196645Y42482914D01*
X34196649Y42482907D01*
X34282809Y42367813D01*
X34282812Y42367810D01*
X34397906Y42281650D01*
X34397913Y42281646D01*
X34532620Y42231404D01*
X34532627Y42231402D01*
X34592155Y42225001D01*
X34592172Y42225000D01*
X35240000Y42225000D01*
X35240000Y43141988D01*
X35297007Y43109075D01*
X35424174Y43075000D01*
X35555826Y43075000D01*
X35682993Y43109075D01*
X35740000Y43141988D01*
X35740000Y42225000D01*
X36387828Y42225000D01*
X36387844Y42225001D01*
X36447372Y42231402D01*
X36447379Y42231404D01*
X36582086Y42281646D01*
X36582093Y42281650D01*
X36697187Y42367810D01*
X36697190Y42367813D01*
X36783350Y42482907D01*
X36783354Y42482914D01*
X36833596Y42617621D01*
X36833598Y42617628D01*
X36839999Y42677156D01*
X36840000Y42677173D01*
X36840000Y43325000D01*
X35923012Y43325000D01*
X35955925Y43382007D01*
X35990000Y43509174D01*
X35990000Y43640826D01*
X35955925Y43767993D01*
X35923012Y43825000D01*
X36840000Y43825000D01*
X36840000Y44014923D01*
X47515975Y44014923D01*
X47621236Y43971322D01*
X47621240Y43971321D01*
X47766126Y43942501D01*
X47766129Y43942500D01*
X47913871Y43942500D01*
X47913873Y43942501D01*
X48058760Y43971321D01*
X48058775Y43971325D01*
X48164024Y44014922D01*
X48164024Y44014923D01*
X48915975Y44014923D01*
X49021236Y43971322D01*
X49021240Y43971321D01*
X49166126Y43942501D01*
X49166129Y43942500D01*
X49313871Y43942500D01*
X49313873Y43942501D01*
X49458760Y43971321D01*
X49458775Y43971325D01*
X49564024Y44014922D01*
X49564024Y44014923D01*
X49240001Y44338946D01*
X49240000Y44338946D01*
X48915975Y44014923D01*
X48164024Y44014923D01*
X47840001Y44338946D01*
X47840000Y44338946D01*
X47515975Y44014923D01*
X36840000Y44014923D01*
X36840000Y44472828D01*
X36839999Y44472845D01*
X36833598Y44532373D01*
X36833596Y44532380D01*
X36783354Y44667087D01*
X36783352Y44667090D01*
X36760101Y44698149D01*
X36760100Y44698150D01*
X36709027Y44766374D01*
X47090000Y44766374D01*
X47090000Y44618627D01*
X47118820Y44473741D01*
X47118822Y44473733D01*
X47162421Y44368476D01*
X47486446Y44692500D01*
X47486446Y44692501D01*
X47456610Y44722337D01*
X47690000Y44722337D01*
X47690000Y44662663D01*
X47712836Y44607532D01*
X47755032Y44565336D01*
X47810163Y44542500D01*
X47869837Y44542500D01*
X47924968Y44565336D01*
X47967164Y44607532D01*
X47990000Y44662663D01*
X47990000Y44692501D01*
X48193554Y44692501D01*
X48193554Y44692499D01*
X48517929Y44368124D01*
X48562069Y44368124D01*
X48886446Y44692500D01*
X48856609Y44722337D01*
X49090000Y44722337D01*
X49090000Y44662663D01*
X49112836Y44607532D01*
X49155032Y44565336D01*
X49210163Y44542500D01*
X49269837Y44542500D01*
X49324968Y44565336D01*
X49367164Y44607532D01*
X49390000Y44662663D01*
X49390000Y44692501D01*
X49593554Y44692501D01*
X49593554Y44692499D01*
X49917577Y44368476D01*
X49917578Y44368476D01*
X49961175Y44473725D01*
X49961179Y44473740D01*
X49989999Y44618627D01*
X49990000Y44618629D01*
X49990000Y44766372D01*
X49989999Y44766374D01*
X49961179Y44911260D01*
X49961178Y44911264D01*
X49917577Y45016525D01*
X49593554Y44692501D01*
X49390000Y44692501D01*
X49390000Y44722337D01*
X49367164Y44777468D01*
X49324968Y44819664D01*
X49269837Y44842500D01*
X49210163Y44842500D01*
X49155032Y44819664D01*
X49112836Y44777468D01*
X49090000Y44722337D01*
X48856609Y44722337D01*
X48562068Y45016878D01*
X48517930Y45016878D01*
X48193554Y44692501D01*
X47990000Y44692501D01*
X47990000Y44722337D01*
X47967164Y44777468D01*
X47924968Y44819664D01*
X47869837Y44842500D01*
X47810163Y44842500D01*
X47755032Y44819664D01*
X47712836Y44777468D01*
X47690000Y44722337D01*
X47456610Y44722337D01*
X47162421Y45016526D01*
X47162420Y45016526D01*
X47118823Y44911272D01*
X47118820Y44911260D01*
X47090000Y44766374D01*
X36709027Y44766374D01*
X36697186Y44782191D01*
X36582093Y44868351D01*
X36582086Y44868355D01*
X36447379Y44918597D01*
X36447372Y44918599D01*
X36387844Y44925000D01*
X36191087Y44925000D01*
X36124048Y44944685D01*
X36078293Y44997489D01*
X36068349Y45066647D01*
X36097374Y45130203D01*
X36118202Y45149318D01*
X36239495Y45237442D01*
X36239497Y45237445D01*
X36239501Y45237447D01*
X36294554Y45292500D01*
X47593554Y45292500D01*
X47840000Y45046054D01*
X48086446Y45292500D01*
X48993554Y45292500D01*
X49240000Y45046054D01*
X49486446Y45292500D01*
X49240000Y45538946D01*
X48993554Y45292500D01*
X48086446Y45292500D01*
X47840000Y45538946D01*
X47593554Y45292500D01*
X36294554Y45292500D01*
X36367553Y45365499D01*
X36383274Y45387139D01*
X36404788Y45416748D01*
X36456563Y45488012D01*
X36473996Y45512006D01*
X36556211Y45673361D01*
X36612171Y45845591D01*
X36631301Y45966374D01*
X47090000Y45966374D01*
X47090000Y45818627D01*
X47118820Y45673741D01*
X47118822Y45673733D01*
X47162421Y45568476D01*
X47486446Y45892500D01*
X47486446Y45892501D01*
X47456610Y45922337D01*
X47690000Y45922337D01*
X47690000Y45862663D01*
X47712836Y45807532D01*
X47755032Y45765336D01*
X47810163Y45742500D01*
X47869837Y45742500D01*
X47924968Y45765336D01*
X47967164Y45807532D01*
X47990000Y45862663D01*
X47990000Y45892501D01*
X48193554Y45892501D01*
X48193554Y45892499D01*
X48517929Y45568124D01*
X48562069Y45568124D01*
X48886446Y45892500D01*
X48856609Y45922337D01*
X49090000Y45922337D01*
X49090000Y45862663D01*
X49112836Y45807532D01*
X49155032Y45765336D01*
X49210163Y45742500D01*
X49269837Y45742500D01*
X49324968Y45765336D01*
X49367164Y45807532D01*
X49390000Y45862663D01*
X49390000Y45892501D01*
X49593554Y45892501D01*
X49593554Y45892499D01*
X49917577Y45568476D01*
X49917578Y45568476D01*
X49961175Y45673725D01*
X49961179Y45673740D01*
X49989999Y45818627D01*
X49990000Y45818629D01*
X49990000Y45862475D01*
X50489500Y45862475D01*
X50489500Y45717525D01*
X50523534Y45590509D01*
X50527017Y45577512D01*
X50599488Y45451989D01*
X50599490Y45451987D01*
X50599491Y45451985D01*
X50701985Y45349491D01*
X50701986Y45349490D01*
X50701988Y45349489D01*
X50827511Y45277018D01*
X50827512Y45277018D01*
X50827515Y45277016D01*
X50967525Y45239500D01*
X50967528Y45239500D01*
X51112472Y45239500D01*
X51112475Y45239500D01*
X51252485Y45277016D01*
X51378015Y45349491D01*
X51480509Y45451985D01*
X51552984Y45577515D01*
X51590500Y45717525D01*
X51590500Y45762475D01*
X56559500Y45762475D01*
X56559500Y45617525D01*
X56597016Y45477515D01*
X56597017Y45477512D01*
X56669488Y45351989D01*
X56669490Y45351987D01*
X56669491Y45351985D01*
X56771985Y45249491D01*
X56771986Y45249490D01*
X56771988Y45249489D01*
X56897511Y45177018D01*
X56897512Y45177018D01*
X56897515Y45177016D01*
X57037525Y45139500D01*
X57037528Y45139500D01*
X57182472Y45139500D01*
X57182475Y45139500D01*
X57322485Y45177016D01*
X57401222Y45222475D01*
X61789500Y45222475D01*
X61789500Y45077525D01*
X61820300Y44962580D01*
X61827017Y44937512D01*
X61899488Y44811989D01*
X61899490Y44811987D01*
X61899491Y44811985D01*
X62001985Y44709491D01*
X62001986Y44709490D01*
X62001988Y44709489D01*
X62127511Y44637018D01*
X62127512Y44637018D01*
X62127515Y44637016D01*
X62267525Y44599500D01*
X62267528Y44599500D01*
X62412472Y44599500D01*
X62412475Y44599500D01*
X62552485Y44637016D01*
X62678015Y44709491D01*
X62780509Y44811985D01*
X62852984Y44937515D01*
X62872466Y45010222D01*
X71599500Y45010222D01*
X71599500Y44789778D01*
X71614013Y44698149D01*
X71633985Y44572048D01*
X71702103Y44362397D01*
X71702104Y44362394D01*
X71802187Y44165975D01*
X71931752Y43987642D01*
X71931756Y43987637D01*
X72087636Y43831757D01*
X72087641Y43831753D01*
X72243192Y43718740D01*
X72265978Y43702185D01*
X72386401Y43640826D01*
X72462393Y43602105D01*
X72462396Y43602104D01*
X72567221Y43568045D01*
X72672049Y43533985D01*
X72889778Y43499500D01*
X72889779Y43499500D01*
X73110221Y43499500D01*
X73110222Y43499500D01*
X73327951Y43533985D01*
X73537606Y43602105D01*
X73734022Y43702185D01*
X73912365Y43831758D01*
X74068242Y43987635D01*
X74197815Y44165978D01*
X74297895Y44362394D01*
X74366015Y44572049D01*
X74400500Y44789778D01*
X74400500Y45010222D01*
X74366015Y45227951D01*
X74351548Y45272475D01*
X77549500Y45272475D01*
X77549500Y45127525D01*
X77585592Y44992829D01*
X77587017Y44987512D01*
X77659488Y44861989D01*
X77659490Y44861987D01*
X77659491Y44861985D01*
X77761985Y44759491D01*
X77761986Y44759490D01*
X77761988Y44759489D01*
X77887511Y44687018D01*
X77887512Y44687018D01*
X77887515Y44687016D01*
X78027525Y44649500D01*
X78027528Y44649500D01*
X78172472Y44649500D01*
X78172475Y44649500D01*
X78312485Y44687016D01*
X78438015Y44759491D01*
X78540509Y44861985D01*
X78612984Y44987515D01*
X78650500Y45127525D01*
X78650500Y45272475D01*
X78612984Y45412485D01*
X78598483Y45437601D01*
X78540511Y45538012D01*
X78540506Y45538018D01*
X78438017Y45640507D01*
X78438011Y45640512D01*
X78312488Y45712983D01*
X78312489Y45712983D01*
X78295527Y45717528D01*
X78172475Y45750500D01*
X78027525Y45750500D01*
X77904473Y45717528D01*
X77887511Y45712983D01*
X77761988Y45640512D01*
X77761982Y45640507D01*
X77659493Y45538018D01*
X77659488Y45538012D01*
X77587017Y45412489D01*
X77587016Y45412485D01*
X77549500Y45272475D01*
X74351548Y45272475D01*
X74297895Y45437606D01*
X74297895Y45437607D01*
X74246735Y45538012D01*
X74197815Y45634022D01*
X74168969Y45673725D01*
X74068247Y45812359D01*
X74068243Y45812364D01*
X73912363Y45968244D01*
X73912358Y45968248D01*
X73734025Y46097813D01*
X73734024Y46097814D01*
X73734022Y46097815D01*
X73669851Y46130512D01*
X73537606Y46197896D01*
X73537603Y46197897D01*
X73327952Y46266015D01*
X73219086Y46283258D01*
X73110222Y46300500D01*
X72889778Y46300500D01*
X72817201Y46289005D01*
X72672047Y46266015D01*
X72462396Y46197897D01*
X72462393Y46197896D01*
X72265974Y46097813D01*
X72087641Y45968248D01*
X72087636Y45968244D01*
X71931756Y45812364D01*
X71931752Y45812359D01*
X71802187Y45634026D01*
X71702104Y45437607D01*
X71702103Y45437604D01*
X71633985Y45227953D01*
X71618079Y45127525D01*
X71599500Y45010222D01*
X62872466Y45010222D01*
X62890500Y45077525D01*
X62890500Y45222475D01*
X62852984Y45362485D01*
X62824116Y45412485D01*
X62780511Y45488012D01*
X62780506Y45488018D01*
X62678017Y45590507D01*
X62678011Y45590512D01*
X62552488Y45662983D01*
X62552489Y45662983D01*
X62541006Y45666060D01*
X62412475Y45700500D01*
X62267525Y45700500D01*
X62138993Y45666060D01*
X62127511Y45662983D01*
X62001988Y45590512D01*
X62001982Y45590507D01*
X61899493Y45488018D01*
X61899488Y45488012D01*
X61827017Y45362489D01*
X61824202Y45351983D01*
X61789500Y45222475D01*
X57401222Y45222475D01*
X57448015Y45249491D01*
X57550509Y45351985D01*
X57622984Y45477515D01*
X57660500Y45617525D01*
X57660500Y45762475D01*
X57622984Y45902485D01*
X57611522Y45922337D01*
X57550511Y46028012D01*
X57550506Y46028018D01*
X57448017Y46130507D01*
X57448011Y46130512D01*
X57322488Y46202983D01*
X57322489Y46202983D01*
X57311006Y46206060D01*
X57182475Y46240500D01*
X57037525Y46240500D01*
X56908993Y46206060D01*
X56897511Y46202983D01*
X56771988Y46130512D01*
X56771982Y46130507D01*
X56669493Y46028018D01*
X56669488Y46028012D01*
X56597017Y45902489D01*
X56597016Y45902485D01*
X56559500Y45762475D01*
X51590500Y45762475D01*
X51590500Y45862475D01*
X51552984Y46002485D01*
X51540302Y46024450D01*
X51480511Y46128012D01*
X51480506Y46128018D01*
X51378017Y46230507D01*
X51378011Y46230512D01*
X51252488Y46302983D01*
X51252489Y46302983D01*
X51241006Y46306060D01*
X51112475Y46340500D01*
X50967525Y46340500D01*
X50838993Y46306060D01*
X50827511Y46302983D01*
X50701988Y46230512D01*
X50701982Y46230507D01*
X50599493Y46128018D01*
X50599488Y46128012D01*
X50527017Y46002489D01*
X50527016Y46002485D01*
X50489500Y45862475D01*
X49990000Y45862475D01*
X49990000Y45966372D01*
X49989999Y45966374D01*
X49961179Y46111260D01*
X49961178Y46111264D01*
X49917577Y46216525D01*
X49593554Y45892501D01*
X49390000Y45892501D01*
X49390000Y45922337D01*
X49367164Y45977468D01*
X49324968Y46019664D01*
X49269837Y46042500D01*
X49210163Y46042500D01*
X49155032Y46019664D01*
X49112836Y45977468D01*
X49090000Y45922337D01*
X48856609Y45922337D01*
X48562068Y46216878D01*
X48517930Y46216878D01*
X48193554Y45892501D01*
X47990000Y45892501D01*
X47990000Y45922337D01*
X47967164Y45977468D01*
X47924968Y46019664D01*
X47869837Y46042500D01*
X47810163Y46042500D01*
X47755032Y46019664D01*
X47712836Y45977468D01*
X47690000Y45922337D01*
X47456610Y45922337D01*
X47162421Y46216526D01*
X47162420Y46216526D01*
X47118823Y46111272D01*
X47118820Y46111260D01*
X47090000Y45966374D01*
X36631301Y45966374D01*
X36631597Y45968242D01*
X36635338Y45991859D01*
X36635338Y45991860D01*
X36640500Y46024450D01*
X36640500Y46205552D01*
X36612170Y46384413D01*
X36577051Y46492500D01*
X47593554Y46492500D01*
X47840000Y46246054D01*
X48086446Y46492500D01*
X48993554Y46492500D01*
X49240000Y46246054D01*
X49486446Y46492500D01*
X49240000Y46738946D01*
X48993554Y46492500D01*
X48086446Y46492500D01*
X47840000Y46738946D01*
X47593554Y46492500D01*
X36577051Y46492500D01*
X36572813Y46505545D01*
X36556212Y46556637D01*
X36556211Y46556640D01*
X36508733Y46649819D01*
X36473996Y46717994D01*
X36437319Y46768476D01*
X36367558Y46864495D01*
X36367554Y46864500D01*
X36239495Y46992559D01*
X36129955Y47072143D01*
X36092997Y47098994D01*
X36092996Y47098995D01*
X36092994Y47098996D01*
X36033875Y47129119D01*
X35960760Y47166374D01*
X47090000Y47166374D01*
X47090000Y47018627D01*
X47118820Y46873741D01*
X47118822Y46873733D01*
X47162421Y46768476D01*
X47486446Y47092500D01*
X47486446Y47092501D01*
X47456610Y47122337D01*
X47690000Y47122337D01*
X47690000Y47062663D01*
X47712836Y47007532D01*
X47755032Y46965336D01*
X47810163Y46942500D01*
X47869837Y46942500D01*
X47924968Y46965336D01*
X47967164Y47007532D01*
X47990000Y47062663D01*
X47990000Y47092501D01*
X48193554Y47092501D01*
X48193554Y47092499D01*
X48517929Y46768124D01*
X48562069Y46768124D01*
X48886446Y47092500D01*
X48856609Y47122337D01*
X49090000Y47122337D01*
X49090000Y47062663D01*
X49112836Y47007532D01*
X49155032Y46965336D01*
X49210163Y46942500D01*
X49269837Y46942500D01*
X49324968Y46965336D01*
X49367164Y47007532D01*
X49383333Y47046567D01*
X49593816Y47046567D01*
X49594502Y47040190D01*
X49594502Y46976042D01*
X49632018Y46836032D01*
X49632019Y46836029D01*
X49704490Y46710506D01*
X49704492Y46710504D01*
X49704493Y46710502D01*
X49806987Y46608008D01*
X49806988Y46608007D01*
X49806990Y46608006D01*
X49932513Y46535535D01*
X49932514Y46535535D01*
X49932517Y46535533D01*
X50072527Y46498017D01*
X50072530Y46498017D01*
X50217474Y46498017D01*
X50217477Y46498017D01*
X50357487Y46535533D01*
X50483017Y46608008D01*
X50585511Y46710502D01*
X50657986Y46836032D01*
X50695502Y46976042D01*
X50695502Y47120992D01*
X50659210Y47256435D01*
X51699500Y47256435D01*
X51699500Y47111485D01*
X51735792Y46976042D01*
X51737017Y46971472D01*
X51809488Y46845949D01*
X51809490Y46845947D01*
X51809491Y46845945D01*
X51911985Y46743451D01*
X51911986Y46743450D01*
X51911988Y46743449D01*
X52037511Y46670978D01*
X52037512Y46670978D01*
X52037515Y46670976D01*
X52177525Y46633460D01*
X52177528Y46633460D01*
X52322472Y46633460D01*
X52322475Y46633460D01*
X52462485Y46670976D01*
X52588015Y46743451D01*
X52690509Y46845945D01*
X52762984Y46971475D01*
X52800500Y47111485D01*
X52800500Y47179057D01*
X54099500Y47179057D01*
X54099500Y47020943D01*
X54136922Y46881284D01*
X54140423Y46868217D01*
X54140426Y46868210D01*
X54219475Y46731291D01*
X54219479Y46731286D01*
X54219480Y46731284D01*
X54331284Y46619480D01*
X54331286Y46619479D01*
X54331290Y46619476D01*
X54375919Y46593710D01*
X54468216Y46540423D01*
X54620943Y46499500D01*
X54620945Y46499500D01*
X54779055Y46499500D01*
X54779057Y46499500D01*
X54931784Y46540423D01*
X55068716Y46619480D01*
X55180520Y46731284D01*
X55259577Y46868216D01*
X55300500Y47020943D01*
X55300500Y47179057D01*
X55259577Y47331784D01*
X55227967Y47386535D01*
X55180524Y47468710D01*
X55180518Y47468718D01*
X55068717Y47580519D01*
X55068709Y47580525D01*
X54931790Y47659574D01*
X54931786Y47659576D01*
X54931784Y47659577D01*
X54779057Y47700500D01*
X54620943Y47700500D01*
X54468216Y47659577D01*
X54468209Y47659574D01*
X54331290Y47580525D01*
X54331282Y47580519D01*
X54219481Y47468718D01*
X54219475Y47468710D01*
X54140426Y47331791D01*
X54140423Y47331784D01*
X54099500Y47179057D01*
X52800500Y47179057D01*
X52800500Y47256435D01*
X52762984Y47396445D01*
X52713713Y47481784D01*
X52690511Y47521972D01*
X52690506Y47521978D01*
X52588017Y47624467D01*
X52588011Y47624472D01*
X52462488Y47696943D01*
X52462489Y47696943D01*
X52449214Y47700500D01*
X52322475Y47734460D01*
X52177525Y47734460D01*
X52050786Y47700500D01*
X52037511Y47696943D01*
X51911988Y47624472D01*
X51911982Y47624467D01*
X51809493Y47521978D01*
X51809488Y47521972D01*
X51737017Y47396449D01*
X51737016Y47396445D01*
X51699500Y47256435D01*
X50659210Y47256435D01*
X50657986Y47261002D01*
X50628969Y47311260D01*
X50585513Y47386529D01*
X50585508Y47386535D01*
X50483019Y47489024D01*
X50483013Y47489029D01*
X50357490Y47561500D01*
X50357491Y47561500D01*
X50346008Y47564577D01*
X50217477Y47599017D01*
X50072527Y47599017D01*
X49943995Y47564577D01*
X49932513Y47561500D01*
X49806990Y47489029D01*
X49806984Y47489024D01*
X49704495Y47386535D01*
X49704490Y47386529D01*
X49632019Y47261006D01*
X49632018Y47261002D01*
X49594502Y47120992D01*
X49594502Y47066341D01*
X49593816Y47046567D01*
X49383333Y47046567D01*
X49390000Y47062663D01*
X49390000Y47122337D01*
X49367164Y47177468D01*
X49324968Y47219664D01*
X49269837Y47242500D01*
X49210163Y47242500D01*
X49155032Y47219664D01*
X49112836Y47177468D01*
X49090000Y47122337D01*
X48856609Y47122337D01*
X48562068Y47416878D01*
X48517930Y47416878D01*
X48193554Y47092501D01*
X47990000Y47092501D01*
X47990000Y47122337D01*
X47967164Y47177468D01*
X47924968Y47219664D01*
X47869837Y47242500D01*
X47810163Y47242500D01*
X47755032Y47219664D01*
X47712836Y47177468D01*
X47690000Y47122337D01*
X47456610Y47122337D01*
X47162421Y47416526D01*
X47162420Y47416526D01*
X47118823Y47311272D01*
X47118820Y47311260D01*
X47090000Y47166374D01*
X35960760Y47166374D01*
X35931639Y47181212D01*
X35931636Y47181213D01*
X35759410Y47237171D01*
X35580551Y47265500D01*
X35580546Y47265500D01*
X35399454Y47265500D01*
X35399449Y47265500D01*
X35220589Y47237171D01*
X35048363Y47181213D01*
X35048360Y47181212D01*
X34887002Y47098994D01*
X34740505Y46992559D01*
X34740500Y46992555D01*
X34612445Y46864500D01*
X34612441Y46864495D01*
X34506006Y46717998D01*
X34423788Y46556640D01*
X34423787Y46556637D01*
X34367829Y46384411D01*
X34339500Y46205552D01*
X34339500Y46024449D01*
X34367829Y45845590D01*
X34423787Y45673364D01*
X34423788Y45673361D01*
X34452239Y45617525D01*
X34506003Y45512007D01*
X34506006Y45512003D01*
X34612441Y45365506D01*
X34612445Y45365501D01*
X34740504Y45237442D01*
X34861798Y45149318D01*
X34904464Y45093989D01*
X34910443Y45024375D01*
X34877838Y44962580D01*
X34816999Y44928223D01*
X34788913Y44925000D01*
X34592155Y44925000D01*
X34532627Y44918599D01*
X34532620Y44918597D01*
X34397913Y44868355D01*
X34397906Y44868351D01*
X34282812Y44782191D01*
X34282809Y44782188D01*
X34196649Y44667094D01*
X34196645Y44667087D01*
X34146403Y44532380D01*
X34146401Y44532373D01*
X34140000Y44472845D01*
X23590500Y44472845D01*
X23590500Y47329057D01*
X29249500Y47329057D01*
X29249500Y47170943D01*
X29289693Y47020943D01*
X29290423Y47018217D01*
X29290426Y47018210D01*
X29369475Y46881291D01*
X29369481Y46881283D01*
X29425583Y46825181D01*
X29459068Y46763858D01*
X29454084Y46694166D01*
X29425583Y46649819D01*
X29369481Y46593718D01*
X29369475Y46593710D01*
X29290426Y46456791D01*
X29290423Y46456784D01*
X29249500Y46304057D01*
X29249500Y46145943D01*
X29287940Y46002485D01*
X29290423Y45993217D01*
X29290426Y45993210D01*
X29369475Y45856291D01*
X29369479Y45856286D01*
X29369480Y45856284D01*
X29481284Y45744480D01*
X29481286Y45744479D01*
X29481290Y45744476D01*
X29603836Y45673725D01*
X29618216Y45665423D01*
X29770943Y45624500D01*
X29770945Y45624500D01*
X29929055Y45624500D01*
X29929057Y45624500D01*
X30081784Y45665423D01*
X30218716Y45744480D01*
X30330520Y45856284D01*
X30409577Y45993216D01*
X30450500Y46145943D01*
X30450500Y46304057D01*
X30409577Y46456784D01*
X30388957Y46492500D01*
X30330524Y46593710D01*
X30330518Y46593718D01*
X30274417Y46649819D01*
X30240932Y46711142D01*
X30245916Y46780834D01*
X30274417Y46825181D01*
X30295185Y46845949D01*
X30330520Y46881284D01*
X30409577Y47018216D01*
X30450500Y47170943D01*
X30450500Y47329057D01*
X30409577Y47481784D01*
X30386371Y47521978D01*
X30330524Y47618710D01*
X30330518Y47618718D01*
X30218717Y47730519D01*
X30218709Y47730525D01*
X30150197Y47770080D01*
X47515974Y47770080D01*
X47515974Y47770079D01*
X47840000Y47446054D01*
X47840001Y47446054D01*
X48164024Y47770079D01*
X48164022Y47770080D01*
X48915974Y47770080D01*
X48915974Y47770079D01*
X49240000Y47446054D01*
X49240001Y47446054D01*
X49564024Y47770079D01*
X49458767Y47813678D01*
X49458759Y47813680D01*
X49313872Y47842500D01*
X49166128Y47842500D01*
X49021240Y47813680D01*
X49021228Y47813677D01*
X48915974Y47770080D01*
X48164022Y47770080D01*
X48058767Y47813678D01*
X48058759Y47813680D01*
X47913872Y47842500D01*
X47766128Y47842500D01*
X47621240Y47813680D01*
X47621228Y47813677D01*
X47515974Y47770080D01*
X30150197Y47770080D01*
X30081790Y47809574D01*
X30081786Y47809576D01*
X30081784Y47809577D01*
X29929057Y47850500D01*
X29770943Y47850500D01*
X29618216Y47809577D01*
X29618209Y47809574D01*
X29481290Y47730525D01*
X29481282Y47730519D01*
X29369481Y47618718D01*
X29369475Y47618710D01*
X29290426Y47481791D01*
X29290423Y47481784D01*
X29249500Y47329057D01*
X23590500Y47329057D01*
X23590500Y49172475D01*
X64749500Y49172475D01*
X64749500Y49027525D01*
X64787016Y48887515D01*
X64787017Y48887512D01*
X64859488Y48761989D01*
X64859490Y48761987D01*
X64859491Y48761985D01*
X64961985Y48659491D01*
X64961986Y48659490D01*
X64961988Y48659489D01*
X65087511Y48587018D01*
X65087512Y48587018D01*
X65087515Y48587016D01*
X65227525Y48549500D01*
X65227528Y48549500D01*
X65372472Y48549500D01*
X65372475Y48549500D01*
X65512485Y48587016D01*
X65638015Y48659491D01*
X65740509Y48761985D01*
X65812984Y48887515D01*
X65850500Y49027525D01*
X65850500Y49172475D01*
X65812984Y49312485D01*
X65740509Y49438015D01*
X65638015Y49540509D01*
X65638013Y49540510D01*
X65638011Y49540512D01*
X65512488Y49612983D01*
X65512489Y49612983D01*
X65501006Y49616060D01*
X65372475Y49650500D01*
X65227525Y49650500D01*
X65098993Y49616060D01*
X65087511Y49612983D01*
X64961988Y49540512D01*
X64961982Y49540507D01*
X64859493Y49438018D01*
X64859488Y49438012D01*
X64787017Y49312489D01*
X64787016Y49312485D01*
X64749500Y49172475D01*
X23590500Y49172475D01*
X23590500Y50057667D01*
X23610185Y50124706D01*
X23662989Y50170461D01*
X23732147Y50180405D01*
X23783393Y50160768D01*
X23786319Y50158813D01*
X23786328Y50158808D01*
X23968306Y50083431D01*
X23968318Y50083428D01*
X24161504Y50045001D01*
X24161508Y50045000D01*
X24360000Y50045000D01*
X24360000Y50795000D01*
X24860000Y50795000D01*
X24860000Y50045000D01*
X25058492Y50045000D01*
X25058495Y50045001D01*
X25251681Y50083428D01*
X25251693Y50083431D01*
X25433671Y50158808D01*
X25433684Y50158815D01*
X25597462Y50268249D01*
X25597466Y50268252D01*
X25736748Y50407534D01*
X25736751Y50407538D01*
X25846185Y50571316D01*
X25846192Y50571329D01*
X25921569Y50753308D01*
X25921569Y50753310D01*
X25929862Y50795000D01*
X25009728Y50795000D01*
X25101614Y50833060D01*
X25171940Y50903386D01*
X25210000Y50995272D01*
X25210000Y51094728D01*
X25171940Y51186614D01*
X25101614Y51256940D01*
X25009728Y51295000D01*
X25929862Y51295000D01*
X27090138Y51295000D01*
X28010272Y51295000D01*
X27918386Y51256940D01*
X27848060Y51186614D01*
X27810000Y51094728D01*
X27810000Y50995272D01*
X27848060Y50903386D01*
X27918386Y50833060D01*
X28010272Y50795000D01*
X27090138Y50795000D01*
X27098430Y50753310D01*
X27098430Y50753308D01*
X27173807Y50571329D01*
X27173814Y50571316D01*
X27283248Y50407538D01*
X27283251Y50407534D01*
X27422533Y50268252D01*
X27422537Y50268249D01*
X27586315Y50158815D01*
X27586328Y50158808D01*
X27768306Y50083431D01*
X27768318Y50083428D01*
X27961504Y50045001D01*
X27961508Y50045000D01*
X28160000Y50045000D01*
X28160000Y50795000D01*
X28660000Y50795000D01*
X28660000Y50045000D01*
X28858492Y50045000D01*
X28858495Y50045001D01*
X29051681Y50083428D01*
X29051693Y50083431D01*
X29233671Y50158808D01*
X29233684Y50158815D01*
X29397462Y50268249D01*
X29397466Y50268252D01*
X29536748Y50407534D01*
X29536751Y50407538D01*
X29646185Y50571316D01*
X29646192Y50571329D01*
X29721569Y50753308D01*
X29721569Y50753310D01*
X29729862Y50795000D01*
X28809728Y50795000D01*
X28901614Y50833060D01*
X28971940Y50903386D01*
X29010000Y50995272D01*
X29010000Y51094728D01*
X28971940Y51186614D01*
X28901614Y51256940D01*
X28809728Y51295000D01*
X29729862Y51295000D01*
X29721569Y51336691D01*
X29721569Y51336693D01*
X29646192Y51518672D01*
X29646185Y51518685D01*
X29536751Y51682463D01*
X29536748Y51682467D01*
X29397466Y51821749D01*
X29397462Y51821752D01*
X29233684Y51931186D01*
X29233671Y51931193D01*
X29051693Y52006570D01*
X29051681Y52006573D01*
X29006465Y52015567D01*
X28858495Y52045000D01*
X28660000Y52045000D01*
X28660000Y51295000D01*
X28160000Y51295000D01*
X28160000Y52045000D01*
X27961504Y52045000D01*
X27768318Y52006573D01*
X27768306Y52006570D01*
X27586328Y51931193D01*
X27586315Y51931186D01*
X27422537Y51821752D01*
X27422533Y51821749D01*
X27283251Y51682467D01*
X27283248Y51682463D01*
X27173814Y51518685D01*
X27173807Y51518672D01*
X27098430Y51336693D01*
X27098430Y51336691D01*
X27090138Y51295000D01*
X25929862Y51295000D01*
X25921569Y51336691D01*
X25921569Y51336693D01*
X25846192Y51518672D01*
X25846185Y51518685D01*
X25736751Y51682463D01*
X25736748Y51682467D01*
X25597466Y51821749D01*
X25597462Y51821752D01*
X25433684Y51931186D01*
X25433671Y51931193D01*
X25251693Y52006570D01*
X25251681Y52006573D01*
X25058495Y52045000D01*
X24860000Y52045000D01*
X24860000Y51295000D01*
X24360000Y51295000D01*
X24360000Y52045000D01*
X24161504Y52045000D01*
X23968318Y52006573D01*
X23968306Y52006570D01*
X23786328Y51931193D01*
X23786314Y51931185D01*
X23783384Y51929227D01*
X23781615Y51928674D01*
X23780947Y51928316D01*
X23780879Y51928443D01*
X23716705Y51908354D01*
X23649326Y51926843D01*
X23602640Y51978825D01*
X23590500Y52032334D01*
X23590500Y52132318D01*
X34570000Y52132318D01*
X34570000Y51927683D01*
X34602009Y51725583D01*
X34665244Y51530969D01*
X34758141Y51348650D01*
X34758147Y51348641D01*
X34790523Y51304079D01*
X34790524Y51304078D01*
X35470000Y51983554D01*
X35470000Y51977339D01*
X35497259Y51875606D01*
X35549920Y51784394D01*
X35624394Y51709920D01*
X35715606Y51657259D01*
X35817339Y51630000D01*
X35823553Y51630000D01*
X35144076Y50950526D01*
X35188650Y50918141D01*
X35370968Y50825245D01*
X35565582Y50762010D01*
X35767683Y50730000D01*
X35972317Y50730000D01*
X36174417Y50762010D01*
X36369031Y50825245D01*
X36551349Y50918141D01*
X36595921Y50950526D01*
X35916447Y51630000D01*
X35922661Y51630000D01*
X36024394Y51657259D01*
X36115606Y51709920D01*
X36190080Y51784394D01*
X36242741Y51875606D01*
X36270000Y51977339D01*
X36270000Y51983553D01*
X36949473Y51304079D01*
X36976016Y51306168D01*
X37044393Y51291804D01*
X37073427Y51270231D01*
X37153072Y51190586D01*
X37293212Y51088768D01*
X37447555Y51010127D01*
X37612299Y50956598D01*
X37783389Y50929500D01*
X37783390Y50929500D01*
X37956610Y50929500D01*
X37956611Y50929500D01*
X38127701Y50956598D01*
X38292445Y51010127D01*
X38446788Y51088768D01*
X38586928Y51190586D01*
X38709414Y51313072D01*
X38811232Y51453212D01*
X38887285Y51602475D01*
X46119500Y51602475D01*
X46119500Y51457525D01*
X46148676Y51348641D01*
X46157017Y51317512D01*
X46229488Y51191989D01*
X46229490Y51191987D01*
X46229491Y51191985D01*
X46331985Y51089491D01*
X46331986Y51089490D01*
X46331988Y51089489D01*
X46457511Y51017018D01*
X46457512Y51017018D01*
X46457515Y51017016D01*
X46597525Y50979500D01*
X46597528Y50979500D01*
X46742472Y50979500D01*
X46742475Y50979500D01*
X46882485Y51017016D01*
X47008015Y51089491D01*
X47110509Y51191985D01*
X47182984Y51317515D01*
X47220500Y51457525D01*
X47220500Y51602475D01*
X47182984Y51742485D01*
X47110509Y51868015D01*
X47008015Y51970509D01*
X47008013Y51970510D01*
X47008011Y51970512D01*
X46882488Y52042983D01*
X46882489Y52042983D01*
X46871006Y52046060D01*
X46742475Y52080500D01*
X46597525Y52080500D01*
X46468993Y52046060D01*
X46457511Y52042983D01*
X46331988Y51970512D01*
X46331982Y51970507D01*
X46229493Y51868018D01*
X46229488Y51868012D01*
X46157017Y51742489D01*
X46157016Y51742485D01*
X46119500Y51602475D01*
X38887285Y51602475D01*
X38889873Y51607555D01*
X38943402Y51772299D01*
X38970500Y51943389D01*
X38970500Y52116611D01*
X38943402Y52287701D01*
X38889873Y52452445D01*
X38811232Y52606788D01*
X38709414Y52746928D01*
X38586928Y52869414D01*
X38446788Y52971232D01*
X38327556Y53031983D01*
X38292447Y53049872D01*
X38292446Y53049873D01*
X38292445Y53049873D01*
X38127701Y53103402D01*
X38127699Y53103403D01*
X38127698Y53103403D01*
X37996271Y53124219D01*
X37956611Y53130500D01*
X37783389Y53130500D01*
X37743728Y53124219D01*
X37612302Y53103403D01*
X37447552Y53049872D01*
X37293211Y52971232D01*
X37153073Y52869415D01*
X37073428Y52789770D01*
X37012104Y52756286D01*
X36976018Y52753834D01*
X36949474Y52755924D01*
X36270000Y52076449D01*
X36270000Y52082661D01*
X36242741Y52184394D01*
X36190080Y52275606D01*
X36115606Y52350080D01*
X36024394Y52402741D01*
X35922661Y52430000D01*
X35916446Y52430000D01*
X36595922Y53109476D01*
X36595921Y53109477D01*
X36551359Y53141853D01*
X36551350Y53141859D01*
X36369031Y53234756D01*
X36174417Y53297991D01*
X35984130Y53328129D01*
X35972317Y53330000D01*
X35767683Y53330000D01*
X35565582Y53297991D01*
X35370968Y53234756D01*
X35188644Y53141857D01*
X35144077Y53109477D01*
X35144077Y53109476D01*
X35823554Y52430000D01*
X35817339Y52430000D01*
X35715606Y52402741D01*
X35624394Y52350080D01*
X35549920Y52275606D01*
X35497259Y52184394D01*
X35470000Y52082661D01*
X35470000Y52076447D01*
X34790524Y52755923D01*
X34790523Y52755923D01*
X34758143Y52711356D01*
X34665244Y52529032D01*
X34602009Y52334418D01*
X34570000Y52132318D01*
X23590500Y52132318D01*
X23590500Y53142475D01*
X27869500Y53142475D01*
X27869500Y52997525D01*
X27903828Y52869414D01*
X27907017Y52857512D01*
X27979488Y52731989D01*
X27979490Y52731987D01*
X27979491Y52731985D01*
X28081985Y52629491D01*
X28081986Y52629490D01*
X28081988Y52629489D01*
X28207511Y52557018D01*
X28207512Y52557018D01*
X28207515Y52557016D01*
X28347525Y52519500D01*
X28347528Y52519500D01*
X28492472Y52519500D01*
X28492475Y52519500D01*
X28632485Y52557016D01*
X28758015Y52629491D01*
X28860509Y52731985D01*
X28932984Y52857515D01*
X28970500Y52997525D01*
X28970500Y53142475D01*
X28932984Y53282485D01*
X28906631Y53328129D01*
X28860511Y53408012D01*
X28860506Y53408018D01*
X28826049Y53442475D01*
X41879500Y53442475D01*
X41879500Y53297525D01*
X41917016Y53157515D01*
X41917017Y53157512D01*
X41989488Y53031989D01*
X41989490Y53031987D01*
X41989491Y53031985D01*
X42091985Y52929491D01*
X42091986Y52929490D01*
X42091988Y52929489D01*
X42217511Y52857018D01*
X42217512Y52857018D01*
X42217515Y52857016D01*
X42357525Y52819500D01*
X42357528Y52819500D01*
X42502472Y52819500D01*
X42502475Y52819500D01*
X42642485Y52857016D01*
X42768015Y52929491D01*
X42870509Y53031985D01*
X42942984Y53157515D01*
X42980500Y53297525D01*
X42980500Y53442475D01*
X42942984Y53582485D01*
X42942696Y53582983D01*
X42870511Y53708012D01*
X42870506Y53708018D01*
X42768017Y53810507D01*
X42768011Y53810512D01*
X42642488Y53882983D01*
X42642489Y53882983D01*
X42631006Y53886060D01*
X42502475Y53920500D01*
X42357525Y53920500D01*
X42228993Y53886060D01*
X42217511Y53882983D01*
X42091988Y53810512D01*
X42091982Y53810507D01*
X41989493Y53708018D01*
X41989488Y53708012D01*
X41917017Y53582489D01*
X41917016Y53582485D01*
X41879500Y53442475D01*
X28826049Y53442475D01*
X28758017Y53510507D01*
X28758011Y53510512D01*
X28632488Y53582983D01*
X28632489Y53582983D01*
X28621006Y53586060D01*
X28492475Y53620500D01*
X28347525Y53620500D01*
X28218993Y53586060D01*
X28207511Y53582983D01*
X28081988Y53510512D01*
X28081982Y53510507D01*
X27979493Y53408018D01*
X27979488Y53408012D01*
X27907017Y53282489D01*
X27907016Y53282485D01*
X27869500Y53142475D01*
X23590500Y53142475D01*
X23590500Y55162475D01*
X27759500Y55162475D01*
X27759500Y55017525D01*
X27797016Y54877515D01*
X27797017Y54877512D01*
X27869488Y54751989D01*
X27869490Y54751987D01*
X27869491Y54751985D01*
X27971985Y54649491D01*
X27971986Y54649490D01*
X27971988Y54649489D01*
X28097511Y54577018D01*
X28097512Y54577018D01*
X28097515Y54577016D01*
X28237525Y54539500D01*
X28237528Y54539500D01*
X28382472Y54539500D01*
X28382475Y54539500D01*
X28522485Y54577016D01*
X28648015Y54649491D01*
X28750509Y54751985D01*
X28822984Y54877515D01*
X28860500Y55017525D01*
X28860500Y55102475D01*
X41839500Y55102475D01*
X41839500Y54957525D01*
X41860939Y54877515D01*
X41877017Y54817512D01*
X41949488Y54691989D01*
X41949490Y54691987D01*
X41949491Y54691985D01*
X42051985Y54589491D01*
X42051986Y54589490D01*
X42051988Y54589489D01*
X42177511Y54517018D01*
X42177512Y54517018D01*
X42177515Y54517016D01*
X42317525Y54479500D01*
X42317528Y54479500D01*
X42462472Y54479500D01*
X42462475Y54479500D01*
X42602485Y54517016D01*
X42728015Y54589491D01*
X42830509Y54691985D01*
X42865433Y54752475D01*
X46949500Y54752475D01*
X46949500Y54607525D01*
X46977748Y54502105D01*
X46987017Y54467512D01*
X47059488Y54341989D01*
X47059490Y54341987D01*
X47059491Y54341985D01*
X47161985Y54239491D01*
X47161986Y54239490D01*
X47161988Y54239489D01*
X47287511Y54167018D01*
X47287512Y54167018D01*
X47287515Y54167016D01*
X47427525Y54129500D01*
X47427528Y54129500D01*
X47572472Y54129500D01*
X47572475Y54129500D01*
X47712485Y54167016D01*
X47838015Y54239491D01*
X47940509Y54341985D01*
X48012984Y54467515D01*
X48050500Y54607525D01*
X48050500Y54752475D01*
X48012984Y54892485D01*
X47975431Y54957528D01*
X47940511Y55018012D01*
X47940506Y55018018D01*
X47838017Y55120507D01*
X47838011Y55120512D01*
X47712488Y55192983D01*
X47712489Y55192983D01*
X47701006Y55196060D01*
X47572475Y55230500D01*
X47427525Y55230500D01*
X47298993Y55196060D01*
X47287511Y55192983D01*
X47161988Y55120512D01*
X47161982Y55120507D01*
X47059493Y55018018D01*
X47059488Y55018012D01*
X46987017Y54892489D01*
X46987016Y54892485D01*
X46949500Y54752475D01*
X42865433Y54752475D01*
X42902984Y54817515D01*
X42940500Y54957525D01*
X42940500Y55102475D01*
X42902984Y55242485D01*
X42891489Y55262394D01*
X42830511Y55368012D01*
X42830506Y55368018D01*
X42728017Y55470507D01*
X42728011Y55470512D01*
X42602488Y55542983D01*
X42602489Y55542983D01*
X42591006Y55546060D01*
X42462475Y55580500D01*
X42317525Y55580500D01*
X42188993Y55546060D01*
X42177511Y55542983D01*
X42051988Y55470512D01*
X42051982Y55470507D01*
X41949493Y55368018D01*
X41949488Y55368012D01*
X41877017Y55242489D01*
X41877016Y55242485D01*
X41839500Y55102475D01*
X28860500Y55102475D01*
X28860500Y55162475D01*
X28822984Y55302485D01*
X28785148Y55368018D01*
X28750511Y55428012D01*
X28750506Y55428018D01*
X28648017Y55530507D01*
X28648011Y55530512D01*
X28522488Y55602983D01*
X28522489Y55602983D01*
X28511006Y55606060D01*
X28382475Y55640500D01*
X28237525Y55640500D01*
X28108993Y55606060D01*
X28097511Y55602983D01*
X27971988Y55530512D01*
X27971982Y55530507D01*
X27869493Y55428018D01*
X27869488Y55428012D01*
X27797017Y55302489D01*
X27797016Y55302485D01*
X27759500Y55162475D01*
X23590500Y55162475D01*
X23590500Y57052475D01*
X41959500Y57052475D01*
X41959500Y56907525D01*
X41997016Y56767515D01*
X41997017Y56767512D01*
X42069488Y56641989D01*
X42069490Y56641987D01*
X42069491Y56641985D01*
X42171985Y56539491D01*
X42171986Y56539490D01*
X42171988Y56539489D01*
X42297511Y56467018D01*
X42297512Y56467018D01*
X42297515Y56467016D01*
X42437525Y56429500D01*
X42437528Y56429500D01*
X42582472Y56429500D01*
X42582475Y56429500D01*
X42722485Y56467016D01*
X42848015Y56539491D01*
X42950509Y56641985D01*
X43022984Y56767515D01*
X43060500Y56907525D01*
X43060500Y57052475D01*
X43022984Y57192485D01*
X43022381Y57193529D01*
X42950511Y57318012D01*
X42950506Y57318018D01*
X42848017Y57420507D01*
X42848011Y57420512D01*
X42722488Y57492983D01*
X42722489Y57492983D01*
X42711006Y57496060D01*
X42582475Y57530500D01*
X42437525Y57530500D01*
X42308993Y57496060D01*
X42297511Y57492983D01*
X42171988Y57420512D01*
X42171982Y57420507D01*
X42069493Y57318018D01*
X42069488Y57318012D01*
X41997017Y57192489D01*
X41997016Y57192485D01*
X41959500Y57052475D01*
X23590500Y57052475D01*
X23590500Y58025500D01*
X23610185Y58092539D01*
X23662989Y58138294D01*
X23714500Y58149500D01*
X27363129Y58149500D01*
X27430168Y58129815D01*
G37*
%TD.AperFunction*%
%TD*%
M02*
