G04 Layer_Physical_Order=2*
G04 Layer_Color=11993160*
%FSLAX44Y44*%
%MOMM*%
G71*
G01*
G75*
%ADD48C,0.2000*%
%ADD49C,0.3000*%
%ADD60C,0.2540*%
%ADD61C,1.0160*%
%ADD62C,3.1000*%
%ADD63O,2.5000X1.8000*%
%ADD64C,1.8128*%
%ADD65C,2.2900*%
%ADD66C,1.7620*%
%ADD67O,1.5000X2.2000*%
%ADD68C,4.5000*%
%ADD69C,1.2000*%
%ADD70C,1.3000*%
G36*
X4133000Y3071000D02*
X3908000D01*
Y3211000D01*
X4133000D01*
Y3071000D01*
D02*
G37*
D48*
X3819930Y3055150D02*
X3823780Y3059000D01*
X3819930Y3041000D02*
Y3055150D01*
Y3041000D02*
X3821930Y3039000D01*
X3836270D01*
X3839000Y3041730D01*
Y3044500D01*
Y3056270D01*
X3838250Y3057020D02*
X3839000Y3056270D01*
X3836270Y3059000D02*
X3838250Y3057020D01*
X3823780Y3059000D02*
X3836270D01*
X3812000Y2155000D02*
X3816000Y2158000D01*
X4197214Y2731214D02*
X4211000Y2745000D01*
D49*
X3806000Y2174000D02*
X3812000Y2168000D01*
Y2158000D02*
X3868000D01*
X4211000Y2745000D02*
X4248000D01*
X4197214Y2522694D02*
Y2731214D01*
X4172520Y2498000D02*
X4197214Y2522694D01*
X4172520Y2198480D02*
Y2498000D01*
Y2198480D02*
X4197000Y2174000D01*
Y2103060D02*
Y2174000D01*
Y2103060D02*
X4213000Y2087060D01*
X4247939D01*
X4248000Y2087000D01*
X3821000Y3004800D02*
Y3028885D01*
X3821750Y3029635D01*
X3850365D01*
X3867000Y3013000D01*
X3881000Y2999000D01*
Y2978150D02*
Y2999000D01*
Y2934655D02*
Y2978150D01*
Y2934655D02*
X3900465Y2915190D01*
X4026655Y2789000D01*
X4175000D01*
X4182000Y2796000D02*
X4248000D01*
X4197214Y2731214D02*
X4211000Y2745000D01*
X4197000Y2731000D02*
X4197214Y2731214D01*
X4046000Y2731000D02*
X4197000D01*
X4030000D02*
X4046000D01*
X3824000Y2937000D02*
X4030000Y2731000D01*
X3821000Y2940000D02*
X3824000Y2937000D01*
X3821000Y2940000D02*
Y3004800D01*
X3760000Y2461000D02*
X4030000Y2731000D01*
X3648000Y2461000D02*
X3760000D01*
X3648000Y2112000D02*
X3653000D01*
X3677000Y2136000D01*
Y2155000D01*
Y2174000D01*
X3786000D01*
X3806000D01*
X3787000Y2094000D02*
X3812000Y2119000D01*
X3787000Y2030000D02*
Y2094000D01*
X3948250Y2124171D02*
Y2144620D01*
Y2179750D01*
Y2238250D02*
X3992000Y2282000D01*
X4172000D01*
Y2199000D02*
Y2282000D01*
X4135000Y2199000D02*
X4172000D01*
X4111000D02*
X4135000D01*
X4102157D02*
X4111000D01*
X4084657Y2181500D02*
X4102157Y2199000D01*
X4084657Y2107724D02*
Y2181500D01*
X4061934Y2085000D02*
X4084657Y2107724D01*
X4032000Y2085000D02*
X4061934D01*
X4000250Y2116750D02*
X4032000Y2085000D01*
X3970000Y2116750D02*
X3993250D01*
X3955671D02*
X3970000D01*
X3948250Y2124171D02*
X3955671Y2116750D01*
X3868000Y2158000D02*
X3874000Y2164000D01*
X3889750Y2179750D01*
X3948250D01*
X3812000Y2119000D02*
Y2168000D01*
X3787000Y2030000D02*
X3801000D01*
X3948250Y2179750D02*
Y2238250D01*
X4135000Y2199000D02*
X4172000D01*
X3993250Y2116750D02*
X4000250D01*
X4175000Y2789000D02*
X4182000Y2796000D01*
D60*
X3991614Y2306000D02*
G03*
X3991614Y2306000I-5114J0D01*
G01*
D61*
X4133000Y3071000D02*
Y3211000D01*
X3908000Y3071000D02*
X4133000D01*
X3908000D02*
Y3211000D01*
X4133000D01*
X4248000Y2030000D02*
Y3300000D01*
X3648000D02*
X4248000D01*
X3648000Y2030000D02*
Y3300000D01*
Y2030000D02*
X4248000D01*
D62*
X4160500Y2649800D02*
D03*
X3716000Y2853000D02*
D03*
D63*
X4221000Y3206148D02*
D03*
Y3123852D02*
D03*
D64*
Y3185320D02*
D03*
Y3165000D02*
D03*
Y3144680D02*
D03*
D65*
X4159000Y3032918D02*
D03*
Y3102918D02*
D03*
D66*
X4184000Y3045418D02*
D03*
Y3090418D02*
D03*
D67*
X3898000Y2044500D02*
D03*
X3832000D02*
D03*
D68*
X3689910Y3258088D02*
D03*
X4206089D02*
D03*
X3689910Y2071910D02*
D03*
X4206089D02*
D03*
D69*
X3834950Y3042720D02*
D03*
Y3053720D02*
D03*
X3823950Y3042720D02*
D03*
Y3053720D02*
D03*
D70*
X4192430Y2327000D02*
D03*
X4231225Y2266000D02*
D03*
X4218000Y2265000D02*
D03*
X4193315Y2146060D02*
D03*
X4204315D02*
D03*
X4221966Y2296000D02*
D03*
X4216250Y2290000D02*
D03*
X4180000Y2315500D02*
D03*
X4110000Y3028785D02*
D03*
X3704000Y2605000D02*
D03*
X3972000Y2215000D02*
D03*
X4133023Y2270500D02*
D03*
Y2257000D02*
D03*
X4102023D02*
D03*
Y2270500D02*
D03*
X3908000Y3034000D02*
D03*
X3923000D02*
D03*
X3892515Y3035515D02*
D03*
X3839000Y3121000D02*
D03*
X3820000Y3127000D02*
D03*
X4187000Y3013000D02*
D03*
X4202000Y3001600D02*
D03*
X4205992Y2956994D02*
D03*
X3723000Y2802157D02*
D03*
Y2783000D02*
D03*
X3709000Y2580000D02*
D03*
X4184500Y2544000D02*
D03*
X3688000Y2158250D02*
D03*
X3681000Y2140000D02*
D03*
X3974000Y2073000D02*
D03*
X3948000Y2117560D02*
D03*
X4165685Y2554000D02*
D03*
X3772450Y3030220D02*
D03*
X3819550Y2959600D02*
D03*
X4077000Y2136000D02*
D03*
X4035000Y2150250D02*
D03*
X4045000D02*
D03*
X4056000D02*
D03*
X4065000Y2150000D02*
D03*
X4214315Y2146060D02*
D03*
X3813000Y2267000D02*
D03*
X3695500Y2300000D02*
D03*
X3679000Y2829000D02*
D03*
X4025000Y2080060D02*
D03*
X4044407Y2240000D02*
D03*
X4009500Y2085500D02*
D03*
X4220581Y2402671D02*
D03*
Y2389171D02*
D03*
X4189581D02*
D03*
Y2402671D02*
D03*
X4220780Y2440250D02*
D03*
Y2426750D02*
D03*
X4189780D02*
D03*
Y2440250D02*
D03*
X3769000Y2092600D02*
D03*
X4231000Y2728000D02*
D03*
X4106000Y2057750D02*
D03*
X4106992Y2046996D02*
D03*
X3906004Y2990650D02*
D03*
X3896934D02*
D03*
X3815750Y2989050D02*
D03*
X3826750Y2990050D02*
D03*
X3819550Y2969600D02*
D03*
X3804000Y2991000D02*
D03*
X3868000Y2789000D02*
D03*
X3853750Y3007050D02*
D03*
X3864000Y3057720D02*
D03*
X3850450Y3028220D02*
D03*
X3871500Y3042720D02*
D03*
X3860750Y3033050D02*
D03*
X3853750Y2997050D02*
D03*
X3866000Y3069000D02*
D03*
X3857000Y3075720D02*
D03*
X3806000Y3090418D02*
D03*
X3783000Y3102000D02*
D03*
X3785000Y3086000D02*
D03*
X3690000Y2706910D02*
D03*
X3724000Y2668000D02*
D03*
X3723000Y2681000D02*
D03*
X3708710Y2630710D02*
D03*
X3833985Y3087050D02*
D03*
X3881000Y3020850D02*
D03*
X3724000Y2568000D02*
D03*
X3722920Y2529110D02*
D03*
X3671000Y2951000D02*
D03*
Y2977000D02*
D03*
X4224000Y2733000D02*
D03*
X4232362Y3002000D02*
D03*
X4207114Y2931974D02*
D03*
X4231000Y2748528D02*
D03*
X3964250Y2064000D02*
D03*
X3923000Y2044000D02*
D03*
X3778000Y2071910D02*
D03*
X3835960Y2223000D02*
D03*
X3838960Y3147000D02*
D03*
X3805700Y2149750D02*
D03*
X3764000Y2130879D02*
D03*
X3818960Y2151620D02*
D03*
X4047000Y2188000D02*
D03*
X4059000Y2187960D02*
D03*
X4112046Y2245907D02*
D03*
X4123046Y2246000D02*
D03*
X4183000Y2605000D02*
D03*
X4169000Y2612000D02*
D03*
X4175000Y2669000D02*
D03*
X4174315Y2681000D02*
D03*
X4191000Y2974000D02*
D03*
X4178000Y2982000D02*
D03*
X4165000Y2747000D02*
D03*
X4180000D02*
D03*
X4172000Y2740000D02*
D03*
X4187000D02*
D03*
X4194000Y2747000D02*
D03*
X4205000D02*
D03*
X4214000Y2718000D02*
D03*
X3691000Y2829000D02*
D03*
X3708000Y2900000D02*
D03*
Y2909000D02*
D03*
X3707950Y2891000D02*
D03*
X3936000Y2994000D02*
D03*
X4012000D02*
D03*
X3746000Y2084000D02*
D03*
X3745000Y2143750D02*
D03*
X4087500Y2261000D02*
D03*
X3981250Y2128000D02*
D03*
X3991000Y2149750D02*
D03*
X3695500Y2911000D02*
D03*
X3684340D02*
D03*
Y2888901D02*
D03*
X3695500D02*
D03*
X4160547Y2094268D02*
D03*
X3995000Y2177000D02*
D03*
X3781992Y3075994D02*
D03*
X3961000Y3023770D02*
D03*
X3953000Y2979550D02*
D03*
X3958745Y2934873D02*
D03*
M02*
