M48
; DRILL file KiCad 10.0.0 date 2026-05-06T17:40:28
; FORMAT={-:-/ absolute / inch / decimal}
; #@! TF.CreationDate,2026-05-06T17:40:28-04:00
; #@! TF.GenerationSoftware,Kicad,Pcbnew,10.0.0
; #@! TF.FileFunction,Plated,1,4,PTH
FMAT,2
INCH
; #@! TA.AperFunction,Plated,PTH,ViaDrill
T1C0.0118
; #@! TA.AperFunction,Plated,PTH,ComponentDrill
T2C0.0118
; #@! TA.AperFunction,Plated,PTH,ViaDrill
T3C0.0157
; #@! TA.AperFunction,Plated,PTH,ViaDrill
T4C0.0197
; #@! TA.AperFunction,Plated,PTH,ComponentDrill
T5C0.0197
; #@! TA.AperFunction,Plated,PTH,ComponentDrill
T6C0.0315
; #@! TA.AperFunction,Plated,PTH,ComponentDrill
T7C0.0394
%
G90
G05
T1
X0.9429Y0.463
X0.9488Y1.8535
X0.9535Y0.8634
X0.9539Y-0.037
X0.9559Y1.2764
X0.985Y-0.5224
X0.9965Y-0.9535
X1.0039Y-1.4846
X1.0323Y0.0303
X1.0991Y2.2691
X1.1126Y2.2079
X1.1146Y2.1689
X1.1189Y2.0894
X1.2146Y-0.3736
X1.2394Y0.1476
X1.2472Y0.5768
X1.2543Y1.5323
X1.2591Y1.911
X1.2665Y-1.1252
X1.2972Y0.7776
X1.3016Y0.7024
X1.3217Y1.7303
X1.3248Y1.152
X1.326Y1.1795
X1.3283Y1.2224
X1.3283Y0.0543
X1.3335Y0.3
X1.3336Y1.4294
X1.3445Y1.5717
X1.3469Y-0.0925
X1.3583Y1.9232
X1.3756Y0.5094
X1.3764Y1.072
X1.3809Y2.1339
X1.3854Y2.2744
X1.3996Y0.3205
X1.4134Y1.3474
X1.4295Y0.6102
X1.435Y0.0
X1.4567Y2.2133
X1.4646Y0.2835
X1.4787Y0.4445
X1.4906Y0.7921
X1.4917Y1.2335
X1.502Y0.0268
X1.5028Y-0.0169
X1.5325Y1.3543
X1.535Y1.752
X1.5465Y0.0059
X1.5602Y-0.0972
X1.5685Y2.0083
X1.5689Y0.5799
X1.5969Y0.1724
X1.6033Y1.8602
X1.6051Y0.5039
X1.6197Y2.0433
X1.6329Y2.2726
X1.6339Y2.1348
X1.6407Y2.2063
X1.6486Y1.6496
X1.652Y0.635
X1.6604Y1.3917
X1.6689Y2.1665
X1.6693Y0.3602
X1.6705Y2.1012
X1.6736Y2.2433
X1.6878Y1.835
X1.7177Y-0.3575
X1.7323Y1.3213
X1.7602Y0.3728
X1.772Y-0.0941
X1.7752Y1.7971
X1.7795Y0.5228
X1.7909Y-0.0476
X1.7982Y1.2323
X1.8124Y-0.0726
X1.8201Y-0.3634
X1.8252Y0.2185
X1.8371Y0.8217
X1.8374Y2.0287
X1.839Y0.9835
X1.8425Y0.9492
X1.8433Y2.2441
X1.8504Y-0.3327
X1.852Y0.0224
X1.8657Y0.3921
X1.8701Y2.1528
X1.872Y1.8846
X1.8787Y1.013
X1.8843Y-1.1539
X1.9094Y1.378
X1.9142Y1.0122
X1.926Y0.9492
X1.9378Y-0.0606
X1.939Y-0.139
X1.9614Y1.015
X1.9673Y1.1366
X1.9693Y0.6063
X1.9992Y0.5051
X2.0055Y1.0106
X2.0091Y0.9429
X2.0157Y1.4646
X2.0157Y0.1772
X2.0157Y0.089
X2.0209Y0.2969
X2.0551Y1.8465
X2.0591Y1.8012
X2.0634Y0.2528
X2.0969Y0.1417
X2.1031Y1.174
X2.1145Y-0.0606
X2.1165Y0.0634
X2.126Y-0.1094
X2.1368Y1.9606
X2.1437Y0.4315
X2.1469Y0.5146
X2.1512Y-0.3272
X2.1555Y1.7953
X2.1614Y0.6921
X2.1736Y0.8602
X2.2425Y-1.1051
X2.25Y0.998
X2.2583Y1.4311
X2.2768Y0.6941
X2.2866Y-0.1149
X2.2878Y0.8685
X2.2976Y0.5028
X2.2992Y-0.1618
X2.3035Y0.422
X2.3067Y1.7909
X2.3161Y0.0177
X2.3441Y-0.3917
X2.3461Y-0.072
X2.3485Y1.3903
X2.3575Y-0.1854
X2.3579Y-0.2882
X2.3689Y0.1126
X2.3728Y1.5787
X2.3744Y0.0354
X2.3972Y1.4524
X2.4079Y0.411
X2.4185Y0.2504
X2.4303Y1.3437
X2.4862Y-0.8339
X2.4949Y0.4374
X2.5075Y0.6307
X2.5157Y0.2295
X2.522Y-0.1815
X2.5575Y1.1323
X2.5689Y0.9498
X2.5689Y0.7156
X2.5709Y1.9331
X2.5709Y1.3819
X2.5764Y0.1598
X2.5827Y1.8972
X2.6008Y0.376
X2.6065Y1.2467
X2.6071Y0.0346
X2.6236Y0.626
X2.6362Y-0.1106
X2.6417Y1.4795
X2.6539Y1.6031
X2.6583Y-0.3535
X2.6681Y1.1803
X2.685Y0.035
X2.7039Y0.8299
X2.7071Y0.4315
X2.7161Y-0.0465
X2.7358Y0.2866
X2.7386Y0.7858
X2.7388Y1.1053
X2.7402Y1.1699
X2.7594Y0.2205
X2.7638Y0.6535
X2.7811Y0.1307
X2.7843Y0.7516
X2.7874Y1.4685
X2.7878Y0.3354
X2.798Y0.0331
X2.8126Y1.0189
X2.8244Y-0.039
X2.8268Y-0.1783
X2.8378Y0.1484
X2.8575Y-1.0543
X2.8582Y-0.0404
X2.8815Y0.1524
X2.8843Y0.3488
X2.8949Y0.0461
X2.9091Y0.237
X2.9173Y2.185
X2.9449Y1.0642
X2.9472Y0.6445
X2.9512Y0.1346
X2.9543Y0.8476
X3.0748Y1.7795
X3.1146Y0.7421
X3.1185Y0.9472
X3.1185Y0.4232
X3.1197Y1.1496
X3.1382Y0.5673
X3.1612Y0.4226
X3.1634Y-0.3839
X3.1752Y-0.9996
X3.187Y0.0921
X3.1882Y0.3941
X3.1941Y-1.5193
X3.1953Y1.3008
T2
X1.7397Y1.015
X1.8835Y1.8462
X1.8835Y1.7989
X1.8835Y1.7517
X1.9386Y1.8462
X1.9386Y1.7989
X1.9386Y1.7517
T3
X1.0522Y1.9478
X1.0522Y1.7313
X1.1752Y1.8602
X1.1752Y1.8199
X1.1898Y1.7157
X1.1969Y1.9478
X1.2244Y1.6858
X1.285Y1.6858
X2.1976Y1.9488
T4
X1.5894Y0.7843
X1.6669Y0.7256
X1.724Y0.6559
X1.8795Y0.9311
X1.965Y0.8142
T6
X1.1308Y1.5542
X1.1308Y1.4542
X1.1308Y1.3542
X1.1308Y1.2542
X1.1308Y1.1542
X1.1308Y1.0542
X1.1308Y0.9542
X1.1308Y0.8542
X1.1308Y0.7542
X1.1308Y0.6542
X1.1308Y0.4922
X1.1308Y0.3922
X1.1308Y0.2922
X1.1308Y0.1922
X1.1308Y0.0922
X1.1308Y-0.0078
X1.1308Y-0.1078
X1.1308Y-0.2078
X1.4122Y2.0484
X1.4909Y2.0484
X3.0318Y1.1922
X3.0318Y1.0922
X3.0318Y0.9922
X3.0318Y0.8922
X3.0318Y0.7922
X3.0318Y0.6922
X3.0318Y0.5922
X3.0318Y0.4922
X3.0318Y0.2932
X3.0318Y0.1932
X3.0318Y0.0932
X3.0318Y-0.0068
X3.0318Y-0.1068
X3.0318Y-0.2068
T7
X1.3972Y1.8156
X1.3972Y1.7156
T5
G00X0.9827Y2.0096
M15
G01X0.9551Y2.0096
M16
G05
G00X0.9827Y1.6695
M15
G01X0.9551Y1.6695
M16
G05
G00X1.1323Y2.0096
M15
G01X1.1047Y2.0096
M16
G05
G00X1.1323Y1.6695
M15
G01X1.1047Y1.6695
M16
G05
M30
