%TF.GenerationSoftware,KiCad,Pcbnew,10.0.0*%
%TF.CreationDate,2026-05-06T17:40:28-04:00*%
%TF.ProjectId,SpecterShield-BE-ATDT,53706563-7465-4725-9368-69656c642d42,rev?*%
%TF.SameCoordinates,Original*%
%TF.FileFunction,Legend,Bot*%
%TF.FilePolarity,Positive*%
%FSLAX46Y46*%
G04 Gerber Fmt 4.6, Leading zero omitted, Abs format (unit mm)*
G04 Created by KiCad (PCBNEW 10.0.0) date 2026-05-06 17:40:28*
%MOMM*%
%LPD*%
G01*
G04 APERTURE LIST*
G04 Aperture macros list*
%AMRoundRect*
0 Rectangle with rounded corners*
0 $1 Rounding radius*
0 $2 $3 $4 $5 $6 $7 $8 $9 X,Y pos of 4 corners*
0 Add a 4 corners polygon primitive as box body*
4,1,4,$2,$3,$4,$5,$6,$7,$8,$9,$2,$3,0*
0 Add four circle primitives for the rounded corners*
1,1,$1+$1,$2,$3*
1,1,$1+$1,$4,$5*
1,1,$1+$1,$6,$7*
1,1,$1+$1,$8,$9*
0 Add four rect primitives between the rounded corners*
20,1,$1+$1,$2,$3,$4,$5,0*
20,1,$1+$1,$4,$5,$6,$7,0*
20,1,$1+$1,$6,$7,$8,$9,0*
20,1,$1+$1,$8,$9,$2,$3,0*%
G04 Aperture macros list end*
%ADD10C,0.150000*%
%ADD11C,0.160000*%
%ADD12C,0.200000*%
%ADD13C,0.300000*%
%ADD14C,0.100000*%
%ADD15C,1.676000*%
%ADD16C,2.276000*%
%ADD17RoundRect,0.038000X0.850000X0.850000X-0.850000X0.850000X-0.850000X-0.850000X0.850000X-0.850000X0*%
%ADD18C,1.776000*%
%ADD19O,1.776000X1.076000*%
%ADD20RoundRect,0.761400X-3.276600X-1.776600X3.276600X-1.776600X3.276600X1.776600X-3.276600X1.776600X0*%
G04 APERTURE END LIST*
D10*
X74862058Y30056467D02*
X74862058Y30756467D01*
X74862058Y30756467D02*
X74519201Y30056467D01*
X74519201Y30056467D02*
X74519201Y30756467D01*
X73804916Y30789800D02*
X74319202Y29889800D01*
X73262059Y30123134D02*
X73290631Y30089800D01*
X73290631Y30089800D02*
X73376345Y30056467D01*
X73376345Y30056467D02*
X73433488Y30056467D01*
X73433488Y30056467D02*
X73519202Y30089800D01*
X73519202Y30089800D02*
X73576345Y30156467D01*
X73576345Y30156467D02*
X73604916Y30223134D01*
X73604916Y30223134D02*
X73633488Y30356467D01*
X73633488Y30356467D02*
X73633488Y30456467D01*
X73633488Y30456467D02*
X73604916Y30589800D01*
X73604916Y30589800D02*
X73576345Y30656467D01*
X73576345Y30656467D02*
X73519202Y30723134D01*
X73519202Y30723134D02*
X73433488Y30756467D01*
X73433488Y30756467D02*
X73376345Y30756467D01*
X73376345Y30756467D02*
X73290631Y30723134D01*
X73290631Y30723134D02*
X73262059Y30689800D01*
X75238458Y12103467D02*
X75238458Y12803467D01*
X75238458Y12803467D02*
X75009887Y12803467D01*
X75009887Y12803467D02*
X74952744Y12770134D01*
X74952744Y12770134D02*
X74924173Y12736800D01*
X74924173Y12736800D02*
X74895601Y12670134D01*
X74895601Y12670134D02*
X74895601Y12570134D01*
X74895601Y12570134D02*
X74924173Y12503467D01*
X74924173Y12503467D02*
X74952744Y12470134D01*
X74952744Y12470134D02*
X75009887Y12436800D01*
X75009887Y12436800D02*
X75238458Y12436800D01*
X74695601Y12803467D02*
X74552744Y12103467D01*
X74552744Y12103467D02*
X74438458Y12603467D01*
X74438458Y12603467D02*
X74324173Y12103467D01*
X74324173Y12103467D02*
X74181316Y12803467D01*
X73609887Y12103467D02*
X73809887Y12436800D01*
X73952744Y12103467D02*
X73952744Y12803467D01*
X73952744Y12803467D02*
X73724173Y12803467D01*
X73724173Y12803467D02*
X73667030Y12770134D01*
X73667030Y12770134D02*
X73638459Y12736800D01*
X73638459Y12736800D02*
X73609887Y12670134D01*
X73609887Y12670134D02*
X73609887Y12570134D01*
X73609887Y12570134D02*
X73638459Y12503467D01*
X73638459Y12503467D02*
X73667030Y12470134D01*
X73667030Y12470134D02*
X73724173Y12436800D01*
X73724173Y12436800D02*
X73952744Y12436800D01*
X73495602Y12036800D02*
X73038459Y12036800D01*
X72952744Y12570134D02*
X72809887Y12103467D01*
X72809887Y12103467D02*
X72667030Y12570134D01*
X72324173Y12803467D02*
X72209887Y12803467D01*
X72209887Y12803467D02*
X72152744Y12770134D01*
X72152744Y12770134D02*
X72095601Y12703467D01*
X72095601Y12703467D02*
X72067030Y12570134D01*
X72067030Y12570134D02*
X72067030Y12336800D01*
X72067030Y12336800D02*
X72095601Y12203467D01*
X72095601Y12203467D02*
X72152744Y12136800D01*
X72152744Y12136800D02*
X72209887Y12103467D01*
X72209887Y12103467D02*
X72324173Y12103467D01*
X72324173Y12103467D02*
X72381316Y12136800D01*
X72381316Y12136800D02*
X72438458Y12203467D01*
X72438458Y12203467D02*
X72467030Y12336800D01*
X72467030Y12336800D02*
X72467030Y12570134D01*
X72467030Y12570134D02*
X72438458Y12703467D01*
X72438458Y12703467D02*
X72381316Y12770134D01*
X72381316Y12770134D02*
X72324173Y12803467D01*
X71809887Y12803467D02*
X71809887Y12236800D01*
X71809887Y12236800D02*
X71781316Y12170134D01*
X71781316Y12170134D02*
X71752745Y12136800D01*
X71752745Y12136800D02*
X71695602Y12103467D01*
X71695602Y12103467D02*
X71581316Y12103467D01*
X71581316Y12103467D02*
X71524173Y12136800D01*
X71524173Y12136800D02*
X71495602Y12170134D01*
X71495602Y12170134D02*
X71467030Y12236800D01*
X71467030Y12236800D02*
X71467030Y12803467D01*
X71267031Y12803467D02*
X70924174Y12803467D01*
X71095602Y12103467D02*
X71095602Y12803467D01*
X70095602Y11836800D02*
X70124173Y11870134D01*
X70124173Y11870134D02*
X70181316Y11970134D01*
X70181316Y11970134D02*
X70209888Y12036800D01*
X70209888Y12036800D02*
X70238459Y12136800D01*
X70238459Y12136800D02*
X70267030Y12303467D01*
X70267030Y12303467D02*
X70267030Y12436800D01*
X70267030Y12436800D02*
X70238459Y12603467D01*
X70238459Y12603467D02*
X70209888Y12703467D01*
X70209888Y12703467D02*
X70181316Y12770134D01*
X70181316Y12770134D02*
X70124173Y12870134D01*
X70124173Y12870134D02*
X70095602Y12903467D01*
X69952745Y12803467D02*
X69752745Y12103467D01*
X69752745Y12103467D02*
X69552745Y12803467D01*
X69352744Y12103467D02*
X69352744Y12803467D01*
X69067030Y12103467D02*
X69067030Y12803467D01*
X69067030Y12803467D02*
X68724173Y12103467D01*
X68724173Y12103467D02*
X68724173Y12803467D01*
X68495602Y11836800D02*
X68467031Y11870134D01*
X68467031Y11870134D02*
X68409888Y11970134D01*
X68409888Y11970134D02*
X68381317Y12036800D01*
X68381317Y12036800D02*
X68352745Y12136800D01*
X68352745Y12136800D02*
X68324174Y12303467D01*
X68324174Y12303467D02*
X68324174Y12436800D01*
X68324174Y12436800D02*
X68352745Y12603467D01*
X68352745Y12603467D02*
X68381317Y12703467D01*
X68381317Y12703467D02*
X68409888Y12770134D01*
X68409888Y12770134D02*
X68467031Y12870134D01*
X68467031Y12870134D02*
X68495602Y12903467D01*
X74934173Y17860134D02*
X74991316Y17893467D01*
X74991316Y17893467D02*
X75077030Y17893467D01*
X75077030Y17893467D02*
X75162744Y17860134D01*
X75162744Y17860134D02*
X75219887Y17793467D01*
X75219887Y17793467D02*
X75248458Y17726800D01*
X75248458Y17726800D02*
X75277030Y17593467D01*
X75277030Y17593467D02*
X75277030Y17493467D01*
X75277030Y17493467D02*
X75248458Y17360134D01*
X75248458Y17360134D02*
X75219887Y17293467D01*
X75219887Y17293467D02*
X75162744Y17226800D01*
X75162744Y17226800D02*
X75077030Y17193467D01*
X75077030Y17193467D02*
X75019887Y17193467D01*
X75019887Y17193467D02*
X74934173Y17226800D01*
X74934173Y17226800D02*
X74905601Y17260134D01*
X74905601Y17260134D02*
X74905601Y17493467D01*
X74905601Y17493467D02*
X75019887Y17493467D01*
X74648458Y17193467D02*
X74648458Y17893467D01*
X74648458Y17893467D02*
X74305601Y17193467D01*
X74305601Y17193467D02*
X74305601Y17893467D01*
X74019887Y17193467D02*
X74019887Y17893467D01*
X74019887Y17893467D02*
X73877030Y17893467D01*
X73877030Y17893467D02*
X73791316Y17860134D01*
X73791316Y17860134D02*
X73734173Y17793467D01*
X73734173Y17793467D02*
X73705602Y17726800D01*
X73705602Y17726800D02*
X73677030Y17593467D01*
X73677030Y17593467D02*
X73677030Y17493467D01*
X73677030Y17493467D02*
X73705602Y17360134D01*
X73705602Y17360134D02*
X73734173Y17293467D01*
X73734173Y17293467D02*
X73791316Y17226800D01*
X73791316Y17226800D02*
X73877030Y17193467D01*
X73877030Y17193467D02*
X74019887Y17193467D01*
X75325601Y22983467D02*
X74954173Y22983467D01*
X74954173Y22983467D02*
X75154173Y22716800D01*
X75154173Y22716800D02*
X75068458Y22716800D01*
X75068458Y22716800D02*
X75011316Y22683467D01*
X75011316Y22683467D02*
X74982744Y22650134D01*
X74982744Y22650134D02*
X74954173Y22583467D01*
X74954173Y22583467D02*
X74954173Y22416800D01*
X74954173Y22416800D02*
X74982744Y22350134D01*
X74982744Y22350134D02*
X75011316Y22316800D01*
X75011316Y22316800D02*
X75068458Y22283467D01*
X75068458Y22283467D02*
X75239887Y22283467D01*
X75239887Y22283467D02*
X75297030Y22316800D01*
X75297030Y22316800D02*
X75325601Y22350134D01*
X74782744Y22983467D02*
X74582744Y22283467D01*
X74582744Y22283467D02*
X74382744Y22983467D01*
X74239886Y22983467D02*
X73868458Y22983467D01*
X73868458Y22983467D02*
X74068458Y22716800D01*
X74068458Y22716800D02*
X73982743Y22716800D01*
X73982743Y22716800D02*
X73925601Y22683467D01*
X73925601Y22683467D02*
X73897029Y22650134D01*
X73897029Y22650134D02*
X73868458Y22583467D01*
X73868458Y22583467D02*
X73868458Y22416800D01*
X73868458Y22416800D02*
X73897029Y22350134D01*
X73897029Y22350134D02*
X73925601Y22316800D01*
X73925601Y22316800D02*
X73982743Y22283467D01*
X73982743Y22283467D02*
X74154172Y22283467D01*
X74154172Y22283467D02*
X74211315Y22316800D01*
X74211315Y22316800D02*
X74239886Y22350134D01*
X74982744Y20493467D02*
X75268458Y20493467D01*
X75268458Y20493467D02*
X75297030Y20160134D01*
X75297030Y20160134D02*
X75268458Y20193467D01*
X75268458Y20193467D02*
X75211316Y20226800D01*
X75211316Y20226800D02*
X75068458Y20226800D01*
X75068458Y20226800D02*
X75011316Y20193467D01*
X75011316Y20193467D02*
X74982744Y20160134D01*
X74982744Y20160134D02*
X74954173Y20093467D01*
X74954173Y20093467D02*
X74954173Y19926800D01*
X74954173Y19926800D02*
X74982744Y19860134D01*
X74982744Y19860134D02*
X75011316Y19826800D01*
X75011316Y19826800D02*
X75068458Y19793467D01*
X75068458Y19793467D02*
X75211316Y19793467D01*
X75211316Y19793467D02*
X75268458Y19826800D01*
X75268458Y19826800D02*
X75297030Y19860134D01*
X74782744Y20493467D02*
X74582744Y19793467D01*
X74582744Y19793467D02*
X74382744Y20493467D01*
X75298458Y27263467D02*
X75298458Y27963467D01*
X75298458Y27963467D02*
X74955601Y27263467D01*
X74955601Y27263467D02*
X74955601Y27963467D01*
X74241316Y27996800D02*
X74755602Y27096800D01*
X73698459Y27330134D02*
X73727031Y27296800D01*
X73727031Y27296800D02*
X73812745Y27263467D01*
X73812745Y27263467D02*
X73869888Y27263467D01*
X73869888Y27263467D02*
X73955602Y27296800D01*
X73955602Y27296800D02*
X74012745Y27363467D01*
X74012745Y27363467D02*
X74041316Y27430134D01*
X74041316Y27430134D02*
X74069888Y27563467D01*
X74069888Y27563467D02*
X74069888Y27663467D01*
X74069888Y27663467D02*
X74041316Y27796800D01*
X74041316Y27796800D02*
X74012745Y27863467D01*
X74012745Y27863467D02*
X73955602Y27930134D01*
X73955602Y27930134D02*
X73869888Y27963467D01*
X73869888Y27963467D02*
X73812745Y27963467D01*
X73812745Y27963467D02*
X73727031Y27930134D01*
X73727031Y27930134D02*
X73698459Y27896800D01*
X75298458Y24693467D02*
X75298458Y25393467D01*
X75298458Y25393467D02*
X74955601Y24693467D01*
X74955601Y24693467D02*
X74955601Y25393467D01*
X74327030Y24693467D02*
X74527030Y25026800D01*
X74669887Y24693467D02*
X74669887Y25393467D01*
X74669887Y25393467D02*
X74441316Y25393467D01*
X74441316Y25393467D02*
X74384173Y25360134D01*
X74384173Y25360134D02*
X74355602Y25326800D01*
X74355602Y25326800D02*
X74327030Y25260134D01*
X74327030Y25260134D02*
X74327030Y25160134D01*
X74327030Y25160134D02*
X74355602Y25093467D01*
X74355602Y25093467D02*
X74384173Y25060134D01*
X74384173Y25060134D02*
X74441316Y25026800D01*
X74441316Y25026800D02*
X74669887Y25026800D01*
X74098459Y24726800D02*
X74012745Y24693467D01*
X74012745Y24693467D02*
X73869887Y24693467D01*
X73869887Y24693467D02*
X73812745Y24726800D01*
X73812745Y24726800D02*
X73784173Y24760134D01*
X73784173Y24760134D02*
X73755602Y24826800D01*
X73755602Y24826800D02*
X73755602Y24893467D01*
X73755602Y24893467D02*
X73784173Y24960134D01*
X73784173Y24960134D02*
X73812745Y24993467D01*
X73812745Y24993467D02*
X73869887Y25026800D01*
X73869887Y25026800D02*
X73984173Y25060134D01*
X73984173Y25060134D02*
X74041316Y25093467D01*
X74041316Y25093467D02*
X74069887Y25126800D01*
X74069887Y25126800D02*
X74098459Y25193467D01*
X74098459Y25193467D02*
X74098459Y25260134D01*
X74098459Y25260134D02*
X74069887Y25326800D01*
X74069887Y25326800D02*
X74041316Y25360134D01*
X74041316Y25360134D02*
X73984173Y25393467D01*
X73984173Y25393467D02*
X73841316Y25393467D01*
X73841316Y25393467D02*
X73755602Y25360134D01*
X73584173Y25393467D02*
X73241316Y25393467D01*
X73412744Y24693467D02*
X73412744Y25393467D01*
X72412744Y24426800D02*
X72441315Y24460134D01*
X72441315Y24460134D02*
X72498458Y24560134D01*
X72498458Y24560134D02*
X72527030Y24626800D01*
X72527030Y24626800D02*
X72555601Y24726800D01*
X72555601Y24726800D02*
X72584172Y24893467D01*
X72584172Y24893467D02*
X72584172Y25026800D01*
X72584172Y25026800D02*
X72555601Y25193467D01*
X72555601Y25193467D02*
X72527030Y25293467D01*
X72527030Y25293467D02*
X72498458Y25360134D01*
X72498458Y25360134D02*
X72441315Y25460134D01*
X72441315Y25460134D02*
X72412744Y25493467D01*
X72184172Y24693467D02*
X72184172Y25393467D01*
X72184172Y25393467D02*
X71841315Y24693467D01*
X71841315Y24693467D02*
X71841315Y25393467D01*
X71127030Y25426800D02*
X71641316Y24526800D01*
X70584173Y24760134D02*
X70612745Y24726800D01*
X70612745Y24726800D02*
X70698459Y24693467D01*
X70698459Y24693467D02*
X70755602Y24693467D01*
X70755602Y24693467D02*
X70841316Y24726800D01*
X70841316Y24726800D02*
X70898459Y24793467D01*
X70898459Y24793467D02*
X70927030Y24860134D01*
X70927030Y24860134D02*
X70955602Y24993467D01*
X70955602Y24993467D02*
X70955602Y25093467D01*
X70955602Y25093467D02*
X70927030Y25226800D01*
X70927030Y25226800D02*
X70898459Y25293467D01*
X70898459Y25293467D02*
X70841316Y25360134D01*
X70841316Y25360134D02*
X70755602Y25393467D01*
X70755602Y25393467D02*
X70698459Y25393467D01*
X70698459Y25393467D02*
X70612745Y25360134D01*
X70612745Y25360134D02*
X70584173Y25326800D01*
X70384173Y24426800D02*
X70355602Y24460134D01*
X70355602Y24460134D02*
X70298459Y24560134D01*
X70298459Y24560134D02*
X70269888Y24626800D01*
X70269888Y24626800D02*
X70241316Y24726800D01*
X70241316Y24726800D02*
X70212745Y24893467D01*
X70212745Y24893467D02*
X70212745Y25026800D01*
X70212745Y25026800D02*
X70241316Y25193467D01*
X70241316Y25193467D02*
X70269888Y25293467D01*
X70269888Y25293467D02*
X70298459Y25360134D01*
X70298459Y25360134D02*
X70355602Y25460134D01*
X70355602Y25460134D02*
X70384173Y25493467D01*
X75004173Y15340134D02*
X75061316Y15373467D01*
X75061316Y15373467D02*
X75147030Y15373467D01*
X75147030Y15373467D02*
X75232744Y15340134D01*
X75232744Y15340134D02*
X75289887Y15273467D01*
X75289887Y15273467D02*
X75318458Y15206800D01*
X75318458Y15206800D02*
X75347030Y15073467D01*
X75347030Y15073467D02*
X75347030Y14973467D01*
X75347030Y14973467D02*
X75318458Y14840134D01*
X75318458Y14840134D02*
X75289887Y14773467D01*
X75289887Y14773467D02*
X75232744Y14706800D01*
X75232744Y14706800D02*
X75147030Y14673467D01*
X75147030Y14673467D02*
X75089887Y14673467D01*
X75089887Y14673467D02*
X75004173Y14706800D01*
X75004173Y14706800D02*
X74975601Y14740134D01*
X74975601Y14740134D02*
X74975601Y14973467D01*
X74975601Y14973467D02*
X75089887Y14973467D01*
X74718458Y14673467D02*
X74718458Y15373467D01*
X74718458Y15373467D02*
X74375601Y14673467D01*
X74375601Y14673467D02*
X74375601Y15373467D01*
X74089887Y14673467D02*
X74089887Y15373467D01*
X74089887Y15373467D02*
X73947030Y15373467D01*
X73947030Y15373467D02*
X73861316Y15340134D01*
X73861316Y15340134D02*
X73804173Y15273467D01*
X73804173Y15273467D02*
X73775602Y15206800D01*
X73775602Y15206800D02*
X73747030Y15073467D01*
X73747030Y15073467D02*
X73747030Y14973467D01*
X73747030Y14973467D02*
X73775602Y14840134D01*
X73775602Y14840134D02*
X73804173Y14773467D01*
X73804173Y14773467D02*
X73861316Y14706800D01*
X73861316Y14706800D02*
X73947030Y14673467D01*
X73947030Y14673467D02*
X74089887Y14673467D01*
X75497058Y7221867D02*
X75497058Y7921867D01*
X75497058Y7921867D02*
X75268487Y7921867D01*
X75268487Y7921867D02*
X75211344Y7888534D01*
X75211344Y7888534D02*
X75182773Y7855200D01*
X75182773Y7855200D02*
X75154201Y7788534D01*
X75154201Y7788534D02*
X75154201Y7688534D01*
X75154201Y7688534D02*
X75182773Y7621867D01*
X75182773Y7621867D02*
X75211344Y7588534D01*
X75211344Y7588534D02*
X75268487Y7555200D01*
X75268487Y7555200D02*
X75497058Y7555200D01*
X74954201Y7921867D02*
X74811344Y7221867D01*
X74811344Y7221867D02*
X74697058Y7721867D01*
X74697058Y7721867D02*
X74582773Y7221867D01*
X74582773Y7221867D02*
X74439916Y7921867D01*
X73868487Y7221867D02*
X74068487Y7555200D01*
X74211344Y7221867D02*
X74211344Y7921867D01*
X74211344Y7921867D02*
X73982773Y7921867D01*
X73982773Y7921867D02*
X73925630Y7888534D01*
X73925630Y7888534D02*
X73897059Y7855200D01*
X73897059Y7855200D02*
X73868487Y7788534D01*
X73868487Y7788534D02*
X73868487Y7688534D01*
X73868487Y7688534D02*
X73897059Y7621867D01*
X73897059Y7621867D02*
X73925630Y7588534D01*
X73925630Y7588534D02*
X73982773Y7555200D01*
X73982773Y7555200D02*
X74211344Y7555200D01*
X73754202Y7155200D02*
X73297059Y7155200D01*
X73154201Y7221867D02*
X73154201Y7921867D01*
X73154201Y7921867D02*
X72811344Y7221867D01*
X72811344Y7221867D02*
X72811344Y7921867D01*
X72325630Y7588534D02*
X72239916Y7555200D01*
X72239916Y7555200D02*
X72211345Y7521867D01*
X72211345Y7521867D02*
X72182773Y7455200D01*
X72182773Y7455200D02*
X72182773Y7355200D01*
X72182773Y7355200D02*
X72211345Y7288534D01*
X72211345Y7288534D02*
X72239916Y7255200D01*
X72239916Y7255200D02*
X72297059Y7221867D01*
X72297059Y7221867D02*
X72525630Y7221867D01*
X72525630Y7221867D02*
X72525630Y7921867D01*
X72525630Y7921867D02*
X72325630Y7921867D01*
X72325630Y7921867D02*
X72268488Y7888534D01*
X72268488Y7888534D02*
X72239916Y7855200D01*
X72239916Y7855200D02*
X72211345Y7788534D01*
X72211345Y7788534D02*
X72211345Y7721867D01*
X72211345Y7721867D02*
X72239916Y7655200D01*
X72239916Y7655200D02*
X72268488Y7621867D01*
X72268488Y7621867D02*
X72325630Y7588534D01*
X72325630Y7588534D02*
X72525630Y7588534D01*
X71925630Y7921867D02*
X71925630Y7355200D01*
X71925630Y7355200D02*
X71897059Y7288534D01*
X71897059Y7288534D02*
X71868488Y7255200D01*
X71868488Y7255200D02*
X71811345Y7221867D01*
X71811345Y7221867D02*
X71697059Y7221867D01*
X71697059Y7221867D02*
X71639916Y7255200D01*
X71639916Y7255200D02*
X71611345Y7288534D01*
X71611345Y7288534D02*
X71582773Y7355200D01*
X71582773Y7355200D02*
X71582773Y7921867D01*
X71382774Y7921867D02*
X71039917Y7921867D01*
X71211345Y7221867D02*
X71211345Y7921867D01*
X70925631Y7921867D02*
X70582774Y7921867D01*
X70754202Y7221867D02*
X70754202Y7921867D01*
X70268488Y7921867D02*
X70154202Y7921867D01*
X70154202Y7921867D02*
X70097059Y7888534D01*
X70097059Y7888534D02*
X70039916Y7821867D01*
X70039916Y7821867D02*
X70011345Y7688534D01*
X70011345Y7688534D02*
X70011345Y7455200D01*
X70011345Y7455200D02*
X70039916Y7321867D01*
X70039916Y7321867D02*
X70097059Y7255200D01*
X70097059Y7255200D02*
X70154202Y7221867D01*
X70154202Y7221867D02*
X70268488Y7221867D01*
X70268488Y7221867D02*
X70325631Y7255200D01*
X70325631Y7255200D02*
X70382773Y7321867D01*
X70382773Y7321867D02*
X70411345Y7455200D01*
X70411345Y7455200D02*
X70411345Y7688534D01*
X70411345Y7688534D02*
X70382773Y7821867D01*
X70382773Y7821867D02*
X70325631Y7888534D01*
X70325631Y7888534D02*
X70268488Y7921867D01*
X69754202Y7221867D02*
X69754202Y7921867D01*
X69754202Y7921867D02*
X69411345Y7221867D01*
X69411345Y7221867D02*
X69411345Y7921867D01*
X75547030Y2116800D02*
X75461316Y2083467D01*
X75461316Y2083467D02*
X75318458Y2083467D01*
X75318458Y2083467D02*
X75261316Y2116800D01*
X75261316Y2116800D02*
X75232744Y2150134D01*
X75232744Y2150134D02*
X75204173Y2216800D01*
X75204173Y2216800D02*
X75204173Y2283467D01*
X75204173Y2283467D02*
X75232744Y2350134D01*
X75232744Y2350134D02*
X75261316Y2383467D01*
X75261316Y2383467D02*
X75318458Y2416800D01*
X75318458Y2416800D02*
X75432744Y2450134D01*
X75432744Y2450134D02*
X75489887Y2483467D01*
X75489887Y2483467D02*
X75518458Y2516800D01*
X75518458Y2516800D02*
X75547030Y2583467D01*
X75547030Y2583467D02*
X75547030Y2650134D01*
X75547030Y2650134D02*
X75518458Y2716800D01*
X75518458Y2716800D02*
X75489887Y2750134D01*
X75489887Y2750134D02*
X75432744Y2783467D01*
X75432744Y2783467D02*
X75289887Y2783467D01*
X75289887Y2783467D02*
X75204173Y2750134D01*
X74604172Y2150134D02*
X74632744Y2116800D01*
X74632744Y2116800D02*
X74718458Y2083467D01*
X74718458Y2083467D02*
X74775601Y2083467D01*
X74775601Y2083467D02*
X74861315Y2116800D01*
X74861315Y2116800D02*
X74918458Y2183467D01*
X74918458Y2183467D02*
X74947029Y2250134D01*
X74947029Y2250134D02*
X74975601Y2383467D01*
X74975601Y2383467D02*
X74975601Y2483467D01*
X74975601Y2483467D02*
X74947029Y2616800D01*
X74947029Y2616800D02*
X74918458Y2683467D01*
X74918458Y2683467D02*
X74861315Y2750134D01*
X74861315Y2750134D02*
X74775601Y2783467D01*
X74775601Y2783467D02*
X74718458Y2783467D01*
X74718458Y2783467D02*
X74632744Y2750134D01*
X74632744Y2750134D02*
X74604172Y2716800D01*
X74004172Y2150134D02*
X74032744Y2116800D01*
X74032744Y2116800D02*
X74118458Y2083467D01*
X74118458Y2083467D02*
X74175601Y2083467D01*
X74175601Y2083467D02*
X74261315Y2116800D01*
X74261315Y2116800D02*
X74318458Y2183467D01*
X74318458Y2183467D02*
X74347029Y2250134D01*
X74347029Y2250134D02*
X74375601Y2383467D01*
X74375601Y2383467D02*
X74375601Y2483467D01*
X74375601Y2483467D02*
X74347029Y2616800D01*
X74347029Y2616800D02*
X74318458Y2683467D01*
X74318458Y2683467D02*
X74261315Y2750134D01*
X74261315Y2750134D02*
X74175601Y2783467D01*
X74175601Y2783467D02*
X74118458Y2783467D01*
X74118458Y2783467D02*
X74032744Y2750134D01*
X74032744Y2750134D02*
X74004172Y2716800D01*
X73889887Y2016800D02*
X73432744Y2016800D01*
X73375601Y2783467D02*
X73175601Y2083467D01*
X73175601Y2083467D02*
X72975601Y2783467D01*
X72432743Y2150134D02*
X72461315Y2116800D01*
X72461315Y2116800D02*
X72547029Y2083467D01*
X72547029Y2083467D02*
X72604172Y2083467D01*
X72604172Y2083467D02*
X72689886Y2116800D01*
X72689886Y2116800D02*
X72747029Y2183467D01*
X72747029Y2183467D02*
X72775600Y2250134D01*
X72775600Y2250134D02*
X72804172Y2383467D01*
X72804172Y2383467D02*
X72804172Y2483467D01*
X72804172Y2483467D02*
X72775600Y2616800D01*
X72775600Y2616800D02*
X72747029Y2683467D01*
X72747029Y2683467D02*
X72689886Y2750134D01*
X72689886Y2750134D02*
X72604172Y2783467D01*
X72604172Y2783467D02*
X72547029Y2783467D01*
X72547029Y2783467D02*
X72461315Y2750134D01*
X72461315Y2750134D02*
X72432743Y2716800D01*
X71832743Y2150134D02*
X71861315Y2116800D01*
X71861315Y2116800D02*
X71947029Y2083467D01*
X71947029Y2083467D02*
X72004172Y2083467D01*
X72004172Y2083467D02*
X72089886Y2116800D01*
X72089886Y2116800D02*
X72147029Y2183467D01*
X72147029Y2183467D02*
X72175600Y2250134D01*
X72175600Y2250134D02*
X72204172Y2383467D01*
X72204172Y2383467D02*
X72204172Y2483467D01*
X72204172Y2483467D02*
X72175600Y2616800D01*
X72175600Y2616800D02*
X72147029Y2683467D01*
X72147029Y2683467D02*
X72089886Y2750134D01*
X72089886Y2750134D02*
X72004172Y2783467D01*
X72004172Y2783467D02*
X71947029Y2783467D01*
X71947029Y2783467D02*
X71861315Y2750134D01*
X71861315Y2750134D02*
X71832743Y2716800D01*
X71718458Y2016800D02*
X71261315Y2016800D01*
X71147029Y2116800D02*
X71061315Y2083467D01*
X71061315Y2083467D02*
X70918457Y2083467D01*
X70918457Y2083467D02*
X70861315Y2116800D01*
X70861315Y2116800D02*
X70832743Y2150134D01*
X70832743Y2150134D02*
X70804172Y2216800D01*
X70804172Y2216800D02*
X70804172Y2283467D01*
X70804172Y2283467D02*
X70832743Y2350134D01*
X70832743Y2350134D02*
X70861315Y2383467D01*
X70861315Y2383467D02*
X70918457Y2416800D01*
X70918457Y2416800D02*
X71032743Y2450134D01*
X71032743Y2450134D02*
X71089886Y2483467D01*
X71089886Y2483467D02*
X71118457Y2516800D01*
X71118457Y2516800D02*
X71147029Y2583467D01*
X71147029Y2583467D02*
X71147029Y2650134D01*
X71147029Y2650134D02*
X71118457Y2716800D01*
X71118457Y2716800D02*
X71089886Y2750134D01*
X71089886Y2750134D02*
X71032743Y2783467D01*
X71032743Y2783467D02*
X70889886Y2783467D01*
X70889886Y2783467D02*
X70804172Y2750134D01*
X70547028Y2450134D02*
X70347028Y2450134D01*
X70261314Y2083467D02*
X70547028Y2083467D01*
X70547028Y2083467D02*
X70547028Y2783467D01*
X70547028Y2783467D02*
X70261314Y2783467D01*
X69718457Y2083467D02*
X70004171Y2083467D01*
X70004171Y2083467D02*
X70004171Y2783467D01*
X69204172Y2083467D02*
X69547029Y2083467D01*
X69375600Y2083467D02*
X69375600Y2783467D01*
X69375600Y2783467D02*
X69432743Y2683467D01*
X69432743Y2683467D02*
X69489886Y2616800D01*
X69489886Y2616800D02*
X69547029Y2583467D01*
X68318457Y1816800D02*
X68347028Y1850134D01*
X68347028Y1850134D02*
X68404171Y1950134D01*
X68404171Y1950134D02*
X68432743Y2016800D01*
X68432743Y2016800D02*
X68461314Y2116800D01*
X68461314Y2116800D02*
X68489885Y2283467D01*
X68489885Y2283467D02*
X68489885Y2416800D01*
X68489885Y2416800D02*
X68461314Y2583467D01*
X68461314Y2583467D02*
X68432743Y2683467D01*
X68432743Y2683467D02*
X68404171Y2750134D01*
X68404171Y2750134D02*
X68347028Y2850134D01*
X68347028Y2850134D02*
X68318457Y2883467D01*
X68089885Y2083467D02*
X68089885Y2783467D01*
X68089885Y2783467D02*
X67747028Y2083467D01*
X67747028Y2083467D02*
X67747028Y2783467D01*
X67032743Y2816800D02*
X67547029Y1916800D01*
X66489886Y2150134D02*
X66518458Y2116800D01*
X66518458Y2116800D02*
X66604172Y2083467D01*
X66604172Y2083467D02*
X66661315Y2083467D01*
X66661315Y2083467D02*
X66747029Y2116800D01*
X66747029Y2116800D02*
X66804172Y2183467D01*
X66804172Y2183467D02*
X66832743Y2250134D01*
X66832743Y2250134D02*
X66861315Y2383467D01*
X66861315Y2383467D02*
X66861315Y2483467D01*
X66861315Y2483467D02*
X66832743Y2616800D01*
X66832743Y2616800D02*
X66804172Y2683467D01*
X66804172Y2683467D02*
X66747029Y2750134D01*
X66747029Y2750134D02*
X66661315Y2783467D01*
X66661315Y2783467D02*
X66604172Y2783467D01*
X66604172Y2783467D02*
X66518458Y2750134D01*
X66518458Y2750134D02*
X66489886Y2716800D01*
X66289886Y1816800D02*
X66261315Y1850134D01*
X66261315Y1850134D02*
X66204172Y1950134D01*
X66204172Y1950134D02*
X66175601Y2016800D01*
X66175601Y2016800D02*
X66147029Y2116800D01*
X66147029Y2116800D02*
X66118458Y2283467D01*
X66118458Y2283467D02*
X66118458Y2416800D01*
X66118458Y2416800D02*
X66147029Y2583467D01*
X66147029Y2583467D02*
X66175601Y2683467D01*
X66175601Y2683467D02*
X66204172Y2750134D01*
X66204172Y2750134D02*
X66261315Y2850134D01*
X66261315Y2850134D02*
X66289886Y2883467D01*
X75547030Y-523200D02*
X75461316Y-556533D01*
X75461316Y-556533D02*
X75318458Y-556533D01*
X75318458Y-556533D02*
X75261316Y-523200D01*
X75261316Y-523200D02*
X75232744Y-489866D01*
X75232744Y-489866D02*
X75204173Y-423200D01*
X75204173Y-423200D02*
X75204173Y-356533D01*
X75204173Y-356533D02*
X75232744Y-289866D01*
X75232744Y-289866D02*
X75261316Y-256533D01*
X75261316Y-256533D02*
X75318458Y-223200D01*
X75318458Y-223200D02*
X75432744Y-189866D01*
X75432744Y-189866D02*
X75489887Y-156533D01*
X75489887Y-156533D02*
X75518458Y-123200D01*
X75518458Y-123200D02*
X75547030Y-56533D01*
X75547030Y-56533D02*
X75547030Y10134D01*
X75547030Y10134D02*
X75518458Y76800D01*
X75518458Y76800D02*
X75489887Y110134D01*
X75489887Y110134D02*
X75432744Y143467D01*
X75432744Y143467D02*
X75289887Y143467D01*
X75289887Y143467D02*
X75204173Y110134D01*
X74604172Y-489866D02*
X74632744Y-523200D01*
X74632744Y-523200D02*
X74718458Y-556533D01*
X74718458Y-556533D02*
X74775601Y-556533D01*
X74775601Y-556533D02*
X74861315Y-523200D01*
X74861315Y-523200D02*
X74918458Y-456533D01*
X74918458Y-456533D02*
X74947029Y-389866D01*
X74947029Y-389866D02*
X74975601Y-256533D01*
X74975601Y-256533D02*
X74975601Y-156533D01*
X74975601Y-156533D02*
X74947029Y-23200D01*
X74947029Y-23200D02*
X74918458Y43467D01*
X74918458Y43467D02*
X74861315Y110134D01*
X74861315Y110134D02*
X74775601Y143467D01*
X74775601Y143467D02*
X74718458Y143467D01*
X74718458Y143467D02*
X74632744Y110134D01*
X74632744Y110134D02*
X74604172Y76800D01*
X74489887Y-623200D02*
X74032744Y-623200D01*
X73975601Y143467D02*
X73775601Y-556533D01*
X73775601Y-556533D02*
X73575601Y143467D01*
X73032743Y-489866D02*
X73061315Y-523200D01*
X73061315Y-523200D02*
X73147029Y-556533D01*
X73147029Y-556533D02*
X73204172Y-556533D01*
X73204172Y-556533D02*
X73289886Y-523200D01*
X73289886Y-523200D02*
X73347029Y-456533D01*
X73347029Y-456533D02*
X73375600Y-389866D01*
X73375600Y-389866D02*
X73404172Y-256533D01*
X73404172Y-256533D02*
X73404172Y-156533D01*
X73404172Y-156533D02*
X73375600Y-23200D01*
X73375600Y-23200D02*
X73347029Y43467D01*
X73347029Y43467D02*
X73289886Y110134D01*
X73289886Y110134D02*
X73204172Y143467D01*
X73204172Y143467D02*
X73147029Y143467D01*
X73147029Y143467D02*
X73061315Y110134D01*
X73061315Y110134D02*
X73032743Y76800D01*
X72432743Y-489866D02*
X72461315Y-523200D01*
X72461315Y-523200D02*
X72547029Y-556533D01*
X72547029Y-556533D02*
X72604172Y-556533D01*
X72604172Y-556533D02*
X72689886Y-523200D01*
X72689886Y-523200D02*
X72747029Y-456533D01*
X72747029Y-456533D02*
X72775600Y-389866D01*
X72775600Y-389866D02*
X72804172Y-256533D01*
X72804172Y-256533D02*
X72804172Y-156533D01*
X72804172Y-156533D02*
X72775600Y-23200D01*
X72775600Y-23200D02*
X72747029Y43467D01*
X72747029Y43467D02*
X72689886Y110134D01*
X72689886Y110134D02*
X72604172Y143467D01*
X72604172Y143467D02*
X72547029Y143467D01*
X72547029Y143467D02*
X72461315Y110134D01*
X72461315Y110134D02*
X72432743Y76800D01*
X72318458Y-623200D02*
X71861315Y-623200D01*
X71747029Y-523200D02*
X71661315Y-556533D01*
X71661315Y-556533D02*
X71518457Y-556533D01*
X71518457Y-556533D02*
X71461315Y-523200D01*
X71461315Y-523200D02*
X71432743Y-489866D01*
X71432743Y-489866D02*
X71404172Y-423200D01*
X71404172Y-423200D02*
X71404172Y-356533D01*
X71404172Y-356533D02*
X71432743Y-289866D01*
X71432743Y-289866D02*
X71461315Y-256533D01*
X71461315Y-256533D02*
X71518457Y-223200D01*
X71518457Y-223200D02*
X71632743Y-189866D01*
X71632743Y-189866D02*
X71689886Y-156533D01*
X71689886Y-156533D02*
X71718457Y-123200D01*
X71718457Y-123200D02*
X71747029Y-56533D01*
X71747029Y-56533D02*
X71747029Y10134D01*
X71747029Y10134D02*
X71718457Y76800D01*
X71718457Y76800D02*
X71689886Y110134D01*
X71689886Y110134D02*
X71632743Y143467D01*
X71632743Y143467D02*
X71489886Y143467D01*
X71489886Y143467D02*
X71404172Y110134D01*
X71147028Y-189866D02*
X70947028Y-189866D01*
X70861314Y-556533D02*
X71147028Y-556533D01*
X71147028Y-556533D02*
X71147028Y143467D01*
X71147028Y143467D02*
X70861314Y143467D01*
X70318457Y-556533D02*
X70604171Y-556533D01*
X70604171Y-556533D02*
X70604171Y143467D01*
X70147029Y76800D02*
X70118457Y110134D01*
X70118457Y110134D02*
X70061315Y143467D01*
X70061315Y143467D02*
X69918457Y143467D01*
X69918457Y143467D02*
X69861315Y110134D01*
X69861315Y110134D02*
X69832743Y76800D01*
X69832743Y76800D02*
X69804172Y10134D01*
X69804172Y10134D02*
X69804172Y-56533D01*
X69804172Y-56533D02*
X69832743Y-156533D01*
X69832743Y-156533D02*
X70175600Y-556533D01*
X70175600Y-556533D02*
X69804172Y-556533D01*
X68918457Y-823200D02*
X68947028Y-789866D01*
X68947028Y-789866D02*
X69004171Y-689866D01*
X69004171Y-689866D02*
X69032743Y-623200D01*
X69032743Y-623200D02*
X69061314Y-523200D01*
X69061314Y-523200D02*
X69089885Y-356533D01*
X69089885Y-356533D02*
X69089885Y-223200D01*
X69089885Y-223200D02*
X69061314Y-56533D01*
X69061314Y-56533D02*
X69032743Y43467D01*
X69032743Y43467D02*
X69004171Y110134D01*
X69004171Y110134D02*
X68947028Y210134D01*
X68947028Y210134D02*
X68918457Y243467D01*
X68689885Y-556533D02*
X68689885Y143467D01*
X68689885Y143467D02*
X68347028Y-556533D01*
X68347028Y-556533D02*
X68347028Y143467D01*
X67632743Y176800D02*
X68147029Y-723200D01*
X67089886Y-489866D02*
X67118458Y-523200D01*
X67118458Y-523200D02*
X67204172Y-556533D01*
X67204172Y-556533D02*
X67261315Y-556533D01*
X67261315Y-556533D02*
X67347029Y-523200D01*
X67347029Y-523200D02*
X67404172Y-456533D01*
X67404172Y-456533D02*
X67432743Y-389866D01*
X67432743Y-389866D02*
X67461315Y-256533D01*
X67461315Y-256533D02*
X67461315Y-156533D01*
X67461315Y-156533D02*
X67432743Y-23200D01*
X67432743Y-23200D02*
X67404172Y43467D01*
X67404172Y43467D02*
X67347029Y110134D01*
X67347029Y110134D02*
X67261315Y143467D01*
X67261315Y143467D02*
X67204172Y143467D01*
X67204172Y143467D02*
X67118458Y110134D01*
X67118458Y110134D02*
X67089886Y76800D01*
X66889886Y-823200D02*
X66861315Y-789866D01*
X66861315Y-789866D02*
X66804172Y-689866D01*
X66804172Y-689866D02*
X66775601Y-623200D01*
X66775601Y-623200D02*
X66747029Y-523200D01*
X66747029Y-523200D02*
X66718458Y-356533D01*
X66718458Y-356533D02*
X66718458Y-223200D01*
X66718458Y-223200D02*
X66747029Y-56533D01*
X66747029Y-56533D02*
X66775601Y43467D01*
X66775601Y43467D02*
X66804172Y110134D01*
X66804172Y110134D02*
X66861315Y210134D01*
X66861315Y210134D02*
X66889886Y243467D01*
X75547030Y-3013200D02*
X75461316Y-3046533D01*
X75461316Y-3046533D02*
X75318458Y-3046533D01*
X75318458Y-3046533D02*
X75261316Y-3013200D01*
X75261316Y-3013200D02*
X75232744Y-2979866D01*
X75232744Y-2979866D02*
X75204173Y-2913200D01*
X75204173Y-2913200D02*
X75204173Y-2846533D01*
X75204173Y-2846533D02*
X75232744Y-2779866D01*
X75232744Y-2779866D02*
X75261316Y-2746533D01*
X75261316Y-2746533D02*
X75318458Y-2713200D01*
X75318458Y-2713200D02*
X75432744Y-2679866D01*
X75432744Y-2679866D02*
X75489887Y-2646533D01*
X75489887Y-2646533D02*
X75518458Y-2613200D01*
X75518458Y-2613200D02*
X75547030Y-2546533D01*
X75547030Y-2546533D02*
X75547030Y-2479866D01*
X75547030Y-2479866D02*
X75518458Y-2413200D01*
X75518458Y-2413200D02*
X75489887Y-2379866D01*
X75489887Y-2379866D02*
X75432744Y-2346533D01*
X75432744Y-2346533D02*
X75289887Y-2346533D01*
X75289887Y-2346533D02*
X75204173Y-2379866D01*
X74604172Y-2979866D02*
X74632744Y-3013200D01*
X74632744Y-3013200D02*
X74718458Y-3046533D01*
X74718458Y-3046533D02*
X74775601Y-3046533D01*
X74775601Y-3046533D02*
X74861315Y-3013200D01*
X74861315Y-3013200D02*
X74918458Y-2946533D01*
X74918458Y-2946533D02*
X74947029Y-2879866D01*
X74947029Y-2879866D02*
X74975601Y-2746533D01*
X74975601Y-2746533D02*
X74975601Y-2646533D01*
X74975601Y-2646533D02*
X74947029Y-2513200D01*
X74947029Y-2513200D02*
X74918458Y-2446533D01*
X74918458Y-2446533D02*
X74861315Y-2379866D01*
X74861315Y-2379866D02*
X74775601Y-2346533D01*
X74775601Y-2346533D02*
X74718458Y-2346533D01*
X74718458Y-2346533D02*
X74632744Y-2379866D01*
X74632744Y-2379866D02*
X74604172Y-2413200D01*
X74489887Y-3113200D02*
X74032744Y-3113200D01*
X73889886Y-3046533D02*
X73889886Y-2346533D01*
X73889886Y-2346533D02*
X73547029Y-3046533D01*
X73547029Y-3046533D02*
X73547029Y-2346533D01*
X72918458Y-2979866D02*
X72947030Y-3013200D01*
X72947030Y-3013200D02*
X73032744Y-3046533D01*
X73032744Y-3046533D02*
X73089887Y-3046533D01*
X73089887Y-3046533D02*
X73175601Y-3013200D01*
X73175601Y-3013200D02*
X73232744Y-2946533D01*
X73232744Y-2946533D02*
X73261315Y-2879866D01*
X73261315Y-2879866D02*
X73289887Y-2746533D01*
X73289887Y-2746533D02*
X73289887Y-2646533D01*
X73289887Y-2646533D02*
X73261315Y-2513200D01*
X73261315Y-2513200D02*
X73232744Y-2446533D01*
X73232744Y-2446533D02*
X73175601Y-2379866D01*
X73175601Y-2379866D02*
X73089887Y-2346533D01*
X73089887Y-2346533D02*
X73032744Y-2346533D01*
X73032744Y-2346533D02*
X72947030Y-2379866D01*
X72947030Y-2379866D02*
X72918458Y-2413200D01*
X72661315Y-3046533D02*
X72661315Y-2346533D01*
X72661315Y-2346533D02*
X72461315Y-2846533D01*
X72461315Y-2846533D02*
X72261315Y-2346533D01*
X72261315Y-2346533D02*
X72261315Y-3046533D01*
X71975601Y-3046533D02*
X71975601Y-2346533D01*
X71975601Y-2346533D02*
X71832744Y-2346533D01*
X71832744Y-2346533D02*
X71747030Y-2379866D01*
X71747030Y-2379866D02*
X71689887Y-2446533D01*
X71689887Y-2446533D02*
X71661316Y-2513200D01*
X71661316Y-2513200D02*
X71632744Y-2646533D01*
X71632744Y-2646533D02*
X71632744Y-2746533D01*
X71632744Y-2746533D02*
X71661316Y-2879866D01*
X71661316Y-2879866D02*
X71689887Y-2946533D01*
X71689887Y-2946533D02*
X71747030Y-3013200D01*
X71747030Y-3013200D02*
X71832744Y-3046533D01*
X71832744Y-3046533D02*
X71975601Y-3046533D01*
X71461316Y-2346533D02*
X71261316Y-3046533D01*
X71261316Y-3046533D02*
X71061316Y-2346533D01*
X70518458Y-2979866D02*
X70547030Y-3013200D01*
X70547030Y-3013200D02*
X70632744Y-3046533D01*
X70632744Y-3046533D02*
X70689887Y-3046533D01*
X70689887Y-3046533D02*
X70775601Y-3013200D01*
X70775601Y-3013200D02*
X70832744Y-2946533D01*
X70832744Y-2946533D02*
X70861315Y-2879866D01*
X70861315Y-2879866D02*
X70889887Y-2746533D01*
X70889887Y-2746533D02*
X70889887Y-2646533D01*
X70889887Y-2646533D02*
X70861315Y-2513200D01*
X70861315Y-2513200D02*
X70832744Y-2446533D01*
X70832744Y-2446533D02*
X70775601Y-2379866D01*
X70775601Y-2379866D02*
X70689887Y-2346533D01*
X70689887Y-2346533D02*
X70632744Y-2346533D01*
X70632744Y-2346533D02*
X70547030Y-2379866D01*
X70547030Y-2379866D02*
X70518458Y-2413200D01*
X69918458Y-2979866D02*
X69947030Y-3013200D01*
X69947030Y-3013200D02*
X70032744Y-3046533D01*
X70032744Y-3046533D02*
X70089887Y-3046533D01*
X70089887Y-3046533D02*
X70175601Y-3013200D01*
X70175601Y-3013200D02*
X70232744Y-2946533D01*
X70232744Y-2946533D02*
X70261315Y-2879866D01*
X70261315Y-2879866D02*
X70289887Y-2746533D01*
X70289887Y-2746533D02*
X70289887Y-2646533D01*
X70289887Y-2646533D02*
X70261315Y-2513200D01*
X70261315Y-2513200D02*
X70232744Y-2446533D01*
X70232744Y-2446533D02*
X70175601Y-2379866D01*
X70175601Y-2379866D02*
X70089887Y-2346533D01*
X70089887Y-2346533D02*
X70032744Y-2346533D01*
X70032744Y-2346533D02*
X69947030Y-2379866D01*
X69947030Y-2379866D02*
X69918458Y-2413200D01*
X75577030Y-5643200D02*
X75491316Y-5676533D01*
X75491316Y-5676533D02*
X75348458Y-5676533D01*
X75348458Y-5676533D02*
X75291316Y-5643200D01*
X75291316Y-5643200D02*
X75262744Y-5609866D01*
X75262744Y-5609866D02*
X75234173Y-5543200D01*
X75234173Y-5543200D02*
X75234173Y-5476533D01*
X75234173Y-5476533D02*
X75262744Y-5409866D01*
X75262744Y-5409866D02*
X75291316Y-5376533D01*
X75291316Y-5376533D02*
X75348458Y-5343200D01*
X75348458Y-5343200D02*
X75462744Y-5309866D01*
X75462744Y-5309866D02*
X75519887Y-5276533D01*
X75519887Y-5276533D02*
X75548458Y-5243200D01*
X75548458Y-5243200D02*
X75577030Y-5176533D01*
X75577030Y-5176533D02*
X75577030Y-5109866D01*
X75577030Y-5109866D02*
X75548458Y-5043200D01*
X75548458Y-5043200D02*
X75519887Y-5009866D01*
X75519887Y-5009866D02*
X75462744Y-4976533D01*
X75462744Y-4976533D02*
X75319887Y-4976533D01*
X75319887Y-4976533D02*
X75234173Y-5009866D01*
X74634172Y-5609866D02*
X74662744Y-5643200D01*
X74662744Y-5643200D02*
X74748458Y-5676533D01*
X74748458Y-5676533D02*
X74805601Y-5676533D01*
X74805601Y-5676533D02*
X74891315Y-5643200D01*
X74891315Y-5643200D02*
X74948458Y-5576533D01*
X74948458Y-5576533D02*
X74977029Y-5509866D01*
X74977029Y-5509866D02*
X75005601Y-5376533D01*
X75005601Y-5376533D02*
X75005601Y-5276533D01*
X75005601Y-5276533D02*
X74977029Y-5143200D01*
X74977029Y-5143200D02*
X74948458Y-5076533D01*
X74948458Y-5076533D02*
X74891315Y-5009866D01*
X74891315Y-5009866D02*
X74805601Y-4976533D01*
X74805601Y-4976533D02*
X74748458Y-4976533D01*
X74748458Y-4976533D02*
X74662744Y-5009866D01*
X74662744Y-5009866D02*
X74634172Y-5043200D01*
X74519887Y-5743200D02*
X74062744Y-5743200D01*
X73577029Y-5609866D02*
X73605601Y-5643200D01*
X73605601Y-5643200D02*
X73691315Y-5676533D01*
X73691315Y-5676533D02*
X73748458Y-5676533D01*
X73748458Y-5676533D02*
X73834172Y-5643200D01*
X73834172Y-5643200D02*
X73891315Y-5576533D01*
X73891315Y-5576533D02*
X73919886Y-5509866D01*
X73919886Y-5509866D02*
X73948458Y-5376533D01*
X73948458Y-5376533D02*
X73948458Y-5276533D01*
X73948458Y-5276533D02*
X73919886Y-5143200D01*
X73919886Y-5143200D02*
X73891315Y-5076533D01*
X73891315Y-5076533D02*
X73834172Y-5009866D01*
X73834172Y-5009866D02*
X73748458Y-4976533D01*
X73748458Y-4976533D02*
X73691315Y-4976533D01*
X73691315Y-4976533D02*
X73605601Y-5009866D01*
X73605601Y-5009866D02*
X73577029Y-5043200D01*
X73034172Y-5676533D02*
X73319886Y-5676533D01*
X73319886Y-5676533D02*
X73319886Y-4976533D01*
X72834172Y-5676533D02*
X72834172Y-4976533D01*
X72491315Y-5676533D02*
X72748458Y-5276533D01*
X72491315Y-4976533D02*
X72834172Y-5376533D01*
X75647030Y4596800D02*
X75561316Y4563467D01*
X75561316Y4563467D02*
X75418458Y4563467D01*
X75418458Y4563467D02*
X75361316Y4596800D01*
X75361316Y4596800D02*
X75332744Y4630134D01*
X75332744Y4630134D02*
X75304173Y4696800D01*
X75304173Y4696800D02*
X75304173Y4763467D01*
X75304173Y4763467D02*
X75332744Y4830134D01*
X75332744Y4830134D02*
X75361316Y4863467D01*
X75361316Y4863467D02*
X75418458Y4896800D01*
X75418458Y4896800D02*
X75532744Y4930134D01*
X75532744Y4930134D02*
X75589887Y4963467D01*
X75589887Y4963467D02*
X75618458Y4996800D01*
X75618458Y4996800D02*
X75647030Y5063467D01*
X75647030Y5063467D02*
X75647030Y5130134D01*
X75647030Y5130134D02*
X75618458Y5196800D01*
X75618458Y5196800D02*
X75589887Y5230134D01*
X75589887Y5230134D02*
X75532744Y5263467D01*
X75532744Y5263467D02*
X75389887Y5263467D01*
X75389887Y5263467D02*
X75304173Y5230134D01*
X74704172Y4630134D02*
X74732744Y4596800D01*
X74732744Y4596800D02*
X74818458Y4563467D01*
X74818458Y4563467D02*
X74875601Y4563467D01*
X74875601Y4563467D02*
X74961315Y4596800D01*
X74961315Y4596800D02*
X75018458Y4663467D01*
X75018458Y4663467D02*
X75047029Y4730134D01*
X75047029Y4730134D02*
X75075601Y4863467D01*
X75075601Y4863467D02*
X75075601Y4963467D01*
X75075601Y4963467D02*
X75047029Y5096800D01*
X75047029Y5096800D02*
X75018458Y5163467D01*
X75018458Y5163467D02*
X74961315Y5230134D01*
X74961315Y5230134D02*
X74875601Y5263467D01*
X74875601Y5263467D02*
X74818458Y5263467D01*
X74818458Y5263467D02*
X74732744Y5230134D01*
X74732744Y5230134D02*
X74704172Y5196800D01*
X74589887Y4496800D02*
X74132744Y4496800D01*
X73989886Y4563467D02*
X73989886Y5263467D01*
X73989886Y5263467D02*
X73647029Y4563467D01*
X73647029Y4563467D02*
X73647029Y5263467D01*
X73247030Y5263467D02*
X73132744Y5263467D01*
X73132744Y5263467D02*
X73075601Y5230134D01*
X73075601Y5230134D02*
X73018458Y5163467D01*
X73018458Y5163467D02*
X72989887Y5030134D01*
X72989887Y5030134D02*
X72989887Y4796800D01*
X72989887Y4796800D02*
X73018458Y4663467D01*
X73018458Y4663467D02*
X73075601Y4596800D01*
X73075601Y4596800D02*
X73132744Y4563467D01*
X73132744Y4563467D02*
X73247030Y4563467D01*
X73247030Y4563467D02*
X73304173Y4596800D01*
X73304173Y4596800D02*
X73361315Y4663467D01*
X73361315Y4663467D02*
X73389887Y4796800D01*
X73389887Y4796800D02*
X73389887Y5030134D01*
X73389887Y5030134D02*
X73361315Y5163467D01*
X73361315Y5163467D02*
X73304173Y5230134D01*
X73304173Y5230134D02*
X73247030Y5263467D01*
X72532744Y4930134D02*
X72732744Y4930134D01*
X72732744Y4563467D02*
X72732744Y5263467D01*
X72732744Y5263467D02*
X72447030Y5263467D01*
X72018458Y4930134D02*
X72218458Y4930134D01*
X72218458Y4563467D02*
X72218458Y5263467D01*
X72218458Y5263467D02*
X71932744Y5263467D01*
X79847030Y-29195356D02*
X79761316Y-29228689D01*
X79761316Y-29228689D02*
X79618458Y-29228689D01*
X79618458Y-29228689D02*
X79561316Y-29195356D01*
X79561316Y-29195356D02*
X79532744Y-29162022D01*
X79532744Y-29162022D02*
X79504173Y-29095356D01*
X79504173Y-29095356D02*
X79504173Y-29028689D01*
X79504173Y-29028689D02*
X79532744Y-28962022D01*
X79532744Y-28962022D02*
X79561316Y-28928689D01*
X79561316Y-28928689D02*
X79618458Y-28895356D01*
X79618458Y-28895356D02*
X79732744Y-28862022D01*
X79732744Y-28862022D02*
X79789887Y-28828689D01*
X79789887Y-28828689D02*
X79818458Y-28795356D01*
X79818458Y-28795356D02*
X79847030Y-28728689D01*
X79847030Y-28728689D02*
X79847030Y-28662022D01*
X79847030Y-28662022D02*
X79818458Y-28595356D01*
X79818458Y-28595356D02*
X79789887Y-28562022D01*
X79789887Y-28562022D02*
X79732744Y-28528689D01*
X79732744Y-28528689D02*
X79589887Y-28528689D01*
X79589887Y-28528689D02*
X79504173Y-28562022D01*
X79247029Y-28762022D02*
X79247029Y-29462022D01*
X79247029Y-28795356D02*
X79189887Y-28762022D01*
X79189887Y-28762022D02*
X79075601Y-28762022D01*
X79075601Y-28762022D02*
X79018458Y-28795356D01*
X79018458Y-28795356D02*
X78989887Y-28828689D01*
X78989887Y-28828689D02*
X78961315Y-28895356D01*
X78961315Y-28895356D02*
X78961315Y-29095356D01*
X78961315Y-29095356D02*
X78989887Y-29162022D01*
X78989887Y-29162022D02*
X79018458Y-29195356D01*
X79018458Y-29195356D02*
X79075601Y-29228689D01*
X79075601Y-29228689D02*
X79189887Y-29228689D01*
X79189887Y-29228689D02*
X79247029Y-29195356D01*
X78475601Y-29195356D02*
X78532744Y-29228689D01*
X78532744Y-29228689D02*
X78647030Y-29228689D01*
X78647030Y-29228689D02*
X78704172Y-29195356D01*
X78704172Y-29195356D02*
X78732744Y-29128689D01*
X78732744Y-29128689D02*
X78732744Y-28862022D01*
X78732744Y-28862022D02*
X78704172Y-28795356D01*
X78704172Y-28795356D02*
X78647030Y-28762022D01*
X78647030Y-28762022D02*
X78532744Y-28762022D01*
X78532744Y-28762022D02*
X78475601Y-28795356D01*
X78475601Y-28795356D02*
X78447030Y-28862022D01*
X78447030Y-28862022D02*
X78447030Y-28928689D01*
X78447030Y-28928689D02*
X78732744Y-28995356D01*
X77932744Y-29195356D02*
X77989886Y-29228689D01*
X77989886Y-29228689D02*
X78104172Y-29228689D01*
X78104172Y-29228689D02*
X78161315Y-29195356D01*
X78161315Y-29195356D02*
X78189886Y-29162022D01*
X78189886Y-29162022D02*
X78218458Y-29095356D01*
X78218458Y-29095356D02*
X78218458Y-28895356D01*
X78218458Y-28895356D02*
X78189886Y-28828689D01*
X78189886Y-28828689D02*
X78161315Y-28795356D01*
X78161315Y-28795356D02*
X78104172Y-28762022D01*
X78104172Y-28762022D02*
X77989886Y-28762022D01*
X77989886Y-28762022D02*
X77932744Y-28795356D01*
X77761315Y-28762022D02*
X77532743Y-28762022D01*
X77675600Y-28528689D02*
X77675600Y-29128689D01*
X77675600Y-29128689D02*
X77647029Y-29195356D01*
X77647029Y-29195356D02*
X77589886Y-29228689D01*
X77589886Y-29228689D02*
X77532743Y-29228689D01*
X77104172Y-29195356D02*
X77161315Y-29228689D01*
X77161315Y-29228689D02*
X77275601Y-29228689D01*
X77275601Y-29228689D02*
X77332743Y-29195356D01*
X77332743Y-29195356D02*
X77361315Y-29128689D01*
X77361315Y-29128689D02*
X77361315Y-28862022D01*
X77361315Y-28862022D02*
X77332743Y-28795356D01*
X77332743Y-28795356D02*
X77275601Y-28762022D01*
X77275601Y-28762022D02*
X77161315Y-28762022D01*
X77161315Y-28762022D02*
X77104172Y-28795356D01*
X77104172Y-28795356D02*
X77075601Y-28862022D01*
X77075601Y-28862022D02*
X77075601Y-28928689D01*
X77075601Y-28928689D02*
X77361315Y-28995356D01*
X76818457Y-29228689D02*
X76818457Y-28762022D01*
X76818457Y-28895356D02*
X76789886Y-28828689D01*
X76789886Y-28828689D02*
X76761315Y-28795356D01*
X76761315Y-28795356D02*
X76704172Y-28762022D01*
X76704172Y-28762022D02*
X76647029Y-28762022D01*
X76018457Y-29195356D02*
X75932743Y-29228689D01*
X75932743Y-29228689D02*
X75789885Y-29228689D01*
X75789885Y-29228689D02*
X75732743Y-29195356D01*
X75732743Y-29195356D02*
X75704171Y-29162022D01*
X75704171Y-29162022D02*
X75675600Y-29095356D01*
X75675600Y-29095356D02*
X75675600Y-29028689D01*
X75675600Y-29028689D02*
X75704171Y-28962022D01*
X75704171Y-28962022D02*
X75732743Y-28928689D01*
X75732743Y-28928689D02*
X75789885Y-28895356D01*
X75789885Y-28895356D02*
X75904171Y-28862022D01*
X75904171Y-28862022D02*
X75961314Y-28828689D01*
X75961314Y-28828689D02*
X75989885Y-28795356D01*
X75989885Y-28795356D02*
X76018457Y-28728689D01*
X76018457Y-28728689D02*
X76018457Y-28662022D01*
X76018457Y-28662022D02*
X75989885Y-28595356D01*
X75989885Y-28595356D02*
X75961314Y-28562022D01*
X75961314Y-28562022D02*
X75904171Y-28528689D01*
X75904171Y-28528689D02*
X75761314Y-28528689D01*
X75761314Y-28528689D02*
X75675600Y-28562022D01*
X75418456Y-29228689D02*
X75418456Y-28528689D01*
X75161314Y-29228689D02*
X75161314Y-28862022D01*
X75161314Y-28862022D02*
X75189885Y-28795356D01*
X75189885Y-28795356D02*
X75247028Y-28762022D01*
X75247028Y-28762022D02*
X75332742Y-28762022D01*
X75332742Y-28762022D02*
X75389885Y-28795356D01*
X75389885Y-28795356D02*
X75418456Y-28828689D01*
X74875599Y-29228689D02*
X74875599Y-28762022D01*
X74875599Y-28528689D02*
X74904171Y-28562022D01*
X74904171Y-28562022D02*
X74875599Y-28595356D01*
X74875599Y-28595356D02*
X74847028Y-28562022D01*
X74847028Y-28562022D02*
X74875599Y-28528689D01*
X74875599Y-28528689D02*
X74875599Y-28595356D01*
X74361314Y-29195356D02*
X74418457Y-29228689D01*
X74418457Y-29228689D02*
X74532743Y-29228689D01*
X74532743Y-29228689D02*
X74589885Y-29195356D01*
X74589885Y-29195356D02*
X74618457Y-29128689D01*
X74618457Y-29128689D02*
X74618457Y-28862022D01*
X74618457Y-28862022D02*
X74589885Y-28795356D01*
X74589885Y-28795356D02*
X74532743Y-28762022D01*
X74532743Y-28762022D02*
X74418457Y-28762022D01*
X74418457Y-28762022D02*
X74361314Y-28795356D01*
X74361314Y-28795356D02*
X74332743Y-28862022D01*
X74332743Y-28862022D02*
X74332743Y-28928689D01*
X74332743Y-28928689D02*
X74618457Y-28995356D01*
X73989885Y-29228689D02*
X74047028Y-29195356D01*
X74047028Y-29195356D02*
X74075599Y-29128689D01*
X74075599Y-29128689D02*
X74075599Y-28528689D01*
X73504171Y-29228689D02*
X73504171Y-28528689D01*
X73504171Y-29195356D02*
X73561313Y-29228689D01*
X73561313Y-29228689D02*
X73675599Y-29228689D01*
X73675599Y-29228689D02*
X73732742Y-29195356D01*
X73732742Y-29195356D02*
X73761313Y-29162022D01*
X73761313Y-29162022D02*
X73789885Y-29095356D01*
X73789885Y-29095356D02*
X73789885Y-28895356D01*
X73789885Y-28895356D02*
X73761313Y-28828689D01*
X73761313Y-28828689D02*
X73732742Y-28795356D01*
X73732742Y-28795356D02*
X73675599Y-28762022D01*
X73675599Y-28762022D02*
X73561313Y-28762022D01*
X73561313Y-28762022D02*
X73504171Y-28795356D01*
X73218456Y-28962022D02*
X72761314Y-28962022D01*
X72275599Y-28862022D02*
X72189885Y-28895356D01*
X72189885Y-28895356D02*
X72161314Y-28928689D01*
X72161314Y-28928689D02*
X72132742Y-28995356D01*
X72132742Y-28995356D02*
X72132742Y-29095356D01*
X72132742Y-29095356D02*
X72161314Y-29162022D01*
X72161314Y-29162022D02*
X72189885Y-29195356D01*
X72189885Y-29195356D02*
X72247028Y-29228689D01*
X72247028Y-29228689D02*
X72475599Y-29228689D01*
X72475599Y-29228689D02*
X72475599Y-28528689D01*
X72475599Y-28528689D02*
X72275599Y-28528689D01*
X72275599Y-28528689D02*
X72218457Y-28562022D01*
X72218457Y-28562022D02*
X72189885Y-28595356D01*
X72189885Y-28595356D02*
X72161314Y-28662022D01*
X72161314Y-28662022D02*
X72161314Y-28728689D01*
X72161314Y-28728689D02*
X72189885Y-28795356D01*
X72189885Y-28795356D02*
X72218457Y-28828689D01*
X72218457Y-28828689D02*
X72275599Y-28862022D01*
X72275599Y-28862022D02*
X72475599Y-28862022D01*
X71875599Y-28862022D02*
X71675599Y-28862022D01*
X71589885Y-29228689D02*
X71875599Y-29228689D01*
X71875599Y-29228689D02*
X71875599Y-28528689D01*
X71875599Y-28528689D02*
X71589885Y-28528689D01*
X79847030Y-30155650D02*
X79561316Y-30155650D01*
X79904173Y-30355650D02*
X79704173Y-29655650D01*
X79704173Y-29655650D02*
X79504173Y-30355650D01*
X79389887Y-29655650D02*
X79047030Y-29655650D01*
X79218458Y-30355650D02*
X79218458Y-29655650D01*
X78847029Y-30355650D02*
X78847029Y-29655650D01*
X78847029Y-29655650D02*
X78704172Y-29655650D01*
X78704172Y-29655650D02*
X78618458Y-29688983D01*
X78618458Y-29688983D02*
X78561315Y-29755650D01*
X78561315Y-29755650D02*
X78532744Y-29822317D01*
X78532744Y-29822317D02*
X78504172Y-29955650D01*
X78504172Y-29955650D02*
X78504172Y-30055650D01*
X78504172Y-30055650D02*
X78532744Y-30188983D01*
X78532744Y-30188983D02*
X78561315Y-30255650D01*
X78561315Y-30255650D02*
X78618458Y-30322317D01*
X78618458Y-30322317D02*
X78704172Y-30355650D01*
X78704172Y-30355650D02*
X78847029Y-30355650D01*
X78332744Y-29655650D02*
X77989887Y-29655650D01*
X78161315Y-30355650D02*
X78161315Y-29655650D01*
X77789886Y-30088983D02*
X77332744Y-30088983D01*
X77104172Y-29888983D02*
X76961315Y-30355650D01*
X76961315Y-30355650D02*
X76818458Y-29888983D01*
X76275601Y-30355650D02*
X76618458Y-30355650D01*
X76447029Y-30355650D02*
X76447029Y-29655650D01*
X76447029Y-29655650D02*
X76504172Y-29755650D01*
X76504172Y-29755650D02*
X76561315Y-29822317D01*
X76561315Y-29822317D02*
X76618458Y-29855650D01*
X76018457Y-30288983D02*
X75989886Y-30322317D01*
X75989886Y-30322317D02*
X76018457Y-30355650D01*
X76018457Y-30355650D02*
X76047029Y-30322317D01*
X76047029Y-30322317D02*
X76018457Y-30288983D01*
X76018457Y-30288983D02*
X76018457Y-30355650D01*
X75618458Y-29655650D02*
X75561315Y-29655650D01*
X75561315Y-29655650D02*
X75504172Y-29688983D01*
X75504172Y-29688983D02*
X75475601Y-29722317D01*
X75475601Y-29722317D02*
X75447029Y-29788983D01*
X75447029Y-29788983D02*
X75418458Y-29922317D01*
X75418458Y-29922317D02*
X75418458Y-30088983D01*
X75418458Y-30088983D02*
X75447029Y-30222317D01*
X75447029Y-30222317D02*
X75475601Y-30288983D01*
X75475601Y-30288983D02*
X75504172Y-30322317D01*
X75504172Y-30322317D02*
X75561315Y-30355650D01*
X75561315Y-30355650D02*
X75618458Y-30355650D01*
X75618458Y-30355650D02*
X75675601Y-30322317D01*
X75675601Y-30322317D02*
X75704172Y-30288983D01*
X75704172Y-30288983D02*
X75732743Y-30222317D01*
X75732743Y-30222317D02*
X75761315Y-30088983D01*
X75761315Y-30088983D02*
X75761315Y-29922317D01*
X75761315Y-29922317D02*
X75732743Y-29788983D01*
X75732743Y-29788983D02*
X75704172Y-29722317D01*
X75704172Y-29722317D02*
X75675601Y-29688983D01*
X75675601Y-29688983D02*
X75618458Y-29655650D01*
X75161314Y-30288983D02*
X75132743Y-30322317D01*
X75132743Y-30322317D02*
X75161314Y-30355650D01*
X75161314Y-30355650D02*
X75189886Y-30322317D01*
X75189886Y-30322317D02*
X75161314Y-30288983D01*
X75161314Y-30288983D02*
X75161314Y-30355650D01*
X74561315Y-30355650D02*
X74904172Y-30355650D01*
X74732743Y-30355650D02*
X74732743Y-29655650D01*
X74732743Y-29655650D02*
X74789886Y-29755650D01*
X74789886Y-29755650D02*
X74847029Y-29822317D01*
X74847029Y-29822317D02*
X74904172Y-29855650D01*
X79847030Y-31449278D02*
X79761316Y-31482611D01*
X79761316Y-31482611D02*
X79618458Y-31482611D01*
X79618458Y-31482611D02*
X79561316Y-31449278D01*
X79561316Y-31449278D02*
X79532744Y-31415944D01*
X79532744Y-31415944D02*
X79504173Y-31349278D01*
X79504173Y-31349278D02*
X79504173Y-31282611D01*
X79504173Y-31282611D02*
X79532744Y-31215944D01*
X79532744Y-31215944D02*
X79561316Y-31182611D01*
X79561316Y-31182611D02*
X79618458Y-31149278D01*
X79618458Y-31149278D02*
X79732744Y-31115944D01*
X79732744Y-31115944D02*
X79789887Y-31082611D01*
X79789887Y-31082611D02*
X79818458Y-31049278D01*
X79818458Y-31049278D02*
X79847030Y-30982611D01*
X79847030Y-30982611D02*
X79847030Y-30915944D01*
X79847030Y-30915944D02*
X79818458Y-30849278D01*
X79818458Y-30849278D02*
X79789887Y-30815944D01*
X79789887Y-30815944D02*
X79732744Y-30782611D01*
X79732744Y-30782611D02*
X79589887Y-30782611D01*
X79589887Y-30782611D02*
X79504173Y-30815944D01*
X79332744Y-31015944D02*
X79104172Y-31015944D01*
X79247029Y-30782611D02*
X79247029Y-31382611D01*
X79247029Y-31382611D02*
X79218458Y-31449278D01*
X79218458Y-31449278D02*
X79161315Y-31482611D01*
X79161315Y-31482611D02*
X79104172Y-31482611D01*
X78675601Y-31449278D02*
X78732744Y-31482611D01*
X78732744Y-31482611D02*
X78847030Y-31482611D01*
X78847030Y-31482611D02*
X78904172Y-31449278D01*
X78904172Y-31449278D02*
X78932744Y-31382611D01*
X78932744Y-31382611D02*
X78932744Y-31115944D01*
X78932744Y-31115944D02*
X78904172Y-31049278D01*
X78904172Y-31049278D02*
X78847030Y-31015944D01*
X78847030Y-31015944D02*
X78732744Y-31015944D01*
X78732744Y-31015944D02*
X78675601Y-31049278D01*
X78675601Y-31049278D02*
X78647030Y-31115944D01*
X78647030Y-31115944D02*
X78647030Y-31182611D01*
X78647030Y-31182611D02*
X78932744Y-31249278D01*
X78389886Y-31015944D02*
X78389886Y-31715944D01*
X78389886Y-31049278D02*
X78332744Y-31015944D01*
X78332744Y-31015944D02*
X78218458Y-31015944D01*
X78218458Y-31015944D02*
X78161315Y-31049278D01*
X78161315Y-31049278D02*
X78132744Y-31082611D01*
X78132744Y-31082611D02*
X78104172Y-31149278D01*
X78104172Y-31149278D02*
X78104172Y-31349278D01*
X78104172Y-31349278D02*
X78132744Y-31415944D01*
X78132744Y-31415944D02*
X78161315Y-31449278D01*
X78161315Y-31449278D02*
X78218458Y-31482611D01*
X78218458Y-31482611D02*
X78332744Y-31482611D01*
X78332744Y-31482611D02*
X78389886Y-31449278D01*
X77847029Y-31482611D02*
X77847029Y-30782611D01*
X77589887Y-31482611D02*
X77589887Y-31115944D01*
X77589887Y-31115944D02*
X77618458Y-31049278D01*
X77618458Y-31049278D02*
X77675601Y-31015944D01*
X77675601Y-31015944D02*
X77761315Y-31015944D01*
X77761315Y-31015944D02*
X77818458Y-31049278D01*
X77818458Y-31049278D02*
X77847029Y-31082611D01*
X77075601Y-31449278D02*
X77132744Y-31482611D01*
X77132744Y-31482611D02*
X77247030Y-31482611D01*
X77247030Y-31482611D02*
X77304172Y-31449278D01*
X77304172Y-31449278D02*
X77332744Y-31382611D01*
X77332744Y-31382611D02*
X77332744Y-31115944D01*
X77332744Y-31115944D02*
X77304172Y-31049278D01*
X77304172Y-31049278D02*
X77247030Y-31015944D01*
X77247030Y-31015944D02*
X77132744Y-31015944D01*
X77132744Y-31015944D02*
X77075601Y-31049278D01*
X77075601Y-31049278D02*
X77047030Y-31115944D01*
X77047030Y-31115944D02*
X77047030Y-31182611D01*
X77047030Y-31182611D02*
X77332744Y-31249278D01*
X76789886Y-31015944D02*
X76789886Y-31482611D01*
X76789886Y-31082611D02*
X76761315Y-31049278D01*
X76761315Y-31049278D02*
X76704172Y-31015944D01*
X76704172Y-31015944D02*
X76618458Y-31015944D01*
X76618458Y-31015944D02*
X76561315Y-31049278D01*
X76561315Y-31049278D02*
X76532744Y-31115944D01*
X76532744Y-31115944D02*
X76532744Y-31482611D01*
X75447029Y-31482611D02*
X75647029Y-31149278D01*
X75789886Y-31482611D02*
X75789886Y-30782611D01*
X75789886Y-30782611D02*
X75561315Y-30782611D01*
X75561315Y-30782611D02*
X75504172Y-30815944D01*
X75504172Y-30815944D02*
X75475601Y-30849278D01*
X75475601Y-30849278D02*
X75447029Y-30915944D01*
X75447029Y-30915944D02*
X75447029Y-31015944D01*
X75447029Y-31015944D02*
X75475601Y-31082611D01*
X75475601Y-31082611D02*
X75504172Y-31115944D01*
X75504172Y-31115944D02*
X75561315Y-31149278D01*
X75561315Y-31149278D02*
X75789886Y-31149278D01*
X75104172Y-31482611D02*
X75161315Y-31449278D01*
X75161315Y-31449278D02*
X75189886Y-31415944D01*
X75189886Y-31415944D02*
X75218458Y-31349278D01*
X75218458Y-31349278D02*
X75218458Y-31149278D01*
X75218458Y-31149278D02*
X75189886Y-31082611D01*
X75189886Y-31082611D02*
X75161315Y-31049278D01*
X75161315Y-31049278D02*
X75104172Y-31015944D01*
X75104172Y-31015944D02*
X75018458Y-31015944D01*
X75018458Y-31015944D02*
X74961315Y-31049278D01*
X74961315Y-31049278D02*
X74932744Y-31082611D01*
X74932744Y-31082611D02*
X74904172Y-31149278D01*
X74904172Y-31149278D02*
X74904172Y-31349278D01*
X74904172Y-31349278D02*
X74932744Y-31415944D01*
X74932744Y-31415944D02*
X74961315Y-31449278D01*
X74961315Y-31449278D02*
X75018458Y-31482611D01*
X75018458Y-31482611D02*
X75104172Y-31482611D01*
X74732744Y-31015944D02*
X74504172Y-31015944D01*
X74647029Y-30782611D02*
X74647029Y-31382611D01*
X74647029Y-31382611D02*
X74618458Y-31449278D01*
X74618458Y-31449278D02*
X74561315Y-31482611D01*
X74561315Y-31482611D02*
X74504172Y-31482611D01*
X74304172Y-31482611D02*
X74304172Y-30782611D01*
X74047030Y-31482611D02*
X74047030Y-31115944D01*
X74047030Y-31115944D02*
X74075601Y-31049278D01*
X74075601Y-31049278D02*
X74132744Y-31015944D01*
X74132744Y-31015944D02*
X74218458Y-31015944D01*
X74218458Y-31015944D02*
X74275601Y-31049278D01*
X74275601Y-31049278D02*
X74304172Y-31082611D01*
X73532744Y-31449278D02*
X73589887Y-31482611D01*
X73589887Y-31482611D02*
X73704173Y-31482611D01*
X73704173Y-31482611D02*
X73761315Y-31449278D01*
X73761315Y-31449278D02*
X73789887Y-31382611D01*
X73789887Y-31382611D02*
X73789887Y-31115944D01*
X73789887Y-31115944D02*
X73761315Y-31049278D01*
X73761315Y-31049278D02*
X73704173Y-31015944D01*
X73704173Y-31015944D02*
X73589887Y-31015944D01*
X73589887Y-31015944D02*
X73532744Y-31049278D01*
X73532744Y-31049278D02*
X73504173Y-31115944D01*
X73504173Y-31115944D02*
X73504173Y-31182611D01*
X73504173Y-31182611D02*
X73789887Y-31249278D01*
X73247029Y-31482611D02*
X73247029Y-31015944D01*
X73247029Y-31149278D02*
X73218458Y-31082611D01*
X73218458Y-31082611D02*
X73189887Y-31049278D01*
X73189887Y-31049278D02*
X73132744Y-31015944D01*
X73132744Y-31015944D02*
X73075601Y-31015944D01*
X72932743Y-31015944D02*
X72789886Y-31482611D01*
X72647029Y-31015944D02*
X72789886Y-31482611D01*
X72789886Y-31482611D02*
X72847029Y-31649278D01*
X72847029Y-31649278D02*
X72875600Y-31682611D01*
X72875600Y-31682611D02*
X72932743Y-31715944D01*
X79618458Y-32242905D02*
X79532744Y-32276239D01*
X79532744Y-32276239D02*
X79504173Y-32309572D01*
X79504173Y-32309572D02*
X79475601Y-32376239D01*
X79475601Y-32376239D02*
X79475601Y-32476239D01*
X79475601Y-32476239D02*
X79504173Y-32542905D01*
X79504173Y-32542905D02*
X79532744Y-32576239D01*
X79532744Y-32576239D02*
X79589887Y-32609572D01*
X79589887Y-32609572D02*
X79818458Y-32609572D01*
X79818458Y-32609572D02*
X79818458Y-31909572D01*
X79818458Y-31909572D02*
X79618458Y-31909572D01*
X79618458Y-31909572D02*
X79561316Y-31942905D01*
X79561316Y-31942905D02*
X79532744Y-31976239D01*
X79532744Y-31976239D02*
X79504173Y-32042905D01*
X79504173Y-32042905D02*
X79504173Y-32109572D01*
X79504173Y-32109572D02*
X79532744Y-32176239D01*
X79532744Y-32176239D02*
X79561316Y-32209572D01*
X79561316Y-32209572D02*
X79618458Y-32242905D01*
X79618458Y-32242905D02*
X79818458Y-32242905D01*
X78961316Y-32609572D02*
X78961316Y-32242905D01*
X78961316Y-32242905D02*
X78989887Y-32176239D01*
X78989887Y-32176239D02*
X79047030Y-32142905D01*
X79047030Y-32142905D02*
X79161316Y-32142905D01*
X79161316Y-32142905D02*
X79218458Y-32176239D01*
X78961316Y-32576239D02*
X79018458Y-32609572D01*
X79018458Y-32609572D02*
X79161316Y-32609572D01*
X79161316Y-32609572D02*
X79218458Y-32576239D01*
X79218458Y-32576239D02*
X79247030Y-32509572D01*
X79247030Y-32509572D02*
X79247030Y-32442905D01*
X79247030Y-32442905D02*
X79218458Y-32376239D01*
X79218458Y-32376239D02*
X79161316Y-32342905D01*
X79161316Y-32342905D02*
X79018458Y-32342905D01*
X79018458Y-32342905D02*
X78961316Y-32309572D01*
X78704173Y-32576239D02*
X78647030Y-32609572D01*
X78647030Y-32609572D02*
X78532744Y-32609572D01*
X78532744Y-32609572D02*
X78475601Y-32576239D01*
X78475601Y-32576239D02*
X78447030Y-32509572D01*
X78447030Y-32509572D02*
X78447030Y-32476239D01*
X78447030Y-32476239D02*
X78475601Y-32409572D01*
X78475601Y-32409572D02*
X78532744Y-32376239D01*
X78532744Y-32376239D02*
X78618459Y-32376239D01*
X78618459Y-32376239D02*
X78675601Y-32342905D01*
X78675601Y-32342905D02*
X78704173Y-32276239D01*
X78704173Y-32276239D02*
X78704173Y-32242905D01*
X78704173Y-32242905D02*
X78675601Y-32176239D01*
X78675601Y-32176239D02*
X78618459Y-32142905D01*
X78618459Y-32142905D02*
X78532744Y-32142905D01*
X78532744Y-32142905D02*
X78475601Y-32176239D01*
X77961316Y-32576239D02*
X78018459Y-32609572D01*
X78018459Y-32609572D02*
X78132745Y-32609572D01*
X78132745Y-32609572D02*
X78189887Y-32576239D01*
X78189887Y-32576239D02*
X78218459Y-32509572D01*
X78218459Y-32509572D02*
X78218459Y-32242905D01*
X78218459Y-32242905D02*
X78189887Y-32176239D01*
X78189887Y-32176239D02*
X78132745Y-32142905D01*
X78132745Y-32142905D02*
X78018459Y-32142905D01*
X78018459Y-32142905D02*
X77961316Y-32176239D01*
X77961316Y-32176239D02*
X77932745Y-32242905D01*
X77932745Y-32242905D02*
X77932745Y-32309572D01*
X77932745Y-32309572D02*
X78218459Y-32376239D01*
X77418459Y-32609572D02*
X77418459Y-31909572D01*
X77418459Y-32576239D02*
X77475601Y-32609572D01*
X77475601Y-32609572D02*
X77589887Y-32609572D01*
X77589887Y-32609572D02*
X77647030Y-32576239D01*
X77647030Y-32576239D02*
X77675601Y-32542905D01*
X77675601Y-32542905D02*
X77704173Y-32476239D01*
X77704173Y-32476239D02*
X77704173Y-32276239D01*
X77704173Y-32276239D02*
X77675601Y-32209572D01*
X77675601Y-32209572D02*
X77647030Y-32176239D01*
X77647030Y-32176239D02*
X77589887Y-32142905D01*
X77589887Y-32142905D02*
X77475601Y-32142905D01*
X77475601Y-32142905D02*
X77418459Y-32176239D01*
X76589887Y-32609572D02*
X76647030Y-32576239D01*
X76647030Y-32576239D02*
X76675601Y-32542905D01*
X76675601Y-32542905D02*
X76704173Y-32476239D01*
X76704173Y-32476239D02*
X76704173Y-32276239D01*
X76704173Y-32276239D02*
X76675601Y-32209572D01*
X76675601Y-32209572D02*
X76647030Y-32176239D01*
X76647030Y-32176239D02*
X76589887Y-32142905D01*
X76589887Y-32142905D02*
X76504173Y-32142905D01*
X76504173Y-32142905D02*
X76447030Y-32176239D01*
X76447030Y-32176239D02*
X76418459Y-32209572D01*
X76418459Y-32209572D02*
X76389887Y-32276239D01*
X76389887Y-32276239D02*
X76389887Y-32476239D01*
X76389887Y-32476239D02*
X76418459Y-32542905D01*
X76418459Y-32542905D02*
X76447030Y-32576239D01*
X76447030Y-32576239D02*
X76504173Y-32609572D01*
X76504173Y-32609572D02*
X76589887Y-32609572D01*
X76218459Y-32142905D02*
X75989887Y-32142905D01*
X76132744Y-32609572D02*
X76132744Y-32009572D01*
X76132744Y-32009572D02*
X76104173Y-31942905D01*
X76104173Y-31942905D02*
X76047030Y-31909572D01*
X76047030Y-31909572D02*
X75989887Y-31909572D01*
X75875602Y-32142905D02*
X75647030Y-32142905D01*
X75789887Y-32609572D02*
X75789887Y-32009572D01*
X75789887Y-32009572D02*
X75761316Y-31942905D01*
X75761316Y-31942905D02*
X75704173Y-31909572D01*
X75704173Y-31909572D02*
X75647030Y-31909572D01*
X75018459Y-32576239D02*
X74932745Y-32609572D01*
X74932745Y-32609572D02*
X74789887Y-32609572D01*
X74789887Y-32609572D02*
X74732745Y-32576239D01*
X74732745Y-32576239D02*
X74704173Y-32542905D01*
X74704173Y-32542905D02*
X74675602Y-32476239D01*
X74675602Y-32476239D02*
X74675602Y-32409572D01*
X74675602Y-32409572D02*
X74704173Y-32342905D01*
X74704173Y-32342905D02*
X74732745Y-32309572D01*
X74732745Y-32309572D02*
X74789887Y-32276239D01*
X74789887Y-32276239D02*
X74904173Y-32242905D01*
X74904173Y-32242905D02*
X74961316Y-32209572D01*
X74961316Y-32209572D02*
X74989887Y-32176239D01*
X74989887Y-32176239D02*
X75018459Y-32109572D01*
X75018459Y-32109572D02*
X75018459Y-32042905D01*
X75018459Y-32042905D02*
X74989887Y-31976239D01*
X74989887Y-31976239D02*
X74961316Y-31942905D01*
X74961316Y-31942905D02*
X74904173Y-31909572D01*
X74904173Y-31909572D02*
X74761316Y-31909572D01*
X74761316Y-31909572D02*
X74675602Y-31942905D01*
X74418458Y-32142905D02*
X74418458Y-32842905D01*
X74418458Y-32176239D02*
X74361316Y-32142905D01*
X74361316Y-32142905D02*
X74247030Y-32142905D01*
X74247030Y-32142905D02*
X74189887Y-32176239D01*
X74189887Y-32176239D02*
X74161316Y-32209572D01*
X74161316Y-32209572D02*
X74132744Y-32276239D01*
X74132744Y-32276239D02*
X74132744Y-32476239D01*
X74132744Y-32476239D02*
X74161316Y-32542905D01*
X74161316Y-32542905D02*
X74189887Y-32576239D01*
X74189887Y-32576239D02*
X74247030Y-32609572D01*
X74247030Y-32609572D02*
X74361316Y-32609572D01*
X74361316Y-32609572D02*
X74418458Y-32576239D01*
X73647030Y-32576239D02*
X73704173Y-32609572D01*
X73704173Y-32609572D02*
X73818459Y-32609572D01*
X73818459Y-32609572D02*
X73875601Y-32576239D01*
X73875601Y-32576239D02*
X73904173Y-32509572D01*
X73904173Y-32509572D02*
X73904173Y-32242905D01*
X73904173Y-32242905D02*
X73875601Y-32176239D01*
X73875601Y-32176239D02*
X73818459Y-32142905D01*
X73818459Y-32142905D02*
X73704173Y-32142905D01*
X73704173Y-32142905D02*
X73647030Y-32176239D01*
X73647030Y-32176239D02*
X73618459Y-32242905D01*
X73618459Y-32242905D02*
X73618459Y-32309572D01*
X73618459Y-32309572D02*
X73904173Y-32376239D01*
X73104173Y-32576239D02*
X73161315Y-32609572D01*
X73161315Y-32609572D02*
X73275601Y-32609572D01*
X73275601Y-32609572D02*
X73332744Y-32576239D01*
X73332744Y-32576239D02*
X73361315Y-32542905D01*
X73361315Y-32542905D02*
X73389887Y-32476239D01*
X73389887Y-32476239D02*
X73389887Y-32276239D01*
X73389887Y-32276239D02*
X73361315Y-32209572D01*
X73361315Y-32209572D02*
X73332744Y-32176239D01*
X73332744Y-32176239D02*
X73275601Y-32142905D01*
X73275601Y-32142905D02*
X73161315Y-32142905D01*
X73161315Y-32142905D02*
X73104173Y-32176239D01*
X72932744Y-32142905D02*
X72704172Y-32142905D01*
X72847029Y-31909572D02*
X72847029Y-32509572D01*
X72847029Y-32509572D02*
X72818458Y-32576239D01*
X72818458Y-32576239D02*
X72761315Y-32609572D01*
X72761315Y-32609572D02*
X72704172Y-32609572D01*
X72275601Y-32576239D02*
X72332744Y-32609572D01*
X72332744Y-32609572D02*
X72447030Y-32609572D01*
X72447030Y-32609572D02*
X72504172Y-32576239D01*
X72504172Y-32576239D02*
X72532744Y-32509572D01*
X72532744Y-32509572D02*
X72532744Y-32242905D01*
X72532744Y-32242905D02*
X72504172Y-32176239D01*
X72504172Y-32176239D02*
X72447030Y-32142905D01*
X72447030Y-32142905D02*
X72332744Y-32142905D01*
X72332744Y-32142905D02*
X72275601Y-32176239D01*
X72275601Y-32176239D02*
X72247030Y-32242905D01*
X72247030Y-32242905D02*
X72247030Y-32309572D01*
X72247030Y-32309572D02*
X72532744Y-32376239D01*
X71989886Y-32609572D02*
X71989886Y-32142905D01*
X71989886Y-32276239D02*
X71961315Y-32209572D01*
X71961315Y-32209572D02*
X71932744Y-32176239D01*
X71932744Y-32176239D02*
X71875601Y-32142905D01*
X71875601Y-32142905D02*
X71818458Y-32142905D01*
X71189886Y-32576239D02*
X71104172Y-32609572D01*
X71104172Y-32609572D02*
X70961314Y-32609572D01*
X70961314Y-32609572D02*
X70904172Y-32576239D01*
X70904172Y-32576239D02*
X70875600Y-32542905D01*
X70875600Y-32542905D02*
X70847029Y-32476239D01*
X70847029Y-32476239D02*
X70847029Y-32409572D01*
X70847029Y-32409572D02*
X70875600Y-32342905D01*
X70875600Y-32342905D02*
X70904172Y-32309572D01*
X70904172Y-32309572D02*
X70961314Y-32276239D01*
X70961314Y-32276239D02*
X71075600Y-32242905D01*
X71075600Y-32242905D02*
X71132743Y-32209572D01*
X71132743Y-32209572D02*
X71161314Y-32176239D01*
X71161314Y-32176239D02*
X71189886Y-32109572D01*
X71189886Y-32109572D02*
X71189886Y-32042905D01*
X71189886Y-32042905D02*
X71161314Y-31976239D01*
X71161314Y-31976239D02*
X71132743Y-31942905D01*
X71132743Y-31942905D02*
X71075600Y-31909572D01*
X71075600Y-31909572D02*
X70932743Y-31909572D01*
X70932743Y-31909572D02*
X70847029Y-31942905D01*
X70589885Y-32609572D02*
X70589885Y-31909572D01*
X70332743Y-32609572D02*
X70332743Y-32242905D01*
X70332743Y-32242905D02*
X70361314Y-32176239D01*
X70361314Y-32176239D02*
X70418457Y-32142905D01*
X70418457Y-32142905D02*
X70504171Y-32142905D01*
X70504171Y-32142905D02*
X70561314Y-32176239D01*
X70561314Y-32176239D02*
X70589885Y-32209572D01*
X70047028Y-32609572D02*
X70047028Y-32142905D01*
X70047028Y-31909572D02*
X70075600Y-31942905D01*
X70075600Y-31942905D02*
X70047028Y-31976239D01*
X70047028Y-31976239D02*
X70018457Y-31942905D01*
X70018457Y-31942905D02*
X70047028Y-31909572D01*
X70047028Y-31909572D02*
X70047028Y-31976239D01*
X69532743Y-32576239D02*
X69589886Y-32609572D01*
X69589886Y-32609572D02*
X69704172Y-32609572D01*
X69704172Y-32609572D02*
X69761314Y-32576239D01*
X69761314Y-32576239D02*
X69789886Y-32509572D01*
X69789886Y-32509572D02*
X69789886Y-32242905D01*
X69789886Y-32242905D02*
X69761314Y-32176239D01*
X69761314Y-32176239D02*
X69704172Y-32142905D01*
X69704172Y-32142905D02*
X69589886Y-32142905D01*
X69589886Y-32142905D02*
X69532743Y-32176239D01*
X69532743Y-32176239D02*
X69504172Y-32242905D01*
X69504172Y-32242905D02*
X69504172Y-32309572D01*
X69504172Y-32309572D02*
X69789886Y-32376239D01*
X69161314Y-32609572D02*
X69218457Y-32576239D01*
X69218457Y-32576239D02*
X69247028Y-32509572D01*
X69247028Y-32509572D02*
X69247028Y-31909572D01*
X68675600Y-32609572D02*
X68675600Y-31909572D01*
X68675600Y-32576239D02*
X68732742Y-32609572D01*
X68732742Y-32609572D02*
X68847028Y-32609572D01*
X68847028Y-32609572D02*
X68904171Y-32576239D01*
X68904171Y-32576239D02*
X68932742Y-32542905D01*
X68932742Y-32542905D02*
X68961314Y-32476239D01*
X68961314Y-32476239D02*
X68961314Y-32276239D01*
X68961314Y-32276239D02*
X68932742Y-32209572D01*
X68932742Y-32209572D02*
X68904171Y-32176239D01*
X68904171Y-32176239D02*
X68847028Y-32142905D01*
X68847028Y-32142905D02*
X68732742Y-32142905D01*
X68732742Y-32142905D02*
X68675600Y-32176239D01*
X67618457Y-32609572D02*
X67961314Y-32609572D01*
X67789885Y-32609572D02*
X67789885Y-31909572D01*
X67789885Y-31909572D02*
X67847028Y-32009572D01*
X67847028Y-32009572D02*
X67904171Y-32076239D01*
X67904171Y-32076239D02*
X67961314Y-32109572D01*
X67361313Y-32542905D02*
X67332742Y-32576239D01*
X67332742Y-32576239D02*
X67361313Y-32609572D01*
X67361313Y-32609572D02*
X67389885Y-32576239D01*
X67389885Y-32576239D02*
X67361313Y-32542905D01*
X67361313Y-32542905D02*
X67361313Y-32609572D01*
X66961314Y-31909572D02*
X66904171Y-31909572D01*
X66904171Y-31909572D02*
X66847028Y-31942905D01*
X66847028Y-31942905D02*
X66818457Y-31976239D01*
X66818457Y-31976239D02*
X66789885Y-32042905D01*
X66789885Y-32042905D02*
X66761314Y-32176239D01*
X66761314Y-32176239D02*
X66761314Y-32342905D01*
X66761314Y-32342905D02*
X66789885Y-32476239D01*
X66789885Y-32476239D02*
X66818457Y-32542905D01*
X66818457Y-32542905D02*
X66847028Y-32576239D01*
X66847028Y-32576239D02*
X66904171Y-32609572D01*
X66904171Y-32609572D02*
X66961314Y-32609572D01*
X66961314Y-32609572D02*
X67018457Y-32576239D01*
X67018457Y-32576239D02*
X67047028Y-32542905D01*
X67047028Y-32542905D02*
X67075599Y-32476239D01*
X67075599Y-32476239D02*
X67104171Y-32342905D01*
X67104171Y-32342905D02*
X67104171Y-32176239D01*
X67104171Y-32176239D02*
X67075599Y-32042905D01*
X67075599Y-32042905D02*
X67047028Y-31976239D01*
X67047028Y-31976239D02*
X67018457Y-31942905D01*
X67018457Y-31942905D02*
X66961314Y-31909572D01*
X79818458Y-33736533D02*
X79818458Y-33036533D01*
X79818458Y-33303200D02*
X79761316Y-33269866D01*
X79761316Y-33269866D02*
X79647030Y-33269866D01*
X79647030Y-33269866D02*
X79589887Y-33303200D01*
X79589887Y-33303200D02*
X79561316Y-33336533D01*
X79561316Y-33336533D02*
X79532744Y-33403200D01*
X79532744Y-33403200D02*
X79532744Y-33603200D01*
X79532744Y-33603200D02*
X79561316Y-33669866D01*
X79561316Y-33669866D02*
X79589887Y-33703200D01*
X79589887Y-33703200D02*
X79647030Y-33736533D01*
X79647030Y-33736533D02*
X79761316Y-33736533D01*
X79761316Y-33736533D02*
X79818458Y-33703200D01*
X79332744Y-33269866D02*
X79189887Y-33736533D01*
X79047030Y-33269866D02*
X79189887Y-33736533D01*
X79189887Y-33736533D02*
X79247030Y-33903200D01*
X79247030Y-33903200D02*
X79275601Y-33936533D01*
X79275601Y-33936533D02*
X79332744Y-33969866D01*
X78018458Y-33669866D02*
X78047030Y-33703200D01*
X78047030Y-33703200D02*
X78132744Y-33736533D01*
X78132744Y-33736533D02*
X78189887Y-33736533D01*
X78189887Y-33736533D02*
X78275601Y-33703200D01*
X78275601Y-33703200D02*
X78332744Y-33636533D01*
X78332744Y-33636533D02*
X78361315Y-33569866D01*
X78361315Y-33569866D02*
X78389887Y-33436533D01*
X78389887Y-33436533D02*
X78389887Y-33336533D01*
X78389887Y-33336533D02*
X78361315Y-33203200D01*
X78361315Y-33203200D02*
X78332744Y-33136533D01*
X78332744Y-33136533D02*
X78275601Y-33069866D01*
X78275601Y-33069866D02*
X78189887Y-33036533D01*
X78189887Y-33036533D02*
X78132744Y-33036533D01*
X78132744Y-33036533D02*
X78047030Y-33069866D01*
X78047030Y-33069866D02*
X78018458Y-33103200D01*
X77761315Y-33736533D02*
X77761315Y-33269866D01*
X77761315Y-33403200D02*
X77732744Y-33336533D01*
X77732744Y-33336533D02*
X77704173Y-33303200D01*
X77704173Y-33303200D02*
X77647030Y-33269866D01*
X77647030Y-33269866D02*
X77589887Y-33269866D01*
X77447029Y-33269866D02*
X77304172Y-33736533D01*
X77161315Y-33269866D02*
X77304172Y-33736533D01*
X77304172Y-33736533D02*
X77361315Y-33903200D01*
X77361315Y-33903200D02*
X77389886Y-33936533D01*
X77389886Y-33936533D02*
X77447029Y-33969866D01*
X76932743Y-33269866D02*
X76932743Y-33969866D01*
X76932743Y-33303200D02*
X76875601Y-33269866D01*
X76875601Y-33269866D02*
X76761315Y-33269866D01*
X76761315Y-33269866D02*
X76704172Y-33303200D01*
X76704172Y-33303200D02*
X76675601Y-33336533D01*
X76675601Y-33336533D02*
X76647029Y-33403200D01*
X76647029Y-33403200D02*
X76647029Y-33603200D01*
X76647029Y-33603200D02*
X76675601Y-33669866D01*
X76675601Y-33669866D02*
X76704172Y-33703200D01*
X76704172Y-33703200D02*
X76761315Y-33736533D01*
X76761315Y-33736533D02*
X76875601Y-33736533D01*
X76875601Y-33736533D02*
X76932743Y-33703200D01*
X76475601Y-33269866D02*
X76247029Y-33269866D01*
X76389886Y-33036533D02*
X76389886Y-33636533D01*
X76389886Y-33636533D02*
X76361315Y-33703200D01*
X76361315Y-33703200D02*
X76304172Y-33736533D01*
X76304172Y-33736533D02*
X76247029Y-33736533D01*
X75961315Y-33736533D02*
X76018458Y-33703200D01*
X76018458Y-33703200D02*
X76047029Y-33669866D01*
X76047029Y-33669866D02*
X76075601Y-33603200D01*
X76075601Y-33603200D02*
X76075601Y-33403200D01*
X76075601Y-33403200D02*
X76047029Y-33336533D01*
X76047029Y-33336533D02*
X76018458Y-33303200D01*
X76018458Y-33303200D02*
X75961315Y-33269866D01*
X75961315Y-33269866D02*
X75875601Y-33269866D01*
X75875601Y-33269866D02*
X75818458Y-33303200D01*
X75818458Y-33303200D02*
X75789887Y-33336533D01*
X75789887Y-33336533D02*
X75761315Y-33403200D01*
X75761315Y-33403200D02*
X75761315Y-33603200D01*
X75761315Y-33603200D02*
X75789887Y-33669866D01*
X75789887Y-33669866D02*
X75818458Y-33703200D01*
X75818458Y-33703200D02*
X75875601Y-33736533D01*
X75875601Y-33736533D02*
X75961315Y-33736533D01*
X75532744Y-33536533D02*
X75247030Y-33536533D01*
X75589887Y-33736533D02*
X75389887Y-33036533D01*
X75389887Y-33036533D02*
X75189887Y-33736533D01*
X74732744Y-33736533D02*
X74732744Y-33036533D01*
X74732744Y-33703200D02*
X74789886Y-33736533D01*
X74789886Y-33736533D02*
X74904172Y-33736533D01*
X74904172Y-33736533D02*
X74961315Y-33703200D01*
X74961315Y-33703200D02*
X74989886Y-33669866D01*
X74989886Y-33669866D02*
X75018458Y-33603200D01*
X75018458Y-33603200D02*
X75018458Y-33403200D01*
X75018458Y-33403200D02*
X74989886Y-33336533D01*
X74989886Y-33336533D02*
X74961315Y-33303200D01*
X74961315Y-33303200D02*
X74904172Y-33269866D01*
X74904172Y-33269866D02*
X74789886Y-33269866D01*
X74789886Y-33269866D02*
X74732744Y-33303200D01*
X74504172Y-33269866D02*
X74361315Y-33736533D01*
X74361315Y-33736533D02*
X74218458Y-33269866D01*
X73732744Y-33736533D02*
X73732744Y-33369866D01*
X73732744Y-33369866D02*
X73761315Y-33303200D01*
X73761315Y-33303200D02*
X73818458Y-33269866D01*
X73818458Y-33269866D02*
X73932744Y-33269866D01*
X73932744Y-33269866D02*
X73989886Y-33303200D01*
X73732744Y-33703200D02*
X73789886Y-33736533D01*
X73789886Y-33736533D02*
X73932744Y-33736533D01*
X73932744Y-33736533D02*
X73989886Y-33703200D01*
X73989886Y-33703200D02*
X74018458Y-33636533D01*
X74018458Y-33636533D02*
X74018458Y-33569866D01*
X74018458Y-33569866D02*
X73989886Y-33503200D01*
X73989886Y-33503200D02*
X73932744Y-33469866D01*
X73932744Y-33469866D02*
X73789886Y-33469866D01*
X73789886Y-33469866D02*
X73732744Y-33436533D01*
X73447029Y-33269866D02*
X73447029Y-33736533D01*
X73447029Y-33336533D02*
X73418458Y-33303200D01*
X73418458Y-33303200D02*
X73361315Y-33269866D01*
X73361315Y-33269866D02*
X73275601Y-33269866D01*
X73275601Y-33269866D02*
X73218458Y-33303200D01*
X73218458Y-33303200D02*
X73189887Y-33369866D01*
X73189887Y-33369866D02*
X73189887Y-33736533D01*
X72647030Y-33703200D02*
X72704172Y-33736533D01*
X72704172Y-33736533D02*
X72818458Y-33736533D01*
X72818458Y-33736533D02*
X72875601Y-33703200D01*
X72875601Y-33703200D02*
X72904172Y-33669866D01*
X72904172Y-33669866D02*
X72932744Y-33603200D01*
X72932744Y-33603200D02*
X72932744Y-33403200D01*
X72932744Y-33403200D02*
X72904172Y-33336533D01*
X72904172Y-33336533D02*
X72875601Y-33303200D01*
X72875601Y-33303200D02*
X72818458Y-33269866D01*
X72818458Y-33269866D02*
X72704172Y-33269866D01*
X72704172Y-33269866D02*
X72647030Y-33303200D01*
X72161315Y-33703200D02*
X72218458Y-33736533D01*
X72218458Y-33736533D02*
X72332744Y-33736533D01*
X72332744Y-33736533D02*
X72389886Y-33703200D01*
X72389886Y-33703200D02*
X72418458Y-33636533D01*
X72418458Y-33636533D02*
X72418458Y-33369866D01*
X72418458Y-33369866D02*
X72389886Y-33303200D01*
X72389886Y-33303200D02*
X72332744Y-33269866D01*
X72332744Y-33269866D02*
X72218458Y-33269866D01*
X72218458Y-33269866D02*
X72161315Y-33303200D01*
X72161315Y-33303200D02*
X72132744Y-33369866D01*
X72132744Y-33369866D02*
X72132744Y-33436533D01*
X72132744Y-33436533D02*
X72418458Y-33503200D01*
X36663312Y36711267D02*
X36663312Y37411267D01*
X36406170Y37344600D02*
X36377598Y37377934D01*
X36377598Y37377934D02*
X36320456Y37411267D01*
X36320456Y37411267D02*
X36177598Y37411267D01*
X36177598Y37411267D02*
X36120456Y37377934D01*
X36120456Y37377934D02*
X36091884Y37344600D01*
X36091884Y37344600D02*
X36063313Y37277934D01*
X36063313Y37277934D02*
X36063313Y37211267D01*
X36063313Y37211267D02*
X36091884Y37111267D01*
X36091884Y37111267D02*
X36434741Y36711267D01*
X36434741Y36711267D02*
X36063313Y36711267D01*
X35463312Y36777934D02*
X35491884Y36744600D01*
X35491884Y36744600D02*
X35577598Y36711267D01*
X35577598Y36711267D02*
X35634741Y36711267D01*
X35634741Y36711267D02*
X35720455Y36744600D01*
X35720455Y36744600D02*
X35777598Y36811267D01*
X35777598Y36811267D02*
X35806169Y36877934D01*
X35806169Y36877934D02*
X35834741Y37011267D01*
X35834741Y37011267D02*
X35834741Y37111267D01*
X35834741Y37111267D02*
X35806169Y37244600D01*
X35806169Y37244600D02*
X35777598Y37311267D01*
X35777598Y37311267D02*
X35720455Y37377934D01*
X35720455Y37377934D02*
X35634741Y37411267D01*
X35634741Y37411267D02*
X35577598Y37411267D01*
X35577598Y37411267D02*
X35491884Y37377934D01*
X35491884Y37377934D02*
X35463312Y37344600D01*
X34777598Y36744600D02*
X34691884Y36711267D01*
X34691884Y36711267D02*
X34549026Y36711267D01*
X34549026Y36711267D02*
X34491884Y36744600D01*
X34491884Y36744600D02*
X34463312Y36777934D01*
X34463312Y36777934D02*
X34434741Y36844600D01*
X34434741Y36844600D02*
X34434741Y36911267D01*
X34434741Y36911267D02*
X34463312Y36977934D01*
X34463312Y36977934D02*
X34491884Y37011267D01*
X34491884Y37011267D02*
X34549026Y37044600D01*
X34549026Y37044600D02*
X34663312Y37077934D01*
X34663312Y37077934D02*
X34720455Y37111267D01*
X34720455Y37111267D02*
X34749026Y37144600D01*
X34749026Y37144600D02*
X34777598Y37211267D01*
X34777598Y37211267D02*
X34777598Y37277934D01*
X34777598Y37277934D02*
X34749026Y37344600D01*
X34749026Y37344600D02*
X34720455Y37377934D01*
X34720455Y37377934D02*
X34663312Y37411267D01*
X34663312Y37411267D02*
X34520455Y37411267D01*
X34520455Y37411267D02*
X34434741Y37377934D01*
X33834740Y36777934D02*
X33863312Y36744600D01*
X33863312Y36744600D02*
X33949026Y36711267D01*
X33949026Y36711267D02*
X34006169Y36711267D01*
X34006169Y36711267D02*
X34091883Y36744600D01*
X34091883Y36744600D02*
X34149026Y36811267D01*
X34149026Y36811267D02*
X34177597Y36877934D01*
X34177597Y36877934D02*
X34206169Y37011267D01*
X34206169Y37011267D02*
X34206169Y37111267D01*
X34206169Y37111267D02*
X34177597Y37244600D01*
X34177597Y37244600D02*
X34149026Y37311267D01*
X34149026Y37311267D02*
X34091883Y37377934D01*
X34091883Y37377934D02*
X34006169Y37411267D01*
X34006169Y37411267D02*
X33949026Y37411267D01*
X33949026Y37411267D02*
X33863312Y37377934D01*
X33863312Y37377934D02*
X33834740Y37344600D01*
X33606169Y36911267D02*
X33320455Y36911267D01*
X33663312Y36711267D02*
X33463312Y37411267D01*
X33463312Y37411267D02*
X33263312Y36711267D01*
X32434740Y36444600D02*
X32463311Y36477934D01*
X32463311Y36477934D02*
X32520454Y36577934D01*
X32520454Y36577934D02*
X32549026Y36644600D01*
X32549026Y36644600D02*
X32577597Y36744600D01*
X32577597Y36744600D02*
X32606168Y36911267D01*
X32606168Y36911267D02*
X32606168Y37044600D01*
X32606168Y37044600D02*
X32577597Y37211267D01*
X32577597Y37211267D02*
X32549026Y37311267D01*
X32549026Y37311267D02*
X32520454Y37377934D01*
X32520454Y37377934D02*
X32463311Y37477934D01*
X32463311Y37477934D02*
X32434740Y37511267D01*
X32206168Y36711267D02*
X32206168Y37411267D01*
X32206168Y37411267D02*
X31863311Y36711267D01*
X31863311Y36711267D02*
X31863311Y37411267D01*
X31149026Y37444600D02*
X31663312Y36544600D01*
X30606169Y36777934D02*
X30634741Y36744600D01*
X30634741Y36744600D02*
X30720455Y36711267D01*
X30720455Y36711267D02*
X30777598Y36711267D01*
X30777598Y36711267D02*
X30863312Y36744600D01*
X30863312Y36744600D02*
X30920455Y36811267D01*
X30920455Y36811267D02*
X30949026Y36877934D01*
X30949026Y36877934D02*
X30977598Y37011267D01*
X30977598Y37011267D02*
X30977598Y37111267D01*
X30977598Y37111267D02*
X30949026Y37244600D01*
X30949026Y37244600D02*
X30920455Y37311267D01*
X30920455Y37311267D02*
X30863312Y37377934D01*
X30863312Y37377934D02*
X30777598Y37411267D01*
X30777598Y37411267D02*
X30720455Y37411267D01*
X30720455Y37411267D02*
X30634741Y37377934D01*
X30634741Y37377934D02*
X30606169Y37344600D01*
X30406169Y36444600D02*
X30377598Y36477934D01*
X30377598Y36477934D02*
X30320455Y36577934D01*
X30320455Y36577934D02*
X30291884Y36644600D01*
X30291884Y36644600D02*
X30263312Y36744600D01*
X30263312Y36744600D02*
X30234741Y36911267D01*
X30234741Y36911267D02*
X30234741Y37044600D01*
X30234741Y37044600D02*
X30263312Y37211267D01*
X30263312Y37211267D02*
X30291884Y37311267D01*
X30291884Y37311267D02*
X30320455Y37377934D01*
X30320455Y37377934D02*
X30377598Y37477934D01*
X30377598Y37477934D02*
X30406169Y37511267D01*
X36694740Y39346267D02*
X36694740Y40046267D01*
X36437598Y39979600D02*
X36409026Y40012934D01*
X36409026Y40012934D02*
X36351884Y40046267D01*
X36351884Y40046267D02*
X36209026Y40046267D01*
X36209026Y40046267D02*
X36151884Y40012934D01*
X36151884Y40012934D02*
X36123312Y39979600D01*
X36123312Y39979600D02*
X36094741Y39912934D01*
X36094741Y39912934D02*
X36094741Y39846267D01*
X36094741Y39846267D02*
X36123312Y39746267D01*
X36123312Y39746267D02*
X36466169Y39346267D01*
X36466169Y39346267D02*
X36094741Y39346267D01*
X35494740Y39412934D02*
X35523312Y39379600D01*
X35523312Y39379600D02*
X35609026Y39346267D01*
X35609026Y39346267D02*
X35666169Y39346267D01*
X35666169Y39346267D02*
X35751883Y39379600D01*
X35751883Y39379600D02*
X35809026Y39446267D01*
X35809026Y39446267D02*
X35837597Y39512934D01*
X35837597Y39512934D02*
X35866169Y39646267D01*
X35866169Y39646267D02*
X35866169Y39746267D01*
X35866169Y39746267D02*
X35837597Y39879600D01*
X35837597Y39879600D02*
X35809026Y39946267D01*
X35809026Y39946267D02*
X35751883Y40012934D01*
X35751883Y40012934D02*
X35666169Y40046267D01*
X35666169Y40046267D02*
X35609026Y40046267D01*
X35609026Y40046267D02*
X35523312Y40012934D01*
X35523312Y40012934D02*
X35494740Y39979600D01*
X34809026Y39379600D02*
X34723312Y39346267D01*
X34723312Y39346267D02*
X34580454Y39346267D01*
X34580454Y39346267D02*
X34523312Y39379600D01*
X34523312Y39379600D02*
X34494740Y39412934D01*
X34494740Y39412934D02*
X34466169Y39479600D01*
X34466169Y39479600D02*
X34466169Y39546267D01*
X34466169Y39546267D02*
X34494740Y39612934D01*
X34494740Y39612934D02*
X34523312Y39646267D01*
X34523312Y39646267D02*
X34580454Y39679600D01*
X34580454Y39679600D02*
X34694740Y39712934D01*
X34694740Y39712934D02*
X34751883Y39746267D01*
X34751883Y39746267D02*
X34780454Y39779600D01*
X34780454Y39779600D02*
X34809026Y39846267D01*
X34809026Y39846267D02*
X34809026Y39912934D01*
X34809026Y39912934D02*
X34780454Y39979600D01*
X34780454Y39979600D02*
X34751883Y40012934D01*
X34751883Y40012934D02*
X34694740Y40046267D01*
X34694740Y40046267D02*
X34551883Y40046267D01*
X34551883Y40046267D02*
X34466169Y40012934D01*
X33866168Y39412934D02*
X33894740Y39379600D01*
X33894740Y39379600D02*
X33980454Y39346267D01*
X33980454Y39346267D02*
X34037597Y39346267D01*
X34037597Y39346267D02*
X34123311Y39379600D01*
X34123311Y39379600D02*
X34180454Y39446267D01*
X34180454Y39446267D02*
X34209025Y39512934D01*
X34209025Y39512934D02*
X34237597Y39646267D01*
X34237597Y39646267D02*
X34237597Y39746267D01*
X34237597Y39746267D02*
X34209025Y39879600D01*
X34209025Y39879600D02*
X34180454Y39946267D01*
X34180454Y39946267D02*
X34123311Y40012934D01*
X34123311Y40012934D02*
X34037597Y40046267D01*
X34037597Y40046267D02*
X33980454Y40046267D01*
X33980454Y40046267D02*
X33894740Y40012934D01*
X33894740Y40012934D02*
X33866168Y39979600D01*
X33323311Y39346267D02*
X33609025Y39346267D01*
X33609025Y39346267D02*
X33609025Y40046267D01*
X32494740Y39079600D02*
X32523311Y39112934D01*
X32523311Y39112934D02*
X32580454Y39212934D01*
X32580454Y39212934D02*
X32609026Y39279600D01*
X32609026Y39279600D02*
X32637597Y39379600D01*
X32637597Y39379600D02*
X32666168Y39546267D01*
X32666168Y39546267D02*
X32666168Y39679600D01*
X32666168Y39679600D02*
X32637597Y39846267D01*
X32637597Y39846267D02*
X32609026Y39946267D01*
X32609026Y39946267D02*
X32580454Y40012934D01*
X32580454Y40012934D02*
X32523311Y40112934D01*
X32523311Y40112934D02*
X32494740Y40146267D01*
X32266168Y39346267D02*
X32266168Y40046267D01*
X32266168Y40046267D02*
X31923311Y39346267D01*
X31923311Y39346267D02*
X31923311Y40046267D01*
X31209026Y40079600D02*
X31723312Y39179600D01*
X30666169Y39412934D02*
X30694741Y39379600D01*
X30694741Y39379600D02*
X30780455Y39346267D01*
X30780455Y39346267D02*
X30837598Y39346267D01*
X30837598Y39346267D02*
X30923312Y39379600D01*
X30923312Y39379600D02*
X30980455Y39446267D01*
X30980455Y39446267D02*
X31009026Y39512934D01*
X31009026Y39512934D02*
X31037598Y39646267D01*
X31037598Y39646267D02*
X31037598Y39746267D01*
X31037598Y39746267D02*
X31009026Y39879600D01*
X31009026Y39879600D02*
X30980455Y39946267D01*
X30980455Y39946267D02*
X30923312Y40012934D01*
X30923312Y40012934D02*
X30837598Y40046267D01*
X30837598Y40046267D02*
X30780455Y40046267D01*
X30780455Y40046267D02*
X30694741Y40012934D01*
X30694741Y40012934D02*
X30666169Y39979600D01*
X30466169Y39079600D02*
X30437598Y39112934D01*
X30437598Y39112934D02*
X30380455Y39212934D01*
X30380455Y39212934D02*
X30351884Y39279600D01*
X30351884Y39279600D02*
X30323312Y39379600D01*
X30323312Y39379600D02*
X30294741Y39546267D01*
X30294741Y39546267D02*
X30294741Y39679600D01*
X30294741Y39679600D02*
X30323312Y39846267D01*
X30323312Y39846267D02*
X30351884Y39946267D01*
X30351884Y39946267D02*
X30380455Y40012934D01*
X30380455Y40012934D02*
X30437598Y40112934D01*
X30437598Y40112934D02*
X30466169Y40146267D01*
X31892968Y34063467D02*
X31892968Y34763467D01*
X31892968Y34763467D02*
X31550111Y34063467D01*
X31550111Y34063467D02*
X31550111Y34763467D01*
X30835826Y34796800D02*
X31350112Y33896800D01*
X30292969Y34130134D02*
X30321541Y34096800D01*
X30321541Y34096800D02*
X30407255Y34063467D01*
X30407255Y34063467D02*
X30464398Y34063467D01*
X30464398Y34063467D02*
X30550112Y34096800D01*
X30550112Y34096800D02*
X30607255Y34163467D01*
X30607255Y34163467D02*
X30635826Y34230134D01*
X30635826Y34230134D02*
X30664398Y34363467D01*
X30664398Y34363467D02*
X30664398Y34463467D01*
X30664398Y34463467D02*
X30635826Y34596800D01*
X30635826Y34596800D02*
X30607255Y34663467D01*
X30607255Y34663467D02*
X30550112Y34730134D01*
X30550112Y34730134D02*
X30464398Y34763467D01*
X30464398Y34763467D02*
X30407255Y34763467D01*
X30407255Y34763467D02*
X30321541Y34730134D01*
X30321541Y34730134D02*
X30292969Y34696800D01*
X39571540Y26493467D02*
X39571540Y27193467D01*
X39571540Y27193467D02*
X39342969Y27193467D01*
X39342969Y27193467D02*
X39285826Y27160134D01*
X39285826Y27160134D02*
X39257255Y27126800D01*
X39257255Y27126800D02*
X39228683Y27060134D01*
X39228683Y27060134D02*
X39228683Y26960134D01*
X39228683Y26960134D02*
X39257255Y26893467D01*
X39257255Y26893467D02*
X39285826Y26860134D01*
X39285826Y26860134D02*
X39342969Y26826800D01*
X39342969Y26826800D02*
X39571540Y26826800D01*
X39028683Y27193467D02*
X38885826Y26493467D01*
X38885826Y26493467D02*
X38771540Y26993467D01*
X38771540Y26993467D02*
X38657255Y26493467D01*
X38657255Y26493467D02*
X38514398Y27193467D01*
X37942969Y26493467D02*
X38142969Y26826800D01*
X38285826Y26493467D02*
X38285826Y27193467D01*
X38285826Y27193467D02*
X38057255Y27193467D01*
X38057255Y27193467D02*
X38000112Y27160134D01*
X38000112Y27160134D02*
X37971541Y27126800D01*
X37971541Y27126800D02*
X37942969Y27060134D01*
X37942969Y27060134D02*
X37942969Y26960134D01*
X37942969Y26960134D02*
X37971541Y26893467D01*
X37971541Y26893467D02*
X38000112Y26860134D01*
X38000112Y26860134D02*
X38057255Y26826800D01*
X38057255Y26826800D02*
X38285826Y26826800D01*
X37828684Y26426800D02*
X37371541Y26426800D01*
X37228683Y26960134D02*
X37228683Y26493467D01*
X37228683Y26893467D02*
X37200112Y26926800D01*
X37200112Y26926800D02*
X37142969Y26960134D01*
X37142969Y26960134D02*
X37057255Y26960134D01*
X37057255Y26960134D02*
X37000112Y26926800D01*
X37000112Y26926800D02*
X36971541Y26860134D01*
X36971541Y26860134D02*
X36971541Y26493467D01*
X36342969Y26560134D02*
X36371541Y26526800D01*
X36371541Y26526800D02*
X36457255Y26493467D01*
X36457255Y26493467D02*
X36514398Y26493467D01*
X36514398Y26493467D02*
X36600112Y26526800D01*
X36600112Y26526800D02*
X36657255Y26593467D01*
X36657255Y26593467D02*
X36685826Y26660134D01*
X36685826Y26660134D02*
X36714398Y26793467D01*
X36714398Y26793467D02*
X36714398Y26893467D01*
X36714398Y26893467D02*
X36685826Y27026800D01*
X36685826Y27026800D02*
X36657255Y27093467D01*
X36657255Y27093467D02*
X36600112Y27160134D01*
X36600112Y27160134D02*
X36514398Y27193467D01*
X36514398Y27193467D02*
X36457255Y27193467D01*
X36457255Y27193467D02*
X36371541Y27160134D01*
X36371541Y27160134D02*
X36342969Y27126800D01*
X36085826Y26493467D02*
X36085826Y27193467D01*
X35828684Y26493467D02*
X35828684Y26860134D01*
X35828684Y26860134D02*
X35857255Y26926800D01*
X35857255Y26926800D02*
X35914398Y26960134D01*
X35914398Y26960134D02*
X36000112Y26960134D01*
X36000112Y26960134D02*
X36057255Y26926800D01*
X36057255Y26926800D02*
X36085826Y26893467D01*
X35285827Y26493467D02*
X35285827Y26860134D01*
X35285827Y26860134D02*
X35314398Y26926800D01*
X35314398Y26926800D02*
X35371541Y26960134D01*
X35371541Y26960134D02*
X35485827Y26960134D01*
X35485827Y26960134D02*
X35542969Y26926800D01*
X35285827Y26526800D02*
X35342969Y26493467D01*
X35342969Y26493467D02*
X35485827Y26493467D01*
X35485827Y26493467D02*
X35542969Y26526800D01*
X35542969Y26526800D02*
X35571541Y26593467D01*
X35571541Y26593467D02*
X35571541Y26660134D01*
X35571541Y26660134D02*
X35542969Y26726800D01*
X35542969Y26726800D02*
X35485827Y26760134D01*
X35485827Y26760134D02*
X35342969Y26760134D01*
X35342969Y26760134D02*
X35285827Y26793467D01*
X35000112Y26493467D02*
X35000112Y26960134D01*
X35000112Y26826800D02*
X34971541Y26893467D01*
X34971541Y26893467D02*
X34942970Y26926800D01*
X34942970Y26926800D02*
X34885827Y26960134D01*
X34885827Y26960134D02*
X34828684Y26960134D01*
X34371541Y26960134D02*
X34371541Y26393467D01*
X34371541Y26393467D02*
X34400112Y26326800D01*
X34400112Y26326800D02*
X34428683Y26293467D01*
X34428683Y26293467D02*
X34485826Y26260134D01*
X34485826Y26260134D02*
X34571541Y26260134D01*
X34571541Y26260134D02*
X34628683Y26293467D01*
X34371541Y26526800D02*
X34428683Y26493467D01*
X34428683Y26493467D02*
X34542969Y26493467D01*
X34542969Y26493467D02*
X34600112Y26526800D01*
X34600112Y26526800D02*
X34628683Y26560134D01*
X34628683Y26560134D02*
X34657255Y26626800D01*
X34657255Y26626800D02*
X34657255Y26826800D01*
X34657255Y26826800D02*
X34628683Y26893467D01*
X34628683Y26893467D02*
X34600112Y26926800D01*
X34600112Y26926800D02*
X34542969Y26960134D01*
X34542969Y26960134D02*
X34428683Y26960134D01*
X34428683Y26960134D02*
X34371541Y26926800D01*
X33857255Y26526800D02*
X33914398Y26493467D01*
X33914398Y26493467D02*
X34028684Y26493467D01*
X34028684Y26493467D02*
X34085826Y26526800D01*
X34085826Y26526800D02*
X34114398Y26593467D01*
X34114398Y26593467D02*
X34114398Y26860134D01*
X34114398Y26860134D02*
X34085826Y26926800D01*
X34085826Y26926800D02*
X34028684Y26960134D01*
X34028684Y26960134D02*
X33914398Y26960134D01*
X33914398Y26960134D02*
X33857255Y26926800D01*
X33857255Y26926800D02*
X33828684Y26860134D01*
X33828684Y26860134D02*
X33828684Y26793467D01*
X33828684Y26793467D02*
X34114398Y26726800D01*
X33571540Y26493467D02*
X33571540Y26960134D01*
X33571540Y26826800D02*
X33542969Y26893467D01*
X33542969Y26893467D02*
X33514398Y26926800D01*
X33514398Y26926800D02*
X33457255Y26960134D01*
X33457255Y26960134D02*
X33400112Y26960134D01*
X32571540Y26226800D02*
X32600111Y26260134D01*
X32600111Y26260134D02*
X32657254Y26360134D01*
X32657254Y26360134D02*
X32685826Y26426800D01*
X32685826Y26426800D02*
X32714397Y26526800D01*
X32714397Y26526800D02*
X32742968Y26693467D01*
X32742968Y26693467D02*
X32742968Y26826800D01*
X32742968Y26826800D02*
X32714397Y26993467D01*
X32714397Y26993467D02*
X32685826Y27093467D01*
X32685826Y27093467D02*
X32657254Y27160134D01*
X32657254Y27160134D02*
X32600111Y27260134D01*
X32600111Y27260134D02*
X32571540Y27293467D01*
X32342968Y26493467D02*
X32342968Y27193467D01*
X32342968Y27193467D02*
X32000111Y26493467D01*
X32000111Y26493467D02*
X32000111Y27193467D01*
X31285826Y27226800D02*
X31800112Y26326800D01*
X30742969Y26560134D02*
X30771541Y26526800D01*
X30771541Y26526800D02*
X30857255Y26493467D01*
X30857255Y26493467D02*
X30914398Y26493467D01*
X30914398Y26493467D02*
X31000112Y26526800D01*
X31000112Y26526800D02*
X31057255Y26593467D01*
X31057255Y26593467D02*
X31085826Y26660134D01*
X31085826Y26660134D02*
X31114398Y26793467D01*
X31114398Y26793467D02*
X31114398Y26893467D01*
X31114398Y26893467D02*
X31085826Y27026800D01*
X31085826Y27026800D02*
X31057255Y27093467D01*
X31057255Y27093467D02*
X31000112Y27160134D01*
X31000112Y27160134D02*
X30914398Y27193467D01*
X30914398Y27193467D02*
X30857255Y27193467D01*
X30857255Y27193467D02*
X30771541Y27160134D01*
X30771541Y27160134D02*
X30742969Y27126800D01*
X30542969Y26226800D02*
X30514398Y26260134D01*
X30514398Y26260134D02*
X30457255Y26360134D01*
X30457255Y26360134D02*
X30428684Y26426800D01*
X30428684Y26426800D02*
X30400112Y26526800D01*
X30400112Y26526800D02*
X30371541Y26693467D01*
X30371541Y26693467D02*
X30371541Y26826800D01*
X30371541Y26826800D02*
X30400112Y26993467D01*
X30400112Y26993467D02*
X30428684Y27093467D01*
X30428684Y27093467D02*
X30457255Y27160134D01*
X30457255Y27160134D02*
X30514398Y27260134D01*
X30514398Y27260134D02*
X30542969Y27293467D01*
X31640112Y31950134D02*
X31697255Y31983467D01*
X31697255Y31983467D02*
X31782969Y31983467D01*
X31782969Y31983467D02*
X31868683Y31950134D01*
X31868683Y31950134D02*
X31925826Y31883467D01*
X31925826Y31883467D02*
X31954397Y31816800D01*
X31954397Y31816800D02*
X31982969Y31683467D01*
X31982969Y31683467D02*
X31982969Y31583467D01*
X31982969Y31583467D02*
X31954397Y31450134D01*
X31954397Y31450134D02*
X31925826Y31383467D01*
X31925826Y31383467D02*
X31868683Y31316800D01*
X31868683Y31316800D02*
X31782969Y31283467D01*
X31782969Y31283467D02*
X31725826Y31283467D01*
X31725826Y31283467D02*
X31640112Y31316800D01*
X31640112Y31316800D02*
X31611540Y31350134D01*
X31611540Y31350134D02*
X31611540Y31583467D01*
X31611540Y31583467D02*
X31725826Y31583467D01*
X31354397Y31283467D02*
X31354397Y31983467D01*
X31354397Y31983467D02*
X31011540Y31283467D01*
X31011540Y31283467D02*
X31011540Y31983467D01*
X30725826Y31283467D02*
X30725826Y31983467D01*
X30725826Y31983467D02*
X30582969Y31983467D01*
X30582969Y31983467D02*
X30497255Y31950134D01*
X30497255Y31950134D02*
X30440112Y31883467D01*
X30440112Y31883467D02*
X30411541Y31816800D01*
X30411541Y31816800D02*
X30382969Y31683467D01*
X30382969Y31683467D02*
X30382969Y31583467D01*
X30382969Y31583467D02*
X30411541Y31450134D01*
X30411541Y31450134D02*
X30440112Y31383467D01*
X30440112Y31383467D02*
X30497255Y31316800D01*
X30497255Y31316800D02*
X30582969Y31283467D01*
X30582969Y31283467D02*
X30725826Y31283467D01*
X31982968Y28813467D02*
X31982968Y29513467D01*
X31982968Y29513467D02*
X31640111Y28813467D01*
X31640111Y28813467D02*
X31640111Y29513467D01*
X30925826Y29546800D02*
X31440112Y28646800D01*
X30382969Y28880134D02*
X30411541Y28846800D01*
X30411541Y28846800D02*
X30497255Y28813467D01*
X30497255Y28813467D02*
X30554398Y28813467D01*
X30554398Y28813467D02*
X30640112Y28846800D01*
X30640112Y28846800D02*
X30697255Y28913467D01*
X30697255Y28913467D02*
X30725826Y28980134D01*
X30725826Y28980134D02*
X30754398Y29113467D01*
X30754398Y29113467D02*
X30754398Y29213467D01*
X30754398Y29213467D02*
X30725826Y29346800D01*
X30725826Y29346800D02*
X30697255Y29413467D01*
X30697255Y29413467D02*
X30640112Y29480134D01*
X30640112Y29480134D02*
X30554398Y29513467D01*
X30554398Y29513467D02*
X30497255Y29513467D01*
X30497255Y29513467D02*
X30411541Y29480134D01*
X30411541Y29480134D02*
X30382969Y29446800D01*
X34811539Y23703467D02*
X34811539Y24403467D01*
X34811539Y24403467D02*
X34582968Y24403467D01*
X34582968Y24403467D02*
X34525825Y24370134D01*
X34525825Y24370134D02*
X34497254Y24336800D01*
X34497254Y24336800D02*
X34468682Y24270134D01*
X34468682Y24270134D02*
X34468682Y24170134D01*
X34468682Y24170134D02*
X34497254Y24103467D01*
X34497254Y24103467D02*
X34525825Y24070134D01*
X34525825Y24070134D02*
X34582968Y24036800D01*
X34582968Y24036800D02*
X34811539Y24036800D01*
X34268682Y24403467D02*
X34125825Y23703467D01*
X34125825Y23703467D02*
X34011539Y24203467D01*
X34011539Y24203467D02*
X33897254Y23703467D01*
X33897254Y23703467D02*
X33754397Y24403467D01*
X33182968Y23703467D02*
X33382968Y24036800D01*
X33525825Y23703467D02*
X33525825Y24403467D01*
X33525825Y24403467D02*
X33297254Y24403467D01*
X33297254Y24403467D02*
X33240111Y24370134D01*
X33240111Y24370134D02*
X33211540Y24336800D01*
X33211540Y24336800D02*
X33182968Y24270134D01*
X33182968Y24270134D02*
X33182968Y24170134D01*
X33182968Y24170134D02*
X33211540Y24103467D01*
X33211540Y24103467D02*
X33240111Y24070134D01*
X33240111Y24070134D02*
X33297254Y24036800D01*
X33297254Y24036800D02*
X33525825Y24036800D01*
X33068683Y23636800D02*
X32611540Y23636800D01*
X32468682Y23703467D02*
X32468682Y24403467D01*
X32468682Y24070134D02*
X32125825Y24070134D01*
X32125825Y23703467D02*
X32125825Y24403467D01*
X31725826Y24403467D02*
X31611540Y24403467D01*
X31611540Y24403467D02*
X31554397Y24370134D01*
X31554397Y24370134D02*
X31497254Y24303467D01*
X31497254Y24303467D02*
X31468683Y24170134D01*
X31468683Y24170134D02*
X31468683Y23936800D01*
X31468683Y23936800D02*
X31497254Y23803467D01*
X31497254Y23803467D02*
X31554397Y23736800D01*
X31554397Y23736800D02*
X31611540Y23703467D01*
X31611540Y23703467D02*
X31725826Y23703467D01*
X31725826Y23703467D02*
X31782969Y23736800D01*
X31782969Y23736800D02*
X31840111Y23803467D01*
X31840111Y23803467D02*
X31868683Y23936800D01*
X31868683Y23936800D02*
X31868683Y24170134D01*
X31868683Y24170134D02*
X31840111Y24303467D01*
X31840111Y24303467D02*
X31782969Y24370134D01*
X31782969Y24370134D02*
X31725826Y24403467D01*
X30925826Y23703467D02*
X31211540Y23703467D01*
X31211540Y23703467D02*
X31211540Y24403467D01*
X30725826Y23703467D02*
X30725826Y24403467D01*
X30725826Y24403467D02*
X30582969Y24403467D01*
X30582969Y24403467D02*
X30497255Y24370134D01*
X30497255Y24370134D02*
X30440112Y24303467D01*
X30440112Y24303467D02*
X30411541Y24236800D01*
X30411541Y24236800D02*
X30382969Y24103467D01*
X30382969Y24103467D02*
X30382969Y24003467D01*
X30382969Y24003467D02*
X30411541Y23870134D01*
X30411541Y23870134D02*
X30440112Y23803467D01*
X30440112Y23803467D02*
X30497255Y23736800D01*
X30497255Y23736800D02*
X30582969Y23703467D01*
X30582969Y23703467D02*
X30725826Y23703467D01*
X36268684Y21140134D02*
X36297256Y21106800D01*
X36297256Y21106800D02*
X36382970Y21073467D01*
X36382970Y21073467D02*
X36440113Y21073467D01*
X36440113Y21073467D02*
X36525827Y21106800D01*
X36525827Y21106800D02*
X36582970Y21173467D01*
X36582970Y21173467D02*
X36611541Y21240134D01*
X36611541Y21240134D02*
X36640113Y21373467D01*
X36640113Y21373467D02*
X36640113Y21473467D01*
X36640113Y21473467D02*
X36611541Y21606800D01*
X36611541Y21606800D02*
X36582970Y21673467D01*
X36582970Y21673467D02*
X36525827Y21740134D01*
X36525827Y21740134D02*
X36440113Y21773467D01*
X36440113Y21773467D02*
X36382970Y21773467D01*
X36382970Y21773467D02*
X36297256Y21740134D01*
X36297256Y21740134D02*
X36268684Y21706800D01*
X36011541Y21073467D02*
X36011541Y21773467D01*
X36011541Y21440134D02*
X35668684Y21440134D01*
X35668684Y21073467D02*
X35668684Y21773467D01*
X35411542Y21273467D02*
X35125828Y21273467D01*
X35468685Y21073467D02*
X35268685Y21773467D01*
X35268685Y21773467D02*
X35068685Y21073467D01*
X34525827Y21073467D02*
X34725827Y21406800D01*
X34868684Y21073467D02*
X34868684Y21773467D01*
X34868684Y21773467D02*
X34640113Y21773467D01*
X34640113Y21773467D02*
X34582970Y21740134D01*
X34582970Y21740134D02*
X34554399Y21706800D01*
X34554399Y21706800D02*
X34525827Y21640134D01*
X34525827Y21640134D02*
X34525827Y21540134D01*
X34525827Y21540134D02*
X34554399Y21473467D01*
X34554399Y21473467D02*
X34582970Y21440134D01*
X34582970Y21440134D02*
X34640113Y21406800D01*
X34640113Y21406800D02*
X34868684Y21406800D01*
X33954399Y21740134D02*
X34011542Y21773467D01*
X34011542Y21773467D02*
X34097256Y21773467D01*
X34097256Y21773467D02*
X34182970Y21740134D01*
X34182970Y21740134D02*
X34240113Y21673467D01*
X34240113Y21673467D02*
X34268684Y21606800D01*
X34268684Y21606800D02*
X34297256Y21473467D01*
X34297256Y21473467D02*
X34297256Y21373467D01*
X34297256Y21373467D02*
X34268684Y21240134D01*
X34268684Y21240134D02*
X34240113Y21173467D01*
X34240113Y21173467D02*
X34182970Y21106800D01*
X34182970Y21106800D02*
X34097256Y21073467D01*
X34097256Y21073467D02*
X34040113Y21073467D01*
X34040113Y21073467D02*
X33954399Y21106800D01*
X33954399Y21106800D02*
X33925827Y21140134D01*
X33925827Y21140134D02*
X33925827Y21373467D01*
X33925827Y21373467D02*
X34040113Y21373467D01*
X33668684Y21440134D02*
X33468684Y21440134D01*
X33382970Y21073467D02*
X33668684Y21073467D01*
X33668684Y21073467D02*
X33668684Y21773467D01*
X33668684Y21773467D02*
X33382970Y21773467D01*
X33268685Y21006800D02*
X32811542Y21006800D01*
X32697256Y21106800D02*
X32611542Y21073467D01*
X32611542Y21073467D02*
X32468684Y21073467D01*
X32468684Y21073467D02*
X32411542Y21106800D01*
X32411542Y21106800D02*
X32382970Y21140134D01*
X32382970Y21140134D02*
X32354399Y21206800D01*
X32354399Y21206800D02*
X32354399Y21273467D01*
X32354399Y21273467D02*
X32382970Y21340134D01*
X32382970Y21340134D02*
X32411542Y21373467D01*
X32411542Y21373467D02*
X32468684Y21406800D01*
X32468684Y21406800D02*
X32582970Y21440134D01*
X32582970Y21440134D02*
X32640113Y21473467D01*
X32640113Y21473467D02*
X32668684Y21506800D01*
X32668684Y21506800D02*
X32697256Y21573467D01*
X32697256Y21573467D02*
X32697256Y21640134D01*
X32697256Y21640134D02*
X32668684Y21706800D01*
X32668684Y21706800D02*
X32640113Y21740134D01*
X32640113Y21740134D02*
X32582970Y21773467D01*
X32582970Y21773467D02*
X32440113Y21773467D01*
X32440113Y21773467D02*
X32354399Y21740134D01*
X32182970Y21773467D02*
X31840113Y21773467D01*
X32011541Y21073467D02*
X32011541Y21773467D01*
X31668684Y21273467D02*
X31382970Y21273467D01*
X31725827Y21073467D02*
X31525827Y21773467D01*
X31525827Y21773467D02*
X31325827Y21073467D01*
X31211541Y21773467D02*
X30868684Y21773467D01*
X31040112Y21073467D02*
X31040112Y21773467D01*
X30668683Y21440134D02*
X30468683Y21440134D01*
X30382969Y21073467D02*
X30668683Y21073467D01*
X30668683Y21073467D02*
X30668683Y21773467D01*
X30668683Y21773467D02*
X30382969Y21773467D01*
X34268684Y18890134D02*
X34182970Y18856800D01*
X34182970Y18856800D02*
X34154399Y18823467D01*
X34154399Y18823467D02*
X34125827Y18756800D01*
X34125827Y18756800D02*
X34125827Y18656800D01*
X34125827Y18656800D02*
X34154399Y18590134D01*
X34154399Y18590134D02*
X34182970Y18556800D01*
X34182970Y18556800D02*
X34240113Y18523467D01*
X34240113Y18523467D02*
X34468684Y18523467D01*
X34468684Y18523467D02*
X34468684Y19223467D01*
X34468684Y19223467D02*
X34268684Y19223467D01*
X34268684Y19223467D02*
X34211542Y19190134D01*
X34211542Y19190134D02*
X34182970Y19156800D01*
X34182970Y19156800D02*
X34154399Y19090134D01*
X34154399Y19090134D02*
X34154399Y19023467D01*
X34154399Y19023467D02*
X34182970Y18956800D01*
X34182970Y18956800D02*
X34211542Y18923467D01*
X34211542Y18923467D02*
X34268684Y18890134D01*
X34268684Y18890134D02*
X34468684Y18890134D01*
X33897256Y18723467D02*
X33611542Y18723467D01*
X33954399Y18523467D02*
X33754399Y19223467D01*
X33754399Y19223467D02*
X33554399Y18523467D01*
X33440113Y19223467D02*
X33097256Y19223467D01*
X33268684Y18523467D02*
X33268684Y19223467D01*
X33040113Y18456800D02*
X32582970Y18456800D01*
X32440112Y18523467D02*
X32440112Y19223467D01*
X32440112Y19223467D02*
X32240112Y18723467D01*
X32240112Y18723467D02*
X32040112Y19223467D01*
X32040112Y19223467D02*
X32040112Y18523467D01*
X31754398Y18890134D02*
X31554398Y18890134D01*
X31468684Y18523467D02*
X31754398Y18523467D01*
X31754398Y18523467D02*
X31754398Y19223467D01*
X31754398Y19223467D02*
X31468684Y19223467D01*
X31240113Y18723467D02*
X30954399Y18723467D01*
X31297256Y18523467D02*
X31097256Y19223467D01*
X31097256Y19223467D02*
X30897256Y18523467D01*
X30725827Y18556800D02*
X30640113Y18523467D01*
X30640113Y18523467D02*
X30497255Y18523467D01*
X30497255Y18523467D02*
X30440113Y18556800D01*
X30440113Y18556800D02*
X30411541Y18590134D01*
X30411541Y18590134D02*
X30382970Y18656800D01*
X30382970Y18656800D02*
X30382970Y18723467D01*
X30382970Y18723467D02*
X30411541Y18790134D01*
X30411541Y18790134D02*
X30440113Y18823467D01*
X30440113Y18823467D02*
X30497255Y18856800D01*
X30497255Y18856800D02*
X30611541Y18890134D01*
X30611541Y18890134D02*
X30668684Y18923467D01*
X30668684Y18923467D02*
X30697255Y18956800D01*
X30697255Y18956800D02*
X30725827Y19023467D01*
X30725827Y19023467D02*
X30725827Y19090134D01*
X30725827Y19090134D02*
X30697255Y19156800D01*
X30697255Y19156800D02*
X30668684Y19190134D01*
X30668684Y19190134D02*
X30611541Y19223467D01*
X30611541Y19223467D02*
X30468684Y19223467D01*
X30468684Y19223467D02*
X30382970Y19190134D01*
X33697256Y16126800D02*
X33611542Y16093467D01*
X33611542Y16093467D02*
X33468684Y16093467D01*
X33468684Y16093467D02*
X33411542Y16126800D01*
X33411542Y16126800D02*
X33382970Y16160134D01*
X33382970Y16160134D02*
X33354399Y16226800D01*
X33354399Y16226800D02*
X33354399Y16293467D01*
X33354399Y16293467D02*
X33382970Y16360134D01*
X33382970Y16360134D02*
X33411542Y16393467D01*
X33411542Y16393467D02*
X33468684Y16426800D01*
X33468684Y16426800D02*
X33582970Y16460134D01*
X33582970Y16460134D02*
X33640113Y16493467D01*
X33640113Y16493467D02*
X33668684Y16526800D01*
X33668684Y16526800D02*
X33697256Y16593467D01*
X33697256Y16593467D02*
X33697256Y16660134D01*
X33697256Y16660134D02*
X33668684Y16726800D01*
X33668684Y16726800D02*
X33640113Y16760134D01*
X33640113Y16760134D02*
X33582970Y16793467D01*
X33582970Y16793467D02*
X33440113Y16793467D01*
X33440113Y16793467D02*
X33354399Y16760134D01*
X32754398Y16160134D02*
X32782970Y16126800D01*
X32782970Y16126800D02*
X32868684Y16093467D01*
X32868684Y16093467D02*
X32925827Y16093467D01*
X32925827Y16093467D02*
X33011541Y16126800D01*
X33011541Y16126800D02*
X33068684Y16193467D01*
X33068684Y16193467D02*
X33097255Y16260134D01*
X33097255Y16260134D02*
X33125827Y16393467D01*
X33125827Y16393467D02*
X33125827Y16493467D01*
X33125827Y16493467D02*
X33097255Y16626800D01*
X33097255Y16626800D02*
X33068684Y16693467D01*
X33068684Y16693467D02*
X33011541Y16760134D01*
X33011541Y16760134D02*
X32925827Y16793467D01*
X32925827Y16793467D02*
X32868684Y16793467D01*
X32868684Y16793467D02*
X32782970Y16760134D01*
X32782970Y16760134D02*
X32754398Y16726800D01*
X32497255Y16360134D02*
X32040113Y16360134D01*
X31411541Y16093467D02*
X31611541Y16426800D01*
X31754398Y16093467D02*
X31754398Y16793467D01*
X31754398Y16793467D02*
X31525827Y16793467D01*
X31525827Y16793467D02*
X31468684Y16760134D01*
X31468684Y16760134D02*
X31440113Y16726800D01*
X31440113Y16726800D02*
X31411541Y16660134D01*
X31411541Y16660134D02*
X31411541Y16560134D01*
X31411541Y16560134D02*
X31440113Y16493467D01*
X31440113Y16493467D02*
X31468684Y16460134D01*
X31468684Y16460134D02*
X31525827Y16426800D01*
X31525827Y16426800D02*
X31754398Y16426800D01*
X31182970Y16126800D02*
X31097256Y16093467D01*
X31097256Y16093467D02*
X30954398Y16093467D01*
X30954398Y16093467D02*
X30897256Y16126800D01*
X30897256Y16126800D02*
X30868684Y16160134D01*
X30868684Y16160134D02*
X30840113Y16226800D01*
X30840113Y16226800D02*
X30840113Y16293467D01*
X30840113Y16293467D02*
X30868684Y16360134D01*
X30868684Y16360134D02*
X30897256Y16393467D01*
X30897256Y16393467D02*
X30954398Y16426800D01*
X30954398Y16426800D02*
X31068684Y16460134D01*
X31068684Y16460134D02*
X31125827Y16493467D01*
X31125827Y16493467D02*
X31154398Y16526800D01*
X31154398Y16526800D02*
X31182970Y16593467D01*
X31182970Y16593467D02*
X31182970Y16660134D01*
X31182970Y16660134D02*
X31154398Y16726800D01*
X31154398Y16726800D02*
X31125827Y16760134D01*
X31125827Y16760134D02*
X31068684Y16793467D01*
X31068684Y16793467D02*
X30925827Y16793467D01*
X30925827Y16793467D02*
X30840113Y16760134D01*
X30668684Y16793467D02*
X30325827Y16793467D01*
X30497255Y16093467D02*
X30497255Y16793467D01*
X35725827Y11946800D02*
X35640113Y11913467D01*
X35640113Y11913467D02*
X35497255Y11913467D01*
X35497255Y11913467D02*
X35440113Y11946800D01*
X35440113Y11946800D02*
X35411541Y11980134D01*
X35411541Y11980134D02*
X35382970Y12046800D01*
X35382970Y12046800D02*
X35382970Y12113467D01*
X35382970Y12113467D02*
X35411541Y12180134D01*
X35411541Y12180134D02*
X35440113Y12213467D01*
X35440113Y12213467D02*
X35497255Y12246800D01*
X35497255Y12246800D02*
X35611541Y12280134D01*
X35611541Y12280134D02*
X35668684Y12313467D01*
X35668684Y12313467D02*
X35697255Y12346800D01*
X35697255Y12346800D02*
X35725827Y12413467D01*
X35725827Y12413467D02*
X35725827Y12480134D01*
X35725827Y12480134D02*
X35697255Y12546800D01*
X35697255Y12546800D02*
X35668684Y12580134D01*
X35668684Y12580134D02*
X35611541Y12613467D01*
X35611541Y12613467D02*
X35468684Y12613467D01*
X35468684Y12613467D02*
X35382970Y12580134D01*
X34782969Y11980134D02*
X34811541Y11946800D01*
X34811541Y11946800D02*
X34897255Y11913467D01*
X34897255Y11913467D02*
X34954398Y11913467D01*
X34954398Y11913467D02*
X35040112Y11946800D01*
X35040112Y11946800D02*
X35097255Y12013467D01*
X35097255Y12013467D02*
X35125826Y12080134D01*
X35125826Y12080134D02*
X35154398Y12213467D01*
X35154398Y12213467D02*
X35154398Y12313467D01*
X35154398Y12313467D02*
X35125826Y12446800D01*
X35125826Y12446800D02*
X35097255Y12513467D01*
X35097255Y12513467D02*
X35040112Y12580134D01*
X35040112Y12580134D02*
X34954398Y12613467D01*
X34954398Y12613467D02*
X34897255Y12613467D01*
X34897255Y12613467D02*
X34811541Y12580134D01*
X34811541Y12580134D02*
X34782969Y12546800D01*
X34525826Y12180134D02*
X34068684Y12180134D01*
X33440112Y11980134D02*
X33468684Y11946800D01*
X33468684Y11946800D02*
X33554398Y11913467D01*
X33554398Y11913467D02*
X33611541Y11913467D01*
X33611541Y11913467D02*
X33697255Y11946800D01*
X33697255Y11946800D02*
X33754398Y12013467D01*
X33754398Y12013467D02*
X33782969Y12080134D01*
X33782969Y12080134D02*
X33811541Y12213467D01*
X33811541Y12213467D02*
X33811541Y12313467D01*
X33811541Y12313467D02*
X33782969Y12446800D01*
X33782969Y12446800D02*
X33754398Y12513467D01*
X33754398Y12513467D02*
X33697255Y12580134D01*
X33697255Y12580134D02*
X33611541Y12613467D01*
X33611541Y12613467D02*
X33554398Y12613467D01*
X33554398Y12613467D02*
X33468684Y12580134D01*
X33468684Y12580134D02*
X33440112Y12546800D01*
X32897255Y11913467D02*
X33182969Y11913467D01*
X33182969Y11913467D02*
X33182969Y12613467D01*
X32697255Y11913467D02*
X32697255Y12613467D01*
X32354398Y11913467D02*
X32611541Y12313467D01*
X32354398Y12613467D02*
X32697255Y12213467D01*
X32097255Y11913467D02*
X32097255Y12613467D01*
X32097255Y12613467D02*
X31954398Y12613467D01*
X31954398Y12613467D02*
X31868684Y12580134D01*
X31868684Y12580134D02*
X31811541Y12513467D01*
X31811541Y12513467D02*
X31782970Y12446800D01*
X31782970Y12446800D02*
X31754398Y12313467D01*
X31754398Y12313467D02*
X31754398Y12213467D01*
X31754398Y12213467D02*
X31782970Y12080134D01*
X31782970Y12080134D02*
X31811541Y12013467D01*
X31811541Y12013467D02*
X31868684Y11946800D01*
X31868684Y11946800D02*
X31954398Y11913467D01*
X31954398Y11913467D02*
X32097255Y11913467D01*
X31497255Y11913467D02*
X31497255Y12613467D01*
X31297256Y12613467D02*
X31097256Y11913467D01*
X31097256Y11913467D02*
X30897256Y12613467D01*
X30382970Y11913467D02*
X30725827Y11913467D01*
X30554398Y11913467D02*
X30554398Y12613467D01*
X30554398Y12613467D02*
X30611541Y12513467D01*
X30611541Y12513467D02*
X30668684Y12446800D01*
X30668684Y12446800D02*
X30725827Y12413467D01*
X37468684Y9646800D02*
X37382970Y9613467D01*
X37382970Y9613467D02*
X37240112Y9613467D01*
X37240112Y9613467D02*
X37182970Y9646800D01*
X37182970Y9646800D02*
X37154398Y9680134D01*
X37154398Y9680134D02*
X37125827Y9746800D01*
X37125827Y9746800D02*
X37125827Y9813467D01*
X37125827Y9813467D02*
X37154398Y9880134D01*
X37154398Y9880134D02*
X37182970Y9913467D01*
X37182970Y9913467D02*
X37240112Y9946800D01*
X37240112Y9946800D02*
X37354398Y9980134D01*
X37354398Y9980134D02*
X37411541Y10013467D01*
X37411541Y10013467D02*
X37440112Y10046800D01*
X37440112Y10046800D02*
X37468684Y10113467D01*
X37468684Y10113467D02*
X37468684Y10180134D01*
X37468684Y10180134D02*
X37440112Y10246800D01*
X37440112Y10246800D02*
X37411541Y10280134D01*
X37411541Y10280134D02*
X37354398Y10313467D01*
X37354398Y10313467D02*
X37211541Y10313467D01*
X37211541Y10313467D02*
X37125827Y10280134D01*
X36525826Y9680134D02*
X36554398Y9646800D01*
X36554398Y9646800D02*
X36640112Y9613467D01*
X36640112Y9613467D02*
X36697255Y9613467D01*
X36697255Y9613467D02*
X36782969Y9646800D01*
X36782969Y9646800D02*
X36840112Y9713467D01*
X36840112Y9713467D02*
X36868683Y9780134D01*
X36868683Y9780134D02*
X36897255Y9913467D01*
X36897255Y9913467D02*
X36897255Y10013467D01*
X36897255Y10013467D02*
X36868683Y10146800D01*
X36868683Y10146800D02*
X36840112Y10213467D01*
X36840112Y10213467D02*
X36782969Y10280134D01*
X36782969Y10280134D02*
X36697255Y10313467D01*
X36697255Y10313467D02*
X36640112Y10313467D01*
X36640112Y10313467D02*
X36554398Y10280134D01*
X36554398Y10280134D02*
X36525826Y10246800D01*
X36268683Y9880134D02*
X35811541Y9880134D01*
X35554398Y9813467D02*
X35268684Y9813467D01*
X35611541Y9613467D02*
X35411541Y10313467D01*
X35411541Y10313467D02*
X35211541Y9613467D01*
X35011540Y10313467D02*
X35011540Y9746800D01*
X35011540Y9746800D02*
X34982969Y9680134D01*
X34982969Y9680134D02*
X34954398Y9646800D01*
X34954398Y9646800D02*
X34897255Y9613467D01*
X34897255Y9613467D02*
X34782969Y9613467D01*
X34782969Y9613467D02*
X34725826Y9646800D01*
X34725826Y9646800D02*
X34697255Y9680134D01*
X34697255Y9680134D02*
X34668683Y9746800D01*
X34668683Y9746800D02*
X34668683Y10313467D01*
X34440112Y10313467D02*
X34040112Y9613467D01*
X34040112Y10313467D02*
X34440112Y9613467D01*
X33497255Y9613467D02*
X33840112Y9613467D01*
X33668683Y9613467D02*
X33668683Y10313467D01*
X33668683Y10313467D02*
X33725826Y10213467D01*
X33725826Y10213467D02*
X33782969Y10146800D01*
X33782969Y10146800D02*
X33840112Y10113467D01*
X32611540Y9346800D02*
X32640111Y9380134D01*
X32640111Y9380134D02*
X32697254Y9480134D01*
X32697254Y9480134D02*
X32725826Y9546800D01*
X32725826Y9546800D02*
X32754397Y9646800D01*
X32754397Y9646800D02*
X32782968Y9813467D01*
X32782968Y9813467D02*
X32782968Y9946800D01*
X32782968Y9946800D02*
X32754397Y10113467D01*
X32754397Y10113467D02*
X32725826Y10213467D01*
X32725826Y10213467D02*
X32697254Y10280134D01*
X32697254Y10280134D02*
X32640111Y10380134D01*
X32640111Y10380134D02*
X32611540Y10413467D01*
X32382968Y9613467D02*
X32382968Y10313467D01*
X32382968Y10313467D02*
X32040111Y9613467D01*
X32040111Y9613467D02*
X32040111Y10313467D01*
X31325826Y10346800D02*
X31840112Y9446800D01*
X30782969Y9680134D02*
X30811541Y9646800D01*
X30811541Y9646800D02*
X30897255Y9613467D01*
X30897255Y9613467D02*
X30954398Y9613467D01*
X30954398Y9613467D02*
X31040112Y9646800D01*
X31040112Y9646800D02*
X31097255Y9713467D01*
X31097255Y9713467D02*
X31125826Y9780134D01*
X31125826Y9780134D02*
X31154398Y9913467D01*
X31154398Y9913467D02*
X31154398Y10013467D01*
X31154398Y10013467D02*
X31125826Y10146800D01*
X31125826Y10146800D02*
X31097255Y10213467D01*
X31097255Y10213467D02*
X31040112Y10280134D01*
X31040112Y10280134D02*
X30954398Y10313467D01*
X30954398Y10313467D02*
X30897255Y10313467D01*
X30897255Y10313467D02*
X30811541Y10280134D01*
X30811541Y10280134D02*
X30782969Y10246800D01*
X30582969Y9346800D02*
X30554398Y9380134D01*
X30554398Y9380134D02*
X30497255Y9480134D01*
X30497255Y9480134D02*
X30468684Y9546800D01*
X30468684Y9546800D02*
X30440112Y9646800D01*
X30440112Y9646800D02*
X30411541Y9813467D01*
X30411541Y9813467D02*
X30411541Y9946800D01*
X30411541Y9946800D02*
X30440112Y10113467D01*
X30440112Y10113467D02*
X30468684Y10213467D01*
X30468684Y10213467D02*
X30497255Y10280134D01*
X30497255Y10280134D02*
X30554398Y10380134D01*
X30554398Y10380134D02*
X30582969Y10413467D01*
X32982969Y6916800D02*
X32897255Y6883467D01*
X32897255Y6883467D02*
X32754397Y6883467D01*
X32754397Y6883467D02*
X32697255Y6916800D01*
X32697255Y6916800D02*
X32668683Y6950134D01*
X32668683Y6950134D02*
X32640112Y7016800D01*
X32640112Y7016800D02*
X32640112Y7083467D01*
X32640112Y7083467D02*
X32668683Y7150134D01*
X32668683Y7150134D02*
X32697255Y7183467D01*
X32697255Y7183467D02*
X32754397Y7216800D01*
X32754397Y7216800D02*
X32868683Y7250134D01*
X32868683Y7250134D02*
X32925826Y7283467D01*
X32925826Y7283467D02*
X32954397Y7316800D01*
X32954397Y7316800D02*
X32982969Y7383467D01*
X32982969Y7383467D02*
X32982969Y7450134D01*
X32982969Y7450134D02*
X32954397Y7516800D01*
X32954397Y7516800D02*
X32925826Y7550134D01*
X32925826Y7550134D02*
X32868683Y7583467D01*
X32868683Y7583467D02*
X32725826Y7583467D01*
X32725826Y7583467D02*
X32640112Y7550134D01*
X32040111Y6950134D02*
X32068683Y6916800D01*
X32068683Y6916800D02*
X32154397Y6883467D01*
X32154397Y6883467D02*
X32211540Y6883467D01*
X32211540Y6883467D02*
X32297254Y6916800D01*
X32297254Y6916800D02*
X32354397Y6983467D01*
X32354397Y6983467D02*
X32382968Y7050134D01*
X32382968Y7050134D02*
X32411540Y7183467D01*
X32411540Y7183467D02*
X32411540Y7283467D01*
X32411540Y7283467D02*
X32382968Y7416800D01*
X32382968Y7416800D02*
X32354397Y7483467D01*
X32354397Y7483467D02*
X32297254Y7550134D01*
X32297254Y7550134D02*
X32211540Y7583467D01*
X32211540Y7583467D02*
X32154397Y7583467D01*
X32154397Y7583467D02*
X32068683Y7550134D01*
X32068683Y7550134D02*
X32040111Y7516800D01*
X31782968Y7150134D02*
X31325826Y7150134D01*
X31040111Y6883467D02*
X31040111Y7583467D01*
X30640112Y7583467D02*
X30525826Y7583467D01*
X30525826Y7583467D02*
X30468683Y7550134D01*
X30468683Y7550134D02*
X30411540Y7483467D01*
X30411540Y7483467D02*
X30382969Y7350134D01*
X30382969Y7350134D02*
X30382969Y7116800D01*
X30382969Y7116800D02*
X30411540Y6983467D01*
X30411540Y6983467D02*
X30468683Y6916800D01*
X30468683Y6916800D02*
X30525826Y6883467D01*
X30525826Y6883467D02*
X30640112Y6883467D01*
X30640112Y6883467D02*
X30697255Y6916800D01*
X30697255Y6916800D02*
X30754397Y6983467D01*
X30754397Y6983467D02*
X30782969Y7116800D01*
X30782969Y7116800D02*
X30782969Y7350134D01*
X30782969Y7350134D02*
X30754397Y7483467D01*
X30754397Y7483467D02*
X30697255Y7550134D01*
X30697255Y7550134D02*
X30640112Y7583467D01*
X38840112Y4816800D02*
X38754398Y4783467D01*
X38754398Y4783467D02*
X38611540Y4783467D01*
X38611540Y4783467D02*
X38554398Y4816800D01*
X38554398Y4816800D02*
X38525826Y4850134D01*
X38525826Y4850134D02*
X38497255Y4916800D01*
X38497255Y4916800D02*
X38497255Y4983467D01*
X38497255Y4983467D02*
X38525826Y5050134D01*
X38525826Y5050134D02*
X38554398Y5083467D01*
X38554398Y5083467D02*
X38611540Y5116800D01*
X38611540Y5116800D02*
X38725826Y5150134D01*
X38725826Y5150134D02*
X38782969Y5183467D01*
X38782969Y5183467D02*
X38811540Y5216800D01*
X38811540Y5216800D02*
X38840112Y5283467D01*
X38840112Y5283467D02*
X38840112Y5350134D01*
X38840112Y5350134D02*
X38811540Y5416800D01*
X38811540Y5416800D02*
X38782969Y5450134D01*
X38782969Y5450134D02*
X38725826Y5483467D01*
X38725826Y5483467D02*
X38582969Y5483467D01*
X38582969Y5483467D02*
X38497255Y5450134D01*
X37897254Y4850134D02*
X37925826Y4816800D01*
X37925826Y4816800D02*
X38011540Y4783467D01*
X38011540Y4783467D02*
X38068683Y4783467D01*
X38068683Y4783467D02*
X38154397Y4816800D01*
X38154397Y4816800D02*
X38211540Y4883467D01*
X38211540Y4883467D02*
X38240111Y4950134D01*
X38240111Y4950134D02*
X38268683Y5083467D01*
X38268683Y5083467D02*
X38268683Y5183467D01*
X38268683Y5183467D02*
X38240111Y5316800D01*
X38240111Y5316800D02*
X38211540Y5383467D01*
X38211540Y5383467D02*
X38154397Y5450134D01*
X38154397Y5450134D02*
X38068683Y5483467D01*
X38068683Y5483467D02*
X38011540Y5483467D01*
X38011540Y5483467D02*
X37925826Y5450134D01*
X37925826Y5450134D02*
X37897254Y5416800D01*
X37640111Y5050134D02*
X37182969Y5050134D01*
X36554397Y4850134D02*
X36582969Y4816800D01*
X36582969Y4816800D02*
X36668683Y4783467D01*
X36668683Y4783467D02*
X36725826Y4783467D01*
X36725826Y4783467D02*
X36811540Y4816800D01*
X36811540Y4816800D02*
X36868683Y4883467D01*
X36868683Y4883467D02*
X36897254Y4950134D01*
X36897254Y4950134D02*
X36925826Y5083467D01*
X36925826Y5083467D02*
X36925826Y5183467D01*
X36925826Y5183467D02*
X36897254Y5316800D01*
X36897254Y5316800D02*
X36868683Y5383467D01*
X36868683Y5383467D02*
X36811540Y5450134D01*
X36811540Y5450134D02*
X36725826Y5483467D01*
X36725826Y5483467D02*
X36668683Y5483467D01*
X36668683Y5483467D02*
X36582969Y5450134D01*
X36582969Y5450134D02*
X36554397Y5416800D01*
X36011540Y4783467D02*
X36297254Y4783467D01*
X36297254Y4783467D02*
X36297254Y5483467D01*
X35811540Y4783467D02*
X35811540Y5483467D01*
X35468683Y4783467D02*
X35725826Y5183467D01*
X35468683Y5483467D02*
X35811540Y5083467D01*
X35211540Y4783467D02*
X35211540Y5483467D01*
X35211540Y5483467D02*
X35068683Y5483467D01*
X35068683Y5483467D02*
X34982969Y5450134D01*
X34982969Y5450134D02*
X34925826Y5383467D01*
X34925826Y5383467D02*
X34897255Y5316800D01*
X34897255Y5316800D02*
X34868683Y5183467D01*
X34868683Y5183467D02*
X34868683Y5083467D01*
X34868683Y5083467D02*
X34897255Y4950134D01*
X34897255Y4950134D02*
X34925826Y4883467D01*
X34925826Y4883467D02*
X34982969Y4816800D01*
X34982969Y4816800D02*
X35068683Y4783467D01*
X35068683Y4783467D02*
X35211540Y4783467D01*
X34611540Y4783467D02*
X34611540Y5483467D01*
X34411541Y5483467D02*
X34211541Y4783467D01*
X34211541Y4783467D02*
X34011541Y5483467D01*
X33840112Y5416800D02*
X33811540Y5450134D01*
X33811540Y5450134D02*
X33754398Y5483467D01*
X33754398Y5483467D02*
X33611540Y5483467D01*
X33611540Y5483467D02*
X33554398Y5450134D01*
X33554398Y5450134D02*
X33525826Y5416800D01*
X33525826Y5416800D02*
X33497255Y5350134D01*
X33497255Y5350134D02*
X33497255Y5283467D01*
X33497255Y5283467D02*
X33525826Y5183467D01*
X33525826Y5183467D02*
X33868683Y4783467D01*
X33868683Y4783467D02*
X33497255Y4783467D01*
X32611540Y4516800D02*
X32640111Y4550134D01*
X32640111Y4550134D02*
X32697254Y4650134D01*
X32697254Y4650134D02*
X32725826Y4716800D01*
X32725826Y4716800D02*
X32754397Y4816800D01*
X32754397Y4816800D02*
X32782968Y4983467D01*
X32782968Y4983467D02*
X32782968Y5116800D01*
X32782968Y5116800D02*
X32754397Y5283467D01*
X32754397Y5283467D02*
X32725826Y5383467D01*
X32725826Y5383467D02*
X32697254Y5450134D01*
X32697254Y5450134D02*
X32640111Y5550134D01*
X32640111Y5550134D02*
X32611540Y5583467D01*
X32382968Y4783467D02*
X32382968Y5483467D01*
X32382968Y5483467D02*
X32040111Y4783467D01*
X32040111Y4783467D02*
X32040111Y5483467D01*
X31325826Y5516800D02*
X31840112Y4616800D01*
X30782969Y4850134D02*
X30811541Y4816800D01*
X30811541Y4816800D02*
X30897255Y4783467D01*
X30897255Y4783467D02*
X30954398Y4783467D01*
X30954398Y4783467D02*
X31040112Y4816800D01*
X31040112Y4816800D02*
X31097255Y4883467D01*
X31097255Y4883467D02*
X31125826Y4950134D01*
X31125826Y4950134D02*
X31154398Y5083467D01*
X31154398Y5083467D02*
X31154398Y5183467D01*
X31154398Y5183467D02*
X31125826Y5316800D01*
X31125826Y5316800D02*
X31097255Y5383467D01*
X31097255Y5383467D02*
X31040112Y5450134D01*
X31040112Y5450134D02*
X30954398Y5483467D01*
X30954398Y5483467D02*
X30897255Y5483467D01*
X30897255Y5483467D02*
X30811541Y5450134D01*
X30811541Y5450134D02*
X30782969Y5416800D01*
X30582969Y4516800D02*
X30554398Y4550134D01*
X30554398Y4550134D02*
X30497255Y4650134D01*
X30497255Y4650134D02*
X30468684Y4716800D01*
X30468684Y4716800D02*
X30440112Y4816800D01*
X30440112Y4816800D02*
X30411541Y4983467D01*
X30411541Y4983467D02*
X30411541Y5116800D01*
X30411541Y5116800D02*
X30440112Y5283467D01*
X30440112Y5283467D02*
X30468684Y5383467D01*
X30468684Y5383467D02*
X30497255Y5450134D01*
X30497255Y5450134D02*
X30554398Y5550134D01*
X30554398Y5550134D02*
X30582969Y5583467D01*
X34382968Y2343467D02*
X34382968Y1776800D01*
X34382968Y1776800D02*
X34354397Y1710134D01*
X34354397Y1710134D02*
X34325826Y1676800D01*
X34325826Y1676800D02*
X34268683Y1643467D01*
X34268683Y1643467D02*
X34154397Y1643467D01*
X34154397Y1643467D02*
X34097254Y1676800D01*
X34097254Y1676800D02*
X34068683Y1710134D01*
X34068683Y1710134D02*
X34040111Y1776800D01*
X34040111Y1776800D02*
X34040111Y2343467D01*
X33411540Y1710134D02*
X33440112Y1676800D01*
X33440112Y1676800D02*
X33525826Y1643467D01*
X33525826Y1643467D02*
X33582969Y1643467D01*
X33582969Y1643467D02*
X33668683Y1676800D01*
X33668683Y1676800D02*
X33725826Y1743467D01*
X33725826Y1743467D02*
X33754397Y1810134D01*
X33754397Y1810134D02*
X33782969Y1943467D01*
X33782969Y1943467D02*
X33782969Y2043467D01*
X33782969Y2043467D02*
X33754397Y2176800D01*
X33754397Y2176800D02*
X33725826Y2243467D01*
X33725826Y2243467D02*
X33668683Y2310134D01*
X33668683Y2310134D02*
X33582969Y2343467D01*
X33582969Y2343467D02*
X33525826Y2343467D01*
X33525826Y2343467D02*
X33440112Y2310134D01*
X33440112Y2310134D02*
X33411540Y2276800D01*
X33154397Y1910134D02*
X32697255Y1910134D01*
X32211540Y2010134D02*
X32125826Y1976800D01*
X32125826Y1976800D02*
X32097255Y1943467D01*
X32097255Y1943467D02*
X32068683Y1876800D01*
X32068683Y1876800D02*
X32068683Y1776800D01*
X32068683Y1776800D02*
X32097255Y1710134D01*
X32097255Y1710134D02*
X32125826Y1676800D01*
X32125826Y1676800D02*
X32182969Y1643467D01*
X32182969Y1643467D02*
X32411540Y1643467D01*
X32411540Y1643467D02*
X32411540Y2343467D01*
X32411540Y2343467D02*
X32211540Y2343467D01*
X32211540Y2343467D02*
X32154398Y2310134D01*
X32154398Y2310134D02*
X32125826Y2276800D01*
X32125826Y2276800D02*
X32097255Y2210134D01*
X32097255Y2210134D02*
X32097255Y2143467D01*
X32097255Y2143467D02*
X32125826Y2076800D01*
X32125826Y2076800D02*
X32154398Y2043467D01*
X32154398Y2043467D02*
X32211540Y2010134D01*
X32211540Y2010134D02*
X32411540Y2010134D01*
X31811540Y2010134D02*
X31611540Y2010134D01*
X31525826Y1643467D02*
X31811540Y1643467D01*
X31811540Y1643467D02*
X31811540Y2343467D01*
X31811540Y2343467D02*
X31525826Y2343467D01*
X31268683Y2010134D02*
X31068683Y2010134D01*
X30982969Y1643467D02*
X31268683Y1643467D01*
X31268683Y1643467D02*
X31268683Y2343467D01*
X31268683Y2343467D02*
X30982969Y2343467D01*
X30725826Y1643467D02*
X30725826Y2343467D01*
X30725826Y2343467D02*
X30497255Y2343467D01*
X30497255Y2343467D02*
X30440112Y2310134D01*
X30440112Y2310134D02*
X30411541Y2276800D01*
X30411541Y2276800D02*
X30382969Y2210134D01*
X30382969Y2210134D02*
X30382969Y2110134D01*
X30382969Y2110134D02*
X30411541Y2043467D01*
X30411541Y2043467D02*
X30440112Y2010134D01*
X30440112Y2010134D02*
X30497255Y1976800D01*
X30497255Y1976800D02*
X30725826Y1976800D01*
X35811540Y-3273200D02*
X35868683Y-3239866D01*
X35868683Y-3239866D02*
X35925826Y-3173200D01*
X35925826Y-3173200D02*
X36011540Y-3073200D01*
X36011540Y-3073200D02*
X36068683Y-3039866D01*
X36068683Y-3039866D02*
X36125826Y-3039866D01*
X36097255Y-3206533D02*
X36154398Y-3173200D01*
X36154398Y-3173200D02*
X36211540Y-3106533D01*
X36211540Y-3106533D02*
X36240112Y-2973200D01*
X36240112Y-2973200D02*
X36240112Y-2739866D01*
X36240112Y-2739866D02*
X36211540Y-2606533D01*
X36211540Y-2606533D02*
X36154398Y-2539866D01*
X36154398Y-2539866D02*
X36097255Y-2506533D01*
X36097255Y-2506533D02*
X35982969Y-2506533D01*
X35982969Y-2506533D02*
X35925826Y-2539866D01*
X35925826Y-2539866D02*
X35868683Y-2606533D01*
X35868683Y-2606533D02*
X35840112Y-2739866D01*
X35840112Y-2739866D02*
X35840112Y-2973200D01*
X35840112Y-2973200D02*
X35868683Y-3106533D01*
X35868683Y-3106533D02*
X35925826Y-3173200D01*
X35925826Y-3173200D02*
X35982969Y-3206533D01*
X35982969Y-3206533D02*
X36097255Y-3206533D01*
X35240112Y-3206533D02*
X35440112Y-2873200D01*
X35582969Y-3206533D02*
X35582969Y-2506533D01*
X35582969Y-2506533D02*
X35354398Y-2506533D01*
X35354398Y-2506533D02*
X35297255Y-2539866D01*
X35297255Y-2539866D02*
X35268684Y-2573200D01*
X35268684Y-2573200D02*
X35240112Y-2639866D01*
X35240112Y-2639866D02*
X35240112Y-2739866D01*
X35240112Y-2739866D02*
X35268684Y-2806533D01*
X35268684Y-2806533D02*
X35297255Y-2839866D01*
X35297255Y-2839866D02*
X35354398Y-2873200D01*
X35354398Y-2873200D02*
X35582969Y-2873200D01*
X34982969Y-2939866D02*
X34525827Y-2939866D01*
X34240112Y-2506533D02*
X34240112Y-3073200D01*
X34240112Y-3073200D02*
X34211541Y-3139866D01*
X34211541Y-3139866D02*
X34182970Y-3173200D01*
X34182970Y-3173200D02*
X34125827Y-3206533D01*
X34125827Y-3206533D02*
X34011541Y-3206533D01*
X34011541Y-3206533D02*
X33954398Y-3173200D01*
X33954398Y-3173200D02*
X33925827Y-3139866D01*
X33925827Y-3139866D02*
X33897255Y-3073200D01*
X33897255Y-3073200D02*
X33897255Y-2506533D01*
X33640113Y-3006533D02*
X33354399Y-3006533D01*
X33697256Y-3206533D02*
X33497256Y-2506533D01*
X33497256Y-2506533D02*
X33297256Y-3206533D01*
X32754398Y-3206533D02*
X32954398Y-2873200D01*
X33097255Y-3206533D02*
X33097255Y-2506533D01*
X33097255Y-2506533D02*
X32868684Y-2506533D01*
X32868684Y-2506533D02*
X32811541Y-2539866D01*
X32811541Y-2539866D02*
X32782970Y-2573200D01*
X32782970Y-2573200D02*
X32754398Y-2639866D01*
X32754398Y-2639866D02*
X32754398Y-2739866D01*
X32754398Y-2739866D02*
X32782970Y-2806533D01*
X32782970Y-2806533D02*
X32811541Y-2839866D01*
X32811541Y-2839866D02*
X32868684Y-2873200D01*
X32868684Y-2873200D02*
X33097255Y-2873200D01*
X32582970Y-2506533D02*
X32240113Y-2506533D01*
X32411541Y-3206533D02*
X32411541Y-2506533D01*
X32040112Y-2939866D02*
X31582970Y-2939866D01*
X30954398Y-3206533D02*
X31154398Y-2873200D01*
X31297255Y-3206533D02*
X31297255Y-2506533D01*
X31297255Y-2506533D02*
X31068684Y-2506533D01*
X31068684Y-2506533D02*
X31011541Y-2539866D01*
X31011541Y-2539866D02*
X30982970Y-2573200D01*
X30982970Y-2573200D02*
X30954398Y-2639866D01*
X30954398Y-2639866D02*
X30954398Y-2739866D01*
X30954398Y-2739866D02*
X30982970Y-2806533D01*
X30982970Y-2806533D02*
X31011541Y-2839866D01*
X31011541Y-2839866D02*
X31068684Y-2873200D01*
X31068684Y-2873200D02*
X31297255Y-2873200D01*
X30754398Y-2506533D02*
X30354398Y-3206533D01*
X30354398Y-2506533D02*
X30754398Y-3206533D01*
X35668683Y-5983200D02*
X35725826Y-5949866D01*
X35725826Y-5949866D02*
X35782969Y-5883200D01*
X35782969Y-5883200D02*
X35868683Y-5783200D01*
X35868683Y-5783200D02*
X35925826Y-5749866D01*
X35925826Y-5749866D02*
X35982969Y-5749866D01*
X35954398Y-5916533D02*
X36011541Y-5883200D01*
X36011541Y-5883200D02*
X36068683Y-5816533D01*
X36068683Y-5816533D02*
X36097255Y-5683200D01*
X36097255Y-5683200D02*
X36097255Y-5449866D01*
X36097255Y-5449866D02*
X36068683Y-5316533D01*
X36068683Y-5316533D02*
X36011541Y-5249866D01*
X36011541Y-5249866D02*
X35954398Y-5216533D01*
X35954398Y-5216533D02*
X35840112Y-5216533D01*
X35840112Y-5216533D02*
X35782969Y-5249866D01*
X35782969Y-5249866D02*
X35725826Y-5316533D01*
X35725826Y-5316533D02*
X35697255Y-5449866D01*
X35697255Y-5449866D02*
X35697255Y-5683200D01*
X35697255Y-5683200D02*
X35725826Y-5816533D01*
X35725826Y-5816533D02*
X35782969Y-5883200D01*
X35782969Y-5883200D02*
X35840112Y-5916533D01*
X35840112Y-5916533D02*
X35954398Y-5916533D01*
X35097255Y-5916533D02*
X35297255Y-5583200D01*
X35440112Y-5916533D02*
X35440112Y-5216533D01*
X35440112Y-5216533D02*
X35211541Y-5216533D01*
X35211541Y-5216533D02*
X35154398Y-5249866D01*
X35154398Y-5249866D02*
X35125827Y-5283200D01*
X35125827Y-5283200D02*
X35097255Y-5349866D01*
X35097255Y-5349866D02*
X35097255Y-5449866D01*
X35097255Y-5449866D02*
X35125827Y-5516533D01*
X35125827Y-5516533D02*
X35154398Y-5549866D01*
X35154398Y-5549866D02*
X35211541Y-5583200D01*
X35211541Y-5583200D02*
X35440112Y-5583200D01*
X34840112Y-5649866D02*
X34382970Y-5649866D01*
X34097255Y-5216533D02*
X34097255Y-5783200D01*
X34097255Y-5783200D02*
X34068684Y-5849866D01*
X34068684Y-5849866D02*
X34040113Y-5883200D01*
X34040113Y-5883200D02*
X33982970Y-5916533D01*
X33982970Y-5916533D02*
X33868684Y-5916533D01*
X33868684Y-5916533D02*
X33811541Y-5883200D01*
X33811541Y-5883200D02*
X33782970Y-5849866D01*
X33782970Y-5849866D02*
X33754398Y-5783200D01*
X33754398Y-5783200D02*
X33754398Y-5216533D01*
X33497256Y-5716533D02*
X33211542Y-5716533D01*
X33554399Y-5916533D02*
X33354399Y-5216533D01*
X33354399Y-5216533D02*
X33154399Y-5916533D01*
X32611541Y-5916533D02*
X32811541Y-5583200D01*
X32954398Y-5916533D02*
X32954398Y-5216533D01*
X32954398Y-5216533D02*
X32725827Y-5216533D01*
X32725827Y-5216533D02*
X32668684Y-5249866D01*
X32668684Y-5249866D02*
X32640113Y-5283200D01*
X32640113Y-5283200D02*
X32611541Y-5349866D01*
X32611541Y-5349866D02*
X32611541Y-5449866D01*
X32611541Y-5449866D02*
X32640113Y-5516533D01*
X32640113Y-5516533D02*
X32668684Y-5549866D01*
X32668684Y-5549866D02*
X32725827Y-5583200D01*
X32725827Y-5583200D02*
X32954398Y-5583200D01*
X32440113Y-5216533D02*
X32097256Y-5216533D01*
X32268684Y-5916533D02*
X32268684Y-5216533D01*
X31897255Y-5649866D02*
X31440113Y-5649866D01*
X31240113Y-5216533D02*
X30897256Y-5216533D01*
X31068684Y-5916533D02*
X31068684Y-5216533D01*
X30754398Y-5216533D02*
X30354398Y-5916533D01*
X30354398Y-5216533D02*
X30754398Y-5916533D01*
X33750111Y-1033200D02*
X33807254Y-999866D01*
X33807254Y-999866D02*
X33864397Y-933200D01*
X33864397Y-933200D02*
X33950111Y-833200D01*
X33950111Y-833200D02*
X34007254Y-799866D01*
X34007254Y-799866D02*
X34064397Y-799866D01*
X34035826Y-966533D02*
X34092969Y-933200D01*
X34092969Y-933200D02*
X34150111Y-866533D01*
X34150111Y-866533D02*
X34178683Y-733200D01*
X34178683Y-733200D02*
X34178683Y-499866D01*
X34178683Y-499866D02*
X34150111Y-366533D01*
X34150111Y-366533D02*
X34092969Y-299866D01*
X34092969Y-299866D02*
X34035826Y-266533D01*
X34035826Y-266533D02*
X33921540Y-266533D01*
X33921540Y-266533D02*
X33864397Y-299866D01*
X33864397Y-299866D02*
X33807254Y-366533D01*
X33807254Y-366533D02*
X33778683Y-499866D01*
X33778683Y-499866D02*
X33778683Y-733200D01*
X33778683Y-733200D02*
X33807254Y-866533D01*
X33807254Y-866533D02*
X33864397Y-933200D01*
X33864397Y-933200D02*
X33921540Y-966533D01*
X33921540Y-966533D02*
X34035826Y-966533D01*
X33178683Y-966533D02*
X33378683Y-633200D01*
X33521540Y-966533D02*
X33521540Y-266533D01*
X33521540Y-266533D02*
X33292969Y-266533D01*
X33292969Y-266533D02*
X33235826Y-299866D01*
X33235826Y-299866D02*
X33207255Y-333200D01*
X33207255Y-333200D02*
X33178683Y-399866D01*
X33178683Y-399866D02*
X33178683Y-499866D01*
X33178683Y-499866D02*
X33207255Y-566533D01*
X33207255Y-566533D02*
X33235826Y-599866D01*
X33235826Y-599866D02*
X33292969Y-633200D01*
X33292969Y-633200D02*
X33521540Y-633200D01*
X32921540Y-699866D02*
X32464398Y-699866D01*
X32264398Y-266533D02*
X31921541Y-266533D01*
X32092969Y-966533D02*
X32092969Y-266533D01*
X31378683Y-966533D02*
X31578683Y-633200D01*
X31721540Y-966533D02*
X31721540Y-266533D01*
X31721540Y-266533D02*
X31492969Y-266533D01*
X31492969Y-266533D02*
X31435826Y-299866D01*
X31435826Y-299866D02*
X31407255Y-333200D01*
X31407255Y-333200D02*
X31378683Y-399866D01*
X31378683Y-399866D02*
X31378683Y-499866D01*
X31378683Y-499866D02*
X31407255Y-566533D01*
X31407255Y-566533D02*
X31435826Y-599866D01*
X31435826Y-599866D02*
X31492969Y-633200D01*
X31492969Y-633200D02*
X31721540Y-633200D01*
X31121540Y-966533D02*
X31121540Y-266533D01*
X30521541Y-299866D02*
X30578684Y-266533D01*
X30578684Y-266533D02*
X30664398Y-266533D01*
X30664398Y-266533D02*
X30750112Y-299866D01*
X30750112Y-299866D02*
X30807255Y-366533D01*
X30807255Y-366533D02*
X30835826Y-433200D01*
X30835826Y-433200D02*
X30864398Y-566533D01*
X30864398Y-566533D02*
X30864398Y-666533D01*
X30864398Y-666533D02*
X30835826Y-799866D01*
X30835826Y-799866D02*
X30807255Y-866533D01*
X30807255Y-866533D02*
X30750112Y-933200D01*
X30750112Y-933200D02*
X30664398Y-966533D01*
X30664398Y-966533D02*
X30607255Y-966533D01*
X30607255Y-966533D02*
X30521541Y-933200D01*
X30521541Y-933200D02*
X30492969Y-899866D01*
X30492969Y-899866D02*
X30492969Y-666533D01*
X30492969Y-666533D02*
X30607255Y-666533D01*
X37208458Y47902367D02*
X36751316Y47902367D01*
X36979887Y48169034D02*
X36979887Y47635700D01*
D11*
X29590024Y57198045D02*
X29590024Y57998045D01*
X29590024Y57998045D02*
X29285262Y57998045D01*
X29285262Y57998045D02*
X29209072Y57959950D01*
X29209072Y57959950D02*
X29170977Y57921855D01*
X29170977Y57921855D02*
X29132881Y57845664D01*
X29132881Y57845664D02*
X29132881Y57731379D01*
X29132881Y57731379D02*
X29170977Y57655188D01*
X29170977Y57655188D02*
X29209072Y57617093D01*
X29209072Y57617093D02*
X29285262Y57578998D01*
X29285262Y57578998D02*
X29590024Y57578998D01*
X28675739Y57198045D02*
X28751929Y57236140D01*
X28751929Y57236140D02*
X28790024Y57274236D01*
X28790024Y57274236D02*
X28828120Y57350426D01*
X28828120Y57350426D02*
X28828120Y57578998D01*
X28828120Y57578998D02*
X28790024Y57655188D01*
X28790024Y57655188D02*
X28751929Y57693283D01*
X28751929Y57693283D02*
X28675739Y57731379D01*
X28675739Y57731379D02*
X28561453Y57731379D01*
X28561453Y57731379D02*
X28485262Y57693283D01*
X28485262Y57693283D02*
X28447167Y57655188D01*
X28447167Y57655188D02*
X28409072Y57578998D01*
X28409072Y57578998D02*
X28409072Y57350426D01*
X28409072Y57350426D02*
X28447167Y57274236D01*
X28447167Y57274236D02*
X28485262Y57236140D01*
X28485262Y57236140D02*
X28561453Y57198045D01*
X28561453Y57198045D02*
X28675739Y57198045D01*
X28142405Y57731379D02*
X27990024Y57198045D01*
X27990024Y57198045D02*
X27837643Y57578998D01*
X27837643Y57578998D02*
X27685262Y57198045D01*
X27685262Y57198045D02*
X27532881Y57731379D01*
X26923357Y57236140D02*
X26999548Y57198045D01*
X26999548Y57198045D02*
X27151929Y57198045D01*
X27151929Y57198045D02*
X27228119Y57236140D01*
X27228119Y57236140D02*
X27266215Y57312331D01*
X27266215Y57312331D02*
X27266215Y57617093D01*
X27266215Y57617093D02*
X27228119Y57693283D01*
X27228119Y57693283D02*
X27151929Y57731379D01*
X27151929Y57731379D02*
X26999548Y57731379D01*
X26999548Y57731379D02*
X26923357Y57693283D01*
X26923357Y57693283D02*
X26885262Y57617093D01*
X26885262Y57617093D02*
X26885262Y57540902D01*
X26885262Y57540902D02*
X27266215Y57464712D01*
X26542405Y57198045D02*
X26542405Y57731379D01*
X26542405Y57578998D02*
X26504310Y57655188D01*
X26504310Y57655188D02*
X26466215Y57693283D01*
X26466215Y57693283D02*
X26390024Y57731379D01*
X26390024Y57731379D02*
X26313834Y57731379D01*
X26047167Y57502807D02*
X25437644Y57502807D01*
X24904310Y57998045D02*
X24751929Y57998045D01*
X24751929Y57998045D02*
X24675739Y57959950D01*
X24675739Y57959950D02*
X24599548Y57883760D01*
X24599548Y57883760D02*
X24561453Y57731379D01*
X24561453Y57731379D02*
X24561453Y57464712D01*
X24561453Y57464712D02*
X24599548Y57312331D01*
X24599548Y57312331D02*
X24675739Y57236140D01*
X24675739Y57236140D02*
X24751929Y57198045D01*
X24751929Y57198045D02*
X24904310Y57198045D01*
X24904310Y57198045D02*
X24980501Y57236140D01*
X24980501Y57236140D02*
X25056691Y57312331D01*
X25056691Y57312331D02*
X25094787Y57464712D01*
X25094787Y57464712D02*
X25094787Y57731379D01*
X25094787Y57731379D02*
X25056691Y57883760D01*
X25056691Y57883760D02*
X24980501Y57959950D01*
X24980501Y57959950D02*
X24904310Y57998045D01*
X24218596Y57731379D02*
X24218596Y57198045D01*
X24218596Y57655188D02*
X24180501Y57693283D01*
X24180501Y57693283D02*
X24104311Y57731379D01*
X24104311Y57731379D02*
X23990025Y57731379D01*
X23990025Y57731379D02*
X23913834Y57693283D01*
X23913834Y57693283D02*
X23875739Y57617093D01*
X23875739Y57617093D02*
X23875739Y57198045D01*
X31418594Y56214852D02*
X30809071Y56214852D01*
X30428118Y56214852D02*
X29818595Y56214852D01*
X29437642Y56214852D02*
X28828119Y56214852D01*
X28447166Y56214852D02*
X27837643Y56214852D01*
X27456690Y56214852D02*
X26847167Y56214852D01*
X26466214Y56214852D02*
X25856691Y56214852D01*
X25475738Y56214852D02*
X24866215Y56214852D01*
X24485262Y56214852D02*
X23875739Y56214852D01*
X27913835Y54698326D02*
X27951931Y54660230D01*
X27951931Y54660230D02*
X28066216Y54622135D01*
X28066216Y54622135D02*
X28142407Y54622135D01*
X28142407Y54622135D02*
X28256693Y54660230D01*
X28256693Y54660230D02*
X28332883Y54736421D01*
X28332883Y54736421D02*
X28370978Y54812611D01*
X28370978Y54812611D02*
X28409074Y54964992D01*
X28409074Y54964992D02*
X28409074Y55079278D01*
X28409074Y55079278D02*
X28370978Y55231659D01*
X28370978Y55231659D02*
X28332883Y55307850D01*
X28332883Y55307850D02*
X28256693Y55384040D01*
X28256693Y55384040D02*
X28142407Y55422135D01*
X28142407Y55422135D02*
X28066216Y55422135D01*
X28066216Y55422135D02*
X27951931Y55384040D01*
X27951931Y55384040D02*
X27913835Y55345945D01*
X27570978Y54622135D02*
X27570978Y55422135D01*
X27228121Y54622135D02*
X27228121Y55041183D01*
X27228121Y55041183D02*
X27266216Y55117373D01*
X27266216Y55117373D02*
X27342407Y55155469D01*
X27342407Y55155469D02*
X27456693Y55155469D01*
X27456693Y55155469D02*
X27532883Y55117373D01*
X27532883Y55117373D02*
X27570978Y55079278D01*
X26504311Y54622135D02*
X26504311Y55041183D01*
X26504311Y55041183D02*
X26542406Y55117373D01*
X26542406Y55117373D02*
X26618597Y55155469D01*
X26618597Y55155469D02*
X26770978Y55155469D01*
X26770978Y55155469D02*
X26847168Y55117373D01*
X26504311Y54660230D02*
X26580502Y54622135D01*
X26580502Y54622135D02*
X26770978Y54622135D01*
X26770978Y54622135D02*
X26847168Y54660230D01*
X26847168Y54660230D02*
X26885264Y54736421D01*
X26885264Y54736421D02*
X26885264Y54812611D01*
X26885264Y54812611D02*
X26847168Y54888802D01*
X26847168Y54888802D02*
X26770978Y54926897D01*
X26770978Y54926897D02*
X26580502Y54926897D01*
X26580502Y54926897D02*
X26504311Y54964992D01*
X26123358Y54622135D02*
X26123358Y55155469D01*
X26123358Y55003088D02*
X26085263Y55079278D01*
X26085263Y55079278D02*
X26047168Y55117373D01*
X26047168Y55117373D02*
X25970977Y55155469D01*
X25970977Y55155469D02*
X25894787Y55155469D01*
X25285263Y55155469D02*
X25285263Y54507850D01*
X25285263Y54507850D02*
X25323358Y54431659D01*
X25323358Y54431659D02*
X25361454Y54393564D01*
X25361454Y54393564D02*
X25437644Y54355469D01*
X25437644Y54355469D02*
X25551930Y54355469D01*
X25551930Y54355469D02*
X25628120Y54393564D01*
X25285263Y54660230D02*
X25361454Y54622135D01*
X25361454Y54622135D02*
X25513835Y54622135D01*
X25513835Y54622135D02*
X25590025Y54660230D01*
X25590025Y54660230D02*
X25628120Y54698326D01*
X25628120Y54698326D02*
X25666216Y54774516D01*
X25666216Y54774516D02*
X25666216Y55003088D01*
X25666216Y55003088D02*
X25628120Y55079278D01*
X25628120Y55079278D02*
X25590025Y55117373D01*
X25590025Y55117373D02*
X25513835Y55155469D01*
X25513835Y55155469D02*
X25361454Y55155469D01*
X25361454Y55155469D02*
X25285263Y55117373D01*
X24599548Y54660230D02*
X24675739Y54622135D01*
X24675739Y54622135D02*
X24828120Y54622135D01*
X24828120Y54622135D02*
X24904310Y54660230D01*
X24904310Y54660230D02*
X24942406Y54736421D01*
X24942406Y54736421D02*
X24942406Y55041183D01*
X24942406Y55041183D02*
X24904310Y55117373D01*
X24904310Y55117373D02*
X24828120Y55155469D01*
X24828120Y55155469D02*
X24675739Y55155469D01*
X24675739Y55155469D02*
X24599548Y55117373D01*
X24599548Y55117373D02*
X24561453Y55041183D01*
X24561453Y55041183D02*
X24561453Y54964992D01*
X24561453Y54964992D02*
X24942406Y54888802D01*
X23875739Y54622135D02*
X23875739Y55422135D01*
X23875739Y54660230D02*
X23951930Y54622135D01*
X23951930Y54622135D02*
X24104311Y54622135D01*
X24104311Y54622135D02*
X24180501Y54660230D01*
X24180501Y54660230D02*
X24218596Y54698326D01*
X24218596Y54698326D02*
X24256692Y54774516D01*
X24256692Y54774516D02*
X24256692Y55003088D01*
X24256692Y55003088D02*
X24218596Y55079278D01*
X24218596Y55079278D02*
X24180501Y55117373D01*
X24180501Y55117373D02*
X24104311Y55155469D01*
X24104311Y55155469D02*
X23951930Y55155469D01*
X23951930Y55155469D02*
X23875739Y55117373D01*
X31418594Y53638942D02*
X30809071Y53638942D01*
X30428118Y53638942D02*
X29818595Y53638942D01*
X29437642Y53638942D02*
X28828119Y53638942D01*
X28447166Y53638942D02*
X27837643Y53638942D01*
X27456690Y53638942D02*
X26847167Y53638942D01*
X26466214Y53638942D02*
X25856691Y53638942D01*
X25475738Y53638942D02*
X24866215Y53638942D01*
X24485262Y53638942D02*
X23875739Y53638942D01*
X28332883Y52122416D02*
X28370979Y52084320D01*
X28370979Y52084320D02*
X28485264Y52046225D01*
X28485264Y52046225D02*
X28561455Y52046225D01*
X28561455Y52046225D02*
X28675741Y52084320D01*
X28675741Y52084320D02*
X28751931Y52160511D01*
X28751931Y52160511D02*
X28790026Y52236701D01*
X28790026Y52236701D02*
X28828122Y52389082D01*
X28828122Y52389082D02*
X28828122Y52503368D01*
X28828122Y52503368D02*
X28790026Y52655749D01*
X28790026Y52655749D02*
X28751931Y52731940D01*
X28751931Y52731940D02*
X28675741Y52808130D01*
X28675741Y52808130D02*
X28561455Y52846225D01*
X28561455Y52846225D02*
X28485264Y52846225D01*
X28485264Y52846225D02*
X28370979Y52808130D01*
X28370979Y52808130D02*
X28332883Y52770035D01*
X27990026Y52046225D02*
X27990026Y52846225D01*
X27647169Y52046225D02*
X27647169Y52465273D01*
X27647169Y52465273D02*
X27685264Y52541463D01*
X27685264Y52541463D02*
X27761455Y52579559D01*
X27761455Y52579559D02*
X27875741Y52579559D01*
X27875741Y52579559D02*
X27951931Y52541463D01*
X27951931Y52541463D02*
X27990026Y52503368D01*
X26923359Y52046225D02*
X26923359Y52465273D01*
X26923359Y52465273D02*
X26961454Y52541463D01*
X26961454Y52541463D02*
X27037645Y52579559D01*
X27037645Y52579559D02*
X27190026Y52579559D01*
X27190026Y52579559D02*
X27266216Y52541463D01*
X26923359Y52084320D02*
X26999550Y52046225D01*
X26999550Y52046225D02*
X27190026Y52046225D01*
X27190026Y52046225D02*
X27266216Y52084320D01*
X27266216Y52084320D02*
X27304312Y52160511D01*
X27304312Y52160511D02*
X27304312Y52236701D01*
X27304312Y52236701D02*
X27266216Y52312892D01*
X27266216Y52312892D02*
X27190026Y52350987D01*
X27190026Y52350987D02*
X26999550Y52350987D01*
X26999550Y52350987D02*
X26923359Y52389082D01*
X26542406Y52046225D02*
X26542406Y52579559D01*
X26542406Y52427178D02*
X26504311Y52503368D01*
X26504311Y52503368D02*
X26466216Y52541463D01*
X26466216Y52541463D02*
X26390025Y52579559D01*
X26390025Y52579559D02*
X26313835Y52579559D01*
X25704311Y52579559D02*
X25704311Y51931940D01*
X25704311Y51931940D02*
X25742406Y51855749D01*
X25742406Y51855749D02*
X25780502Y51817654D01*
X25780502Y51817654D02*
X25856692Y51779559D01*
X25856692Y51779559D02*
X25970978Y51779559D01*
X25970978Y51779559D02*
X26047168Y51817654D01*
X25704311Y52084320D02*
X25780502Y52046225D01*
X25780502Y52046225D02*
X25932883Y52046225D01*
X25932883Y52046225D02*
X26009073Y52084320D01*
X26009073Y52084320D02*
X26047168Y52122416D01*
X26047168Y52122416D02*
X26085264Y52198606D01*
X26085264Y52198606D02*
X26085264Y52427178D01*
X26085264Y52427178D02*
X26047168Y52503368D01*
X26047168Y52503368D02*
X26009073Y52541463D01*
X26009073Y52541463D02*
X25932883Y52579559D01*
X25932883Y52579559D02*
X25780502Y52579559D01*
X25780502Y52579559D02*
X25704311Y52541463D01*
X25323358Y52046225D02*
X25323358Y52579559D01*
X25323358Y52846225D02*
X25361454Y52808130D01*
X25361454Y52808130D02*
X25323358Y52770035D01*
X25323358Y52770035D02*
X25285263Y52808130D01*
X25285263Y52808130D02*
X25323358Y52846225D01*
X25323358Y52846225D02*
X25323358Y52770035D01*
X24942406Y52579559D02*
X24942406Y52046225D01*
X24942406Y52503368D02*
X24904311Y52541463D01*
X24904311Y52541463D02*
X24828121Y52579559D01*
X24828121Y52579559D02*
X24713835Y52579559D01*
X24713835Y52579559D02*
X24637644Y52541463D01*
X24637644Y52541463D02*
X24599549Y52465273D01*
X24599549Y52465273D02*
X24599549Y52046225D01*
X23875739Y52579559D02*
X23875739Y51931940D01*
X23875739Y51931940D02*
X23913834Y51855749D01*
X23913834Y51855749D02*
X23951930Y51817654D01*
X23951930Y51817654D02*
X24028120Y51779559D01*
X24028120Y51779559D02*
X24142406Y51779559D01*
X24142406Y51779559D02*
X24218596Y51817654D01*
X23875739Y52084320D02*
X23951930Y52046225D01*
X23951930Y52046225D02*
X24104311Y52046225D01*
X24104311Y52046225D02*
X24180501Y52084320D01*
X24180501Y52084320D02*
X24218596Y52122416D01*
X24218596Y52122416D02*
X24256692Y52198606D01*
X24256692Y52198606D02*
X24256692Y52427178D01*
X24256692Y52427178D02*
X24218596Y52503368D01*
X24218596Y52503368D02*
X24180501Y52541463D01*
X24180501Y52541463D02*
X24104311Y52579559D01*
X24104311Y52579559D02*
X23951930Y52579559D01*
X23951930Y52579559D02*
X23875739Y52541463D01*
D12*
X58737945Y-33483740D02*
X58737945Y-32683740D01*
X58737945Y-32683740D02*
X58433183Y-32683740D01*
X58433183Y-32683740D02*
X58356993Y-32721835D01*
X58356993Y-32721835D02*
X58318898Y-32759930D01*
X58318898Y-32759930D02*
X58280802Y-32836121D01*
X58280802Y-32836121D02*
X58280802Y-32950406D01*
X58280802Y-32950406D02*
X58318898Y-33026597D01*
X58318898Y-33026597D02*
X58356993Y-33064692D01*
X58356993Y-33064692D02*
X58433183Y-33102787D01*
X58433183Y-33102787D02*
X58737945Y-33102787D01*
X57823660Y-33483740D02*
X57899850Y-33445645D01*
X57899850Y-33445645D02*
X57937945Y-33407549D01*
X57937945Y-33407549D02*
X57976041Y-33331359D01*
X57976041Y-33331359D02*
X57976041Y-33102787D01*
X57976041Y-33102787D02*
X57937945Y-33026597D01*
X57937945Y-33026597D02*
X57899850Y-32988502D01*
X57899850Y-32988502D02*
X57823660Y-32950406D01*
X57823660Y-32950406D02*
X57709374Y-32950406D01*
X57709374Y-32950406D02*
X57633183Y-32988502D01*
X57633183Y-32988502D02*
X57595088Y-33026597D01*
X57595088Y-33026597D02*
X57556993Y-33102787D01*
X57556993Y-33102787D02*
X57556993Y-33331359D01*
X57556993Y-33331359D02*
X57595088Y-33407549D01*
X57595088Y-33407549D02*
X57633183Y-33445645D01*
X57633183Y-33445645D02*
X57709374Y-33483740D01*
X57709374Y-33483740D02*
X57823660Y-33483740D01*
X57290326Y-32950406D02*
X57137945Y-33483740D01*
X57137945Y-33483740D02*
X56985564Y-33102787D01*
X56985564Y-33102787D02*
X56833183Y-33483740D01*
X56833183Y-33483740D02*
X56680802Y-32950406D01*
X56071278Y-33445645D02*
X56147469Y-33483740D01*
X56147469Y-33483740D02*
X56299850Y-33483740D01*
X56299850Y-33483740D02*
X56376040Y-33445645D01*
X56376040Y-33445645D02*
X56414136Y-33369454D01*
X56414136Y-33369454D02*
X56414136Y-33064692D01*
X56414136Y-33064692D02*
X56376040Y-32988502D01*
X56376040Y-32988502D02*
X56299850Y-32950406D01*
X56299850Y-32950406D02*
X56147469Y-32950406D01*
X56147469Y-32950406D02*
X56071278Y-32988502D01*
X56071278Y-32988502D02*
X56033183Y-33064692D01*
X56033183Y-33064692D02*
X56033183Y-33140883D01*
X56033183Y-33140883D02*
X56414136Y-33217073D01*
X55690326Y-33483740D02*
X55690326Y-32950406D01*
X55690326Y-33102787D02*
X55652231Y-33026597D01*
X55652231Y-33026597D02*
X55614136Y-32988502D01*
X55614136Y-32988502D02*
X55537945Y-32950406D01*
X55537945Y-32950406D02*
X55461755Y-32950406D01*
X54471279Y-33483740D02*
X54547469Y-33445645D01*
X54547469Y-33445645D02*
X54585564Y-33369454D01*
X54585564Y-33369454D02*
X54585564Y-32683740D01*
X53823659Y-33483740D02*
X53823659Y-33064692D01*
X53823659Y-33064692D02*
X53861754Y-32988502D01*
X53861754Y-32988502D02*
X53937945Y-32950406D01*
X53937945Y-32950406D02*
X54090326Y-32950406D01*
X54090326Y-32950406D02*
X54166516Y-32988502D01*
X53823659Y-33445645D02*
X53899850Y-33483740D01*
X53899850Y-33483740D02*
X54090326Y-33483740D01*
X54090326Y-33483740D02*
X54166516Y-33445645D01*
X54166516Y-33445645D02*
X54204612Y-33369454D01*
X54204612Y-33369454D02*
X54204612Y-33293264D01*
X54204612Y-33293264D02*
X54166516Y-33217073D01*
X54166516Y-33217073D02*
X54090326Y-33178978D01*
X54090326Y-33178978D02*
X53899850Y-33178978D01*
X53899850Y-33178978D02*
X53823659Y-33140883D01*
X53556992Y-32950406D02*
X53252230Y-32950406D01*
X53442706Y-32683740D02*
X53442706Y-33369454D01*
X53442706Y-33369454D02*
X53404611Y-33445645D01*
X53404611Y-33445645D02*
X53328421Y-33483740D01*
X53328421Y-33483740D02*
X53252230Y-33483740D01*
X52642706Y-33445645D02*
X52718897Y-33483740D01*
X52718897Y-33483740D02*
X52871278Y-33483740D01*
X52871278Y-33483740D02*
X52947468Y-33445645D01*
X52947468Y-33445645D02*
X52985563Y-33407549D01*
X52985563Y-33407549D02*
X53023659Y-33331359D01*
X53023659Y-33331359D02*
X53023659Y-33102787D01*
X53023659Y-33102787D02*
X52985563Y-33026597D01*
X52985563Y-33026597D02*
X52947468Y-32988502D01*
X52947468Y-32988502D02*
X52871278Y-32950406D01*
X52871278Y-32950406D02*
X52718897Y-32950406D01*
X52718897Y-32950406D02*
X52642706Y-32988502D01*
X52299849Y-33483740D02*
X52299849Y-32683740D01*
X51956992Y-33483740D02*
X51956992Y-33064692D01*
X51956992Y-33064692D02*
X51995087Y-32988502D01*
X51995087Y-32988502D02*
X52071278Y-32950406D01*
X52071278Y-32950406D02*
X52185564Y-32950406D01*
X52185564Y-32950406D02*
X52261754Y-32988502D01*
X52261754Y-32988502D02*
X52299849Y-33026597D01*
X50966515Y-33178978D02*
X50356992Y-33178978D01*
X49366515Y-33483740D02*
X49366515Y-32683740D01*
X49366515Y-32988502D02*
X49290325Y-32950406D01*
X49290325Y-32950406D02*
X49137944Y-32950406D01*
X49137944Y-32950406D02*
X49061753Y-32988502D01*
X49061753Y-32988502D02*
X49023658Y-33026597D01*
X49023658Y-33026597D02*
X48985563Y-33102787D01*
X48985563Y-33102787D02*
X48985563Y-33331359D01*
X48985563Y-33331359D02*
X49023658Y-33407549D01*
X49023658Y-33407549D02*
X49061753Y-33445645D01*
X49061753Y-33445645D02*
X49137944Y-33483740D01*
X49137944Y-33483740D02*
X49290325Y-33483740D01*
X49290325Y-33483740D02*
X49366515Y-33445645D01*
X48642705Y-33483740D02*
X48642705Y-32950406D01*
X48642705Y-33102787D02*
X48604610Y-33026597D01*
X48604610Y-33026597D02*
X48566515Y-32988502D01*
X48566515Y-32988502D02*
X48490324Y-32950406D01*
X48490324Y-32950406D02*
X48414134Y-32950406D01*
X48147467Y-33483740D02*
X48147467Y-32950406D01*
X48147467Y-32683740D02*
X48185563Y-32721835D01*
X48185563Y-32721835D02*
X48147467Y-32759930D01*
X48147467Y-32759930D02*
X48109372Y-32721835D01*
X48109372Y-32721835D02*
X48147467Y-32683740D01*
X48147467Y-32683740D02*
X48147467Y-32759930D01*
X47423658Y-33483740D02*
X47423658Y-32683740D01*
X47423658Y-33445645D02*
X47499849Y-33483740D01*
X47499849Y-33483740D02*
X47652230Y-33483740D01*
X47652230Y-33483740D02*
X47728420Y-33445645D01*
X47728420Y-33445645D02*
X47766515Y-33407549D01*
X47766515Y-33407549D02*
X47804611Y-33331359D01*
X47804611Y-33331359D02*
X47804611Y-33102787D01*
X47804611Y-33102787D02*
X47766515Y-33026597D01*
X47766515Y-33026597D02*
X47728420Y-32988502D01*
X47728420Y-32988502D02*
X47652230Y-32950406D01*
X47652230Y-32950406D02*
X47499849Y-32950406D01*
X47499849Y-32950406D02*
X47423658Y-32988502D01*
X46699848Y-32950406D02*
X46699848Y-33598025D01*
X46699848Y-33598025D02*
X46737943Y-33674216D01*
X46737943Y-33674216D02*
X46776039Y-33712311D01*
X46776039Y-33712311D02*
X46852229Y-33750406D01*
X46852229Y-33750406D02*
X46966515Y-33750406D01*
X46966515Y-33750406D02*
X47042705Y-33712311D01*
X46699848Y-33445645D02*
X46776039Y-33483740D01*
X46776039Y-33483740D02*
X46928420Y-33483740D01*
X46928420Y-33483740D02*
X47004610Y-33445645D01*
X47004610Y-33445645D02*
X47042705Y-33407549D01*
X47042705Y-33407549D02*
X47080801Y-33331359D01*
X47080801Y-33331359D02*
X47080801Y-33102787D01*
X47080801Y-33102787D02*
X47042705Y-33026597D01*
X47042705Y-33026597D02*
X47004610Y-32988502D01*
X47004610Y-32988502D02*
X46928420Y-32950406D01*
X46928420Y-32950406D02*
X46776039Y-32950406D01*
X46776039Y-32950406D02*
X46699848Y-32988502D01*
X46014133Y-33445645D02*
X46090324Y-33483740D01*
X46090324Y-33483740D02*
X46242705Y-33483740D01*
X46242705Y-33483740D02*
X46318895Y-33445645D01*
X46318895Y-33445645D02*
X46356991Y-33369454D01*
X46356991Y-33369454D02*
X46356991Y-33064692D01*
X46356991Y-33064692D02*
X46318895Y-32988502D01*
X46318895Y-32988502D02*
X46242705Y-32950406D01*
X46242705Y-32950406D02*
X46090324Y-32950406D01*
X46090324Y-32950406D02*
X46014133Y-32988502D01*
X46014133Y-32988502D02*
X45976038Y-33064692D01*
X45976038Y-33064692D02*
X45976038Y-33140883D01*
X45976038Y-33140883D02*
X46356991Y-33217073D01*
X45023657Y-32950406D02*
X45023657Y-33750406D01*
X45023657Y-32988502D02*
X44947467Y-32950406D01*
X44947467Y-32950406D02*
X44795086Y-32950406D01*
X44795086Y-32950406D02*
X44718895Y-32988502D01*
X44718895Y-32988502D02*
X44680800Y-33026597D01*
X44680800Y-33026597D02*
X44642705Y-33102787D01*
X44642705Y-33102787D02*
X44642705Y-33331359D01*
X44642705Y-33331359D02*
X44680800Y-33407549D01*
X44680800Y-33407549D02*
X44718895Y-33445645D01*
X44718895Y-33445645D02*
X44795086Y-33483740D01*
X44795086Y-33483740D02*
X44947467Y-33483740D01*
X44947467Y-33483740D02*
X45023657Y-33445645D01*
X43956990Y-33483740D02*
X43956990Y-33064692D01*
X43956990Y-33064692D02*
X43995085Y-32988502D01*
X43995085Y-32988502D02*
X44071276Y-32950406D01*
X44071276Y-32950406D02*
X44223657Y-32950406D01*
X44223657Y-32950406D02*
X44299847Y-32988502D01*
X43956990Y-33445645D02*
X44033181Y-33483740D01*
X44033181Y-33483740D02*
X44223657Y-33483740D01*
X44223657Y-33483740D02*
X44299847Y-33445645D01*
X44299847Y-33445645D02*
X44337943Y-33369454D01*
X44337943Y-33369454D02*
X44337943Y-33293264D01*
X44337943Y-33293264D02*
X44299847Y-33217073D01*
X44299847Y-33217073D02*
X44223657Y-33178978D01*
X44223657Y-33178978D02*
X44033181Y-33178978D01*
X44033181Y-33178978D02*
X43956990Y-33140883D01*
X43233180Y-33483740D02*
X43233180Y-32683740D01*
X43233180Y-33445645D02*
X43309371Y-33483740D01*
X43309371Y-33483740D02*
X43461752Y-33483740D01*
X43461752Y-33483740D02*
X43537942Y-33445645D01*
X43537942Y-33445645D02*
X43576037Y-33407549D01*
X43576037Y-33407549D02*
X43614133Y-33331359D01*
X43614133Y-33331359D02*
X43614133Y-33102787D01*
X43614133Y-33102787D02*
X43576037Y-33026597D01*
X43576037Y-33026597D02*
X43537942Y-32988502D01*
X43537942Y-32988502D02*
X43461752Y-32950406D01*
X43461752Y-32950406D02*
X43309371Y-32950406D01*
X43309371Y-32950406D02*
X43233180Y-32988502D01*
X42890323Y-33445645D02*
X42814132Y-33483740D01*
X42814132Y-33483740D02*
X42661751Y-33483740D01*
X42661751Y-33483740D02*
X42585561Y-33445645D01*
X42585561Y-33445645D02*
X42547465Y-33369454D01*
X42547465Y-33369454D02*
X42547465Y-33331359D01*
X42547465Y-33331359D02*
X42585561Y-33255168D01*
X42585561Y-33255168D02*
X42661751Y-33217073D01*
X42661751Y-33217073D02*
X42776037Y-33217073D01*
X42776037Y-33217073D02*
X42852227Y-33178978D01*
X42852227Y-33178978D02*
X42890323Y-33102787D01*
X42890323Y-33102787D02*
X42890323Y-33064692D01*
X42890323Y-33064692D02*
X42852227Y-32988502D01*
X42852227Y-32988502D02*
X42776037Y-32950406D01*
X42776037Y-32950406D02*
X42661751Y-32950406D01*
X42661751Y-32950406D02*
X42585561Y-32988502D01*
X41366513Y-33788502D02*
X41404608Y-33750406D01*
X41404608Y-33750406D02*
X41480799Y-33636121D01*
X41480799Y-33636121D02*
X41518894Y-33559930D01*
X41518894Y-33559930D02*
X41556989Y-33445645D01*
X41556989Y-33445645D02*
X41595084Y-33255168D01*
X41595084Y-33255168D02*
X41595084Y-33102787D01*
X41595084Y-33102787D02*
X41556989Y-32912311D01*
X41556989Y-32912311D02*
X41518894Y-32798025D01*
X41518894Y-32798025D02*
X41480799Y-32721835D01*
X41480799Y-32721835D02*
X41404608Y-32607549D01*
X41404608Y-32607549D02*
X41366513Y-32569454D01*
X40756989Y-33445645D02*
X40833180Y-33483740D01*
X40833180Y-33483740D02*
X40985561Y-33483740D01*
X40985561Y-33483740D02*
X41061751Y-33445645D01*
X41061751Y-33445645D02*
X41099847Y-33369454D01*
X41099847Y-33369454D02*
X41099847Y-33064692D01*
X41099847Y-33064692D02*
X41061751Y-32988502D01*
X41061751Y-32988502D02*
X40985561Y-32950406D01*
X40985561Y-32950406D02*
X40833180Y-32950406D01*
X40833180Y-32950406D02*
X40756989Y-32988502D01*
X40756989Y-32988502D02*
X40718894Y-33064692D01*
X40718894Y-33064692D02*
X40718894Y-33140883D01*
X40718894Y-33140883D02*
X41099847Y-33217073D01*
X40033180Y-32950406D02*
X40033180Y-33598025D01*
X40033180Y-33598025D02*
X40071275Y-33674216D01*
X40071275Y-33674216D02*
X40109371Y-33712311D01*
X40109371Y-33712311D02*
X40185561Y-33750406D01*
X40185561Y-33750406D02*
X40299847Y-33750406D01*
X40299847Y-33750406D02*
X40376037Y-33712311D01*
X40033180Y-33445645D02*
X40109371Y-33483740D01*
X40109371Y-33483740D02*
X40261752Y-33483740D01*
X40261752Y-33483740D02*
X40337942Y-33445645D01*
X40337942Y-33445645D02*
X40376037Y-33407549D01*
X40376037Y-33407549D02*
X40414133Y-33331359D01*
X40414133Y-33331359D02*
X40414133Y-33102787D01*
X40414133Y-33102787D02*
X40376037Y-33026597D01*
X40376037Y-33026597D02*
X40337942Y-32988502D01*
X40337942Y-32988502D02*
X40261752Y-32950406D01*
X40261752Y-32950406D02*
X40109371Y-32950406D01*
X40109371Y-32950406D02*
X40033180Y-32988502D01*
X39652227Y-33407549D02*
X39614132Y-33445645D01*
X39614132Y-33445645D02*
X39652227Y-33483740D01*
X39652227Y-33483740D02*
X39690323Y-33445645D01*
X39690323Y-33445645D02*
X39652227Y-33407549D01*
X39652227Y-33407549D02*
X39652227Y-33483740D01*
X39652227Y-32988502D02*
X39614132Y-33026597D01*
X39614132Y-33026597D02*
X39652227Y-33064692D01*
X39652227Y-33064692D02*
X39690323Y-33026597D01*
X39690323Y-33026597D02*
X39652227Y-32988502D01*
X39652227Y-32988502D02*
X39652227Y-33064692D01*
X38737942Y-32950406D02*
X38585561Y-33483740D01*
X38585561Y-33483740D02*
X38433180Y-33102787D01*
X38433180Y-33102787D02*
X38280799Y-33483740D01*
X38280799Y-33483740D02*
X38128418Y-32950406D01*
X37823656Y-33483740D02*
X37823656Y-32950406D01*
X37823656Y-32683740D02*
X37861752Y-32721835D01*
X37861752Y-32721835D02*
X37823656Y-32759930D01*
X37823656Y-32759930D02*
X37785561Y-32721835D01*
X37785561Y-32721835D02*
X37823656Y-32683740D01*
X37823656Y-32683740D02*
X37823656Y-32759930D01*
X37556990Y-32950406D02*
X37252228Y-32950406D01*
X37442704Y-32683740D02*
X37442704Y-33369454D01*
X37442704Y-33369454D02*
X37404609Y-33445645D01*
X37404609Y-33445645D02*
X37328419Y-33483740D01*
X37328419Y-33483740D02*
X37252228Y-33483740D01*
X36985561Y-33483740D02*
X36985561Y-32683740D01*
X36642704Y-33483740D02*
X36642704Y-33064692D01*
X36642704Y-33064692D02*
X36680799Y-32988502D01*
X36680799Y-32988502D02*
X36756990Y-32950406D01*
X36756990Y-32950406D02*
X36871276Y-32950406D01*
X36871276Y-32950406D02*
X36947466Y-32988502D01*
X36947466Y-32988502D02*
X36985561Y-33026597D01*
X35690323Y-33445645D02*
X35614132Y-33483740D01*
X35614132Y-33483740D02*
X35461751Y-33483740D01*
X35461751Y-33483740D02*
X35385561Y-33445645D01*
X35385561Y-33445645D02*
X35347465Y-33369454D01*
X35347465Y-33369454D02*
X35347465Y-33331359D01*
X35347465Y-33331359D02*
X35385561Y-33255168D01*
X35385561Y-33255168D02*
X35461751Y-33217073D01*
X35461751Y-33217073D02*
X35576037Y-33217073D01*
X35576037Y-33217073D02*
X35652227Y-33178978D01*
X35652227Y-33178978D02*
X35690323Y-33102787D01*
X35690323Y-33102787D02*
X35690323Y-33064692D01*
X35690323Y-33064692D02*
X35652227Y-32988502D01*
X35652227Y-32988502D02*
X35576037Y-32950406D01*
X35576037Y-32950406D02*
X35461751Y-32950406D01*
X35461751Y-32950406D02*
X35385561Y-32988502D01*
X35118894Y-32950406D02*
X34814132Y-32950406D01*
X35004608Y-32683740D02*
X35004608Y-33369454D01*
X35004608Y-33369454D02*
X34966513Y-33445645D01*
X34966513Y-33445645D02*
X34890323Y-33483740D01*
X34890323Y-33483740D02*
X34814132Y-33483740D01*
X34204608Y-33483740D02*
X34204608Y-33064692D01*
X34204608Y-33064692D02*
X34242703Y-32988502D01*
X34242703Y-32988502D02*
X34318894Y-32950406D01*
X34318894Y-32950406D02*
X34471275Y-32950406D01*
X34471275Y-32950406D02*
X34547465Y-32988502D01*
X34204608Y-33445645D02*
X34280799Y-33483740D01*
X34280799Y-33483740D02*
X34471275Y-33483740D01*
X34471275Y-33483740D02*
X34547465Y-33445645D01*
X34547465Y-33445645D02*
X34585561Y-33369454D01*
X34585561Y-33369454D02*
X34585561Y-33293264D01*
X34585561Y-33293264D02*
X34547465Y-33217073D01*
X34547465Y-33217073D02*
X34471275Y-33178978D01*
X34471275Y-33178978D02*
X34280799Y-33178978D01*
X34280799Y-33178978D02*
X34204608Y-33140883D01*
X33823655Y-32950406D02*
X33823655Y-33750406D01*
X33823655Y-32988502D02*
X33747465Y-32950406D01*
X33747465Y-32950406D02*
X33595084Y-32950406D01*
X33595084Y-32950406D02*
X33518893Y-32988502D01*
X33518893Y-32988502D02*
X33480798Y-33026597D01*
X33480798Y-33026597D02*
X33442703Y-33102787D01*
X33442703Y-33102787D02*
X33442703Y-33331359D01*
X33442703Y-33331359D02*
X33480798Y-33407549D01*
X33480798Y-33407549D02*
X33518893Y-33445645D01*
X33518893Y-33445645D02*
X33595084Y-33483740D01*
X33595084Y-33483740D02*
X33747465Y-33483740D01*
X33747465Y-33483740D02*
X33823655Y-33445645D01*
X32985560Y-33483740D02*
X33061750Y-33445645D01*
X33061750Y-33445645D02*
X33099845Y-33369454D01*
X33099845Y-33369454D02*
X33099845Y-32683740D01*
X32376035Y-33445645D02*
X32452226Y-33483740D01*
X32452226Y-33483740D02*
X32604607Y-33483740D01*
X32604607Y-33483740D02*
X32680797Y-33445645D01*
X32680797Y-33445645D02*
X32718893Y-33369454D01*
X32718893Y-33369454D02*
X32718893Y-33064692D01*
X32718893Y-33064692D02*
X32680797Y-32988502D01*
X32680797Y-32988502D02*
X32604607Y-32950406D01*
X32604607Y-32950406D02*
X32452226Y-32950406D01*
X32452226Y-32950406D02*
X32376035Y-32988502D01*
X32376035Y-32988502D02*
X32337940Y-33064692D01*
X32337940Y-33064692D02*
X32337940Y-33140883D01*
X32337940Y-33140883D02*
X32718893Y-33217073D01*
X32071274Y-33788502D02*
X32033179Y-33750406D01*
X32033179Y-33750406D02*
X31956988Y-33636121D01*
X31956988Y-33636121D02*
X31918893Y-33559930D01*
X31918893Y-33559930D02*
X31880798Y-33445645D01*
X31880798Y-33445645D02*
X31842702Y-33255168D01*
X31842702Y-33255168D02*
X31842702Y-33102787D01*
X31842702Y-33102787D02*
X31880798Y-32912311D01*
X31880798Y-32912311D02*
X31918893Y-32798025D01*
X31918893Y-32798025D02*
X31956988Y-32721835D01*
X31956988Y-32721835D02*
X32033179Y-32607549D01*
X32033179Y-32607549D02*
X32071274Y-32569454D01*
X58852231Y-34238361D02*
X58547469Y-34238361D01*
X58737945Y-34771695D02*
X58737945Y-34085980D01*
X58737945Y-34085980D02*
X58699850Y-34009790D01*
X58699850Y-34009790D02*
X58623660Y-33971695D01*
X58623660Y-33971695D02*
X58547469Y-33971695D01*
X58166517Y-34771695D02*
X58242707Y-34733600D01*
X58242707Y-34733600D02*
X58280802Y-34695504D01*
X58280802Y-34695504D02*
X58318898Y-34619314D01*
X58318898Y-34619314D02*
X58318898Y-34390742D01*
X58318898Y-34390742D02*
X58280802Y-34314552D01*
X58280802Y-34314552D02*
X58242707Y-34276457D01*
X58242707Y-34276457D02*
X58166517Y-34238361D01*
X58166517Y-34238361D02*
X58052231Y-34238361D01*
X58052231Y-34238361D02*
X57976040Y-34276457D01*
X57976040Y-34276457D02*
X57937945Y-34314552D01*
X57937945Y-34314552D02*
X57899850Y-34390742D01*
X57899850Y-34390742D02*
X57899850Y-34619314D01*
X57899850Y-34619314D02*
X57937945Y-34695504D01*
X57937945Y-34695504D02*
X57976040Y-34733600D01*
X57976040Y-34733600D02*
X58052231Y-34771695D01*
X58052231Y-34771695D02*
X58166517Y-34771695D01*
X57556992Y-34771695D02*
X57556992Y-34238361D01*
X57556992Y-34390742D02*
X57518897Y-34314552D01*
X57518897Y-34314552D02*
X57480802Y-34276457D01*
X57480802Y-34276457D02*
X57404611Y-34238361D01*
X57404611Y-34238361D02*
X57328421Y-34238361D01*
X56566516Y-34238361D02*
X56261754Y-34238361D01*
X56452230Y-34771695D02*
X56452230Y-34085980D01*
X56452230Y-34085980D02*
X56414135Y-34009790D01*
X56414135Y-34009790D02*
X56337945Y-33971695D01*
X56337945Y-33971695D02*
X56261754Y-33971695D01*
X55995087Y-34771695D02*
X55995087Y-34238361D01*
X55995087Y-33971695D02*
X56033183Y-34009790D01*
X56033183Y-34009790D02*
X55995087Y-34047885D01*
X55995087Y-34047885D02*
X55956992Y-34009790D01*
X55956992Y-34009790D02*
X55995087Y-33971695D01*
X55995087Y-33971695D02*
X55995087Y-34047885D01*
X55614135Y-34771695D02*
X55614135Y-34238361D01*
X55614135Y-34390742D02*
X55576040Y-34314552D01*
X55576040Y-34314552D02*
X55537945Y-34276457D01*
X55537945Y-34276457D02*
X55461754Y-34238361D01*
X55461754Y-34238361D02*
X55385564Y-34238361D01*
X55118897Y-34771695D02*
X55118897Y-34238361D01*
X55118897Y-34314552D02*
X55080802Y-34276457D01*
X55080802Y-34276457D02*
X55004612Y-34238361D01*
X55004612Y-34238361D02*
X54890326Y-34238361D01*
X54890326Y-34238361D02*
X54814135Y-34276457D01*
X54814135Y-34276457D02*
X54776040Y-34352647D01*
X54776040Y-34352647D02*
X54776040Y-34771695D01*
X54776040Y-34352647D02*
X54737945Y-34276457D01*
X54737945Y-34276457D02*
X54661754Y-34238361D01*
X54661754Y-34238361D02*
X54547469Y-34238361D01*
X54547469Y-34238361D02*
X54471278Y-34276457D01*
X54471278Y-34276457D02*
X54433183Y-34352647D01*
X54433183Y-34352647D02*
X54433183Y-34771695D01*
X54128421Y-34238361D02*
X53976040Y-34771695D01*
X53976040Y-34771695D02*
X53823659Y-34390742D01*
X53823659Y-34390742D02*
X53671278Y-34771695D01*
X53671278Y-34771695D02*
X53518897Y-34238361D01*
X52871278Y-34771695D02*
X52871278Y-34352647D01*
X52871278Y-34352647D02*
X52909373Y-34276457D01*
X52909373Y-34276457D02*
X52985564Y-34238361D01*
X52985564Y-34238361D02*
X53137945Y-34238361D01*
X53137945Y-34238361D02*
X53214135Y-34276457D01*
X52871278Y-34733600D02*
X52947469Y-34771695D01*
X52947469Y-34771695D02*
X53137945Y-34771695D01*
X53137945Y-34771695D02*
X53214135Y-34733600D01*
X53214135Y-34733600D02*
X53252231Y-34657409D01*
X53252231Y-34657409D02*
X53252231Y-34581219D01*
X53252231Y-34581219D02*
X53214135Y-34505028D01*
X53214135Y-34505028D02*
X53137945Y-34466933D01*
X53137945Y-34466933D02*
X52947469Y-34466933D01*
X52947469Y-34466933D02*
X52871278Y-34428838D01*
X52490325Y-34771695D02*
X52490325Y-34238361D01*
X52490325Y-34390742D02*
X52452230Y-34314552D01*
X52452230Y-34314552D02*
X52414135Y-34276457D01*
X52414135Y-34276457D02*
X52337944Y-34238361D01*
X52337944Y-34238361D02*
X52261754Y-34238361D01*
X51690325Y-34733600D02*
X51766516Y-34771695D01*
X51766516Y-34771695D02*
X51918897Y-34771695D01*
X51918897Y-34771695D02*
X51995087Y-34733600D01*
X51995087Y-34733600D02*
X52033183Y-34657409D01*
X52033183Y-34657409D02*
X52033183Y-34352647D01*
X52033183Y-34352647D02*
X51995087Y-34276457D01*
X51995087Y-34276457D02*
X51918897Y-34238361D01*
X51918897Y-34238361D02*
X51766516Y-34238361D01*
X51766516Y-34238361D02*
X51690325Y-34276457D01*
X51690325Y-34276457D02*
X51652230Y-34352647D01*
X51652230Y-34352647D02*
X51652230Y-34428838D01*
X51652230Y-34428838D02*
X52033183Y-34505028D01*
X50814135Y-34238361D02*
X50509373Y-34238361D01*
X50699849Y-34771695D02*
X50699849Y-34085980D01*
X50699849Y-34085980D02*
X50661754Y-34009790D01*
X50661754Y-34009790D02*
X50585564Y-33971695D01*
X50585564Y-33971695D02*
X50509373Y-33971695D01*
X50128421Y-34771695D02*
X50204611Y-34733600D01*
X50204611Y-34733600D02*
X50242706Y-34657409D01*
X50242706Y-34657409D02*
X50242706Y-33971695D01*
X49480801Y-34771695D02*
X49480801Y-34352647D01*
X49480801Y-34352647D02*
X49518896Y-34276457D01*
X49518896Y-34276457D02*
X49595087Y-34238361D01*
X49595087Y-34238361D02*
X49747468Y-34238361D01*
X49747468Y-34238361D02*
X49823658Y-34276457D01*
X49480801Y-34733600D02*
X49556992Y-34771695D01*
X49556992Y-34771695D02*
X49747468Y-34771695D01*
X49747468Y-34771695D02*
X49823658Y-34733600D01*
X49823658Y-34733600D02*
X49861754Y-34657409D01*
X49861754Y-34657409D02*
X49861754Y-34581219D01*
X49861754Y-34581219D02*
X49823658Y-34505028D01*
X49823658Y-34505028D02*
X49747468Y-34466933D01*
X49747468Y-34466933D02*
X49556992Y-34466933D01*
X49556992Y-34466933D02*
X49480801Y-34428838D01*
X49137944Y-34733600D02*
X49061753Y-34771695D01*
X49061753Y-34771695D02*
X48909372Y-34771695D01*
X48909372Y-34771695D02*
X48833182Y-34733600D01*
X48833182Y-34733600D02*
X48795086Y-34657409D01*
X48795086Y-34657409D02*
X48795086Y-34619314D01*
X48795086Y-34619314D02*
X48833182Y-34543123D01*
X48833182Y-34543123D02*
X48909372Y-34505028D01*
X48909372Y-34505028D02*
X49023658Y-34505028D01*
X49023658Y-34505028D02*
X49099848Y-34466933D01*
X49099848Y-34466933D02*
X49137944Y-34390742D01*
X49137944Y-34390742D02*
X49137944Y-34352647D01*
X49137944Y-34352647D02*
X49099848Y-34276457D01*
X49099848Y-34276457D02*
X49023658Y-34238361D01*
X49023658Y-34238361D02*
X48909372Y-34238361D01*
X48909372Y-34238361D02*
X48833182Y-34276457D01*
X48452229Y-34771695D02*
X48452229Y-33971695D01*
X48109372Y-34771695D02*
X48109372Y-34352647D01*
X48109372Y-34352647D02*
X48147467Y-34276457D01*
X48147467Y-34276457D02*
X48223658Y-34238361D01*
X48223658Y-34238361D02*
X48337944Y-34238361D01*
X48337944Y-34238361D02*
X48414134Y-34276457D01*
X48414134Y-34276457D02*
X48452229Y-34314552D01*
X47690324Y-34733600D02*
X47690324Y-34771695D01*
X47690324Y-34771695D02*
X47728419Y-34847885D01*
X47728419Y-34847885D02*
X47766515Y-34885980D01*
X46737943Y-34771695D02*
X46737943Y-34238361D01*
X46737943Y-34390742D02*
X46699848Y-34314552D01*
X46699848Y-34314552D02*
X46661753Y-34276457D01*
X46661753Y-34276457D02*
X46585562Y-34238361D01*
X46585562Y-34238361D02*
X46509372Y-34238361D01*
X45937943Y-34733600D02*
X46014134Y-34771695D01*
X46014134Y-34771695D02*
X46166515Y-34771695D01*
X46166515Y-34771695D02*
X46242705Y-34733600D01*
X46242705Y-34733600D02*
X46280801Y-34657409D01*
X46280801Y-34657409D02*
X46280801Y-34352647D01*
X46280801Y-34352647D02*
X46242705Y-34276457D01*
X46242705Y-34276457D02*
X46166515Y-34238361D01*
X46166515Y-34238361D02*
X46014134Y-34238361D01*
X46014134Y-34238361D02*
X45937943Y-34276457D01*
X45937943Y-34276457D02*
X45899848Y-34352647D01*
X45899848Y-34352647D02*
X45899848Y-34428838D01*
X45899848Y-34428838D02*
X46280801Y-34505028D01*
X45556991Y-34771695D02*
X45556991Y-34238361D01*
X45556991Y-34314552D02*
X45518896Y-34276457D01*
X45518896Y-34276457D02*
X45442706Y-34238361D01*
X45442706Y-34238361D02*
X45328420Y-34238361D01*
X45328420Y-34238361D02*
X45252229Y-34276457D01*
X45252229Y-34276457D02*
X45214134Y-34352647D01*
X45214134Y-34352647D02*
X45214134Y-34771695D01*
X45214134Y-34352647D02*
X45176039Y-34276457D01*
X45176039Y-34276457D02*
X45099848Y-34238361D01*
X45099848Y-34238361D02*
X44985563Y-34238361D01*
X44985563Y-34238361D02*
X44909372Y-34276457D01*
X44909372Y-34276457D02*
X44871277Y-34352647D01*
X44871277Y-34352647D02*
X44871277Y-34771695D01*
X44376039Y-34771695D02*
X44452229Y-34733600D01*
X44452229Y-34733600D02*
X44490324Y-34695504D01*
X44490324Y-34695504D02*
X44528420Y-34619314D01*
X44528420Y-34619314D02*
X44528420Y-34390742D01*
X44528420Y-34390742D02*
X44490324Y-34314552D01*
X44490324Y-34314552D02*
X44452229Y-34276457D01*
X44452229Y-34276457D02*
X44376039Y-34238361D01*
X44376039Y-34238361D02*
X44261753Y-34238361D01*
X44261753Y-34238361D02*
X44185562Y-34276457D01*
X44185562Y-34276457D02*
X44147467Y-34314552D01*
X44147467Y-34314552D02*
X44109372Y-34390742D01*
X44109372Y-34390742D02*
X44109372Y-34619314D01*
X44109372Y-34619314D02*
X44147467Y-34695504D01*
X44147467Y-34695504D02*
X44185562Y-34733600D01*
X44185562Y-34733600D02*
X44261753Y-34771695D01*
X44261753Y-34771695D02*
X44376039Y-34771695D01*
X43842705Y-34238361D02*
X43652229Y-34771695D01*
X43652229Y-34771695D02*
X43461752Y-34238361D01*
X42852228Y-34733600D02*
X42928419Y-34771695D01*
X42928419Y-34771695D02*
X43080800Y-34771695D01*
X43080800Y-34771695D02*
X43156990Y-34733600D01*
X43156990Y-34733600D02*
X43195086Y-34657409D01*
X43195086Y-34657409D02*
X43195086Y-34352647D01*
X43195086Y-34352647D02*
X43156990Y-34276457D01*
X43156990Y-34276457D02*
X43080800Y-34238361D01*
X43080800Y-34238361D02*
X42928419Y-34238361D01*
X42928419Y-34238361D02*
X42852228Y-34276457D01*
X42852228Y-34276457D02*
X42814133Y-34352647D01*
X42814133Y-34352647D02*
X42814133Y-34428838D01*
X42814133Y-34428838D02*
X43195086Y-34505028D01*
X41976038Y-34238361D02*
X41671276Y-34238361D01*
X41861752Y-34771695D02*
X41861752Y-34085980D01*
X41861752Y-34085980D02*
X41823657Y-34009790D01*
X41823657Y-34009790D02*
X41747467Y-33971695D01*
X41747467Y-33971695D02*
X41671276Y-33971695D01*
X41290324Y-34771695D02*
X41366514Y-34733600D01*
X41366514Y-34733600D02*
X41404609Y-34695504D01*
X41404609Y-34695504D02*
X41442705Y-34619314D01*
X41442705Y-34619314D02*
X41442705Y-34390742D01*
X41442705Y-34390742D02*
X41404609Y-34314552D01*
X41404609Y-34314552D02*
X41366514Y-34276457D01*
X41366514Y-34276457D02*
X41290324Y-34238361D01*
X41290324Y-34238361D02*
X41176038Y-34238361D01*
X41176038Y-34238361D02*
X41099847Y-34276457D01*
X41099847Y-34276457D02*
X41061752Y-34314552D01*
X41061752Y-34314552D02*
X41023657Y-34390742D01*
X41023657Y-34390742D02*
X41023657Y-34619314D01*
X41023657Y-34619314D02*
X41061752Y-34695504D01*
X41061752Y-34695504D02*
X41099847Y-34733600D01*
X41099847Y-34733600D02*
X41176038Y-34771695D01*
X41176038Y-34771695D02*
X41290324Y-34771695D01*
X40680799Y-34771695D02*
X40680799Y-34238361D01*
X40680799Y-34390742D02*
X40642704Y-34314552D01*
X40642704Y-34314552D02*
X40604609Y-34276457D01*
X40604609Y-34276457D02*
X40528418Y-34238361D01*
X40528418Y-34238361D02*
X40452228Y-34238361D01*
X39576037Y-34238361D02*
X39576037Y-34771695D01*
X39576037Y-34314552D02*
X39537942Y-34276457D01*
X39537942Y-34276457D02*
X39461752Y-34238361D01*
X39461752Y-34238361D02*
X39347466Y-34238361D01*
X39347466Y-34238361D02*
X39271275Y-34276457D01*
X39271275Y-34276457D02*
X39233180Y-34352647D01*
X39233180Y-34352647D02*
X39233180Y-34771695D01*
X38737942Y-34771695D02*
X38814132Y-34733600D01*
X38814132Y-34733600D02*
X38852227Y-34695504D01*
X38852227Y-34695504D02*
X38890323Y-34619314D01*
X38890323Y-34619314D02*
X38890323Y-34390742D01*
X38890323Y-34390742D02*
X38852227Y-34314552D01*
X38852227Y-34314552D02*
X38814132Y-34276457D01*
X38814132Y-34276457D02*
X38737942Y-34238361D01*
X38737942Y-34238361D02*
X38623656Y-34238361D01*
X38623656Y-34238361D02*
X38547465Y-34276457D01*
X38547465Y-34276457D02*
X38509370Y-34314552D01*
X38509370Y-34314552D02*
X38471275Y-34390742D01*
X38471275Y-34390742D02*
X38471275Y-34619314D01*
X38471275Y-34619314D02*
X38509370Y-34695504D01*
X38509370Y-34695504D02*
X38547465Y-34733600D01*
X38547465Y-34733600D02*
X38623656Y-34771695D01*
X38623656Y-34771695D02*
X38737942Y-34771695D01*
X38128417Y-34771695D02*
X38128417Y-34238361D01*
X38128417Y-34390742D02*
X38090322Y-34314552D01*
X38090322Y-34314552D02*
X38052227Y-34276457D01*
X38052227Y-34276457D02*
X37976036Y-34238361D01*
X37976036Y-34238361D02*
X37899846Y-34238361D01*
X37633179Y-34771695D02*
X37633179Y-34238361D01*
X37633179Y-34314552D02*
X37595084Y-34276457D01*
X37595084Y-34276457D02*
X37518894Y-34238361D01*
X37518894Y-34238361D02*
X37404608Y-34238361D01*
X37404608Y-34238361D02*
X37328417Y-34276457D01*
X37328417Y-34276457D02*
X37290322Y-34352647D01*
X37290322Y-34352647D02*
X37290322Y-34771695D01*
X37290322Y-34352647D02*
X37252227Y-34276457D01*
X37252227Y-34276457D02*
X37176036Y-34238361D01*
X37176036Y-34238361D02*
X37061751Y-34238361D01*
X37061751Y-34238361D02*
X36985560Y-34276457D01*
X36985560Y-34276457D02*
X36947465Y-34352647D01*
X36947465Y-34352647D02*
X36947465Y-34771695D01*
X36223655Y-34771695D02*
X36223655Y-34352647D01*
X36223655Y-34352647D02*
X36261750Y-34276457D01*
X36261750Y-34276457D02*
X36337941Y-34238361D01*
X36337941Y-34238361D02*
X36490322Y-34238361D01*
X36490322Y-34238361D02*
X36566512Y-34276457D01*
X36223655Y-34733600D02*
X36299846Y-34771695D01*
X36299846Y-34771695D02*
X36490322Y-34771695D01*
X36490322Y-34771695D02*
X36566512Y-34733600D01*
X36566512Y-34733600D02*
X36604608Y-34657409D01*
X36604608Y-34657409D02*
X36604608Y-34581219D01*
X36604608Y-34581219D02*
X36566512Y-34505028D01*
X36566512Y-34505028D02*
X36490322Y-34466933D01*
X36490322Y-34466933D02*
X36299846Y-34466933D01*
X36299846Y-34466933D02*
X36223655Y-34428838D01*
X35728417Y-34771695D02*
X35804607Y-34733600D01*
X35804607Y-34733600D02*
X35842702Y-34657409D01*
X35842702Y-34657409D02*
X35842702Y-33971695D01*
X34699845Y-34771695D02*
X34776035Y-34733600D01*
X34776035Y-34733600D02*
X34814130Y-34695504D01*
X34814130Y-34695504D02*
X34852226Y-34619314D01*
X34852226Y-34619314D02*
X34852226Y-34390742D01*
X34852226Y-34390742D02*
X34814130Y-34314552D01*
X34814130Y-34314552D02*
X34776035Y-34276457D01*
X34776035Y-34276457D02*
X34699845Y-34238361D01*
X34699845Y-34238361D02*
X34585559Y-34238361D01*
X34585559Y-34238361D02*
X34509368Y-34276457D01*
X34509368Y-34276457D02*
X34471273Y-34314552D01*
X34471273Y-34314552D02*
X34433178Y-34390742D01*
X34433178Y-34390742D02*
X34433178Y-34619314D01*
X34433178Y-34619314D02*
X34471273Y-34695504D01*
X34471273Y-34695504D02*
X34509368Y-34733600D01*
X34509368Y-34733600D02*
X34585559Y-34771695D01*
X34585559Y-34771695D02*
X34699845Y-34771695D01*
X34090320Y-34238361D02*
X34090320Y-35038361D01*
X34090320Y-34276457D02*
X34014130Y-34238361D01*
X34014130Y-34238361D02*
X33861749Y-34238361D01*
X33861749Y-34238361D02*
X33785558Y-34276457D01*
X33785558Y-34276457D02*
X33747463Y-34314552D01*
X33747463Y-34314552D02*
X33709368Y-34390742D01*
X33709368Y-34390742D02*
X33709368Y-34619314D01*
X33709368Y-34619314D02*
X33747463Y-34695504D01*
X33747463Y-34695504D02*
X33785558Y-34733600D01*
X33785558Y-34733600D02*
X33861749Y-34771695D01*
X33861749Y-34771695D02*
X34014130Y-34771695D01*
X34014130Y-34771695D02*
X34090320Y-34733600D01*
X33061748Y-34733600D02*
X33137939Y-34771695D01*
X33137939Y-34771695D02*
X33290320Y-34771695D01*
X33290320Y-34771695D02*
X33366510Y-34733600D01*
X33366510Y-34733600D02*
X33404606Y-34657409D01*
X33404606Y-34657409D02*
X33404606Y-34352647D01*
X33404606Y-34352647D02*
X33366510Y-34276457D01*
X33366510Y-34276457D02*
X33290320Y-34238361D01*
X33290320Y-34238361D02*
X33137939Y-34238361D01*
X33137939Y-34238361D02*
X33061748Y-34276457D01*
X33061748Y-34276457D02*
X33023653Y-34352647D01*
X33023653Y-34352647D02*
X33023653Y-34428838D01*
X33023653Y-34428838D02*
X33404606Y-34505028D01*
X32680796Y-34771695D02*
X32680796Y-34238361D01*
X32680796Y-34390742D02*
X32642701Y-34314552D01*
X32642701Y-34314552D02*
X32604606Y-34276457D01*
X32604606Y-34276457D02*
X32528415Y-34238361D01*
X32528415Y-34238361D02*
X32452225Y-34238361D01*
X31842701Y-34771695D02*
X31842701Y-34352647D01*
X31842701Y-34352647D02*
X31880796Y-34276457D01*
X31880796Y-34276457D02*
X31956987Y-34238361D01*
X31956987Y-34238361D02*
X32109368Y-34238361D01*
X32109368Y-34238361D02*
X32185558Y-34276457D01*
X31842701Y-34733600D02*
X31918892Y-34771695D01*
X31918892Y-34771695D02*
X32109368Y-34771695D01*
X32109368Y-34771695D02*
X32185558Y-34733600D01*
X32185558Y-34733600D02*
X32223654Y-34657409D01*
X32223654Y-34657409D02*
X32223654Y-34581219D01*
X32223654Y-34581219D02*
X32185558Y-34505028D01*
X32185558Y-34505028D02*
X32109368Y-34466933D01*
X32109368Y-34466933D02*
X31918892Y-34466933D01*
X31918892Y-34466933D02*
X31842701Y-34428838D01*
X31576034Y-34238361D02*
X31271272Y-34238361D01*
X31461748Y-33971695D02*
X31461748Y-34657409D01*
X31461748Y-34657409D02*
X31423653Y-34733600D01*
X31423653Y-34733600D02*
X31347463Y-34771695D01*
X31347463Y-34771695D02*
X31271272Y-34771695D01*
X31004605Y-34771695D02*
X31004605Y-34238361D01*
X31004605Y-33971695D02*
X31042701Y-34009790D01*
X31042701Y-34009790D02*
X31004605Y-34047885D01*
X31004605Y-34047885D02*
X30966510Y-34009790D01*
X30966510Y-34009790D02*
X31004605Y-33971695D01*
X31004605Y-33971695D02*
X31004605Y-34047885D01*
X30509368Y-34771695D02*
X30585558Y-34733600D01*
X30585558Y-34733600D02*
X30623653Y-34695504D01*
X30623653Y-34695504D02*
X30661749Y-34619314D01*
X30661749Y-34619314D02*
X30661749Y-34390742D01*
X30661749Y-34390742D02*
X30623653Y-34314552D01*
X30623653Y-34314552D02*
X30585558Y-34276457D01*
X30585558Y-34276457D02*
X30509368Y-34238361D01*
X30509368Y-34238361D02*
X30395082Y-34238361D01*
X30395082Y-34238361D02*
X30318891Y-34276457D01*
X30318891Y-34276457D02*
X30280796Y-34314552D01*
X30280796Y-34314552D02*
X30242701Y-34390742D01*
X30242701Y-34390742D02*
X30242701Y-34619314D01*
X30242701Y-34619314D02*
X30280796Y-34695504D01*
X30280796Y-34695504D02*
X30318891Y-34733600D01*
X30318891Y-34733600D02*
X30395082Y-34771695D01*
X30395082Y-34771695D02*
X30509368Y-34771695D01*
X29899843Y-34238361D02*
X29899843Y-34771695D01*
X29899843Y-34314552D02*
X29861748Y-34276457D01*
X29861748Y-34276457D02*
X29785558Y-34238361D01*
X29785558Y-34238361D02*
X29671272Y-34238361D01*
X29671272Y-34238361D02*
X29595081Y-34276457D01*
X29595081Y-34276457D02*
X29556986Y-34352647D01*
X29556986Y-34352647D02*
X29556986Y-34771695D01*
D13*
X32446441Y51352267D02*
X30922632Y51352267D01*
X43006441Y51392267D02*
X41482632Y51392267D01*
X42244536Y50630362D02*
X42244536Y52154172D01*
D14*
X43354285Y-42202580D02*
X43354285Y-41488295D01*
X43354285Y-41488295D02*
X43306666Y-41345438D01*
X43306666Y-41345438D02*
X43211428Y-41250200D01*
X43211428Y-41250200D02*
X43068571Y-41202580D01*
X43068571Y-41202580D02*
X42973333Y-41202580D01*
X43735238Y-42202580D02*
X44354285Y-42202580D01*
X44354285Y-42202580D02*
X44020952Y-41821628D01*
X44020952Y-41821628D02*
X44163809Y-41821628D01*
X44163809Y-41821628D02*
X44259047Y-41774009D01*
X44259047Y-41774009D02*
X44306666Y-41726390D01*
X44306666Y-41726390D02*
X44354285Y-41631152D01*
X44354285Y-41631152D02*
X44354285Y-41393057D01*
X44354285Y-41393057D02*
X44306666Y-41297819D01*
X44306666Y-41297819D02*
X44259047Y-41250200D01*
X44259047Y-41250200D02*
X44163809Y-41202580D01*
X44163809Y-41202580D02*
X43878095Y-41202580D01*
X43878095Y-41202580D02*
X43782857Y-41250200D01*
X43782857Y-41250200D02*
X43735238Y-41297819D01*
X44973333Y-42202580D02*
X45068571Y-42202580D01*
X45068571Y-42202580D02*
X45163809Y-42154961D01*
X45163809Y-42154961D02*
X45211428Y-42107342D01*
X45211428Y-42107342D02*
X45259047Y-42012104D01*
X45259047Y-42012104D02*
X45306666Y-41821628D01*
X45306666Y-41821628D02*
X45306666Y-41583533D01*
X45306666Y-41583533D02*
X45259047Y-41393057D01*
X45259047Y-41393057D02*
X45211428Y-41297819D01*
X45211428Y-41297819D02*
X45163809Y-41250200D01*
X45163809Y-41250200D02*
X45068571Y-41202580D01*
X45068571Y-41202580D02*
X44973333Y-41202580D01*
X44973333Y-41202580D02*
X44878095Y-41250200D01*
X44878095Y-41250200D02*
X44830476Y-41297819D01*
X44830476Y-41297819D02*
X44782857Y-41393057D01*
X44782857Y-41393057D02*
X44735238Y-41583533D01*
X44735238Y-41583533D02*
X44735238Y-41821628D01*
X44735238Y-41821628D02*
X44782857Y-42012104D01*
X44782857Y-42012104D02*
X44830476Y-42107342D01*
X44830476Y-42107342D02*
X44878095Y-42154961D01*
X44878095Y-42154961D02*
X44973333Y-42202580D01*
X46163809Y-41869247D02*
X46163809Y-41202580D01*
X45925714Y-42250200D02*
X45687619Y-41535914D01*
X45687619Y-41535914D02*
X46306666Y-41535914D01*
%LPC*%
D15*
%TO.C,J201*%
X77008600Y30283000D03*
X77008600Y27743000D03*
X77008600Y25203000D03*
X77008600Y22663000D03*
X77008600Y20123000D03*
X77008600Y17583000D03*
X77008600Y15043000D03*
X77008600Y12503000D03*
%TD*%
%TO.C,J202*%
X77008600Y7448400D03*
X77008600Y4908400D03*
X77008600Y2368400D03*
X77008600Y-171600D03*
X77008600Y-2711600D03*
X77008600Y-5251600D03*
%TD*%
%TO.C,J203*%
X28723200Y16617800D03*
X28723200Y19157800D03*
X28723200Y21697800D03*
X28723200Y24237800D03*
X28723200Y26777800D03*
X28723200Y29317800D03*
X28723200Y31857800D03*
X28723200Y34397800D03*
X28723200Y36937800D03*
X28723200Y39477800D03*
%TD*%
%TO.C,J204*%
X28723200Y-5277000D03*
X28723200Y-2737000D03*
X28723200Y-197000D03*
X28723200Y2343000D03*
X28723200Y4883000D03*
X28723200Y7423000D03*
X28723200Y9963000D03*
X28723200Y12503000D03*
%TD*%
%TO.C,J303*%
X37870000Y52030000D03*
X35870000Y52030000D03*
%TD*%
D16*
%TO.C,J401*%
X32340000Y-36110000D03*
X76790000Y-15790000D03*
%TD*%
D17*
%TO.C,J302*%
X35490000Y43575000D03*
D18*
X35490000Y46115000D03*
%TD*%
D19*
%TO.C,J301*%
X28410000Y51045000D03*
X24610000Y51045000D03*
X28410000Y42405000D03*
X24610000Y42405000D03*
%TD*%
D20*
%TO.C,J304*%
X39640000Y-37950000D03*
X49640000Y-37950000D03*
%TD*%
%LPD*%
M02*
