%TF.GenerationSoftware,KiCad,Pcbnew,10.0.0*%
%TF.CreationDate,2026-05-06T17:40:28-04:00*%
%TF.ProjectId,SpecterShield-BE-ATDT,53706563-7465-4725-9368-69656c642d42,rev?*%
%TF.SameCoordinates,Original*%
%TF.FileFunction,Copper,L4,Bot*%
%TF.FilePolarity,Positive*%
%FSLAX46Y46*%
G04 Gerber Fmt 4.6, Leading zero omitted, Abs format (unit mm)*
G04 Created by KiCad (PCBNEW 10.0.0) date 2026-05-06 17:40:28*
%MOMM*%
%LPD*%
G01*
G04 APERTURE LIST*
G04 Aperture macros list*
%AMRoundRect*
0 Rectangle with rounded corners*
0 $1 Rounding radius*
0 $2 $3 $4 $5 $6 $7 $8 $9 X,Y pos of 4 corners*
0 Add a 4 corners polygon primitive as box body*
4,1,4,$2,$3,$4,$5,$6,$7,$8,$9,$2,$3,0*
0 Add four circle primitives for the rounded corners*
1,1,$1+$1,$2,$3*
1,1,$1+$1,$4,$5*
1,1,$1+$1,$6,$7*
1,1,$1+$1,$8,$9*
0 Add four rect primitives between the rounded corners*
20,1,$1+$1,$2,$3,$4,$5,0*
20,1,$1+$1,$4,$5,$6,$7,0*
20,1,$1+$1,$6,$7,$8,$9,0*
20,1,$1+$1,$8,$9,$2,$3,0*%
G04 Aperture macros list end*
%TA.AperFunction,ComponentPad*%
%ADD10C,1.600000*%
%TD*%
%TA.AperFunction,HeatsinkPad*%
%ADD11C,0.500000*%
%TD*%
%TA.AperFunction,HeatsinkPad*%
%ADD12R,1.900000X2.900000*%
%TD*%
%TA.AperFunction,ComponentPad*%
%ADD13R,1.700000X1.700000*%
%TD*%
%TA.AperFunction,ComponentPad*%
%ADD14C,1.700000*%
%TD*%
%TA.AperFunction,ComponentPad*%
%ADD15C,0.500000*%
%TD*%
%TA.AperFunction,ComponentPad*%
%ADD16O,1.700000X1.000000*%
%TD*%
%TA.AperFunction,SMDPad,CuDef*%
%ADD17RoundRect,0.750000X-3.250000X-1.750000X3.250000X-1.750000X3.250000X1.750000X-3.250000X1.750000X0*%
%TD*%
%TA.AperFunction,ViaPad*%
%ADD18C,0.500000*%
%TD*%
%TA.AperFunction,ViaPad*%
%ADD19C,0.600000*%
%TD*%
%TA.AperFunction,ViaPad*%
%ADD20C,1.000000*%
%TD*%
%TA.AperFunction,ViaPad*%
%ADD21C,0.800000*%
%TD*%
%TA.AperFunction,Conductor*%
%ADD22C,0.200000*%
%TD*%
%TA.AperFunction,Conductor*%
%ADD23C,0.250000*%
%TD*%
G04 APERTURE END LIST*
D10*
%TO.P,J201,1,Pin_1_1*%
%TO.N,unconnected-(J201-Pin_1-Pad1)*%
X77008600Y30283000D03*
%TO.P,J201,2,Pin_2_2*%
%TO.N,unconnected-(J201-Pin_2-Pad2)_1*%
X77008600Y27743000D03*
%TO.P,J201,3,Pin_3_3*%
%TO.N,/STM32F469I-DISCO-Interface/NRST*%
X77008600Y25203000D03*
%TO.P,J201,4,Pin_4_4*%
%TO.N,+3V3*%
X77008600Y22663000D03*
%TO.P,J201,5,Pin_5_5*%
%TO.N,+5V*%
X77008600Y20123000D03*
%TO.P,J201,6,Pin_6_6*%
%TO.N,GND*%
X77008600Y17583000D03*
%TO.P,J201,7,Pin_7_7*%
X77008600Y15043000D03*
%TO.P,J201,8,Pin_8_8*%
%TO.N,PWR_VOUT*%
X77008600Y12503000D03*
%TD*%
%TO.P,J202,1,Pin_1_1*%
%TO.N,PWR_nBUTTON*%
X77008600Y7448400D03*
%TO.P,J202,2,Pin_2_2*%
%TO.N,SC_nOFF*%
X77008600Y4908400D03*
%TO.P,J202,3,Pin_3_3*%
%TO.N,SC_VCC_SEL1*%
X77008600Y2368400D03*
%TO.P,J202,4,Pin_4_4*%
%TO.N,SC_VCC_SEL2_1*%
X77008600Y-171600D03*
%TO.P,J202,5,Pin_5_5*%
%TO.N,SC_nCMDVCC*%
X77008600Y-2711600D03*
%TO.P,J202,6,Pin_6_6*%
%TO.N,SC_CLK*%
X77008600Y-5251600D03*
%TD*%
%TO.P,J203,1,Pin_1_1*%
%TO.N,SC_RST*%
X28723200Y16617800D03*
%TO.P,J203,2,Pin_2_2*%
%TO.N,BAT_MEAS*%
X28723200Y19157800D03*
%TO.P,J203,3,Pin_3_3*%
%TO.N,CHG_STATE*%
X28723200Y21697800D03*
%TO.P,J203,4,Pin_4_4*%
%TO.N,PWR_HOLD2*%
X28723200Y24237800D03*
%TO.P,J203,5,Pin_5_5*%
%TO.N,PWR_nCharger*%
X28723200Y26777800D03*
%TO.P,J203,6,Pin_6_6*%
%TO.N,unconnected-(J203-Pin_6-Pad6)*%
X28723200Y29317800D03*
%TO.P,J203,7,Pin_7_7*%
%TO.N,GND*%
X28723200Y31857800D03*
%TO.P,J203,8,Pin_8_8*%
%TO.N,unconnected-(J203-Pin_8-Pad8)*%
X28723200Y34397800D03*
%TO.P,J203,9,Pin_9_9*%
%TO.N,I2C_SDA*%
X28723200Y36937800D03*
%TO.P,J203,10,Pin_10_10*%
%TO.N,I2C_SCL*%
X28723200Y39477800D03*
%TD*%
%TO.P,J204,1,Pin_1_1*%
%TO.N,QR_UART_TX*%
X28723200Y-5277000D03*
%TO.P,J204,2,Pin_2_2*%
%TO.N,QR_UART_RX*%
X28723200Y-2737000D03*
%TO.P,J204,3,Pin_3_3*%
%TO.N,QR_TRIG*%
X28723200Y-197000D03*
%TO.P,J204,4,Pin_4_4*%
%TO.N,UC_BEEP*%
X28723200Y2343000D03*
%TO.P,J204,5,Pin_5_5*%
%TO.N,SC_CLKDIV2_1*%
X28723200Y4883000D03*
%TO.P,J204,6,Pin_6_6*%
%TO.N,SC_IO*%
X28723200Y7423000D03*
%TO.P,J204,7,Pin_7_7*%
%TO.N,SC_AUX1*%
X28723200Y9963000D03*
%TO.P,J204,8,Pin_8_8*%
%TO.N,SC_CLKDIV1*%
X28723200Y12503000D03*
%TD*%
%TO.P,J303,1,1_1*%
%TO.N,BATT_P*%
X37870000Y52030000D03*
%TO.P,J303,2,2_2*%
%TO.N,GND*%
X35870000Y52030000D03*
%TD*%
D11*
%TO.P,U302,9,EPAD_9*%
%TO.N,GND*%
X47840000Y46892500D03*
X47840000Y45692500D03*
X47840000Y44492500D03*
D12*
X48540000Y45692500D03*
D11*
X49240000Y46892500D03*
X49240000Y45692500D03*
X49240000Y44492500D03*
%TD*%
D13*
%TO.P,J302,1,Pin_1_1*%
%TO.N,GND*%
X35490000Y43575000D03*
D14*
%TO.P,J302,2,Pin_2_2*%
%TO.N,USB_P*%
X35490000Y46115000D03*
%TD*%
D15*
%TO.P,U301,11,SW_11*%
%TO.N,/Power/V_SW*%
X44187500Y25780000D03*
%TD*%
D16*
%TO.P,J301,SH,SHIELD_SH*%
%TO.N,GND*%
X28410000Y51045000D03*
X24610000Y51045000D03*
X28410000Y42405000D03*
X24610000Y42405000D03*
%TD*%
D17*
%TO.P,J304,1,A_1*%
%TO.N,Net-(D310-K)*%
X39640000Y-37950000D03*
%TO.P,J304,2,B_2*%
%TO.N,Net-(D305-K)*%
X49640000Y-37950000D03*
%TD*%
D18*
%TO.N,+3V3*%
X69565000Y28075000D03*
X71070000Y840000D03*
X70720000Y19090000D03*
%TO.N,+5V*%
X60310000Y900000D03*
X46360000Y5550000D03*
X72598600Y-1025434D03*
%TO.N,GND*%
X66960000Y-2810000D03*
X58590000Y45490000D03*
X65250000Y24125000D03*
X53260000Y3600000D03*
X80350000Y-9750000D03*
X33740000Y1380000D03*
X49820000Y25780000D03*
X61430000Y6360000D03*
X35075000Y54200000D03*
X57360000Y36350000D03*
X53420000Y29820000D03*
X33060000Y17840000D03*
X33872762Y36306356D03*
X74800000Y27030000D03*
X31680000Y14650000D03*
X46820000Y57000000D03*
X25020000Y-13270000D03*
X40560000Y4380000D03*
X32950000Y19750000D03*
X54900000Y17580000D03*
X57150000Y25350000D03*
X65300000Y35100000D03*
X45089283Y45646971D03*
X38990000Y44500000D03*
X37000000Y56217861D03*
X67100000Y37580000D03*
X67770000Y29980000D03*
X39840000Y51010000D03*
X48920000Y24110000D03*
X31980000Y48540000D03*
X66060000Y9550000D03*
X71440000Y25880000D03*
X48620000Y25710000D03*
D19*
X26725000Y49475000D03*
D18*
X81160000Y33040000D03*
X34150000Y39920000D03*
X47000000Y-8450000D03*
X49970000Y28870000D03*
X40725000Y47250000D03*
X63370000Y11110000D03*
X54530000Y13070000D03*
X70640000Y3320000D03*
X66640000Y15900000D03*
X42870000Y46610000D03*
D19*
X64960000Y28760000D03*
D18*
X51200000Y4500000D03*
X37200000Y7200000D03*
X75040000Y21530000D03*
X32170000Y-28580000D03*
X60270000Y40100000D03*
X41475000Y57725000D03*
D20*
X49910000Y20680000D03*
D18*
X67410000Y40720000D03*
X80650000Y-25390000D03*
X52410000Y6420000D03*
X66220000Y880000D03*
X79210000Y24060000D03*
X60170000Y2860000D03*
X65600000Y48190000D03*
X79240000Y29200000D03*
X72580000Y-26780000D03*
X48500000Y35000000D03*
X80950000Y2340000D03*
X58510000Y10720000D03*
X73890000Y6020000D03*
D20*
X47740000Y23650000D03*
D18*
X41500000Y54225000D03*
D19*
X30220000Y43580000D03*
D18*
X54000000Y-2780000D03*
X45490000Y-1210000D03*
X34210000Y-2350000D03*
X33650000Y29260000D03*
X54450000Y10960000D03*
D20*
X42340000Y18430000D03*
D18*
X70200000Y16600000D03*
X47040000Y570000D03*
X68990000Y-1180000D03*
X39630000Y-2470000D03*
X24230000Y-940000D03*
X30850000Y-9490000D03*
X34500000Y48850000D03*
X34960000Y27230000D03*
X47860000Y-29310000D03*
X57830000Y17630000D03*
X64060000Y-4610000D03*
X25310000Y-24220000D03*
X63690000Y16020000D03*
X43630000Y-9080000D03*
X45675000Y31300000D03*
X35900000Y34225000D03*
X24220000Y21930000D03*
X80980000Y10010000D03*
X51030000Y23950000D03*
X37860000Y20120000D03*
X74960000Y3420000D03*
X71740000Y-990000D03*
X24100000Y47080000D03*
X31860000Y38920000D03*
X35550000Y8140000D03*
X54275000Y49800000D03*
X49250000Y-3530000D03*
X58830000Y450000D03*
X45010000Y-2390000D03*
X39850000Y14730000D03*
X47550000Y47870000D03*
X47390000Y9960000D03*
X31480000Y3750000D03*
X46710000Y24980000D03*
X47720000Y25730000D03*
X37890000Y31330000D03*
X54750000Y45600000D03*
X68760000Y10960000D03*
X51200000Y37200000D03*
D19*
X26725000Y43975000D03*
D18*
X33570000Y43950000D03*
X53760000Y1610000D03*
X73260000Y8860000D03*
X24280000Y32420000D03*
X63900000Y5830000D03*
X74860000Y16370000D03*
X35190000Y57770000D03*
D20*
X43790000Y16660000D03*
D18*
X65250000Y18175000D03*
X42400000Y9150000D03*
X46800000Y24110000D03*
D19*
X30400000Y49475000D03*
D18*
X74100000Y55500000D03*
X59590000Y-1830000D03*
X39280000Y150000D03*
X41960000Y16130000D03*
D20*
X40370000Y19920000D03*
D18*
X23950000Y11760000D03*
X26220000Y770000D03*
X68680000Y21080000D03*
X37560000Y11290000D03*
X41140000Y51900000D03*
X25500000Y-37710000D03*
X42175000Y35350000D03*
X41875000Y41900000D03*
X51330000Y7540000D03*
X63150000Y-21180000D03*
X34940000Y12940000D03*
X73530000Y1170000D03*
X69490000Y7280000D03*
X40770000Y12800000D03*
X36450000Y0D03*
X49220000Y-1540000D03*
X81130000Y-38590000D03*
X68200000Y890000D03*
X50780000Y12830000D03*
X59890000Y-7320000D03*
X65440000Y4060000D03*
X79710000Y14410000D03*
X58360000Y12770000D03*
X45200000Y13280000D03*
X56960000Y-28070000D03*
X36310000Y15500000D03*
X28260000Y56080000D03*
X67520000Y-8980000D03*
X79110000Y18850000D03*
X71800000Y-4530000D03*
X55210000Y21850000D03*
X41675000Y56040000D03*
D19*
%TO.N,PWR_VOUT*%
X59652776Y35312776D03*
D21*
X55820000Y49500000D03*
D18*
%TO.N,PWR_nBUTTON*%
X80295100Y10734900D03*
X69600000Y29715000D03*
%TO.N,SC_nOFF*%
X72080000Y3770000D03*
X73190000Y3870000D03*
%TO.N,SC_CLK*%
X46230000Y-9230000D03*
X59540000Y-9950000D03*
%TO.N,SC_RST*%
X33870000Y7620000D03*
X51200000Y2260000D03*
%TO.N,CHG_STATE*%
X46670000Y51530000D03*
X52200000Y46900000D03*
X33680000Y29960000D03*
%TO.N,PWR_HOLD2*%
X33740000Y31050000D03*
X61730000Y34130000D03*
%TO.N,QR_UART_TX*%
X38170000Y-430000D03*
%TO.N,QR_UART_RX*%
X38150000Y680000D03*
%TO.N,QR_TRIG*%
X50020000Y15400000D03*
X58110000Y22060000D03*
%TO.N,SC_IO*%
X70090000Y5600000D03*
%TO.N,SC_CLKDIV1*%
X46035000Y-1845000D03*
X53709339Y-1539339D03*
%TO.N,Net-(D303-K)*%
X28310000Y55090000D03*
X42390000Y55030000D03*
%TO.N,Net-(D305-K)*%
X60890000Y36890000D03*
X79210000Y10750000D03*
%TO.N,Net-(D304-K)*%
X28420000Y53070000D03*
X42430000Y53370000D03*
%TO.N,BATT_P*%
X44000000Y33561544D03*
X38925000Y34400000D03*
D19*
%TO.N,Net-(J301-CC2)*%
X31099996Y42820000D03*
X29850000Y46225000D03*
D18*
%TO.N,Net-(U302-~{STDBY})*%
X52300000Y45750000D03*
X47500000Y54680000D03*
D19*
%TO.N,BOOST_VOUT*%
X46661966Y20871853D03*
X50940000Y25670000D03*
D18*
%TO.N,Net-(D307-K)*%
X42510000Y56980000D03*
X27915963Y57634037D03*
%TO.N,Net-(Q601-B)*%
X44710000Y9470000D03*
X61160000Y10440000D03*
%TO.N,Net-(R324-Pad2)*%
X65300000Y49100000D03*
X78100000Y45200000D03*
X70800000Y37300000D03*
%TO.N,/SmartCard_Reader/SC_PRES_Out*%
X58400000Y-4110000D03*
X58080000Y-2917734D03*
%TO.N,/SmartCard_Reader/SC_CLK_Out*%
X59880000Y-4710000D03*
X54640000Y-8310000D03*
%TO.N,Net-(D310-K)*%
X70810000Y8520000D03*
D19*
%TO.N,PWR_EN*%
X66205000Y31665000D03*
D18*
X69560000Y19960000D03*
D19*
%TO.N,Net-(J301-CC1)*%
X32640000Y42820000D03*
X29850000Y47250000D03*
%TD*%
%TO.N,+3V3*%
D22*
X70540000Y25290000D02*
X73167000Y22663000D01*
X74950000Y13350000D02*
X75950000Y14350000D01*
X73167000Y22663000D02*
X73167000Y21537000D01*
X74950000Y4720000D02*
X74950000Y13350000D01*
X69565000Y28075000D02*
X70540000Y27100000D01*
X75950000Y21604400D02*
X77008600Y22663000D01*
X75950000Y14350000D02*
X75950000Y21604400D01*
X71070000Y840000D02*
X74950000Y4720000D01*
X73167000Y21537000D02*
X70720000Y19090000D01*
X73167000Y22663000D02*
X77008600Y22663000D01*
X70540000Y27100000D02*
X70540000Y25290000D01*
%TO.N,+5V*%
X78108600Y1983475D02*
X77003525Y878400D01*
X77008600Y20123000D02*
X78108600Y19023000D01*
X74502434Y878400D02*
X72598600Y-1025434D01*
X77003525Y878400D02*
X74502434Y878400D01*
X55660000Y5550000D02*
X46360000Y5550000D01*
X60310000Y900000D02*
X55660000Y5550000D01*
X78108600Y19023000D02*
X78108600Y1983475D01*
%TO.N,PWR_VOUT*%
X59652776Y35312776D02*
X59487224Y35312776D01*
X55820000Y38980000D02*
X55820000Y49500000D01*
X59487224Y35312776D02*
X55820000Y38980000D01*
%TO.N,PWR_nBUTTON*%
X80295100Y10734900D02*
X80295100Y14434900D01*
X70365000Y28950000D02*
X69600000Y29715000D01*
X80290000Y14440000D02*
X80290000Y26510000D01*
X80295100Y14434900D02*
X80290000Y14440000D01*
X80290000Y26510000D02*
X77850000Y28950000D01*
X77850000Y28950000D02*
X70365000Y28950000D01*
%TO.N,SC_nOFF*%
X72180000Y3870000D02*
X72080000Y3770000D01*
X73190000Y3870000D02*
X72180000Y3870000D01*
%TO.N,SC_CLK*%
X46950000Y-9950000D02*
X46230000Y-9230000D01*
X59540000Y-9950000D02*
X46950000Y-9950000D01*
%TO.N,SC_RST*%
X51200000Y2260000D02*
X50800000Y2660000D01*
X38460000Y2660000D02*
X33870000Y7250000D01*
X50800000Y2660000D02*
X38460000Y2660000D01*
X33870000Y7250000D02*
X33870000Y7620000D01*
%TO.N,CHG_STATE*%
X33680000Y29960000D02*
X33680000Y30402893D01*
X33680000Y30402893D02*
X33240000Y30842893D01*
X42965393Y43992500D02*
X49740000Y43992500D01*
X49740000Y43992500D02*
X52200000Y46452500D01*
X33240000Y30842893D02*
X33240000Y34267107D01*
X49630000Y48570000D02*
X46670000Y51530000D01*
X52200000Y46900000D02*
X50530000Y48570000D01*
X33240000Y34267107D02*
X42965393Y43992500D01*
X50530000Y48570000D02*
X49630000Y48570000D01*
X52200000Y46452500D02*
X52200000Y46900000D01*
%TO.N,PWR_HOLD2*%
X35751544Y33061544D02*
X33740000Y31050000D01*
X61730000Y34130000D02*
X60661544Y33061544D01*
X60661544Y33061544D02*
X35751544Y33061544D01*
%TO.N,QR_UART_TX*%
X33323000Y-5277000D02*
X28723200Y-5277000D01*
X38170000Y-430000D02*
X33323000Y-5277000D01*
%TO.N,QR_UART_RX*%
X31693000Y-2737000D02*
X28723200Y-2737000D01*
X38150000Y680000D02*
X35110000Y680000D01*
X35110000Y680000D02*
X31693000Y-2737000D01*
%TO.N,QR_TRIG*%
X50020000Y15400000D02*
X51450000Y15400000D01*
X51450000Y15400000D02*
X58110000Y22060000D01*
%TO.N,SC_IO*%
X70090000Y7757107D02*
X70090000Y5600000D01*
X29080000Y7410000D02*
X33600000Y11930000D01*
X65917107Y11930000D02*
X70090000Y7757107D01*
X33600000Y11930000D02*
X65917107Y11930000D01*
%TO.N,SC_CLKDIV1*%
X47150000Y-2280000D02*
X51540000Y-2280000D01*
X46035000Y-1845000D02*
X46300000Y-2110000D01*
X51540000Y-2280000D02*
X52280661Y-1539339D01*
X46980000Y-2110000D02*
X47150000Y-2280000D01*
X53709339Y-1539339D02*
X53700000Y-1530000D01*
X52280661Y-1539339D02*
X53709339Y-1539339D01*
X46300000Y-2110000D02*
X46980000Y-2110000D01*
%TO.N,Net-(D303-K)*%
D23*
X28310000Y55090000D02*
X42330000Y55090000D01*
X42330000Y55090000D02*
X42390000Y55030000D01*
%TO.N,Net-(D305-K)*%
D22*
X61887818Y36760000D02*
X61020000Y36760000D01*
X66755000Y31852893D02*
X66755000Y31892818D01*
X48990000Y-26120000D02*
X73888400Y-1221600D01*
X61020000Y36760000D02*
X60890000Y36890000D01*
X66755000Y31892818D02*
X61887818Y36760000D01*
X79210000Y21946525D02*
X77443525Y23713000D01*
X77443525Y23713000D02*
X74894893Y23713000D01*
X79610000Y19057107D02*
X79317107Y19350000D01*
X49640000Y-38050000D02*
X48990000Y-37400000D01*
X79317107Y19350000D02*
X79210000Y19350000D01*
X79210000Y544875D02*
X79210000Y10750000D01*
X48990000Y-37400000D02*
X48990000Y-26120000D01*
X79210000Y18350000D02*
X79317107Y18350000D01*
X79610000Y18642893D02*
X79610000Y19057107D01*
X73888400Y-1221600D02*
X77443525Y-1221600D01*
X77443525Y-1221600D02*
X79210000Y544875D01*
X79210000Y10750000D02*
X79210000Y18350000D01*
X74894893Y23713000D02*
X66755000Y31852893D01*
X79210000Y19350000D02*
X79210000Y21946525D01*
X79317107Y18350000D02*
X79610000Y18642893D01*
%TO.N,Net-(D304-K)*%
D23*
X28420000Y53070000D02*
X28720000Y53370000D01*
X28720000Y53370000D02*
X42430000Y53370000D01*
%TO.N,BATT_P*%
D22*
X40235956Y33561544D02*
X39522500Y34275000D01*
X39050000Y34275000D02*
X38925000Y34400000D01*
X44000000Y33561544D02*
X40235956Y33561544D01*
X39522500Y34275000D02*
X39050000Y34275000D01*
%TO.N,Net-(J301-CC2)*%
X30447818Y44130000D02*
X30444996Y44130000D01*
X30444996Y44130000D02*
X29850000Y44724996D01*
X30770000Y43807818D02*
X30447818Y44130000D01*
X29850000Y44724996D02*
X29850000Y46225000D01*
X31099996Y42820000D02*
X31099996Y43475000D01*
X31099996Y43475000D02*
X30770000Y43804996D01*
X30770000Y43804996D02*
X30770000Y43807818D01*
%TO.N,Net-(U302-~{STDBY})*%
X52700000Y47380000D02*
X52700000Y46150000D01*
X52700000Y46150000D02*
X52300000Y45750000D01*
X47500000Y52580000D02*
X52700000Y47380000D01*
X47500000Y54680000D02*
X47500000Y52580000D01*
%TO.N,BOOST_VOUT*%
X51090000Y25520000D02*
X51090000Y25299887D01*
X50940000Y25670000D02*
X51090000Y25520000D01*
X51090000Y25299887D02*
X46661966Y20871853D01*
%TO.N,Net-(D307-K)*%
X27915963Y57634037D02*
X28570000Y56980000D01*
X28570000Y56980000D02*
X42510000Y56980000D01*
%TO.N,Net-(Q601-B)*%
X44710000Y9470000D02*
X44720000Y9460000D01*
X44720000Y9460000D02*
X60180000Y9460000D01*
X60180000Y9460000D02*
X61160000Y10440000D01*
%TO.N,Net-(R324-Pad2)*%
X65300000Y49100000D02*
X74200000Y49100000D01*
X70800000Y37900000D02*
X78100000Y45200000D01*
X70800000Y37300000D02*
X70800000Y37900000D01*
X74200000Y49100000D02*
X78100000Y45200000D01*
%TO.N,/SmartCard_Reader/SC_PRES_Out*%
X58400000Y-4110000D02*
X58400000Y-3237734D01*
X58400000Y-3237734D02*
X58080000Y-2917734D01*
%TO.N,/SmartCard_Reader/SC_CLK_Out*%
X56280000Y-8310000D02*
X59880000Y-4710000D01*
X54640000Y-8310000D02*
X56280000Y-8310000D01*
%TO.N,Net-(D310-K)*%
X64987107Y-5210000D02*
X65850000Y-5210000D01*
X69490000Y310000D02*
X71180000Y2000000D01*
X39640000Y-30557107D02*
X64987107Y-5210000D01*
X65850000Y-5210000D02*
X69490000Y-1570000D01*
X69490000Y-1570000D02*
X69490000Y310000D01*
X70810000Y3857107D02*
X70810000Y8520000D01*
X39640000Y-38050000D02*
X39640000Y-30557107D01*
X71180000Y2000000D02*
X71180000Y3487107D01*
X71180000Y3487107D02*
X70810000Y3857107D01*
%TO.N,PWR_EN*%
X69780000Y20180000D02*
X69560000Y19960000D01*
X66750000Y29720000D02*
X69780000Y26690000D01*
X66205000Y31665000D02*
X66750000Y31120000D01*
X66750000Y31120000D02*
X66750000Y29720000D01*
X69780000Y26690000D02*
X69780000Y20180000D01*
%TO.N,Net-(J301-CC1)*%
X32210000Y44915000D02*
X29875000Y47250000D01*
X32680000Y43290000D02*
X32210000Y43760000D01*
X29875000Y47250000D02*
X29850000Y47250000D01*
X32210000Y43760000D02*
X32210000Y44915000D01*
X32640000Y42820000D02*
X32680000Y42860000D01*
X32680000Y42860000D02*
X32680000Y43290000D01*
%TD*%
%TA.AperFunction,Conductor*%
%TO.N,GND*%
G36*
X27380231Y58144479D02*
G01*
X27393550Y58140568D01*
X27452328Y58102794D01*
X27481354Y58039239D01*
X27481356Y58039222D01*
X27481587Y58037614D01*
X27476031Y57979436D01*
X27474393Y57974702D01*
X27464596Y57953248D01*
X27402980Y57846528D01*
X27402954Y57846463D01*
X27402711Y57845524D01*
X27365463Y57706512D01*
X27365463Y57561562D01*
X27383838Y57492984D01*
X27402979Y57421551D01*
X27402981Y57421546D01*
X27473594Y57299242D01*
X27475452Y57296024D01*
X27577948Y57193528D01*
X27578637Y57193032D01*
X27581141Y57191684D01*
X27700032Y57123042D01*
X27703050Y57121168D01*
X27703477Y57121054D01*
X27703478Y57121053D01*
X27843488Y57083537D01*
X27843491Y57083537D01*
X27843595Y57083509D01*
X27862161Y57079587D01*
X27891056Y57071102D01*
X27943800Y57039807D01*
X28324087Y56659520D01*
X28415412Y56606793D01*
X28517273Y56579500D01*
X42062784Y56579500D01*
X42097716Y56574479D01*
X42122960Y56567066D01*
X42162594Y56543550D01*
X42163880Y56545333D01*
X42171982Y56539494D01*
X42171985Y56539491D01*
X42171986Y56539490D01*
X42171988Y56539489D01*
X42171990Y56539488D01*
X42172674Y56538995D01*
X42175178Y56537647D01*
X42294062Y56469009D01*
X42297513Y56467017D01*
X42297515Y56467016D01*
X42437525Y56429500D01*
X42437528Y56429500D01*
X42582472Y56429500D01*
X42582475Y56429500D01*
X42722485Y56467016D01*
X42848015Y56539491D01*
X42950509Y56641985D01*
X43022984Y56767515D01*
X43060500Y56907525D01*
X43060500Y57052475D01*
X43022984Y57192485D01*
X42963204Y57296026D01*
X42950511Y57318012D01*
X42950506Y57318018D01*
X42950502Y57318022D01*
X42950493Y57318032D01*
X42848030Y57420495D01*
X42848014Y57420510D01*
X42848006Y57420515D01*
X42794243Y57451555D01*
X42765808Y57481376D01*
X42711007Y57496061D01*
X42711007Y57496060D01*
X42646740Y57513280D01*
X42582475Y57530500D01*
X42582474Y57530500D01*
X42437525Y57530500D01*
X42308994Y57496061D01*
X42308993Y57496060D01*
X42301338Y57494009D01*
X42297510Y57492983D01*
X42171991Y57420515D01*
X42167631Y57417472D01*
X42167345Y57417882D01*
X42155511Y57409839D01*
X42129562Y57395669D01*
X42070133Y57380500D01*
X28805085Y57380500D01*
X28770149Y57385523D01*
X28744907Y57392935D01*
X28692162Y57424231D01*
X28515389Y57601004D01*
X28494237Y57629260D01*
X28481630Y57652349D01*
X28469787Y57698750D01*
X28467524Y57698452D01*
X28466463Y57706509D01*
X28466463Y57706510D01*
X28466463Y57706512D01*
X28428947Y57846522D01*
X28370322Y57948063D01*
X28357207Y57980823D01*
X28353935Y57994311D01*
X28357256Y58064099D01*
X28397777Y58121010D01*
X28399058Y58122018D01*
X28452267Y58146315D01*
X28457190Y58147264D01*
X28480635Y58149500D01*
X49985087Y58149500D01*
X50020023Y58144477D01*
X50035021Y58140073D01*
X50093772Y58102328D01*
X50094959Y58100959D01*
X50122435Y58046098D01*
X50124080Y58038540D01*
X50126917Y58012169D01*
X50126917Y50980117D01*
X50157441Y50906426D01*
X50213843Y50850024D01*
X50287535Y50819500D01*
X50287537Y50819500D01*
X72367297Y50819500D01*
X72367299Y50819500D01*
X72440991Y50850024D01*
X72497393Y50906426D01*
X72527917Y50980118D01*
X72527917Y55910228D01*
X76099500Y55910228D01*
X76099500Y55689774D01*
X76133985Y55472045D01*
X76202094Y55262421D01*
X76202102Y55262398D01*
X76202103Y55262396D01*
X76302187Y55065974D01*
X76419235Y54904871D01*
X76431752Y54887642D01*
X76431756Y54887637D01*
X76431761Y54887631D01*
X76587627Y54731765D01*
X76587636Y54731757D01*
X76587660Y54731739D01*
X76680204Y54664502D01*
X76680208Y54664500D01*
X76765978Y54602185D01*
X76889003Y54539500D01*
X76962393Y54502105D01*
X76962396Y54502104D01*
X77031966Y54479500D01*
X77172049Y54433985D01*
X77389778Y54399500D01*
X77389779Y54399500D01*
X77610221Y54399500D01*
X77610222Y54399500D01*
X77827951Y54433985D01*
X78037606Y54502105D01*
X78234022Y54602185D01*
X78412365Y54731758D01*
X78568242Y54887635D01*
X78697815Y55065978D01*
X78797895Y55262394D01*
X78866015Y55472049D01*
X78900500Y55689778D01*
X78900500Y55910222D01*
X78866015Y56127951D01*
X78797895Y56337606D01*
X78797895Y56337607D01*
X78751072Y56429500D01*
X78697815Y56534022D01*
X78697813Y56534025D01*
X78697813Y56534026D01*
X78679075Y56559816D01*
X78679074Y56559816D01*
X78568247Y56712359D01*
X78568243Y56712364D01*
X78568242Y56712365D01*
X78568235Y56712373D01*
X78412369Y56868239D01*
X78412364Y56868243D01*
X78412363Y56868244D01*
X78412358Y56868248D01*
X78398940Y56877997D01*
X78244630Y56990109D01*
X78244618Y56990117D01*
X78234025Y56997813D01*
X78234024Y56997814D01*
X78234022Y56997815D01*
X78227909Y57000930D01*
X78227898Y57000937D01*
X78171098Y57029877D01*
X78171096Y57029878D01*
X78037606Y57097896D01*
X78037602Y57097898D01*
X78037579Y57097906D01*
X77827954Y57166015D01*
X77827955Y57166015D01*
X77719086Y57183258D01*
X77610227Y57200500D01*
X77610222Y57200500D01*
X77389778Y57200500D01*
X77389774Y57200500D01*
X77334008Y57191667D01*
X77317201Y57189005D01*
X77172043Y57166015D01*
X76962419Y57097906D01*
X76962396Y57097898D01*
X76962392Y57097896D01*
X76765972Y56997813D01*
X76587658Y56868261D01*
X76587629Y56868239D01*
X76431761Y56712371D01*
X76431739Y56712342D01*
X76302187Y56534028D01*
X76202104Y56337608D01*
X76202102Y56337604D01*
X76202094Y56337581D01*
X76133985Y56127957D01*
X76099500Y55910228D01*
X72527917Y55910228D01*
X72527917Y58007671D01*
X72532940Y58042607D01*
X72537344Y58057605D01*
X72575089Y58116356D01*
X72576458Y58117543D01*
X72631337Y58145023D01*
X72638896Y58146667D01*
X72665249Y58149500D01*
X82047670Y58149500D01*
X82082606Y58144477D01*
X82097604Y58140073D01*
X82156355Y58102328D01*
X82157542Y58100959D01*
X82185018Y58046098D01*
X82186663Y58038540D01*
X82189500Y58012169D01*
X82189500Y-40307670D01*
X82184475Y-40342614D01*
X82180070Y-40357612D01*
X82142327Y-40416355D01*
X82140958Y-40417542D01*
X82086097Y-40445018D01*
X82078539Y-40446663D01*
X82052168Y-40449500D01*
X58764000Y-40449500D01*
X58696961Y-40429815D01*
X58651206Y-40377011D01*
X58640000Y-40325500D01*
X58640000Y-29950000D01*
X49514500Y-29950000D01*
X49447461Y-29930315D01*
X49401706Y-29877511D01*
X49390500Y-29826000D01*
X49390500Y-26355084D01*
X49395522Y-26320151D01*
X49402934Y-26294906D01*
X49434228Y-26242164D01*
X59973009Y-15703383D01*
X75689500Y-15703383D01*
X75689500Y-15703389D01*
X75689500Y-15876611D01*
X75716598Y-16047701D01*
X75770127Y-16212445D01*
X75848768Y-16366788D01*
X75950586Y-16506928D01*
X76073072Y-16629414D01*
X76213212Y-16731232D01*
X76367555Y-16809873D01*
X76532299Y-16863402D01*
X76703389Y-16890500D01*
X76703390Y-16890500D01*
X76876610Y-16890500D01*
X76876611Y-16890500D01*
X77047701Y-16863402D01*
X77212445Y-16809873D01*
X77366788Y-16731232D01*
X77506928Y-16629414D01*
X77629414Y-16506928D01*
X77731232Y-16366788D01*
X77809873Y-16212445D01*
X77863402Y-16047701D01*
X77890500Y-15876611D01*
X77890500Y-15703389D01*
X77863402Y-15532299D01*
X77809873Y-15367555D01*
X77731232Y-15213212D01*
X77629414Y-15073072D01*
X77506928Y-14950586D01*
X77366788Y-14848768D01*
X77212449Y-14770128D01*
X77061215Y-14720988D01*
X77061203Y-14720985D01*
X77047701Y-14716598D01*
X77047699Y-14716597D01*
X77047698Y-14716597D01*
X77033312Y-14714318D01*
X77033306Y-14714317D01*
X76943188Y-14700044D01*
X76916271Y-14695781D01*
X76900407Y-14693268D01*
X76876614Y-14689500D01*
X76876611Y-14689500D01*
X76703389Y-14689500D01*
X76703388Y-14689500D01*
X76663726Y-14695781D01*
X76663725Y-14695780D01*
X76532304Y-14716596D01*
X76367549Y-14770129D01*
X76213210Y-14848768D01*
X76133256Y-14906859D01*
X76133255Y-14906859D01*
X76084941Y-14941961D01*
X76077564Y-14946092D01*
X75946094Y-15077562D01*
X75941961Y-15084943D01*
X75913245Y-15124467D01*
X75848768Y-15213210D01*
X75770129Y-15367549D01*
X75716596Y-15532305D01*
X75689500Y-15703383D01*
X59973009Y-15703383D01*
X70511403Y-5164989D01*
X75908100Y-5164989D01*
X75908100Y-5338211D01*
X75935198Y-5509301D01*
X75988727Y-5674045D01*
X76067368Y-5828388D01*
X76169186Y-5968528D01*
X76291672Y-6091014D01*
X76431812Y-6192832D01*
X76586155Y-6271473D01*
X76750899Y-6325002D01*
X76921989Y-6352100D01*
X76921990Y-6352100D01*
X77095210Y-6352100D01*
X77095211Y-6352100D01*
X77266301Y-6325002D01*
X77431045Y-6271473D01*
X77585388Y-6192832D01*
X77725528Y-6091014D01*
X77848014Y-5968528D01*
X77949832Y-5828388D01*
X78028473Y-5674045D01*
X78082002Y-5509301D01*
X78109100Y-5338211D01*
X78109100Y-5164989D01*
X78082002Y-4993899D01*
X78028473Y-4829155D01*
X77949832Y-4674812D01*
X77848014Y-4534672D01*
X77725528Y-4412186D01*
X77585388Y-4310368D01*
X77431049Y-4231728D01*
X77279815Y-4182588D01*
X77279803Y-4182585D01*
X77266301Y-4178198D01*
X77266299Y-4178197D01*
X77266298Y-4178197D01*
X77251912Y-4175918D01*
X77251906Y-4175917D01*
X77161788Y-4161644D01*
X77134871Y-4157381D01*
X77119007Y-4154868D01*
X77095214Y-4151100D01*
X77095211Y-4151100D01*
X76921989Y-4151100D01*
X76921988Y-4151100D01*
X76882326Y-4157381D01*
X76882325Y-4157380D01*
X76750904Y-4178196D01*
X76586149Y-4231729D01*
X76431810Y-4310368D01*
X76351856Y-4368459D01*
X76351855Y-4368459D01*
X76303541Y-4403561D01*
X76296164Y-4407692D01*
X76164694Y-4539162D01*
X76160565Y-4546536D01*
X76150736Y-4560066D01*
X76150732Y-4560071D01*
X76067372Y-4674805D01*
X76067368Y-4674811D01*
X76067366Y-4674813D01*
X76067364Y-4674818D01*
X75988729Y-4829147D01*
X75935196Y-4993901D01*
X75935196Y-4993902D01*
X75911745Y-5141971D01*
X75911744Y-5141976D01*
X75910394Y-5150506D01*
X75908100Y-5164989D01*
X70511403Y-5164989D01*
X74005369Y-1671023D01*
X74033619Y-1649875D01*
X74056711Y-1637267D01*
X74116136Y-1622100D01*
X76236423Y-1622100D01*
X76271350Y-1627121D01*
X76282203Y-1630307D01*
X76340984Y-1668077D01*
X76370013Y-1731631D01*
X76360079Y-1800779D01*
X76358794Y-1803594D01*
X76318877Y-1852419D01*
X76311258Y-1857953D01*
X76311256Y-1857956D01*
X76307373Y-1860777D01*
X76291669Y-1872187D01*
X76164693Y-1999164D01*
X76160565Y-2006536D01*
X76150736Y-2020066D01*
X76150732Y-2020071D01*
X76067372Y-2134805D01*
X76067368Y-2134811D01*
X76067366Y-2134813D01*
X76067364Y-2134818D01*
X75988729Y-2289149D01*
X75988728Y-2289151D01*
X75988728Y-2289152D01*
X75966400Y-2357869D01*
X75935196Y-2453905D01*
X75908100Y-2624983D01*
X75908100Y-2798214D01*
X75930265Y-2938160D01*
X75935196Y-2969292D01*
X75935197Y-2969297D01*
X75935198Y-2969301D01*
X75988727Y-3134045D01*
X76067368Y-3288388D01*
X76169186Y-3428528D01*
X76291672Y-3551014D01*
X76431812Y-3652832D01*
X76586155Y-3731473D01*
X76750899Y-3785002D01*
X76921989Y-3812100D01*
X76921990Y-3812100D01*
X77095210Y-3812100D01*
X77095211Y-3812100D01*
X77266301Y-3785002D01*
X77431045Y-3731473D01*
X77585388Y-3652832D01*
X77725528Y-3551014D01*
X77848014Y-3428528D01*
X77949832Y-3288388D01*
X78028473Y-3134045D01*
X78082002Y-2969301D01*
X78109100Y-2798211D01*
X78109100Y-2624989D01*
X78082002Y-2453899D01*
X78028473Y-2289155D01*
X77949832Y-2134812D01*
X77848014Y-1994672D01*
X77725528Y-1872186D01*
X77625277Y-1799349D01*
X77599969Y-1774753D01*
X77591493Y-1763761D01*
X77566144Y-1698652D01*
X77580011Y-1630190D01*
X77582229Y-1625985D01*
X77629907Y-1576449D01*
X77689438Y-1542080D01*
X79530480Y298962D01*
X79583207Y390287D01*
X79610500Y492148D01*
X79610500Y597602D01*
X79610500Y10302785D01*
X79615523Y10337719D01*
X79622009Y10359809D01*
X79659782Y10418587D01*
X79677348Y10431300D01*
X79681630Y10433859D01*
X79681631Y10433861D01*
X79683839Y10435180D01*
X79751479Y10452688D01*
X79808168Y10436882D01*
X79813614Y10433825D01*
X79851293Y10401184D01*
X79852078Y10400161D01*
X79853266Y10398501D01*
X79854590Y10396886D01*
X79854591Y10396885D01*
X79957085Y10294391D01*
X79957086Y10294390D01*
X79957088Y10294389D01*
X80079169Y10223905D01*
X80082187Y10222031D01*
X80082614Y10221917D01*
X80082615Y10221916D01*
X80222625Y10184400D01*
X80222628Y10184400D01*
X80367572Y10184400D01*
X80367575Y10184400D01*
X80507585Y10221916D01*
X80633115Y10294391D01*
X80735609Y10396885D01*
X80808084Y10522415D01*
X80845600Y10662425D01*
X80845600Y10807375D01*
X80808084Y10947385D01*
X80804851Y10952984D01*
X80735611Y11072912D01*
X80735606Y11072918D01*
X80733001Y11075523D01*
X80726802Y11086096D01*
X80726583Y11086971D01*
X80724941Y11089384D01*
X80710766Y11115344D01*
X80695600Y11174768D01*
X80695600Y14487622D01*
X80695600Y14487624D01*
X80695599Y14487631D01*
X80695594Y14487648D01*
X80695233Y14489416D01*
X80693778Y14498078D01*
X80691559Y14514935D01*
X80690500Y14531109D01*
X80690500Y26562726D01*
X80690500Y26562727D01*
X80663207Y26664587D01*
X80663207Y26664588D01*
X80610480Y26755913D01*
X78095913Y29270480D01*
X78076609Y29281626D01*
X78050249Y29296845D01*
X78050249Y29296846D01*
X78004592Y29323206D01*
X78004589Y29323207D01*
X77966743Y29333348D01*
X77966742Y29333349D01*
X77914232Y29347418D01*
X77881784Y29361314D01*
X77869934Y29368537D01*
X77822939Y29420240D01*
X77811348Y29489079D01*
X77811542Y29490700D01*
X77831988Y29545542D01*
X77834797Y29549692D01*
X77845094Y29562158D01*
X77844849Y29562367D01*
X77848008Y29566067D01*
X77848014Y29566072D01*
X77949832Y29706212D01*
X78028473Y29860555D01*
X78082002Y30025299D01*
X78109100Y30196389D01*
X78109100Y30369611D01*
X78082002Y30540701D01*
X78028473Y30705445D01*
X77949832Y30859788D01*
X77848014Y30999928D01*
X77725528Y31122414D01*
X77585388Y31224232D01*
X77431049Y31302872D01*
X77279815Y31352012D01*
X77279803Y31352015D01*
X77266301Y31356402D01*
X77266299Y31356403D01*
X77266298Y31356403D01*
X77251912Y31358682D01*
X77251906Y31358683D01*
X77161788Y31372956D01*
X77134871Y31377219D01*
X77119007Y31379732D01*
X77095214Y31383500D01*
X77095211Y31383500D01*
X76921989Y31383500D01*
X76921988Y31383500D01*
X76882326Y31377219D01*
X76882325Y31377220D01*
X76750904Y31356404D01*
X76586149Y31302871D01*
X76431810Y31224232D01*
X76351856Y31166141D01*
X76351855Y31166141D01*
X76303541Y31131039D01*
X76296164Y31126908D01*
X76164693Y30995437D01*
X76160561Y30988058D01*
X76135895Y30954108D01*
X76135895Y30954107D01*
X76067368Y30859790D01*
X75988729Y30705451D01*
X75935196Y30540695D01*
X75908100Y30369617D01*
X75908100Y30196388D01*
X75933704Y30034728D01*
X75934061Y30032473D01*
X75935198Y30025299D01*
X75988727Y29860555D01*
X76067368Y29706212D01*
X76169186Y29566072D01*
X76169188Y29566070D01*
X76171605Y29562744D01*
X76180115Y29549292D01*
X76187042Y29536607D01*
X76201893Y29468334D01*
X76177475Y29402870D01*
X76121543Y29360999D01*
X76114355Y29358318D01*
X76071021Y29350500D01*
X70600085Y29350500D01*
X70565149Y29355523D01*
X70539907Y29362935D01*
X70487162Y29394231D01*
X70199426Y29681967D01*
X70178274Y29710223D01*
X70165667Y29733312D01*
X70153824Y29779713D01*
X70151561Y29779415D01*
X70150500Y29787472D01*
X70150500Y29787473D01*
X70150500Y29787475D01*
X70112984Y29927485D01*
X70107343Y29937255D01*
X70051066Y30034730D01*
X70040513Y30053009D01*
X70040508Y30053016D01*
X70040493Y30053032D01*
X69938030Y30155495D01*
X69938014Y30155510D01*
X69938006Y30155515D01*
X69884243Y30186555D01*
X69855808Y30216376D01*
X69801007Y30231061D01*
X69801007Y30231060D01*
X69714113Y30254343D01*
X69672475Y30265500D01*
X69672474Y30265500D01*
X69527525Y30265500D01*
X69398994Y30231061D01*
X69398993Y30231060D01*
X69391338Y30229009D01*
X69387510Y30227983D01*
X69261995Y30155517D01*
X69261974Y30155502D01*
X69240666Y30134193D01*
X69212408Y30113040D01*
X69198690Y30105550D01*
X69130437Y30090699D01*
X69128630Y30090828D01*
X69070424Y30110196D01*
X69063910Y30114382D01*
X69043273Y30131013D01*
X67147312Y32026974D01*
X67136620Y32039165D01*
X67126806Y32051954D01*
X67117792Y32065444D01*
X67117225Y32066426D01*
X67075480Y32138731D01*
X65203989Y34010222D01*
X76099500Y34010222D01*
X76099500Y33789778D01*
X76099675Y33788673D01*
X76099675Y33788667D01*
X76115383Y33689494D01*
X76133985Y33572045D01*
X76202094Y33362421D01*
X76202102Y33362398D01*
X76202104Y33362394D01*
X76302187Y33165974D01*
X76341694Y33111597D01*
X76431752Y32987642D01*
X76431756Y32987637D01*
X76431761Y32987631D01*
X76587629Y32831763D01*
X76587632Y32831761D01*
X76587636Y32831757D01*
X76587641Y32831753D01*
X76676099Y32767486D01*
X76707172Y32744909D01*
X76707176Y32744907D01*
X76712461Y32741067D01*
X76765978Y32702185D01*
X76894375Y32636763D01*
X76962393Y32602105D01*
X76962396Y32602104D01*
X76962433Y32602092D01*
X76962468Y32602080D01*
X77067221Y32568045D01*
X77172049Y32533985D01*
X77389778Y32499500D01*
X77389779Y32499500D01*
X77610221Y32499500D01*
X77610222Y32499500D01*
X77827951Y32533985D01*
X78037606Y32602105D01*
X78234022Y32702185D01*
X78412365Y32831758D01*
X78568242Y32987635D01*
X78697815Y33165978D01*
X78797895Y33362394D01*
X78866015Y33572049D01*
X78900500Y33789778D01*
X78900500Y34010222D01*
X78866015Y34227951D01*
X78797895Y34437606D01*
X78797895Y34437607D01*
X78759468Y34513023D01*
X78697815Y34634022D01*
X78653378Y34695185D01*
X78568247Y34812359D01*
X78568243Y34812364D01*
X78568240Y34812367D01*
X78568237Y34812371D01*
X78412369Y34968239D01*
X78412364Y34968243D01*
X78412363Y34968244D01*
X78412358Y34968248D01*
X78402616Y34975326D01*
X78244625Y35090113D01*
X78244609Y35090124D01*
X78234025Y35097813D01*
X78234024Y35097814D01*
X78234022Y35097815D01*
X78227942Y35100913D01*
X78227939Y35100915D01*
X78170728Y35130065D01*
X78170728Y35130066D01*
X78170726Y35130066D01*
X78037606Y35197896D01*
X78037530Y35197922D01*
X77827954Y35266015D01*
X77827955Y35266015D01*
X77719086Y35283258D01*
X77610227Y35300500D01*
X77610222Y35300500D01*
X77389778Y35300500D01*
X77389774Y35300500D01*
X77331716Y35291304D01*
X77317201Y35289005D01*
X77172043Y35266015D01*
X76962419Y35197906D01*
X76962396Y35197898D01*
X76962392Y35197896D01*
X76765972Y35097813D01*
X76587658Y34968261D01*
X76587629Y34968239D01*
X76431761Y34812371D01*
X76431739Y34812342D01*
X76302187Y34634028D01*
X76202104Y34437608D01*
X76202102Y34437604D01*
X76202094Y34437581D01*
X76133985Y34227957D01*
X76108486Y34066957D01*
X76106992Y34057525D01*
X76099500Y34010222D01*
X65203989Y34010222D01*
X62133731Y37080480D01*
X62121546Y37087515D01*
X62088068Y37106845D01*
X62088068Y37106844D01*
X62042407Y37133207D01*
X61991475Y37146854D01*
X61991474Y37146855D01*
X61940548Y37160500D01*
X61940545Y37160500D01*
X61940544Y37160500D01*
X61458910Y37160500D01*
X61423972Y37165524D01*
X61405917Y37170826D01*
X61351113Y37204231D01*
X61343646Y37212062D01*
X61335015Y37222144D01*
X61330512Y37228012D01*
X61228013Y37330511D01*
X61227321Y37331010D01*
X61224802Y37332365D01*
X61174243Y37361555D01*
X61145808Y37391376D01*
X61091007Y37406061D01*
X61091007Y37406060D01*
X61026740Y37423280D01*
X60962475Y37440500D01*
X60962474Y37440500D01*
X60817525Y37440500D01*
X60688994Y37406061D01*
X60688993Y37406060D01*
X60681338Y37404009D01*
X60677510Y37402983D01*
X60551991Y37330515D01*
X60551984Y37330510D01*
X60551968Y37330495D01*
X60449505Y37228032D01*
X60449490Y37228016D01*
X60449485Y37228008D01*
X60377017Y37102491D01*
X60376989Y37102422D01*
X60376748Y37101489D01*
X60339500Y36962475D01*
X60339500Y36817525D01*
X60376323Y36680103D01*
X60377017Y36677512D01*
X60448495Y36553709D01*
X60449327Y36552170D01*
X60449330Y36552154D01*
X60449353Y36552123D01*
X60551985Y36449491D01*
X60552674Y36448995D01*
X60555178Y36447647D01*
X60674069Y36379005D01*
X60677087Y36377131D01*
X60677514Y36377017D01*
X60677515Y36377016D01*
X60817525Y36339500D01*
X60817528Y36339500D01*
X60962473Y36339500D01*
X60962475Y36339500D01*
X61013490Y36353171D01*
X61029400Y36356335D01*
X61045383Y36358439D01*
X61061567Y36359500D01*
X61652733Y36359500D01*
X61687665Y36354479D01*
X61712909Y36347066D01*
X61765655Y36315770D01*
X65785805Y32295620D01*
X65806957Y32267364D01*
X65814449Y32253643D01*
X65829301Y32185383D01*
X65829172Y32183577D01*
X65809803Y32125373D01*
X65805620Y32118864D01*
X65788985Y32098222D01*
X65724482Y32033720D01*
X65724470Y32033702D01*
X65645430Y31896800D01*
X65645425Y31896790D01*
X65645424Y31896789D01*
X65645422Y31896782D01*
X65614159Y31780104D01*
X65604500Y31744057D01*
X65604500Y31585943D01*
X65613223Y31553389D01*
X65626391Y31504247D01*
X65645423Y31433216D01*
X65645424Y31433213D01*
X65645425Y31433212D01*
X65645428Y31433207D01*
X65721623Y31301229D01*
X65721638Y31301205D01*
X65724475Y31296291D01*
X65724479Y31296286D01*
X65724480Y31296284D01*
X65725049Y31295715D01*
X65836287Y31184477D01*
X65836967Y31183987D01*
X65839461Y31182645D01*
X65927392Y31131879D01*
X65973216Y31105423D01*
X66125943Y31064500D01*
X66169915Y31064500D01*
X66204847Y31059479D01*
X66230091Y31052066D01*
X66282837Y31020770D01*
X66300573Y31003034D01*
X66321723Y30974782D01*
X66334331Y30951693D01*
X66349500Y30892264D01*
X66349500Y29667273D01*
X66376793Y29565411D01*
X66402656Y29520617D01*
X66402657Y29520614D01*
X66429515Y29474094D01*
X66429521Y29474086D01*
X69330573Y26573034D01*
X69351723Y26544782D01*
X69364331Y26521693D01*
X69379500Y26462264D01*
X69379500Y20580872D01*
X69374476Y20545932D01*
X69369174Y20527878D01*
X69335771Y20473078D01*
X69328232Y20465889D01*
X69304660Y20448242D01*
X69221982Y20400508D01*
X69221976Y20400503D01*
X69119505Y20298032D01*
X69119490Y20298016D01*
X69119485Y20298008D01*
X69047017Y20172491D01*
X69046989Y20172422D01*
X69046748Y20171489D01*
X69009500Y20032475D01*
X69009500Y19887525D01*
X69015455Y19865302D01*
X69015455Y19865299D01*
X69015456Y19865299D01*
X69042313Y19765066D01*
X69047018Y19747509D01*
X69117631Y19625205D01*
X69119489Y19621987D01*
X69221985Y19519491D01*
X69222674Y19518995D01*
X69225178Y19517647D01*
X69344069Y19449005D01*
X69347087Y19447131D01*
X69347514Y19447017D01*
X69347515Y19447016D01*
X69487525Y19409500D01*
X69487528Y19409500D01*
X69632472Y19409500D01*
X69632475Y19409500D01*
X69772485Y19447016D01*
X69898015Y19519491D01*
X70000509Y19621985D01*
X70072984Y19747515D01*
X70110500Y19887525D01*
X70110500Y19901892D01*
X70114725Y19933985D01*
X70122888Y19964450D01*
X70135274Y19994353D01*
X70153207Y20025412D01*
X70180500Y20127273D01*
X70180500Y20232727D01*
X70180500Y24765916D01*
X70185521Y24800843D01*
X70188707Y24811696D01*
X70226477Y24870477D01*
X70290031Y24899506D01*
X70359186Y24889568D01*
X70366172Y24886378D01*
X70402342Y24861265D01*
X72717573Y22546034D01*
X72738723Y22517782D01*
X72751331Y22494693D01*
X72766500Y22435264D01*
X72766500Y21772085D01*
X72761476Y21737148D01*
X72754064Y21711907D01*
X72722769Y21659163D01*
X70753033Y19689427D01*
X70724782Y19668278D01*
X70701694Y19655670D01*
X70655287Y19643825D01*
X70655585Y19641561D01*
X70647525Y19640500D01*
X70518994Y19606061D01*
X70518993Y19606060D01*
X70511338Y19604009D01*
X70507510Y19602983D01*
X70381991Y19530515D01*
X70381984Y19530510D01*
X70381968Y19530495D01*
X70279505Y19428032D01*
X70279490Y19428016D01*
X70279485Y19428008D01*
X70207017Y19302491D01*
X70206989Y19302422D01*
X70206748Y19301489D01*
X70173549Y19177587D01*
X70169500Y19162475D01*
X70169500Y19017525D01*
X70176628Y18990923D01*
X70207013Y18877523D01*
X70207017Y18877512D01*
X70207018Y18877511D01*
X70277631Y18755205D01*
X70279489Y18751987D01*
X70381985Y18649491D01*
X70382674Y18648995D01*
X70385178Y18647647D01*
X70504069Y18579005D01*
X70507087Y18577131D01*
X70507514Y18577017D01*
X70507515Y18577016D01*
X70647525Y18539500D01*
X70647528Y18539500D01*
X70792472Y18539500D01*
X70792475Y18539500D01*
X70932485Y18577016D01*
X71058015Y18649491D01*
X71160509Y18751985D01*
X71232984Y18877515D01*
X71270500Y19017525D01*
X71270500Y19017530D01*
X71270524Y19017619D01*
X71274453Y19036209D01*
X71282934Y19065093D01*
X71314228Y19117838D01*
X73395469Y21199080D01*
X73395476Y21199084D01*
X73412912Y21216520D01*
X73412913Y21216520D01*
X73487480Y21291087D01*
X73540207Y21382413D01*
X73555664Y21440099D01*
X73567501Y21484273D01*
X73567501Y21589727D01*
X73567500Y21589731D01*
X73567500Y22120671D01*
X73572523Y22155607D01*
X73576927Y22170605D01*
X73614672Y22229356D01*
X73616041Y22230543D01*
X73670920Y22258023D01*
X73678479Y22259667D01*
X73704832Y22262500D01*
X75724514Y22262500D01*
X75759441Y22257479D01*
X75770294Y22254293D01*
X75829075Y22216523D01*
X75858104Y22152969D01*
X75848165Y22083810D01*
X75848164Y22083808D01*
X75844979Y22076833D01*
X75819863Y22040658D01*
X75629526Y21850322D01*
X75629521Y21850316D01*
X75629511Y21850300D01*
X75576794Y21758994D01*
X75576792Y21758990D01*
X75575530Y21754274D01*
X75575525Y21754255D01*
X75561763Y21702894D01*
X75549500Y21657129D01*
X75549500Y14585085D01*
X75544476Y14550148D01*
X75537064Y14524907D01*
X75505769Y14472163D01*
X74629524Y13595920D01*
X74629522Y13595918D01*
X74629511Y13595900D01*
X74571353Y13495169D01*
X74570409Y13480763D01*
X74549500Y13402729D01*
X74549500Y4955085D01*
X74544476Y4920148D01*
X74537064Y4894907D01*
X74505769Y4842163D01*
X73845637Y4182032D01*
X73817384Y4160881D01*
X73805202Y4154229D01*
X73736929Y4139377D01*
X73671466Y4163793D01*
X73664654Y4168892D01*
X73635575Y4201658D01*
X73635457Y4201567D01*
X73634186Y4203224D01*
X73631579Y4206161D01*
X73630508Y4208016D01*
X73628009Y4210515D01*
X73528015Y4310509D01*
X73528013Y4310510D01*
X73528011Y4310512D01*
X73528009Y4310514D01*
X73527321Y4311010D01*
X73524802Y4312365D01*
X73474242Y4341556D01*
X73445809Y4371375D01*
X73402488Y4382983D01*
X73402489Y4382983D01*
X73378854Y4389316D01*
X73378854Y4389317D01*
X73287068Y4413911D01*
X73262475Y4420500D01*
X73262474Y4420500D01*
X73117525Y4420500D01*
X73001145Y4389316D01*
X73001144Y4389317D01*
X72977510Y4382983D01*
X72977507Y4382982D01*
X72851992Y4310515D01*
X72847631Y4307472D01*
X72847345Y4307882D01*
X72835511Y4299839D01*
X72809562Y4285669D01*
X72750133Y4270500D01*
X72359503Y4270500D01*
X72335311Y4272883D01*
X72311718Y4277576D01*
X72296047Y4281775D01*
X72292479Y4282987D01*
X72257483Y4292363D01*
X72199565Y4307882D01*
X72152475Y4320500D01*
X72152474Y4320500D01*
X72007525Y4320500D01*
X71878994Y4286061D01*
X71878993Y4286060D01*
X71871338Y4284009D01*
X71867510Y4282983D01*
X71741991Y4210515D01*
X71741984Y4210510D01*
X71741968Y4210495D01*
X71639505Y4108032D01*
X71639490Y4108016D01*
X71639485Y4108008D01*
X71567017Y3982491D01*
X71566990Y3982425D01*
X71566745Y3981477D01*
X71560437Y3957937D01*
X71546544Y3925495D01*
X71539321Y3913645D01*
X71487621Y3866646D01*
X71418718Y3855060D01*
X71417087Y3855255D01*
X71362322Y3875687D01*
X71358169Y3878498D01*
X71339994Y3893506D01*
X71259426Y3974074D01*
X71238274Y4002330D01*
X71225667Y4025419D01*
X71210500Y4084844D01*
X71210500Y8072785D01*
X71215522Y8107718D01*
X71222934Y8132963D01*
X71247376Y8174147D01*
X71245562Y8175539D01*
X71250504Y8181981D01*
X71250509Y8181985D01*
X71322984Y8307515D01*
X71360500Y8447525D01*
X71360500Y8592475D01*
X71322984Y8732485D01*
X71250509Y8858015D01*
X71148015Y8960509D01*
X71148013Y8960511D01*
X71147321Y8961010D01*
X71144802Y8962365D01*
X71094243Y8991555D01*
X71065808Y9021376D01*
X71011007Y9036061D01*
X71011007Y9036060D01*
X70923527Y9059500D01*
X70882475Y9070500D01*
X70882474Y9070500D01*
X70737525Y9070500D01*
X70608994Y9036061D01*
X70608993Y9036060D01*
X70601338Y9034009D01*
X70597510Y9032983D01*
X70471991Y8960515D01*
X70471984Y8960510D01*
X70471968Y8960495D01*
X70369505Y8858032D01*
X70369490Y8858016D01*
X70369485Y8858008D01*
X70297017Y8732491D01*
X70296989Y8732422D01*
X70296748Y8731489D01*
X70259500Y8592475D01*
X70259500Y8471192D01*
X70254476Y8436254D01*
X70251289Y8425401D01*
X70213514Y8366624D01*
X70149957Y8337601D01*
X70080807Y8347542D01*
X70073829Y8350729D01*
X70037657Y8375843D01*
X66163022Y12250478D01*
X66163020Y12250480D01*
X66152226Y12256712D01*
X66117357Y12276845D01*
X66117357Y12276844D01*
X66071696Y12303207D01*
X66020764Y12316854D01*
X66020763Y12316855D01*
X65969837Y12330500D01*
X65969834Y12330500D01*
X33652727Y12330500D01*
X33547273Y12330500D01*
X33547271Y12330500D01*
X33445411Y12303208D01*
X33445408Y12303207D01*
X33354097Y12250487D01*
X33354083Y12250478D01*
X33354078Y12250474D01*
X29484699Y8381095D01*
X29456443Y8359943D01*
X29442722Y8352451D01*
X29374454Y8337600D01*
X29367880Y8338070D01*
X29303836Y8361437D01*
X29299991Y8364231D01*
X29299984Y8364235D01*
X29167489Y8431744D01*
X29167479Y8431748D01*
X29145647Y8442872D01*
X29145646Y8442873D01*
X29145645Y8442873D01*
X29122335Y8450447D01*
X28989732Y8493533D01*
X28985210Y8495386D01*
X28976020Y8497556D01*
X28971257Y8497930D01*
X28960713Y8499600D01*
X28849471Y8517219D01*
X28833607Y8519732D01*
X28809814Y8523500D01*
X28809811Y8523500D01*
X28636589Y8523500D01*
X28636588Y8523500D01*
X28596926Y8517219D01*
X28596925Y8517220D01*
X28465504Y8496404D01*
X28300749Y8442871D01*
X28146418Y8364236D01*
X28146405Y8364228D01*
X28068347Y8307515D01*
X28026037Y8276776D01*
X28026030Y8276770D01*
X28006272Y8262414D01*
X28006270Y8262412D01*
X28006269Y8262412D01*
X27883788Y8139931D01*
X27883788Y8139930D01*
X27883786Y8139928D01*
X27869430Y8120170D01*
X27869424Y8120163D01*
X27847957Y8090615D01*
X27847957Y8090614D01*
X27781968Y7999790D01*
X27703329Y7845451D01*
X27649796Y7680695D01*
X27622700Y7509617D01*
X27622700Y7336386D01*
X27644733Y7197274D01*
X27649796Y7165307D01*
X27649797Y7165303D01*
X27649798Y7165299D01*
X27703327Y7000555D01*
X27781968Y6846212D01*
X27883786Y6706072D01*
X28006272Y6583586D01*
X28146412Y6481768D01*
X28300755Y6403127D01*
X28465499Y6349598D01*
X28636589Y6322500D01*
X28636590Y6322500D01*
X28809810Y6322500D01*
X28809811Y6322500D01*
X28980901Y6349598D01*
X29145645Y6403127D01*
X29299988Y6481768D01*
X29440128Y6583586D01*
X29562614Y6706072D01*
X29664432Y6846212D01*
X29743073Y7000555D01*
X29796602Y7165299D01*
X29796604Y7165307D01*
X29818677Y7304678D01*
X29823700Y7336389D01*
X29823700Y7509611D01*
X29823700Y7512034D01*
X29824721Y7527913D01*
X29828099Y7554052D01*
X29848722Y7608157D01*
X29851246Y7611849D01*
X29865910Y7629520D01*
X29928865Y7692475D01*
X33319500Y7692475D01*
X33319500Y7547525D01*
X33329659Y7509611D01*
X33329660Y7509610D01*
X33329660Y7509609D01*
X33357018Y7407509D01*
X33429485Y7281994D01*
X33432528Y7277632D01*
X33432116Y7277345D01*
X33440160Y7265513D01*
X33454843Y7238623D01*
X33469301Y7192448D01*
X33470517Y7181133D01*
X33475312Y7174388D01*
X33477856Y7166084D01*
X33478048Y7165369D01*
X33478066Y7165303D01*
X33496793Y7095411D01*
X33523156Y7049750D01*
X33549520Y7004087D01*
X38214087Y2339520D01*
X38305412Y2286793D01*
X38407273Y2259500D01*
X50517236Y2259500D01*
X50552172Y2254477D01*
X50567170Y2250073D01*
X50625944Y2212302D01*
X50631750Y2205602D01*
X50657814Y2156491D01*
X50687010Y2047535D01*
X50687012Y2047526D01*
X50687017Y2047512D01*
X50687018Y2047511D01*
X50757631Y1925205D01*
X50759489Y1921987D01*
X50861985Y1819491D01*
X50862674Y1818995D01*
X50865178Y1817647D01*
X50984069Y1749005D01*
X50987087Y1747131D01*
X50987514Y1747017D01*
X50987515Y1747016D01*
X51127525Y1709500D01*
X51127528Y1709500D01*
X51272472Y1709500D01*
X51272475Y1709500D01*
X51412485Y1747016D01*
X51538015Y1819491D01*
X51640509Y1921985D01*
X51712984Y2047515D01*
X51750500Y2187525D01*
X51750500Y2332475D01*
X51712984Y2472485D01*
X51640509Y2598015D01*
X51538015Y2700509D01*
X51538013Y2700511D01*
X51537321Y2701010D01*
X51534802Y2702365D01*
X51484243Y2731555D01*
X51455808Y2761376D01*
X51401007Y2776061D01*
X51401007Y2776060D01*
X51345806Y2790851D01*
X51272475Y2810500D01*
X51272474Y2810500D01*
X51272384Y2810524D01*
X51253793Y2814453D01*
X51224907Y2822935D01*
X51172162Y2854231D01*
X51045915Y2980478D01*
X51045913Y2980480D01*
X51035119Y2986712D01*
X51000250Y3006845D01*
X51000250Y3006844D01*
X50954589Y3033207D01*
X50903657Y3046854D01*
X50903656Y3046855D01*
X50852730Y3060500D01*
X50852727Y3060500D01*
X50852726Y3060500D01*
X38695085Y3060500D01*
X38660149Y3065523D01*
X38634907Y3072935D01*
X38582162Y3104231D01*
X36063918Y5622475D01*
X45809500Y5622475D01*
X45809500Y5477525D01*
X45814253Y5459788D01*
X45847013Y5337523D01*
X45847016Y5337515D01*
X45847017Y5337512D01*
X45865529Y5305448D01*
X45917631Y5215205D01*
X45919489Y5211987D01*
X46021985Y5109491D01*
X46022674Y5108995D01*
X46025178Y5107647D01*
X46144069Y5039005D01*
X46147087Y5037131D01*
X46147514Y5037017D01*
X46147515Y5037016D01*
X46287525Y4999500D01*
X46287528Y4999500D01*
X46432472Y4999500D01*
X46432475Y4999500D01*
X46572485Y5037016D01*
X46698015Y5109491D01*
X46698015Y5109492D01*
X46698101Y5109541D01*
X46714008Y5119900D01*
X46740444Y5134335D01*
X46799867Y5149500D01*
X55424915Y5149500D01*
X55459847Y5144479D01*
X55485091Y5137066D01*
X55537837Y5105770D01*
X59710573Y933034D01*
X59731723Y904782D01*
X59744331Y881693D01*
X59756176Y835287D01*
X59758439Y835584D01*
X59759499Y827528D01*
X59794834Y695660D01*
X59794834Y695659D01*
X59797016Y687513D01*
X59867631Y565205D01*
X59869489Y561987D01*
X59971985Y459491D01*
X59972674Y458995D01*
X59975178Y457647D01*
X60094069Y389005D01*
X60097087Y387131D01*
X60097514Y387017D01*
X60097515Y387016D01*
X60237525Y349500D01*
X60237528Y349500D01*
X60382472Y349500D01*
X60382475Y349500D01*
X60522485Y387016D01*
X60648015Y459491D01*
X60750509Y561985D01*
X60822984Y687515D01*
X60860500Y827525D01*
X60860500Y972475D01*
X60822984Y1112485D01*
X60818352Y1120507D01*
X60773106Y1198876D01*
X60750513Y1238009D01*
X60750508Y1238016D01*
X60750493Y1238032D01*
X60648030Y1340495D01*
X60648014Y1340510D01*
X60648006Y1340515D01*
X60594243Y1371555D01*
X60565808Y1401376D01*
X60511007Y1416061D01*
X60511007Y1416060D01*
X60458105Y1430235D01*
X60382475Y1450500D01*
X60382474Y1450500D01*
X60382384Y1450524D01*
X60363793Y1454453D01*
X60334907Y1462935D01*
X60282162Y1494231D01*
X55905915Y5870478D01*
X55905913Y5870480D01*
X55875540Y5888016D01*
X55858357Y5897937D01*
X55858355Y5897938D01*
X55849807Y5902873D01*
X55814589Y5923207D01*
X55745551Y5941705D01*
X55739386Y5943357D01*
X55739378Y5943360D01*
X55712728Y5950500D01*
X55712727Y5950500D01*
X55712726Y5950500D01*
X46807216Y5950500D01*
X46772280Y5955523D01*
X46746796Y5963006D01*
X46702642Y5987866D01*
X46702368Y5987472D01*
X46700326Y5988897D01*
X46700172Y5988711D01*
X46698152Y5990394D01*
X46698124Y5990410D01*
X46698014Y5990510D01*
X46698006Y5990515D01*
X46644243Y6021555D01*
X46615808Y6051376D01*
X46561007Y6066061D01*
X46561007Y6066060D01*
X46496740Y6083280D01*
X46432475Y6100500D01*
X46432474Y6100500D01*
X46287525Y6100500D01*
X46158994Y6066061D01*
X46158993Y6066060D01*
X46151338Y6064009D01*
X46147510Y6062983D01*
X46021991Y5990515D01*
X46021984Y5990510D01*
X46021968Y5990495D01*
X45919505Y5888032D01*
X45919490Y5888016D01*
X45919485Y5888008D01*
X45847017Y5762491D01*
X45846989Y5762422D01*
X45846748Y5761489D01*
X45810265Y5625331D01*
X45809500Y5622475D01*
X36063918Y5622475D01*
X34423685Y7262708D01*
X34402538Y7290954D01*
X34395041Y7304683D01*
X34380189Y7372949D01*
X34381700Y7394074D01*
X34385605Y7417300D01*
X34420500Y7547525D01*
X34420500Y7692475D01*
X34382984Y7832485D01*
X34360833Y7870851D01*
X34310511Y7958012D01*
X34310506Y7958018D01*
X34208013Y8060511D01*
X34207321Y8061010D01*
X34204802Y8062365D01*
X34154242Y8091556D01*
X34125808Y8121376D01*
X34056562Y8139930D01*
X34056561Y8139931D01*
X33973044Y8162309D01*
X33942475Y8170500D01*
X33942474Y8170500D01*
X33797525Y8170500D01*
X33683437Y8139930D01*
X33683436Y8139931D01*
X33657515Y8132985D01*
X33657508Y8132982D01*
X33531992Y8060515D01*
X33531984Y8060510D01*
X33531968Y8060495D01*
X33429505Y7958032D01*
X33429490Y7958016D01*
X33429485Y7958008D01*
X33358287Y7834692D01*
X33358286Y7834688D01*
X33357017Y7832489D01*
X33357016Y7832485D01*
X33319500Y7692475D01*
X29928865Y7692475D01*
X31778866Y9542475D01*
X44159500Y9542475D01*
X44159500Y9397525D01*
X44169671Y9359567D01*
X44197013Y9257523D01*
X44197016Y9257515D01*
X44197017Y9257512D01*
X44203623Y9246070D01*
X44267631Y9135205D01*
X44269489Y9131987D01*
X44371985Y9029491D01*
X44372674Y9028995D01*
X44375178Y9027647D01*
X44494069Y8959005D01*
X44497087Y8957131D01*
X44497514Y8957017D01*
X44497515Y8957016D01*
X44637525Y8919500D01*
X44637528Y8919500D01*
X44782472Y8919500D01*
X44782475Y8919500D01*
X44922485Y8957016D01*
X45048015Y9029491D01*
X45048016Y9029494D01*
X45051096Y9031271D01*
X45068383Y9039541D01*
X45098429Y9051157D01*
X45143143Y9059500D01*
X60232725Y9059500D01*
X60232727Y9059500D01*
X60334588Y9086793D01*
X60425913Y9139520D01*
X61126969Y9840577D01*
X61155219Y9861725D01*
X61178311Y9874333D01*
X61224712Y9886177D01*
X61224415Y9888439D01*
X61232471Y9889500D01*
X61232472Y9889500D01*
X61232475Y9889500D01*
X61372485Y9927016D01*
X61498015Y9999491D01*
X61600509Y10101985D01*
X61672984Y10227515D01*
X61710500Y10367525D01*
X61710500Y10512475D01*
X61672984Y10652485D01*
X61667243Y10662428D01*
X61663994Y10668056D01*
X61600516Y10778004D01*
X61600508Y10778016D01*
X61600493Y10778032D01*
X61498030Y10880495D01*
X61498014Y10880510D01*
X61498011Y10880512D01*
X61444241Y10911556D01*
X61415807Y10941377D01*
X61337028Y10962485D01*
X61281950Y10977243D01*
X61232475Y10990500D01*
X61232474Y10990500D01*
X61087525Y10990500D01*
X60982972Y10962485D01*
X60982971Y10962486D01*
X60947512Y10952984D01*
X60947507Y10952982D01*
X60821992Y10880515D01*
X60821984Y10880510D01*
X60821968Y10880495D01*
X60719505Y10778032D01*
X60719490Y10778016D01*
X60719485Y10778008D01*
X60647017Y10652491D01*
X60646998Y10652445D01*
X60646956Y10652277D01*
X60646797Y10651671D01*
X60609500Y10512475D01*
X60609500Y10512473D01*
X60609500Y10508720D01*
X60606553Y10497425D01*
X60606184Y10496812D01*
X60605547Y10493794D01*
X60597065Y10464908D01*
X60565769Y10412163D01*
X60063033Y9909427D01*
X60034782Y9888278D01*
X60011694Y9875670D01*
X59952264Y9860500D01*
X45167216Y9860500D01*
X45132280Y9865523D01*
X45107038Y9872935D01*
X45054289Y9904235D01*
X45048017Y9910507D01*
X45048016Y9910508D01*
X45048014Y9910510D01*
X45048006Y9910515D01*
X44994243Y9941555D01*
X44965808Y9971376D01*
X44911007Y9986061D01*
X44911007Y9986060D01*
X44846740Y10003280D01*
X44782475Y10020500D01*
X44782474Y10020500D01*
X44637525Y10020500D01*
X44508994Y9986061D01*
X44508993Y9986060D01*
X44501338Y9984009D01*
X44497510Y9982983D01*
X44371991Y9910515D01*
X44371984Y9910510D01*
X44371968Y9910495D01*
X44269505Y9808032D01*
X44269490Y9808016D01*
X44269485Y9808008D01*
X44198287Y9684692D01*
X44198286Y9684688D01*
X44197017Y9682489D01*
X44197016Y9682485D01*
X44159500Y9542475D01*
X31778866Y9542475D01*
X33716969Y11480577D01*
X33745219Y11501725D01*
X33768311Y11514333D01*
X33827736Y11529500D01*
X65682022Y11529500D01*
X65716954Y11524479D01*
X65742198Y11517066D01*
X65794944Y11485770D01*
X69640573Y7640141D01*
X69661723Y7611889D01*
X69674331Y7588800D01*
X69689500Y7529371D01*
X69689500Y6047216D01*
X69684476Y6012278D01*
X69676993Y5986796D01*
X69652135Y5942643D01*
X69652528Y5942369D01*
X69651108Y5940335D01*
X69651294Y5940180D01*
X69649614Y5938165D01*
X69649596Y5938132D01*
X69649495Y5938023D01*
X69649494Y5938021D01*
X69649485Y5938008D01*
X69577017Y5812491D01*
X69576989Y5812422D01*
X69576748Y5811489D01*
X69539500Y5672475D01*
X69539500Y5527526D01*
X69577013Y5387523D01*
X69577017Y5387512D01*
X69577018Y5387511D01*
X69647631Y5265205D01*
X69649489Y5261987D01*
X69751985Y5159491D01*
X69752674Y5158995D01*
X69755178Y5157647D01*
X69874069Y5089005D01*
X69877087Y5087131D01*
X69877514Y5087017D01*
X69877515Y5087016D01*
X70017525Y5049500D01*
X70017528Y5049500D01*
X70162472Y5049500D01*
X70162473Y5049500D01*
X70162475Y5049500D01*
X70236190Y5069253D01*
X70271227Y5073442D01*
X70285104Y5073112D01*
X70351654Y5051839D01*
X70396137Y4997970D01*
X70399484Y4990154D01*
X70409500Y4941333D01*
X70409500Y3804380D01*
X70436792Y3702520D01*
X70436793Y3702518D01*
X70439674Y3697529D01*
X70439675Y3697525D01*
X70487529Y3614642D01*
X70489520Y3611194D01*
X70489522Y3611192D01*
X70730573Y3370141D01*
X70751723Y3341889D01*
X70764331Y3318800D01*
X70779500Y3259371D01*
X70779500Y2235085D01*
X70774476Y2200148D01*
X70767064Y2174907D01*
X70735769Y2122163D01*
X69169524Y555920D01*
X69169523Y555918D01*
X69169521Y555916D01*
X69116791Y464590D01*
X69104901Y420205D01*
X69104900Y420201D01*
X69089500Y362727D01*
X69089500Y-1334915D01*
X69084476Y-1369852D01*
X69077064Y-1395093D01*
X69045769Y-1447837D01*
X65733033Y-4760573D01*
X65704782Y-4781722D01*
X65681694Y-4794330D01*
X65622264Y-4809500D01*
X64934380Y-4809500D01*
X64861056Y-4829147D01*
X64832520Y-4836793D01*
X64832519Y-4836793D01*
X64782893Y-4865444D01*
X64782839Y-4865470D01*
X64741207Y-4889511D01*
X64741186Y-4889524D01*
X64741184Y-4889526D01*
X60099906Y-9530805D01*
X60071650Y-9551957D01*
X60057929Y-9559449D01*
X59989669Y-9574301D01*
X59987863Y-9574172D01*
X59929662Y-9554804D01*
X59923147Y-9550617D01*
X59902514Y-9533990D01*
X59878017Y-9509493D01*
X59878014Y-9509490D01*
X59878006Y-9509485D01*
X59824243Y-9478445D01*
X59795808Y-9448624D01*
X59741007Y-9433939D01*
X59741007Y-9433940D01*
X59676740Y-9416720D01*
X59612475Y-9399500D01*
X59612474Y-9399500D01*
X59467525Y-9399500D01*
X59338994Y-9433939D01*
X59338993Y-9433940D01*
X59331338Y-9435991D01*
X59327510Y-9437017D01*
X59201991Y-9509485D01*
X59197631Y-9512528D01*
X59197345Y-9512118D01*
X59185511Y-9520161D01*
X59159562Y-9534331D01*
X59100133Y-9549500D01*
X47185084Y-9549500D01*
X47150148Y-9544477D01*
X47124906Y-9537065D01*
X47072161Y-9505769D01*
X46829426Y-9263033D01*
X46808274Y-9234777D01*
X46795667Y-9211688D01*
X46783824Y-9165287D01*
X46781561Y-9165585D01*
X46780500Y-9157528D01*
X46780500Y-9157527D01*
X46780500Y-9157525D01*
X46742984Y-9017515D01*
X46670509Y-8891985D01*
X46568015Y-8789491D01*
X46568013Y-8789489D01*
X46567321Y-8788990D01*
X46564802Y-8787635D01*
X46514242Y-8758444D01*
X46485808Y-8728624D01*
X46418167Y-8710500D01*
X46418166Y-8710499D01*
X46333474Y-8687806D01*
X46302475Y-8679500D01*
X46302474Y-8679500D01*
X46157525Y-8679500D01*
X46041832Y-8710500D01*
X46041831Y-8710499D01*
X46017512Y-8717016D01*
X46017507Y-8717018D01*
X45891992Y-8789485D01*
X45891984Y-8789490D01*
X45891968Y-8789505D01*
X45789505Y-8891968D01*
X45789490Y-8891984D01*
X45789485Y-8891992D01*
X45717017Y-9017509D01*
X45716989Y-9017578D01*
X45716748Y-9018511D01*
X45679500Y-9157525D01*
X45679500Y-9302474D01*
X45705498Y-9399501D01*
X45717015Y-9442484D01*
X45717018Y-9442491D01*
X45787631Y-9564795D01*
X45789489Y-9568013D01*
X45891985Y-9670509D01*
X45892674Y-9671005D01*
X45895178Y-9672353D01*
X46014069Y-9740995D01*
X46017087Y-9742869D01*
X46017514Y-9742983D01*
X46017515Y-9742984D01*
X46157525Y-9780500D01*
X46157528Y-9780500D01*
X46157632Y-9780528D01*
X46176198Y-9784450D01*
X46205093Y-9792935D01*
X46257837Y-9824230D01*
X46625179Y-10191571D01*
X46625189Y-10191582D01*
X46629519Y-10195912D01*
X46629520Y-10195913D01*
X46704087Y-10270480D01*
X46734459Y-10288015D01*
X46795412Y-10323207D01*
X46897273Y-10350500D01*
X58963021Y-10350500D01*
X58997948Y-10355521D01*
X59008801Y-10358707D01*
X59067582Y-10396477D01*
X59096611Y-10460031D01*
X59086672Y-10529190D01*
X59086671Y-10529192D01*
X59083486Y-10536167D01*
X59058370Y-10572342D01*
X39717032Y-29913681D01*
X39655709Y-29947166D01*
X39629351Y-29950000D01*
X30640000Y-29950000D01*
X30640000Y-40325500D01*
X30620315Y-40392539D01*
X30567511Y-40438294D01*
X30516000Y-40449500D01*
X23732330Y-40449500D01*
X23697389Y-40444475D01*
X23682390Y-40440070D01*
X23623644Y-40402327D01*
X23622457Y-40400958D01*
X23594977Y-40346083D01*
X23593332Y-40338521D01*
X23590500Y-40312168D01*
X23590500Y-16056612D01*
X44480676Y-16056612D01*
X44514463Y-16226463D01*
X44514470Y-16226494D01*
X44580746Y-16386502D01*
X44580751Y-16386511D01*
X44580761Y-16386528D01*
X44676985Y-16530537D01*
X44676986Y-16530538D01*
X44676991Y-16530544D01*
X44799454Y-16653007D01*
X44799460Y-16653012D01*
X44799464Y-16653015D01*
X44943477Y-16749242D01*
X44943490Y-16749249D01*
X44943492Y-16749249D01*
X44943496Y-16749252D01*
X45019771Y-16780845D01*
X45089846Y-16809871D01*
X45103511Y-16815531D01*
X45267346Y-16848120D01*
X45268878Y-16848466D01*
X45269194Y-16848642D01*
X45273391Y-16849323D01*
X45446608Y-16849323D01*
X45450728Y-16849323D01*
X45458578Y-16846941D01*
X45616489Y-16815531D01*
X45776516Y-16749246D01*
X45920536Y-16653015D01*
X46043015Y-16530536D01*
X46139246Y-16386516D01*
X46205531Y-16226489D01*
X46239323Y-16056606D01*
X46239323Y-15883394D01*
X46239323Y-15883391D01*
X46239323Y-15883209D01*
X46238888Y-15881208D01*
X46237974Y-15876611D01*
X46206188Y-15716817D01*
X46205776Y-15714404D01*
X46205531Y-15713512D01*
X46201375Y-15703478D01*
X46201371Y-15703469D01*
X46201338Y-15703389D01*
X46139249Y-15553490D01*
X46139242Y-15553477D01*
X46043015Y-15409464D01*
X46043012Y-15409460D01*
X46043007Y-15409454D01*
X45920544Y-15286991D01*
X45920538Y-15286986D01*
X45920537Y-15286985D01*
X45776528Y-15190761D01*
X45776527Y-15190760D01*
X45776522Y-15190757D01*
X45776509Y-15190750D01*
X45776502Y-15190746D01*
X45616494Y-15124470D01*
X45616463Y-15124463D01*
X45446611Y-15090677D01*
X45446609Y-15090677D01*
X45446606Y-15090677D01*
X45273394Y-15090677D01*
X45273391Y-15090677D01*
X45273389Y-15090677D01*
X45103535Y-15124463D01*
X45103504Y-15124470D01*
X44943496Y-15190746D01*
X44943487Y-15190751D01*
X44943470Y-15190761D01*
X44799461Y-15286985D01*
X44799460Y-15286986D01*
X44799454Y-15286991D01*
X44676991Y-15409454D01*
X44676986Y-15409460D01*
X44676985Y-15409461D01*
X44580761Y-15553470D01*
X44580751Y-15553487D01*
X44580746Y-15553496D01*
X44514470Y-15713504D01*
X44514463Y-15713535D01*
X44480677Y-15883386D01*
X44480677Y-15883389D01*
X44480677Y-16056610D01*
X44480677Y-16056612D01*
X44480676Y-16056612D01*
X23590500Y-16056612D01*
X23590500Y-8237525D01*
X54089500Y-8237525D01*
X54089500Y-8382475D01*
X54090888Y-8387654D01*
X54127013Y-8522477D01*
X54127017Y-8522488D01*
X54127018Y-8522489D01*
X54197631Y-8644795D01*
X54199489Y-8648013D01*
X54301985Y-8750509D01*
X54302674Y-8751005D01*
X54305178Y-8752353D01*
X54424069Y-8820995D01*
X54427087Y-8822869D01*
X54427514Y-8822983D01*
X54427515Y-8822984D01*
X54567525Y-8860500D01*
X54567528Y-8860500D01*
X54712472Y-8860500D01*
X54712475Y-8860500D01*
X54852485Y-8822984D01*
X54978015Y-8750509D01*
X54978015Y-8750508D01*
X54978101Y-8750459D01*
X54994008Y-8740100D01*
X55020444Y-8725665D01*
X55079867Y-8710500D01*
X56332725Y-8710500D01*
X56332727Y-8710500D01*
X56434588Y-8683207D01*
X56525913Y-8630480D01*
X59846969Y-5309423D01*
X59875219Y-5288275D01*
X59898311Y-5275667D01*
X59944712Y-5263823D01*
X59944415Y-5261561D01*
X59952471Y-5260500D01*
X59952472Y-5260500D01*
X59952475Y-5260500D01*
X60092485Y-5222984D01*
X60218015Y-5150509D01*
X60320509Y-5048015D01*
X60392984Y-4922485D01*
X60430500Y-4782475D01*
X60430500Y-4637525D01*
X60392984Y-4497515D01*
X60364406Y-4448017D01*
X60320511Y-4371988D01*
X60320506Y-4371982D01*
X60320493Y-4371968D01*
X60218030Y-4269505D01*
X60218014Y-4269490D01*
X60218006Y-4269485D01*
X60164243Y-4238445D01*
X60135808Y-4208624D01*
X60081007Y-4193939D01*
X60081007Y-4193940D01*
X60013744Y-4175917D01*
X59952475Y-4159500D01*
X59952474Y-4159500D01*
X59807525Y-4159500D01*
X59678994Y-4193939D01*
X59678993Y-4193940D01*
X59671338Y-4195991D01*
X59667510Y-4197017D01*
X59541991Y-4269485D01*
X59541984Y-4269490D01*
X59541968Y-4269505D01*
X59439505Y-4371968D01*
X59439490Y-4371984D01*
X59439485Y-4371992D01*
X59367017Y-4497509D01*
X59366998Y-4497555D01*
X59366956Y-4497723D01*
X59366797Y-4498329D01*
X59329500Y-4637525D01*
X59329500Y-4637527D01*
X59329500Y-4641280D01*
X59326553Y-4652575D01*
X59326184Y-4653188D01*
X59325547Y-4656206D01*
X59317065Y-4685092D01*
X59285769Y-4737837D01*
X56163033Y-7860573D01*
X56134782Y-7881722D01*
X56111694Y-7894330D01*
X56052264Y-7909500D01*
X55087216Y-7909500D01*
X55052280Y-7904477D01*
X55026796Y-7896994D01*
X54982642Y-7872134D01*
X54982368Y-7872528D01*
X54980326Y-7871103D01*
X54980172Y-7871289D01*
X54978152Y-7869606D01*
X54978124Y-7869590D01*
X54978014Y-7869490D01*
X54978006Y-7869485D01*
X54924243Y-7838445D01*
X54895808Y-7808624D01*
X54841007Y-7793939D01*
X54841007Y-7793940D01*
X54776740Y-7776720D01*
X54712475Y-7759500D01*
X54712474Y-7759500D01*
X54567525Y-7759500D01*
X54438994Y-7793939D01*
X54438993Y-7793940D01*
X54431338Y-7795991D01*
X54427510Y-7797017D01*
X54301991Y-7869485D01*
X54301984Y-7869490D01*
X54301968Y-7869505D01*
X54199505Y-7971968D01*
X54199490Y-7971984D01*
X54199485Y-7971992D01*
X54128287Y-8095308D01*
X54128286Y-8095312D01*
X54127017Y-8097511D01*
X54127016Y-8097515D01*
X54089500Y-8237525D01*
X23590500Y-8237525D01*
X23590500Y-2650389D01*
X27622700Y-2650389D01*
X27622700Y-2823611D01*
X27622922Y-2825013D01*
X27622922Y-2825016D01*
X27626129Y-2845261D01*
X27630877Y-2875239D01*
X27642839Y-2950767D01*
X27649338Y-2991803D01*
X27649797Y-2994699D01*
X27703328Y-3159449D01*
X27752395Y-3255747D01*
X27781968Y-3313788D01*
X27883786Y-3453928D01*
X28006272Y-3576414D01*
X28146412Y-3678232D01*
X28300755Y-3756873D01*
X28465499Y-3810402D01*
X28636589Y-3837500D01*
X28636590Y-3837500D01*
X28809810Y-3837500D01*
X28809811Y-3837500D01*
X28980901Y-3810402D01*
X29145645Y-3756873D01*
X29299988Y-3678232D01*
X29440128Y-3576414D01*
X29562614Y-3453928D01*
X29664432Y-3313788D01*
X29711666Y-3221084D01*
X29731992Y-3192250D01*
X29743722Y-3179830D01*
X29801490Y-3145277D01*
X29814347Y-3141799D01*
X29846716Y-3137500D01*
X31745725Y-3137500D01*
X31745727Y-3137500D01*
X31847588Y-3110207D01*
X31938913Y-3057480D01*
X35226968Y230577D01*
X35255222Y251727D01*
X35278312Y264334D01*
X35337735Y279500D01*
X37702784Y279500D01*
X37737716Y274479D01*
X37762960Y267066D01*
X37804150Y242627D01*
X37805540Y244437D01*
X37811985Y239491D01*
X37822383Y233488D01*
X37857330Y203414D01*
X37863485Y195696D01*
X37889894Y131009D01*
X37881661Y72307D01*
X37880943Y70513D01*
X37847031Y22882D01*
X37841152Y17787D01*
X37835251Y13268D01*
X37835357Y13132D01*
X37831987Y10512D01*
X37729495Y-91979D01*
X37729490Y-91984D01*
X37729485Y-91992D01*
X37657017Y-217509D01*
X37656998Y-217555D01*
X37656956Y-217723D01*
X37656797Y-218329D01*
X37619500Y-357525D01*
X37619500Y-357527D01*
X37619500Y-361280D01*
X37616553Y-372575D01*
X37616184Y-373188D01*
X37615547Y-376206D01*
X37607065Y-405092D01*
X37575769Y-457837D01*
X33206033Y-4827573D01*
X33177782Y-4848722D01*
X33154694Y-4861330D01*
X33095264Y-4876500D01*
X29848072Y-4876500D01*
X29813133Y-4871476D01*
X29796754Y-4866666D01*
X29739743Y-4830884D01*
X29730811Y-4821012D01*
X29712276Y-4794112D01*
X29701611Y-4773181D01*
X29664433Y-4700213D01*
X29645972Y-4674805D01*
X29635579Y-4660500D01*
X29635578Y-4660498D01*
X29562619Y-4560077D01*
X29440130Y-4437588D01*
X29440128Y-4437586D01*
X29299988Y-4335768D01*
X29145649Y-4257128D01*
X28994427Y-4207992D01*
X28994416Y-4207989D01*
X28980901Y-4203598D01*
X28980899Y-4203597D01*
X28980898Y-4203597D01*
X28966496Y-4201316D01*
X28966492Y-4201315D01*
X28847517Y-4182472D01*
X28847515Y-4182471D01*
X28832434Y-4180083D01*
X28809814Y-4176500D01*
X28809811Y-4176500D01*
X28636589Y-4176500D01*
X28636586Y-4176500D01*
X28613965Y-4180083D01*
X28598883Y-4182472D01*
X28598882Y-4182472D01*
X28465502Y-4203596D01*
X28465501Y-4203596D01*
X28300747Y-4257129D01*
X28146410Y-4335768D01*
X28066456Y-4393859D01*
X28066455Y-4393859D01*
X28018141Y-4428961D01*
X28010764Y-4433092D01*
X27879292Y-4564564D01*
X27875161Y-4571941D01*
X27840059Y-4620255D01*
X27840059Y-4620256D01*
X27781968Y-4700210D01*
X27703329Y-4854547D01*
X27649798Y-5019297D01*
X27649796Y-5019304D01*
X27645250Y-5048011D01*
X27629017Y-5150506D01*
X27622700Y-5190389D01*
X27622700Y-5363611D01*
X27649798Y-5534701D01*
X27703327Y-5699445D01*
X27781968Y-5853788D01*
X27883786Y-5993928D01*
X28006272Y-6116414D01*
X28146412Y-6218232D01*
X28300755Y-6296873D01*
X28465499Y-6350402D01*
X28636589Y-6377500D01*
X28636590Y-6377500D01*
X28809810Y-6377500D01*
X28809811Y-6377500D01*
X28980901Y-6350402D01*
X29145645Y-6296873D01*
X29299988Y-6218232D01*
X29440128Y-6116414D01*
X29562614Y-5993928D01*
X29664432Y-5853788D01*
X29711666Y-5761084D01*
X29731992Y-5732250D01*
X29743722Y-5719830D01*
X29801490Y-5685277D01*
X29814347Y-5681799D01*
X29846716Y-5677500D01*
X33375725Y-5677500D01*
X33375727Y-5677500D01*
X33477588Y-5650207D01*
X33568913Y-5597480D01*
X36321133Y-2845259D01*
X57529500Y-2845259D01*
X57529500Y-2990209D01*
X57530888Y-2995388D01*
X57561653Y-3110205D01*
X57567017Y-3130222D01*
X57567018Y-3130225D01*
X57637631Y-3252529D01*
X57639489Y-3255747D01*
X57741985Y-3358243D01*
X57742654Y-3358725D01*
X57745030Y-3360001D01*
X57867511Y-3430716D01*
X57867513Y-3430717D01*
X57867515Y-3430718D01*
X57890372Y-3436842D01*
X57922820Y-3450737D01*
X57936167Y-3458873D01*
X57983157Y-3510560D01*
X57987031Y-3518533D01*
X57999500Y-3572725D01*
X57999500Y-3662784D01*
X57994476Y-3697722D01*
X57986993Y-3723204D01*
X57962135Y-3767357D01*
X57962528Y-3767631D01*
X57961108Y-3769665D01*
X57961294Y-3769820D01*
X57959614Y-3771835D01*
X57959596Y-3771868D01*
X57959495Y-3771977D01*
X57959494Y-3771979D01*
X57959485Y-3771992D01*
X57887017Y-3897509D01*
X57886989Y-3897578D01*
X57886748Y-3898511D01*
X57849500Y-4037525D01*
X57849500Y-4182472D01*
X57849499Y-4182472D01*
X57872817Y-4269493D01*
X57872816Y-4269493D01*
X57887016Y-4322487D01*
X57887018Y-4322491D01*
X57957631Y-4444795D01*
X57959489Y-4448013D01*
X58061985Y-4550509D01*
X58062674Y-4551005D01*
X58065178Y-4552353D01*
X58184069Y-4620995D01*
X58187087Y-4622869D01*
X58187514Y-4622983D01*
X58187515Y-4622984D01*
X58327525Y-4660500D01*
X58327528Y-4660500D01*
X58472472Y-4660500D01*
X58472475Y-4660500D01*
X58612485Y-4622984D01*
X58738015Y-4550509D01*
X58840509Y-4448015D01*
X58912984Y-4322485D01*
X58950500Y-4182475D01*
X58950500Y-4037525D01*
X58912984Y-3897515D01*
X58878334Y-3837500D01*
X58840511Y-3771988D01*
X58840506Y-3771982D01*
X58838057Y-3769533D01*
X58831989Y-3759291D01*
X58831737Y-3758302D01*
X58829841Y-3755516D01*
X58815666Y-3729556D01*
X58800500Y-3670132D01*
X58800500Y-3185009D01*
X58800500Y-3185007D01*
X58773207Y-3083147D01*
X58720480Y-2991821D01*
X58679426Y-2950767D01*
X58658274Y-2922511D01*
X58645667Y-2899422D01*
X58633824Y-2853021D01*
X58631561Y-2853319D01*
X58630500Y-2845262D01*
X58630500Y-2845261D01*
X58630500Y-2845259D01*
X58592984Y-2705249D01*
X58591710Y-2703042D01*
X58562937Y-2653205D01*
X58562937Y-2653206D01*
X58520513Y-2579726D01*
X58520508Y-2579718D01*
X58520493Y-2579702D01*
X58418030Y-2477239D01*
X58418014Y-2477224D01*
X58418006Y-2477219D01*
X58377620Y-2453902D01*
X58364242Y-2446178D01*
X58335808Y-2416358D01*
X58281007Y-2401673D01*
X58281007Y-2401674D01*
X58216740Y-2384454D01*
X58152475Y-2367234D01*
X58152474Y-2367234D01*
X58007525Y-2367234D01*
X57878994Y-2401673D01*
X57878993Y-2401674D01*
X57871338Y-2403725D01*
X57867510Y-2404751D01*
X57741991Y-2477219D01*
X57741984Y-2477224D01*
X57741968Y-2477239D01*
X57639505Y-2579702D01*
X57639490Y-2579718D01*
X57639485Y-2579726D01*
X57568287Y-2703042D01*
X57568286Y-2703046D01*
X57567017Y-2705245D01*
X57567016Y-2705249D01*
X57529500Y-2845259D01*
X36321133Y-2845259D01*
X37393867Y-1772525D01*
X45484500Y-1772525D01*
X45484500Y-1917475D01*
X45500224Y-1976158D01*
X45520632Y-2052320D01*
X45522016Y-2057487D01*
X45522018Y-2057491D01*
X45592631Y-2179795D01*
X45594489Y-2183013D01*
X45696985Y-2285509D01*
X45697674Y-2286005D01*
X45700178Y-2287353D01*
X45819069Y-2355995D01*
X45822087Y-2357869D01*
X45822514Y-2357983D01*
X45822515Y-2357984D01*
X45962525Y-2395500D01*
X45962533Y-2395500D01*
X45962990Y-2395561D01*
X45980905Y-2399281D01*
X45998089Y-2404218D01*
X45998158Y-2404216D01*
X46007272Y-2406823D01*
X46007709Y-2407099D01*
X46007740Y-2406992D01*
X46010292Y-2407725D01*
X46013367Y-2409276D01*
X46018098Y-2410467D01*
X46018435Y-2410598D01*
X46018033Y-2411629D01*
X46051550Y-2428533D01*
X46054089Y-2430482D01*
X46089121Y-2450707D01*
X46117747Y-2467234D01*
X46131279Y-2475047D01*
X46131280Y-2475048D01*
X46138108Y-2478990D01*
X46138122Y-2478998D01*
X46141961Y-2481215D01*
X46144933Y-2483061D01*
X46145408Y-2483205D01*
X46145410Y-2483206D01*
X46145412Y-2483206D01*
X46145413Y-2483207D01*
X46145430Y-2483211D01*
X46147277Y-2483771D01*
X46147319Y-2483783D01*
X46157970Y-2487008D01*
X46161174Y-2487430D01*
X46247273Y-2510501D01*
X46247275Y-2510501D01*
X46360323Y-2510501D01*
X46362227Y-2510501D01*
X46362290Y-2510500D01*
X46744915Y-2510500D01*
X46779847Y-2515521D01*
X46805091Y-2522934D01*
X46857837Y-2554230D01*
X46904087Y-2600480D01*
X46983174Y-2646141D01*
X46995408Y-2653205D01*
X46995412Y-2653207D01*
X47097273Y-2680500D01*
X47097275Y-2680500D01*
X51592725Y-2680500D01*
X51592727Y-2680500D01*
X51694588Y-2653207D01*
X51785913Y-2600480D01*
X52397630Y-1988762D01*
X52425880Y-1967614D01*
X52448972Y-1955006D01*
X52508397Y-1939839D01*
X53262123Y-1939839D01*
X53297055Y-1944860D01*
X53322299Y-1952273D01*
X53361933Y-1975789D01*
X53363219Y-1974006D01*
X53371321Y-1979845D01*
X53371324Y-1979848D01*
X53371325Y-1979849D01*
X53371327Y-1979850D01*
X53371329Y-1979851D01*
X53372013Y-1980344D01*
X53374517Y-1981692D01*
X53496848Y-2052320D01*
X53496852Y-2052322D01*
X53496854Y-2052323D01*
X53636864Y-2089839D01*
X53636867Y-2089839D01*
X53781811Y-2089839D01*
X53781814Y-2089839D01*
X53921824Y-2052323D01*
X54047354Y-1979848D01*
X54149848Y-1877354D01*
X54222323Y-1751824D01*
X54259839Y-1611814D01*
X54259839Y-1466864D01*
X54222323Y-1326854D01*
X54205375Y-1297500D01*
X54149850Y-1201327D01*
X54149845Y-1201321D01*
X54149832Y-1201307D01*
X54047369Y-1098844D01*
X54047353Y-1098829D01*
X54047345Y-1098824D01*
X53993582Y-1067784D01*
X53965147Y-1037963D01*
X53910346Y-1023278D01*
X53910346Y-1023279D01*
X53807296Y-995667D01*
X53781814Y-988839D01*
X53781813Y-988839D01*
X53636864Y-988839D01*
X53508333Y-1023278D01*
X53508332Y-1023279D01*
X53500677Y-1025330D01*
X53496849Y-1026356D01*
X53371330Y-1098824D01*
X53366970Y-1101867D01*
X53366684Y-1101457D01*
X53354850Y-1109500D01*
X53328901Y-1123670D01*
X53269472Y-1138839D01*
X52227932Y-1138839D01*
X52126072Y-1166131D01*
X52126069Y-1166132D01*
X52034758Y-1218852D01*
X52034743Y-1218862D01*
X52034741Y-1218863D01*
X51423033Y-1830573D01*
X51394782Y-1851722D01*
X51371694Y-1864330D01*
X51312264Y-1879500D01*
X47385085Y-1879500D01*
X47350149Y-1874477D01*
X47324907Y-1867065D01*
X47272162Y-1835769D01*
X47225915Y-1789522D01*
X47225913Y-1789520D01*
X47215119Y-1783288D01*
X47180250Y-1763155D01*
X47180250Y-1763156D01*
X47134587Y-1736791D01*
X47062886Y-1717581D01*
X47062885Y-1717580D01*
X47032728Y-1709500D01*
X47032727Y-1709500D01*
X47032726Y-1709500D01*
X46680556Y-1709500D01*
X46645617Y-1704476D01*
X46630617Y-1700071D01*
X46571844Y-1662298D01*
X46559627Y-1648199D01*
X46545952Y-1628996D01*
X46544869Y-1627121D01*
X46495771Y-1542080D01*
X46475511Y-1506988D01*
X46475506Y-1506982D01*
X46475493Y-1506968D01*
X46373030Y-1404505D01*
X46373014Y-1404490D01*
X46373011Y-1404488D01*
X46322990Y-1375608D01*
X46322987Y-1375606D01*
X46247488Y-1332017D01*
X46247489Y-1332017D01*
X46228205Y-1326850D01*
X46216675Y-1323760D01*
X46216672Y-1323759D01*
X46137866Y-1302643D01*
X46107475Y-1294500D01*
X46107474Y-1294500D01*
X45962525Y-1294500D01*
X45841794Y-1326850D01*
X45841793Y-1326849D01*
X45822515Y-1332015D01*
X45822508Y-1332018D01*
X45696992Y-1404485D01*
X45696984Y-1404490D01*
X45696968Y-1404505D01*
X45594505Y-1506968D01*
X45594490Y-1506984D01*
X45594485Y-1506991D01*
X45522017Y-1632511D01*
X45520139Y-1639517D01*
X45520139Y-1639519D01*
X45484500Y-1772525D01*
X37393867Y-1772525D01*
X38136969Y-1029423D01*
X38165219Y-1008275D01*
X38188311Y-995667D01*
X38234712Y-983823D01*
X38234415Y-981561D01*
X38242471Y-980500D01*
X38242472Y-980500D01*
X38242475Y-980500D01*
X38382485Y-942984D01*
X38508015Y-870509D01*
X38610509Y-768015D01*
X38682984Y-642485D01*
X38720500Y-502475D01*
X38720500Y-357525D01*
X38682984Y-217515D01*
X38610509Y-91985D01*
X38508015Y10509D01*
X38501144Y14476D01*
X38473402Y36294D01*
X38463825Y46339D01*
X38431812Y108443D01*
X38438456Y177994D01*
X38439061Y179505D01*
X38472974Y227124D01*
X38478516Y231926D01*
X38484243Y236597D01*
X38488013Y239490D01*
X38488012Y239490D01*
X38488015Y239491D01*
X38590509Y341985D01*
X38662984Y467515D01*
X38700500Y607525D01*
X38700500Y752475D01*
X38662984Y892485D01*
X38656624Y903500D01*
X38644504Y924492D01*
X38590513Y1018009D01*
X38590507Y1018017D01*
X38590504Y1018020D01*
X38590493Y1018032D01*
X38488030Y1120495D01*
X38488014Y1120510D01*
X38488006Y1120515D01*
X38434243Y1151555D01*
X38405808Y1181376D01*
X38351007Y1196061D01*
X38351007Y1196060D01*
X38286740Y1213280D01*
X38222475Y1230500D01*
X38222474Y1230500D01*
X38077525Y1230500D01*
X37948994Y1196061D01*
X37948993Y1196060D01*
X37941338Y1194009D01*
X37937510Y1192983D01*
X37811991Y1120515D01*
X37807631Y1117472D01*
X37807345Y1117882D01*
X37795511Y1109839D01*
X37769562Y1095669D01*
X37710133Y1080500D01*
X35172290Y1080500D01*
X35172227Y1080501D01*
X35170323Y1080501D01*
X35162727Y1080501D01*
X35057273Y1080501D01*
X35057271Y1080501D01*
X34980875Y1060031D01*
X34980874Y1060032D01*
X34955415Y1053210D01*
X34955408Y1053206D01*
X34927790Y1037261D01*
X34927791Y1037260D01*
X34905846Y1024590D01*
X34894467Y1018020D01*
X34894466Y1018020D01*
X34894462Y1018017D01*
X34864117Y1000499D01*
X34864083Y1000478D01*
X34864079Y1000475D01*
X31576033Y-2287573D01*
X31547782Y-2308722D01*
X31524694Y-2321330D01*
X31465264Y-2336500D01*
X29848072Y-2336500D01*
X29813133Y-2331476D01*
X29796754Y-2326666D01*
X29739743Y-2290884D01*
X29730811Y-2281012D01*
X29712276Y-2254112D01*
X29664439Y-2160224D01*
X29664436Y-2160219D01*
X29664433Y-2160213D01*
X29645977Y-2134811D01*
X29562614Y-2020072D01*
X29440128Y-1897586D01*
X29299988Y-1795768D01*
X29299986Y-1795767D01*
X29145649Y-1717128D01*
X28994427Y-1667992D01*
X28994416Y-1667989D01*
X28980901Y-1663598D01*
X28980899Y-1663597D01*
X28980898Y-1663597D01*
X28966496Y-1661316D01*
X28966492Y-1661315D01*
X28843179Y-1641785D01*
X28809811Y-1636500D01*
X28809810Y-1636500D01*
X28636590Y-1636500D01*
X28636589Y-1636500D01*
X28603221Y-1641785D01*
X28603220Y-1641785D01*
X28465502Y-1663596D01*
X28465501Y-1663596D01*
X28300747Y-1717129D01*
X28148288Y-1794811D01*
X28146411Y-1795768D01*
X28081154Y-1843181D01*
X28018143Y-1888961D01*
X28010762Y-1893094D01*
X27879293Y-2024563D01*
X27875164Y-2031937D01*
X27860359Y-2052316D01*
X27860357Y-2052320D01*
X27860356Y-2052321D01*
X27781968Y-2160211D01*
X27781965Y-2160215D01*
X27781964Y-2160218D01*
X27703329Y-2314549D01*
X27649796Y-2479305D01*
X27649795Y-2479306D01*
X27631760Y-2593179D01*
X27631759Y-2593186D01*
X27630605Y-2600477D01*
X27622700Y-2650389D01*
X23590500Y-2650389D01*
X23590500Y-110383D01*
X27622700Y-110383D01*
X27622700Y-283614D01*
X27645851Y-429784D01*
X27649796Y-454693D01*
X27649797Y-454697D01*
X27649798Y-454701D01*
X27703327Y-619445D01*
X27781968Y-773788D01*
X27883786Y-913928D01*
X28006272Y-1036414D01*
X28146412Y-1138232D01*
X28300755Y-1216873D01*
X28465499Y-1270402D01*
X28636589Y-1297500D01*
X28636590Y-1297500D01*
X28809810Y-1297500D01*
X28809811Y-1297500D01*
X28980901Y-1270402D01*
X29145645Y-1216873D01*
X29299988Y-1138232D01*
X29440128Y-1036414D01*
X29562614Y-913928D01*
X29664432Y-773788D01*
X29743073Y-619445D01*
X29796602Y-454701D01*
X29823700Y-283611D01*
X29823700Y-110389D01*
X29796602Y60701D01*
X29743073Y225445D01*
X29664432Y379788D01*
X29562614Y519928D01*
X29440128Y642414D01*
X29299988Y744232D01*
X29283810Y752475D01*
X29145649Y822872D01*
X28994415Y872012D01*
X28994403Y872015D01*
X28980901Y876402D01*
X28980899Y876403D01*
X28980898Y876403D01*
X28966512Y878682D01*
X28966506Y878683D01*
X28861770Y895271D01*
X28849471Y897219D01*
X28833607Y899732D01*
X28809814Y903500D01*
X28809811Y903500D01*
X28636589Y903500D01*
X28636588Y903500D01*
X28596926Y897219D01*
X28596925Y897220D01*
X28465504Y876404D01*
X28300749Y822871D01*
X28146418Y744236D01*
X28146405Y744228D01*
X28068347Y687515D01*
X28026037Y656776D01*
X28026030Y656770D01*
X28006272Y642414D01*
X28006270Y642412D01*
X28006269Y642412D01*
X27883788Y519931D01*
X27883788Y519930D01*
X27883786Y519928D01*
X27869434Y500175D01*
X27869428Y500168D01*
X27863607Y492154D01*
X27863603Y492148D01*
X27781968Y379789D01*
X27781965Y379785D01*
X27781964Y379782D01*
X27703329Y225451D01*
X27649796Y60695D01*
X27622700Y-110383D01*
X23590500Y-110383D01*
X23590500Y2429617D01*
X27622700Y2429617D01*
X27622700Y2256386D01*
X27638522Y2156491D01*
X27642785Y2129574D01*
X27649798Y2085299D01*
X27703327Y1920555D01*
X27781968Y1766212D01*
X27883786Y1626072D01*
X28006272Y1503586D01*
X28146412Y1401768D01*
X28300755Y1323127D01*
X28465499Y1269598D01*
X28636589Y1242500D01*
X28636590Y1242500D01*
X28809810Y1242500D01*
X28809811Y1242500D01*
X28980901Y1269598D01*
X29145645Y1323127D01*
X29299988Y1401768D01*
X29440128Y1503586D01*
X29562614Y1626072D01*
X29664432Y1766212D01*
X29743073Y1920555D01*
X29796602Y2085299D01*
X29823700Y2256389D01*
X29823700Y2429611D01*
X29796602Y2600701D01*
X29743073Y2765445D01*
X29664432Y2919788D01*
X29562614Y3059928D01*
X29440128Y3182414D01*
X29299988Y3284232D01*
X29274633Y3297151D01*
X29145649Y3362872D01*
X28994415Y3412012D01*
X28994403Y3412015D01*
X28980901Y3416402D01*
X28980899Y3416403D01*
X28980898Y3416403D01*
X28966512Y3418682D01*
X28966506Y3418683D01*
X28867036Y3434437D01*
X28849471Y3437219D01*
X28833607Y3439732D01*
X28809814Y3443500D01*
X28809811Y3443500D01*
X28636589Y3443500D01*
X28636588Y3443500D01*
X28596926Y3437219D01*
X28596925Y3437220D01*
X28465504Y3416404D01*
X28300749Y3362871D01*
X28146410Y3284232D01*
X28113292Y3260169D01*
X28082778Y3237999D01*
X28026996Y3197471D01*
X28018142Y3191038D01*
X28010762Y3186906D01*
X27879293Y3055437D01*
X27875164Y3048063D01*
X27864375Y3033212D01*
X27864372Y3033207D01*
X27781968Y2919790D01*
X27703329Y2765451D01*
X27649796Y2600695D01*
X27622700Y2429617D01*
X23590500Y2429617D01*
X23590500Y4969611D01*
X27622700Y4969611D01*
X27622700Y4796389D01*
X27649798Y4625299D01*
X27703327Y4460555D01*
X27781968Y4306212D01*
X27883786Y4166072D01*
X28006272Y4043586D01*
X28146412Y3941768D01*
X28300755Y3863127D01*
X28465499Y3809598D01*
X28636589Y3782500D01*
X28636590Y3782500D01*
X28809810Y3782500D01*
X28809811Y3782500D01*
X28980901Y3809598D01*
X29145645Y3863127D01*
X29299988Y3941768D01*
X29440128Y4043586D01*
X29562614Y4166072D01*
X29664432Y4306212D01*
X29743073Y4460555D01*
X29796602Y4625299D01*
X29823700Y4796389D01*
X29823700Y4969611D01*
X29796602Y5140701D01*
X29743073Y5305445D01*
X29664432Y5459788D01*
X29562614Y5599928D01*
X29440128Y5722414D01*
X29299988Y5824232D01*
X29145649Y5902872D01*
X28994427Y5952008D01*
X28994416Y5952011D01*
X28980901Y5956402D01*
X28980899Y5956403D01*
X28980898Y5956403D01*
X28966496Y5958684D01*
X28966492Y5958685D01*
X28844385Y5978024D01*
X28844384Y5978025D01*
X28809811Y5983500D01*
X28636589Y5983500D01*
X28602014Y5978024D01*
X28465502Y5956404D01*
X28465501Y5956404D01*
X28300747Y5902871D01*
X28146410Y5824232D01*
X28066456Y5766141D01*
X28066455Y5766141D01*
X28018141Y5731039D01*
X28010764Y5726908D01*
X27879292Y5595436D01*
X27875161Y5588059D01*
X27840059Y5539745D01*
X27840059Y5539744D01*
X27781968Y5459790D01*
X27703329Y5305451D01*
X27649796Y5140695D01*
X27649795Y5140694D01*
X27642201Y5092743D01*
X27642200Y5092736D01*
X27641295Y5087018D01*
X27622700Y4969611D01*
X23590500Y4969611D01*
X23590500Y10049611D01*
X27622700Y10049611D01*
X27622700Y9876389D01*
X27623138Y9873624D01*
X27623138Y9873623D01*
X27633526Y9808032D01*
X27649798Y9705299D01*
X27703327Y9540555D01*
X27781968Y9386212D01*
X27883786Y9246072D01*
X28006272Y9123586D01*
X28146412Y9021768D01*
X28300755Y8943127D01*
X28465499Y8889598D01*
X28636589Y8862500D01*
X28636590Y8862500D01*
X28809810Y8862500D01*
X28809811Y8862500D01*
X28980901Y8889598D01*
X29145645Y8943127D01*
X29299988Y9021768D01*
X29440128Y9123586D01*
X29562614Y9246072D01*
X29664432Y9386212D01*
X29743073Y9540555D01*
X29796602Y9705299D01*
X29823700Y9876389D01*
X29823700Y10049611D01*
X29796602Y10220701D01*
X29743073Y10385445D01*
X29664432Y10539788D01*
X29562614Y10679928D01*
X29440128Y10802414D01*
X29299988Y10904232D01*
X29285614Y10911556D01*
X29145649Y10982872D01*
X28994427Y11032008D01*
X28994416Y11032011D01*
X28980901Y11036402D01*
X28980899Y11036403D01*
X28980898Y11036403D01*
X28966496Y11038684D01*
X28966492Y11038685D01*
X28836802Y11059225D01*
X28836801Y11059226D01*
X28809811Y11063500D01*
X28636589Y11063500D01*
X28609597Y11059225D01*
X28465502Y11036404D01*
X28465501Y11036404D01*
X28300747Y10982871D01*
X28146411Y10904233D01*
X28113764Y10880512D01*
X28018143Y10811039D01*
X28010762Y10806906D01*
X27879293Y10675437D01*
X27875160Y10668056D01*
X27854998Y10640308D01*
X27854999Y10640307D01*
X27781972Y10539795D01*
X27781968Y10539789D01*
X27781966Y10539787D01*
X27781964Y10539782D01*
X27703329Y10385451D01*
X27649796Y10220695D01*
X27649795Y10220694D01*
X27644905Y10189817D01*
X27644904Y10189807D01*
X27644048Y10184400D01*
X27622700Y10049611D01*
X23590500Y10049611D01*
X23590500Y12589617D01*
X27622700Y12589617D01*
X27622700Y12416386D01*
X27648976Y12250481D01*
X27648977Y12250481D01*
X27648977Y12250478D01*
X27649798Y12245299D01*
X27703327Y12080555D01*
X27781968Y11926212D01*
X27883786Y11786072D01*
X28006272Y11663586D01*
X28146412Y11561768D01*
X28300755Y11483127D01*
X28465499Y11429598D01*
X28636589Y11402500D01*
X28636590Y11402500D01*
X28809810Y11402500D01*
X28809811Y11402500D01*
X28980901Y11429598D01*
X29145645Y11483127D01*
X29299988Y11561768D01*
X29440128Y11663586D01*
X29562614Y11786072D01*
X29664432Y11926212D01*
X29743073Y12080555D01*
X29796602Y12245299D01*
X29823700Y12416389D01*
X29823700Y12589611D01*
X29796602Y12760701D01*
X29743073Y12925445D01*
X29664432Y13079788D01*
X29562614Y13219928D01*
X29440128Y13342414D01*
X29299988Y13444232D01*
X29299980Y13444236D01*
X29145649Y13522872D01*
X28994415Y13572012D01*
X28994403Y13572015D01*
X28980901Y13576402D01*
X28980899Y13576403D01*
X28980898Y13576403D01*
X28966512Y13578682D01*
X28966506Y13578683D01*
X28876388Y13592956D01*
X28849471Y13597219D01*
X28833607Y13599732D01*
X28809814Y13603500D01*
X28809811Y13603500D01*
X28636589Y13603500D01*
X28636588Y13603500D01*
X28596926Y13597219D01*
X28596925Y13597220D01*
X28465504Y13576404D01*
X28300749Y13522871D01*
X28146410Y13444232D01*
X28089285Y13402727D01*
X28018143Y13351039D01*
X28010762Y13346906D01*
X27879293Y13215437D01*
X27875158Y13208053D01*
X27869151Y13199787D01*
X27869152Y13199786D01*
X27781968Y13079790D01*
X27703329Y12925451D01*
X27649796Y12760695D01*
X27622700Y12589617D01*
X23590500Y12589617D01*
X23590500Y15472475D01*
X49469500Y15472475D01*
X49469500Y15327525D01*
X49470888Y15322346D01*
X49504368Y15197396D01*
X49507016Y15187515D01*
X49507018Y15187509D01*
X49577631Y15065205D01*
X49579489Y15061987D01*
X49681985Y14959491D01*
X49682674Y14958995D01*
X49685178Y14957647D01*
X49804069Y14889005D01*
X49807087Y14887131D01*
X49807514Y14887017D01*
X49807515Y14887016D01*
X49947525Y14849500D01*
X49947528Y14849500D01*
X50092472Y14849500D01*
X50092475Y14849500D01*
X50232485Y14887016D01*
X50358015Y14959491D01*
X50358015Y14959492D01*
X50358101Y14959541D01*
X50374008Y14969900D01*
X50400444Y14984335D01*
X50459867Y14999500D01*
X51502725Y14999500D01*
X51502727Y14999500D01*
X51604588Y15026793D01*
X51695913Y15079520D01*
X58076969Y21460577D01*
X58105219Y21481725D01*
X58128311Y21494333D01*
X58174712Y21506177D01*
X58174415Y21508439D01*
X58182471Y21509500D01*
X58182472Y21509500D01*
X58182475Y21509500D01*
X58322485Y21547016D01*
X58448015Y21619491D01*
X58550509Y21721985D01*
X58622984Y21847515D01*
X58660500Y21987525D01*
X58660500Y22132475D01*
X58622984Y22272485D01*
X58622981Y22272491D01*
X58622981Y22272492D01*
X58621766Y22274596D01*
X58621763Y22274599D01*
X58597488Y22316644D01*
X58550511Y22398012D01*
X58550506Y22398018D01*
X58550500Y22398024D01*
X58550493Y22398032D01*
X58448030Y22500495D01*
X58448014Y22500510D01*
X58448006Y22500515D01*
X58394243Y22531555D01*
X58365808Y22561376D01*
X58311007Y22576061D01*
X58311007Y22576060D01*
X58246740Y22593280D01*
X58182475Y22610500D01*
X58182474Y22610500D01*
X58037525Y22610500D01*
X57908994Y22576061D01*
X57908993Y22576060D01*
X57901338Y22574009D01*
X57897510Y22572983D01*
X57771991Y22500515D01*
X57771984Y22500510D01*
X57771968Y22500495D01*
X57669505Y22398032D01*
X57669490Y22398016D01*
X57669488Y22398012D01*
X57597017Y22272491D01*
X57596998Y22272445D01*
X57596956Y22272277D01*
X57596797Y22271671D01*
X57559500Y22132475D01*
X57559500Y22132473D01*
X57559500Y22128720D01*
X57556553Y22117425D01*
X57556184Y22116812D01*
X57555547Y22113794D01*
X57547065Y22084908D01*
X57515769Y22032163D01*
X51333033Y15849427D01*
X51304782Y15828278D01*
X51281694Y15815670D01*
X51222264Y15800500D01*
X50467216Y15800500D01*
X50432280Y15805523D01*
X50406796Y15813006D01*
X50362642Y15837866D01*
X50362368Y15837472D01*
X50360326Y15838897D01*
X50360172Y15838711D01*
X50358152Y15840394D01*
X50358124Y15840410D01*
X50358014Y15840510D01*
X50358006Y15840515D01*
X50304243Y15871555D01*
X50275808Y15901376D01*
X50221007Y15916061D01*
X50221007Y15916060D01*
X50156740Y15933280D01*
X50092475Y15950500D01*
X50092474Y15950500D01*
X49947525Y15950500D01*
X49818994Y15916061D01*
X49818993Y15916060D01*
X49811338Y15914009D01*
X49807510Y15912983D01*
X49681991Y15840515D01*
X49681984Y15840510D01*
X49681968Y15840495D01*
X49579505Y15738032D01*
X49579490Y15738016D01*
X49579485Y15738008D01*
X49508287Y15614692D01*
X49508286Y15614688D01*
X49507017Y15612489D01*
X49507016Y15612485D01*
X49469500Y15472475D01*
X23590500Y15472475D01*
X23590500Y16704417D01*
X27622700Y16704417D01*
X27622700Y16704411D01*
X27622700Y16531189D01*
X27649798Y16360099D01*
X27703327Y16195355D01*
X27781968Y16041012D01*
X27883786Y15900872D01*
X28006272Y15778386D01*
X28146412Y15676568D01*
X28300755Y15597927D01*
X28465499Y15544398D01*
X28636589Y15517300D01*
X28636590Y15517300D01*
X28809810Y15517300D01*
X28809811Y15517300D01*
X28980901Y15544398D01*
X29145645Y15597927D01*
X29299988Y15676568D01*
X29440128Y15778386D01*
X29562614Y15900872D01*
X29664432Y16041012D01*
X29743073Y16195355D01*
X29796602Y16360099D01*
X29823700Y16531189D01*
X29823700Y16704411D01*
X29796602Y16875501D01*
X29743073Y17040245D01*
X29664432Y17194588D01*
X29562614Y17334728D01*
X29440128Y17457214D01*
X29299988Y17559032D01*
X29145649Y17637672D01*
X28994415Y17686812D01*
X28994403Y17686815D01*
X28980901Y17691202D01*
X28980899Y17691203D01*
X28980898Y17691203D01*
X28966512Y17693482D01*
X28966506Y17693483D01*
X28876388Y17707756D01*
X28849471Y17712019D01*
X28833607Y17714532D01*
X28809814Y17718300D01*
X28809811Y17718300D01*
X28636589Y17718300D01*
X28636588Y17718300D01*
X28596926Y17712019D01*
X28596925Y17712020D01*
X28465504Y17691204D01*
X28300749Y17637671D01*
X28146410Y17559032D01*
X28066456Y17500941D01*
X28066455Y17500941D01*
X28018141Y17465839D01*
X28010764Y17461708D01*
X27879292Y17330236D01*
X27875161Y17322859D01*
X27840059Y17274545D01*
X27840059Y17274544D01*
X27781968Y17194590D01*
X27703329Y17040251D01*
X27649796Y16875495D01*
X27622700Y16704417D01*
X23590500Y16704417D01*
X23590500Y19244417D01*
X27622700Y19244417D01*
X27622700Y19071186D01*
X27644521Y18933413D01*
X27646274Y18922343D01*
X27649798Y18900099D01*
X27703327Y18735355D01*
X27781968Y18581012D01*
X27883786Y18440872D01*
X28006272Y18318386D01*
X28146412Y18216568D01*
X28300755Y18137927D01*
X28465499Y18084398D01*
X28636589Y18057300D01*
X28636590Y18057300D01*
X28809810Y18057300D01*
X28809811Y18057300D01*
X28980901Y18084398D01*
X29145645Y18137927D01*
X29299988Y18216568D01*
X29440128Y18318386D01*
X29562614Y18440872D01*
X29664432Y18581012D01*
X29743073Y18735355D01*
X29796602Y18900099D01*
X29823700Y19071189D01*
X29823700Y19244411D01*
X29796602Y19415501D01*
X29743073Y19580245D01*
X29664432Y19734588D01*
X29562614Y19874728D01*
X29440128Y19997214D01*
X29299988Y20099032D01*
X29145649Y20177672D01*
X28994415Y20226812D01*
X28994403Y20226815D01*
X28980901Y20231202D01*
X28980899Y20231203D01*
X28980898Y20231203D01*
X28966512Y20233482D01*
X28966506Y20233483D01*
X28876388Y20247756D01*
X28849471Y20252019D01*
X28833607Y20254532D01*
X28809814Y20258300D01*
X28809811Y20258300D01*
X28636589Y20258300D01*
X28636588Y20258300D01*
X28596926Y20252019D01*
X28596925Y20252020D01*
X28465504Y20231204D01*
X28300749Y20177671D01*
X28146410Y20099032D01*
X28066456Y20040941D01*
X28066455Y20040941D01*
X28018141Y20005839D01*
X28010764Y20001708D01*
X27879292Y19870236D01*
X27875161Y19862859D01*
X27840059Y19814545D01*
X27840059Y19814544D01*
X27781968Y19734590D01*
X27703329Y19580251D01*
X27703328Y19580249D01*
X27703328Y19580248D01*
X27695652Y19556624D01*
X27649796Y19415495D01*
X27622700Y19244417D01*
X23590500Y19244417D01*
X23590500Y21784417D01*
X27622700Y21784417D01*
X27622700Y21611186D01*
X27644297Y21474827D01*
X27649796Y21440107D01*
X27649797Y21440103D01*
X27649798Y21440099D01*
X27703327Y21275355D01*
X27781968Y21121012D01*
X27883786Y20980872D01*
X28006272Y20858386D01*
X28146412Y20756568D01*
X28300755Y20677927D01*
X28465499Y20624398D01*
X28636589Y20597300D01*
X28636590Y20597300D01*
X28809810Y20597300D01*
X28809811Y20597300D01*
X28980901Y20624398D01*
X29145645Y20677927D01*
X29299988Y20756568D01*
X29440128Y20858386D01*
X29532652Y20950910D01*
X46061466Y20950910D01*
X46061466Y20792797D01*
X46092244Y20677930D01*
X46102388Y20640071D01*
X46102391Y20640065D01*
X46102394Y20640060D01*
X46178589Y20508082D01*
X46178604Y20508058D01*
X46181441Y20503144D01*
X46181445Y20503139D01*
X46181446Y20503137D01*
X46182015Y20502568D01*
X46293253Y20391330D01*
X46293935Y20390839D01*
X46296441Y20389490D01*
X46430175Y20312280D01*
X46430182Y20312276D01*
X46582909Y20271353D01*
X46582911Y20271353D01*
X46741021Y20271353D01*
X46741023Y20271353D01*
X46893750Y20312276D01*
X47030682Y20391333D01*
X47142486Y20503137D01*
X47221543Y20640069D01*
X47262466Y20792796D01*
X47262466Y20836771D01*
X47267488Y20871704D01*
X47274900Y20896949D01*
X47306194Y20949691D01*
X51318469Y24961967D01*
X51318476Y24961971D01*
X51335912Y24979407D01*
X51335913Y24979407D01*
X51410480Y25053974D01*
X51463207Y25145300D01*
X51463607Y25146793D01*
X51490501Y25247160D01*
X51490501Y25352614D01*
X51490501Y25360209D01*
X51490501Y25361893D01*
X51490500Y25361967D01*
X51490500Y25379424D01*
X51492883Y25403615D01*
X51499517Y25436967D01*
X51501352Y25444843D01*
X51540500Y25590943D01*
X51540500Y25749057D01*
X51499577Y25901784D01*
X51499569Y25901797D01*
X51489102Y25919928D01*
X51489102Y25919929D01*
X51447209Y25992489D01*
X51420524Y26038710D01*
X51420518Y26038718D01*
X51420517Y26038719D01*
X51420513Y26038724D01*
X51308722Y26150515D01*
X51308720Y26150516D01*
X51308717Y26150519D01*
X51308709Y26150525D01*
X51221262Y26201012D01*
X51171807Y26229565D01*
X51171783Y26229578D01*
X51059979Y26259536D01*
X51019057Y26270500D01*
X51019056Y26270500D01*
X50860943Y26270500D01*
X50708218Y26229578D01*
X50708211Y26229576D01*
X50708210Y26229575D01*
X50708200Y26229570D01*
X50571298Y26150530D01*
X50571294Y26150528D01*
X50571290Y26150525D01*
X50571282Y26150519D01*
X50571278Y26150516D01*
X50571276Y26150515D01*
X50459485Y26038724D01*
X50459484Y26038722D01*
X50459481Y26038719D01*
X50459481Y26038718D01*
X50459475Y26038710D01*
X50459472Y26038706D01*
X50459470Y26038702D01*
X50380430Y25901800D01*
X50380429Y25901797D01*
X50380426Y25901791D01*
X50380422Y25901782D01*
X50362948Y25836568D01*
X50339500Y25749057D01*
X50339500Y25590943D01*
X50375687Y25455893D01*
X50380423Y25438217D01*
X50380424Y25438214D01*
X50428915Y25354225D01*
X50430646Y25350739D01*
X50431384Y25346570D01*
X50440091Y25324821D01*
X50443396Y25311203D01*
X50443778Y25309628D01*
X50442538Y25283614D01*
X50442835Y25281941D01*
X50442410Y25280926D01*
X50440453Y25239837D01*
X50437554Y25231461D01*
X50408055Y25184337D01*
X46744999Y21521280D01*
X46716748Y21500131D01*
X46693660Y21487523D01*
X46634230Y21472353D01*
X46582909Y21472353D01*
X46430184Y21431431D01*
X46430177Y21431429D01*
X46430176Y21431428D01*
X46430166Y21431423D01*
X46293264Y21352383D01*
X46293260Y21352381D01*
X46293256Y21352378D01*
X46293248Y21352372D01*
X46293244Y21352369D01*
X46293242Y21352368D01*
X46181451Y21240577D01*
X46181450Y21240575D01*
X46181447Y21240572D01*
X46181447Y21240571D01*
X46181441Y21240563D01*
X46181438Y21240559D01*
X46181436Y21240555D01*
X46102396Y21103653D01*
X46102391Y21103643D01*
X46102390Y21103642D01*
X46102388Y21103635D01*
X46061466Y20950910D01*
X29532652Y20950910D01*
X29562614Y20980872D01*
X29664432Y21121012D01*
X29743073Y21275355D01*
X29796602Y21440099D01*
X29823700Y21611189D01*
X29823700Y21784411D01*
X29796602Y21955501D01*
X29743073Y22120245D01*
X29664432Y22274588D01*
X29562614Y22414728D01*
X29440128Y22537214D01*
X29299988Y22639032D01*
X29299986Y22639033D01*
X29145649Y22717672D01*
X28994415Y22766812D01*
X28994403Y22766815D01*
X28980901Y22771202D01*
X28980899Y22771203D01*
X28980898Y22771203D01*
X28966512Y22773482D01*
X28966506Y22773483D01*
X28876388Y22787756D01*
X28849471Y22792019D01*
X28833607Y22794532D01*
X28809814Y22798300D01*
X28809811Y22798300D01*
X28636589Y22798300D01*
X28636588Y22798300D01*
X28596926Y22792019D01*
X28596925Y22792020D01*
X28465504Y22771204D01*
X28300749Y22717671D01*
X28146411Y22639033D01*
X28107141Y22610500D01*
X28107140Y22610500D01*
X28018142Y22545839D01*
X28010763Y22541707D01*
X27879295Y22410239D01*
X27875169Y22402870D01*
X27871649Y22398024D01*
X27871641Y22398012D01*
X27781968Y22274590D01*
X27703329Y22120251D01*
X27649796Y21955495D01*
X27622700Y21784417D01*
X23590500Y21784417D01*
X23590500Y24324411D01*
X27622700Y24324411D01*
X27622700Y24151189D01*
X27628159Y24116722D01*
X27629391Y24108939D01*
X27629392Y24108931D01*
X27635152Y24072567D01*
X27641343Y24033478D01*
X27649798Y23980099D01*
X27703327Y23815355D01*
X27781968Y23661012D01*
X27883786Y23520872D01*
X28006272Y23398386D01*
X28146412Y23296568D01*
X28300755Y23217927D01*
X28465499Y23164398D01*
X28636589Y23137300D01*
X28636590Y23137300D01*
X28809810Y23137300D01*
X28809811Y23137300D01*
X28980901Y23164398D01*
X29145645Y23217927D01*
X29299988Y23296568D01*
X29440128Y23398386D01*
X29562614Y23520872D01*
X29664432Y23661012D01*
X29743073Y23815355D01*
X29796602Y23980099D01*
X29823700Y24151189D01*
X29823700Y24324411D01*
X29823528Y24325494D01*
X29816925Y24367184D01*
X29796602Y24495501D01*
X29743073Y24660245D01*
X29664432Y24814588D01*
X29562614Y24954728D01*
X29440128Y25077214D01*
X29299988Y25179032D01*
X29273626Y25192464D01*
X29145649Y25257672D01*
X28994415Y25306812D01*
X28994403Y25306815D01*
X28980901Y25311202D01*
X28980899Y25311203D01*
X28980898Y25311203D01*
X28966512Y25313482D01*
X28966506Y25313483D01*
X28876388Y25327756D01*
X28849471Y25332019D01*
X28833607Y25334532D01*
X28809814Y25338300D01*
X28809811Y25338300D01*
X28636589Y25338300D01*
X28636588Y25338300D01*
X28596926Y25332019D01*
X28596925Y25332020D01*
X28465504Y25311204D01*
X28300749Y25257671D01*
X28146418Y25179036D01*
X28146414Y25179034D01*
X28146411Y25179033D01*
X28146411Y25179032D01*
X28102044Y25146797D01*
X28099984Y25145300D01*
X28026034Y25091573D01*
X28026030Y25091570D01*
X28006272Y25077214D01*
X28006270Y25077212D01*
X28006269Y25077212D01*
X27883788Y24954731D01*
X27883788Y24954730D01*
X27883786Y24954728D01*
X27869428Y24934967D01*
X27869423Y24934961D01*
X27848733Y24906485D01*
X27848734Y24906484D01*
X27781972Y24814595D01*
X27781968Y24814589D01*
X27781966Y24814587D01*
X27781964Y24814582D01*
X27703329Y24660253D01*
X27649798Y24495503D01*
X27649795Y24495493D01*
X27648302Y24486071D01*
X27648303Y24486070D01*
X27622870Y24325494D01*
X27622870Y24325486D01*
X27622700Y24324411D01*
X23590500Y24324411D01*
X23590500Y26864417D01*
X27622700Y26864417D01*
X27622700Y26691186D01*
X27643046Y26562726D01*
X27649545Y26521693D01*
X27649798Y26520099D01*
X27703327Y26355355D01*
X27781968Y26201012D01*
X27883786Y26060872D01*
X28006272Y25938386D01*
X28146412Y25836568D01*
X28300755Y25757927D01*
X28465499Y25704398D01*
X28636589Y25677300D01*
X28636590Y25677300D01*
X28809810Y25677300D01*
X28809811Y25677300D01*
X28980901Y25704398D01*
X29145645Y25757927D01*
X29299988Y25836568D01*
X29321882Y25852475D01*
X43637000Y25852475D01*
X43637000Y25707525D01*
X43638388Y25702346D01*
X43674513Y25567523D01*
X43674517Y25567512D01*
X43674518Y25567511D01*
X43745131Y25445205D01*
X43746989Y25441987D01*
X43849485Y25339491D01*
X43850174Y25338995D01*
X43852678Y25337647D01*
X43971569Y25269005D01*
X43974587Y25267131D01*
X43975014Y25267017D01*
X43975015Y25267016D01*
X44115025Y25229500D01*
X44115028Y25229500D01*
X44259972Y25229500D01*
X44259975Y25229500D01*
X44399985Y25267016D01*
X44525515Y25339491D01*
X44628009Y25441985D01*
X44700484Y25567515D01*
X44738000Y25707525D01*
X44738000Y25852475D01*
X44700484Y25992485D01*
X44673792Y26038716D01*
X44628011Y26118012D01*
X44628006Y26118018D01*
X44627993Y26118032D01*
X44525530Y26220495D01*
X44525514Y26220510D01*
X44525511Y26220512D01*
X44471741Y26251556D01*
X44443307Y26281377D01*
X44360740Y26303500D01*
X44310357Y26317000D01*
X44259975Y26330500D01*
X44259974Y26330500D01*
X44115025Y26330500D01*
X44014260Y26303500D01*
X44014259Y26303501D01*
X43975012Y26292984D01*
X43975007Y26292982D01*
X43849492Y26220515D01*
X43849484Y26220510D01*
X43849468Y26220495D01*
X43747005Y26118032D01*
X43746990Y26118016D01*
X43746988Y26118012D01*
X43675787Y25994692D01*
X43675786Y25994688D01*
X43674517Y25992489D01*
X43674516Y25992485D01*
X43637000Y25852475D01*
X29321882Y25852475D01*
X29440128Y25938386D01*
X29562614Y26060872D01*
X29664432Y26201012D01*
X29743073Y26355355D01*
X29796602Y26520099D01*
X29823700Y26691189D01*
X29823700Y26864411D01*
X29796602Y27035501D01*
X29743073Y27200245D01*
X29664432Y27354588D01*
X29562614Y27494728D01*
X29440128Y27617214D01*
X29299988Y27719032D01*
X29145649Y27797672D01*
X28994415Y27846812D01*
X28994403Y27846815D01*
X28980901Y27851202D01*
X28980899Y27851203D01*
X28980898Y27851203D01*
X28966512Y27853482D01*
X28966506Y27853483D01*
X28876388Y27867756D01*
X28849471Y27872019D01*
X28833607Y27874532D01*
X28809814Y27878300D01*
X28809811Y27878300D01*
X28636589Y27878300D01*
X28636588Y27878300D01*
X28596926Y27872019D01*
X28596925Y27872020D01*
X28465504Y27851204D01*
X28300749Y27797671D01*
X28146410Y27719032D01*
X28066456Y27660941D01*
X28066455Y27660941D01*
X28018141Y27625839D01*
X28010764Y27621708D01*
X27879292Y27490236D01*
X27875161Y27482859D01*
X27840059Y27434545D01*
X27840059Y27434544D01*
X27781968Y27354590D01*
X27703329Y27200251D01*
X27649796Y27035495D01*
X27622700Y26864417D01*
X23590500Y26864417D01*
X23590500Y31960124D01*
X27423200Y31960124D01*
X27423200Y31755478D01*
X27450052Y31585945D01*
X27455209Y31553383D01*
X27518444Y31358769D01*
X27550281Y31296286D01*
X27611344Y31176443D01*
X27611347Y31176440D01*
X27643717Y31131886D01*
X27643721Y31131881D01*
X27643723Y31131879D01*
X27643724Y31131878D01*
X28186703Y31674858D01*
X28248024Y31708341D01*
X28317715Y31703357D01*
X28373649Y31661486D01*
X28381767Y31649178D01*
X28403120Y31612194D01*
X28477594Y31537720D01*
X28477595Y31537719D01*
X28477597Y31537718D01*
X28514573Y31516370D01*
X28562788Y31465804D01*
X28576012Y31397197D01*
X28550044Y31332332D01*
X28540254Y31321302D01*
X27997275Y30778327D01*
X27997276Y30778327D01*
X27997276Y30778326D01*
X28041850Y30745941D01*
X28123317Y30704432D01*
X28224165Y30653047D01*
X28224167Y30653047D01*
X28224170Y30653045D01*
X28367859Y30606357D01*
X28424706Y30567921D01*
X28425563Y30566895D01*
X28434881Y30560521D01*
X28462069Y30496158D01*
X28450144Y30427314D01*
X28430217Y30398183D01*
X28428121Y30395900D01*
X28375099Y30361830D01*
X28300748Y30337672D01*
X28146411Y30259033D01*
X28094016Y30220964D01*
X28094015Y30220964D01*
X28018142Y30165839D01*
X28010763Y30161707D01*
X27879292Y30030236D01*
X27875161Y30022859D01*
X27840059Y29974545D01*
X27840059Y29974544D01*
X27781968Y29894590D01*
X27703329Y29740251D01*
X27649796Y29575495D01*
X27649795Y29575494D01*
X27633736Y29474094D01*
X27623506Y29409500D01*
X27622700Y29404411D01*
X27622700Y29231189D01*
X27649798Y29060099D01*
X27703327Y28895355D01*
X27781968Y28741012D01*
X27883786Y28600872D01*
X28006272Y28478386D01*
X28146412Y28376568D01*
X28300755Y28297927D01*
X28465499Y28244398D01*
X28636589Y28217300D01*
X28636590Y28217300D01*
X28809810Y28217300D01*
X28809811Y28217300D01*
X28980901Y28244398D01*
X29145645Y28297927D01*
X29299988Y28376568D01*
X29440128Y28478386D01*
X29562614Y28600872D01*
X29664432Y28741012D01*
X29743073Y28895355D01*
X29796602Y29060099D01*
X29823700Y29231189D01*
X29823700Y29404411D01*
X29796602Y29575501D01*
X29743073Y29740245D01*
X29664432Y29894588D01*
X29562614Y30034728D01*
X29440128Y30157214D01*
X29299988Y30259032D01*
X29299987Y30259033D01*
X29299985Y30259034D01*
X29287294Y30265501D01*
X29287294Y30265500D01*
X29145652Y30337671D01*
X29078541Y30359477D01*
X29021710Y30397893D01*
X29020836Y30398939D01*
X29011518Y30405312D01*
X28984329Y30469675D01*
X28996253Y30538519D01*
X29016172Y30567641D01*
X29018278Y30569936D01*
X29071297Y30604004D01*
X29222229Y30653045D01*
X29404549Y30745941D01*
X29449121Y30778326D01*
X28906145Y31321302D01*
X28872660Y31382625D01*
X28877644Y31452317D01*
X28919516Y31508250D01*
X28931818Y31516366D01*
X28968806Y31537720D01*
X29043280Y31612194D01*
X29064629Y31649173D01*
X29115194Y31697387D01*
X29183800Y31710612D01*
X29248666Y31684645D01*
X29259697Y31674854D01*
X29802673Y31131878D01*
X29802673Y31131879D01*
X29802674Y31131878D01*
X29802674Y31131879D01*
X29816143Y31137458D01*
X29822359Y31158626D01*
X29826359Y31164476D01*
X29835057Y31176448D01*
X29838203Y31182621D01*
X29927955Y31358769D01*
X29991190Y31553383D01*
X30023200Y31755483D01*
X30023200Y31960118D01*
X29991190Y32162218D01*
X29927955Y32356832D01*
X29927953Y32356835D01*
X29927953Y32356837D01*
X29835059Y32539150D01*
X29826356Y32551128D01*
X29816815Y32577867D01*
X29802673Y32583725D01*
X29259697Y32040747D01*
X29198374Y32007262D01*
X29128683Y32012246D01*
X29072749Y32054117D01*
X29064630Y32066426D01*
X29043280Y32103406D01*
X28968806Y32177880D01*
X28931825Y32199231D01*
X28883610Y32249797D01*
X28870386Y32318404D01*
X28896354Y32383269D01*
X28906136Y32394291D01*
X29449122Y32937276D01*
X29449121Y32937277D01*
X29449120Y32937278D01*
X29449119Y32937279D01*
X29449114Y32937283D01*
X29404560Y32969653D01*
X29404557Y32969656D01*
X29222235Y33062555D01*
X29078541Y33109244D01*
X29021726Y33147642D01*
X29020852Y33148687D01*
X29011538Y33155054D01*
X28984333Y33219410D01*
X28996239Y33288258D01*
X29016151Y33317387D01*
X29018255Y33319679D01*
X29071294Y33353770D01*
X29145645Y33377927D01*
X29299988Y33456568D01*
X29440128Y33558386D01*
X29562614Y33680872D01*
X29664432Y33821012D01*
X29743073Y33975355D01*
X29796602Y34140099D01*
X29823700Y34311189D01*
X29823700Y34319834D01*
X32839500Y34319834D01*
X32839500Y30895620D01*
X32839500Y30790166D01*
X32839515Y30790111D01*
X32839515Y30790103D01*
X32839624Y30789702D01*
X32866793Y30688304D01*
X32893155Y30642644D01*
X32900711Y30629557D01*
X32919520Y30596980D01*
X32919522Y30596978D01*
X33151913Y30364587D01*
X33173065Y30336331D01*
X33180557Y30322610D01*
X33195408Y30254343D01*
X33194776Y30245502D01*
X33178481Y30192348D01*
X33175180Y30186630D01*
X33175179Y30186631D01*
X33175178Y30186625D01*
X33167015Y30172488D01*
X33162466Y30155507D01*
X33151087Y30113040D01*
X33129500Y30032475D01*
X33129500Y29887525D01*
X33164770Y29755897D01*
X33167017Y29747512D01*
X33175215Y29733312D01*
X33237635Y29625199D01*
X33237637Y29625195D01*
X33239488Y29621988D01*
X33341985Y29519491D01*
X33342674Y29518995D01*
X33345178Y29517647D01*
X33464069Y29449005D01*
X33467087Y29447131D01*
X33467514Y29447017D01*
X33467515Y29447016D01*
X33607525Y29409500D01*
X33607528Y29409500D01*
X33752472Y29409500D01*
X33752475Y29409500D01*
X33892485Y29447016D01*
X34018015Y29519491D01*
X34120509Y29621985D01*
X34192984Y29747515D01*
X34230500Y29887525D01*
X34230500Y30032475D01*
X34192984Y30172485D01*
X34179182Y30196390D01*
X34120511Y30298012D01*
X34120506Y30298018D01*
X34117936Y30300588D01*
X34111768Y30311083D01*
X34111541Y30311985D01*
X34109841Y30314484D01*
X34097180Y30337671D01*
X34095666Y30340444D01*
X34080500Y30399868D01*
X34080500Y30455619D01*
X34080499Y30455623D01*
X34069139Y30498019D01*
X34065980Y30546344D01*
X34066236Y30548291D01*
X34067016Y30553018D01*
X34067050Y30554450D01*
X34067702Y30559387D01*
X34071762Y30568557D01*
X34084755Y30607697D01*
X34090369Y30616907D01*
X34108558Y30640035D01*
X34127201Y30658677D01*
X34180509Y30711985D01*
X34252984Y30837515D01*
X34290500Y30977525D01*
X34290500Y30977531D01*
X34290525Y30977624D01*
X34294449Y30996196D01*
X34302935Y31025096D01*
X34334228Y31077836D01*
X35868513Y32612121D01*
X35896763Y32633269D01*
X35919855Y32645877D01*
X35979280Y32661044D01*
X60714269Y32661044D01*
X60714271Y32661044D01*
X60816132Y32688337D01*
X60907457Y32741064D01*
X61696969Y33530577D01*
X61725219Y33551725D01*
X61748311Y33564333D01*
X61794712Y33576177D01*
X61794415Y33578439D01*
X61802471Y33579500D01*
X61802472Y33579500D01*
X61802475Y33579500D01*
X61942485Y33617016D01*
X62068015Y33689491D01*
X62170509Y33791985D01*
X62242984Y33917515D01*
X62280500Y34057525D01*
X62280500Y34202475D01*
X62242984Y34342485D01*
X62241840Y34344466D01*
X62170511Y34468012D01*
X62170506Y34468018D01*
X62068013Y34570511D01*
X62067321Y34571010D01*
X62064802Y34572365D01*
X62014242Y34601556D01*
X61985809Y34631375D01*
X61922993Y34648207D01*
X61922993Y34648208D01*
X61821135Y34675500D01*
X61802475Y34680500D01*
X61802474Y34680500D01*
X61657525Y34680500D01*
X61537006Y34648207D01*
X61537005Y34648208D01*
X61517510Y34642984D01*
X61517507Y34642982D01*
X61391992Y34570515D01*
X61391984Y34570510D01*
X61391968Y34570495D01*
X61289505Y34468032D01*
X61289490Y34468016D01*
X61289485Y34468008D01*
X61217017Y34342491D01*
X61216998Y34342445D01*
X61216956Y34342277D01*
X61216797Y34341671D01*
X61179500Y34202475D01*
X61179500Y34202473D01*
X61179500Y34198720D01*
X61176553Y34187425D01*
X61176184Y34186812D01*
X61175547Y34183794D01*
X61167065Y34154908D01*
X61135769Y34102163D01*
X60544577Y33510971D01*
X60516326Y33489822D01*
X60493238Y33477214D01*
X60433808Y33462044D01*
X44692330Y33462044D01*
X44657389Y33467069D01*
X44642390Y33471474D01*
X44583644Y33509217D01*
X44582457Y33510586D01*
X44554977Y33565461D01*
X44553332Y33573023D01*
X44550500Y33599376D01*
X44550500Y33634017D01*
X44550500Y33634019D01*
X44512984Y33774029D01*
X44512982Y33774032D01*
X44512983Y33774032D01*
X44503891Y33789779D01*
X44503890Y33789780D01*
X44440513Y33899553D01*
X44440508Y33899560D01*
X44440493Y33899576D01*
X44338030Y34002039D01*
X44338014Y34002054D01*
X44338006Y34002059D01*
X44284243Y34033099D01*
X44255808Y34062920D01*
X44201007Y34077605D01*
X44201007Y34077604D01*
X44109351Y34102163D01*
X44072475Y34112044D01*
X44072474Y34112044D01*
X43927525Y34112044D01*
X43798994Y34077605D01*
X43798993Y34077604D01*
X43791338Y34075553D01*
X43787510Y34074527D01*
X43661991Y34002059D01*
X43657631Y33999016D01*
X43657345Y33999426D01*
X43645511Y33991383D01*
X43619562Y33977213D01*
X43560133Y33962044D01*
X40471041Y33962044D01*
X40436105Y33967067D01*
X40410863Y33974479D01*
X40358118Y34005775D01*
X39768415Y34595478D01*
X39768409Y34595483D01*
X39701650Y34634026D01*
X39701648Y34634027D01*
X39701646Y34634028D01*
X39686137Y34642983D01*
X39677090Y34648207D01*
X39649867Y34655501D01*
X39626157Y34661854D01*
X39626156Y34661855D01*
X39575230Y34675500D01*
X39575227Y34675500D01*
X39575226Y34675500D01*
X39491023Y34675500D01*
X39456087Y34680523D01*
X39438029Y34685826D01*
X39383224Y34719232D01*
X39370898Y34732159D01*
X39368120Y34735404D01*
X39362364Y34741160D01*
X39360304Y34743269D01*
X39345217Y34759091D01*
X39339115Y34764409D01*
X39263013Y34840511D01*
X39262321Y34841010D01*
X39259802Y34842365D01*
X39209243Y34871555D01*
X39180808Y34901376D01*
X39126007Y34916061D01*
X39126007Y34916060D01*
X39061740Y34933280D01*
X38997475Y34950500D01*
X38997474Y34950500D01*
X38852525Y34950500D01*
X38723994Y34916061D01*
X38723993Y34916060D01*
X38716338Y34914009D01*
X38712510Y34912983D01*
X38586991Y34840515D01*
X38586984Y34840510D01*
X38586968Y34840495D01*
X38484505Y34738032D01*
X38484490Y34738016D01*
X38484485Y34738008D01*
X38412017Y34612491D01*
X38411989Y34612422D01*
X38411748Y34611489D01*
X38374500Y34472475D01*
X38374500Y34327526D01*
X38408007Y34202476D01*
X38412017Y34187512D01*
X38412018Y34187509D01*
X38482631Y34065205D01*
X38484489Y34061987D01*
X38586985Y33959491D01*
X38587674Y33958995D01*
X38590178Y33957647D01*
X38709069Y33889005D01*
X38712087Y33887131D01*
X38712514Y33887017D01*
X38712515Y33887016D01*
X38852525Y33849500D01*
X38852528Y33849500D01*
X38997473Y33849500D01*
X38997475Y33849500D01*
X39065580Y33867750D01*
X39065582Y33867741D01*
X39065628Y33867764D01*
X39067219Y33868190D01*
X39083037Y33871334D01*
X39090455Y33872311D01*
X39090457Y33872312D01*
X39094641Y33872863D01*
X39094655Y33872754D01*
X39102017Y33873719D01*
X39101999Y33873908D01*
X39102133Y33873921D01*
X39104402Y33874031D01*
X39105870Y33874223D01*
X39106375Y33874254D01*
X39106382Y33874127D01*
X39114107Y33874500D01*
X39287415Y33874500D01*
X39322347Y33869479D01*
X39347591Y33862066D01*
X39400337Y33830770D01*
X39544774Y33686333D01*
X39565923Y33658083D01*
X39571344Y33648156D01*
X39586198Y33579883D01*
X39561784Y33514418D01*
X39505852Y33472545D01*
X39505848Y33472543D01*
X39498660Y33469862D01*
X39455326Y33462044D01*
X35698815Y33462044D01*
X35596955Y33434752D01*
X35596952Y33434751D01*
X35505641Y33382031D01*
X35505626Y33382021D01*
X35505624Y33382020D01*
X33864788Y31741182D01*
X33836538Y31720033D01*
X33826611Y31714612D01*
X33758338Y31699758D01*
X33692873Y31724172D01*
X33651000Y31780104D01*
X33648313Y31787310D01*
X33640500Y31830630D01*
X33640500Y34032024D01*
X33645522Y34066957D01*
X33647745Y34074527D01*
X33652934Y34092202D01*
X33684228Y34144944D01*
X43082361Y43543077D01*
X43110611Y43564225D01*
X43133703Y43576833D01*
X43193128Y43592000D01*
X49792725Y43592000D01*
X49792727Y43592000D01*
X49894588Y43619293D01*
X49985913Y43672020D01*
X51692398Y45378508D01*
X51720649Y45399656D01*
X51734375Y45407151D01*
X51802630Y45422000D01*
X51804440Y45421871D01*
X51862637Y45402505D01*
X51869155Y45398316D01*
X51889790Y45381686D01*
X51961985Y45309491D01*
X51962674Y45308995D01*
X51965178Y45307647D01*
X52084069Y45239005D01*
X52087087Y45237131D01*
X52087514Y45237017D01*
X52087515Y45237016D01*
X52227525Y45199500D01*
X52227528Y45199500D01*
X52372472Y45199500D01*
X52372475Y45199500D01*
X52512485Y45237016D01*
X52638015Y45309491D01*
X52740509Y45411985D01*
X52812984Y45537515D01*
X52850500Y45677525D01*
X52850500Y45677531D01*
X52850525Y45677624D01*
X52854449Y45696196D01*
X52862935Y45725096D01*
X52894229Y45777837D01*
X52936057Y45819664D01*
X53020480Y45904087D01*
X53057520Y45968242D01*
X53073207Y45995413D01*
X53100500Y46097273D01*
X53100500Y47314879D01*
X53100501Y47314930D01*
X53100501Y47432724D01*
X53100501Y47432726D01*
X53073207Y47534587D01*
X53020480Y47625913D01*
X52945913Y47700480D01*
X52945912Y47700481D01*
X52941582Y47704811D01*
X52940560Y47705833D01*
X52940517Y47705875D01*
X51215387Y49431005D01*
X55119499Y49431005D01*
X55146418Y49295678D01*
X55146421Y49295668D01*
X55146929Y49294441D01*
X55146930Y49294437D01*
X55199217Y49168203D01*
X55199222Y49168194D01*
X55199232Y49168177D01*
X55275886Y49053457D01*
X55275887Y49053456D01*
X55275892Y49053450D01*
X55366186Y48963156D01*
X55380978Y48945298D01*
X55397815Y48920587D01*
X55417825Y48870083D01*
X55417986Y48869062D01*
X55419500Y48849747D01*
X55419500Y38927270D01*
X55426536Y38901012D01*
X55433146Y38876343D01*
X55446793Y38825411D01*
X55446794Y38825410D01*
X55473155Y38779751D01*
X55488374Y38753391D01*
X55499520Y38734087D01*
X55499522Y38734085D01*
X59036410Y35197197D01*
X59056116Y35171517D01*
X59071886Y35144203D01*
X59084273Y35114300D01*
X59093198Y35080993D01*
X59093200Y35080990D01*
X59093204Y35080982D01*
X59169399Y34949005D01*
X59169414Y34948981D01*
X59172251Y34944067D01*
X59172255Y34944062D01*
X59172256Y34944060D01*
X59172825Y34943491D01*
X59284063Y34832253D01*
X59284745Y34831762D01*
X59287251Y34830413D01*
X59420985Y34753203D01*
X59420992Y34753199D01*
X59573719Y34712276D01*
X59573721Y34712276D01*
X59731831Y34712276D01*
X59731833Y34712276D01*
X59884560Y34753199D01*
X60021492Y34832256D01*
X60133296Y34944060D01*
X60212353Y35080992D01*
X60253276Y35233719D01*
X60253276Y35391833D01*
X60212353Y35544560D01*
X60212349Y35544567D01*
X60133300Y35681486D01*
X60133294Y35681494D01*
X60133290Y35681498D01*
X60133289Y35681500D01*
X60021498Y35793291D01*
X60021496Y35793292D01*
X60021493Y35793295D01*
X60021485Y35793301D01*
X59994923Y35808636D01*
X59884583Y35872341D01*
X59884559Y35872354D01*
X59757797Y35906319D01*
X59731833Y35913276D01*
X59731832Y35913276D01*
X59573713Y35913276D01*
X59564973Y35910934D01*
X59529928Y35906744D01*
X59511117Y35907192D01*
X59449528Y35925278D01*
X59440629Y35930703D01*
X59417497Y35948896D01*
X56269426Y39096967D01*
X56248274Y39125223D01*
X56235667Y39148312D01*
X56220500Y39207737D01*
X56220500Y45010222D01*
X71599500Y45010222D01*
X71599500Y44789778D01*
X71606324Y44746694D01*
X71615776Y44687018D01*
X71615776Y44687017D01*
X71633984Y44572050D01*
X71633986Y44572041D01*
X71702094Y44362421D01*
X71702102Y44362398D01*
X71702104Y44362394D01*
X71802187Y44165974D01*
X71898816Y44032975D01*
X71931752Y43987642D01*
X71931756Y43987637D01*
X71931761Y43987631D01*
X72087627Y43831765D01*
X72087636Y43831757D01*
X72087660Y43831739D01*
X72215643Y43738755D01*
X72240197Y43720916D01*
X72265978Y43702185D01*
X72386401Y43640826D01*
X72462393Y43602105D01*
X72462396Y43602104D01*
X72539777Y43576962D01*
X72672049Y43533985D01*
X72889778Y43499500D01*
X72889779Y43499500D01*
X73110221Y43499500D01*
X73110222Y43499500D01*
X73327951Y43533985D01*
X73537606Y43602105D01*
X73734022Y43702185D01*
X73912365Y43831758D01*
X74068242Y43987635D01*
X74197815Y44165978D01*
X74297895Y44362394D01*
X74366015Y44572049D01*
X74400500Y44789778D01*
X74400500Y45010222D01*
X74366015Y45227951D01*
X74313002Y45391111D01*
X74297896Y45437604D01*
X74297895Y45437607D01*
X74246735Y45538012D01*
X74197815Y45634022D01*
X74155329Y45692499D01*
X74068247Y45812359D01*
X74068243Y45812364D01*
X74068242Y45812365D01*
X74068235Y45812373D01*
X73912370Y45968238D01*
X73912365Y45968242D01*
X73912363Y45968244D01*
X73912358Y45968248D01*
X73885832Y45987520D01*
X73744630Y46090109D01*
X73744618Y46090117D01*
X73734025Y46097813D01*
X73734024Y46097814D01*
X73734022Y46097815D01*
X73727909Y46100930D01*
X73727898Y46100937D01*
X73671098Y46129877D01*
X73671096Y46129878D01*
X73537606Y46197896D01*
X73537602Y46197898D01*
X73537579Y46197906D01*
X73327954Y46266015D01*
X73327955Y46266015D01*
X73219086Y46283258D01*
X73110227Y46300500D01*
X73110222Y46300500D01*
X72889778Y46300500D01*
X72839274Y46292501D01*
X72839268Y46292500D01*
X72672043Y46266015D01*
X72462419Y46197906D01*
X72462396Y46197898D01*
X72462392Y46197896D01*
X72265972Y46097813D01*
X72087658Y45968261D01*
X72087628Y45968238D01*
X71931761Y45812371D01*
X71931739Y45812342D01*
X71802187Y45634028D01*
X71702104Y45437608D01*
X71702102Y45437604D01*
X71702094Y45437581D01*
X71633986Y45227961D01*
X71633985Y45227954D01*
X71610882Y45082083D01*
X71608437Y45066647D01*
X71599500Y45010222D01*
X56220500Y45010222D01*
X56220500Y48841624D01*
X56225523Y48876558D01*
X56232339Y48899772D01*
X56258697Y48947286D01*
X56262385Y48951428D01*
X56262384Y48951429D01*
X56262430Y48951480D01*
X56267349Y48956694D01*
X56364114Y49053458D01*
X56440775Y49168189D01*
X56440778Y49168196D01*
X56442550Y49172475D01*
X64749500Y49172475D01*
X64749500Y49027526D01*
X64787013Y48887523D01*
X64787016Y48887515D01*
X64787017Y48887512D01*
X64797080Y48870083D01*
X64857631Y48765205D01*
X64859489Y48761987D01*
X64961985Y48659491D01*
X64962674Y48658995D01*
X64965178Y48657647D01*
X65084069Y48589005D01*
X65087087Y48587131D01*
X65087514Y48587017D01*
X65087515Y48587016D01*
X65227525Y48549500D01*
X65227528Y48549500D01*
X65372472Y48549500D01*
X65372475Y48549500D01*
X65512485Y48587016D01*
X65638015Y48659491D01*
X65638015Y48659492D01*
X65638101Y48659541D01*
X65654008Y48669900D01*
X65680444Y48684335D01*
X65739867Y48699500D01*
X73964915Y48699500D01*
X73999847Y48694479D01*
X74025091Y48687066D01*
X74077837Y48655770D01*
X77433318Y45300289D01*
X77454470Y45272033D01*
X77461962Y45258312D01*
X77476814Y45190052D01*
X77476685Y45188246D01*
X77457317Y45130043D01*
X77453136Y45123537D01*
X77436500Y45102894D01*
X70479526Y38145922D01*
X70479521Y38145916D01*
X70479511Y38145900D01*
X70426795Y38054595D01*
X70426790Y38054584D01*
X70424337Y38045424D01*
X70424336Y38045418D01*
X70415168Y38011202D01*
X70399500Y37952729D01*
X70399500Y37747216D01*
X70394476Y37712278D01*
X70386993Y37686796D01*
X70362135Y37642643D01*
X70362528Y37642369D01*
X70361108Y37640335D01*
X70361294Y37640180D01*
X70359614Y37638165D01*
X70359596Y37638132D01*
X70359497Y37638024D01*
X70359488Y37638012D01*
X70287017Y37512491D01*
X70286989Y37512422D01*
X70286748Y37511489D01*
X70249500Y37372475D01*
X70249500Y37227525D01*
X70258082Y37195498D01*
X70285160Y37094441D01*
X70287018Y37087509D01*
X70357631Y36965205D01*
X70359489Y36961987D01*
X70461985Y36859491D01*
X70462674Y36858995D01*
X70465178Y36857647D01*
X70584069Y36789005D01*
X70587087Y36787131D01*
X70587514Y36787017D01*
X70587515Y36787016D01*
X70727525Y36749500D01*
X70727528Y36749500D01*
X70872472Y36749500D01*
X70872475Y36749500D01*
X71012485Y36787016D01*
X71138015Y36859491D01*
X71240509Y36961985D01*
X71312984Y37087515D01*
X71350500Y37227525D01*
X71350500Y37372475D01*
X71312984Y37512485D01*
X71247176Y37626467D01*
X71234062Y37659226D01*
X71230376Y37674420D01*
X71233699Y37744201D01*
X71236600Y37752584D01*
X71266097Y37799706D01*
X78066969Y44600577D01*
X78095219Y44621725D01*
X78118311Y44634333D01*
X78164712Y44646177D01*
X78164415Y44648439D01*
X78172471Y44649500D01*
X78172472Y44649500D01*
X78172475Y44649500D01*
X78312485Y44687016D01*
X78438015Y44759491D01*
X78540509Y44861985D01*
X78612984Y44987515D01*
X78650500Y45127525D01*
X78650500Y45272475D01*
X78612984Y45412485D01*
X78612982Y45412488D01*
X78612982Y45412490D01*
X78608870Y45419612D01*
X78608867Y45419615D01*
X78605991Y45424596D01*
X78540511Y45538012D01*
X78540506Y45538018D01*
X78540493Y45538032D01*
X78438030Y45640495D01*
X78438014Y45640510D01*
X78438006Y45640515D01*
X78384243Y45671555D01*
X78355808Y45701376D01*
X78301007Y45716061D01*
X78301007Y45716060D01*
X78248105Y45730235D01*
X78172475Y45750500D01*
X78172474Y45750500D01*
X78172384Y45750524D01*
X78153793Y45754453D01*
X78124907Y45762935D01*
X78072162Y45794231D01*
X74445915Y49420478D01*
X74445913Y49420480D01*
X74435119Y49426712D01*
X74400250Y49446845D01*
X74400250Y49446844D01*
X74354586Y49473209D01*
X74301604Y49487404D01*
X74252728Y49500500D01*
X74252727Y49500500D01*
X74252726Y49500500D01*
X65747216Y49500500D01*
X65712280Y49505523D01*
X65686796Y49513006D01*
X65642642Y49537866D01*
X65642368Y49537472D01*
X65640326Y49538897D01*
X65640172Y49538711D01*
X65638152Y49540394D01*
X65638124Y49540410D01*
X65638014Y49540510D01*
X65638006Y49540515D01*
X65588670Y49568999D01*
X65584242Y49571556D01*
X65555808Y49601376D01*
X65501007Y49616061D01*
X65501007Y49616060D01*
X65436740Y49633280D01*
X65372475Y49650500D01*
X65372474Y49650500D01*
X65227525Y49650500D01*
X65098994Y49616061D01*
X65098993Y49616060D01*
X65091338Y49614009D01*
X65087510Y49612983D01*
X64961991Y49540515D01*
X64961984Y49540510D01*
X64961968Y49540495D01*
X64859505Y49438032D01*
X64859490Y49438016D01*
X64859485Y49438008D01*
X64787017Y49312491D01*
X64786989Y49312422D01*
X64786748Y49311489D01*
X64749500Y49172475D01*
X56442550Y49172475D01*
X56465572Y49228054D01*
X56465572Y49228055D01*
X56493580Y49295672D01*
X56518406Y49420480D01*
X56520500Y49431005D01*
X56520500Y49568999D01*
X56493640Y49704025D01*
X56493639Y49704030D01*
X56493340Y49705531D01*
X56491260Y49709928D01*
X56440778Y49831805D01*
X56440771Y49831818D01*
X56364114Y49946542D01*
X56364111Y49946546D01*
X56364106Y49946552D01*
X56266550Y50044108D01*
X56266544Y50044113D01*
X56266543Y50044114D01*
X56151823Y50120768D01*
X56151822Y50120769D01*
X56151817Y50120772D01*
X56151804Y50120779D01*
X56151797Y50120783D01*
X56024354Y50173571D01*
X56024340Y50173576D01*
X56024332Y50173579D01*
X56024322Y50173582D01*
X56024319Y50173583D01*
X56024315Y50173584D01*
X55888998Y50200500D01*
X55888995Y50200500D01*
X55888993Y50200500D01*
X55751007Y50200500D01*
X55751005Y50200500D01*
X55751000Y50200500D01*
X55615683Y50173584D01*
X55615677Y50173582D01*
X55615667Y50173579D01*
X55615662Y50173578D01*
X55615644Y50173571D01*
X55488201Y50120783D01*
X55488192Y50120778D01*
X55488175Y50120768D01*
X55373455Y50044114D01*
X55373454Y50044113D01*
X55373448Y50044108D01*
X55275892Y49946552D01*
X55275887Y49946546D01*
X55275886Y49946545D01*
X55199232Y49831825D01*
X55199222Y49831808D01*
X55199217Y49831799D01*
X55146429Y49704356D01*
X55146416Y49704317D01*
X55119500Y49569000D01*
X55119500Y49568996D01*
X55119500Y49568993D01*
X55119500Y49431007D01*
X55119500Y49431005D01*
X55119499Y49431005D01*
X51215387Y49431005D01*
X50378143Y50268249D01*
X47949426Y52696967D01*
X47928274Y52725223D01*
X47915667Y52748312D01*
X47900500Y52807737D01*
X47900500Y54232785D01*
X47905522Y54267718D01*
X47912934Y54292963D01*
X47937376Y54334147D01*
X47935562Y54335539D01*
X47940504Y54341981D01*
X47940509Y54341985D01*
X48012984Y54467515D01*
X48050500Y54607525D01*
X48050500Y54752475D01*
X48012984Y54892485D01*
X47975431Y54957528D01*
X47940511Y55018012D01*
X47940506Y55018018D01*
X47940493Y55018032D01*
X47838030Y55120495D01*
X47838014Y55120510D01*
X47838006Y55120515D01*
X47784243Y55151555D01*
X47755808Y55181376D01*
X47701007Y55196061D01*
X47701007Y55196060D01*
X47636740Y55213280D01*
X47572475Y55230500D01*
X47572474Y55230500D01*
X47427525Y55230500D01*
X47298994Y55196061D01*
X47298993Y55196060D01*
X47291338Y55194009D01*
X47287510Y55192983D01*
X47161991Y55120515D01*
X47161984Y55120510D01*
X47161968Y55120495D01*
X47059505Y55018032D01*
X47059490Y55018016D01*
X47059485Y55018008D01*
X46987017Y54892491D01*
X46986989Y54892422D01*
X46986748Y54891489D01*
X46949500Y54752475D01*
X46949500Y54607525D01*
X46977748Y54502105D01*
X46977747Y54502105D01*
X46987015Y54467517D01*
X46987018Y54467510D01*
X47059485Y54341994D01*
X47062528Y54337632D01*
X47062116Y54337345D01*
X47070159Y54325515D01*
X47084331Y54299562D01*
X47099500Y54240133D01*
X47099500Y52527273D01*
X47126793Y52425411D01*
X47139881Y52402743D01*
X47139881Y52402741D01*
X47179515Y52334094D01*
X47179522Y52334085D01*
X48783607Y50730000D01*
X50318819Y49194789D01*
X50339968Y49166539D01*
X50345389Y49156612D01*
X50360243Y49088339D01*
X50335829Y49022874D01*
X50279897Y48981001D01*
X50279893Y48980999D01*
X50272705Y48978318D01*
X50229371Y48970500D01*
X49865085Y48970500D01*
X49830149Y48975523D01*
X49804907Y48982935D01*
X49752162Y49014231D01*
X47269426Y51496967D01*
X47248274Y51525223D01*
X47235667Y51548312D01*
X47223824Y51594713D01*
X47221561Y51594415D01*
X47220500Y51602472D01*
X47220500Y51602473D01*
X47220500Y51602475D01*
X47182984Y51742485D01*
X47158788Y51784393D01*
X47110511Y51868012D01*
X47110506Y51868018D01*
X47008013Y51970511D01*
X47007321Y51971010D01*
X47004802Y51972365D01*
X46954243Y52001555D01*
X46942997Y52013349D01*
X46928685Y52021138D01*
X46922606Y52032234D01*
X46871007Y52046061D01*
X46871007Y52046060D01*
X46806740Y52063280D01*
X46742475Y52080500D01*
X46742474Y52080500D01*
X46597525Y52080500D01*
X46468994Y52046061D01*
X46468993Y52046060D01*
X46461338Y52044009D01*
X46457510Y52042983D01*
X46331991Y51970515D01*
X46331984Y51970510D01*
X46331968Y51970495D01*
X46229505Y51868032D01*
X46229490Y51868016D01*
X46229485Y51868008D01*
X46157017Y51742491D01*
X46156989Y51742422D01*
X46156748Y51741489D01*
X46134179Y51657259D01*
X46119500Y51602475D01*
X46119500Y51457525D01*
X46148676Y51348641D01*
X46148675Y51348641D01*
X46157016Y51317514D01*
X46157018Y51317509D01*
X46227631Y51195205D01*
X46229489Y51191987D01*
X46331985Y51089491D01*
X46332674Y51088995D01*
X46335178Y51087647D01*
X46454069Y51019005D01*
X46457087Y51017131D01*
X46457514Y51017017D01*
X46457515Y51017016D01*
X46597525Y50979500D01*
X46597528Y50979500D01*
X46597632Y50979472D01*
X46616198Y50975550D01*
X46645093Y50967065D01*
X46697837Y50935770D01*
X49384087Y48249520D01*
X49475412Y48196793D01*
X49577273Y48169500D01*
X50294915Y48169500D01*
X50329847Y48164479D01*
X50355091Y48157066D01*
X50407837Y48125770D01*
X51600573Y46933035D01*
X51621723Y46904783D01*
X51634331Y46881694D01*
X51646176Y46835288D01*
X51648439Y46835585D01*
X51649500Y46827526D01*
X51649500Y46827525D01*
X51655680Y46804461D01*
X51678847Y46717999D01*
X51687015Y46687516D01*
X51687016Y46687513D01*
X51696999Y46670223D01*
X51710117Y46637456D01*
X51713802Y46622266D01*
X51710477Y46552475D01*
X51707578Y46544099D01*
X51678079Y46496975D01*
X50043823Y44862719D01*
X50015569Y44841568D01*
X49997153Y44831512D01*
X49938835Y44816349D01*
X49932128Y44816289D01*
X49920426Y44817390D01*
X49917576Y44816526D01*
X49589582Y44488530D01*
X49528259Y44455045D01*
X49458568Y44460029D01*
X49402634Y44501900D01*
X49387340Y44528758D01*
X49384825Y44534830D01*
X49367164Y44577468D01*
X49324968Y44619664D01*
X49319990Y44621726D01*
X49305602Y44627686D01*
X49305601Y44627686D01*
X49269837Y44642500D01*
X49210163Y44642500D01*
X49155032Y44619664D01*
X49145566Y44610199D01*
X49145565Y44610198D01*
X49112837Y44577470D01*
X49112836Y44577469D01*
X49112836Y44577468D01*
X49110591Y44572048D01*
X49092659Y44528756D01*
X49048817Y44474353D01*
X48982523Y44452289D01*
X48914823Y44469569D01*
X48890417Y44488529D01*
X48562068Y44816878D01*
X48517930Y44816878D01*
X48517929Y44816878D01*
X48189582Y44488530D01*
X48128259Y44455045D01*
X48058568Y44460029D01*
X48002634Y44501900D01*
X47987340Y44528758D01*
X47984825Y44534830D01*
X47967164Y44577468D01*
X47924968Y44619664D01*
X47869837Y44642500D01*
X47810163Y44642500D01*
X47759076Y44621339D01*
X47755030Y44619663D01*
X47712837Y44577470D01*
X47712836Y44577469D01*
X47712836Y44577468D01*
X47710591Y44572048D01*
X47692659Y44528756D01*
X47648817Y44474353D01*
X47582523Y44452289D01*
X47514823Y44469569D01*
X47490417Y44488529D01*
X47353969Y44624977D01*
X47162421Y44816526D01*
X47162420Y44816526D01*
X47118823Y44711274D01*
X47118816Y44711243D01*
X47090000Y44566377D01*
X47090000Y44534830D01*
X47084975Y44499886D01*
X47080570Y44484888D01*
X47042827Y44426145D01*
X47041458Y44424958D01*
X46986597Y44397482D01*
X46979039Y44395837D01*
X46952668Y44393000D01*
X43027683Y44393000D01*
X43027620Y44393001D01*
X43025716Y44393001D01*
X43018120Y44393001D01*
X42912666Y44393001D01*
X42844759Y44374805D01*
X42844758Y44374806D01*
X42810806Y44365708D01*
X42810805Y44365708D01*
X42719477Y44312978D01*
X42719474Y44312976D01*
X32919526Y34513029D01*
X32919522Y34513024D01*
X32866792Y34421696D01*
X32847717Y34350509D01*
X32846097Y34344466D01*
X32846097Y34344460D01*
X32841904Y34328807D01*
X32839500Y34319834D01*
X29823700Y34319834D01*
X29823700Y34484411D01*
X29796602Y34655501D01*
X29743073Y34820245D01*
X29664432Y34974588D01*
X29562614Y35114728D01*
X29440128Y35237214D01*
X29299988Y35339032D01*
X29145649Y35417672D01*
X28994415Y35466812D01*
X28994403Y35466815D01*
X28980901Y35471202D01*
X28980899Y35471203D01*
X28980898Y35471203D01*
X28966512Y35473482D01*
X28966506Y35473483D01*
X28876388Y35487756D01*
X28849471Y35492019D01*
X28833607Y35494532D01*
X28809814Y35498300D01*
X28809811Y35498300D01*
X28636589Y35498300D01*
X28636588Y35498300D01*
X28596926Y35492019D01*
X28596925Y35492020D01*
X28465504Y35471204D01*
X28300749Y35417671D01*
X28146410Y35339032D01*
X28093377Y35300500D01*
X28018143Y35245839D01*
X28010762Y35241706D01*
X27879294Y35110238D01*
X27875160Y35102855D01*
X27859270Y35080987D01*
X27859271Y35080986D01*
X27781968Y34974590D01*
X27703329Y34820251D01*
X27649796Y34655495D01*
X27622700Y34484417D01*
X27622700Y34311186D01*
X27635882Y34227957D01*
X27642288Y34187512D01*
X27649798Y34140099D01*
X27658914Y34112044D01*
X27695850Y33998365D01*
X27702723Y33977213D01*
X27703328Y33975353D01*
X27707550Y33967067D01*
X27711410Y33959491D01*
X27781966Y33821014D01*
X27803057Y33791985D01*
X27883786Y33680872D01*
X28006272Y33558386D01*
X28146412Y33456568D01*
X28300755Y33377927D01*
X28300757Y33377927D01*
X28300760Y33377925D01*
X28367857Y33356124D01*
X28424696Y33317700D01*
X28425562Y33316664D01*
X28434880Y33310290D01*
X28462069Y33245927D01*
X28450145Y33177083D01*
X28430219Y33147951D01*
X28428124Y33145669D01*
X28375099Y33111597D01*
X28224163Y33062555D01*
X28041840Y32969655D01*
X27997277Y32937278D01*
X27997277Y32937277D01*
X27997277Y32937276D01*
X28332473Y32602080D01*
X28540255Y32394299D01*
X28573740Y32332976D01*
X28568756Y32263285D01*
X28526885Y32207351D01*
X28514574Y32199231D01*
X28477597Y32177883D01*
X28477592Y32177879D01*
X28403121Y32103408D01*
X28403115Y32103400D01*
X28381768Y32066426D01*
X28331201Y32018211D01*
X28262593Y32004989D01*
X28197729Y32030957D01*
X28186701Y32040746D01*
X27643724Y32583723D01*
X27643723Y32583723D01*
X27643722Y32583723D01*
X27611345Y32539160D01*
X27518445Y32356837D01*
X27494458Y32283012D01*
X27455209Y32162218D01*
X27455208Y32162215D01*
X27455208Y32162213D01*
X27423200Y31960124D01*
X23590500Y31960124D01*
X23590500Y37024411D01*
X27622700Y37024411D01*
X27622700Y36851189D01*
X27622963Y36849529D01*
X27647567Y36694180D01*
X27649798Y36680099D01*
X27703327Y36515355D01*
X27781968Y36361012D01*
X27883786Y36220872D01*
X28006272Y36098386D01*
X28146412Y35996568D01*
X28300755Y35917927D01*
X28465499Y35864398D01*
X28636589Y35837300D01*
X28636590Y35837300D01*
X28809810Y35837300D01*
X28809811Y35837300D01*
X28980901Y35864398D01*
X29145645Y35917927D01*
X29299988Y35996568D01*
X29440128Y36098386D01*
X29562614Y36220872D01*
X29664432Y36361012D01*
X29743073Y36515355D01*
X29796602Y36680099D01*
X29798833Y36694180D01*
X29823700Y36851190D01*
X29823700Y37024411D01*
X29814820Y37080478D01*
X29796602Y37195501D01*
X29743073Y37360245D01*
X29664432Y37514588D01*
X29562614Y37654728D01*
X29440128Y37777214D01*
X29299988Y37879032D01*
X29145649Y37957672D01*
X28994415Y38006812D01*
X28994403Y38006815D01*
X28980901Y38011202D01*
X28980899Y38011203D01*
X28980898Y38011203D01*
X28966512Y38013482D01*
X28966506Y38013483D01*
X28876388Y38027756D01*
X28849471Y38032019D01*
X28833607Y38034532D01*
X28809814Y38038300D01*
X28809811Y38038300D01*
X28636589Y38038300D01*
X28636588Y38038300D01*
X28596926Y38032019D01*
X28596925Y38032020D01*
X28465504Y38011204D01*
X28300749Y37957671D01*
X28146410Y37879032D01*
X28066456Y37820941D01*
X28066455Y37820941D01*
X28018141Y37785839D01*
X28010764Y37781708D01*
X27879295Y37650239D01*
X27875169Y37642870D01*
X27871649Y37638024D01*
X27871641Y37638012D01*
X27781968Y37514590D01*
X27703329Y37360253D01*
X27649798Y37195503D01*
X27649797Y37195499D01*
X27633791Y37094441D01*
X27633790Y37094433D01*
X27632695Y37087515D01*
X27622700Y37024411D01*
X23590500Y37024411D01*
X23590500Y39564417D01*
X27622700Y39564417D01*
X27622700Y39564411D01*
X27622700Y39391189D01*
X27649798Y39220099D01*
X27703327Y39055355D01*
X27781968Y38901012D01*
X27883786Y38760872D01*
X28006272Y38638386D01*
X28146412Y38536568D01*
X28300755Y38457927D01*
X28465499Y38404398D01*
X28636589Y38377300D01*
X28636590Y38377300D01*
X28809810Y38377300D01*
X28809811Y38377300D01*
X28980901Y38404398D01*
X29145645Y38457927D01*
X29299988Y38536568D01*
X29440128Y38638386D01*
X29562614Y38760872D01*
X29664432Y38901012D01*
X29743073Y39055355D01*
X29796602Y39220099D01*
X29823700Y39391189D01*
X29823700Y39564411D01*
X29796602Y39735501D01*
X29743073Y39900245D01*
X29664432Y40054588D01*
X29562614Y40194728D01*
X29440128Y40317214D01*
X29299988Y40419032D01*
X29145649Y40497672D01*
X28994415Y40546812D01*
X28994403Y40546815D01*
X28980901Y40551202D01*
X28980899Y40551203D01*
X28980898Y40551203D01*
X28966512Y40553482D01*
X28966506Y40553483D01*
X28876388Y40567756D01*
X28849471Y40572019D01*
X28833607Y40574532D01*
X28809814Y40578300D01*
X28809811Y40578300D01*
X28636589Y40578300D01*
X28636588Y40578300D01*
X28596926Y40572019D01*
X28596925Y40572020D01*
X28465504Y40551204D01*
X28300749Y40497671D01*
X28146410Y40419032D01*
X28066456Y40360941D01*
X28066455Y40360941D01*
X28018141Y40325839D01*
X28010764Y40321708D01*
X27879292Y40190236D01*
X27875161Y40182859D01*
X27840059Y40134545D01*
X27840059Y40134544D01*
X27781968Y40054590D01*
X27703329Y39900251D01*
X27649796Y39735495D01*
X27622700Y39564417D01*
X23590500Y39564417D01*
X23590500Y41399838D01*
X23595523Y41434774D01*
X23598066Y41443432D01*
X23599360Y41447842D01*
X23637135Y41506619D01*
X23700692Y41535643D01*
X23762708Y41528695D01*
X23773299Y41524636D01*
X23783023Y41520103D01*
X23783031Y41520121D01*
X23783050Y41520165D01*
X23783052Y41520164D01*
X23783141Y41520347D01*
X23786333Y41518805D01*
X23939933Y41455184D01*
X23968306Y41443431D01*
X23968318Y41443428D01*
X24153862Y41406521D01*
X24158533Y41405592D01*
X24160768Y41405091D01*
X24161506Y41405000D01*
X24161508Y41405000D01*
X24360000Y41405000D01*
X24360000Y42031000D01*
X24379685Y42098039D01*
X24432489Y42143794D01*
X24484000Y42155000D01*
X24736000Y42155000D01*
X24803039Y42135315D01*
X24848794Y42082511D01*
X24860000Y42031000D01*
X24860000Y41405000D01*
X25058492Y41405000D01*
X25058493Y41405000D01*
X25063401Y41405797D01*
X25066130Y41406520D01*
X25251681Y41443428D01*
X25251693Y41443431D01*
X25433671Y41518808D01*
X25433684Y41518815D01*
X25597462Y41628249D01*
X25597466Y41628252D01*
X25736748Y41767534D01*
X25736751Y41767538D01*
X25846185Y41931316D01*
X25846192Y41931329D01*
X25921569Y42113308D01*
X25921569Y42113310D01*
X25929862Y42155000D01*
X25312624Y42155000D01*
X25245585Y42174685D01*
X25199830Y42227489D01*
X25189886Y42296647D01*
X25198063Y42326452D01*
X25203460Y42339482D01*
X25210000Y42355272D01*
X25210000Y42454728D01*
X25198328Y42482907D01*
X25198063Y42483548D01*
X25190594Y42553017D01*
X25221869Y42615496D01*
X25281959Y42651148D01*
X25312624Y42655000D01*
X25929861Y42655000D01*
X25929862Y42655000D01*
X25929862Y42655001D01*
X27090137Y42655001D01*
X27090138Y42655000D01*
X27707376Y42655000D01*
X27774415Y42635315D01*
X27820170Y42582511D01*
X27830114Y42513353D01*
X27821937Y42483548D01*
X27810001Y42454732D01*
X27810000Y42454727D01*
X27810000Y42355274D01*
X27810001Y42355269D01*
X27821937Y42326452D01*
X27829406Y42256983D01*
X27798131Y42194504D01*
X27738041Y42158852D01*
X27707376Y42155000D01*
X27090138Y42155000D01*
X27096048Y42125287D01*
X27096048Y42125285D01*
X27098431Y42113305D01*
X27173803Y41931336D01*
X27173808Y41931327D01*
X27173818Y41931310D01*
X27283249Y41767536D01*
X27283250Y41767535D01*
X27283255Y41767529D01*
X27422527Y41628257D01*
X27422533Y41628252D01*
X27422537Y41628249D01*
X27586315Y41518815D01*
X27586328Y41518808D01*
X27586330Y41518808D01*
X27586334Y41518805D01*
X27668658Y41484706D01*
X27768306Y41443431D01*
X27768318Y41443428D01*
X27953862Y41406521D01*
X27958533Y41405592D01*
X27960768Y41405091D01*
X27961506Y41405000D01*
X27961508Y41405000D01*
X28160000Y41405000D01*
X28160000Y42031000D01*
X28179685Y42098039D01*
X28232489Y42143794D01*
X28284000Y42155000D01*
X28536000Y42155000D01*
X28603039Y42135315D01*
X28648794Y42082511D01*
X28660000Y42031000D01*
X28660000Y41405000D01*
X28858492Y41405000D01*
X28858493Y41405000D01*
X28863401Y41405797D01*
X28866130Y41406520D01*
X29051681Y41443428D01*
X29051693Y41443431D01*
X29233671Y41518808D01*
X29233684Y41518815D01*
X29397462Y41628249D01*
X29397466Y41628252D01*
X29536748Y41767534D01*
X29536751Y41767538D01*
X29646185Y41931316D01*
X29646192Y41931329D01*
X29721569Y42113308D01*
X29721569Y42113310D01*
X29729862Y42155000D01*
X29112624Y42155000D01*
X29045585Y42174685D01*
X28999830Y42227489D01*
X28989886Y42296647D01*
X28998063Y42326452D01*
X29003460Y42339482D01*
X29010000Y42355272D01*
X29010000Y42454728D01*
X28998328Y42482907D01*
X28998063Y42483548D01*
X28990594Y42553017D01*
X29021869Y42615496D01*
X29081959Y42651148D01*
X29112624Y42655000D01*
X29729862Y42655000D01*
X29729862Y42655001D01*
X29723952Y42684712D01*
X29723951Y42684717D01*
X29723951Y42684716D01*
X29721569Y42696691D01*
X29721569Y42696693D01*
X29687477Y42779000D01*
X29646195Y42878666D01*
X29646190Y42878675D01*
X29646185Y42878685D01*
X29536751Y43042463D01*
X29536748Y43042467D01*
X29536743Y43042473D01*
X29397471Y43181745D01*
X29397465Y43181750D01*
X29397464Y43181751D01*
X29233690Y43291182D01*
X29233685Y43291185D01*
X29233684Y43291186D01*
X29233671Y43291193D01*
X29233664Y43291197D01*
X29051694Y43366570D01*
X29051655Y43366579D01*
X28858498Y43405000D01*
X28858495Y43405000D01*
X28660000Y43405000D01*
X28660000Y42779000D01*
X28640315Y42711961D01*
X28587511Y42666206D01*
X28536000Y42655000D01*
X28284000Y42655000D01*
X28216961Y42674685D01*
X28171206Y42727489D01*
X28160000Y42779000D01*
X28160000Y43405000D01*
X27961504Y43405000D01*
X27961500Y43405000D01*
X27768343Y43366579D01*
X27768304Y43366570D01*
X27586334Y43291197D01*
X27586325Y43291192D01*
X27586308Y43291182D01*
X27422534Y43181751D01*
X27422533Y43181750D01*
X27422527Y43181745D01*
X27283255Y43042473D01*
X27283250Y43042467D01*
X27283249Y43042466D01*
X27173818Y42878692D01*
X27173808Y42878675D01*
X27173803Y42878666D01*
X27098431Y42696697D01*
X27096048Y42684716D01*
X27090137Y42655001D01*
X25929862Y42655001D01*
X25921569Y42696691D01*
X25921569Y42696693D01*
X25887477Y42779000D01*
X25846195Y42878666D01*
X25846190Y42878675D01*
X25846185Y42878685D01*
X25736751Y43042463D01*
X25736748Y43042467D01*
X25736743Y43042473D01*
X25597471Y43181745D01*
X25597465Y43181750D01*
X25597464Y43181751D01*
X25433690Y43291182D01*
X25433685Y43291185D01*
X25433684Y43291186D01*
X25433671Y43291193D01*
X25433664Y43291197D01*
X25251694Y43366570D01*
X25251655Y43366579D01*
X25058498Y43405000D01*
X25058495Y43405000D01*
X24860000Y43405000D01*
X24860000Y42779000D01*
X24840315Y42711961D01*
X24787511Y42666206D01*
X24736000Y42655000D01*
X24484000Y42655000D01*
X24416961Y42674685D01*
X24371206Y42727489D01*
X24360000Y42779000D01*
X24360000Y43405000D01*
X24161504Y43405000D01*
X24161500Y43405000D01*
X23968343Y43366579D01*
X23968304Y43366570D01*
X23782705Y43289693D01*
X23782601Y43289944D01*
X23771390Y43285473D01*
X23753368Y43279832D01*
X23683509Y43278592D01*
X23624070Y43315317D01*
X23595398Y43370745D01*
X23593571Y43378801D01*
X23590500Y43406226D01*
X23590500Y47329057D01*
X29249500Y47329057D01*
X29249500Y47170944D01*
X29265489Y47111272D01*
X29290422Y47018220D01*
X29290424Y47018213D01*
X29290425Y47018212D01*
X29290430Y47018202D01*
X29328914Y46951546D01*
X29369475Y46881291D01*
X29369481Y46881283D01*
X29369484Y46881280D01*
X29369484Y46881279D01*
X29412975Y46837789D01*
X29434129Y46809530D01*
X29441620Y46795810D01*
X29456471Y46727552D01*
X29456342Y46725746D01*
X29436974Y46667543D01*
X29432793Y46661037D01*
X29416157Y46640394D01*
X29369486Y46593724D01*
X29369480Y46593718D01*
X29369470Y46593702D01*
X29290430Y46456800D01*
X29290425Y46456790D01*
X29290424Y46456789D01*
X29290423Y46456784D01*
X29249500Y46304057D01*
X29249500Y46145943D01*
X29264461Y46090109D01*
X29289833Y45995419D01*
X29289839Y45995399D01*
X29290423Y45993217D01*
X29290426Y45993209D01*
X29290430Y45993202D01*
X29350450Y45889244D01*
X29369475Y45856291D01*
X29369481Y45856283D01*
X29400575Y45825189D01*
X29421724Y45796937D01*
X29432153Y45777839D01*
X29434332Y45773848D01*
X29449500Y45714421D01*
X29449500Y44672266D01*
X29461445Y44627686D01*
X29463146Y44621339D01*
X29476793Y44570407D01*
X29479122Y44566374D01*
X29529520Y44479083D01*
X29529522Y44479081D01*
X30199073Y43809529D01*
X30199074Y43809528D01*
X30199078Y43809525D01*
X30199082Y43809521D01*
X30201557Y43807622D01*
X30207795Y43802503D01*
X30213927Y43797125D01*
X30219831Y43791594D01*
X30431591Y43579834D01*
X30437134Y43573917D01*
X30442478Y43567824D01*
X30447624Y43561554D01*
X30449524Y43559078D01*
X30619392Y43389210D01*
X30640542Y43360958D01*
X30648034Y43347238D01*
X30662889Y43278984D01*
X30662760Y43277176D01*
X30643386Y43218957D01*
X30639207Y43212455D01*
X30622584Y43191826D01*
X30619486Y43188728D01*
X30619476Y43188717D01*
X30619471Y43188711D01*
X30619470Y43188710D01*
X30540423Y43051795D01*
X30540421Y43051790D01*
X30540420Y43051789D01*
X30540420Y43051787D01*
X30540419Y43051784D01*
X30499496Y42899057D01*
X30499496Y42740944D01*
X30522524Y42655000D01*
X30532723Y42616940D01*
X30540419Y42588217D01*
X30540422Y42588210D01*
X30619331Y42451534D01*
X30619438Y42451322D01*
X30731283Y42339477D01*
X30731963Y42338987D01*
X30734457Y42337645D01*
X30831445Y42281650D01*
X30831447Y42281649D01*
X30831446Y42281649D01*
X30860435Y42264913D01*
X30868212Y42260423D01*
X31020939Y42219500D01*
X31020941Y42219500D01*
X31179051Y42219500D01*
X31179053Y42219500D01*
X31331780Y42260423D01*
X31468712Y42339480D01*
X31580516Y42451284D01*
X31659573Y42588216D01*
X31700496Y42740943D01*
X31700496Y42899057D01*
X31659573Y43051784D01*
X31646169Y43075000D01*
X31646169Y43075001D01*
X31584537Y43181752D01*
X31582366Y43185513D01*
X31580949Y43188145D01*
X31580568Y43188664D01*
X31549422Y43219810D01*
X31528270Y43248066D01*
X31515663Y43271155D01*
X31500496Y43330580D01*
X31500496Y43527725D01*
X31500496Y43527727D01*
X31483274Y43592001D01*
X31479681Y43605413D01*
X31479681Y43605414D01*
X31473203Y43629587D01*
X31473203Y43629588D01*
X31466715Y43640826D01*
X31420476Y43720913D01*
X31108414Y44032975D01*
X31102867Y44038897D01*
X31097506Y44045010D01*
X31092376Y44051260D01*
X31090480Y44053731D01*
X31090474Y44053737D01*
X31090471Y44053741D01*
X30697058Y44447153D01*
X30693733Y44450478D01*
X30693731Y44450480D01*
X30693728Y44450482D01*
X30688618Y44454404D01*
X30685566Y44457025D01*
X30685438Y44457222D01*
X30684599Y44457865D01*
X30678893Y44462870D01*
X30672980Y44468409D01*
X30299426Y44841963D01*
X30278274Y44870219D01*
X30265667Y44893308D01*
X30250500Y44952733D01*
X30250500Y45707073D01*
X30255522Y45742005D01*
X30258016Y45750500D01*
X30262934Y45767251D01*
X30294231Y45819996D01*
X30330520Y45856284D01*
X30379126Y45940476D01*
X30410287Y45976278D01*
X30417780Y45982118D01*
X30482757Y46007804D01*
X30540096Y45999432D01*
X30542912Y45998305D01*
X30542919Y45998301D01*
X30548308Y45996144D01*
X30589898Y45968709D01*
X31176921Y45381686D01*
X31760573Y44798035D01*
X31781723Y44769783D01*
X31794331Y44746694D01*
X31809500Y44687265D01*
X31809500Y43707272D01*
X31823499Y43655025D01*
X31822891Y43629490D01*
X31836792Y43605413D01*
X31853219Y43576962D01*
X31889520Y43514087D01*
X31889522Y43514085D01*
X32099873Y43303734D01*
X32121025Y43275478D01*
X32128517Y43261757D01*
X32143368Y43193491D01*
X32142736Y43184649D01*
X32126440Y43131491D01*
X32080423Y43051786D01*
X32080423Y43051785D01*
X32039500Y42899057D01*
X32039500Y42740944D01*
X32062528Y42655000D01*
X32072727Y42616940D01*
X32080423Y42588217D01*
X32080426Y42588210D01*
X32159335Y42451534D01*
X32159442Y42451322D01*
X32271287Y42339477D01*
X32271967Y42338987D01*
X32274461Y42337645D01*
X32371449Y42281650D01*
X32371451Y42281649D01*
X32371450Y42281649D01*
X32400439Y42264913D01*
X32408216Y42260423D01*
X32560943Y42219500D01*
X32560945Y42219500D01*
X32719055Y42219500D01*
X32719057Y42219500D01*
X32871784Y42260423D01*
X33008716Y42339480D01*
X33120520Y42451284D01*
X33199577Y42588216D01*
X33240500Y42740943D01*
X33240500Y42899057D01*
X33199577Y43051784D01*
X33186173Y43075000D01*
X33186173Y43075001D01*
X33124541Y43181752D01*
X33122370Y43185513D01*
X33120953Y43188145D01*
X33119859Y43189634D01*
X33118132Y43192029D01*
X33109877Y43205130D01*
X33095667Y43231155D01*
X33080500Y43290580D01*
X33080500Y43342725D01*
X33080500Y43342727D01*
X33053207Y43444587D01*
X33000480Y43535913D01*
X32925913Y43610480D01*
X32659426Y43876967D01*
X32638274Y43905223D01*
X32625667Y43928312D01*
X32610500Y43987737D01*
X32610500Y44472854D01*
X34140000Y44472854D01*
X34140000Y44472845D01*
X34140000Y43825000D01*
X34877750Y43825000D01*
X34944789Y43805315D01*
X34990544Y43752511D01*
X35000488Y43683353D01*
X34997524Y43668905D01*
X34990000Y43640829D01*
X34990000Y43509172D01*
X34997524Y43481095D01*
X34995863Y43411245D01*
X34956701Y43353382D01*
X34892473Y43325877D01*
X34877750Y43325000D01*
X34140000Y43325000D01*
X34140000Y42677148D01*
X34146400Y42617630D01*
X34146402Y42617623D01*
X34196646Y42482912D01*
X34196648Y42482909D01*
X34282807Y42367815D01*
X34282809Y42367813D01*
X34282812Y42367810D01*
X34397906Y42281650D01*
X34397913Y42281646D01*
X34532620Y42231404D01*
X34532627Y42231402D01*
X34539468Y42230667D01*
X34592138Y42225002D01*
X34592155Y42225001D01*
X34592172Y42225000D01*
X35240000Y42225000D01*
X35240000Y42962750D01*
X35259685Y43029789D01*
X35312489Y43075544D01*
X35381647Y43085488D01*
X35396093Y43082525D01*
X35424174Y43075000D01*
X35555825Y43075000D01*
X35555826Y43075000D01*
X35583905Y43082524D01*
X35653755Y43080863D01*
X35711618Y43041701D01*
X35739123Y42977473D01*
X35740000Y42962750D01*
X35740000Y42225000D01*
X36387828Y42225000D01*
X36387836Y42225000D01*
X36387847Y42225001D01*
X36423560Y42228842D01*
X36447372Y42231402D01*
X36447379Y42231404D01*
X36582086Y42281646D01*
X36582093Y42281650D01*
X36697187Y42367810D01*
X36697190Y42367813D01*
X36783350Y42482907D01*
X36783354Y42482914D01*
X36833596Y42617621D01*
X36833598Y42617628D01*
X36835500Y42635315D01*
X36839998Y42677140D01*
X36840000Y42677173D01*
X36840000Y43325000D01*
X36102250Y43325000D01*
X36035211Y43344685D01*
X35989456Y43397489D01*
X35979512Y43466647D01*
X35982476Y43481095D01*
X35990000Y43509174D01*
X35990000Y43640826D01*
X35982476Y43668906D01*
X35984137Y43738755D01*
X36023299Y43796618D01*
X36087527Y43824123D01*
X36102250Y43825000D01*
X36840000Y43825000D01*
X36840000Y44472828D01*
X36839998Y44472862D01*
X36833598Y44532372D01*
X36833596Y44532379D01*
X36832682Y44534830D01*
X36783354Y44667087D01*
X36783350Y44667094D01*
X36714179Y44759494D01*
X36697191Y44782187D01*
X36697185Y44782193D01*
X36617870Y44841568D01*
X36582093Y44868351D01*
X36582088Y44868354D01*
X36582089Y44868354D01*
X36447377Y44918598D01*
X36447370Y44918600D01*
X36387852Y44925000D01*
X36387844Y44925000D01*
X36208917Y44925000D01*
X36142995Y44943975D01*
X36141850Y44944694D01*
X36131022Y44947873D01*
X36085268Y45000678D01*
X36075325Y45069836D01*
X36081981Y45092501D01*
X47593554Y45092501D01*
X47593554Y45092500D01*
X47840000Y44846054D01*
X48086446Y45092500D01*
X48993554Y45092500D01*
X49240000Y44846054D01*
X49486446Y45092500D01*
X49240000Y45338946D01*
X48993554Y45092500D01*
X48086446Y45092500D01*
X47840000Y45338946D01*
X47807653Y45306599D01*
X47807652Y45306599D01*
X47593554Y45092501D01*
X36081981Y45092501D01*
X36085268Y45103696D01*
X36086559Y45106522D01*
X36126466Y45155324D01*
X36239501Y45237447D01*
X36367553Y45365499D01*
X36473996Y45512006D01*
X36528321Y45618625D01*
X47089999Y45618625D01*
X47118816Y45473760D01*
X47118820Y45473741D01*
X47118822Y45473733D01*
X47162421Y45368476D01*
X47486446Y45692500D01*
X47486446Y45692501D01*
X47456610Y45722337D01*
X47690000Y45722337D01*
X47690000Y45662663D01*
X47712836Y45607532D01*
X47755032Y45565336D01*
X47810163Y45542500D01*
X47869837Y45542500D01*
X47924968Y45565336D01*
X47967164Y45607532D01*
X47990000Y45662663D01*
X47990000Y45692501D01*
X48193554Y45692501D01*
X48193554Y45692499D01*
X48517929Y45368124D01*
X48562069Y45368124D01*
X48886446Y45692500D01*
X48885807Y45693139D01*
X49063955Y45693139D01*
X49077365Y45683100D01*
X49092658Y45656246D01*
X49112836Y45607532D01*
X49155032Y45565336D01*
X49210163Y45542500D01*
X49269837Y45542500D01*
X49324968Y45565336D01*
X49367164Y45607532D01*
X49390000Y45662663D01*
X49390000Y45692501D01*
X49593554Y45692501D01*
X49593554Y45692499D01*
X49917577Y45368476D01*
X49917578Y45368476D01*
X49961175Y45473725D01*
X49961179Y45473740D01*
X49989999Y45618627D01*
X49990000Y45618629D01*
X49990000Y45766372D01*
X49989999Y45766374D01*
X49961179Y45911260D01*
X49961178Y45911264D01*
X49917577Y46016525D01*
X49917576Y46016525D01*
X49917576Y46016526D01*
X49661812Y45760761D01*
X49661812Y45760760D01*
X49593554Y45692501D01*
X49390000Y45692501D01*
X49390000Y45722337D01*
X49367164Y45777468D01*
X49324968Y45819664D01*
X49324159Y45819999D01*
X49305602Y45827686D01*
X49305601Y45827686D01*
X49269837Y45842500D01*
X49210163Y45842500D01*
X49155032Y45819664D01*
X49145566Y45810199D01*
X49145565Y45810198D01*
X49112837Y45777470D01*
X49112836Y45777469D01*
X49112836Y45777468D01*
X49101369Y45749784D01*
X49092659Y45728756D01*
X49063955Y45693139D01*
X48885807Y45693139D01*
X48562068Y46016878D01*
X48517929Y46016878D01*
X48261824Y45760773D01*
X48261824Y45760772D01*
X48193554Y45692501D01*
X47990000Y45692501D01*
X47990000Y45722337D01*
X47967164Y45777468D01*
X47924968Y45819664D01*
X47869837Y45842500D01*
X47810163Y45842500D01*
X47755032Y45819664D01*
X47755030Y45819663D01*
X47712837Y45777470D01*
X47712835Y45777467D01*
X47702098Y45751546D01*
X47702098Y45751545D01*
X47690000Y45722337D01*
X47456610Y45722337D01*
X47162421Y46016526D01*
X47162420Y46016526D01*
X47159199Y46008751D01*
X47118823Y45911274D01*
X47118816Y45911243D01*
X47090000Y45766377D01*
X47090000Y45766374D01*
X47090000Y45618627D01*
X47090000Y45618625D01*
X47089999Y45618625D01*
X36528321Y45618625D01*
X36556211Y45673361D01*
X36572124Y45722337D01*
X36600860Y45810778D01*
X36600860Y45810780D01*
X36601446Y45812583D01*
X36612171Y45845591D01*
X36630675Y45962419D01*
X36631597Y45968241D01*
X36631597Y45968242D01*
X36633795Y45982118D01*
X36640500Y46024449D01*
X36640500Y46205552D01*
X36626728Y46292501D01*
X47593554Y46292501D01*
X47593554Y46292500D01*
X47840000Y46046054D01*
X48086446Y46292500D01*
X48993554Y46292500D01*
X49240000Y46046054D01*
X49486446Y46292500D01*
X49240000Y46538946D01*
X48993554Y46292500D01*
X48086446Y46292500D01*
X47840000Y46538946D01*
X47807653Y46506599D01*
X47807652Y46506599D01*
X47593554Y46292501D01*
X36626728Y46292501D01*
X36621666Y46324464D01*
X36616916Y46354447D01*
X36612171Y46384409D01*
X36572956Y46505102D01*
X36572271Y46507209D01*
X36572262Y46507242D01*
X36556220Y46556614D01*
X36556212Y46556637D01*
X36556211Y46556640D01*
X36508733Y46649819D01*
X36473996Y46717994D01*
X36439600Y46765336D01*
X36400884Y46818625D01*
X47089999Y46818625D01*
X47118816Y46673760D01*
X47118820Y46673741D01*
X47118822Y46673733D01*
X47162421Y46568476D01*
X47486446Y46892500D01*
X47486446Y46892501D01*
X47456610Y46922337D01*
X47690000Y46922337D01*
X47690000Y46862663D01*
X47712836Y46807532D01*
X47755032Y46765336D01*
X47810163Y46742500D01*
X47869837Y46742500D01*
X47924968Y46765336D01*
X47967164Y46807532D01*
X47990000Y46862663D01*
X47990000Y46892501D01*
X48193554Y46892501D01*
X48193554Y46892499D01*
X48517929Y46568124D01*
X48562069Y46568124D01*
X48886446Y46892500D01*
X48885241Y46893705D01*
X49064411Y46893705D01*
X49074649Y46886597D01*
X49076394Y46883827D01*
X49077365Y46883100D01*
X49082177Y46874649D01*
X49089954Y46862308D01*
X49091391Y46859303D01*
X49112836Y46807532D01*
X49155032Y46765336D01*
X49210163Y46742500D01*
X49269837Y46742500D01*
X49324968Y46765336D01*
X49367164Y46807532D01*
X49390000Y46862663D01*
X49390000Y46892501D01*
X49593554Y46892501D01*
X49593554Y46892499D01*
X49917577Y46568476D01*
X49917578Y46568476D01*
X49961175Y46673725D01*
X49961179Y46673740D01*
X49989999Y46818627D01*
X49990000Y46818629D01*
X49990000Y46966372D01*
X49989999Y46966374D01*
X49961179Y47111260D01*
X49961178Y47111264D01*
X49917577Y47216525D01*
X49917576Y47216525D01*
X49917576Y47216526D01*
X49661812Y46960761D01*
X49661812Y46960760D01*
X49593554Y46892501D01*
X49390000Y46892501D01*
X49390000Y46922337D01*
X49367164Y46977468D01*
X49324968Y47019664D01*
X49324966Y47019665D01*
X49299045Y47030402D01*
X49299044Y47030402D01*
X49269837Y47042500D01*
X49210163Y47042500D01*
X49155032Y47019664D01*
X49155030Y47019663D01*
X49112837Y46977470D01*
X49092659Y46928756D01*
X49064411Y46893705D01*
X48885241Y46893705D01*
X48562068Y47216878D01*
X48517929Y47216878D01*
X48261824Y46960773D01*
X48261824Y46960772D01*
X48193554Y46892501D01*
X47990000Y46892501D01*
X47990000Y46922337D01*
X47967164Y46977468D01*
X47924968Y47019664D01*
X47924966Y47019665D01*
X47899045Y47030402D01*
X47899044Y47030402D01*
X47869837Y47042500D01*
X47810163Y47042500D01*
X47755032Y47019664D01*
X47755030Y47019663D01*
X47712837Y46977470D01*
X47712835Y46977467D01*
X47702098Y46951546D01*
X47702098Y46951545D01*
X47690000Y46922337D01*
X47456610Y46922337D01*
X47162421Y47216526D01*
X47162420Y47216526D01*
X47159199Y47208751D01*
X47118823Y47111274D01*
X47118816Y47111243D01*
X47090000Y46966377D01*
X47090000Y46966374D01*
X47090000Y46818627D01*
X47090000Y46818625D01*
X47089999Y46818625D01*
X36400884Y46818625D01*
X36367558Y46864495D01*
X36367554Y46864500D01*
X36367553Y46864501D01*
X36367546Y46864509D01*
X36239507Y46992548D01*
X36239498Y46992556D01*
X36239474Y46992574D01*
X36103605Y47091288D01*
X36103591Y47091297D01*
X36092997Y47098994D01*
X36092996Y47098995D01*
X36092994Y47098996D01*
X36086871Y47102116D01*
X36041301Y47125336D01*
X36041300Y47125336D01*
X35931639Y47181212D01*
X35931636Y47181213D01*
X35931633Y47181214D01*
X35931631Y47181215D01*
X35931612Y47181222D01*
X35759412Y47237171D01*
X35759413Y47237171D01*
X35625265Y47258418D01*
X35580551Y47265500D01*
X35580550Y47265500D01*
X35399450Y47265500D01*
X35399449Y47265500D01*
X35363677Y47259835D01*
X35220585Y47237171D01*
X35048386Y47181222D01*
X35048363Y47181214D01*
X35048359Y47181212D01*
X34887005Y47098996D01*
X34887002Y47098995D01*
X34887002Y47098994D01*
X34838169Y47063516D01*
X34740499Y46992555D01*
X34740491Y46992548D01*
X34612452Y46864509D01*
X34612445Y46864501D01*
X34506004Y46717995D01*
X34423788Y46556641D01*
X34423786Y46556637D01*
X34423778Y46556614D01*
X34367829Y46384415D01*
X34339500Y46205552D01*
X34339500Y46024449D01*
X34342136Y46007804D01*
X34367829Y45845587D01*
X34423762Y45673437D01*
X34423788Y45673361D01*
X34478829Y45565340D01*
X34478829Y45565338D01*
X34478830Y45565338D01*
X34478831Y45565336D01*
X34493006Y45537515D01*
X34493008Y45537512D01*
X34506005Y45512004D01*
X34533805Y45473740D01*
X34612441Y45365506D01*
X34612445Y45365501D01*
X34740504Y45237442D01*
X34740507Y45237440D01*
X34740508Y45237439D01*
X34847376Y45159795D01*
X34889561Y45105683D01*
X34890050Y45104464D01*
X34896934Y45095542D01*
X34902932Y45025931D01*
X34870342Y44964127D01*
X34842398Y44942567D01*
X34839701Y44941043D01*
X34778698Y44925000D01*
X34592146Y44925000D01*
X34532628Y44918600D01*
X34532621Y44918598D01*
X34397910Y44868354D01*
X34397907Y44868352D01*
X34282813Y44782193D01*
X34282807Y44782187D01*
X34196648Y44667093D01*
X34196646Y44667090D01*
X34146402Y44532379D01*
X34146400Y44532372D01*
X34140000Y44472854D01*
X32610500Y44472854D01*
X32610500Y44846405D01*
X32610500Y44852271D01*
X32610501Y44852284D01*
X32610501Y44967726D01*
X32605199Y44987512D01*
X32583207Y45069587D01*
X32530480Y45160913D01*
X32455913Y45235480D01*
X32455912Y45235481D01*
X32451582Y45239811D01*
X32450560Y45240833D01*
X32450517Y45240875D01*
X30499426Y47191967D01*
X30478274Y47220223D01*
X30465667Y47243312D01*
X30450500Y47302737D01*
X30450500Y47329055D01*
X30450500Y47329057D01*
X30409577Y47481784D01*
X30409575Y47481788D01*
X30409574Y47481790D01*
X30358600Y47570080D01*
X47515973Y47570080D01*
X47515974Y47570079D01*
X47840000Y47246054D01*
X47840001Y47246054D01*
X48164024Y47570079D01*
X48164022Y47570080D01*
X48915973Y47570080D01*
X48915974Y47570079D01*
X49240000Y47246054D01*
X49240001Y47246054D01*
X49564024Y47570079D01*
X49458767Y47613678D01*
X49458759Y47613680D01*
X49458751Y47613682D01*
X49458741Y47613684D01*
X49313874Y47642500D01*
X49313872Y47642500D01*
X49166128Y47642500D01*
X49166126Y47642500D01*
X49021257Y47613684D01*
X49021226Y47613677D01*
X48915974Y47570081D01*
X48915973Y47570080D01*
X48164022Y47570080D01*
X48058767Y47613678D01*
X48058759Y47613680D01*
X48058751Y47613682D01*
X48058741Y47613684D01*
X47913874Y47642500D01*
X47913872Y47642500D01*
X47766128Y47642500D01*
X47766126Y47642500D01*
X47621257Y47613684D01*
X47621226Y47613677D01*
X47515974Y47570081D01*
X47515973Y47570080D01*
X30358600Y47570080D01*
X30330524Y47618710D01*
X30330518Y47618718D01*
X30330517Y47618719D01*
X30330513Y47618724D01*
X30218722Y47730515D01*
X30218720Y47730516D01*
X30218717Y47730519D01*
X30218709Y47730525D01*
X30192147Y47745860D01*
X30081807Y47809565D01*
X30081783Y47809578D01*
X29969979Y47839536D01*
X29929057Y47850500D01*
X29929056Y47850500D01*
X29770943Y47850500D01*
X29618218Y47809578D01*
X29618211Y47809576D01*
X29618210Y47809575D01*
X29618200Y47809570D01*
X29481298Y47730530D01*
X29481294Y47730528D01*
X29481290Y47730525D01*
X29481282Y47730519D01*
X29481278Y47730516D01*
X29481276Y47730515D01*
X29369485Y47618724D01*
X29369484Y47618722D01*
X29369481Y47618719D01*
X29369481Y47618718D01*
X29369475Y47618710D01*
X29369472Y47618706D01*
X29369470Y47618702D01*
X29290430Y47481800D01*
X29290425Y47481790D01*
X29290424Y47481789D01*
X29290423Y47481784D01*
X29249500Y47329057D01*
X23590500Y47329057D01*
X23590500Y50039838D01*
X23595523Y50074774D01*
X23598066Y50083432D01*
X23599360Y50087842D01*
X23637135Y50146619D01*
X23700692Y50175643D01*
X23762708Y50168695D01*
X23773299Y50164636D01*
X23783023Y50160103D01*
X23783031Y50160121D01*
X23783050Y50160165D01*
X23783052Y50160164D01*
X23783141Y50160347D01*
X23786333Y50158805D01*
X23939933Y50095184D01*
X23968306Y50083431D01*
X23968318Y50083428D01*
X24153862Y50046521D01*
X24158533Y50045592D01*
X24160768Y50045091D01*
X24161506Y50045000D01*
X24161508Y50045000D01*
X24360000Y50045000D01*
X24360000Y50671000D01*
X24379685Y50738039D01*
X24432489Y50783794D01*
X24484000Y50795000D01*
X24736000Y50795000D01*
X24803039Y50775315D01*
X24848794Y50722511D01*
X24860000Y50671000D01*
X24860000Y50045000D01*
X25058492Y50045000D01*
X25058493Y50045000D01*
X25063401Y50045797D01*
X25066130Y50046520D01*
X25251681Y50083428D01*
X25251693Y50083431D01*
X25433671Y50158808D01*
X25433684Y50158815D01*
X25597462Y50268249D01*
X25597466Y50268252D01*
X25736748Y50407534D01*
X25736751Y50407538D01*
X25846185Y50571316D01*
X25846192Y50571329D01*
X25921569Y50753308D01*
X25921569Y50753310D01*
X25929862Y50795000D01*
X25312624Y50795000D01*
X25245585Y50814685D01*
X25199830Y50867489D01*
X25189886Y50936647D01*
X25198063Y50966452D01*
X25203724Y50980120D01*
X25210000Y50995272D01*
X25210000Y51094728D01*
X25205145Y51106449D01*
X25198063Y51123548D01*
X25190594Y51193017D01*
X25221869Y51255496D01*
X25281959Y51291148D01*
X25312624Y51295000D01*
X25929861Y51295000D01*
X25929862Y51295000D01*
X25929862Y51295001D01*
X27090137Y51295001D01*
X27090138Y51295000D01*
X27707376Y51295000D01*
X27774415Y51275315D01*
X27820170Y51222511D01*
X27830114Y51153353D01*
X27821937Y51123548D01*
X27810001Y51094732D01*
X27810000Y51094727D01*
X27810000Y50995274D01*
X27810001Y50995269D01*
X27821937Y50966452D01*
X27829406Y50896983D01*
X27798131Y50834504D01*
X27738041Y50798852D01*
X27707376Y50795000D01*
X27090138Y50795000D01*
X27096048Y50765287D01*
X27096048Y50765285D01*
X27098431Y50753305D01*
X27173803Y50571336D01*
X27173808Y50571327D01*
X27173818Y50571310D01*
X27283249Y50407536D01*
X27283250Y50407535D01*
X27283255Y50407529D01*
X27422527Y50268257D01*
X27422533Y50268252D01*
X27422537Y50268249D01*
X27586315Y50158815D01*
X27586328Y50158808D01*
X27586330Y50158808D01*
X27586334Y50158805D01*
X27722811Y50102276D01*
X27768306Y50083431D01*
X27768318Y50083428D01*
X27953862Y50046521D01*
X27958533Y50045592D01*
X27960768Y50045091D01*
X27961506Y50045000D01*
X27961508Y50045000D01*
X28160000Y50045000D01*
X28160000Y50671000D01*
X28179685Y50738039D01*
X28232489Y50783794D01*
X28284000Y50795000D01*
X28536000Y50795000D01*
X28603039Y50775315D01*
X28648794Y50722511D01*
X28660000Y50671000D01*
X28660000Y50045000D01*
X28858492Y50045000D01*
X28858493Y50045000D01*
X28863401Y50045797D01*
X28866130Y50046520D01*
X29051681Y50083428D01*
X29051693Y50083431D01*
X29233671Y50158808D01*
X29233684Y50158815D01*
X29397462Y50268249D01*
X29397466Y50268252D01*
X29536748Y50407534D01*
X29536751Y50407538D01*
X29646185Y50571316D01*
X29646192Y50571329D01*
X29721569Y50753308D01*
X29721569Y50753310D01*
X29729862Y50795000D01*
X29112624Y50795000D01*
X29045585Y50814685D01*
X28999830Y50867489D01*
X28989886Y50936647D01*
X28998063Y50966452D01*
X29003724Y50980120D01*
X29010000Y50995272D01*
X29010000Y51094728D01*
X29005145Y51106449D01*
X28998063Y51123548D01*
X28990594Y51193017D01*
X29021869Y51255496D01*
X29081959Y51291148D01*
X29112624Y51295000D01*
X29729862Y51295000D01*
X29729862Y51295001D01*
X29723952Y51324712D01*
X29723951Y51324717D01*
X29723951Y51324716D01*
X29721569Y51336691D01*
X29721569Y51336693D01*
X29656618Y51493502D01*
X29646195Y51518666D01*
X29646190Y51518675D01*
X29646185Y51518685D01*
X29536751Y51682463D01*
X29536748Y51682467D01*
X29536743Y51682473D01*
X29397471Y51821745D01*
X29397465Y51821750D01*
X29397464Y51821751D01*
X29233690Y51931182D01*
X29233685Y51931185D01*
X29233684Y51931186D01*
X29233671Y51931193D01*
X29233664Y51931197D01*
X29051694Y52006570D01*
X29051655Y52006579D01*
X28858498Y52045000D01*
X28858495Y52045000D01*
X28660000Y52045000D01*
X28660000Y51419000D01*
X28640315Y51351961D01*
X28587511Y51306206D01*
X28536000Y51295000D01*
X28284000Y51295000D01*
X28216961Y51314685D01*
X28171206Y51367489D01*
X28160000Y51419000D01*
X28160000Y52045000D01*
X27961504Y52045000D01*
X27961500Y52045000D01*
X27768343Y52006579D01*
X27768304Y52006570D01*
X27586334Y51931197D01*
X27586325Y51931192D01*
X27586308Y51931182D01*
X27422534Y51821751D01*
X27422533Y51821750D01*
X27422527Y51821745D01*
X27283255Y51682473D01*
X27283250Y51682467D01*
X27283249Y51682466D01*
X27173818Y51518692D01*
X27173808Y51518675D01*
X27173803Y51518666D01*
X27098431Y51336697D01*
X27096048Y51324716D01*
X27090137Y51295001D01*
X25929862Y51295001D01*
X25921569Y51336691D01*
X25921569Y51336693D01*
X25856618Y51493502D01*
X25846195Y51518666D01*
X25846190Y51518675D01*
X25846185Y51518685D01*
X25736751Y51682463D01*
X25736748Y51682467D01*
X25736743Y51682473D01*
X25597471Y51821745D01*
X25597465Y51821750D01*
X25597464Y51821751D01*
X25433690Y51931182D01*
X25433685Y51931185D01*
X25433684Y51931186D01*
X25433671Y51931193D01*
X25433664Y51931197D01*
X25251694Y52006570D01*
X25251655Y52006579D01*
X25058498Y52045000D01*
X25058495Y52045000D01*
X24860000Y52045000D01*
X24860000Y51419000D01*
X24840315Y51351961D01*
X24787511Y51306206D01*
X24736000Y51295000D01*
X24484000Y51295000D01*
X24416961Y51314685D01*
X24371206Y51367489D01*
X24360000Y51419000D01*
X24360000Y52045000D01*
X24161504Y52045000D01*
X24161500Y52045000D01*
X23968343Y52006579D01*
X23968304Y52006570D01*
X23782705Y51929693D01*
X23782601Y51929944D01*
X23771390Y51925473D01*
X23753368Y51919832D01*
X23683509Y51918592D01*
X23624070Y51955317D01*
X23595398Y52010745D01*
X23593571Y52018801D01*
X23590500Y52046226D01*
X23590500Y53142475D01*
X27869500Y53142475D01*
X27869500Y52997525D01*
X27905284Y52863979D01*
X27906552Y52859247D01*
X27907014Y52857521D01*
X27907017Y52857512D01*
X27970466Y52747615D01*
X27977635Y52735199D01*
X27977637Y52735195D01*
X27979488Y52731988D01*
X28081985Y52629491D01*
X28082674Y52628995D01*
X28085178Y52627647D01*
X28204069Y52559005D01*
X28207087Y52557131D01*
X28207514Y52557017D01*
X28207515Y52557016D01*
X28347525Y52519500D01*
X28347528Y52519500D01*
X28492472Y52519500D01*
X28492475Y52519500D01*
X28632485Y52557016D01*
X28758015Y52629491D01*
X28860509Y52731985D01*
X28912529Y52822088D01*
X28914510Y52825398D01*
X28938459Y52864039D01*
X28938603Y52863979D01*
X28949389Y52881673D01*
X28949563Y52881953D01*
X28975258Y52904964D01*
X29000781Y52928164D01*
X29006485Y52930935D01*
X29008778Y52932047D01*
X29062937Y52944500D01*
X34666340Y52944500D01*
X34701275Y52939477D01*
X34713699Y52935829D01*
X34772477Y52898055D01*
X34801502Y52834499D01*
X34793662Y52770221D01*
X34790177Y52761634D01*
X34775599Y52735382D01*
X34758143Y52711355D01*
X34758142Y52711353D01*
X34665244Y52529032D01*
X34602009Y52334418D01*
X34602008Y52334415D01*
X34602008Y52334413D01*
X34570000Y52132324D01*
X34570000Y51927678D01*
X34594609Y51772303D01*
X34602009Y51725583D01*
X34665244Y51530969D01*
X34684335Y51493502D01*
X34758144Y51348643D01*
X34758145Y51348642D01*
X34790517Y51304086D01*
X34790521Y51304081D01*
X34790523Y51304079D01*
X34790524Y51304078D01*
X35333503Y51847058D01*
X35394824Y51880541D01*
X35464515Y51875557D01*
X35520449Y51833686D01*
X35528567Y51821378D01*
X35549920Y51784394D01*
X35624394Y51709920D01*
X35624395Y51709919D01*
X35624397Y51709918D01*
X35661373Y51688570D01*
X35709588Y51638004D01*
X35722812Y51569397D01*
X35696844Y51504532D01*
X35687054Y51493502D01*
X35144075Y50950527D01*
X35144076Y50950527D01*
X35144076Y50950526D01*
X35188650Y50918141D01*
X35230175Y50896983D01*
X35370963Y50825247D01*
X35370965Y50825247D01*
X35370968Y50825245D01*
X35565582Y50762010D01*
X35767683Y50730000D01*
X35972316Y50730000D01*
X35972317Y50730000D01*
X36174417Y50762010D01*
X36369031Y50825245D01*
X36551349Y50918141D01*
X36595921Y50950526D01*
X36052945Y51493502D01*
X36019460Y51554825D01*
X36024444Y51624517D01*
X36066316Y51680450D01*
X36078618Y51688566D01*
X36115606Y51709920D01*
X36190080Y51784394D01*
X36211430Y51821375D01*
X36261995Y51869589D01*
X36330602Y51882813D01*
X36395467Y51856846D01*
X36406496Y51847057D01*
X36682655Y51570897D01*
X36949471Y51304081D01*
X36949472Y51304080D01*
X36949473Y51304079D01*
X36958248Y51304770D01*
X36993455Y51302505D01*
X37017735Y51297404D01*
X37079294Y51264360D01*
X37079923Y51263735D01*
X37153072Y51190586D01*
X37293212Y51088768D01*
X37447555Y51010127D01*
X37612299Y50956598D01*
X37783389Y50929500D01*
X37783390Y50929500D01*
X37956610Y50929500D01*
X37956611Y50929500D01*
X38127701Y50956598D01*
X38292445Y51010127D01*
X38446788Y51088768D01*
X38586928Y51190586D01*
X38709414Y51313072D01*
X38811232Y51453212D01*
X38889873Y51607555D01*
X38943402Y51772299D01*
X38970500Y51943389D01*
X38970500Y52116611D01*
X38943402Y52287701D01*
X38889873Y52452445D01*
X38811232Y52606788D01*
X38719392Y52733194D01*
X38702924Y52764404D01*
X38698572Y52776600D01*
X38694581Y52846353D01*
X38728936Y52907193D01*
X38785559Y52938638D01*
X38794563Y52940868D01*
X38824360Y52944500D01*
X42016437Y52944500D01*
X42048531Y52940275D01*
X42078995Y52932112D01*
X42108901Y52919724D01*
X42214062Y52859009D01*
X42217513Y52857017D01*
X42217515Y52857016D01*
X42357525Y52819500D01*
X42357528Y52819500D01*
X42502472Y52819500D01*
X42502475Y52819500D01*
X42642485Y52857016D01*
X42768015Y52929491D01*
X42870509Y53031985D01*
X42942984Y53157515D01*
X42980500Y53297525D01*
X42980500Y53442475D01*
X42942984Y53582485D01*
X42942696Y53582983D01*
X42935893Y53594767D01*
X42870513Y53708009D01*
X42870508Y53708016D01*
X42870493Y53708032D01*
X42768030Y53810495D01*
X42768014Y53810510D01*
X42768006Y53810515D01*
X42714243Y53841555D01*
X42685808Y53871376D01*
X42631007Y53886061D01*
X42631007Y53886060D01*
X42566740Y53903280D01*
X42502475Y53920500D01*
X42502474Y53920500D01*
X42357525Y53920500D01*
X42228994Y53886061D01*
X42228993Y53886060D01*
X42217511Y53882983D01*
X42217506Y53882981D01*
X42108899Y53820276D01*
X42078995Y53807889D01*
X42048533Y53799726D01*
X42016437Y53795500D01*
X28663982Y53795500D01*
X28555770Y53766506D01*
X28555759Y53766502D01*
X28555758Y53766501D01*
X28473343Y53718919D01*
X28473340Y53718917D01*
X28458740Y53710487D01*
X28458738Y53710486D01*
X28409343Y53661092D01*
X28407010Y53658983D01*
X28404086Y53657574D01*
X28385877Y53643601D01*
X28358567Y53627834D01*
X28328664Y53615448D01*
X28267278Y53598999D01*
X28251487Y53594767D01*
X28230525Y53589151D01*
X28207508Y53582983D01*
X28207507Y53582982D01*
X28081992Y53510515D01*
X28081984Y53510510D01*
X28081968Y53510495D01*
X27979505Y53408032D01*
X27979490Y53408016D01*
X27979485Y53408008D01*
X27908287Y53284692D01*
X27908286Y53284688D01*
X27907017Y53282489D01*
X27907016Y53282485D01*
X27869500Y53142475D01*
X23590500Y53142475D01*
X23590500Y55162475D01*
X27759500Y55162475D01*
X27759500Y55017525D01*
X27760888Y55012346D01*
X27797013Y54877523D01*
X27797016Y54877515D01*
X27797017Y54877512D01*
X27831658Y54817512D01*
X27867631Y54755205D01*
X27869489Y54751987D01*
X27971985Y54649491D01*
X27972674Y54648995D01*
X27975178Y54647647D01*
X28094069Y54579005D01*
X28097087Y54577131D01*
X28097514Y54577017D01*
X28097515Y54577016D01*
X28237525Y54539500D01*
X28237528Y54539500D01*
X28382472Y54539500D01*
X28382475Y54539500D01*
X28522485Y54577016D01*
X28631101Y54639726D01*
X28661005Y54652112D01*
X28691470Y54660275D01*
X28723563Y54664500D01*
X41907784Y54664500D01*
X41942716Y54659479D01*
X41967960Y54652066D01*
X42020706Y54620770D01*
X42051985Y54589491D01*
X42052674Y54588995D01*
X42055178Y54587647D01*
X42174062Y54519009D01*
X42177513Y54517017D01*
X42177515Y54517016D01*
X42317525Y54479500D01*
X42317528Y54479500D01*
X42462472Y54479500D01*
X42462475Y54479500D01*
X42602485Y54517016D01*
X42728015Y54589491D01*
X42830509Y54691985D01*
X42902984Y54817515D01*
X42940500Y54957525D01*
X42940500Y55102475D01*
X42902984Y55242485D01*
X42891489Y55262394D01*
X42891487Y55262398D01*
X42830513Y55368009D01*
X42830508Y55368016D01*
X42830493Y55368032D01*
X42728030Y55470495D01*
X42728014Y55470510D01*
X42728006Y55470515D01*
X42674243Y55501555D01*
X42645808Y55531376D01*
X42591007Y55546061D01*
X42591007Y55546060D01*
X42526740Y55563280D01*
X42462475Y55580500D01*
X42462474Y55580500D01*
X42317523Y55580500D01*
X42233517Y55557991D01*
X42233516Y55557992D01*
X42177511Y55542984D01*
X42172814Y55540272D01*
X42142915Y55527888D01*
X42112456Y55519726D01*
X42080360Y55515500D01*
X28723563Y55515500D01*
X28691468Y55519726D01*
X28661005Y55527889D01*
X28631099Y55540277D01*
X28594242Y55561557D01*
X28565810Y55591375D01*
X28511007Y55606061D01*
X28511007Y55606060D01*
X28446740Y55623280D01*
X28382475Y55640500D01*
X28382474Y55640500D01*
X28237525Y55640500D01*
X28108994Y55606061D01*
X28108993Y55606060D01*
X28101338Y55604009D01*
X28097510Y55602983D01*
X27971991Y55530515D01*
X27971984Y55530510D01*
X27971968Y55530495D01*
X27869505Y55428032D01*
X27869490Y55428016D01*
X27869485Y55428008D01*
X27798287Y55304692D01*
X27798286Y55304688D01*
X27797017Y55302489D01*
X27797016Y55302485D01*
X27759500Y55162475D01*
X23590500Y55162475D01*
X23590500Y58007671D01*
X23595523Y58042607D01*
X23599927Y58057605D01*
X23637672Y58116356D01*
X23639041Y58117543D01*
X23693920Y58145023D01*
X23701479Y58146667D01*
X23727832Y58149500D01*
X27345299Y58149500D01*
X27380231Y58144479D01*
G37*
%TD.AperFunction*%
%TA.AperFunction,Conductor*%
G36*
X76223522Y13983340D02*
G01*
X76287565Y13959974D01*
X76327250Y13931141D01*
X76413390Y13887251D01*
X76509565Y13838247D01*
X76509567Y13838247D01*
X76509570Y13838245D01*
X76653259Y13791557D01*
X76710106Y13753121D01*
X76710963Y13752095D01*
X76720281Y13745721D01*
X76747469Y13681358D01*
X76735544Y13612514D01*
X76715617Y13583383D01*
X76713521Y13581100D01*
X76660499Y13547030D01*
X76586148Y13522872D01*
X76431818Y13444236D01*
X76431805Y13444228D01*
X76374684Y13402728D01*
X76374685Y13402727D01*
X76311434Y13356773D01*
X76311430Y13356770D01*
X76291672Y13342414D01*
X76291670Y13342412D01*
X76291669Y13342412D01*
X76169188Y13219931D01*
X76169188Y13219930D01*
X76169186Y13219928D01*
X76154828Y13200167D01*
X76154822Y13200160D01*
X76154551Y13199787D01*
X76154552Y13199786D01*
X76067368Y13079790D01*
X75988729Y12925451D01*
X75935196Y12760695D01*
X75908100Y12589617D01*
X75908100Y12416386D01*
X75934376Y12250481D01*
X75934377Y12250481D01*
X75934377Y12250478D01*
X75935198Y12245299D01*
X75988727Y12080555D01*
X76067368Y11926212D01*
X76169186Y11786072D01*
X76291672Y11663586D01*
X76431812Y11561768D01*
X76586155Y11483127D01*
X76750899Y11429598D01*
X76921989Y11402500D01*
X76921990Y11402500D01*
X77095210Y11402500D01*
X77095211Y11402500D01*
X77266301Y11429598D01*
X77431045Y11483127D01*
X77450777Y11493181D01*
X77511920Y11524335D01*
X77545329Y11535721D01*
X77558969Y11538282D01*
X77628490Y11531308D01*
X77683204Y11487856D01*
X77683217Y11487838D01*
X77685140Y11485109D01*
X77706098Y11434017D01*
X77706421Y11432074D01*
X77708100Y11411740D01*
X77708100Y8547287D01*
X77703075Y8512346D01*
X77699164Y8499029D01*
X77661387Y8440253D01*
X77597829Y8411231D01*
X77594524Y8410756D01*
X77539396Y8415298D01*
X77537520Y8415893D01*
X77518714Y8423605D01*
X77431051Y8468271D01*
X77279815Y8517412D01*
X77279803Y8517415D01*
X77266301Y8521802D01*
X77266299Y8521803D01*
X77266298Y8521803D01*
X77251912Y8524082D01*
X77251906Y8524083D01*
X77161788Y8538356D01*
X77134871Y8542619D01*
X77119007Y8545132D01*
X77095214Y8548900D01*
X77095211Y8548900D01*
X76921989Y8548900D01*
X76921988Y8548900D01*
X76882326Y8542619D01*
X76882325Y8542620D01*
X76750904Y8521804D01*
X76586149Y8468271D01*
X76431810Y8389632D01*
X76364281Y8340568D01*
X76303543Y8296439D01*
X76296162Y8292306D01*
X76164694Y8160838D01*
X76160565Y8153464D01*
X76150736Y8139934D01*
X76150732Y8139929D01*
X76067372Y8025195D01*
X76067364Y8025182D01*
X75988729Y7870851D01*
X75935196Y7706095D01*
X75908100Y7535017D01*
X75908100Y7361786D01*
X75923348Y7265513D01*
X75934156Y7197273D01*
X75935198Y7190699D01*
X75988727Y7025955D01*
X76067368Y6871612D01*
X76169186Y6731472D01*
X76291672Y6608986D01*
X76431812Y6507168D01*
X76586155Y6428527D01*
X76750899Y6374998D01*
X76921989Y6347900D01*
X76921990Y6347900D01*
X77095210Y6347900D01*
X77095211Y6347900D01*
X77266301Y6374998D01*
X77431045Y6428527D01*
X77440326Y6433256D01*
X77511920Y6469735D01*
X77545329Y6481121D01*
X77558969Y6483682D01*
X77628490Y6476708D01*
X77683204Y6433256D01*
X77683217Y6433238D01*
X77685140Y6430509D01*
X77706098Y6379417D01*
X77706421Y6377474D01*
X77708100Y6357140D01*
X77708100Y6007287D01*
X77703075Y5972346D01*
X77699164Y5959029D01*
X77661387Y5900253D01*
X77597829Y5871231D01*
X77594524Y5870756D01*
X77539396Y5875298D01*
X77537520Y5875893D01*
X77518714Y5883605D01*
X77431051Y5928271D01*
X77279815Y5977412D01*
X77279803Y5977415D01*
X77266301Y5981802D01*
X77266299Y5981803D01*
X77266298Y5981803D01*
X77251912Y5984082D01*
X77251906Y5984083D01*
X77161788Y5998356D01*
X77134871Y6002619D01*
X77119007Y6005132D01*
X77095214Y6008900D01*
X77095211Y6008900D01*
X76921989Y6008900D01*
X76921988Y6008900D01*
X76882326Y6002619D01*
X76882325Y6002620D01*
X76750904Y5981804D01*
X76586149Y5928271D01*
X76431810Y5849632D01*
X76351856Y5791541D01*
X76351855Y5791541D01*
X76303541Y5756439D01*
X76296164Y5752308D01*
X76164694Y5620838D01*
X76160565Y5613464D01*
X76150736Y5599934D01*
X76150732Y5599929D01*
X76067372Y5485195D01*
X76067364Y5485182D01*
X75988729Y5330851D01*
X75935196Y5166095D01*
X75922672Y5087018D01*
X75908100Y4995016D01*
X75908100Y4821790D01*
X75935198Y4650698D01*
X75962908Y4565414D01*
X75962909Y4565414D01*
X75962909Y4565413D01*
X75988728Y4485953D01*
X75994774Y4474087D01*
X76001668Y4460556D01*
X76001669Y4460555D01*
X76067366Y4331616D01*
X76067370Y4331608D01*
X76102696Y4282987D01*
X76169186Y4191472D01*
X76291672Y4068986D01*
X76431812Y3967168D01*
X76586155Y3888527D01*
X76750899Y3834998D01*
X76921989Y3807900D01*
X76921990Y3807900D01*
X77095210Y3807900D01*
X77095211Y3807900D01*
X77266301Y3834998D01*
X77431045Y3888527D01*
X77480342Y3913645D01*
X77511920Y3929735D01*
X77545329Y3941121D01*
X77558969Y3943682D01*
X77628490Y3936708D01*
X77683204Y3893256D01*
X77683217Y3893238D01*
X77685140Y3890509D01*
X77706098Y3839417D01*
X77706421Y3837474D01*
X77708100Y3817140D01*
X77708100Y3467287D01*
X77703075Y3432346D01*
X77699164Y3419029D01*
X77661387Y3360253D01*
X77597829Y3331231D01*
X77594524Y3330756D01*
X77539396Y3335298D01*
X77537520Y3335893D01*
X77518714Y3343605D01*
X77431051Y3388271D01*
X77279815Y3437412D01*
X77279803Y3437415D01*
X77266301Y3441802D01*
X77266299Y3441803D01*
X77266298Y3441803D01*
X77251912Y3444082D01*
X77251906Y3444083D01*
X77161788Y3458356D01*
X77134871Y3462619D01*
X77119007Y3465132D01*
X77095214Y3468900D01*
X77095211Y3468900D01*
X76921989Y3468900D01*
X76921988Y3468900D01*
X76882326Y3462619D01*
X76882325Y3462620D01*
X76750904Y3441804D01*
X76586149Y3388271D01*
X76431810Y3309632D01*
X76351856Y3251541D01*
X76351855Y3251541D01*
X76303541Y3216439D01*
X76296164Y3212308D01*
X76164694Y3080838D01*
X76160565Y3073464D01*
X76150736Y3059934D01*
X76150732Y3059929D01*
X76067372Y2945195D01*
X76067364Y2945182D01*
X75988729Y2790851D01*
X75935196Y2626095D01*
X75908100Y2455017D01*
X75908100Y2281786D01*
X75931894Y2131556D01*
X75935196Y2110704D01*
X75939100Y2098690D01*
X75988727Y1945955D01*
X76067368Y1791612D01*
X76169186Y1651472D01*
X76169188Y1651470D01*
X76291673Y1528985D01*
X76312712Y1513700D01*
X76354892Y1459603D01*
X76355393Y1458356D01*
X76362280Y1449427D01*
X76368269Y1379815D01*
X76335671Y1318015D01*
X76307725Y1296459D01*
X76305029Y1294936D01*
X76244039Y1278900D01*
X74449705Y1278900D01*
X74347845Y1251608D01*
X74347842Y1251607D01*
X74256531Y1198887D01*
X74256516Y1198877D01*
X74256514Y1198876D01*
X72631633Y-426007D01*
X72603382Y-447156D01*
X72580294Y-459764D01*
X72533887Y-471609D01*
X72534185Y-473873D01*
X72526125Y-474934D01*
X72423341Y-502475D01*
X72423340Y-502474D01*
X72386112Y-512450D01*
X72386107Y-512452D01*
X72260592Y-584919D01*
X72260584Y-584924D01*
X72260568Y-584939D01*
X72158105Y-687402D01*
X72158090Y-687418D01*
X72158085Y-687426D01*
X72085617Y-812943D01*
X72085589Y-813012D01*
X72085348Y-813945D01*
X72061989Y-901124D01*
X72048100Y-952959D01*
X72048100Y-1097909D01*
X72048351Y-1098844D01*
X72085613Y-1237911D01*
X72085616Y-1237919D01*
X72085617Y-1237922D01*
X72120015Y-1297501D01*
X72156231Y-1360229D01*
X72158089Y-1363447D01*
X72260585Y-1465943D01*
X72261274Y-1466439D01*
X72263778Y-1467787D01*
X72382669Y-1536429D01*
X72385687Y-1538303D01*
X72386114Y-1538417D01*
X72386115Y-1538418D01*
X72526125Y-1575934D01*
X72526128Y-1575934D01*
X72650481Y-1575934D01*
X72685408Y-1580955D01*
X72696261Y-1584141D01*
X72755042Y-1621911D01*
X72784071Y-1685465D01*
X72774132Y-1754624D01*
X72774131Y-1754626D01*
X72770946Y-1761601D01*
X72745830Y-1797776D01*
X48669526Y-25874078D01*
X48669521Y-25874084D01*
X48669511Y-25874100D01*
X48611353Y-25974831D01*
X48610409Y-25989237D01*
X48589500Y-26067271D01*
X48589500Y-29826000D01*
X48569815Y-29893039D01*
X48517011Y-29938794D01*
X48465500Y-29950000D01*
X41112862Y-29950000D01*
X41045823Y-29930315D01*
X41000068Y-29877511D01*
X40990124Y-29808353D01*
X41019149Y-29744797D01*
X41025181Y-29738319D01*
X44889422Y-25874078D01*
X65104076Y-5659423D01*
X65132326Y-5638275D01*
X65155418Y-5625667D01*
X65214843Y-5610500D01*
X65902725Y-5610500D01*
X65902727Y-5610500D01*
X66004588Y-5583207D01*
X66095913Y-5530480D01*
X69810480Y-1815913D01*
X69822111Y-1795768D01*
X69863207Y-1724587D01*
X69890500Y-1622727D01*
X69890500Y74916D01*
X69895522Y109849D01*
X69902934Y135094D01*
X69934228Y187836D01*
X70149083Y402690D01*
X70363125Y616734D01*
X70391371Y637877D01*
X70399680Y642414D01*
X70403551Y644529D01*
X70471823Y659381D01*
X70537288Y634965D01*
X70537290Y634963D01*
X70544096Y629868D01*
X70577171Y592604D01*
X70594848Y561987D01*
X70594850Y561985D01*
X70629491Y501985D01*
X70629493Y501983D01*
X70731985Y399491D01*
X70732674Y398995D01*
X70735178Y397647D01*
X70854069Y329005D01*
X70857087Y327131D01*
X70857514Y327017D01*
X70857515Y327016D01*
X70997525Y289500D01*
X70997528Y289500D01*
X71142472Y289500D01*
X71142475Y289500D01*
X71282485Y327016D01*
X71408015Y399491D01*
X71510509Y501985D01*
X71582984Y627515D01*
X71620500Y767525D01*
X71620500Y767530D01*
X71620524Y767619D01*
X71624453Y786209D01*
X71632934Y815093D01*
X71664228Y867838D01*
X75178469Y4382080D01*
X75178476Y4382084D01*
X75195912Y4399520D01*
X75195913Y4399520D01*
X75270480Y4474087D01*
X75323207Y4565413D01*
X75326202Y4576589D01*
X75350501Y4667273D01*
X75350501Y4772727D01*
X75350501Y4780322D01*
X75350501Y4782006D01*
X75350500Y4782080D01*
X75350500Y13114918D01*
X75355522Y13149851D01*
X75362934Y13175096D01*
X75394228Y13227838D01*
X76106710Y13940321D01*
X76134964Y13961470D01*
X76148682Y13968960D01*
X76216948Y13983810D01*
X76223522Y13983340D01*
G37*
%TD.AperFunction*%
%TA.AperFunction,Conductor*%
G36*
X78189366Y22368266D02*
G01*
X78240391Y22346923D01*
X78241994Y22345776D01*
X78257518Y22332614D01*
X78760573Y21829559D01*
X78781723Y21801307D01*
X78794331Y21778218D01*
X78809500Y21718789D01*
X78809500Y19402727D01*
X78809500Y19297273D01*
X78836793Y19195413D01*
X78889520Y19104087D01*
X78964087Y19029520D01*
X79030939Y18990923D01*
X79055409Y18976795D01*
X79055413Y18976793D01*
X79074375Y18971713D01*
X79083791Y18967414D01*
X79086836Y18964776D01*
X79096827Y18960498D01*
X79106481Y18954614D01*
X79135820Y18922343D01*
X79136602Y18921666D01*
X79136681Y18921397D01*
X79153481Y18902918D01*
X79165072Y18834016D01*
X79137572Y18769786D01*
X79137569Y18769783D01*
X79137176Y18769307D01*
X79093037Y18735446D01*
X79090997Y18734515D01*
X79071615Y18727550D01*
X79055415Y18723209D01*
X79055412Y18723208D01*
X79055411Y18723207D01*
X78994526Y18688055D01*
X78964082Y18670477D01*
X78889520Y18595914D01*
X78889518Y18595912D01*
X78836795Y18504592D01*
X78836792Y18504587D01*
X78809500Y18402727D01*
X78809500Y11197216D01*
X78804476Y11162279D01*
X78797064Y11137038D01*
X78772631Y11095847D01*
X78774437Y11094461D01*
X78769491Y11088016D01*
X78747928Y11050670D01*
X78725927Y11029695D01*
X78716451Y11014512D01*
X78703663Y11008468D01*
X78697359Y11002456D01*
X78680606Y10995324D01*
X78673163Y10992783D01*
X78672790Y10993873D01*
X78653283Y10984651D01*
X78584000Y10993682D01*
X78533038Y11035183D01*
X78532487Y11035957D01*
X78511181Y11087401D01*
X78510808Y11089622D01*
X78509100Y11110133D01*
X78509100Y19075725D01*
X78509100Y19075727D01*
X78481807Y19177587D01*
X78481807Y19177588D01*
X78429080Y19268913D01*
X78087200Y19610793D01*
X78066051Y19639043D01*
X78057866Y19654033D01*
X78042854Y19719653D01*
X78043519Y19732947D01*
X78049433Y19765066D01*
X78082002Y19865299D01*
X78109100Y20036389D01*
X78109100Y20209611D01*
X78082002Y20380701D01*
X78028473Y20545445D01*
X77949832Y20699788D01*
X77848014Y20839928D01*
X77725528Y20962414D01*
X77585388Y21064232D01*
X77431049Y21142872D01*
X77279815Y21192012D01*
X77279803Y21192015D01*
X77266301Y21196402D01*
X77266299Y21196403D01*
X77266298Y21196403D01*
X77251912Y21198682D01*
X77251906Y21198683D01*
X77160505Y21213159D01*
X77134871Y21217219D01*
X77119007Y21219732D01*
X77095214Y21223500D01*
X77095211Y21223500D01*
X76921989Y21223500D01*
X76921988Y21223500D01*
X76882326Y21217219D01*
X76882325Y21217220D01*
X76750904Y21196404D01*
X76586152Y21142872D01*
X76586150Y21142872D01*
X76546678Y21122760D01*
X76513275Y21111377D01*
X76499634Y21108815D01*
X76430113Y21115786D01*
X76375398Y21159237D01*
X76373472Y21161969D01*
X76352487Y21213159D01*
X76352165Y21215104D01*
X76350500Y21235357D01*
X76350500Y21369317D01*
X76355523Y21404251D01*
X76362934Y21429491D01*
X76394227Y21482236D01*
X76496398Y21584408D01*
X76524646Y21605554D01*
X76539631Y21613736D01*
X76605250Y21628747D01*
X76618541Y21628082D01*
X76650660Y21622168D01*
X76684447Y21611190D01*
X76750899Y21589598D01*
X76921989Y21562500D01*
X76921990Y21562500D01*
X77095210Y21562500D01*
X77095211Y21562500D01*
X77266301Y21589598D01*
X77431045Y21643127D01*
X77585388Y21721768D01*
X77725528Y21823586D01*
X77848014Y21946072D01*
X77949832Y22086212D01*
X78028473Y22240555D01*
X78039181Y22273514D01*
X78054753Y22305187D01*
X78062589Y22316646D01*
X78116679Y22360870D01*
X78186076Y22368835D01*
X78189366Y22368266D01*
G37*
%TD.AperFunction*%
%TA.AperFunction,Conductor*%
G36*
X79837126Y18148722D02*
G01*
X79878999Y18092790D01*
X79881682Y18085598D01*
X79889500Y18042264D01*
X79889500Y14492727D01*
X79889500Y14387273D01*
X79889501Y14387270D01*
X79890120Y14382563D01*
X79891434Y14375960D01*
X79893539Y14359973D01*
X79894600Y14343786D01*
X79894600Y11182116D01*
X79889576Y11147178D01*
X79883544Y11126637D01*
X79845768Y11067860D01*
X79837688Y11061427D01*
X79830470Y11056157D01*
X79764718Y11032524D01*
X79696628Y11048190D01*
X79696627Y11048191D01*
X79691453Y11051097D01*
X79653808Y11083715D01*
X79653029Y11084730D01*
X79648213Y11091457D01*
X79647102Y11093124D01*
X79647363Y11093299D01*
X79639922Y11104336D01*
X79625667Y11130443D01*
X79610500Y11189868D01*
X79610500Y18007809D01*
X79615522Y18042742D01*
X79622934Y18067987D01*
X79654228Y18120729D01*
X79665214Y18131715D01*
X79693457Y18152859D01*
X79703391Y18158283D01*
X79771661Y18173136D01*
X79837126Y18148722D01*
G37*
%TD.AperFunction*%
%TA.AperFunction,Conductor*%
G36*
X76008002Y28544478D02*
G01*
X76015580Y28542254D01*
X76020427Y28540830D01*
X76079206Y28503057D01*
X76108232Y28439502D01*
X76100389Y28375212D01*
X76096904Y28366627D01*
X76088253Y28355735D01*
X76089774Y28354756D01*
X76069213Y28322802D01*
X76067371Y28319796D01*
X75988729Y28165451D01*
X75935196Y28000695D01*
X75908100Y27829617D01*
X75908100Y27656385D01*
X75908099Y27656385D01*
X75933703Y27494733D01*
X75935197Y27485301D01*
X75988728Y27320551D01*
X76050024Y27200251D01*
X76067368Y27166212D01*
X76169186Y27026072D01*
X76291672Y26903586D01*
X76431812Y26801768D01*
X76586155Y26723127D01*
X76750899Y26669598D01*
X76921989Y26642500D01*
X76921990Y26642500D01*
X77095210Y26642500D01*
X77095211Y26642500D01*
X77266301Y26669598D01*
X77431045Y26723127D01*
X77585388Y26801768D01*
X77725528Y26903586D01*
X77848014Y27026072D01*
X77949832Y27166212D01*
X78028473Y27320555D01*
X78082002Y27485299D01*
X78109100Y27656389D01*
X78109100Y27807316D01*
X78114121Y27842243D01*
X78116751Y27851202D01*
X78117307Y27853098D01*
X78155077Y27911877D01*
X78218631Y27940906D01*
X78287786Y27930968D01*
X78294772Y27927778D01*
X78330942Y27902665D01*
X79840573Y26393034D01*
X79861723Y26364782D01*
X79874331Y26341693D01*
X79889500Y26282264D01*
X79889500Y19661192D01*
X79884476Y19626254D01*
X79881289Y19615401D01*
X79843514Y19556624D01*
X79779957Y19527601D01*
X79710807Y19537542D01*
X79703829Y19540729D01*
X79667657Y19565843D01*
X79659426Y19574074D01*
X79638274Y19602330D01*
X79625667Y19625419D01*
X79610500Y19684844D01*
X79610500Y21999251D01*
X79610500Y21999252D01*
X79608351Y22007273D01*
X79583207Y22101113D01*
X79530480Y22192438D01*
X77689438Y24033480D01*
X77637176Y24063654D01*
X77609432Y24085473D01*
X77599855Y24095518D01*
X77567842Y24157622D01*
X77574486Y24227173D01*
X77576255Y24231592D01*
X77618481Y24285813D01*
X77671608Y24324411D01*
X77725528Y24363586D01*
X77848014Y24486072D01*
X77949832Y24626212D01*
X78028473Y24780555D01*
X78082002Y24945299D01*
X78109100Y25116389D01*
X78109100Y25289611D01*
X78082002Y25460701D01*
X78028473Y25625445D01*
X77949832Y25779788D01*
X77848014Y25919928D01*
X77725528Y26042414D01*
X77585388Y26144232D01*
X77573037Y26150525D01*
X77431049Y26222872D01*
X77279815Y26272012D01*
X77279803Y26272015D01*
X77266301Y26276402D01*
X77266299Y26276403D01*
X77266298Y26276403D01*
X77251912Y26278682D01*
X77251906Y26278683D01*
X77161610Y26292984D01*
X77134871Y26297219D01*
X77119007Y26299732D01*
X77095214Y26303500D01*
X77095211Y26303500D01*
X76921989Y26303500D01*
X76921988Y26303500D01*
X76882326Y26297219D01*
X76882325Y26297220D01*
X76750904Y26276404D01*
X76586149Y26222871D01*
X76431811Y26144233D01*
X76395723Y26118012D01*
X76303543Y26051039D01*
X76296162Y26046906D01*
X76164695Y25915439D01*
X76160565Y25908063D01*
X76156013Y25901797D01*
X76156009Y25901791D01*
X76067368Y25779789D01*
X76067365Y25779785D01*
X76067364Y25779782D01*
X75988729Y25625451D01*
X75935196Y25460695D01*
X75908100Y25289617D01*
X75908100Y25116385D01*
X75908099Y25116385D01*
X75933703Y24954733D01*
X75935197Y24945301D01*
X75988728Y24780551D01*
X76050023Y24660253D01*
X76067368Y24626212D01*
X76169186Y24486072D01*
X76169188Y24486070D01*
X76291673Y24363585D01*
X76312712Y24348300D01*
X76354892Y24294203D01*
X76355393Y24292956D01*
X76362280Y24284027D01*
X76368269Y24214415D01*
X76335671Y24152615D01*
X76307725Y24131059D01*
X76305029Y24129536D01*
X76244039Y24113500D01*
X75129978Y24113500D01*
X75095042Y24118523D01*
X75069800Y24125935D01*
X75017055Y24157231D01*
X70849074Y28325212D01*
X70827925Y28353462D01*
X70822503Y28363392D01*
X70807650Y28431662D01*
X70832064Y28497127D01*
X70887994Y28538999D01*
X70891873Y28540446D01*
X70895209Y28541689D01*
X70938523Y28549500D01*
X75973070Y28549500D01*
X76008002Y28544478D01*
G37*
%TD.AperFunction*%
%TA.AperFunction,Conductor*%
G36*
X71119186Y26907461D02*
G01*
X71126172Y26904271D01*
X71162342Y26879158D01*
X74648980Y23392520D01*
X74740305Y23339793D01*
X74842166Y23312500D01*
X75884237Y23312500D01*
X75904702Y23306491D01*
X75923774Y23306100D01*
X75937542Y23296848D01*
X75951276Y23292815D01*
X75975947Y23271039D01*
X75981766Y23267129D01*
X76009483Y23202992D01*
X75998124Y23134052D01*
X75951297Y23082196D01*
X75918899Y23068195D01*
X75918369Y23068052D01*
X75917557Y23067832D01*
X75885072Y23063500D01*
X73402085Y23063500D01*
X73367149Y23068523D01*
X73341907Y23075935D01*
X73289162Y23107231D01*
X70989426Y25406967D01*
X70968274Y25435223D01*
X70955667Y25458312D01*
X70940500Y25517737D01*
X70940500Y26783809D01*
X70945521Y26818736D01*
X70948707Y26829589D01*
X70986477Y26888370D01*
X71050031Y26917399D01*
X71119186Y26907461D01*
G37*
%TD.AperFunction*%
%TA.AperFunction,Conductor*%
G36*
X67329186Y30697461D02*
G01*
X67336169Y30694272D01*
X67363471Y30670617D01*
X67365281Y30672430D01*
X69289076Y28752424D01*
X69289586Y28751914D01*
X69310821Y28723577D01*
X69317473Y28711395D01*
X69332325Y28643122D01*
X69307909Y28577657D01*
X69307900Y28577646D01*
X69302804Y28570840D01*
X69265550Y28537776D01*
X69251762Y28529815D01*
X69226988Y28515511D01*
X69226983Y28515509D01*
X69226980Y28515506D01*
X69226976Y28515503D01*
X69124505Y28413032D01*
X69124490Y28413016D01*
X69124488Y28413013D01*
X69058943Y28299487D01*
X69058940Y28299482D01*
X69052017Y28287489D01*
X69052015Y28287486D01*
X69046508Y28266935D01*
X69044223Y28260951D01*
X69041327Y28257146D01*
X69034270Y28240665D01*
X69027048Y28228816D01*
X69003428Y28207345D01*
X69001911Y28205350D01*
X69000783Y28204940D01*
X68975348Y28181817D01*
X68906446Y28170229D01*
X68906442Y28170229D01*
X68904828Y28170422D01*
X68850041Y28190860D01*
X68845885Y28193673D01*
X68827719Y28208674D01*
X67199426Y29836967D01*
X67178274Y29865223D01*
X67165667Y29888312D01*
X67150500Y29947737D01*
X67150500Y30573809D01*
X67155521Y30608736D01*
X67158707Y30619589D01*
X67196477Y30678370D01*
X67260031Y30707399D01*
X67329186Y30697461D01*
G37*
%TD.AperFunction*%
%TD*%
M02*
