%TF.GenerationSoftware,KiCad,Pcbnew,10.0.0*%
%TF.CreationDate,2026-04-06T20:51:42-04:00*%
%TF.ProjectId,SpecterShield-BE-ATDT,53706563-7465-4725-9368-69656c642d42,rev?*%
%TF.SameCoordinates,Original*%
%TF.FileFunction,Copper,L2,Inr*%
%TF.FilePolarity,Positive*%
%FSLAX46Y46*%
G04 Gerber Fmt 4.6, Leading zero omitted, Abs format (unit mm)*
G04 Created by KiCad (PCBNEW 10.0.0) date 2026-04-06 20:51:42*
%MOMM*%
%LPD*%
G01*
G04 APERTURE LIST*
%TA.AperFunction,ComponentPad*%
%ADD10C,1.600000*%
%TD*%
%TA.AperFunction,HeatsinkPad*%
%ADD11C,0.500000*%
%TD*%
%TA.AperFunction,ComponentPad*%
%ADD12R,1.700000X1.700000*%
%TD*%
%TA.AperFunction,ComponentPad*%
%ADD13C,1.700000*%
%TD*%
%TA.AperFunction,ComponentPad*%
%ADD14C,0.500000*%
%TD*%
%TA.AperFunction,ComponentPad*%
%ADD15O,1.700000X1.000000*%
%TD*%
%TA.AperFunction,ViaPad*%
%ADD16C,0.500000*%
%TD*%
%TA.AperFunction,ViaPad*%
%ADD17C,0.600000*%
%TD*%
%TA.AperFunction,ViaPad*%
%ADD18C,1.000000*%
%TD*%
G04 APERTURE END LIST*
D10*
%TO.N,unconnected-(J201-Pin_1-Pad1)*%
%TO.C,J201*%
X77008600Y30283000D03*
%TO.N,unconnected-(J201-Pin_2-Pad2)_1*%
X77008600Y27743000D03*
%TO.N,/STM32F469I-DISCO-Interface/NRST*%
X77008600Y25203000D03*
%TO.N,+3V3*%
X77008600Y22663000D03*
%TO.N,+5V*%
X77008600Y20123000D03*
%TO.N,GND*%
X77008600Y17583000D03*
X77008600Y15043000D03*
%TO.N,PWR_VOUT*%
X77008600Y12503000D03*
%TD*%
%TO.N,PWR_nBUTTON*%
%TO.C,J202*%
X77008600Y7448400D03*
%TO.N,SC_nOFF*%
X77008600Y4908400D03*
%TO.N,SC_VCC_SEL1*%
X77008600Y2368400D03*
%TO.N,SC_VCC_SEL2_1*%
X77008600Y-171600D03*
%TO.N,SC_nCMDVCC*%
X77008600Y-2711600D03*
%TO.N,SC_CLK*%
X77008600Y-5251600D03*
%TD*%
%TO.N,SC_RST*%
%TO.C,J203*%
X28723200Y16617800D03*
%TO.N,BAT_MEAS*%
X28723200Y19157800D03*
%TO.N,CHG_STATE*%
X28723200Y21697800D03*
%TO.N,PWR_HOLD2*%
X28723200Y24237800D03*
%TO.N,PWR_nCharger*%
X28723200Y26777800D03*
%TO.N,unconnected-(J203-Pin_6-Pad6)*%
X28723200Y29317800D03*
%TO.N,GND*%
X28723200Y31857800D03*
%TO.N,unconnected-(J203-Pin_8-Pad8)*%
X28723200Y34397800D03*
%TO.N,I2C_SDA*%
X28723200Y36937800D03*
%TO.N,I2C_SCL*%
X28723200Y39477800D03*
%TD*%
%TO.N,QR_UART_TX*%
%TO.C,J204*%
X28723200Y-5277000D03*
%TO.N,QR_UART_RX*%
X28723200Y-2737000D03*
%TO.N,QR_TRIG*%
X28723200Y-197000D03*
%TO.N,UC_BEEP*%
X28723200Y2343000D03*
%TO.N,SC_CLKDIV2_1*%
X28723200Y4883000D03*
%TO.N,SC_IO*%
X28723200Y7423000D03*
%TO.N,SC_AUX1*%
X28723200Y9963000D03*
%TO.N,SC_CLKDIV1*%
X28723200Y12503000D03*
%TD*%
%TO.N,BATT_P*%
%TO.C,J303*%
X37870000Y52030000D03*
%TO.N,GND*%
X35870000Y52030000D03*
%TD*%
D11*
%TO.N,GND*%
%TO.C,U302*%
X47840000Y46892500D03*
X47840000Y45692500D03*
X47840000Y44492500D03*
X49240000Y46892500D03*
X49240000Y45692500D03*
X49240000Y44492500D03*
%TD*%
D12*
%TO.N,GND*%
%TO.C,J302*%
X35490000Y43575000D03*
D13*
%TO.N,USB_P*%
X35490000Y46115000D03*
%TD*%
D14*
%TO.N,/Power/V_SW*%
%TO.C,U301*%
X44187500Y25780000D03*
%TD*%
D15*
%TO.N,GND*%
%TO.C,J301*%
X28410000Y51045000D03*
X24610000Y51045000D03*
X28410000Y42405000D03*
X24610000Y42405000D03*
%TD*%
D16*
%TO.N,+3V3*%
X69565000Y28075000D03*
X71070000Y840000D03*
X71890000Y16410000D03*
X70980000Y24850000D03*
%TO.N,+5V*%
X60310000Y900000D03*
X72667958Y17869025D03*
X46360000Y5550000D03*
%TO.N,GND*%
X66960000Y-2810000D03*
X53260000Y3600000D03*
X80350000Y-9750000D03*
X33740000Y1380000D03*
X49820000Y25780000D03*
X61430000Y6360000D03*
X35075000Y54200000D03*
X65890000Y35950000D03*
X36290000Y32300000D03*
X72170000Y-2840000D03*
X53420000Y29820000D03*
X33060000Y17840000D03*
X33780000Y36620000D03*
X64730000Y-6020000D03*
X74800000Y27030000D03*
X31680000Y14650000D03*
X46820000Y57000000D03*
X25020000Y-13270000D03*
X40560000Y4380000D03*
X32950000Y19750000D03*
X54900000Y17580000D03*
X57150000Y25350000D03*
X63980000Y41080000D03*
X45089283Y45646971D03*
X38990000Y44500000D03*
X37000000Y56217861D03*
X67770000Y29980000D03*
X39840000Y51010000D03*
X70320000Y19490000D03*
X31980000Y48540000D03*
X66060000Y9550000D03*
X46750000Y41600000D03*
D17*
X26725000Y49475000D03*
D16*
X81160000Y33040000D03*
X34150000Y39920000D03*
X47000000Y-8450000D03*
X49970000Y28870000D03*
X58000000Y39910000D03*
X40725000Y47250000D03*
X72050000Y25100000D03*
X60600000Y-37910000D03*
X63370000Y11110000D03*
X54530000Y13070000D03*
X70640000Y3320000D03*
X42870000Y46610000D03*
X80800000Y43410000D03*
D17*
X64960000Y28760000D03*
D16*
X51200000Y4500000D03*
X80890000Y51750000D03*
X37200000Y7200000D03*
X75040000Y21530000D03*
X32170000Y-28580000D03*
X76300000Y49010000D03*
D17*
X67630000Y20850000D03*
D16*
X41475000Y57725000D03*
D18*
X49910000Y20680000D03*
D16*
X80650000Y-25390000D03*
X52410000Y6420000D03*
X66220000Y880000D03*
X79210000Y24060000D03*
X60170000Y2860000D03*
X79240000Y29200000D03*
X72580000Y-26780000D03*
X80950000Y2340000D03*
X58510000Y10720000D03*
X73890000Y6020000D03*
X72820000Y-38200000D03*
D18*
X47740000Y23650000D03*
D16*
X41500000Y54225000D03*
D17*
X30220000Y43580000D03*
D16*
X54000000Y-2780000D03*
X45490000Y-1210000D03*
X34210000Y-2350000D03*
X33650000Y29260000D03*
X54450000Y10960000D03*
D18*
X42340000Y18430000D03*
D16*
X70200000Y16600000D03*
X47040000Y570000D03*
X61240000Y38170000D03*
X68990000Y-1180000D03*
X39630000Y-2470000D03*
X68470000Y50090000D03*
X24230000Y-940000D03*
X30850000Y-9490000D03*
X34500000Y48850000D03*
X34960000Y27230000D03*
X57830000Y17630000D03*
X78770000Y48870000D03*
X75660000Y42890000D03*
X64060000Y-4610000D03*
X70790000Y48610000D03*
X25310000Y-24220000D03*
X63690000Y16020000D03*
X64040000Y45150000D03*
X43630000Y-9080000D03*
X43530000Y31200000D03*
X68450000Y46250000D03*
X36450000Y35510000D03*
X24220000Y21930000D03*
X80980000Y10010000D03*
X51030000Y23950000D03*
X37860000Y20120000D03*
X74960000Y3420000D03*
X71740000Y-990000D03*
X24100000Y47080000D03*
X31860000Y38920000D03*
X35550000Y8140000D03*
X54275000Y49800000D03*
X49250000Y-3530000D03*
X58830000Y450000D03*
X45010000Y-2390000D03*
X39850000Y14730000D03*
X47550000Y47870000D03*
X47390000Y9960000D03*
X63550000Y21910000D03*
X31480000Y3750000D03*
X60390000Y50080000D03*
X46710000Y24980000D03*
X47720000Y25730000D03*
X37890000Y31330000D03*
X54750000Y45600000D03*
X71550000Y8350000D03*
X72300000Y44410000D03*
D17*
X26725000Y43975000D03*
D16*
X33570000Y43950000D03*
X53760000Y1610000D03*
X73260000Y8860000D03*
X24280000Y32420000D03*
X38120000Y-37710000D03*
X63900000Y5830000D03*
X74860000Y16370000D03*
X35190000Y57770000D03*
D18*
X43790000Y16660000D03*
D16*
X77270000Y55370000D03*
X42400000Y9150000D03*
D17*
X30400000Y49475000D03*
D16*
X46040000Y30520000D03*
X72520000Y21880000D03*
X59590000Y-1830000D03*
X39280000Y150000D03*
X41960000Y16130000D03*
D18*
X40370000Y19920000D03*
D16*
X23950000Y11760000D03*
X26220000Y770000D03*
X37560000Y11290000D03*
X41140000Y51900000D03*
X25500000Y-37710000D03*
X77400000Y37910000D03*
X41875000Y41900000D03*
X51330000Y7540000D03*
X63150000Y-21180000D03*
X34940000Y12940000D03*
X43240000Y34740000D03*
X73530000Y1170000D03*
X69490000Y7280000D03*
X40770000Y12800000D03*
X71850000Y33940000D03*
X36450000Y0D03*
X43230000Y32440000D03*
X49220000Y-1540000D03*
X81130000Y-38590000D03*
X68200000Y890000D03*
X50780000Y12830000D03*
X65980000Y46100000D03*
X59890000Y-7320000D03*
X56490000Y43200000D03*
X65440000Y4060000D03*
X58360000Y12770000D03*
X45200000Y13280000D03*
X56960000Y-28070000D03*
X36310000Y15500000D03*
X28260000Y56080000D03*
X44870000Y-38980000D03*
X67520000Y-8980000D03*
X74270000Y13090000D03*
X79110000Y18850000D03*
X51400000Y38910000D03*
X71800000Y-4530000D03*
X55210000Y21850000D03*
X41675000Y56040000D03*
D17*
%TO.N,PWR_VOUT*%
X59652776Y35312776D03*
X55820000Y41380000D03*
D16*
%TO.N,PWR_nBUTTON*%
X81550000Y13180000D03*
X69600000Y29715000D03*
%TO.N,SC_nOFF*%
X72080000Y3770000D03*
X73190000Y3870000D03*
%TO.N,SC_CLK*%
X46230000Y-9230000D03*
X59540000Y-9950000D03*
%TO.N,SC_RST*%
X33870000Y7620000D03*
X51200000Y2260000D03*
%TO.N,CHG_STATE*%
X46670000Y51530000D03*
X52200000Y46900000D03*
X33680000Y29960000D03*
%TO.N,PWR_HOLD2*%
X33740000Y31050000D03*
X64170000Y42400000D03*
%TO.N,QR_UART_TX*%
X38170000Y-430000D03*
%TO.N,QR_UART_RX*%
X38150000Y680000D03*
%TO.N,QR_TRIG*%
X50020000Y15400000D03*
X58110000Y22060000D03*
%TO.N,SC_IO*%
X70090000Y5600000D03*
%TO.N,SC_CLKDIV1*%
X46035000Y-1845000D03*
X53709339Y-1539339D03*
%TO.N,Net-(D303-K)*%
X28310000Y55090000D03*
X42390000Y55030000D03*
%TO.N,Net-(D304-K)*%
X28420000Y53070000D03*
X42430000Y53370000D03*
%TO.N,BATT_P*%
X40160000Y34390000D03*
X42602500Y33900000D03*
D17*
%TO.N,Net-(J301-CC2)*%
X31099996Y42820000D03*
X29850000Y46225000D03*
D16*
%TO.N,Net-(U302-~{STDBY})*%
X52300000Y45750000D03*
X47500000Y54680000D03*
D17*
%TO.N,BOOST_VOUT*%
X46661966Y20871853D03*
X50940000Y25670000D03*
D16*
%TO.N,Net-(D307-K)*%
X42510000Y56980000D03*
X27915963Y57634037D03*
%TO.N,Net-(Q601-B)*%
X44710000Y9470000D03*
X61160000Y10440000D03*
%TO.N,Net-(R324-Pad2)*%
X71300000Y37395000D03*
X71050000Y47070000D03*
%TO.N,/SmartCard_Reader/SC_PRES_Out*%
X58400000Y-4110000D03*
X58080000Y-2917734D03*
%TO.N,/SmartCard_Reader/SC_CLK_Out*%
X59880000Y-4710000D03*
X54640000Y-8310000D03*
D17*
%TO.N,PWR_EN*%
X66205000Y31665000D03*
X69780000Y21620000D03*
%TO.N,Net-(J301-CC1)*%
X31880000Y42820000D03*
X29850000Y47250000D03*
%TD*%
%TA.AperFunction,Conductor*%
%TO.N,GND*%
G36*
X27430168Y58129815D02*
G01*
X27475923Y58077011D01*
X27485867Y58007853D01*
X27470516Y57963500D01*
X27402980Y57846526D01*
X27402979Y57846522D01*
X27365463Y57706512D01*
X27365463Y57561562D01*
X27383839Y57492984D01*
X27402980Y57421549D01*
X27475451Y57296026D01*
X27475453Y57296024D01*
X27475454Y57296022D01*
X27577948Y57193528D01*
X27577949Y57193527D01*
X27577951Y57193526D01*
X27703474Y57121055D01*
X27703475Y57121055D01*
X27703478Y57121053D01*
X27843488Y57083537D01*
X27843491Y57083537D01*
X27988435Y57083537D01*
X27988438Y57083537D01*
X28128448Y57121053D01*
X28253978Y57193528D01*
X28356472Y57296022D01*
X28428947Y57421552D01*
X28466463Y57561562D01*
X28466463Y57706512D01*
X28428947Y57846522D01*
X28361410Y57963500D01*
X28344937Y58031400D01*
X28367789Y58097427D01*
X28422711Y58140618D01*
X28468797Y58149500D01*
X50002917Y58149500D01*
X50069956Y58129815D01*
X50115711Y58077011D01*
X50126917Y58025500D01*
X50126917Y50980117D01*
X50157441Y50906426D01*
X50213843Y50850024D01*
X50287535Y50819500D01*
X50287537Y50819500D01*
X72367297Y50819500D01*
X72367299Y50819500D01*
X72440991Y50850024D01*
X72497393Y50906426D01*
X72527917Y50980118D01*
X72527917Y58025500D01*
X72547602Y58092539D01*
X72600406Y58138294D01*
X72651917Y58149500D01*
X82065500Y58149500D01*
X82132539Y58129815D01*
X82178294Y58077011D01*
X82189500Y58025500D01*
X82189500Y13618386D01*
X82169815Y13551347D01*
X82117011Y13505592D01*
X82047853Y13495648D01*
X81984297Y13524673D01*
X81977819Y13530705D01*
X81888017Y13620507D01*
X81888011Y13620512D01*
X81762488Y13692983D01*
X81762489Y13692983D01*
X81751006Y13696060D01*
X81622475Y13730500D01*
X81477525Y13730500D01*
X81348993Y13696060D01*
X81337511Y13692983D01*
X81211988Y13620512D01*
X81211982Y13620507D01*
X81109493Y13518018D01*
X81109488Y13518012D01*
X81037017Y13392489D01*
X81037016Y13392485D01*
X80999500Y13252475D01*
X80999500Y13107525D01*
X81037016Y12967515D01*
X81037017Y12967512D01*
X81109488Y12841989D01*
X81109490Y12841987D01*
X81109491Y12841985D01*
X81211985Y12739491D01*
X81211986Y12739490D01*
X81211988Y12739489D01*
X81337511Y12667018D01*
X81337512Y12667018D01*
X81337515Y12667016D01*
X81477525Y12629500D01*
X81477528Y12629500D01*
X81622472Y12629500D01*
X81622475Y12629500D01*
X81762485Y12667016D01*
X81888015Y12739491D01*
X81977819Y12829295D01*
X82039142Y12862780D01*
X82108834Y12857796D01*
X82164767Y12815924D01*
X82189184Y12750460D01*
X82189500Y12741614D01*
X82189500Y-40325500D01*
X82169815Y-40392539D01*
X82117011Y-40438294D01*
X82065500Y-40449500D01*
X23714500Y-40449500D01*
X23647461Y-40429815D01*
X23601706Y-40377011D01*
X23590500Y-40325500D01*
X23590500Y-36023389D01*
X31239500Y-36023389D01*
X31239500Y-36196611D01*
X31266598Y-36367701D01*
X31320127Y-36532445D01*
X31398768Y-36686788D01*
X31500586Y-36826928D01*
X31623072Y-36949414D01*
X31763212Y-37051232D01*
X31917555Y-37129873D01*
X32082299Y-37183402D01*
X32253389Y-37210500D01*
X32253390Y-37210500D01*
X32426610Y-37210500D01*
X32426611Y-37210500D01*
X32597701Y-37183402D01*
X32762445Y-37129873D01*
X32916788Y-37051232D01*
X33056928Y-36949414D01*
X33179414Y-36826928D01*
X33281232Y-36686788D01*
X33359873Y-36532445D01*
X33413402Y-36367701D01*
X33440500Y-36196611D01*
X33440500Y-36023389D01*
X33418326Y-35883389D01*
X53980677Y-35883389D01*
X53980677Y-36056610D01*
X54014467Y-36226481D01*
X54014470Y-36226493D01*
X54080750Y-36386509D01*
X54080757Y-36386522D01*
X54176984Y-36530535D01*
X54176987Y-36530539D01*
X54299460Y-36653012D01*
X54299464Y-36653015D01*
X54443477Y-36749242D01*
X54443490Y-36749249D01*
X54603506Y-36815529D01*
X54603511Y-36815531D01*
X54773389Y-36849322D01*
X54773392Y-36849323D01*
X54773394Y-36849323D01*
X54946608Y-36849323D01*
X54946609Y-36849322D01*
X55116489Y-36815531D01*
X55276516Y-36749246D01*
X55420536Y-36653015D01*
X55543015Y-36530536D01*
X55639246Y-36386516D01*
X55705531Y-36226489D01*
X55739323Y-36056606D01*
X55739323Y-35883394D01*
X55739323Y-35883391D01*
X55739322Y-35883389D01*
X55705532Y-35713518D01*
X55705531Y-35713511D01*
X55694780Y-35687555D01*
X55639249Y-35553490D01*
X55639242Y-35553477D01*
X55543015Y-35409464D01*
X55543012Y-35409460D01*
X55420539Y-35286987D01*
X55420535Y-35286984D01*
X55276522Y-35190757D01*
X55276509Y-35190750D01*
X55116493Y-35124470D01*
X55116481Y-35124467D01*
X54946609Y-35090677D01*
X54946606Y-35090677D01*
X54773394Y-35090677D01*
X54773391Y-35090677D01*
X54603518Y-35124467D01*
X54603506Y-35124470D01*
X54443490Y-35190750D01*
X54443477Y-35190757D01*
X54299464Y-35286984D01*
X54299460Y-35286987D01*
X54176987Y-35409460D01*
X54176984Y-35409464D01*
X54080757Y-35553477D01*
X54080750Y-35553490D01*
X54014470Y-35713506D01*
X54014467Y-35713518D01*
X53980677Y-35883389D01*
X33418326Y-35883389D01*
X33413402Y-35852299D01*
X33359873Y-35687555D01*
X33281232Y-35533212D01*
X33179414Y-35393072D01*
X33056928Y-35270586D01*
X32916788Y-35168768D01*
X32762445Y-35090127D01*
X32597701Y-35036598D01*
X32597699Y-35036597D01*
X32597698Y-35036597D01*
X32466271Y-35015781D01*
X32426611Y-35009500D01*
X32253389Y-35009500D01*
X32213728Y-35015781D01*
X32082302Y-35036597D01*
X31917552Y-35090128D01*
X31763211Y-35168768D01*
X31683256Y-35226859D01*
X31623072Y-35270586D01*
X31623070Y-35270588D01*
X31623069Y-35270588D01*
X31500588Y-35393069D01*
X31500588Y-35393070D01*
X31500586Y-35393072D01*
X31456859Y-35453256D01*
X31398768Y-35533211D01*
X31320128Y-35687552D01*
X31266597Y-35852302D01*
X31239500Y-36023389D01*
X23590500Y-36023389D01*
X23590500Y-15883389D01*
X44480677Y-15883389D01*
X44480677Y-16056610D01*
X44514467Y-16226481D01*
X44514470Y-16226493D01*
X44580750Y-16386509D01*
X44580757Y-16386522D01*
X44676984Y-16530535D01*
X44676987Y-16530539D01*
X44799460Y-16653012D01*
X44799464Y-16653015D01*
X44943477Y-16749242D01*
X44943490Y-16749249D01*
X45089846Y-16809871D01*
X45103511Y-16815531D01*
X45273389Y-16849322D01*
X45273392Y-16849323D01*
X45273394Y-16849323D01*
X45446608Y-16849323D01*
X45446609Y-16849322D01*
X45616489Y-16815531D01*
X45776516Y-16749246D01*
X45920536Y-16653015D01*
X46043015Y-16530536D01*
X46139246Y-16386516D01*
X46205531Y-16226489D01*
X46239323Y-16056606D01*
X46239323Y-15883394D01*
X46239323Y-15883391D01*
X46239322Y-15883389D01*
X46207361Y-15722708D01*
X46205532Y-15713516D01*
X46205531Y-15713515D01*
X46205531Y-15713511D01*
X46201338Y-15703389D01*
X75689500Y-15703389D01*
X75689500Y-15876611D01*
X75716598Y-16047701D01*
X75770127Y-16212445D01*
X75848768Y-16366788D01*
X75950586Y-16506928D01*
X76073072Y-16629414D01*
X76213212Y-16731232D01*
X76367555Y-16809873D01*
X76532299Y-16863402D01*
X76703389Y-16890500D01*
X76703390Y-16890500D01*
X76876610Y-16890500D01*
X76876611Y-16890500D01*
X77047701Y-16863402D01*
X77212445Y-16809873D01*
X77366788Y-16731232D01*
X77506928Y-16629414D01*
X77629414Y-16506928D01*
X77731232Y-16366788D01*
X77809873Y-16212445D01*
X77863402Y-16047701D01*
X77890500Y-15876611D01*
X77890500Y-15703389D01*
X77863402Y-15532299D01*
X77809873Y-15367555D01*
X77731232Y-15213212D01*
X77629414Y-15073072D01*
X77506928Y-14950586D01*
X77366788Y-14848768D01*
X77212445Y-14770127D01*
X77047701Y-14716598D01*
X77047699Y-14716597D01*
X77047698Y-14716597D01*
X76916271Y-14695781D01*
X76876611Y-14689500D01*
X76703389Y-14689500D01*
X76663728Y-14695781D01*
X76532302Y-14716597D01*
X76367552Y-14770128D01*
X76213211Y-14848768D01*
X76133256Y-14906859D01*
X76073072Y-14950586D01*
X76073070Y-14950588D01*
X76073069Y-14950588D01*
X75950588Y-15073069D01*
X75950588Y-15073070D01*
X75950586Y-15073072D01*
X75913245Y-15124467D01*
X75848768Y-15213211D01*
X75770128Y-15367552D01*
X75716597Y-15532302D01*
X75689500Y-15703389D01*
X46201338Y-15703389D01*
X46139249Y-15553490D01*
X46139242Y-15553477D01*
X46043015Y-15409464D01*
X46043012Y-15409460D01*
X45920539Y-15286987D01*
X45920535Y-15286984D01*
X45776522Y-15190757D01*
X45776509Y-15190750D01*
X45616493Y-15124470D01*
X45616481Y-15124467D01*
X45446609Y-15090677D01*
X45446606Y-15090677D01*
X45273394Y-15090677D01*
X45273391Y-15090677D01*
X45103518Y-15124467D01*
X45103506Y-15124470D01*
X44943490Y-15190750D01*
X44943477Y-15190757D01*
X44799464Y-15286984D01*
X44799460Y-15286987D01*
X44676987Y-15409460D01*
X44676984Y-15409464D01*
X44580757Y-15553477D01*
X44580750Y-15553490D01*
X44514470Y-15713506D01*
X44514467Y-15713518D01*
X44480677Y-15883389D01*
X23590500Y-15883389D01*
X23590500Y-9877525D01*
X58989500Y-9877525D01*
X58989500Y-10022475D01*
X59027016Y-10162485D01*
X59027017Y-10162488D01*
X59099488Y-10288011D01*
X59099490Y-10288013D01*
X59099491Y-10288015D01*
X59201985Y-10390509D01*
X59201986Y-10390510D01*
X59201988Y-10390511D01*
X59327511Y-10462982D01*
X59327512Y-10462982D01*
X59327515Y-10462984D01*
X59467525Y-10500500D01*
X59467528Y-10500500D01*
X59612472Y-10500500D01*
X59612475Y-10500500D01*
X59752485Y-10462984D01*
X59878015Y-10390509D01*
X59980509Y-10288015D01*
X60052984Y-10162485D01*
X60090500Y-10022475D01*
X60090500Y-9877525D01*
X60052984Y-9737515D01*
X60014296Y-9670506D01*
X59980511Y-9611988D01*
X59980506Y-9611982D01*
X59878017Y-9509493D01*
X59878011Y-9509488D01*
X59752488Y-9437017D01*
X59752489Y-9437017D01*
X59741006Y-9433940D01*
X59612475Y-9399500D01*
X59467525Y-9399500D01*
X59338993Y-9433940D01*
X59327511Y-9437017D01*
X59201988Y-9509488D01*
X59201982Y-9509493D01*
X59099493Y-9611982D01*
X59099488Y-9611988D01*
X59027017Y-9737511D01*
X59027016Y-9737515D01*
X58989500Y-9877525D01*
X23590500Y-9877525D01*
X23590500Y-9157525D01*
X45679500Y-9157525D01*
X45679500Y-9302475D01*
X45705498Y-9399500D01*
X45717017Y-9442488D01*
X45789488Y-9568011D01*
X45789490Y-9568013D01*
X45789491Y-9568015D01*
X45891985Y-9670509D01*
X45891986Y-9670510D01*
X45891988Y-9670511D01*
X46017511Y-9742982D01*
X46017512Y-9742982D01*
X46017515Y-9742984D01*
X46157525Y-9780500D01*
X46157528Y-9780500D01*
X46302472Y-9780500D01*
X46302475Y-9780500D01*
X46442485Y-9742984D01*
X46568015Y-9670509D01*
X46670509Y-9568015D01*
X46742984Y-9442485D01*
X46780500Y-9302475D01*
X46780500Y-9157525D01*
X46742984Y-9017515D01*
X46670509Y-8891985D01*
X46568015Y-8789491D01*
X46568013Y-8789490D01*
X46568011Y-8789488D01*
X46442488Y-8717017D01*
X46442489Y-8717017D01*
X46431006Y-8713940D01*
X46302475Y-8679500D01*
X46157525Y-8679500D01*
X46028993Y-8713940D01*
X46017511Y-8717017D01*
X45891988Y-8789488D01*
X45891982Y-8789493D01*
X45789493Y-8891982D01*
X45789488Y-8891988D01*
X45717017Y-9017511D01*
X45717016Y-9017515D01*
X45679500Y-9157525D01*
X23590500Y-9157525D01*
X23590500Y-8237525D01*
X54089500Y-8237525D01*
X54089500Y-8382475D01*
X54127016Y-8522485D01*
X54127017Y-8522488D01*
X54199488Y-8648011D01*
X54199490Y-8648013D01*
X54199491Y-8648015D01*
X54301985Y-8750509D01*
X54301986Y-8750510D01*
X54301988Y-8750511D01*
X54427511Y-8822982D01*
X54427512Y-8822982D01*
X54427515Y-8822984D01*
X54567525Y-8860500D01*
X54567528Y-8860500D01*
X54712472Y-8860500D01*
X54712475Y-8860500D01*
X54852485Y-8822984D01*
X54978015Y-8750509D01*
X55080509Y-8648015D01*
X55152984Y-8522485D01*
X55190500Y-8382475D01*
X55190500Y-8237525D01*
X55152984Y-8097515D01*
X55080509Y-7971985D01*
X54978015Y-7869491D01*
X54978013Y-7869490D01*
X54978011Y-7869488D01*
X54852488Y-7797017D01*
X54852489Y-7797017D01*
X54841006Y-7793940D01*
X54712475Y-7759500D01*
X54567525Y-7759500D01*
X54438993Y-7793940D01*
X54427511Y-7797017D01*
X54301988Y-7869488D01*
X54301982Y-7869493D01*
X54199493Y-7971982D01*
X54199488Y-7971988D01*
X54127017Y-8097511D01*
X54127016Y-8097515D01*
X54089500Y-8237525D01*
X23590500Y-8237525D01*
X23590500Y-5190389D01*
X27622700Y-5190389D01*
X27622700Y-5363611D01*
X27649798Y-5534701D01*
X27703327Y-5699445D01*
X27781968Y-5853788D01*
X27883786Y-5993928D01*
X28006272Y-6116414D01*
X28146412Y-6218232D01*
X28300755Y-6296873D01*
X28465499Y-6350402D01*
X28636589Y-6377500D01*
X28636590Y-6377500D01*
X28809810Y-6377500D01*
X28809811Y-6377500D01*
X28980901Y-6350402D01*
X29145645Y-6296873D01*
X29299988Y-6218232D01*
X29440128Y-6116414D01*
X29562614Y-5993928D01*
X29664432Y-5853788D01*
X29743073Y-5699445D01*
X29796602Y-5534701D01*
X29823700Y-5363611D01*
X29823700Y-5190389D01*
X29796602Y-5019299D01*
X29743073Y-4854555D01*
X29664432Y-4700212D01*
X29562614Y-4560072D01*
X29440128Y-4437586D01*
X29299988Y-4335768D01*
X29145645Y-4257127D01*
X28980901Y-4203598D01*
X28980899Y-4203597D01*
X28980898Y-4203597D01*
X28847517Y-4182472D01*
X28809811Y-4176500D01*
X28636589Y-4176500D01*
X28598883Y-4182472D01*
X28465502Y-4203597D01*
X28300752Y-4257128D01*
X28146411Y-4335768D01*
X28066456Y-4393859D01*
X28006272Y-4437586D01*
X28006270Y-4437588D01*
X28006269Y-4437588D01*
X27883788Y-4560069D01*
X27883788Y-4560070D01*
X27883786Y-4560072D01*
X27840059Y-4620256D01*
X27781968Y-4700211D01*
X27703328Y-4854552D01*
X27649797Y-5019302D01*
X27641382Y-5072436D01*
X27622700Y-5190389D01*
X23590500Y-5190389D01*
X23590500Y-2650389D01*
X27622700Y-2650389D01*
X27622700Y-2823610D01*
X27649086Y-2990209D01*
X27649798Y-2994701D01*
X27703327Y-3159445D01*
X27781968Y-3313788D01*
X27883786Y-3453928D01*
X28006272Y-3576414D01*
X28146412Y-3678232D01*
X28300755Y-3756873D01*
X28465499Y-3810402D01*
X28636589Y-3837500D01*
X28636590Y-3837500D01*
X28809810Y-3837500D01*
X28809811Y-3837500D01*
X28980901Y-3810402D01*
X29145645Y-3756873D01*
X29299988Y-3678232D01*
X29440128Y-3576414D01*
X29562614Y-3453928D01*
X29664432Y-3313788D01*
X29743073Y-3159445D01*
X29796602Y-2994701D01*
X29820271Y-2845259D01*
X57529500Y-2845259D01*
X57529500Y-2990209D01*
X57530703Y-2994697D01*
X57567017Y-3130222D01*
X57639488Y-3255745D01*
X57639490Y-3255747D01*
X57639491Y-3255749D01*
X57741985Y-3358243D01*
X57741986Y-3358244D01*
X57741988Y-3358245D01*
X57867511Y-3430716D01*
X57867512Y-3430716D01*
X57867515Y-3430718D01*
X58001749Y-3466686D01*
X58061407Y-3503050D01*
X58091936Y-3565897D01*
X58083641Y-3635273D01*
X58057335Y-3674141D01*
X57959488Y-3771988D01*
X57887017Y-3897511D01*
X57887016Y-3897515D01*
X57849500Y-4037525D01*
X57849500Y-4182475D01*
X57872817Y-4269493D01*
X57887017Y-4322488D01*
X57959488Y-4448011D01*
X57959490Y-4448013D01*
X57959491Y-4448015D01*
X58061985Y-4550509D01*
X58061986Y-4550510D01*
X58061988Y-4550511D01*
X58187511Y-4622982D01*
X58187512Y-4622982D01*
X58187515Y-4622984D01*
X58327525Y-4660500D01*
X58327528Y-4660500D01*
X58472472Y-4660500D01*
X58472475Y-4660500D01*
X58558218Y-4637525D01*
X59329500Y-4637525D01*
X59329500Y-4782475D01*
X59348814Y-4854555D01*
X59367017Y-4922488D01*
X59439488Y-5048011D01*
X59439490Y-5048013D01*
X59439491Y-5048015D01*
X59541985Y-5150509D01*
X59541986Y-5150510D01*
X59541988Y-5150511D01*
X59667511Y-5222982D01*
X59667512Y-5222982D01*
X59667515Y-5222984D01*
X59807525Y-5260500D01*
X59807528Y-5260500D01*
X59952472Y-5260500D01*
X59952475Y-5260500D01*
X60092485Y-5222984D01*
X60192935Y-5164989D01*
X75908100Y-5164989D01*
X75908100Y-5338211D01*
X75935198Y-5509301D01*
X75988727Y-5674045D01*
X76067368Y-5828388D01*
X76169186Y-5968528D01*
X76291672Y-6091014D01*
X76431812Y-6192832D01*
X76586155Y-6271473D01*
X76750899Y-6325002D01*
X76921989Y-6352100D01*
X76921990Y-6352100D01*
X77095210Y-6352100D01*
X77095211Y-6352100D01*
X77266301Y-6325002D01*
X77431045Y-6271473D01*
X77585388Y-6192832D01*
X77725528Y-6091014D01*
X77848014Y-5968528D01*
X77949832Y-5828388D01*
X78028473Y-5674045D01*
X78082002Y-5509301D01*
X78109100Y-5338211D01*
X78109100Y-5164989D01*
X78082002Y-4993899D01*
X78028473Y-4829155D01*
X77949832Y-4674812D01*
X77848014Y-4534672D01*
X77725528Y-4412186D01*
X77585388Y-4310368D01*
X77431045Y-4231727D01*
X77266301Y-4178198D01*
X77266299Y-4178197D01*
X77266298Y-4178197D01*
X77134871Y-4157381D01*
X77095211Y-4151100D01*
X76921989Y-4151100D01*
X76882328Y-4157381D01*
X76750902Y-4178197D01*
X76586152Y-4231728D01*
X76431811Y-4310368D01*
X76351856Y-4368459D01*
X76291672Y-4412186D01*
X76291670Y-4412188D01*
X76291669Y-4412188D01*
X76169188Y-4534669D01*
X76169188Y-4534670D01*
X76169186Y-4534672D01*
X76150732Y-4560072D01*
X76067368Y-4674811D01*
X75988728Y-4829152D01*
X75935197Y-4993902D01*
X75922759Y-5072436D01*
X75908100Y-5164989D01*
X60192935Y-5164989D01*
X60218015Y-5150509D01*
X60320509Y-5048015D01*
X60392984Y-4922485D01*
X60430500Y-4782475D01*
X60430500Y-4637525D01*
X60392984Y-4497515D01*
X60364406Y-4448017D01*
X60320511Y-4371988D01*
X60320506Y-4371982D01*
X60218017Y-4269493D01*
X60218011Y-4269488D01*
X60092488Y-4197017D01*
X60092489Y-4197017D01*
X60081006Y-4193940D01*
X59952475Y-4159500D01*
X59807525Y-4159500D01*
X59678993Y-4193940D01*
X59667511Y-4197017D01*
X59541988Y-4269488D01*
X59541982Y-4269493D01*
X59439493Y-4371982D01*
X59439488Y-4371988D01*
X59367017Y-4497511D01*
X59367016Y-4497515D01*
X59329500Y-4637525D01*
X58558218Y-4637525D01*
X58612485Y-4622984D01*
X58738015Y-4550509D01*
X58840509Y-4448015D01*
X58912984Y-4322485D01*
X58950500Y-4182475D01*
X58950500Y-4037525D01*
X58912984Y-3897515D01*
X58878334Y-3837500D01*
X58840511Y-3771988D01*
X58840506Y-3771982D01*
X58738017Y-3669493D01*
X58738011Y-3669488D01*
X58612488Y-3597017D01*
X58612489Y-3597017D01*
X58478252Y-3561048D01*
X58418591Y-3524682D01*
X58388063Y-3461835D01*
X58396358Y-3392460D01*
X58422660Y-3353597D01*
X58520509Y-3255749D01*
X58592984Y-3130219D01*
X58630500Y-2990209D01*
X58630500Y-2845259D01*
X58592984Y-2705249D01*
X58546646Y-2624989D01*
X75908100Y-2624989D01*
X75908100Y-2798211D01*
X75935198Y-2969301D01*
X75988727Y-3134045D01*
X76067368Y-3288388D01*
X76169186Y-3428528D01*
X76291672Y-3551014D01*
X76431812Y-3652832D01*
X76586155Y-3731473D01*
X76750899Y-3785002D01*
X76921989Y-3812100D01*
X76921990Y-3812100D01*
X77095210Y-3812100D01*
X77095211Y-3812100D01*
X77266301Y-3785002D01*
X77431045Y-3731473D01*
X77585388Y-3652832D01*
X77725528Y-3551014D01*
X77848014Y-3428528D01*
X77949832Y-3288388D01*
X78028473Y-3134045D01*
X78082002Y-2969301D01*
X78109100Y-2798211D01*
X78109100Y-2624989D01*
X78082002Y-2453899D01*
X78028473Y-2289155D01*
X77949832Y-2134812D01*
X77848014Y-1994672D01*
X77725528Y-1872186D01*
X77585388Y-1770368D01*
X77431045Y-1691727D01*
X77266301Y-1638198D01*
X77266299Y-1638197D01*
X77266298Y-1638197D01*
X77134871Y-1617381D01*
X77095211Y-1611100D01*
X76921989Y-1611100D01*
X76882328Y-1617381D01*
X76750902Y-1638197D01*
X76586152Y-1691728D01*
X76431811Y-1770368D01*
X76351856Y-1828459D01*
X76291672Y-1872186D01*
X76291670Y-1872188D01*
X76291669Y-1872188D01*
X76169188Y-1994669D01*
X76169188Y-1994670D01*
X76169186Y-1994672D01*
X76150732Y-2020072D01*
X76067368Y-2134811D01*
X75988728Y-2289152D01*
X75935197Y-2453902D01*
X75908100Y-2624989D01*
X58546646Y-2624989D01*
X58520509Y-2579719D01*
X58418015Y-2477225D01*
X58418013Y-2477224D01*
X58418011Y-2477222D01*
X58292488Y-2404751D01*
X58292489Y-2404751D01*
X58281006Y-2401674D01*
X58152475Y-2367234D01*
X58007525Y-2367234D01*
X57878993Y-2401674D01*
X57867511Y-2404751D01*
X57741988Y-2477222D01*
X57741982Y-2477227D01*
X57639493Y-2579716D01*
X57639488Y-2579722D01*
X57567017Y-2705245D01*
X57567016Y-2705249D01*
X57529500Y-2845259D01*
X29820271Y-2845259D01*
X29823700Y-2823611D01*
X29823700Y-2650389D01*
X29796602Y-2479299D01*
X29743073Y-2314555D01*
X29664432Y-2160212D01*
X29562614Y-2020072D01*
X29440128Y-1897586D01*
X29299988Y-1795768D01*
X29254371Y-1772525D01*
X45484500Y-1772525D01*
X45484500Y-1917475D01*
X45520633Y-2052323D01*
X45522017Y-2057488D01*
X45594488Y-2183011D01*
X45594490Y-2183013D01*
X45594491Y-2183015D01*
X45696985Y-2285509D01*
X45696986Y-2285510D01*
X45696988Y-2285511D01*
X45822511Y-2357982D01*
X45822512Y-2357982D01*
X45822515Y-2357984D01*
X45962525Y-2395500D01*
X45962528Y-2395500D01*
X46107472Y-2395500D01*
X46107475Y-2395500D01*
X46247485Y-2357984D01*
X46373015Y-2285509D01*
X46475509Y-2183015D01*
X46547984Y-2057485D01*
X46585500Y-1917475D01*
X46585500Y-1772525D01*
X46547984Y-1632515D01*
X46536032Y-1611814D01*
X46483449Y-1520737D01*
X46483448Y-1520735D01*
X46475512Y-1506991D01*
X46475509Y-1506985D01*
X46435388Y-1466864D01*
X53158839Y-1466864D01*
X53158839Y-1611814D01*
X53187058Y-1717127D01*
X53196356Y-1751827D01*
X53268827Y-1877350D01*
X53268829Y-1877352D01*
X53268830Y-1877354D01*
X53371324Y-1979848D01*
X53371325Y-1979849D01*
X53371327Y-1979850D01*
X53496850Y-2052321D01*
X53496851Y-2052321D01*
X53496854Y-2052323D01*
X53636864Y-2089839D01*
X53636867Y-2089839D01*
X53781811Y-2089839D01*
X53781814Y-2089839D01*
X53921824Y-2052323D01*
X54047354Y-1979848D01*
X54149848Y-1877354D01*
X54222323Y-1751824D01*
X54259839Y-1611814D01*
X54259839Y-1466864D01*
X54222323Y-1326854D01*
X54205375Y-1297500D01*
X54149850Y-1201327D01*
X54149845Y-1201321D01*
X54047356Y-1098832D01*
X54047350Y-1098827D01*
X53921827Y-1026356D01*
X53921828Y-1026356D01*
X53910345Y-1023279D01*
X53781814Y-988839D01*
X53636864Y-988839D01*
X53508332Y-1023279D01*
X53496850Y-1026356D01*
X53371327Y-1098827D01*
X53371321Y-1098832D01*
X53268832Y-1201321D01*
X53268827Y-1201327D01*
X53196356Y-1326850D01*
X53196355Y-1326854D01*
X53158839Y-1466864D01*
X46435388Y-1466864D01*
X46373015Y-1404491D01*
X46373013Y-1404490D01*
X46373011Y-1404488D01*
X46247488Y-1332017D01*
X46247489Y-1332017D01*
X46228205Y-1326850D01*
X46107475Y-1294500D01*
X45962525Y-1294500D01*
X45841795Y-1326850D01*
X45822511Y-1332017D01*
X45696988Y-1404488D01*
X45696982Y-1404493D01*
X45594493Y-1506982D01*
X45594488Y-1506988D01*
X45522017Y-1632511D01*
X45522016Y-1632515D01*
X45484500Y-1772525D01*
X29254371Y-1772525D01*
X29145645Y-1717127D01*
X28980901Y-1663598D01*
X28980899Y-1663597D01*
X28980898Y-1663597D01*
X28849471Y-1642781D01*
X28809811Y-1636500D01*
X28636589Y-1636500D01*
X28596928Y-1642781D01*
X28465502Y-1663597D01*
X28300752Y-1717128D01*
X28146411Y-1795768D01*
X28066456Y-1853859D01*
X28006272Y-1897586D01*
X28006270Y-1897588D01*
X28006269Y-1897588D01*
X27883788Y-2020069D01*
X27883788Y-2020070D01*
X27883786Y-2020072D01*
X27860356Y-2052321D01*
X27781968Y-2160211D01*
X27703328Y-2314552D01*
X27649797Y-2479302D01*
X27622700Y-2650389D01*
X23590500Y-2650389D01*
X23590500Y-110389D01*
X27622700Y-110389D01*
X27622700Y-283611D01*
X27649798Y-454701D01*
X27703327Y-619445D01*
X27781968Y-773788D01*
X27883786Y-913928D01*
X28006272Y-1036414D01*
X28146412Y-1138232D01*
X28300755Y-1216873D01*
X28465499Y-1270402D01*
X28636589Y-1297500D01*
X28636590Y-1297500D01*
X28809810Y-1297500D01*
X28809811Y-1297500D01*
X28980901Y-1270402D01*
X29145645Y-1216873D01*
X29299988Y-1138232D01*
X29440128Y-1036414D01*
X29562614Y-913928D01*
X29664432Y-773788D01*
X29743073Y-619445D01*
X29796602Y-454701D01*
X29823700Y-283611D01*
X29823700Y-110389D01*
X29796602Y60701D01*
X29743073Y225445D01*
X29664432Y379788D01*
X29562614Y519928D01*
X29440128Y642414D01*
X29299988Y744232D01*
X29283810Y752475D01*
X37599500Y752475D01*
X37599500Y607525D01*
X37637016Y467515D01*
X37637017Y467512D01*
X37709488Y341989D01*
X37709490Y341987D01*
X37709491Y341985D01*
X37811985Y239491D01*
X37814282Y238165D01*
X37834288Y226614D01*
X37882504Y176048D01*
X37895728Y107441D01*
X37869760Y42576D01*
X37834296Y11844D01*
X37831991Y10514D01*
X37831982Y10507D01*
X37729493Y-91982D01*
X37729488Y-91988D01*
X37657017Y-217511D01*
X37657016Y-217515D01*
X37619500Y-357525D01*
X37619500Y-502475D01*
X37650843Y-619447D01*
X37657017Y-642488D01*
X37729488Y-768011D01*
X37729490Y-768013D01*
X37729491Y-768015D01*
X37831985Y-870509D01*
X37831986Y-870510D01*
X37831988Y-870511D01*
X37957511Y-942982D01*
X37957512Y-942982D01*
X37957515Y-942984D01*
X38097525Y-980500D01*
X38097528Y-980500D01*
X38242472Y-980500D01*
X38242475Y-980500D01*
X38382485Y-942984D01*
X38508015Y-870509D01*
X38610509Y-768015D01*
X38682984Y-642485D01*
X38720500Y-502475D01*
X38720500Y-357525D01*
X38682984Y-217515D01*
X38610509Y-91985D01*
X38603513Y-84989D01*
X75908100Y-84989D01*
X75908100Y-258211D01*
X75935198Y-429301D01*
X75988727Y-594045D01*
X76067368Y-748388D01*
X76169186Y-888528D01*
X76291672Y-1011014D01*
X76431812Y-1112832D01*
X76586155Y-1191473D01*
X76750899Y-1245002D01*
X76921989Y-1272100D01*
X76921990Y-1272100D01*
X77095210Y-1272100D01*
X77095211Y-1272100D01*
X77266301Y-1245002D01*
X77431045Y-1191473D01*
X77585388Y-1112832D01*
X77725528Y-1011014D01*
X77848014Y-888528D01*
X77949832Y-748388D01*
X78028473Y-594045D01*
X78082002Y-429301D01*
X78109100Y-258211D01*
X78109100Y-84989D01*
X78082002Y86101D01*
X78028473Y250845D01*
X77949832Y405188D01*
X77848014Y545328D01*
X77725528Y667814D01*
X77585388Y769632D01*
X77431045Y848273D01*
X77266301Y901802D01*
X77266299Y901803D01*
X77266298Y901803D01*
X77134871Y922619D01*
X77095211Y928900D01*
X76921989Y928900D01*
X76882328Y922619D01*
X76750902Y901803D01*
X76586152Y848272D01*
X76431811Y769632D01*
X76351856Y711541D01*
X76291672Y667814D01*
X76291670Y667812D01*
X76291669Y667812D01*
X76169188Y545331D01*
X76169188Y545330D01*
X76169186Y545328D01*
X76137694Y501983D01*
X76067368Y405189D01*
X75988728Y250848D01*
X75935197Y86098D01*
X75928304Y42576D01*
X75908100Y-84989D01*
X38603513Y-84989D01*
X38508015Y10509D01*
X38485708Y23388D01*
X38437494Y73955D01*
X38424272Y142562D01*
X38450240Y207426D01*
X38485714Y238163D01*
X38488015Y239491D01*
X38590509Y341985D01*
X38662984Y467515D01*
X38700500Y607525D01*
X38700500Y752475D01*
X38662984Y892485D01*
X38657605Y901802D01*
X38647907Y918600D01*
X38647906Y918601D01*
X38641503Y929690D01*
X38616801Y972475D01*
X59759500Y972475D01*
X59759500Y827525D01*
X59781819Y744232D01*
X59797017Y687512D01*
X59869488Y561989D01*
X59869490Y561987D01*
X59869491Y561985D01*
X59971985Y459491D01*
X59971986Y459490D01*
X59971988Y459489D01*
X60097511Y387018D01*
X60097512Y387018D01*
X60097515Y387016D01*
X60237525Y349500D01*
X60237528Y349500D01*
X60382472Y349500D01*
X60382475Y349500D01*
X60522485Y387016D01*
X60648015Y459491D01*
X60750509Y561985D01*
X60822984Y687515D01*
X60860500Y827525D01*
X60860500Y912475D01*
X70519500Y912475D01*
X70519500Y767525D01*
X70557016Y627515D01*
X70557017Y627512D01*
X70629488Y501989D01*
X70629490Y501987D01*
X70629491Y501985D01*
X70731985Y399491D01*
X70731986Y399490D01*
X70731988Y399489D01*
X70857511Y327018D01*
X70857512Y327018D01*
X70857515Y327016D01*
X70997525Y289500D01*
X70997528Y289500D01*
X71142472Y289500D01*
X71142475Y289500D01*
X71282485Y327016D01*
X71408015Y399491D01*
X71510509Y501985D01*
X71582984Y627515D01*
X71620500Y767525D01*
X71620500Y912475D01*
X71582984Y1052485D01*
X71543711Y1120507D01*
X71510511Y1178012D01*
X71510506Y1178018D01*
X71408017Y1280507D01*
X71408011Y1280512D01*
X71282488Y1352983D01*
X71282489Y1352983D01*
X71271006Y1356060D01*
X71142475Y1390500D01*
X70997525Y1390500D01*
X70868993Y1356060D01*
X70857511Y1352983D01*
X70731988Y1280512D01*
X70731982Y1280507D01*
X70629493Y1178018D01*
X70629488Y1178012D01*
X70557017Y1052489D01*
X70557016Y1052485D01*
X70519500Y912475D01*
X60860500Y912475D01*
X60860500Y972475D01*
X60822984Y1112485D01*
X60818352Y1120507D01*
X60750511Y1238012D01*
X60750506Y1238018D01*
X60648017Y1340507D01*
X60648011Y1340512D01*
X60522488Y1412983D01*
X60522489Y1412983D01*
X60511006Y1416060D01*
X60382475Y1450500D01*
X60237525Y1450500D01*
X60108993Y1416060D01*
X60097511Y1412983D01*
X59971988Y1340512D01*
X59971982Y1340507D01*
X59869493Y1238018D01*
X59869488Y1238012D01*
X59797017Y1112489D01*
X59797016Y1112485D01*
X59759500Y972475D01*
X38616801Y972475D01*
X38590509Y1018015D01*
X38488015Y1120509D01*
X38488013Y1120510D01*
X38488011Y1120512D01*
X38362488Y1192983D01*
X38362489Y1192983D01*
X38351006Y1196060D01*
X38222475Y1230500D01*
X38077525Y1230500D01*
X37948993Y1196060D01*
X37937511Y1192983D01*
X37811988Y1120512D01*
X37811982Y1120507D01*
X37709493Y1018018D01*
X37709488Y1018012D01*
X37637017Y892489D01*
X37637016Y892485D01*
X37599500Y752475D01*
X29283810Y752475D01*
X29145645Y822873D01*
X28980901Y876402D01*
X28980899Y876403D01*
X28980898Y876403D01*
X28849471Y897219D01*
X28809811Y903500D01*
X28636589Y903500D01*
X28596928Y897219D01*
X28465502Y876403D01*
X28300752Y822872D01*
X28146411Y744232D01*
X28068348Y687515D01*
X28006272Y642414D01*
X28006270Y642412D01*
X28006269Y642412D01*
X27883788Y519931D01*
X27883788Y519930D01*
X27883786Y519928D01*
X27845706Y467515D01*
X27781968Y379789D01*
X27703328Y225448D01*
X27649797Y60698D01*
X27641849Y10514D01*
X27622700Y-110389D01*
X23590500Y-110389D01*
X23590500Y2429611D01*
X27622700Y2429611D01*
X27622700Y2256390D01*
X27633606Y2187528D01*
X27649798Y2085299D01*
X27703327Y1920555D01*
X27781968Y1766212D01*
X27883786Y1626072D01*
X28006272Y1503586D01*
X28146412Y1401768D01*
X28300755Y1323127D01*
X28465499Y1269598D01*
X28636589Y1242500D01*
X28636590Y1242500D01*
X28809810Y1242500D01*
X28809811Y1242500D01*
X28980901Y1269598D01*
X29145645Y1323127D01*
X29299988Y1401768D01*
X29440128Y1503586D01*
X29562614Y1626072D01*
X29664432Y1766212D01*
X29743073Y1920555D01*
X29796602Y2085299D01*
X29823700Y2256389D01*
X29823700Y2332475D01*
X50649500Y2332475D01*
X50649500Y2187525D01*
X50670085Y2110703D01*
X50687017Y2047512D01*
X50759488Y1921989D01*
X50759490Y1921987D01*
X50759491Y1921985D01*
X50861985Y1819491D01*
X50861986Y1819490D01*
X50861988Y1819489D01*
X50987511Y1747018D01*
X50987512Y1747018D01*
X50987515Y1747016D01*
X51127525Y1709500D01*
X51127528Y1709500D01*
X51272472Y1709500D01*
X51272475Y1709500D01*
X51412485Y1747016D01*
X51538015Y1819491D01*
X51640509Y1921985D01*
X51712984Y2047515D01*
X51750500Y2187525D01*
X51750500Y2332475D01*
X51717666Y2455011D01*
X75908100Y2455011D01*
X75908100Y2281789D01*
X75935198Y2110699D01*
X75988727Y1945955D01*
X76067368Y1791612D01*
X76169186Y1651472D01*
X76291672Y1528986D01*
X76431812Y1427168D01*
X76586155Y1348527D01*
X76750899Y1294998D01*
X76921989Y1267900D01*
X76921990Y1267900D01*
X77095210Y1267900D01*
X77095211Y1267900D01*
X77266301Y1294998D01*
X77431045Y1348527D01*
X77585388Y1427168D01*
X77725528Y1528986D01*
X77848014Y1651472D01*
X77949832Y1791612D01*
X78028473Y1945955D01*
X78082002Y2110699D01*
X78109100Y2281789D01*
X78109100Y2455011D01*
X78082002Y2626101D01*
X78028473Y2790845D01*
X77949832Y2945188D01*
X77848014Y3085328D01*
X77725528Y3207814D01*
X77585388Y3309632D01*
X77431045Y3388273D01*
X77266301Y3441802D01*
X77266299Y3441803D01*
X77266298Y3441803D01*
X77134871Y3462619D01*
X77095211Y3468900D01*
X76921989Y3468900D01*
X76882328Y3462619D01*
X76750902Y3441803D01*
X76586152Y3388272D01*
X76431811Y3309632D01*
X76351856Y3251541D01*
X76291672Y3207814D01*
X76291670Y3207812D01*
X76291669Y3207812D01*
X76169188Y3085331D01*
X76169188Y3085330D01*
X76169186Y3085328D01*
X76150732Y3059928D01*
X76067368Y2945189D01*
X75988728Y2790848D01*
X75935197Y2626098D01*
X75930749Y2598012D01*
X75908100Y2455011D01*
X51717666Y2455011D01*
X51712984Y2472485D01*
X51640509Y2598015D01*
X51538015Y2700509D01*
X51538013Y2700510D01*
X51538011Y2700512D01*
X51412488Y2772983D01*
X51412489Y2772983D01*
X51401006Y2776060D01*
X51272475Y2810500D01*
X51127525Y2810500D01*
X50998993Y2776060D01*
X50987511Y2772983D01*
X50861988Y2700512D01*
X50861982Y2700507D01*
X50759493Y2598018D01*
X50759488Y2598012D01*
X50687017Y2472489D01*
X50687016Y2472485D01*
X50649500Y2332475D01*
X29823700Y2332475D01*
X29823700Y2429611D01*
X29796602Y2600701D01*
X29743073Y2765445D01*
X29664432Y2919788D01*
X29562614Y3059928D01*
X29440128Y3182414D01*
X29299988Y3284232D01*
X29145645Y3362873D01*
X28980901Y3416402D01*
X28980899Y3416403D01*
X28980898Y3416403D01*
X28849471Y3437219D01*
X28809811Y3443500D01*
X28636589Y3443500D01*
X28596928Y3437219D01*
X28465502Y3416403D01*
X28300752Y3362872D01*
X28146411Y3284232D01*
X28066456Y3226141D01*
X28006272Y3182414D01*
X28006270Y3182412D01*
X28006269Y3182412D01*
X27883788Y3059931D01*
X27883788Y3059930D01*
X27883786Y3059928D01*
X27840059Y2999744D01*
X27781968Y2919789D01*
X27703328Y2765448D01*
X27649797Y2600698D01*
X27622700Y2429611D01*
X23590500Y2429611D01*
X23590500Y4969611D01*
X27622700Y4969611D01*
X27622700Y4796389D01*
X27649798Y4625299D01*
X27703327Y4460555D01*
X27781968Y4306212D01*
X27883786Y4166072D01*
X28006272Y4043586D01*
X28146412Y3941768D01*
X28300755Y3863127D01*
X28465499Y3809598D01*
X28636589Y3782500D01*
X28636590Y3782500D01*
X28809810Y3782500D01*
X28809811Y3782500D01*
X28980901Y3809598D01*
X29082085Y3842475D01*
X71529500Y3842475D01*
X71529500Y3697525D01*
X71540221Y3657515D01*
X71567017Y3557512D01*
X71639488Y3431989D01*
X71639490Y3431987D01*
X71639491Y3431985D01*
X71741985Y3329491D01*
X71741986Y3329490D01*
X71741988Y3329489D01*
X71867511Y3257018D01*
X71867512Y3257018D01*
X71867515Y3257016D01*
X72007525Y3219500D01*
X72007528Y3219500D01*
X72152472Y3219500D01*
X72152475Y3219500D01*
X72292485Y3257016D01*
X72418015Y3329491D01*
X72520509Y3431985D01*
X72560125Y3500603D01*
X72610692Y3548818D01*
X72679299Y3562041D01*
X72744164Y3536073D01*
X72755193Y3526283D01*
X72851985Y3429491D01*
X72851986Y3429490D01*
X72851988Y3429489D01*
X72977511Y3357018D01*
X72977512Y3357018D01*
X72977515Y3357016D01*
X73117525Y3319500D01*
X73117528Y3319500D01*
X73262472Y3319500D01*
X73262475Y3319500D01*
X73402485Y3357016D01*
X73528015Y3429491D01*
X73630509Y3531985D01*
X73702984Y3657515D01*
X73740500Y3797525D01*
X73740500Y3942475D01*
X73702984Y4082485D01*
X73688244Y4108015D01*
X73630511Y4208012D01*
X73630506Y4208018D01*
X73528017Y4310507D01*
X73528011Y4310512D01*
X73402488Y4382983D01*
X73402489Y4382983D01*
X73391006Y4386060D01*
X73262475Y4420500D01*
X73117525Y4420500D01*
X72988993Y4386060D01*
X72977511Y4382983D01*
X72851988Y4310512D01*
X72851982Y4310507D01*
X72749493Y4208018D01*
X72749489Y4208012D01*
X72709873Y4139397D01*
X72659305Y4091183D01*
X72590698Y4077961D01*
X72525834Y4103930D01*
X72514806Y4113718D01*
X72418017Y4210507D01*
X72418011Y4210512D01*
X72292488Y4282983D01*
X72292489Y4282983D01*
X72281006Y4286060D01*
X72152475Y4320500D01*
X72007525Y4320500D01*
X71878993Y4286060D01*
X71867511Y4282983D01*
X71741988Y4210512D01*
X71741982Y4210507D01*
X71639493Y4108018D01*
X71639488Y4108012D01*
X71567017Y3982489D01*
X71567016Y3982485D01*
X71529500Y3842475D01*
X29082085Y3842475D01*
X29145645Y3863127D01*
X29299988Y3941768D01*
X29440128Y4043586D01*
X29562614Y4166072D01*
X29664432Y4306212D01*
X29743073Y4460555D01*
X29796602Y4625299D01*
X29823700Y4796389D01*
X29823700Y4969611D01*
X29819677Y4995011D01*
X75908100Y4995011D01*
X75908100Y4821789D01*
X75935198Y4650699D01*
X75988727Y4485955D01*
X76067368Y4331612D01*
X76169186Y4191472D01*
X76291672Y4068986D01*
X76431812Y3967168D01*
X76586155Y3888527D01*
X76750899Y3834998D01*
X76921989Y3807900D01*
X76921990Y3807900D01*
X77095210Y3807900D01*
X77095211Y3807900D01*
X77266301Y3834998D01*
X77431045Y3888527D01*
X77585388Y3967168D01*
X77725528Y4068986D01*
X77848014Y4191472D01*
X77949832Y4331612D01*
X78028473Y4485955D01*
X78082002Y4650699D01*
X78109100Y4821789D01*
X78109100Y4995011D01*
X78082002Y5166101D01*
X78028473Y5330845D01*
X77949832Y5485188D01*
X77848014Y5625328D01*
X77725528Y5747814D01*
X77585388Y5849632D01*
X77431045Y5928273D01*
X77266301Y5981802D01*
X77266299Y5981803D01*
X77266298Y5981803D01*
X77134871Y6002619D01*
X77095211Y6008900D01*
X76921989Y6008900D01*
X76882328Y6002619D01*
X76750902Y5981803D01*
X76586152Y5928272D01*
X76431811Y5849632D01*
X76351856Y5791541D01*
X76291672Y5747814D01*
X76291670Y5747812D01*
X76291669Y5747812D01*
X76169188Y5625331D01*
X76169188Y5625330D01*
X76169186Y5625328D01*
X76150732Y5599928D01*
X76067368Y5485189D01*
X75988728Y5330848D01*
X75935197Y5166098D01*
X75925880Y5107270D01*
X75908100Y4995011D01*
X29819677Y4995011D01*
X29796602Y5140701D01*
X29743073Y5305445D01*
X29664432Y5459788D01*
X29562614Y5599928D01*
X29540067Y5622475D01*
X45809500Y5622475D01*
X45809500Y5477525D01*
X45847016Y5337515D01*
X45847017Y5337512D01*
X45919488Y5211989D01*
X45919490Y5211987D01*
X45919491Y5211985D01*
X46021985Y5109491D01*
X46021986Y5109490D01*
X46021988Y5109489D01*
X46147511Y5037018D01*
X46147512Y5037018D01*
X46147515Y5037016D01*
X46287525Y4999500D01*
X46287528Y4999500D01*
X46432472Y4999500D01*
X46432475Y4999500D01*
X46572485Y5037016D01*
X46698015Y5109491D01*
X46800509Y5211985D01*
X46872984Y5337515D01*
X46910500Y5477525D01*
X46910500Y5622475D01*
X46897102Y5672475D01*
X69539500Y5672475D01*
X69539500Y5527525D01*
X69577016Y5387515D01*
X69577017Y5387512D01*
X69649488Y5261989D01*
X69649490Y5261987D01*
X69649491Y5261985D01*
X69751985Y5159491D01*
X69751986Y5159490D01*
X69751988Y5159489D01*
X69877511Y5087018D01*
X69877512Y5087018D01*
X69877515Y5087016D01*
X70017525Y5049500D01*
X70017528Y5049500D01*
X70162472Y5049500D01*
X70162475Y5049500D01*
X70302485Y5087016D01*
X70428015Y5159491D01*
X70530509Y5261985D01*
X70602984Y5387515D01*
X70640500Y5527525D01*
X70640500Y5672475D01*
X70602984Y5812485D01*
X70559378Y5888012D01*
X70530511Y5938012D01*
X70530506Y5938018D01*
X70428017Y6040507D01*
X70428011Y6040512D01*
X70302488Y6112983D01*
X70302489Y6112983D01*
X70291006Y6116060D01*
X70162475Y6150500D01*
X70017525Y6150500D01*
X69888993Y6116060D01*
X69877511Y6112983D01*
X69751988Y6040512D01*
X69751982Y6040507D01*
X69649493Y5938018D01*
X69649488Y5938012D01*
X69577017Y5812489D01*
X69577016Y5812485D01*
X69539500Y5672475D01*
X46897102Y5672475D01*
X46872984Y5762485D01*
X46844116Y5812485D01*
X46800511Y5888012D01*
X46800506Y5888018D01*
X46698017Y5990507D01*
X46698011Y5990512D01*
X46572488Y6062983D01*
X46572489Y6062983D01*
X46561006Y6066060D01*
X46432475Y6100500D01*
X46287525Y6100500D01*
X46158993Y6066060D01*
X46147511Y6062983D01*
X46021988Y5990512D01*
X46021982Y5990507D01*
X45919493Y5888018D01*
X45919488Y5888012D01*
X45847017Y5762489D01*
X45847016Y5762485D01*
X45809500Y5622475D01*
X29540067Y5622475D01*
X29440128Y5722414D01*
X29299988Y5824232D01*
X29145645Y5902873D01*
X28980901Y5956402D01*
X28980899Y5956403D01*
X28980898Y5956403D01*
X28849471Y5977219D01*
X28809811Y5983500D01*
X28636589Y5983500D01*
X28596928Y5977219D01*
X28465502Y5956403D01*
X28300752Y5902872D01*
X28146411Y5824232D01*
X28066456Y5766141D01*
X28006272Y5722414D01*
X28006270Y5722412D01*
X28006269Y5722412D01*
X27883788Y5599931D01*
X27883788Y5599930D01*
X27883786Y5599928D01*
X27883784Y5599925D01*
X27781968Y5459789D01*
X27703328Y5305448D01*
X27649797Y5140698D01*
X27641295Y5087018D01*
X27622700Y4969611D01*
X23590500Y4969611D01*
X23590500Y7509611D01*
X27622700Y7509611D01*
X27622700Y7336390D01*
X27647550Y7179489D01*
X27649798Y7165299D01*
X27703327Y7000555D01*
X27781968Y6846212D01*
X27883786Y6706072D01*
X28006272Y6583586D01*
X28146412Y6481768D01*
X28300755Y6403127D01*
X28465499Y6349598D01*
X28636589Y6322500D01*
X28636590Y6322500D01*
X28809810Y6322500D01*
X28809811Y6322500D01*
X28980901Y6349598D01*
X29145645Y6403127D01*
X29299988Y6481768D01*
X29440128Y6583586D01*
X29562614Y6706072D01*
X29664432Y6846212D01*
X29743073Y7000555D01*
X29796602Y7165299D01*
X29823700Y7336389D01*
X29823700Y7509611D01*
X29796602Y7680701D01*
X29792776Y7692475D01*
X33319500Y7692475D01*
X33319500Y7547525D01*
X33357016Y7407515D01*
X33357017Y7407512D01*
X33429488Y7281989D01*
X33429490Y7281987D01*
X33429491Y7281985D01*
X33531985Y7179491D01*
X33531986Y7179490D01*
X33531988Y7179489D01*
X33657511Y7107018D01*
X33657512Y7107018D01*
X33657515Y7107016D01*
X33797525Y7069500D01*
X33797528Y7069500D01*
X33942472Y7069500D01*
X33942475Y7069500D01*
X34082485Y7107016D01*
X34208015Y7179491D01*
X34310509Y7281985D01*
X34382984Y7407515D01*
X34417147Y7535011D01*
X75908100Y7535011D01*
X75908100Y7361789D01*
X75935198Y7190699D01*
X75988727Y7025955D01*
X76067368Y6871612D01*
X76169186Y6731472D01*
X76291672Y6608986D01*
X76431812Y6507168D01*
X76586155Y6428527D01*
X76750899Y6374998D01*
X76921989Y6347900D01*
X76921990Y6347900D01*
X77095210Y6347900D01*
X77095211Y6347900D01*
X77266301Y6374998D01*
X77431045Y6428527D01*
X77585388Y6507168D01*
X77725528Y6608986D01*
X77848014Y6731472D01*
X77949832Y6871612D01*
X78028473Y7025955D01*
X78082002Y7190699D01*
X78109100Y7361789D01*
X78109100Y7535011D01*
X78082002Y7706101D01*
X78028473Y7870845D01*
X77949832Y8025188D01*
X77848014Y8165328D01*
X77725528Y8287814D01*
X77585388Y8389632D01*
X77431045Y8468273D01*
X77266301Y8521802D01*
X77266299Y8521803D01*
X77266298Y8521803D01*
X77134871Y8542619D01*
X77095211Y8548900D01*
X76921989Y8548900D01*
X76882328Y8542619D01*
X76750902Y8521803D01*
X76586152Y8468272D01*
X76431811Y8389632D01*
X76351856Y8331541D01*
X76291672Y8287814D01*
X76291670Y8287812D01*
X76291669Y8287812D01*
X76169188Y8165331D01*
X76169188Y8165330D01*
X76169186Y8165328D01*
X76150732Y8139928D01*
X76067368Y8025189D01*
X75988728Y7870848D01*
X75935197Y7706098D01*
X75910082Y7547528D01*
X75908100Y7535011D01*
X34417147Y7535011D01*
X34420500Y7547525D01*
X34420500Y7692475D01*
X34382984Y7832485D01*
X34310509Y7958015D01*
X34208015Y8060509D01*
X34208013Y8060510D01*
X34208011Y8060512D01*
X34082488Y8132983D01*
X34082489Y8132983D01*
X34056562Y8139930D01*
X33942475Y8170500D01*
X33797525Y8170500D01*
X33683438Y8139930D01*
X33657511Y8132983D01*
X33531988Y8060512D01*
X33531982Y8060507D01*
X33429493Y7958018D01*
X33429488Y7958012D01*
X33357017Y7832489D01*
X33357016Y7832485D01*
X33319500Y7692475D01*
X29792776Y7692475D01*
X29743073Y7845445D01*
X29664432Y7999788D01*
X29562614Y8139928D01*
X29440128Y8262414D01*
X29299988Y8364232D01*
X29145645Y8442873D01*
X28980901Y8496402D01*
X28980899Y8496403D01*
X28980898Y8496403D01*
X28849471Y8517219D01*
X28809811Y8523500D01*
X28636589Y8523500D01*
X28596928Y8517219D01*
X28465502Y8496403D01*
X28300752Y8442872D01*
X28146411Y8364232D01*
X28066456Y8306141D01*
X28006272Y8262414D01*
X28006270Y8262412D01*
X28006269Y8262412D01*
X27883788Y8139931D01*
X27883788Y8139930D01*
X27883786Y8139928D01*
X27840059Y8079744D01*
X27781968Y7999789D01*
X27703328Y7845448D01*
X27649797Y7680698D01*
X27622700Y7509611D01*
X23590500Y7509611D01*
X23590500Y10049611D01*
X27622700Y10049611D01*
X27622700Y9876390D01*
X27649797Y9705303D01*
X27649797Y9705301D01*
X27649798Y9705299D01*
X27703327Y9540555D01*
X27781968Y9386212D01*
X27883786Y9246072D01*
X28006272Y9123586D01*
X28146412Y9021768D01*
X28300755Y8943127D01*
X28465499Y8889598D01*
X28636589Y8862500D01*
X28636590Y8862500D01*
X28809810Y8862500D01*
X28809811Y8862500D01*
X28980901Y8889598D01*
X29145645Y8943127D01*
X29299988Y9021768D01*
X29440128Y9123586D01*
X29562614Y9246072D01*
X29664432Y9386212D01*
X29743073Y9540555D01*
X29743697Y9542475D01*
X44159500Y9542475D01*
X44159500Y9397525D01*
X44197016Y9257515D01*
X44197017Y9257512D01*
X44269488Y9131989D01*
X44269490Y9131987D01*
X44269491Y9131985D01*
X44371985Y9029491D01*
X44371986Y9029490D01*
X44371988Y9029489D01*
X44497511Y8957018D01*
X44497512Y8957018D01*
X44497515Y8957016D01*
X44637525Y8919500D01*
X44637528Y8919500D01*
X44782472Y8919500D01*
X44782475Y8919500D01*
X44922485Y8957016D01*
X45048015Y9029491D01*
X45150509Y9131985D01*
X45222984Y9257515D01*
X45260500Y9397525D01*
X45260500Y9542475D01*
X45222984Y9682485D01*
X45209812Y9705299D01*
X45150511Y9808012D01*
X45150506Y9808018D01*
X45048017Y9910507D01*
X45048011Y9910512D01*
X44922488Y9982983D01*
X44922489Y9982983D01*
X44911006Y9986060D01*
X44782475Y10020500D01*
X44637525Y10020500D01*
X44508993Y9986060D01*
X44497511Y9982983D01*
X44371988Y9910512D01*
X44371982Y9910507D01*
X44269493Y9808018D01*
X44269488Y9808012D01*
X44197017Y9682489D01*
X44197016Y9682485D01*
X44159500Y9542475D01*
X29743697Y9542475D01*
X29796602Y9705299D01*
X29823700Y9876389D01*
X29823700Y10049611D01*
X29796602Y10220701D01*
X29743073Y10385445D01*
X29678349Y10512475D01*
X60609500Y10512475D01*
X60609500Y10367525D01*
X60647016Y10227515D01*
X60647017Y10227512D01*
X60719488Y10101989D01*
X60719490Y10101987D01*
X60719491Y10101985D01*
X60821985Y9999491D01*
X60821986Y9999490D01*
X60821988Y9999489D01*
X60947511Y9927018D01*
X60947512Y9927018D01*
X60947515Y9927016D01*
X61087525Y9889500D01*
X61087528Y9889500D01*
X61232472Y9889500D01*
X61232475Y9889500D01*
X61372485Y9927016D01*
X61498015Y9999491D01*
X61600509Y10101985D01*
X61672984Y10227515D01*
X61710500Y10367525D01*
X61710500Y10512475D01*
X61672984Y10652485D01*
X61600509Y10778015D01*
X61498015Y10880509D01*
X61498013Y10880510D01*
X61498011Y10880512D01*
X61372488Y10952983D01*
X61372489Y10952983D01*
X61361006Y10956060D01*
X61232475Y10990500D01*
X61087525Y10990500D01*
X60958993Y10956060D01*
X60947511Y10952983D01*
X60821988Y10880512D01*
X60821982Y10880507D01*
X60719493Y10778018D01*
X60719488Y10778012D01*
X60647017Y10652489D01*
X60647016Y10652485D01*
X60609500Y10512475D01*
X29678349Y10512475D01*
X29664432Y10539788D01*
X29664431Y10539789D01*
X29649137Y10560840D01*
X29562614Y10679928D01*
X29440128Y10802414D01*
X29299988Y10904232D01*
X29145645Y10982873D01*
X28980901Y11036402D01*
X28980899Y11036403D01*
X28980898Y11036403D01*
X28849471Y11057219D01*
X28809811Y11063500D01*
X28636589Y11063500D01*
X28596928Y11057219D01*
X28465502Y11036403D01*
X28300752Y10982872D01*
X28146411Y10904232D01*
X28113764Y10880512D01*
X28006272Y10802414D01*
X28006270Y10802412D01*
X28006269Y10802412D01*
X27883788Y10679931D01*
X27883788Y10679930D01*
X27883786Y10679928D01*
X27840059Y10619744D01*
X27781968Y10539789D01*
X27703328Y10385448D01*
X27649797Y10220698D01*
X27622700Y10049611D01*
X23590500Y10049611D01*
X23590500Y12589611D01*
X27622700Y12589611D01*
X27622700Y12416389D01*
X27649798Y12245299D01*
X27703327Y12080555D01*
X27781968Y11926212D01*
X27883786Y11786072D01*
X28006272Y11663586D01*
X28146412Y11561768D01*
X28300755Y11483127D01*
X28465499Y11429598D01*
X28636589Y11402500D01*
X28636590Y11402500D01*
X28809810Y11402500D01*
X28809811Y11402500D01*
X28980901Y11429598D01*
X29145645Y11483127D01*
X29299988Y11561768D01*
X29440128Y11663586D01*
X29562614Y11786072D01*
X29664432Y11926212D01*
X29743073Y12080555D01*
X29796602Y12245299D01*
X29823700Y12416389D01*
X29823700Y12589611D01*
X29796602Y12760701D01*
X29743073Y12925445D01*
X29664432Y13079788D01*
X29562614Y13219928D01*
X29440128Y13342414D01*
X29299988Y13444232D01*
X29145645Y13522873D01*
X28980901Y13576402D01*
X28980899Y13576403D01*
X28980898Y13576403D01*
X28849471Y13597219D01*
X28809811Y13603500D01*
X28636589Y13603500D01*
X28596928Y13597219D01*
X28465502Y13576403D01*
X28300752Y13522872D01*
X28146411Y13444232D01*
X28066456Y13386141D01*
X28006272Y13342414D01*
X28006270Y13342412D01*
X28006269Y13342412D01*
X27883788Y13219931D01*
X27883788Y13219930D01*
X27883786Y13219928D01*
X27840059Y13159744D01*
X27781968Y13079789D01*
X27703328Y12925448D01*
X27649797Y12760698D01*
X27646438Y12739489D01*
X27622700Y12589611D01*
X23590500Y12589611D01*
X23590500Y15472475D01*
X49469500Y15472475D01*
X49469500Y15327525D01*
X49504369Y15197394D01*
X49507017Y15187512D01*
X49579488Y15061989D01*
X49579490Y15061987D01*
X49579491Y15061985D01*
X49681985Y14959491D01*
X49681986Y14959490D01*
X49681988Y14959489D01*
X49807511Y14887018D01*
X49807512Y14887018D01*
X49807515Y14887016D01*
X49947525Y14849500D01*
X49947528Y14849500D01*
X50092472Y14849500D01*
X50092475Y14849500D01*
X50232485Y14887016D01*
X50358015Y14959491D01*
X50460509Y15061985D01*
X50496746Y15124750D01*
X50532982Y15187511D01*
X50532982Y15187513D01*
X50532984Y15187515D01*
X50570500Y15327525D01*
X50570500Y15472475D01*
X50532984Y15612485D01*
X50460509Y15738015D01*
X50358015Y15840509D01*
X50358013Y15840510D01*
X50358011Y15840512D01*
X50232488Y15912983D01*
X50232489Y15912983D01*
X50221006Y15916060D01*
X50092475Y15950500D01*
X49947525Y15950500D01*
X49818993Y15916060D01*
X49807511Y15912983D01*
X49681988Y15840512D01*
X49681982Y15840507D01*
X49579493Y15738018D01*
X49579488Y15738012D01*
X49507017Y15612489D01*
X49507016Y15612485D01*
X49469500Y15472475D01*
X23590500Y15472475D01*
X23590500Y16704411D01*
X27622700Y16704411D01*
X27622700Y16531189D01*
X27626056Y16510001D01*
X27639758Y16423485D01*
X27649798Y16360099D01*
X27703327Y16195355D01*
X27781968Y16041012D01*
X27883786Y15900872D01*
X28006272Y15778386D01*
X28146412Y15676568D01*
X28300755Y15597927D01*
X28465499Y15544398D01*
X28636589Y15517300D01*
X28636590Y15517300D01*
X28809810Y15517300D01*
X28809811Y15517300D01*
X28980901Y15544398D01*
X29145645Y15597927D01*
X29299988Y15676568D01*
X29440128Y15778386D01*
X29562614Y15900872D01*
X29664432Y16041012D01*
X29743073Y16195355D01*
X29796602Y16360099D01*
X29815984Y16482475D01*
X71339500Y16482475D01*
X71339500Y16337525D01*
X71375676Y16202515D01*
X71377017Y16197512D01*
X71449488Y16071989D01*
X71449490Y16071987D01*
X71449491Y16071985D01*
X71551985Y15969491D01*
X71551986Y15969490D01*
X71551988Y15969489D01*
X71677511Y15897018D01*
X71677512Y15897018D01*
X71677515Y15897016D01*
X71817525Y15859500D01*
X71817528Y15859500D01*
X71962472Y15859500D01*
X71962475Y15859500D01*
X72102485Y15897016D01*
X72228015Y15969491D01*
X72330509Y16071985D01*
X72402984Y16197515D01*
X72440500Y16337525D01*
X72440500Y16482475D01*
X72402984Y16622485D01*
X72330509Y16748015D01*
X72228015Y16850509D01*
X72228013Y16850510D01*
X72228011Y16850512D01*
X72102488Y16922983D01*
X72102489Y16922983D01*
X72091006Y16926060D01*
X71962475Y16960500D01*
X71817525Y16960500D01*
X71688993Y16926060D01*
X71677511Y16922983D01*
X71551988Y16850512D01*
X71551982Y16850507D01*
X71449493Y16748018D01*
X71449488Y16748012D01*
X71377017Y16622489D01*
X71377016Y16622485D01*
X71339500Y16482475D01*
X29815984Y16482475D01*
X29823700Y16531189D01*
X29823700Y16704411D01*
X29796602Y16875501D01*
X29743073Y17040245D01*
X29664432Y17194588D01*
X29562614Y17334728D01*
X29440128Y17457214D01*
X29299988Y17559032D01*
X29145645Y17637673D01*
X28980901Y17691202D01*
X28980899Y17691203D01*
X28980898Y17691203D01*
X28849471Y17712019D01*
X28809811Y17718300D01*
X28636589Y17718300D01*
X28596928Y17712019D01*
X28465502Y17691203D01*
X28300752Y17637672D01*
X28146411Y17559032D01*
X28066456Y17500941D01*
X28006272Y17457214D01*
X28006270Y17457212D01*
X28006269Y17457212D01*
X27883788Y17334731D01*
X27883788Y17334730D01*
X27883786Y17334728D01*
X27872014Y17318525D01*
X27781968Y17194589D01*
X27703328Y17040248D01*
X27649797Y16875498D01*
X27645839Y16850507D01*
X27622700Y16704411D01*
X23590500Y16704411D01*
X23590500Y17941500D01*
X72117458Y17941500D01*
X72117458Y17796550D01*
X72147263Y17685318D01*
X72154975Y17656537D01*
X72227446Y17531014D01*
X72227448Y17531012D01*
X72227449Y17531010D01*
X72329943Y17428516D01*
X72329944Y17428515D01*
X72329946Y17428514D01*
X72455469Y17356043D01*
X72455470Y17356043D01*
X72455473Y17356041D01*
X72595483Y17318525D01*
X72595486Y17318525D01*
X72740430Y17318525D01*
X72740433Y17318525D01*
X72880443Y17356041D01*
X73005973Y17428516D01*
X73108467Y17531010D01*
X73180942Y17656540D01*
X73188653Y17685318D01*
X75708600Y17685318D01*
X75708600Y17480683D01*
X75740609Y17278583D01*
X75803844Y17083969D01*
X75896741Y16901650D01*
X75896747Y16901641D01*
X75929123Y16857079D01*
X75929124Y16857078D01*
X76608600Y17536554D01*
X76608600Y17530339D01*
X76635859Y17428606D01*
X76688520Y17337394D01*
X76762994Y17262920D01*
X76854206Y17210259D01*
X76955939Y17183000D01*
X76962153Y17183000D01*
X76282676Y16503526D01*
X76327250Y16471141D01*
X76420780Y16423485D01*
X76471576Y16375511D01*
X76488371Y16307690D01*
X76465834Y16241555D01*
X76420780Y16202515D01*
X76327244Y16154857D01*
X76282677Y16122477D01*
X76282677Y16122476D01*
X76962154Y15443000D01*
X76955939Y15443000D01*
X76854206Y15415741D01*
X76762994Y15363080D01*
X76688520Y15288606D01*
X76635859Y15197394D01*
X76608600Y15095661D01*
X76608600Y15089447D01*
X75929124Y15768923D01*
X75929123Y15768923D01*
X75896743Y15724356D01*
X75803844Y15542032D01*
X75740609Y15347418D01*
X75708600Y15145318D01*
X75708600Y14940683D01*
X75740609Y14738583D01*
X75803844Y14543969D01*
X75896741Y14361650D01*
X75896747Y14361641D01*
X75929123Y14317079D01*
X75929124Y14317078D01*
X76608600Y14996554D01*
X76608600Y14990339D01*
X76635859Y14888606D01*
X76688520Y14797394D01*
X76762994Y14722920D01*
X76854206Y14670259D01*
X76955939Y14643000D01*
X76962153Y14643000D01*
X76282676Y13963526D01*
X76327250Y13931141D01*
X76509570Y13838245D01*
X76670213Y13786048D01*
X76727889Y13746610D01*
X76755087Y13682252D01*
X76743172Y13613405D01*
X76695928Y13561930D01*
X76670215Y13550186D01*
X76586149Y13522871D01*
X76431811Y13444232D01*
X76351856Y13386141D01*
X76291672Y13342414D01*
X76291670Y13342412D01*
X76291669Y13342412D01*
X76169188Y13219931D01*
X76169188Y13219930D01*
X76169186Y13219928D01*
X76125459Y13159744D01*
X76067368Y13079789D01*
X75988728Y12925448D01*
X75935197Y12760698D01*
X75931838Y12739489D01*
X75908100Y12589611D01*
X75908100Y12416389D01*
X75935198Y12245299D01*
X75988727Y12080555D01*
X76067368Y11926212D01*
X76169186Y11786072D01*
X76291672Y11663586D01*
X76431812Y11561768D01*
X76586155Y11483127D01*
X76750899Y11429598D01*
X76921989Y11402500D01*
X76921990Y11402500D01*
X77095210Y11402500D01*
X77095211Y11402500D01*
X77266301Y11429598D01*
X77431045Y11483127D01*
X77585388Y11561768D01*
X77725528Y11663586D01*
X77848014Y11786072D01*
X77949832Y11926212D01*
X78028473Y12080555D01*
X78082002Y12245299D01*
X78109100Y12416389D01*
X78109100Y12589611D01*
X78082002Y12760701D01*
X78028473Y12925445D01*
X77949832Y13079788D01*
X77848014Y13219928D01*
X77725528Y13342414D01*
X77585388Y13444232D01*
X77431049Y13522872D01*
X77346985Y13550186D01*
X77289310Y13589624D01*
X77262112Y13653983D01*
X77274027Y13722829D01*
X77321272Y13774305D01*
X77346986Y13786048D01*
X77507629Y13838245D01*
X77689949Y13931141D01*
X77734521Y13963526D01*
X77055047Y14643000D01*
X77061261Y14643000D01*
X77162994Y14670259D01*
X77254206Y14722920D01*
X77328680Y14797394D01*
X77381341Y14888606D01*
X77408600Y14990339D01*
X77408600Y14996553D01*
X78088074Y14317079D01*
X78120459Y14361651D01*
X78213355Y14543969D01*
X78276590Y14738583D01*
X78308600Y14940683D01*
X78308600Y15145318D01*
X78276590Y15347418D01*
X78213355Y15542032D01*
X78120459Y15724350D01*
X78088074Y15768923D01*
X78088074Y15768924D01*
X77408600Y15089449D01*
X77408600Y15095661D01*
X77381341Y15197394D01*
X77328680Y15288606D01*
X77254206Y15363080D01*
X77162994Y15415741D01*
X77061261Y15443000D01*
X77055046Y15443000D01*
X77734522Y16122476D01*
X77734521Y16122477D01*
X77689959Y16154853D01*
X77689950Y16154859D01*
X77596419Y16202515D01*
X77545623Y16250489D01*
X77528828Y16318310D01*
X77551365Y16384445D01*
X77596420Y16423485D01*
X77689946Y16471139D01*
X77689947Y16471139D01*
X77734521Y16503526D01*
X77055047Y17183000D01*
X77061261Y17183000D01*
X77162994Y17210259D01*
X77254206Y17262920D01*
X77328680Y17337394D01*
X77381341Y17428606D01*
X77408600Y17530339D01*
X77408600Y17536553D01*
X78088074Y16857079D01*
X78120459Y16901651D01*
X78213355Y17083969D01*
X78276590Y17278583D01*
X78308600Y17480683D01*
X78308600Y17685318D01*
X78276590Y17887418D01*
X78213355Y18082032D01*
X78120459Y18264350D01*
X78088074Y18308923D01*
X78088074Y18308924D01*
X77408600Y17629449D01*
X77408600Y17635661D01*
X77381341Y17737394D01*
X77328680Y17828606D01*
X77254206Y17903080D01*
X77162994Y17955741D01*
X77061261Y17983000D01*
X77055046Y17983000D01*
X77734522Y18662476D01*
X77734521Y18662477D01*
X77689959Y18694853D01*
X77689950Y18694859D01*
X77507631Y18787756D01*
X77346985Y18839953D01*
X77289310Y18879391D01*
X77262112Y18943750D01*
X77274027Y19012596D01*
X77321271Y19064072D01*
X77346981Y19075813D01*
X77431045Y19103127D01*
X77585388Y19181768D01*
X77725528Y19283586D01*
X77848014Y19406072D01*
X77949832Y19546212D01*
X78028473Y19700555D01*
X78082002Y19865299D01*
X78109100Y20036389D01*
X78109100Y20209611D01*
X78082002Y20380701D01*
X78028473Y20545445D01*
X77949832Y20699788D01*
X77848014Y20839928D01*
X77725528Y20962414D01*
X77585388Y21064232D01*
X77431045Y21142873D01*
X77266301Y21196402D01*
X77266299Y21196403D01*
X77266298Y21196403D01*
X77134871Y21217219D01*
X77095211Y21223500D01*
X76921989Y21223500D01*
X76882328Y21217219D01*
X76750902Y21196403D01*
X76586152Y21142872D01*
X76431811Y21064232D01*
X76387341Y21031922D01*
X76291672Y20962414D01*
X76291670Y20962412D01*
X76291669Y20962412D01*
X76169188Y20839931D01*
X76169188Y20839930D01*
X76169186Y20839928D01*
X76125459Y20779744D01*
X76067368Y20699789D01*
X75988728Y20545448D01*
X75935197Y20380698D01*
X75908100Y20209611D01*
X75908100Y20036390D01*
X75933704Y19874728D01*
X75935198Y19865299D01*
X75988727Y19700555D01*
X76067368Y19546212D01*
X76169186Y19406072D01*
X76291672Y19283586D01*
X76431812Y19181768D01*
X76586155Y19103127D01*
X76670213Y19075815D01*
X76727889Y19036377D01*
X76755087Y18972019D01*
X76743172Y18903172D01*
X76695928Y18851697D01*
X76670214Y18839953D01*
X76509568Y18787756D01*
X76327244Y18694857D01*
X76282677Y18662477D01*
X76282677Y18662476D01*
X76962154Y17983000D01*
X76955939Y17983000D01*
X76854206Y17955741D01*
X76762994Y17903080D01*
X76688520Y17828606D01*
X76635859Y17737394D01*
X76608600Y17635661D01*
X76608600Y17629447D01*
X75929124Y18308923D01*
X75929123Y18308923D01*
X75896743Y18264356D01*
X75803844Y18082032D01*
X75740609Y17887418D01*
X75708600Y17685318D01*
X73188653Y17685318D01*
X73218458Y17796550D01*
X73218458Y17941500D01*
X73180942Y18081510D01*
X73148368Y18137929D01*
X73108469Y18207037D01*
X73108464Y18207043D01*
X73005975Y18309532D01*
X73005969Y18309537D01*
X72880446Y18382008D01*
X72880447Y18382008D01*
X72868964Y18385085D01*
X72740433Y18419525D01*
X72595483Y18419525D01*
X72466951Y18385085D01*
X72455469Y18382008D01*
X72329946Y18309537D01*
X72329940Y18309532D01*
X72227451Y18207043D01*
X72227446Y18207037D01*
X72154975Y18081514D01*
X72154974Y18081510D01*
X72117458Y17941500D01*
X23590500Y17941500D01*
X23590500Y19244411D01*
X27622700Y19244411D01*
X27622700Y19071189D01*
X27649798Y18900099D01*
X27703327Y18735355D01*
X27781968Y18581012D01*
X27883786Y18440872D01*
X28006272Y18318386D01*
X28146412Y18216568D01*
X28300755Y18137927D01*
X28465499Y18084398D01*
X28636589Y18057300D01*
X28636590Y18057300D01*
X28809810Y18057300D01*
X28809811Y18057300D01*
X28980901Y18084398D01*
X29145645Y18137927D01*
X29299988Y18216568D01*
X29440128Y18318386D01*
X29562614Y18440872D01*
X29664432Y18581012D01*
X29743073Y18735355D01*
X29796602Y18900099D01*
X29823700Y19071189D01*
X29823700Y19244411D01*
X29796602Y19415501D01*
X29743073Y19580245D01*
X29664432Y19734588D01*
X29562614Y19874728D01*
X29440128Y19997214D01*
X29299988Y20099032D01*
X29145645Y20177673D01*
X28980901Y20231202D01*
X28980899Y20231203D01*
X28980898Y20231203D01*
X28849471Y20252019D01*
X28809811Y20258300D01*
X28636589Y20258300D01*
X28596928Y20252019D01*
X28465502Y20231203D01*
X28300752Y20177672D01*
X28146411Y20099032D01*
X28066456Y20040941D01*
X28006272Y19997214D01*
X28006270Y19997212D01*
X28006269Y19997212D01*
X27883788Y19874731D01*
X27883788Y19874730D01*
X27883786Y19874728D01*
X27840059Y19814544D01*
X27781968Y19734589D01*
X27703328Y19580248D01*
X27649797Y19415498D01*
X27648304Y19406071D01*
X27622700Y19244411D01*
X23590500Y19244411D01*
X23590500Y21784411D01*
X27622700Y21784411D01*
X27622700Y21611189D01*
X27649798Y21440099D01*
X27703327Y21275355D01*
X27781968Y21121012D01*
X27883786Y20980872D01*
X28006272Y20858386D01*
X28146412Y20756568D01*
X28300755Y20677927D01*
X28465499Y20624398D01*
X28636589Y20597300D01*
X28636590Y20597300D01*
X28809810Y20597300D01*
X28809811Y20597300D01*
X28980901Y20624398D01*
X29145645Y20677927D01*
X29299988Y20756568D01*
X29440128Y20858386D01*
X29532652Y20950910D01*
X46061466Y20950910D01*
X46061466Y20792796D01*
X46092245Y20677929D01*
X46102389Y20640070D01*
X46102392Y20640063D01*
X46181441Y20503144D01*
X46181445Y20503139D01*
X46181446Y20503137D01*
X46293250Y20391333D01*
X46293252Y20391332D01*
X46293256Y20391329D01*
X46413561Y20321872D01*
X46430182Y20312276D01*
X46582909Y20271353D01*
X46582911Y20271353D01*
X46741021Y20271353D01*
X46741023Y20271353D01*
X46893750Y20312276D01*
X47030682Y20391333D01*
X47142486Y20503137D01*
X47221543Y20640069D01*
X47262466Y20792796D01*
X47262466Y20950910D01*
X47221543Y21103637D01*
X47152341Y21223500D01*
X47142490Y21240563D01*
X47142484Y21240571D01*
X47030683Y21352372D01*
X47030675Y21352378D01*
X46893756Y21431427D01*
X46893752Y21431429D01*
X46893750Y21431430D01*
X46741023Y21472353D01*
X46582909Y21472353D01*
X46430182Y21431430D01*
X46430175Y21431427D01*
X46293256Y21352378D01*
X46293248Y21352372D01*
X46181447Y21240571D01*
X46181441Y21240563D01*
X46102392Y21103644D01*
X46102389Y21103637D01*
X46061466Y20950910D01*
X29532652Y20950910D01*
X29562614Y20980872D01*
X29664432Y21121012D01*
X29743073Y21275355D01*
X29796602Y21440099D01*
X29823700Y21611189D01*
X29823700Y21784411D01*
X29796602Y21955501D01*
X29749482Y22100520D01*
X29748909Y22102284D01*
X29748908Y22102286D01*
X29743073Y22120246D01*
X29736842Y22132475D01*
X57559500Y22132475D01*
X57559500Y21987525D01*
X57595870Y21851791D01*
X57597017Y21847512D01*
X57669488Y21721989D01*
X57669490Y21721987D01*
X57669491Y21721985D01*
X57771985Y21619491D01*
X57771986Y21619490D01*
X57771988Y21619489D01*
X57897511Y21547018D01*
X57897512Y21547018D01*
X57897515Y21547016D01*
X58037525Y21509500D01*
X58037528Y21509500D01*
X58182472Y21509500D01*
X58182475Y21509500D01*
X58322485Y21547016D01*
X58448015Y21619491D01*
X58527581Y21699057D01*
X69179500Y21699057D01*
X69179500Y21540944D01*
X69220423Y21388217D01*
X69220426Y21388210D01*
X69299475Y21251291D01*
X69299479Y21251286D01*
X69299480Y21251284D01*
X69411284Y21139480D01*
X69411286Y21139479D01*
X69411290Y21139476D01*
X69548209Y21060427D01*
X69548216Y21060423D01*
X69700943Y21019500D01*
X69700945Y21019500D01*
X69859055Y21019500D01*
X69859057Y21019500D01*
X70011784Y21060423D01*
X70148716Y21139480D01*
X70260520Y21251284D01*
X70339577Y21388216D01*
X70380500Y21540943D01*
X70380500Y21699057D01*
X70339577Y21851784D01*
X70339573Y21851791D01*
X70260524Y21988710D01*
X70260518Y21988718D01*
X70148717Y22100519D01*
X70148709Y22100525D01*
X70011790Y22179574D01*
X70011786Y22179576D01*
X70011784Y22179577D01*
X69859057Y22220500D01*
X69700943Y22220500D01*
X69548216Y22179577D01*
X69548209Y22179574D01*
X69411290Y22100525D01*
X69411282Y22100519D01*
X69299481Y21988718D01*
X69299475Y21988710D01*
X69220426Y21851791D01*
X69220423Y21851784D01*
X69179500Y21699057D01*
X58527581Y21699057D01*
X58550509Y21721985D01*
X58622984Y21847515D01*
X58660500Y21987525D01*
X58660500Y22132475D01*
X58622984Y22272485D01*
X58621769Y22274589D01*
X58550511Y22398012D01*
X58550506Y22398018D01*
X58448017Y22500507D01*
X58448011Y22500512D01*
X58322488Y22572983D01*
X58322489Y22572983D01*
X58311006Y22576060D01*
X58182475Y22610500D01*
X58037525Y22610500D01*
X57908993Y22576060D01*
X57897511Y22572983D01*
X57771988Y22500512D01*
X57771982Y22500507D01*
X57669493Y22398018D01*
X57669488Y22398012D01*
X57597017Y22272489D01*
X57597016Y22272485D01*
X57559500Y22132475D01*
X29736842Y22132475D01*
X29691991Y22220500D01*
X29664432Y22274588D01*
X29562614Y22414728D01*
X29440128Y22537214D01*
X29339259Y22610500D01*
X29299986Y22639034D01*
X29290242Y22643998D01*
X29145645Y22717673D01*
X29047351Y22749611D01*
X75908100Y22749611D01*
X75908100Y22576389D01*
X75914305Y22537214D01*
X75933704Y22414728D01*
X75935198Y22405299D01*
X75988727Y22240555D01*
X76067368Y22086212D01*
X76169186Y21946072D01*
X76291672Y21823586D01*
X76431812Y21721768D01*
X76586155Y21643127D01*
X76750899Y21589598D01*
X76921989Y21562500D01*
X76921990Y21562500D01*
X77095210Y21562500D01*
X77095211Y21562500D01*
X77266301Y21589598D01*
X77431045Y21643127D01*
X77585388Y21721768D01*
X77725528Y21823586D01*
X77848014Y21946072D01*
X77949832Y22086212D01*
X78028473Y22240555D01*
X78082002Y22405299D01*
X78109100Y22576389D01*
X78109100Y22749611D01*
X78082002Y22920701D01*
X78028473Y23085445D01*
X77949832Y23239788D01*
X77848014Y23379928D01*
X77725528Y23502414D01*
X77585388Y23604232D01*
X77431045Y23682873D01*
X77266301Y23736402D01*
X77266299Y23736403D01*
X77266298Y23736403D01*
X77134871Y23757219D01*
X77095211Y23763500D01*
X76921989Y23763500D01*
X76882328Y23757219D01*
X76750902Y23736403D01*
X76586152Y23682872D01*
X76431811Y23604232D01*
X76351856Y23546141D01*
X76291672Y23502414D01*
X76291670Y23502412D01*
X76291669Y23502412D01*
X76169188Y23379931D01*
X76169188Y23379930D01*
X76169186Y23379928D01*
X76125459Y23319744D01*
X76067368Y23239789D01*
X75988728Y23085448D01*
X75935197Y22920698D01*
X75911520Y22771203D01*
X75908100Y22749611D01*
X29047351Y22749611D01*
X28980901Y22771202D01*
X28980899Y22771203D01*
X28980898Y22771203D01*
X28849471Y22792019D01*
X28809811Y22798300D01*
X28636589Y22798300D01*
X28596928Y22792019D01*
X28465502Y22771203D01*
X28300752Y22717672D01*
X28146411Y22639032D01*
X28107141Y22610500D01*
X28006272Y22537214D01*
X28006270Y22537212D01*
X28006269Y22537212D01*
X27883788Y22414731D01*
X27883788Y22414730D01*
X27883786Y22414728D01*
X27871641Y22398012D01*
X27781968Y22274589D01*
X27703328Y22120248D01*
X27649797Y21955498D01*
X27648304Y21946071D01*
X27622700Y21784411D01*
X23590500Y21784411D01*
X23590500Y24324411D01*
X27622700Y24324411D01*
X27622700Y24151189D01*
X27649798Y23980099D01*
X27703327Y23815355D01*
X27781968Y23661012D01*
X27883786Y23520872D01*
X28006272Y23398386D01*
X28146412Y23296568D01*
X28300755Y23217927D01*
X28465499Y23164398D01*
X28636589Y23137300D01*
X28636590Y23137300D01*
X28809810Y23137300D01*
X28809811Y23137300D01*
X28980901Y23164398D01*
X29145645Y23217927D01*
X29299988Y23296568D01*
X29440128Y23398386D01*
X29562614Y23520872D01*
X29664432Y23661012D01*
X29743073Y23815355D01*
X29796602Y23980099D01*
X29823700Y24151189D01*
X29823700Y24324411D01*
X29796602Y24495501D01*
X29743073Y24660245D01*
X29664432Y24814588D01*
X29664430Y24814591D01*
X29664429Y24814593D01*
X29633100Y24857713D01*
X29633099Y24857714D01*
X29586047Y24922475D01*
X70429500Y24922475D01*
X70429500Y24777525D01*
X70467016Y24637515D01*
X70467017Y24637512D01*
X70539488Y24511989D01*
X70539490Y24511987D01*
X70539491Y24511985D01*
X70641985Y24409491D01*
X70641986Y24409490D01*
X70641988Y24409489D01*
X70767511Y24337018D01*
X70767512Y24337018D01*
X70767515Y24337016D01*
X70907525Y24299500D01*
X70907528Y24299500D01*
X71052472Y24299500D01*
X71052475Y24299500D01*
X71192485Y24337016D01*
X71318015Y24409491D01*
X71420509Y24511985D01*
X71492984Y24637515D01*
X71530500Y24777525D01*
X71530500Y24922475D01*
X71492984Y25062485D01*
X71488933Y25069501D01*
X71420511Y25188012D01*
X71420506Y25188018D01*
X71318913Y25289611D01*
X75908100Y25289611D01*
X75908100Y25116389D01*
X75916277Y25064761D01*
X75933704Y24954728D01*
X75935198Y24945299D01*
X75988727Y24780555D01*
X76067368Y24626212D01*
X76169186Y24486072D01*
X76291672Y24363586D01*
X76431812Y24261768D01*
X76586155Y24183127D01*
X76750899Y24129598D01*
X76921989Y24102500D01*
X76921990Y24102500D01*
X77095210Y24102500D01*
X77095211Y24102500D01*
X77266301Y24129598D01*
X77431045Y24183127D01*
X77585388Y24261768D01*
X77725528Y24363586D01*
X77848014Y24486072D01*
X77949832Y24626212D01*
X78028473Y24780555D01*
X78082002Y24945299D01*
X78109100Y25116389D01*
X78109100Y25289611D01*
X78082002Y25460701D01*
X78028473Y25625445D01*
X77949832Y25779788D01*
X77848014Y25919928D01*
X77725528Y26042414D01*
X77585388Y26144232D01*
X77431045Y26222873D01*
X77266301Y26276402D01*
X77266299Y26276403D01*
X77266298Y26276403D01*
X77134871Y26297219D01*
X77095211Y26303500D01*
X76921989Y26303500D01*
X76882328Y26297219D01*
X76750902Y26276403D01*
X76586152Y26222872D01*
X76431811Y26144232D01*
X76395723Y26118012D01*
X76291672Y26042414D01*
X76291670Y26042412D01*
X76291669Y26042412D01*
X76169188Y25919931D01*
X76169188Y25919930D01*
X76169186Y25919928D01*
X76156009Y25901791D01*
X76067368Y25779789D01*
X75988728Y25625448D01*
X75935197Y25460698D01*
X75911520Y25311203D01*
X75908100Y25289611D01*
X71318913Y25289611D01*
X71318017Y25290507D01*
X71318011Y25290512D01*
X71192488Y25362983D01*
X71192489Y25362983D01*
X71181006Y25366060D01*
X71052475Y25400500D01*
X70907525Y25400500D01*
X70778993Y25366060D01*
X70767511Y25362983D01*
X70641988Y25290512D01*
X70641982Y25290507D01*
X70539493Y25188018D01*
X70539488Y25188012D01*
X70467017Y25062489D01*
X70467016Y25062485D01*
X70429500Y24922475D01*
X29586047Y24922475D01*
X29562614Y24954728D01*
X29440128Y25077214D01*
X29299988Y25179032D01*
X29145645Y25257673D01*
X28980901Y25311202D01*
X28980899Y25311203D01*
X28980898Y25311203D01*
X28849471Y25332019D01*
X28809811Y25338300D01*
X28636589Y25338300D01*
X28596928Y25332019D01*
X28465502Y25311203D01*
X28300752Y25257672D01*
X28146411Y25179032D01*
X28066456Y25120941D01*
X28006272Y25077214D01*
X28006270Y25077212D01*
X28006269Y25077212D01*
X27883788Y24954731D01*
X27883788Y24954730D01*
X27883786Y24954728D01*
X27840059Y24894544D01*
X27781968Y24814589D01*
X27703328Y24660248D01*
X27649797Y24495498D01*
X27648304Y24486071D01*
X27622700Y24324411D01*
X23590500Y24324411D01*
X23590500Y26864411D01*
X27622700Y26864411D01*
X27622700Y26691189D01*
X27649798Y26520099D01*
X27703327Y26355355D01*
X27781968Y26201012D01*
X27883786Y26060872D01*
X28006272Y25938386D01*
X28146412Y25836568D01*
X28300755Y25757927D01*
X28465499Y25704398D01*
X28636589Y25677300D01*
X28636590Y25677300D01*
X28809810Y25677300D01*
X28809811Y25677300D01*
X28980901Y25704398D01*
X29145645Y25757927D01*
X29299988Y25836568D01*
X29321882Y25852475D01*
X43637000Y25852475D01*
X43637000Y25707525D01*
X43674516Y25567515D01*
X43674517Y25567512D01*
X43746988Y25441989D01*
X43746990Y25441987D01*
X43746991Y25441985D01*
X43849485Y25339491D01*
X43849486Y25339490D01*
X43849488Y25339489D01*
X43975011Y25267018D01*
X43975012Y25267018D01*
X43975015Y25267016D01*
X44115025Y25229500D01*
X44115028Y25229500D01*
X44259972Y25229500D01*
X44259975Y25229500D01*
X44399985Y25267016D01*
X44525515Y25339491D01*
X44628009Y25441985D01*
X44700484Y25567515D01*
X44738000Y25707525D01*
X44738000Y25749057D01*
X50339500Y25749057D01*
X50339500Y25590943D01*
X50345779Y25567512D01*
X50380423Y25438217D01*
X50380426Y25438210D01*
X50459475Y25301291D01*
X50459479Y25301286D01*
X50459480Y25301284D01*
X50571284Y25189480D01*
X50571286Y25189479D01*
X50571290Y25189476D01*
X50697881Y25116390D01*
X50708216Y25110423D01*
X50860943Y25069500D01*
X50860945Y25069500D01*
X51019055Y25069500D01*
X51019057Y25069500D01*
X51171784Y25110423D01*
X51308716Y25189480D01*
X51420520Y25301284D01*
X51499577Y25438216D01*
X51540500Y25590943D01*
X51540500Y25749057D01*
X51499577Y25901784D01*
X51489102Y25919928D01*
X51420524Y26038710D01*
X51420518Y26038718D01*
X51308717Y26150519D01*
X51308709Y26150525D01*
X51171790Y26229574D01*
X51171786Y26229576D01*
X51171784Y26229577D01*
X51019057Y26270500D01*
X50860943Y26270500D01*
X50708216Y26229577D01*
X50708209Y26229574D01*
X50571290Y26150525D01*
X50571282Y26150519D01*
X50459481Y26038718D01*
X50459475Y26038710D01*
X50380426Y25901791D01*
X50380423Y25901784D01*
X50339500Y25749057D01*
X44738000Y25749057D01*
X44738000Y25852475D01*
X44700484Y25992485D01*
X44673792Y26038716D01*
X44628011Y26118012D01*
X44628006Y26118018D01*
X44525517Y26220507D01*
X44525511Y26220512D01*
X44399988Y26292983D01*
X44399989Y26292983D01*
X44360739Y26303500D01*
X44259975Y26330500D01*
X44115025Y26330500D01*
X44014261Y26303500D01*
X43975011Y26292983D01*
X43849488Y26220512D01*
X43849482Y26220507D01*
X43746993Y26118018D01*
X43746988Y26118012D01*
X43674517Y25992489D01*
X43674516Y25992485D01*
X43637000Y25852475D01*
X29321882Y25852475D01*
X29440128Y25938386D01*
X29562614Y26060872D01*
X29664432Y26201012D01*
X29743073Y26355355D01*
X29796602Y26520099D01*
X29823700Y26691189D01*
X29823700Y26864411D01*
X29796602Y27035501D01*
X29743073Y27200245D01*
X29664432Y27354588D01*
X29562614Y27494728D01*
X29440128Y27617214D01*
X29299988Y27719032D01*
X29145645Y27797673D01*
X28980901Y27851202D01*
X28980899Y27851203D01*
X28980898Y27851203D01*
X28849471Y27872019D01*
X28809811Y27878300D01*
X28636589Y27878300D01*
X28596928Y27872019D01*
X28465502Y27851203D01*
X28300752Y27797672D01*
X28146411Y27719032D01*
X28066456Y27660941D01*
X28006272Y27617214D01*
X28006270Y27617212D01*
X28006269Y27617212D01*
X27883788Y27494731D01*
X27883788Y27494730D01*
X27883786Y27494728D01*
X27840059Y27434544D01*
X27781968Y27354589D01*
X27703328Y27200248D01*
X27649797Y27035498D01*
X27648304Y27026071D01*
X27622700Y26864411D01*
X23590500Y26864411D01*
X23590500Y28147475D01*
X69014500Y28147475D01*
X69014500Y28002525D01*
X69052016Y27862515D01*
X69052017Y27862512D01*
X69124488Y27736989D01*
X69124490Y27736987D01*
X69124491Y27736985D01*
X69226985Y27634491D01*
X69226986Y27634490D01*
X69226988Y27634489D01*
X69352511Y27562018D01*
X69352512Y27562018D01*
X69352515Y27562016D01*
X69492525Y27524500D01*
X69492528Y27524500D01*
X69637472Y27524500D01*
X69637475Y27524500D01*
X69777485Y27562016D01*
X69903015Y27634491D01*
X70005509Y27736985D01*
X70058987Y27829611D01*
X75908100Y27829611D01*
X75908100Y27656390D01*
X75933704Y27494728D01*
X75935198Y27485299D01*
X75988727Y27320555D01*
X76067368Y27166212D01*
X76169186Y27026072D01*
X76291672Y26903586D01*
X76431812Y26801768D01*
X76586155Y26723127D01*
X76750899Y26669598D01*
X76921989Y26642500D01*
X76921990Y26642500D01*
X77095210Y26642500D01*
X77095211Y26642500D01*
X77266301Y26669598D01*
X77431045Y26723127D01*
X77585388Y26801768D01*
X77725528Y26903586D01*
X77848014Y27026072D01*
X77949832Y27166212D01*
X78028473Y27320555D01*
X78082002Y27485299D01*
X78109100Y27656389D01*
X78109100Y27829611D01*
X78082002Y28000701D01*
X78028473Y28165445D01*
X77949832Y28319788D01*
X77848014Y28459928D01*
X77725528Y28582414D01*
X77585388Y28684232D01*
X77431045Y28762873D01*
X77266301Y28816402D01*
X77266299Y28816403D01*
X77266298Y28816403D01*
X77134871Y28837219D01*
X77095211Y28843500D01*
X76921989Y28843500D01*
X76882328Y28837219D01*
X76750902Y28816403D01*
X76586152Y28762872D01*
X76431811Y28684232D01*
X76351856Y28626141D01*
X76291672Y28582414D01*
X76291670Y28582412D01*
X76291669Y28582412D01*
X76169188Y28459931D01*
X76169188Y28459930D01*
X76169186Y28459928D01*
X76125459Y28399744D01*
X76067368Y28319789D01*
X75988728Y28165448D01*
X75988727Y28165446D01*
X75988727Y28165445D01*
X75961962Y28083073D01*
X75935197Y28000698D01*
X75908100Y27829611D01*
X70058987Y27829611D01*
X70077984Y27862515D01*
X70115500Y28002525D01*
X70115500Y28147475D01*
X70077984Y28287485D01*
X70071955Y28297927D01*
X70005511Y28413012D01*
X70005506Y28413018D01*
X69903017Y28515507D01*
X69903011Y28515512D01*
X69777488Y28587983D01*
X69777489Y28587983D01*
X69766006Y28591060D01*
X69637475Y28625500D01*
X69492525Y28625500D01*
X69363993Y28591060D01*
X69352511Y28587983D01*
X69226988Y28515512D01*
X69226982Y28515507D01*
X69124493Y28413018D01*
X69124488Y28413012D01*
X69052017Y28287489D01*
X69052016Y28287485D01*
X69014500Y28147475D01*
X23590500Y28147475D01*
X23590500Y31960118D01*
X27423200Y31960118D01*
X27423200Y31755483D01*
X27455209Y31553383D01*
X27518444Y31358769D01*
X27611341Y31176450D01*
X27611347Y31176441D01*
X27643723Y31131879D01*
X27643724Y31131878D01*
X28323200Y31811354D01*
X28323200Y31805139D01*
X28350459Y31703406D01*
X28403120Y31612194D01*
X28477594Y31537720D01*
X28568806Y31485059D01*
X28670539Y31457800D01*
X28676753Y31457800D01*
X27997276Y30778326D01*
X28041850Y30745941D01*
X28224170Y30653045D01*
X28384813Y30600848D01*
X28442489Y30561410D01*
X28469687Y30497052D01*
X28457772Y30428205D01*
X28410528Y30376730D01*
X28384815Y30364986D01*
X28300749Y30337671D01*
X28146411Y30259032D01*
X28066456Y30200941D01*
X28006272Y30157214D01*
X28006270Y30157212D01*
X28006269Y30157212D01*
X27883788Y30034731D01*
X27883788Y30034730D01*
X27883786Y30034728D01*
X27840059Y29974544D01*
X27781968Y29894589D01*
X27703328Y29740248D01*
X27649797Y29575498D01*
X27622700Y29404411D01*
X27622700Y29231190D01*
X27633262Y29164500D01*
X27649798Y29060099D01*
X27703327Y28895355D01*
X27781968Y28741012D01*
X27883786Y28600872D01*
X28006272Y28478386D01*
X28146412Y28376568D01*
X28300755Y28297927D01*
X28465499Y28244398D01*
X28636589Y28217300D01*
X28636590Y28217300D01*
X28809810Y28217300D01*
X28809811Y28217300D01*
X28980901Y28244398D01*
X29145645Y28297927D01*
X29299988Y28376568D01*
X29440128Y28478386D01*
X29562614Y28600872D01*
X29664432Y28741012D01*
X29743073Y28895355D01*
X29796602Y29060099D01*
X29823700Y29231189D01*
X29823700Y29404411D01*
X29796602Y29575501D01*
X29743073Y29740245D01*
X29664432Y29894588D01*
X29564251Y30032475D01*
X33129500Y30032475D01*
X33129500Y29887525D01*
X33167016Y29747515D01*
X33167017Y29747512D01*
X33239488Y29621989D01*
X33239490Y29621987D01*
X33239491Y29621985D01*
X33341985Y29519491D01*
X33341986Y29519490D01*
X33341988Y29519489D01*
X33467511Y29447018D01*
X33467512Y29447018D01*
X33467515Y29447016D01*
X33607525Y29409500D01*
X33607528Y29409500D01*
X33752472Y29409500D01*
X33752475Y29409500D01*
X33892485Y29447016D01*
X34018015Y29519491D01*
X34120509Y29621985D01*
X34192984Y29747515D01*
X34203691Y29787475D01*
X69049500Y29787475D01*
X69049500Y29642525D01*
X69082468Y29519489D01*
X69087017Y29502512D01*
X69159488Y29376989D01*
X69159490Y29376987D01*
X69159491Y29376985D01*
X69261985Y29274491D01*
X69261986Y29274490D01*
X69261988Y29274489D01*
X69387511Y29202018D01*
X69387512Y29202018D01*
X69387515Y29202016D01*
X69527525Y29164500D01*
X69527528Y29164500D01*
X69672472Y29164500D01*
X69672475Y29164500D01*
X69812485Y29202016D01*
X69938015Y29274491D01*
X70040509Y29376985D01*
X70112984Y29502515D01*
X70150500Y29642525D01*
X70150500Y29787475D01*
X70112984Y29927485D01*
X70051065Y30034731D01*
X70040511Y30053012D01*
X70040506Y30053018D01*
X69938017Y30155507D01*
X69938011Y30155512D01*
X69812488Y30227983D01*
X69812489Y30227983D01*
X69803852Y30230298D01*
X69672475Y30265500D01*
X69527525Y30265500D01*
X69398993Y30231060D01*
X69387511Y30227983D01*
X69261988Y30155512D01*
X69261982Y30155507D01*
X69159493Y30053018D01*
X69159488Y30053012D01*
X69087017Y29927489D01*
X69087016Y29927485D01*
X69049500Y29787475D01*
X34203691Y29787475D01*
X34230500Y29887525D01*
X34230500Y30032475D01*
X34192984Y30172485D01*
X34179182Y30196390D01*
X34120511Y30298012D01*
X34120506Y30298018D01*
X34048913Y30369611D01*
X75908100Y30369611D01*
X75908100Y30196390D01*
X75934061Y30032473D01*
X75935198Y30025299D01*
X75988727Y29860555D01*
X76067368Y29706212D01*
X76169186Y29566072D01*
X76291672Y29443586D01*
X76431812Y29341768D01*
X76586155Y29263127D01*
X76750899Y29209598D01*
X76921989Y29182500D01*
X76921990Y29182500D01*
X77095210Y29182500D01*
X77095211Y29182500D01*
X77266301Y29209598D01*
X77431045Y29263127D01*
X77585388Y29341768D01*
X77725528Y29443586D01*
X77848014Y29566072D01*
X77949832Y29706212D01*
X78028473Y29860555D01*
X78082002Y30025299D01*
X78109100Y30196389D01*
X78109100Y30369611D01*
X78082002Y30540701D01*
X78028473Y30705445D01*
X77949832Y30859788D01*
X77848014Y30999928D01*
X77725528Y31122414D01*
X77585388Y31224232D01*
X77431045Y31302873D01*
X77266301Y31356402D01*
X77266299Y31356403D01*
X77266298Y31356403D01*
X77134871Y31377219D01*
X77095211Y31383500D01*
X76921989Y31383500D01*
X76882328Y31377219D01*
X76750902Y31356403D01*
X76586152Y31302872D01*
X76431811Y31224232D01*
X76351856Y31166141D01*
X76291672Y31122414D01*
X76291670Y31122412D01*
X76291669Y31122412D01*
X76169188Y30999931D01*
X76169188Y30999930D01*
X76169186Y30999928D01*
X76125459Y30939744D01*
X76067368Y30859789D01*
X75988728Y30705448D01*
X75935197Y30540698D01*
X75908100Y30369611D01*
X34048913Y30369611D01*
X34021755Y30396769D01*
X33988270Y30458092D01*
X33993254Y30527784D01*
X34035126Y30583717D01*
X34047429Y30591833D01*
X34078015Y30609491D01*
X34180509Y30711985D01*
X34252984Y30837515D01*
X34290500Y30977525D01*
X34290500Y31122475D01*
X34252984Y31262485D01*
X34229666Y31302872D01*
X34180511Y31388012D01*
X34180506Y31388018D01*
X34078017Y31490507D01*
X34078011Y31490512D01*
X33952488Y31562983D01*
X33952489Y31562983D01*
X33941006Y31566060D01*
X33812475Y31600500D01*
X33667525Y31600500D01*
X33538993Y31566060D01*
X33527511Y31562983D01*
X33401988Y31490512D01*
X33401982Y31490507D01*
X33299493Y31388018D01*
X33299488Y31388012D01*
X33227017Y31262489D01*
X33227016Y31262485D01*
X33189500Y31122475D01*
X33189500Y30977525D01*
X33221048Y30859789D01*
X33227017Y30837512D01*
X33299488Y30711989D01*
X33299493Y30711983D01*
X33398244Y30613232D01*
X33431729Y30551909D01*
X33426745Y30482217D01*
X33384873Y30426284D01*
X33372565Y30418165D01*
X33341988Y30400511D01*
X33341982Y30400507D01*
X33239493Y30298018D01*
X33239488Y30298012D01*
X33167017Y30172489D01*
X33167016Y30172485D01*
X33129500Y30032475D01*
X29564251Y30032475D01*
X29562614Y30034728D01*
X29440128Y30157214D01*
X29299988Y30259032D01*
X29287294Y30265500D01*
X29145649Y30337672D01*
X29061585Y30364986D01*
X29003910Y30404424D01*
X28976712Y30468783D01*
X28988627Y30537629D01*
X29035872Y30589105D01*
X29061586Y30600848D01*
X29222229Y30653045D01*
X29404549Y30745941D01*
X29449121Y30778326D01*
X28769647Y31457800D01*
X28775861Y31457800D01*
X28877594Y31485059D01*
X28968806Y31537720D01*
X29043280Y31612194D01*
X29095941Y31703406D01*
X29123200Y31805139D01*
X29123200Y31811352D01*
X29802674Y31131878D01*
X29802674Y31131879D01*
X29835059Y31176451D01*
X29927955Y31358769D01*
X29991190Y31553383D01*
X30021390Y31744057D01*
X65604500Y31744057D01*
X65604500Y31585943D01*
X65630072Y31490509D01*
X65645423Y31433217D01*
X65645426Y31433210D01*
X65724475Y31296291D01*
X65724479Y31296286D01*
X65724480Y31296284D01*
X65836284Y31184480D01*
X65836286Y31184479D01*
X65836290Y31184476D01*
X65927392Y31131879D01*
X65973216Y31105423D01*
X66125943Y31064500D01*
X66125945Y31064500D01*
X66284055Y31064500D01*
X66284057Y31064500D01*
X66436784Y31105423D01*
X66573716Y31184480D01*
X66685520Y31296284D01*
X66764577Y31433216D01*
X66805500Y31585943D01*
X66805500Y31744057D01*
X66764577Y31896784D01*
X66756681Y31910461D01*
X66685524Y32033710D01*
X66685518Y32033718D01*
X66573717Y32145519D01*
X66573709Y32145525D01*
X66436790Y32224574D01*
X66436786Y32224576D01*
X66436784Y32224577D01*
X66284057Y32265500D01*
X66125943Y32265500D01*
X65973216Y32224577D01*
X65973209Y32224574D01*
X65836290Y32145525D01*
X65836282Y32145519D01*
X65724481Y32033718D01*
X65724475Y32033710D01*
X65645426Y31896791D01*
X65645423Y31896784D01*
X65604500Y31744057D01*
X30021390Y31744057D01*
X30023200Y31755483D01*
X30023200Y31960118D01*
X29991190Y32162218D01*
X29927955Y32356832D01*
X29835059Y32539150D01*
X29802674Y32583723D01*
X29802674Y32583724D01*
X29123200Y31904249D01*
X29123200Y31910461D01*
X29095941Y32012194D01*
X29043280Y32103406D01*
X28968806Y32177880D01*
X28877594Y32230541D01*
X28775861Y32257800D01*
X28769646Y32257800D01*
X29449122Y32937276D01*
X29449121Y32937277D01*
X29404559Y32969653D01*
X29404550Y32969659D01*
X29222231Y33062556D01*
X29061585Y33114753D01*
X29003910Y33154191D01*
X28976712Y33218550D01*
X28988627Y33287396D01*
X29035871Y33338872D01*
X29061581Y33350613D01*
X29145645Y33377927D01*
X29299988Y33456568D01*
X29440128Y33558386D01*
X29562614Y33680872D01*
X29664432Y33821012D01*
X29743073Y33975355D01*
X29796602Y34140099D01*
X29823700Y34311189D01*
X29823700Y34462475D01*
X39609500Y34462475D01*
X39609500Y34317525D01*
X39630805Y34238015D01*
X39647017Y34177512D01*
X39719488Y34051989D01*
X39719490Y34051987D01*
X39719491Y34051985D01*
X39821985Y33949491D01*
X39821986Y33949490D01*
X39821988Y33949489D01*
X39947511Y33877018D01*
X39947512Y33877018D01*
X39947515Y33877016D01*
X40087525Y33839500D01*
X40087528Y33839500D01*
X40232472Y33839500D01*
X40232475Y33839500D01*
X40372485Y33877016D01*
X40498015Y33949491D01*
X40520999Y33972475D01*
X42052000Y33972475D01*
X42052000Y33827525D01*
X42089516Y33687515D01*
X42089517Y33687512D01*
X42161988Y33561989D01*
X42161990Y33561987D01*
X42161991Y33561985D01*
X42264485Y33459491D01*
X42264486Y33459490D01*
X42264488Y33459489D01*
X42390011Y33387018D01*
X42390012Y33387018D01*
X42390015Y33387016D01*
X42530025Y33349500D01*
X42530028Y33349500D01*
X42674972Y33349500D01*
X42674975Y33349500D01*
X42814985Y33387016D01*
X42940515Y33459491D01*
X43043009Y33561985D01*
X43115484Y33687515D01*
X43153000Y33827525D01*
X43153000Y33972475D01*
X43115484Y34112485D01*
X43043009Y34238015D01*
X42940515Y34340509D01*
X42940513Y34340510D01*
X42940511Y34340512D01*
X42814988Y34412983D01*
X42814989Y34412983D01*
X42803506Y34416060D01*
X42674975Y34450500D01*
X42530025Y34450500D01*
X42401493Y34416060D01*
X42390011Y34412983D01*
X42264488Y34340512D01*
X42264482Y34340507D01*
X42161993Y34238018D01*
X42161988Y34238012D01*
X42089517Y34112489D01*
X42089516Y34112485D01*
X42052000Y33972475D01*
X40520999Y33972475D01*
X40600509Y34051985D01*
X40672984Y34177515D01*
X40710500Y34317525D01*
X40710500Y34462475D01*
X40672984Y34602485D01*
X40609595Y34712277D01*
X40600511Y34728012D01*
X40600506Y34728018D01*
X40498017Y34830507D01*
X40498011Y34830512D01*
X40372488Y34902983D01*
X40372489Y34902983D01*
X40361006Y34906060D01*
X40232475Y34940500D01*
X40087525Y34940500D01*
X39958993Y34906060D01*
X39947511Y34902983D01*
X39821988Y34830512D01*
X39821982Y34830507D01*
X39719493Y34728018D01*
X39719488Y34728012D01*
X39647017Y34602489D01*
X39647016Y34602485D01*
X39609500Y34462475D01*
X29823700Y34462475D01*
X29823700Y34484411D01*
X29796602Y34655501D01*
X29743073Y34820245D01*
X29664432Y34974588D01*
X29562614Y35114728D01*
X29440128Y35237214D01*
X29299988Y35339032D01*
X29196359Y35391833D01*
X59052276Y35391833D01*
X59052276Y35233719D01*
X59084160Y35114728D01*
X59093199Y35080993D01*
X59093202Y35080986D01*
X59172251Y34944067D01*
X59172255Y34944062D01*
X59172256Y34944060D01*
X59284060Y34832256D01*
X59284062Y34832255D01*
X59284066Y34832252D01*
X59420985Y34753203D01*
X59420992Y34753199D01*
X59573719Y34712276D01*
X59573721Y34712276D01*
X59731831Y34712276D01*
X59731833Y34712276D01*
X59884560Y34753199D01*
X60021492Y34832256D01*
X60133296Y34944060D01*
X60212353Y35080992D01*
X60253276Y35233719D01*
X60253276Y35391833D01*
X60212353Y35544560D01*
X60212349Y35544567D01*
X60133300Y35681486D01*
X60133294Y35681494D01*
X60021493Y35793295D01*
X60021485Y35793301D01*
X59884566Y35872350D01*
X59884562Y35872352D01*
X59884560Y35872353D01*
X59731833Y35913276D01*
X59573719Y35913276D01*
X59420992Y35872353D01*
X59420985Y35872350D01*
X59284066Y35793301D01*
X59284058Y35793295D01*
X59172257Y35681494D01*
X59172251Y35681486D01*
X59093202Y35544567D01*
X59093199Y35544560D01*
X59052276Y35391833D01*
X29196359Y35391833D01*
X29145645Y35417673D01*
X28980901Y35471202D01*
X28980899Y35471203D01*
X28980898Y35471203D01*
X28849471Y35492019D01*
X28809811Y35498300D01*
X28636589Y35498300D01*
X28596928Y35492019D01*
X28465502Y35471203D01*
X28300752Y35417672D01*
X28146411Y35339032D01*
X28092196Y35299642D01*
X28006272Y35237214D01*
X28006270Y35237212D01*
X28006269Y35237212D01*
X27883788Y35114731D01*
X27883788Y35114730D01*
X27883786Y35114728D01*
X27859271Y35080986D01*
X27781968Y34974589D01*
X27703328Y34820248D01*
X27649797Y34655498D01*
X27641401Y34602485D01*
X27622700Y34484411D01*
X27622700Y34311189D01*
X27649798Y34140099D01*
X27703327Y33975355D01*
X27781968Y33821012D01*
X27883786Y33680872D01*
X28006272Y33558386D01*
X28146412Y33456568D01*
X28300755Y33377927D01*
X28384813Y33350615D01*
X28442489Y33311177D01*
X28469687Y33246819D01*
X28457772Y33177972D01*
X28410528Y33126497D01*
X28384814Y33114753D01*
X28224168Y33062556D01*
X28041844Y32969657D01*
X27997277Y32937277D01*
X27997277Y32937276D01*
X28676754Y32257800D01*
X28670539Y32257800D01*
X28568806Y32230541D01*
X28477594Y32177880D01*
X28403120Y32103406D01*
X28350459Y32012194D01*
X28323200Y31910461D01*
X28323200Y31904247D01*
X27643724Y32583723D01*
X27643723Y32583723D01*
X27611343Y32539156D01*
X27518444Y32356832D01*
X27455209Y32162218D01*
X27423200Y31960118D01*
X23590500Y31960118D01*
X23590500Y37024411D01*
X27622700Y37024411D01*
X27622700Y36851189D01*
X27649798Y36680099D01*
X27703327Y36515355D01*
X27781968Y36361012D01*
X27883786Y36220872D01*
X28006272Y36098386D01*
X28146412Y35996568D01*
X28300755Y35917927D01*
X28465499Y35864398D01*
X28636589Y35837300D01*
X28636590Y35837300D01*
X28809810Y35837300D01*
X28809811Y35837300D01*
X28980901Y35864398D01*
X29145645Y35917927D01*
X29299988Y35996568D01*
X29440128Y36098386D01*
X29562614Y36220872D01*
X29664432Y36361012D01*
X29743073Y36515355D01*
X29796602Y36680099D01*
X29823700Y36851189D01*
X29823700Y37024411D01*
X29796602Y37195501D01*
X29743073Y37360245D01*
X29743070Y37360251D01*
X29712981Y37419306D01*
X29712980Y37419307D01*
X29688437Y37467475D01*
X70749500Y37467475D01*
X70749500Y37322525D01*
X70783537Y37195498D01*
X70787017Y37182512D01*
X70859488Y37056989D01*
X70859490Y37056987D01*
X70859491Y37056985D01*
X70961985Y36954491D01*
X70961986Y36954490D01*
X70961988Y36954489D01*
X71087511Y36882018D01*
X71087512Y36882018D01*
X71087515Y36882016D01*
X71227525Y36844500D01*
X71227528Y36844500D01*
X71372472Y36844500D01*
X71372475Y36844500D01*
X71512485Y36882016D01*
X71638015Y36954491D01*
X71740509Y37056985D01*
X71812984Y37182515D01*
X71850500Y37322525D01*
X71850500Y37467475D01*
X71812984Y37607485D01*
X71785706Y37654731D01*
X71740511Y37733012D01*
X71740506Y37733018D01*
X71638017Y37835507D01*
X71638011Y37835512D01*
X71512488Y37907983D01*
X71512489Y37907983D01*
X71501006Y37911060D01*
X71372475Y37945500D01*
X71227525Y37945500D01*
X71098993Y37911060D01*
X71087511Y37907983D01*
X70961988Y37835512D01*
X70961982Y37835507D01*
X70859493Y37733018D01*
X70859488Y37733012D01*
X70787017Y37607489D01*
X70787016Y37607485D01*
X70749500Y37467475D01*
X29688437Y37467475D01*
X29664431Y37514589D01*
X29562614Y37654728D01*
X29440128Y37777214D01*
X29299988Y37879032D01*
X29145645Y37957673D01*
X28980901Y38011202D01*
X28980899Y38011203D01*
X28980898Y38011203D01*
X28849471Y38032019D01*
X28809811Y38038300D01*
X28636589Y38038300D01*
X28596928Y38032019D01*
X28465502Y38011203D01*
X28300752Y37957672D01*
X28146411Y37879032D01*
X28086512Y37835512D01*
X28006272Y37777214D01*
X28006270Y37777212D01*
X28006269Y37777212D01*
X27883788Y37654731D01*
X27883788Y37654730D01*
X27883786Y37654728D01*
X27849465Y37607489D01*
X27781968Y37514589D01*
X27703328Y37360248D01*
X27649797Y37195498D01*
X27627860Y37056989D01*
X27622700Y37024411D01*
X23590500Y37024411D01*
X23590500Y39564411D01*
X27622700Y39564411D01*
X27622700Y39391189D01*
X27649798Y39220099D01*
X27703327Y39055355D01*
X27781968Y38901012D01*
X27883786Y38760872D01*
X28006272Y38638386D01*
X28146412Y38536568D01*
X28300755Y38457927D01*
X28465499Y38404398D01*
X28636589Y38377300D01*
X28636590Y38377300D01*
X28809810Y38377300D01*
X28809811Y38377300D01*
X28980901Y38404398D01*
X29145645Y38457927D01*
X29299988Y38536568D01*
X29440128Y38638386D01*
X29562614Y38760872D01*
X29664432Y38901012D01*
X29743073Y39055355D01*
X29796602Y39220099D01*
X29823700Y39391189D01*
X29823700Y39564411D01*
X29796602Y39735501D01*
X29743073Y39900245D01*
X29664432Y40054588D01*
X29562614Y40194728D01*
X29440128Y40317214D01*
X29299988Y40419032D01*
X29145645Y40497673D01*
X28980901Y40551202D01*
X28980899Y40551203D01*
X28980898Y40551203D01*
X28849471Y40572019D01*
X28809811Y40578300D01*
X28636589Y40578300D01*
X28596928Y40572019D01*
X28465502Y40551203D01*
X28300752Y40497672D01*
X28146411Y40419032D01*
X28066456Y40360941D01*
X28006272Y40317214D01*
X28006270Y40317212D01*
X28006269Y40317212D01*
X27883788Y40194731D01*
X27883788Y40194730D01*
X27883786Y40194728D01*
X27840059Y40134544D01*
X27781968Y40054589D01*
X27703328Y39900248D01*
X27649797Y39735498D01*
X27622700Y39564411D01*
X23590500Y39564411D01*
X23590500Y41417667D01*
X23610185Y41484706D01*
X23662989Y41530461D01*
X23732147Y41540405D01*
X23783393Y41520768D01*
X23786319Y41518813D01*
X23786328Y41518808D01*
X23968306Y41443431D01*
X23968318Y41443428D01*
X24161504Y41405001D01*
X24161508Y41405000D01*
X24360000Y41405000D01*
X24360000Y42155000D01*
X24860000Y42155000D01*
X24860000Y41405000D01*
X25058492Y41405000D01*
X25058495Y41405001D01*
X25251681Y41443428D01*
X25251693Y41443431D01*
X25433671Y41518808D01*
X25433684Y41518815D01*
X25597462Y41628249D01*
X25597466Y41628252D01*
X25736748Y41767534D01*
X25736751Y41767538D01*
X25846185Y41931316D01*
X25846192Y41931329D01*
X25921569Y42113308D01*
X25921569Y42113310D01*
X25929862Y42155000D01*
X25009728Y42155000D01*
X25101614Y42193060D01*
X25171940Y42263386D01*
X25210000Y42355272D01*
X25210000Y42454728D01*
X25171940Y42546614D01*
X25101614Y42616940D01*
X25009728Y42655000D01*
X25929862Y42655000D01*
X27090138Y42655000D01*
X28010272Y42655000D01*
X27918386Y42616940D01*
X27848060Y42546614D01*
X27810000Y42454728D01*
X27810000Y42355272D01*
X27848060Y42263386D01*
X27918386Y42193060D01*
X28010272Y42155000D01*
X27090138Y42155000D01*
X27098430Y42113310D01*
X27098430Y42113308D01*
X27173807Y41931329D01*
X27173814Y41931316D01*
X27283248Y41767538D01*
X27283251Y41767534D01*
X27422533Y41628252D01*
X27422537Y41628249D01*
X27586315Y41518815D01*
X27586328Y41518808D01*
X27768306Y41443431D01*
X27768318Y41443428D01*
X27961504Y41405001D01*
X27961508Y41405000D01*
X28160000Y41405000D01*
X28160000Y42155000D01*
X28660000Y42155000D01*
X28660000Y41405000D01*
X28858492Y41405000D01*
X28858495Y41405001D01*
X29051681Y41443428D01*
X29051693Y41443431D01*
X29089418Y41459057D01*
X55219500Y41459057D01*
X55219500Y41300944D01*
X55260423Y41148217D01*
X55260426Y41148210D01*
X55339475Y41011291D01*
X55339479Y41011286D01*
X55339480Y41011284D01*
X55451284Y40899480D01*
X55451286Y40899479D01*
X55451290Y40899476D01*
X55588209Y40820427D01*
X55588216Y40820423D01*
X55740943Y40779500D01*
X55740945Y40779500D01*
X55899055Y40779500D01*
X55899057Y40779500D01*
X56051784Y40820423D01*
X56188716Y40899480D01*
X56300520Y41011284D01*
X56379577Y41148216D01*
X56420500Y41300943D01*
X56420500Y41459057D01*
X56379577Y41611784D01*
X56370069Y41628252D01*
X56300524Y41748710D01*
X56300518Y41748718D01*
X56188717Y41860519D01*
X56188709Y41860525D01*
X56051790Y41939574D01*
X56051786Y41939576D01*
X56051784Y41939577D01*
X55899057Y41980500D01*
X55740943Y41980500D01*
X55588216Y41939577D01*
X55588209Y41939574D01*
X55451290Y41860525D01*
X55451282Y41860519D01*
X55339481Y41748718D01*
X55339475Y41748710D01*
X55260426Y41611791D01*
X55260423Y41611784D01*
X55219500Y41459057D01*
X29089418Y41459057D01*
X29233671Y41518808D01*
X29233684Y41518815D01*
X29310716Y41570286D01*
X29397462Y41628249D01*
X29397466Y41628252D01*
X29536748Y41767534D01*
X29536751Y41767538D01*
X29646185Y41931316D01*
X29646192Y41931329D01*
X29721569Y42113308D01*
X29721569Y42113310D01*
X29729862Y42155000D01*
X28809728Y42155000D01*
X28901614Y42193060D01*
X28971940Y42263386D01*
X29010000Y42355272D01*
X29010000Y42454728D01*
X28971940Y42546614D01*
X28901614Y42616940D01*
X28809728Y42655000D01*
X29729862Y42655000D01*
X29721569Y42696691D01*
X29721569Y42696693D01*
X29654056Y42859686D01*
X29654036Y42859732D01*
X29646187Y42878681D01*
X29646185Y42878685D01*
X29632573Y42899057D01*
X30499496Y42899057D01*
X30499496Y42740943D01*
X30532723Y42616940D01*
X30540419Y42588217D01*
X30540422Y42588210D01*
X30619471Y42451291D01*
X30619475Y42451286D01*
X30619476Y42451284D01*
X30731280Y42339480D01*
X30731282Y42339479D01*
X30731286Y42339476D01*
X30831445Y42281650D01*
X30868212Y42260423D01*
X31020939Y42219500D01*
X31020941Y42219500D01*
X31179051Y42219500D01*
X31179053Y42219500D01*
X31331780Y42260423D01*
X31427998Y42315975D01*
X31495899Y42332447D01*
X31551997Y42315975D01*
X31648216Y42260423D01*
X31800943Y42219500D01*
X31800945Y42219500D01*
X31959055Y42219500D01*
X31959057Y42219500D01*
X32111784Y42260423D01*
X32248716Y42339480D01*
X32360520Y42451284D01*
X32439577Y42588216D01*
X32480500Y42740943D01*
X32480500Y42899057D01*
X32439577Y43051784D01*
X32426173Y43075000D01*
X32360524Y43188710D01*
X32360518Y43188718D01*
X32248717Y43300519D01*
X32248709Y43300525D01*
X32111790Y43379574D01*
X32111786Y43379576D01*
X32111784Y43379577D01*
X31959057Y43420500D01*
X31800943Y43420500D01*
X31648216Y43379577D01*
X31648215Y43379577D01*
X31551997Y43324026D01*
X31484097Y43307555D01*
X31427999Y43324026D01*
X31331780Y43379577D01*
X31284170Y43392334D01*
X31179053Y43420500D01*
X31020939Y43420500D01*
X30868212Y43379577D01*
X30868205Y43379574D01*
X30731286Y43300525D01*
X30731278Y43300519D01*
X30619477Y43188718D01*
X30619471Y43188710D01*
X30540422Y43051791D01*
X30540419Y43051784D01*
X30499496Y42899057D01*
X29632573Y42899057D01*
X29536751Y43042463D01*
X29536748Y43042467D01*
X29397466Y43181749D01*
X29397462Y43181752D01*
X29233684Y43291186D01*
X29233671Y43291193D01*
X29051693Y43366570D01*
X29051681Y43366573D01*
X28858495Y43405000D01*
X28660000Y43405000D01*
X28660000Y42655000D01*
X28160000Y42655000D01*
X28160000Y43405000D01*
X27961504Y43405000D01*
X27768318Y43366573D01*
X27768306Y43366570D01*
X27586328Y43291193D01*
X27586315Y43291186D01*
X27422537Y43181752D01*
X27422533Y43181749D01*
X27283251Y43042467D01*
X27283248Y43042463D01*
X27173814Y42878685D01*
X27173807Y42878672D01*
X27098430Y42696693D01*
X27098430Y42696691D01*
X27090138Y42655000D01*
X25929862Y42655000D01*
X25921569Y42696691D01*
X25921569Y42696693D01*
X25846192Y42878672D01*
X25846185Y42878685D01*
X25736751Y43042463D01*
X25736748Y43042467D01*
X25597466Y43181749D01*
X25597462Y43181752D01*
X25433684Y43291186D01*
X25433671Y43291193D01*
X25251693Y43366570D01*
X25251681Y43366573D01*
X25058495Y43405000D01*
X24860000Y43405000D01*
X24860000Y42655000D01*
X24360000Y42655000D01*
X24360000Y43405000D01*
X24161504Y43405000D01*
X23968318Y43366573D01*
X23968306Y43366570D01*
X23786328Y43291193D01*
X23786314Y43291185D01*
X23783384Y43289227D01*
X23781615Y43288674D01*
X23780947Y43288316D01*
X23780879Y43288443D01*
X23716705Y43268354D01*
X23649326Y43286843D01*
X23602640Y43338825D01*
X23590500Y43392334D01*
X23590500Y44472845D01*
X34140000Y44472845D01*
X34140000Y43825000D01*
X35056988Y43825000D01*
X35024075Y43767993D01*
X34990000Y43640826D01*
X34990000Y43509174D01*
X35024075Y43382007D01*
X35056988Y43325000D01*
X34140000Y43325000D01*
X34140000Y42677156D01*
X34146401Y42617628D01*
X34146403Y42617621D01*
X34196645Y42482914D01*
X34196649Y42482907D01*
X34282809Y42367813D01*
X34282812Y42367810D01*
X34397906Y42281650D01*
X34397913Y42281646D01*
X34532620Y42231404D01*
X34532627Y42231402D01*
X34592155Y42225001D01*
X34592172Y42225000D01*
X35240000Y42225000D01*
X35240000Y43141988D01*
X35297007Y43109075D01*
X35424174Y43075000D01*
X35555826Y43075000D01*
X35682993Y43109075D01*
X35740000Y43141988D01*
X35740000Y42225000D01*
X36387828Y42225000D01*
X36387844Y42225001D01*
X36447372Y42231402D01*
X36447379Y42231404D01*
X36582086Y42281646D01*
X36582093Y42281650D01*
X36697187Y42367810D01*
X36697190Y42367813D01*
X36775541Y42472475D01*
X63619500Y42472475D01*
X63619500Y42327525D01*
X63648446Y42219500D01*
X63657017Y42187512D01*
X63729488Y42061989D01*
X63729490Y42061987D01*
X63729491Y42061985D01*
X63831985Y41959491D01*
X63831986Y41959490D01*
X63831988Y41959489D01*
X63957511Y41887018D01*
X63957512Y41887018D01*
X63957515Y41887016D01*
X64097525Y41849500D01*
X64097528Y41849500D01*
X64242472Y41849500D01*
X64242475Y41849500D01*
X64382485Y41887016D01*
X64508015Y41959491D01*
X64610509Y42061985D01*
X64682984Y42187515D01*
X64720500Y42327525D01*
X64720500Y42472475D01*
X64682984Y42612485D01*
X64645636Y42677173D01*
X64610511Y42738012D01*
X64610506Y42738018D01*
X64508017Y42840507D01*
X64508011Y42840512D01*
X64382488Y42912983D01*
X64382489Y42912983D01*
X64371006Y42916060D01*
X64242475Y42950500D01*
X64097525Y42950500D01*
X63968993Y42916060D01*
X63957511Y42912983D01*
X63831988Y42840512D01*
X63831982Y42840507D01*
X63729493Y42738018D01*
X63729488Y42738012D01*
X63657017Y42612489D01*
X63657016Y42612485D01*
X63619500Y42472475D01*
X36775541Y42472475D01*
X36783350Y42482907D01*
X36783355Y42482916D01*
X36798652Y42523930D01*
X36798654Y42523936D01*
X36833597Y42617624D01*
X36833598Y42617628D01*
X36839999Y42677156D01*
X36840000Y42677173D01*
X36840000Y43325000D01*
X35923012Y43325000D01*
X35955925Y43382007D01*
X35990000Y43509174D01*
X35990000Y43640826D01*
X35955925Y43767993D01*
X35928830Y43814923D01*
X47515975Y43814923D01*
X47621236Y43771322D01*
X47621240Y43771321D01*
X47766126Y43742501D01*
X47766129Y43742500D01*
X47913871Y43742500D01*
X47913873Y43742501D01*
X48058760Y43771321D01*
X48058775Y43771325D01*
X48164024Y43814922D01*
X48164024Y43814923D01*
X48915975Y43814923D01*
X49021236Y43771322D01*
X49021240Y43771321D01*
X49166126Y43742501D01*
X49166129Y43742500D01*
X49313871Y43742500D01*
X49313873Y43742501D01*
X49458760Y43771321D01*
X49458775Y43771325D01*
X49564024Y43814922D01*
X49564024Y43814923D01*
X49240001Y44138946D01*
X49240000Y44138946D01*
X48915975Y43814923D01*
X48164024Y43814923D01*
X47840001Y44138946D01*
X47840000Y44138946D01*
X47515975Y43814923D01*
X35928830Y43814923D01*
X35923012Y43825000D01*
X36840000Y43825000D01*
X36840000Y44472828D01*
X36839999Y44472845D01*
X36833598Y44532373D01*
X36833596Y44532383D01*
X36820918Y44566374D01*
X47090000Y44566374D01*
X47090000Y44418627D01*
X47118820Y44273741D01*
X47118822Y44273733D01*
X47162421Y44168476D01*
X47486446Y44492500D01*
X47486446Y44492501D01*
X47456610Y44522337D01*
X47690000Y44522337D01*
X47690000Y44462663D01*
X47712836Y44407532D01*
X47755032Y44365336D01*
X47810163Y44342500D01*
X47869837Y44342500D01*
X47924968Y44365336D01*
X47967164Y44407532D01*
X47990000Y44462663D01*
X47990000Y44492501D01*
X48193554Y44492501D01*
X48193554Y44492499D01*
X48517929Y44168124D01*
X48562069Y44168124D01*
X48886446Y44492500D01*
X48856609Y44522337D01*
X49090000Y44522337D01*
X49090000Y44462663D01*
X49112836Y44407532D01*
X49155032Y44365336D01*
X49210163Y44342500D01*
X49269837Y44342500D01*
X49324968Y44365336D01*
X49367164Y44407532D01*
X49390000Y44462663D01*
X49390000Y44492501D01*
X49593554Y44492501D01*
X49593554Y44492499D01*
X49917577Y44168476D01*
X49917578Y44168476D01*
X49961175Y44273725D01*
X49961179Y44273740D01*
X49989999Y44418627D01*
X49990000Y44418629D01*
X49990000Y44566372D01*
X49989999Y44566374D01*
X49961179Y44711260D01*
X49961178Y44711264D01*
X49917577Y44816525D01*
X49593554Y44492501D01*
X49390000Y44492501D01*
X49390000Y44522337D01*
X49367164Y44577468D01*
X49324968Y44619664D01*
X49269837Y44642500D01*
X49210163Y44642500D01*
X49155032Y44619664D01*
X49112836Y44577468D01*
X49090000Y44522337D01*
X48856609Y44522337D01*
X48562068Y44816878D01*
X48517930Y44816878D01*
X48193554Y44492501D01*
X47990000Y44492501D01*
X47990000Y44522337D01*
X47967164Y44577468D01*
X47924968Y44619664D01*
X47869837Y44642500D01*
X47810163Y44642500D01*
X47755032Y44619664D01*
X47712836Y44577468D01*
X47690000Y44522337D01*
X47456610Y44522337D01*
X47162421Y44816526D01*
X47162420Y44816526D01*
X47118823Y44711272D01*
X47118820Y44711260D01*
X47090000Y44566374D01*
X36820918Y44566374D01*
X36783354Y44667087D01*
X36783350Y44667094D01*
X36697190Y44782188D01*
X36697187Y44782191D01*
X36582093Y44868351D01*
X36582086Y44868355D01*
X36447379Y44918597D01*
X36447372Y44918599D01*
X36387844Y44925000D01*
X36191087Y44925000D01*
X36124048Y44944685D01*
X36078293Y44997489D01*
X36068349Y45066647D01*
X36080156Y45092500D01*
X47593554Y45092500D01*
X47840000Y44846054D01*
X48086446Y45092500D01*
X48993554Y45092500D01*
X49240000Y44846054D01*
X49486446Y45092500D01*
X49240000Y45338946D01*
X48993554Y45092500D01*
X48086446Y45092500D01*
X47840000Y45338946D01*
X47593554Y45092500D01*
X36080156Y45092500D01*
X36097374Y45130203D01*
X36117910Y45149106D01*
X36118007Y45149178D01*
X36239501Y45237447D01*
X36367553Y45365499D01*
X36473996Y45512006D01*
X36556211Y45673361D01*
X36586432Y45766374D01*
X47090000Y45766374D01*
X47090000Y45618627D01*
X47118820Y45473741D01*
X47118822Y45473733D01*
X47162421Y45368476D01*
X47486446Y45692500D01*
X47486446Y45692501D01*
X47456610Y45722337D01*
X47690000Y45722337D01*
X47690000Y45662663D01*
X47712836Y45607532D01*
X47755032Y45565336D01*
X47810163Y45542500D01*
X47869837Y45542500D01*
X47924968Y45565336D01*
X47967164Y45607532D01*
X47990000Y45662663D01*
X47990000Y45692501D01*
X48193554Y45692501D01*
X48193554Y45692499D01*
X48517929Y45368124D01*
X48562069Y45368124D01*
X48886446Y45692500D01*
X48856609Y45722337D01*
X49090000Y45722337D01*
X49090000Y45662663D01*
X49112836Y45607532D01*
X49155032Y45565336D01*
X49210163Y45542500D01*
X49269837Y45542500D01*
X49324968Y45565336D01*
X49367164Y45607532D01*
X49390000Y45662663D01*
X49390000Y45692501D01*
X49593554Y45692501D01*
X49593554Y45692499D01*
X49917577Y45368476D01*
X49917578Y45368476D01*
X49961175Y45473725D01*
X49961179Y45473740D01*
X49989999Y45618627D01*
X49990000Y45618629D01*
X49990000Y45766372D01*
X49989999Y45766374D01*
X49961179Y45911260D01*
X49961178Y45911264D01*
X49917577Y46016525D01*
X49593554Y45692501D01*
X49390000Y45692501D01*
X49390000Y45722337D01*
X49367164Y45777468D01*
X49324968Y45819664D01*
X49269837Y45842500D01*
X49210163Y45842500D01*
X49155032Y45819664D01*
X49112836Y45777468D01*
X49090000Y45722337D01*
X48856609Y45722337D01*
X48562068Y46016878D01*
X48517930Y46016878D01*
X48193554Y45692501D01*
X47990000Y45692501D01*
X47990000Y45722337D01*
X47967164Y45777468D01*
X47924968Y45819664D01*
X47869837Y45842500D01*
X47810163Y45842500D01*
X47755032Y45819664D01*
X47712836Y45777468D01*
X47690000Y45722337D01*
X47456610Y45722337D01*
X47162421Y46016526D01*
X47162420Y46016526D01*
X47118823Y45911272D01*
X47118820Y45911260D01*
X47090000Y45766374D01*
X36586432Y45766374D01*
X36612171Y45845591D01*
X36622574Y45911272D01*
X36640500Y46024449D01*
X36640500Y46205552D01*
X36626729Y46292500D01*
X47593554Y46292500D01*
X47840000Y46046054D01*
X48086446Y46292500D01*
X48993554Y46292500D01*
X49240000Y46046054D01*
X49486446Y46292500D01*
X49240000Y46538946D01*
X48993554Y46292500D01*
X48086446Y46292500D01*
X47840000Y46538946D01*
X47593554Y46292500D01*
X36626729Y46292500D01*
X36621666Y46324464D01*
X36615141Y46365656D01*
X36612171Y46384409D01*
X36556211Y46556639D01*
X36556211Y46556640D01*
X36496548Y46673733D01*
X36473996Y46717994D01*
X36439600Y46765336D01*
X36367558Y46864495D01*
X36367554Y46864500D01*
X36265680Y46966374D01*
X47090000Y46966374D01*
X47090000Y46818627D01*
X47118820Y46673741D01*
X47118822Y46673733D01*
X47162421Y46568476D01*
X47486446Y46892500D01*
X47486446Y46892501D01*
X47456610Y46922337D01*
X47690000Y46922337D01*
X47690000Y46862663D01*
X47712836Y46807532D01*
X47755032Y46765336D01*
X47810163Y46742500D01*
X47869837Y46742500D01*
X47924968Y46765336D01*
X47967164Y46807532D01*
X47990000Y46862663D01*
X47990000Y46892501D01*
X48193554Y46892501D01*
X48193554Y46892499D01*
X48517929Y46568124D01*
X48562069Y46568124D01*
X48886446Y46892500D01*
X48856609Y46922337D01*
X49090000Y46922337D01*
X49090000Y46862663D01*
X49112836Y46807532D01*
X49155032Y46765336D01*
X49210163Y46742500D01*
X49269837Y46742500D01*
X49324968Y46765336D01*
X49367164Y46807532D01*
X49390000Y46862663D01*
X49390000Y46892501D01*
X49593554Y46892501D01*
X49593554Y46892499D01*
X49917577Y46568476D01*
X49917578Y46568476D01*
X49961175Y46673725D01*
X49961179Y46673740D01*
X49989999Y46818627D01*
X49990000Y46818629D01*
X49990000Y46966365D01*
X49989998Y46966381D01*
X49988786Y46972475D01*
X51649500Y46972475D01*
X51649500Y46827525D01*
X51675101Y46731983D01*
X51687017Y46687512D01*
X51759488Y46561989D01*
X51759490Y46561987D01*
X51759491Y46561985D01*
X51861985Y46459491D01*
X51939368Y46414814D01*
X51958929Y46403520D01*
X52007145Y46352953D01*
X52020367Y46284346D01*
X51994399Y46219481D01*
X51967734Y46196369D01*
X51968434Y46195457D01*
X51961982Y46190507D01*
X51859493Y46088018D01*
X51859488Y46088012D01*
X51787017Y45962489D01*
X51787016Y45962485D01*
X51749500Y45822475D01*
X51749500Y45677525D01*
X51785680Y45542500D01*
X51787017Y45537512D01*
X51859488Y45411989D01*
X51859490Y45411987D01*
X51859491Y45411985D01*
X51961985Y45309491D01*
X51961986Y45309490D01*
X51961988Y45309489D01*
X52087511Y45237018D01*
X52087512Y45237018D01*
X52087515Y45237016D01*
X52227525Y45199500D01*
X52227528Y45199500D01*
X52372472Y45199500D01*
X52372475Y45199500D01*
X52512485Y45237016D01*
X52638015Y45309491D01*
X52740509Y45411985D01*
X52812984Y45537515D01*
X52850500Y45677525D01*
X52850500Y45822475D01*
X52812984Y45962485D01*
X52795241Y45993216D01*
X52740511Y46088012D01*
X52740506Y46088018D01*
X52638017Y46190507D01*
X52638015Y46190509D01*
X52541069Y46246481D01*
X52492854Y46297049D01*
X52479632Y46365656D01*
X52505600Y46430520D01*
X52532268Y46453628D01*
X52531566Y46454543D01*
X52538007Y46459487D01*
X52538015Y46459491D01*
X52640509Y46561985D01*
X52712984Y46687515D01*
X52750500Y46827525D01*
X52750500Y46972475D01*
X52712984Y47112485D01*
X52695670Y47142473D01*
X52695669Y47142475D01*
X70499500Y47142475D01*
X70499500Y46997525D01*
X70535146Y46864495D01*
X70537017Y46857512D01*
X70609488Y46731989D01*
X70609490Y46731987D01*
X70609491Y46731985D01*
X70711985Y46629491D01*
X70711986Y46629490D01*
X70711988Y46629489D01*
X70837511Y46557018D01*
X70837512Y46557018D01*
X70837515Y46557016D01*
X70977525Y46519500D01*
X70977528Y46519500D01*
X71122472Y46519500D01*
X71122475Y46519500D01*
X71262485Y46557016D01*
X71388015Y46629491D01*
X71490509Y46731985D01*
X71562984Y46857515D01*
X71600500Y46997525D01*
X71600500Y47142475D01*
X71562984Y47282485D01*
X71490509Y47408015D01*
X71388015Y47510509D01*
X71388013Y47510510D01*
X71388011Y47510512D01*
X71262488Y47582983D01*
X71262489Y47582983D01*
X71251006Y47586060D01*
X71122475Y47620500D01*
X70977525Y47620500D01*
X70848993Y47586060D01*
X70837511Y47582983D01*
X70711988Y47510512D01*
X70711982Y47510507D01*
X70609493Y47408018D01*
X70609488Y47408012D01*
X70537017Y47282489D01*
X70537016Y47282485D01*
X70499500Y47142475D01*
X52695669Y47142475D01*
X52640511Y47238012D01*
X52640506Y47238018D01*
X52538017Y47340507D01*
X52538011Y47340512D01*
X52412488Y47412983D01*
X52412489Y47412983D01*
X52401006Y47416060D01*
X52272475Y47450500D01*
X52127525Y47450500D01*
X51998993Y47416060D01*
X51987511Y47412983D01*
X51861988Y47340512D01*
X51861982Y47340507D01*
X51759493Y47238018D01*
X51759488Y47238012D01*
X51687017Y47112489D01*
X51687016Y47112485D01*
X51649500Y46972475D01*
X49988786Y46972475D01*
X49961179Y47111260D01*
X49961178Y47111264D01*
X49917577Y47216525D01*
X49593554Y46892501D01*
X49390000Y46892501D01*
X49390000Y46922337D01*
X49367164Y46977468D01*
X49324968Y47019664D01*
X49269837Y47042500D01*
X49210163Y47042500D01*
X49155032Y47019664D01*
X49112836Y46977468D01*
X49090000Y46922337D01*
X48856609Y46922337D01*
X48562068Y47216878D01*
X48517930Y47216878D01*
X48193554Y46892501D01*
X47990000Y46892501D01*
X47990000Y46922337D01*
X47967164Y46977468D01*
X47924968Y47019664D01*
X47869837Y47042500D01*
X47810163Y47042500D01*
X47755032Y47019664D01*
X47712836Y46977468D01*
X47690000Y46922337D01*
X47456610Y46922337D01*
X47162421Y47216526D01*
X47162420Y47216526D01*
X47118823Y47111272D01*
X47118820Y47111260D01*
X47090000Y46966374D01*
X36265680Y46966374D01*
X36239499Y46992555D01*
X36239494Y46992559D01*
X36092997Y47098994D01*
X36092996Y47098995D01*
X36092994Y47098996D01*
X36041300Y47125336D01*
X35931639Y47181212D01*
X35931636Y47181213D01*
X35759410Y47237171D01*
X35580551Y47265500D01*
X35580546Y47265500D01*
X35399454Y47265500D01*
X35399449Y47265500D01*
X35220589Y47237171D01*
X35048363Y47181213D01*
X35048360Y47181212D01*
X34887002Y47098994D01*
X34740505Y46992559D01*
X34740500Y46992555D01*
X34612445Y46864500D01*
X34612441Y46864495D01*
X34506006Y46717998D01*
X34423788Y46556640D01*
X34423787Y46556637D01*
X34367829Y46384411D01*
X34339500Y46205552D01*
X34339500Y46024449D01*
X34367829Y45845590D01*
X34423787Y45673364D01*
X34423788Y45673361D01*
X34478831Y45565336D01*
X34493006Y45537515D01*
X34506006Y45512003D01*
X34612441Y45365506D01*
X34612445Y45365501D01*
X34740504Y45237442D01*
X34861798Y45149318D01*
X34904464Y45093989D01*
X34910443Y45024375D01*
X34877838Y44962580D01*
X34816999Y44928223D01*
X34788913Y44925000D01*
X34592155Y44925000D01*
X34532627Y44918599D01*
X34532620Y44918597D01*
X34397913Y44868355D01*
X34397906Y44868351D01*
X34282812Y44782191D01*
X34282809Y44782188D01*
X34196649Y44667094D01*
X34196645Y44667087D01*
X34146403Y44532380D01*
X34146401Y44532373D01*
X34140000Y44472845D01*
X23590500Y44472845D01*
X23590500Y47329057D01*
X29249500Y47329057D01*
X29249500Y47170943D01*
X29257129Y47142473D01*
X29290423Y47018217D01*
X29290426Y47018210D01*
X29369475Y46881291D01*
X29369481Y46881283D01*
X29425583Y46825181D01*
X29459068Y46763858D01*
X29454084Y46694166D01*
X29425583Y46649819D01*
X29369481Y46593718D01*
X29369475Y46593710D01*
X29290426Y46456791D01*
X29290423Y46456784D01*
X29249500Y46304057D01*
X29249500Y46145943D01*
X29284178Y46016525D01*
X29290423Y45993217D01*
X29290426Y45993210D01*
X29369475Y45856291D01*
X29369479Y45856286D01*
X29369480Y45856284D01*
X29481284Y45744480D01*
X29481286Y45744479D01*
X29481290Y45744476D01*
X29604456Y45673367D01*
X29618216Y45665423D01*
X29770943Y45624500D01*
X29770945Y45624500D01*
X29929055Y45624500D01*
X29929057Y45624500D01*
X30081784Y45665423D01*
X30218716Y45744480D01*
X30330520Y45856284D01*
X30409577Y45993216D01*
X30450500Y46145943D01*
X30450500Y46304057D01*
X30409577Y46456784D01*
X30408012Y46459494D01*
X30330524Y46593710D01*
X30330518Y46593718D01*
X30274417Y46649819D01*
X30240932Y46711142D01*
X30245916Y46780834D01*
X30274417Y46825181D01*
X30276764Y46827528D01*
X30330520Y46881284D01*
X30409577Y47018216D01*
X30450500Y47170943D01*
X30450500Y47329057D01*
X30409577Y47481784D01*
X30392991Y47510512D01*
X30358600Y47570080D01*
X47515974Y47570080D01*
X47515974Y47570079D01*
X47840000Y47246054D01*
X47840001Y47246054D01*
X48164024Y47570079D01*
X48164022Y47570080D01*
X48915974Y47570080D01*
X48915974Y47570079D01*
X49240000Y47246054D01*
X49240001Y47246054D01*
X49564024Y47570079D01*
X49458767Y47613678D01*
X49458759Y47613680D01*
X49313872Y47642500D01*
X49166128Y47642500D01*
X49021240Y47613680D01*
X49021228Y47613677D01*
X48915974Y47570080D01*
X48164022Y47570080D01*
X48058767Y47613678D01*
X48058759Y47613680D01*
X47913872Y47642500D01*
X47766128Y47642500D01*
X47621240Y47613680D01*
X47621228Y47613677D01*
X47515974Y47570080D01*
X30358600Y47570080D01*
X30330524Y47618710D01*
X30330518Y47618718D01*
X30218717Y47730519D01*
X30218709Y47730525D01*
X30081790Y47809574D01*
X30081786Y47809576D01*
X30081784Y47809577D01*
X29929057Y47850500D01*
X29770943Y47850500D01*
X29618216Y47809577D01*
X29618209Y47809574D01*
X29481290Y47730525D01*
X29481282Y47730519D01*
X29369481Y47618718D01*
X29369475Y47618710D01*
X29290426Y47481791D01*
X29290423Y47481784D01*
X29249500Y47329057D01*
X23590500Y47329057D01*
X23590500Y50057667D01*
X23610185Y50124706D01*
X23662989Y50170461D01*
X23732147Y50180405D01*
X23783393Y50160768D01*
X23786319Y50158813D01*
X23786328Y50158808D01*
X23968306Y50083431D01*
X23968318Y50083428D01*
X24161504Y50045001D01*
X24161508Y50045000D01*
X24360000Y50045000D01*
X24360000Y50795000D01*
X24860000Y50795000D01*
X24860000Y50045000D01*
X25058492Y50045000D01*
X25058495Y50045001D01*
X25251681Y50083428D01*
X25251693Y50083431D01*
X25433671Y50158808D01*
X25433684Y50158815D01*
X25597462Y50268249D01*
X25597466Y50268252D01*
X25736748Y50407534D01*
X25736751Y50407538D01*
X25846185Y50571316D01*
X25846192Y50571329D01*
X25921569Y50753308D01*
X25921569Y50753310D01*
X25929862Y50795000D01*
X25009728Y50795000D01*
X25101614Y50833060D01*
X25171940Y50903386D01*
X25210000Y50995272D01*
X25210000Y51094728D01*
X25171940Y51186614D01*
X25101614Y51256940D01*
X25009728Y51295000D01*
X25929862Y51295000D01*
X27090138Y51295000D01*
X28010272Y51295000D01*
X27918386Y51256940D01*
X27848060Y51186614D01*
X27810000Y51094728D01*
X27810000Y50995272D01*
X27848060Y50903386D01*
X27918386Y50833060D01*
X28010272Y50795000D01*
X27090138Y50795000D01*
X27098430Y50753310D01*
X27098430Y50753308D01*
X27173807Y50571329D01*
X27173814Y50571316D01*
X27283248Y50407538D01*
X27283251Y50407534D01*
X27422533Y50268252D01*
X27422537Y50268249D01*
X27586315Y50158815D01*
X27586328Y50158808D01*
X27768306Y50083431D01*
X27768318Y50083428D01*
X27961504Y50045001D01*
X27961508Y50045000D01*
X28160000Y50045000D01*
X28160000Y50795000D01*
X28660000Y50795000D01*
X28660000Y50045000D01*
X28858492Y50045000D01*
X28858495Y50045001D01*
X29051681Y50083428D01*
X29051693Y50083431D01*
X29233671Y50158808D01*
X29233684Y50158815D01*
X29397462Y50268249D01*
X29397466Y50268252D01*
X29536748Y50407534D01*
X29536751Y50407538D01*
X29646185Y50571316D01*
X29646192Y50571329D01*
X29721569Y50753308D01*
X29721569Y50753310D01*
X29729862Y50795000D01*
X28809728Y50795000D01*
X28901614Y50833060D01*
X28971940Y50903386D01*
X29010000Y50995272D01*
X29010000Y51094728D01*
X28971940Y51186614D01*
X28901614Y51256940D01*
X28809728Y51295000D01*
X29729862Y51295000D01*
X29721569Y51336691D01*
X29721569Y51336693D01*
X29646192Y51518672D01*
X29646185Y51518685D01*
X29536751Y51682463D01*
X29536748Y51682467D01*
X29397466Y51821749D01*
X29397462Y51821752D01*
X29233684Y51931186D01*
X29233671Y51931193D01*
X29051693Y52006570D01*
X29051681Y52006573D01*
X29006465Y52015567D01*
X28858495Y52045000D01*
X28660000Y52045000D01*
X28660000Y51295000D01*
X28160000Y51295000D01*
X28160000Y52045000D01*
X27961504Y52045000D01*
X27768318Y52006573D01*
X27768306Y52006570D01*
X27586328Y51931193D01*
X27586315Y51931186D01*
X27422537Y51821752D01*
X27422533Y51821749D01*
X27283251Y51682467D01*
X27283248Y51682463D01*
X27173814Y51518685D01*
X27173807Y51518672D01*
X27098430Y51336693D01*
X27098430Y51336691D01*
X27090138Y51295000D01*
X25929862Y51295000D01*
X25921569Y51336691D01*
X25921569Y51336693D01*
X25846192Y51518672D01*
X25846185Y51518685D01*
X25736751Y51682463D01*
X25736748Y51682467D01*
X25597466Y51821749D01*
X25597462Y51821752D01*
X25433684Y51931186D01*
X25433671Y51931193D01*
X25251693Y52006570D01*
X25251681Y52006573D01*
X25058495Y52045000D01*
X24860000Y52045000D01*
X24860000Y51295000D01*
X24360000Y51295000D01*
X24360000Y52045000D01*
X24161504Y52045000D01*
X23968318Y52006573D01*
X23968306Y52006570D01*
X23786328Y51931193D01*
X23786314Y51931185D01*
X23783384Y51929227D01*
X23781615Y51928674D01*
X23780947Y51928316D01*
X23780879Y51928443D01*
X23716705Y51908354D01*
X23649326Y51926843D01*
X23602640Y51978825D01*
X23590500Y52032334D01*
X23590500Y52132318D01*
X34570000Y52132318D01*
X34570000Y51927683D01*
X34602009Y51725583D01*
X34665244Y51530969D01*
X34758141Y51348650D01*
X34758147Y51348641D01*
X34790523Y51304079D01*
X34790524Y51304078D01*
X35470000Y51983554D01*
X35470000Y51977339D01*
X35497259Y51875606D01*
X35549920Y51784394D01*
X35624394Y51709920D01*
X35715606Y51657259D01*
X35817339Y51630000D01*
X35823553Y51630000D01*
X35144076Y50950526D01*
X35188650Y50918141D01*
X35370968Y50825245D01*
X35565582Y50762010D01*
X35767683Y50730000D01*
X35972317Y50730000D01*
X36174417Y50762010D01*
X36369031Y50825245D01*
X36551349Y50918141D01*
X36595921Y50950526D01*
X35916447Y51630000D01*
X35922661Y51630000D01*
X36024394Y51657259D01*
X36115606Y51709920D01*
X36190080Y51784394D01*
X36242741Y51875606D01*
X36270000Y51977339D01*
X36270000Y51983553D01*
X36949473Y51304079D01*
X36976016Y51306168D01*
X37044393Y51291804D01*
X37073427Y51270231D01*
X37153072Y51190586D01*
X37293212Y51088768D01*
X37447555Y51010127D01*
X37612299Y50956598D01*
X37783389Y50929500D01*
X37783390Y50929500D01*
X37956610Y50929500D01*
X37956611Y50929500D01*
X38127701Y50956598D01*
X38292445Y51010127D01*
X38446788Y51088768D01*
X38586928Y51190586D01*
X38709414Y51313072D01*
X38811232Y51453212D01*
X38887285Y51602475D01*
X46119500Y51602475D01*
X46119500Y51457525D01*
X46148676Y51348641D01*
X46157017Y51317512D01*
X46229488Y51191989D01*
X46229490Y51191987D01*
X46229491Y51191985D01*
X46331985Y51089491D01*
X46331986Y51089490D01*
X46331988Y51089489D01*
X46457511Y51017018D01*
X46457512Y51017018D01*
X46457515Y51017016D01*
X46597525Y50979500D01*
X46597528Y50979500D01*
X46742472Y50979500D01*
X46742475Y50979500D01*
X46882485Y51017016D01*
X47008015Y51089491D01*
X47110509Y51191985D01*
X47182984Y51317515D01*
X47220500Y51457525D01*
X47220500Y51602475D01*
X47182984Y51742485D01*
X47110509Y51868015D01*
X47008015Y51970509D01*
X47008013Y51970510D01*
X47008011Y51970512D01*
X46882488Y52042983D01*
X46882489Y52042983D01*
X46871006Y52046060D01*
X46742475Y52080500D01*
X46597525Y52080500D01*
X46468993Y52046060D01*
X46457511Y52042983D01*
X46331988Y51970512D01*
X46331982Y51970507D01*
X46229493Y51868018D01*
X46229488Y51868012D01*
X46157017Y51742489D01*
X46157016Y51742485D01*
X46119500Y51602475D01*
X38887285Y51602475D01*
X38889873Y51607555D01*
X38943402Y51772299D01*
X38970500Y51943389D01*
X38970500Y52116611D01*
X38943402Y52287701D01*
X38889873Y52452445D01*
X38811232Y52606788D01*
X38709414Y52746928D01*
X38586928Y52869414D01*
X38446788Y52971232D01*
X38327556Y53031983D01*
X38292447Y53049872D01*
X38292446Y53049873D01*
X38292445Y53049873D01*
X38127701Y53103402D01*
X38127699Y53103403D01*
X38127698Y53103403D01*
X37996271Y53124219D01*
X37956611Y53130500D01*
X37783389Y53130500D01*
X37743728Y53124219D01*
X37612302Y53103403D01*
X37447552Y53049872D01*
X37293211Y52971232D01*
X37153073Y52869415D01*
X37073428Y52789770D01*
X37012104Y52756286D01*
X36976018Y52753834D01*
X36949474Y52755924D01*
X36270000Y52076449D01*
X36270000Y52082661D01*
X36242741Y52184394D01*
X36190080Y52275606D01*
X36115606Y52350080D01*
X36024394Y52402741D01*
X35922661Y52430000D01*
X35916446Y52430000D01*
X36595922Y53109476D01*
X36595921Y53109477D01*
X36551359Y53141853D01*
X36551350Y53141859D01*
X36369031Y53234756D01*
X36174417Y53297991D01*
X35984130Y53328129D01*
X35972317Y53330000D01*
X35767683Y53330000D01*
X35565582Y53297991D01*
X35370968Y53234756D01*
X35188644Y53141857D01*
X35144077Y53109477D01*
X35144077Y53109476D01*
X35823554Y52430000D01*
X35817339Y52430000D01*
X35715606Y52402741D01*
X35624394Y52350080D01*
X35549920Y52275606D01*
X35497259Y52184394D01*
X35470000Y52082661D01*
X35470000Y52076447D01*
X34790524Y52755923D01*
X34790523Y52755923D01*
X34758143Y52711356D01*
X34665244Y52529032D01*
X34602009Y52334418D01*
X34570000Y52132318D01*
X23590500Y52132318D01*
X23590500Y53142475D01*
X27869500Y53142475D01*
X27869500Y52997525D01*
X27903828Y52869414D01*
X27907017Y52857512D01*
X27979488Y52731989D01*
X27979490Y52731987D01*
X27979491Y52731985D01*
X28081985Y52629491D01*
X28081986Y52629490D01*
X28081988Y52629489D01*
X28207511Y52557018D01*
X28207512Y52557018D01*
X28207515Y52557016D01*
X28347525Y52519500D01*
X28347528Y52519500D01*
X28492472Y52519500D01*
X28492475Y52519500D01*
X28632485Y52557016D01*
X28758015Y52629491D01*
X28860509Y52731985D01*
X28932984Y52857515D01*
X28970500Y52997525D01*
X28970500Y53142475D01*
X28932984Y53282485D01*
X28906631Y53328129D01*
X28860511Y53408012D01*
X28860506Y53408018D01*
X28826049Y53442475D01*
X41879500Y53442475D01*
X41879500Y53297525D01*
X41917016Y53157515D01*
X41917017Y53157512D01*
X41989488Y53031989D01*
X41989490Y53031987D01*
X41989491Y53031985D01*
X42091985Y52929491D01*
X42091986Y52929490D01*
X42091988Y52929489D01*
X42217511Y52857018D01*
X42217512Y52857018D01*
X42217515Y52857016D01*
X42357525Y52819500D01*
X42357528Y52819500D01*
X42502472Y52819500D01*
X42502475Y52819500D01*
X42642485Y52857016D01*
X42768015Y52929491D01*
X42870509Y53031985D01*
X42942984Y53157515D01*
X42980500Y53297525D01*
X42980500Y53442475D01*
X42942984Y53582485D01*
X42942696Y53582983D01*
X42870511Y53708012D01*
X42870506Y53708018D01*
X42768017Y53810507D01*
X42768011Y53810512D01*
X42642488Y53882983D01*
X42642489Y53882983D01*
X42631006Y53886060D01*
X42502475Y53920500D01*
X42357525Y53920500D01*
X42228993Y53886060D01*
X42217511Y53882983D01*
X42091988Y53810512D01*
X42091982Y53810507D01*
X41989493Y53708018D01*
X41989488Y53708012D01*
X41917017Y53582489D01*
X41917016Y53582485D01*
X41879500Y53442475D01*
X28826049Y53442475D01*
X28758017Y53510507D01*
X28758011Y53510512D01*
X28632488Y53582983D01*
X28632489Y53582983D01*
X28621006Y53586060D01*
X28492475Y53620500D01*
X28347525Y53620500D01*
X28218993Y53586060D01*
X28207511Y53582983D01*
X28081988Y53510512D01*
X28081982Y53510507D01*
X27979493Y53408018D01*
X27979488Y53408012D01*
X27907017Y53282489D01*
X27907016Y53282485D01*
X27869500Y53142475D01*
X23590500Y53142475D01*
X23590500Y55162475D01*
X27759500Y55162475D01*
X27759500Y55017525D01*
X27793004Y54892489D01*
X27797017Y54877512D01*
X27869488Y54751989D01*
X27869490Y54751987D01*
X27869491Y54751985D01*
X27971985Y54649491D01*
X27971986Y54649490D01*
X27971988Y54649489D01*
X28097511Y54577018D01*
X28097512Y54577018D01*
X28097515Y54577016D01*
X28237525Y54539500D01*
X28237528Y54539500D01*
X28382472Y54539500D01*
X28382475Y54539500D01*
X28522485Y54577016D01*
X28648015Y54649491D01*
X28750509Y54751985D01*
X28822984Y54877515D01*
X28860500Y55017525D01*
X28860500Y55102475D01*
X41839500Y55102475D01*
X41839500Y54957525D01*
X41856927Y54892489D01*
X41877017Y54817512D01*
X41949488Y54691989D01*
X41949490Y54691987D01*
X41949491Y54691985D01*
X42051985Y54589491D01*
X42051986Y54589490D01*
X42051988Y54589489D01*
X42177511Y54517018D01*
X42177512Y54517018D01*
X42177515Y54517016D01*
X42317525Y54479500D01*
X42317528Y54479500D01*
X42462472Y54479500D01*
X42462475Y54479500D01*
X42602485Y54517016D01*
X42728015Y54589491D01*
X42830509Y54691985D01*
X42865433Y54752475D01*
X46949500Y54752475D01*
X46949500Y54607525D01*
X46983805Y54479500D01*
X46987017Y54467512D01*
X47059488Y54341989D01*
X47059490Y54341987D01*
X47059491Y54341985D01*
X47161985Y54239491D01*
X47161986Y54239490D01*
X47161988Y54239489D01*
X47287511Y54167018D01*
X47287512Y54167018D01*
X47287515Y54167016D01*
X47427525Y54129500D01*
X47427528Y54129500D01*
X47572472Y54129500D01*
X47572475Y54129500D01*
X47712485Y54167016D01*
X47838015Y54239491D01*
X47940509Y54341985D01*
X48012984Y54467515D01*
X48050500Y54607525D01*
X48050500Y54752475D01*
X48012984Y54892485D01*
X47975431Y54957528D01*
X47940511Y55018012D01*
X47940506Y55018018D01*
X47838017Y55120507D01*
X47838011Y55120512D01*
X47712488Y55192983D01*
X47712489Y55192983D01*
X47701006Y55196060D01*
X47572475Y55230500D01*
X47427525Y55230500D01*
X47298993Y55196060D01*
X47287511Y55192983D01*
X47161988Y55120512D01*
X47161982Y55120507D01*
X47059493Y55018018D01*
X47059488Y55018012D01*
X46987017Y54892489D01*
X46987016Y54892485D01*
X46949500Y54752475D01*
X42865433Y54752475D01*
X42902984Y54817515D01*
X42940500Y54957525D01*
X42940500Y55102475D01*
X42902984Y55242485D01*
X42830509Y55368015D01*
X42728015Y55470509D01*
X42728013Y55470510D01*
X42728011Y55470512D01*
X42602488Y55542983D01*
X42602489Y55542983D01*
X42591006Y55546060D01*
X42462475Y55580500D01*
X42317525Y55580500D01*
X42188993Y55546060D01*
X42177511Y55542983D01*
X42051988Y55470512D01*
X42051982Y55470507D01*
X41949493Y55368018D01*
X41949488Y55368012D01*
X41877017Y55242489D01*
X41877016Y55242485D01*
X41839500Y55102475D01*
X28860500Y55102475D01*
X28860500Y55162475D01*
X28822984Y55302485D01*
X28785148Y55368018D01*
X28750511Y55428012D01*
X28750506Y55428018D01*
X28648017Y55530507D01*
X28648011Y55530512D01*
X28522488Y55602983D01*
X28522489Y55602983D01*
X28511006Y55606060D01*
X28382475Y55640500D01*
X28237525Y55640500D01*
X28108993Y55606060D01*
X28097511Y55602983D01*
X27971988Y55530512D01*
X27971982Y55530507D01*
X27869493Y55428018D01*
X27869488Y55428012D01*
X27797017Y55302489D01*
X27797016Y55302485D01*
X27759500Y55162475D01*
X23590500Y55162475D01*
X23590500Y57052475D01*
X41959500Y57052475D01*
X41959500Y56907525D01*
X41997016Y56767515D01*
X41997017Y56767512D01*
X42069488Y56641989D01*
X42069490Y56641987D01*
X42069491Y56641985D01*
X42171985Y56539491D01*
X42171986Y56539490D01*
X42171988Y56539489D01*
X42297511Y56467018D01*
X42297512Y56467018D01*
X42297515Y56467016D01*
X42437525Y56429500D01*
X42437528Y56429500D01*
X42582472Y56429500D01*
X42582475Y56429500D01*
X42722485Y56467016D01*
X42848015Y56539491D01*
X42950509Y56641985D01*
X43022984Y56767515D01*
X43060500Y56907525D01*
X43060500Y57052475D01*
X43022984Y57192485D01*
X43022381Y57193529D01*
X42950511Y57318012D01*
X42950506Y57318018D01*
X42848017Y57420507D01*
X42848011Y57420512D01*
X42722488Y57492983D01*
X42722489Y57492983D01*
X42711006Y57496060D01*
X42582475Y57530500D01*
X42437525Y57530500D01*
X42308993Y57496060D01*
X42297511Y57492983D01*
X42171988Y57420512D01*
X42171982Y57420507D01*
X42069493Y57318018D01*
X42069488Y57318012D01*
X41997017Y57192489D01*
X41997016Y57192485D01*
X41959500Y57052475D01*
X23590500Y57052475D01*
X23590500Y58025500D01*
X23610185Y58092539D01*
X23662989Y58138294D01*
X23714500Y58149500D01*
X27363129Y58149500D01*
X27430168Y58129815D01*
G37*
%TD.AperFunction*%
%TD*%
M02*
