%TF.GenerationSoftware,KiCad,Pcbnew,10.0.0*%
%TF.CreationDate,2026-04-06T17:13:18-04:00*%
%TF.ProjectId,SpecterShield-BE-ATDT,53706563-7465-4725-9368-69656c642d42,rev?*%
%TF.SameCoordinates,Original*%
%TF.FileFunction,Copper,L4,Bot*%
%TF.FilePolarity,Positive*%
%FSLAX46Y46*%
G04 Gerber Fmt 4.6, Leading zero omitted, Abs format (unit mm)*
G04 Created by KiCad (PCBNEW 10.0.0) date 2026-04-06 17:13:18*
%MOMM*%
%LPD*%
G01*
G04 APERTURE LIST*
%TA.AperFunction,ComponentPad*%
%ADD10C,1.600000*%
%TD*%
%TA.AperFunction,HeatsinkPad*%
%ADD11C,0.500000*%
%TD*%
%TA.AperFunction,HeatsinkPad*%
%ADD12R,1.900000X2.900000*%
%TD*%
%TA.AperFunction,ComponentPad*%
%ADD13R,1.700000X1.700000*%
%TD*%
%TA.AperFunction,ComponentPad*%
%ADD14C,1.700000*%
%TD*%
%TA.AperFunction,ComponentPad*%
%ADD15C,0.500000*%
%TD*%
%TA.AperFunction,ComponentPad*%
%ADD16O,1.700000X1.000000*%
%TD*%
%TA.AperFunction,ViaPad*%
%ADD17C,0.500000*%
%TD*%
%TA.AperFunction,ViaPad*%
%ADD18C,0.600000*%
%TD*%
%TA.AperFunction,ViaPad*%
%ADD19C,1.000000*%
%TD*%
%TA.AperFunction,Conductor*%
%ADD20C,0.200000*%
%TD*%
%TA.AperFunction,Conductor*%
%ADD21C,0.250000*%
%TD*%
G04 APERTURE END LIST*
D10*
%TO.P,J201,1,Pin_1_1*%
%TO.N,unconnected-(J201-Pin_1-Pad1)*%
X77008600Y30283000D03*
%TO.P,J201,2,Pin_2_2*%
%TO.N,unconnected-(J201-Pin_2-Pad2)_1*%
X77008600Y27743000D03*
%TO.P,J201,3,Pin_3_3*%
%TO.N,/STM32F469I-DISCO-Interface/NRST*%
X77008600Y25203000D03*
%TO.P,J201,4,Pin_4_4*%
%TO.N,+3V3*%
X77008600Y22663000D03*
%TO.P,J201,5,Pin_5_5*%
%TO.N,+5V*%
X77008600Y20123000D03*
%TO.P,J201,6,Pin_6_6*%
%TO.N,GND*%
X77008600Y17583000D03*
%TO.P,J201,7,Pin_7_7*%
X77008600Y15043000D03*
%TO.P,J201,8,Pin_8_8*%
%TO.N,PWR_VOUT*%
X77008600Y12503000D03*
%TD*%
%TO.P,J202,1,Pin_1_1*%
%TO.N,PWR_nBUTTON*%
X77008600Y7448400D03*
%TO.P,J202,2,Pin_2_2*%
%TO.N,SC_nOFF*%
X77008600Y4908400D03*
%TO.P,J202,3,Pin_3_3*%
%TO.N,SC_VCC_SEL1*%
X77008600Y2368400D03*
%TO.P,J202,4,Pin_4_4*%
%TO.N,SC_VCC_SEL2_1*%
X77008600Y-171600D03*
%TO.P,J202,5,Pin_5_5*%
%TO.N,SC_nCMDVCC*%
X77008600Y-2711600D03*
%TO.P,J202,6,Pin_6_6*%
%TO.N,SC_CLK*%
X77008600Y-5251600D03*
%TD*%
%TO.P,J203,1,Pin_1_1*%
%TO.N,SC_RST*%
X28723200Y16617800D03*
%TO.P,J203,2,Pin_2_2*%
%TO.N,BAT_MEAS*%
X28723200Y19157800D03*
%TO.P,J203,3,Pin_3_3*%
%TO.N,CHG_STATE*%
X28723200Y21697800D03*
%TO.P,J203,4,Pin_4_4*%
%TO.N,PWR_HOLD2*%
X28723200Y24237800D03*
%TO.P,J203,5,Pin_5_5*%
%TO.N,PWR_nCharger*%
X28723200Y26777800D03*
%TO.P,J203,6,Pin_6_6*%
%TO.N,unconnected-(J203-Pin_6-Pad6)*%
X28723200Y29317800D03*
%TO.P,J203,7,Pin_7_7*%
%TO.N,GND*%
X28723200Y31857800D03*
%TO.P,J203,8,Pin_8_8*%
%TO.N,unconnected-(J203-Pin_8-Pad8)*%
X28723200Y34397800D03*
%TO.P,J203,9,Pin_9_9*%
%TO.N,I2C_SDA*%
X28723200Y36937800D03*
%TO.P,J203,10,Pin_10_10*%
%TO.N,I2C_SCL*%
X28723200Y39477800D03*
%TD*%
%TO.P,J204,1,Pin_1_1*%
%TO.N,QR_UART_TX*%
X28723200Y-5277000D03*
%TO.P,J204,2,Pin_2_2*%
%TO.N,QR_UART_RX*%
X28723200Y-2737000D03*
%TO.P,J204,3,Pin_3_3*%
%TO.N,QR_TRIG*%
X28723200Y-197000D03*
%TO.P,J204,4,Pin_4_4*%
%TO.N,UC_BEEP*%
X28723200Y2343000D03*
%TO.P,J204,5,Pin_5_5*%
%TO.N,SC_CLKDIV2_1*%
X28723200Y4883000D03*
%TO.P,J204,6,Pin_6_6*%
%TO.N,SC_IO*%
X28723200Y7423000D03*
%TO.P,J204,7,Pin_7_7*%
%TO.N,SC_AUX1*%
X28723200Y9963000D03*
%TO.P,J204,8,Pin_8_8*%
%TO.N,SC_CLKDIV1*%
X28723200Y12503000D03*
%TD*%
%TO.P,J303,1,1_1*%
%TO.N,BATT_P*%
X37870000Y52030000D03*
%TO.P,J303,2,2_2*%
%TO.N,GND*%
X35870000Y52030000D03*
%TD*%
D11*
%TO.P,U302,9,EPAD_9*%
%TO.N,GND*%
X47840000Y46892500D03*
X47840000Y45692500D03*
X47840000Y44492500D03*
D12*
X48540000Y45692500D03*
D11*
X49240000Y46892500D03*
X49240000Y45692500D03*
X49240000Y44492500D03*
%TD*%
D13*
%TO.P,J302,1,Pin_1_1*%
%TO.N,GND*%
X35490000Y43575000D03*
D14*
%TO.P,J302,2,Pin_2_2*%
%TO.N,USB_P*%
X35490000Y46115000D03*
%TD*%
D15*
%TO.P,U301,11,SW_11*%
%TO.N,/Power/V_SW*%
X44187500Y25780000D03*
%TD*%
D16*
%TO.P,J301,SH,SHIELD_SH*%
%TO.N,GND*%
X28410000Y51045000D03*
X24610000Y51045000D03*
X28410000Y42405000D03*
X24610000Y42405000D03*
%TD*%
D17*
%TO.N,+3V3*%
X69565000Y28075000D03*
X71070000Y840000D03*
X71890000Y16410000D03*
X70980000Y24850000D03*
%TO.N,+5V*%
X60310000Y900000D03*
X72667958Y17869025D03*
X46360000Y5550000D03*
%TO.N,GND*%
X66960000Y-2810000D03*
X53260000Y3600000D03*
X80350000Y-9750000D03*
X33740000Y1380000D03*
X61430000Y6360000D03*
X35075000Y54200000D03*
X65890000Y35950000D03*
X36290000Y32300000D03*
X72170000Y-2840000D03*
X53190000Y29870000D03*
X33060000Y17840000D03*
X33780000Y36620000D03*
X64730000Y-6020000D03*
X74800000Y27030000D03*
X31680000Y14650000D03*
X46820000Y57000000D03*
X25020000Y-13270000D03*
X40560000Y4380000D03*
X32950000Y19750000D03*
X54900000Y17580000D03*
X57150000Y25350000D03*
X63980000Y41080000D03*
X45089283Y45646971D03*
X38990000Y44500000D03*
X37000000Y56217861D03*
X67770000Y29980000D03*
X39840000Y51010000D03*
X70320000Y19490000D03*
X31980000Y48540000D03*
X66060000Y9550000D03*
X46750000Y41600000D03*
D18*
X26725000Y49475000D03*
D17*
X81160000Y33040000D03*
X34150000Y39920000D03*
X47000000Y-8450000D03*
X58000000Y39910000D03*
X40725000Y47250000D03*
X72050000Y25100000D03*
X60600000Y-37910000D03*
X63370000Y11110000D03*
X54530000Y13070000D03*
X70640000Y3320000D03*
X71850000Y56930000D03*
X59210000Y36940000D03*
X42870000Y46610000D03*
X80800000Y43410000D03*
D18*
X64960000Y28760000D03*
D17*
X51200000Y4500000D03*
X80890000Y51750000D03*
X37200000Y7200000D03*
D18*
X49740000Y28360000D03*
D17*
X75040000Y21530000D03*
X32170000Y-28580000D03*
D18*
X67630000Y20850000D03*
D17*
X41475000Y57725000D03*
D19*
X49910000Y20680000D03*
D17*
X80650000Y-25390000D03*
X52410000Y6420000D03*
X66220000Y880000D03*
X79210000Y24060000D03*
X60170000Y2860000D03*
X79240000Y29200000D03*
X72580000Y-26780000D03*
X80950000Y2340000D03*
X58510000Y10720000D03*
X73890000Y6020000D03*
X72820000Y-38200000D03*
D19*
X47740000Y23650000D03*
D17*
X41500000Y54225000D03*
D18*
X30220000Y43580000D03*
D17*
X54000000Y-2780000D03*
X45490000Y-1210000D03*
X34210000Y-2350000D03*
X33650000Y29260000D03*
X54450000Y10960000D03*
D19*
X42340000Y18430000D03*
D17*
X70200000Y16600000D03*
X47040000Y570000D03*
X61240000Y38170000D03*
X68990000Y-1180000D03*
X39630000Y-2470000D03*
X68470000Y50090000D03*
X24230000Y-940000D03*
X30850000Y-9490000D03*
X34500000Y48850000D03*
X34960000Y27230000D03*
X57830000Y17630000D03*
X78770000Y48870000D03*
X75660000Y42890000D03*
X64060000Y-4610000D03*
X70790000Y48610000D03*
X25310000Y-24220000D03*
X63690000Y16020000D03*
X64040000Y45150000D03*
X43630000Y-9080000D03*
D19*
X38230000Y24460000D03*
D17*
X68450000Y46250000D03*
X36450000Y35510000D03*
X24220000Y21930000D03*
X80980000Y10010000D03*
X51030000Y23950000D03*
X37860000Y20120000D03*
X74960000Y3420000D03*
X71740000Y-990000D03*
X24100000Y47080000D03*
X31860000Y38920000D03*
X35550000Y8140000D03*
X54275000Y49800000D03*
X49250000Y-3530000D03*
X58830000Y450000D03*
X45010000Y-2390000D03*
X39850000Y14730000D03*
X47550000Y47870000D03*
X47390000Y9960000D03*
X63550000Y21910000D03*
D19*
X48380000Y29720000D03*
D17*
X72150000Y52970000D03*
X31480000Y3750000D03*
X60390000Y50080000D03*
X46710000Y24980000D03*
X37890000Y31330000D03*
X54750000Y45600000D03*
X71550000Y8350000D03*
X72300000Y44410000D03*
D18*
X26725000Y43975000D03*
D17*
X33570000Y43950000D03*
X53760000Y1610000D03*
X73260000Y8860000D03*
X24280000Y32420000D03*
X38120000Y-37710000D03*
X63900000Y5830000D03*
X74860000Y16370000D03*
X35190000Y57770000D03*
D19*
X43790000Y16660000D03*
D17*
X77270000Y55370000D03*
X42400000Y9150000D03*
D18*
X30400000Y49475000D03*
D17*
X72520000Y21880000D03*
X59590000Y-1830000D03*
X39280000Y150000D03*
X41960000Y16130000D03*
D19*
X40370000Y19920000D03*
D17*
X23950000Y11760000D03*
X26220000Y770000D03*
X37560000Y11290000D03*
X41140000Y51900000D03*
X25500000Y-37710000D03*
X77400000Y37910000D03*
X41875000Y41900000D03*
X51330000Y7540000D03*
X54470000Y33200000D03*
X63150000Y-21180000D03*
X34940000Y12940000D03*
X43240000Y34740000D03*
X73530000Y1170000D03*
X69490000Y7280000D03*
X40770000Y12800000D03*
X71850000Y33940000D03*
X36450000Y0D03*
X75270000Y49010000D03*
X49220000Y-1540000D03*
X81130000Y-38590000D03*
X68200000Y890000D03*
X50780000Y12830000D03*
X65980000Y46100000D03*
X59890000Y-7320000D03*
X56490000Y43200000D03*
X65440000Y4060000D03*
X58360000Y12770000D03*
X45200000Y13280000D03*
D19*
X42880000Y30800000D03*
D17*
X56960000Y-28070000D03*
X36310000Y15500000D03*
X28260000Y56080000D03*
X44870000Y-38980000D03*
X67520000Y-8980000D03*
X74270000Y13090000D03*
X79110000Y18850000D03*
X51400000Y38910000D03*
X71800000Y-4530000D03*
X55210000Y21850000D03*
X41675000Y56040000D03*
D18*
%TO.N,PWR_VOUT*%
X58220000Y36580000D03*
X55820000Y41380000D03*
D17*
%TO.N,PWR_nBUTTON*%
X81550000Y13180000D03*
X69600000Y29715000D03*
%TO.N,SC_nOFF*%
X72080000Y3770000D03*
X73190000Y3870000D03*
%TO.N,SC_CLK*%
X46230000Y-9230000D03*
X59540000Y-9950000D03*
%TO.N,SC_RST*%
X33870000Y7620000D03*
X51200000Y2260000D03*
%TO.N,CHG_STATE*%
X46670000Y51530000D03*
X52200000Y46900000D03*
X33680000Y29960000D03*
%TO.N,PWR_HOLD2*%
X33740000Y31050000D03*
X64170000Y42400000D03*
%TO.N,QR_UART_TX*%
X38170000Y-430000D03*
%TO.N,QR_UART_RX*%
X38150000Y680000D03*
%TO.N,QR_TRIG*%
X50020000Y15400000D03*
X58110000Y22060000D03*
%TO.N,SC_IO*%
X70090000Y5600000D03*
%TO.N,SC_CLKDIV1*%
X46035000Y-1845000D03*
X53709339Y-1539339D03*
%TO.N,Net-(D303-K)*%
X28310000Y55090000D03*
X42390000Y55030000D03*
%TO.N,Net-(D304-K)*%
X28420000Y53070000D03*
X42430000Y53370000D03*
%TO.N,BATT_P*%
X40160000Y34390000D03*
X42660000Y33380000D03*
D18*
%TO.N,Net-(J301-CC2)*%
X31099996Y42820000D03*
X29850000Y46225000D03*
D17*
%TO.N,Net-(U302-~{STDBY})*%
X52300000Y45750000D03*
X47500000Y54680000D03*
%TO.N,Net-(D307-K)*%
X42510000Y56980000D03*
X27915963Y57634037D03*
%TO.N,Net-(Q601-B)*%
X44710000Y9470000D03*
X61160000Y10440000D03*
%TO.N,Net-(R324-Pad2)*%
X71300000Y37395000D03*
X71050000Y47070000D03*
%TO.N,/SmartCard_Reader/SC_PRES_Out*%
X58400000Y-4110000D03*
X58080000Y-2917734D03*
%TO.N,/SmartCard_Reader/SC_CLK_Out*%
X59880000Y-4710000D03*
X54640000Y-8310000D03*
D18*
%TO.N,PWR_EN*%
X66205000Y31665000D03*
X69780000Y21620000D03*
%TO.N,Net-(J301-CC1)*%
X31880000Y42820000D03*
X29850000Y47250000D03*
%TD*%
%TO.N,+3V3*%
D20*
X74950000Y13350000D02*
X71890000Y16410000D01*
X70540000Y27100000D02*
X69565000Y28075000D01*
X74950000Y4720000D02*
X74950000Y13350000D01*
X71070000Y840000D02*
X74950000Y4720000D01*
X70540000Y25290000D02*
X70540000Y27100000D01*
X70980000Y24850000D02*
X70540000Y25290000D01*
%TO.N,+5V*%
X72578933Y17780000D02*
X72667958Y17869025D01*
X55660000Y5550000D02*
X46360000Y5550000D01*
X60310000Y900000D02*
X55660000Y5550000D01*
%TO.N,PWR_VOUT*%
X55820000Y38980000D02*
X58220000Y36580000D01*
X55820000Y41380000D02*
X55820000Y38980000D01*
%TO.N,PWR_nBUTTON*%
X70365000Y28950000D02*
X74810000Y28950000D01*
X74810000Y28950000D02*
X77850000Y28950000D01*
X81580000Y25220000D02*
X81580000Y13210000D01*
X77850000Y28950000D02*
X81580000Y25220000D01*
X81580000Y13210000D02*
X81550000Y13180000D01*
X69600000Y29715000D02*
X70365000Y28950000D01*
%TO.N,SC_nOFF*%
X72180000Y3870000D02*
X72080000Y3770000D01*
X73190000Y3870000D02*
X72180000Y3870000D01*
%TO.N,SC_CLK*%
X46950000Y-9950000D02*
X46230000Y-9230000D01*
X59540000Y-9950000D02*
X46950000Y-9950000D01*
%TO.N,SC_RST*%
X51200000Y2260000D02*
X50800000Y2660000D01*
X38460000Y2660000D02*
X33870000Y7250000D01*
X50800000Y2660000D02*
X38460000Y2660000D01*
X33870000Y7250000D02*
X33870000Y7620000D01*
%TO.N,CHG_STATE*%
X33680000Y29960000D02*
X33680000Y30402893D01*
X33680000Y30402893D02*
X33240000Y30842893D01*
X42965393Y43992500D02*
X49740000Y43992500D01*
X49740000Y43992500D02*
X52200000Y46452500D01*
X33240000Y30842893D02*
X33240000Y34267107D01*
X49630000Y48570000D02*
X46670000Y51530000D01*
X52200000Y46900000D02*
X50530000Y48570000D01*
X33240000Y34267107D02*
X42965393Y43992500D01*
X50530000Y48570000D02*
X49630000Y48570000D01*
X52200000Y46452500D02*
X52200000Y46900000D01*
%TO.N,PWR_HOLD2*%
X33740000Y31050000D02*
X45090000Y42400000D01*
X45090000Y42400000D02*
X64170000Y42400000D01*
%TO.N,QR_UART_TX*%
X33323000Y-5277000D02*
X28723200Y-5277000D01*
X38170000Y-430000D02*
X33323000Y-5277000D01*
%TO.N,QR_UART_RX*%
X31693000Y-2737000D02*
X28723200Y-2737000D01*
X38150000Y680000D02*
X35110000Y680000D01*
X35110000Y680000D02*
X31693000Y-2737000D01*
%TO.N,QR_TRIG*%
X50020000Y15400000D02*
X51450000Y15400000D01*
X51450000Y15400000D02*
X58110000Y22060000D01*
%TO.N,SC_IO*%
X70090000Y7757107D02*
X70090000Y5600000D01*
X29080000Y7410000D02*
X33600000Y11930000D01*
X65917107Y11930000D02*
X70090000Y7757107D01*
X33600000Y11930000D02*
X65917107Y11930000D01*
%TO.N,SC_CLKDIV1*%
X47150000Y-2280000D02*
X51540000Y-2280000D01*
X46035000Y-1845000D02*
X46300000Y-2110000D01*
X51540000Y-2280000D02*
X52280661Y-1539339D01*
X46980000Y-2110000D02*
X47150000Y-2280000D01*
X53709339Y-1539339D02*
X53700000Y-1530000D01*
X52280661Y-1539339D02*
X53709339Y-1539339D01*
X46300000Y-2110000D02*
X46980000Y-2110000D01*
%TO.N,Net-(D303-K)*%
D21*
X28310000Y55090000D02*
X42330000Y55090000D01*
X42330000Y55090000D02*
X42390000Y55030000D01*
%TO.N,Net-(D304-K)*%
X28420000Y53070000D02*
X28720000Y53370000D01*
X28720000Y53370000D02*
X42430000Y53370000D01*
%TO.N,BATT_P*%
D20*
X41650000Y34390000D02*
X40160000Y34390000D01*
X42660000Y33380000D02*
X41650000Y34390000D01*
%TO.N,Net-(J301-CC2)*%
X30447818Y44130000D02*
X30444996Y44130000D01*
X30444996Y44130000D02*
X29850000Y44724996D01*
X30770000Y43807818D02*
X30447818Y44130000D01*
X29850000Y44724996D02*
X29850000Y46225000D01*
X31099996Y42820000D02*
X31099996Y43475000D01*
X31099996Y43475000D02*
X30770000Y43804996D01*
X30770000Y43804996D02*
X30770000Y43807818D01*
%TO.N,Net-(U302-~{STDBY})*%
X52700000Y48310000D02*
X52700000Y46150000D01*
X48223153Y50700000D02*
X47500000Y51423153D01*
X50310000Y50700000D02*
X52700000Y48310000D01*
X50310000Y50700000D02*
X48223153Y50700000D01*
X52700000Y46150000D02*
X52300000Y45750000D01*
X47500000Y51423153D02*
X47500000Y54680000D01*
%TO.N,Net-(D307-K)*%
X27915963Y57634037D02*
X28570000Y56980000D01*
X28570000Y56980000D02*
X42510000Y56980000D01*
%TO.N,Net-(Q601-B)*%
X44710000Y9470000D02*
X44720000Y9460000D01*
X44720000Y9460000D02*
X60180000Y9460000D01*
X60180000Y9460000D02*
X61160000Y10440000D01*
%TO.N,Net-(R324-Pad2)*%
X71050000Y47070000D02*
X71300000Y46820000D01*
X71300000Y46820000D02*
X71300000Y37330000D01*
%TO.N,/SmartCard_Reader/SC_PRES_Out*%
X58400000Y-4110000D02*
X58400000Y-3237734D01*
X58400000Y-3237734D02*
X58080000Y-2917734D01*
%TO.N,/SmartCard_Reader/SC_CLK_Out*%
X56280000Y-8310000D02*
X59880000Y-4710000D01*
X54640000Y-8310000D02*
X56280000Y-8310000D01*
%TO.N,PWR_EN*%
X66750000Y29720000D02*
X69780000Y26690000D01*
X66205000Y31665000D02*
X66750000Y31120000D01*
X69780000Y26690000D02*
X69780000Y21620000D01*
X66750000Y31120000D02*
X66750000Y29720000D01*
%TO.N,Net-(J301-CC1)*%
X31920174Y42860174D02*
X31920174Y45204826D01*
X31880000Y42820000D02*
X31920174Y42860174D01*
X31920174Y45204826D02*
X29875000Y47250000D01*
X29875000Y47250000D02*
X29850000Y47250000D01*
%TD*%
%TA.AperFunction,Conductor*%
%TO.N,GND*%
G36*
X27430168Y58129815D02*
G01*
X27475923Y58077011D01*
X27485867Y58007853D01*
X27470516Y57963500D01*
X27402980Y57846526D01*
X27402979Y57846522D01*
X27365463Y57706512D01*
X27365463Y57561562D01*
X27383839Y57492984D01*
X27402980Y57421549D01*
X27475451Y57296026D01*
X27475453Y57296024D01*
X27475454Y57296022D01*
X27577948Y57193528D01*
X27577949Y57193527D01*
X27577951Y57193526D01*
X27703474Y57121055D01*
X27703475Y57121055D01*
X27703478Y57121053D01*
X27843488Y57083537D01*
X27848708Y57083537D01*
X27915747Y57063852D01*
X27936389Y57047218D01*
X28324087Y56659520D01*
X28415412Y56606793D01*
X28517273Y56579500D01*
X42080614Y56579500D01*
X42147653Y56559815D01*
X42168295Y56543181D01*
X42171985Y56539491D01*
X42171986Y56539490D01*
X42171988Y56539489D01*
X42297511Y56467018D01*
X42297512Y56467018D01*
X42297515Y56467016D01*
X42437525Y56429500D01*
X42437528Y56429500D01*
X42582472Y56429500D01*
X42582475Y56429500D01*
X42722485Y56467016D01*
X42848015Y56539491D01*
X42950509Y56641985D01*
X43022984Y56767515D01*
X43060500Y56907525D01*
X43060500Y57052475D01*
X43022984Y57192485D01*
X42963204Y57296026D01*
X42950511Y57318012D01*
X42950506Y57318018D01*
X42848017Y57420507D01*
X42848011Y57420512D01*
X42722488Y57492983D01*
X42722489Y57492983D01*
X42711006Y57496060D01*
X42582475Y57530500D01*
X42437525Y57530500D01*
X42308993Y57496060D01*
X42297511Y57492983D01*
X42171988Y57420512D01*
X42171982Y57420507D01*
X42168295Y57416819D01*
X42106972Y57383334D01*
X42080614Y57380500D01*
X28787255Y57380500D01*
X28720216Y57400185D01*
X28699574Y57416819D01*
X28502782Y57613611D01*
X28469297Y57674934D01*
X28466463Y57701292D01*
X28466463Y57706510D01*
X28466463Y57706512D01*
X28428947Y57846522D01*
X28361410Y57963500D01*
X28344937Y58031400D01*
X28367789Y58097427D01*
X28422711Y58140618D01*
X28468797Y58149500D01*
X48002917Y58149500D01*
X48069956Y58129815D01*
X48115711Y58077011D01*
X48126917Y58025500D01*
X48126917Y55130969D01*
X48107232Y55063930D01*
X48054428Y55018175D01*
X47985270Y55008231D01*
X47921714Y55037256D01*
X47915236Y55043288D01*
X47838017Y55120507D01*
X47838011Y55120512D01*
X47712488Y55192983D01*
X47712489Y55192983D01*
X47701006Y55196060D01*
X47572475Y55230500D01*
X47427525Y55230500D01*
X47298993Y55196060D01*
X47287511Y55192983D01*
X47161988Y55120512D01*
X47161982Y55120507D01*
X47059493Y55018018D01*
X47059488Y55018012D01*
X46987017Y54892489D01*
X46987016Y54892485D01*
X46949500Y54752475D01*
X46949500Y54607525D01*
X46983805Y54479500D01*
X46987017Y54467512D01*
X47059488Y54341989D01*
X47059493Y54341983D01*
X47063181Y54338295D01*
X47096666Y54276972D01*
X47099500Y54250614D01*
X47099500Y52132465D01*
X47079815Y52065426D01*
X47027011Y52019671D01*
X46957853Y52009727D01*
X46913500Y52025078D01*
X46882488Y52042983D01*
X46882489Y52042983D01*
X46871006Y52046060D01*
X46742475Y52080500D01*
X46597525Y52080500D01*
X46468993Y52046060D01*
X46457511Y52042983D01*
X46331988Y51970512D01*
X46331982Y51970507D01*
X46229493Y51868018D01*
X46229488Y51868012D01*
X46157017Y51742489D01*
X46157016Y51742485D01*
X46119500Y51602475D01*
X46119500Y51457525D01*
X46148676Y51348641D01*
X46157017Y51317512D01*
X46229488Y51191989D01*
X46229490Y51191987D01*
X46229491Y51191985D01*
X46331985Y51089491D01*
X46331986Y51089490D01*
X46331988Y51089489D01*
X46457511Y51017018D01*
X46457512Y51017018D01*
X46457515Y51017016D01*
X46597525Y50979500D01*
X46602745Y50979500D01*
X46669784Y50959815D01*
X46690426Y50943181D01*
X49384087Y48249520D01*
X49475412Y48196793D01*
X49577273Y48169500D01*
X50312745Y48169500D01*
X50379784Y48149815D01*
X50400426Y48133181D01*
X51613181Y46920427D01*
X51646666Y46859104D01*
X51649500Y46832746D01*
X51649500Y46827525D01*
X51675101Y46731983D01*
X51687017Y46687512D01*
X51705913Y46654783D01*
X51722386Y46586882D01*
X51699533Y46520856D01*
X51686207Y46505102D01*
X50031216Y44850111D01*
X49969893Y44816626D01*
X49919345Y44816174D01*
X49917577Y44816526D01*
X49530373Y44429319D01*
X49469050Y44395834D01*
X49442692Y44393000D01*
X49390862Y44393000D01*
X49361309Y44401678D01*
X49367164Y44407532D01*
X49390000Y44462663D01*
X49390000Y44522337D01*
X49367164Y44577468D01*
X49324968Y44619664D01*
X49269837Y44642500D01*
X49210163Y44642500D01*
X49155032Y44619664D01*
X49112836Y44577468D01*
X49090000Y44522337D01*
X49090000Y44462663D01*
X49112836Y44407532D01*
X49121341Y44399027D01*
X49115496Y44395834D01*
X49089138Y44393000D01*
X49037308Y44393000D01*
X48970269Y44412685D01*
X48949627Y44429319D01*
X48562068Y44816878D01*
X48517930Y44816878D01*
X48130373Y44429319D01*
X48069050Y44395834D01*
X48042692Y44393000D01*
X47990862Y44393000D01*
X47961309Y44401678D01*
X47967164Y44407532D01*
X47990000Y44462663D01*
X47990000Y44522337D01*
X47967164Y44577468D01*
X47924968Y44619664D01*
X47869837Y44642500D01*
X47810163Y44642500D01*
X47755032Y44619664D01*
X47712836Y44577468D01*
X47690000Y44522337D01*
X47690000Y44462663D01*
X47712836Y44407532D01*
X47721341Y44399027D01*
X47715496Y44395834D01*
X47689138Y44393000D01*
X47637308Y44393000D01*
X47570269Y44412685D01*
X47549627Y44429319D01*
X47162421Y44816526D01*
X47162420Y44816526D01*
X47118823Y44711272D01*
X47118820Y44711260D01*
X47090000Y44566374D01*
X47090000Y44517000D01*
X47070315Y44449961D01*
X47017511Y44404206D01*
X46966000Y44393000D01*
X43025732Y44393000D01*
X43025716Y44393001D01*
X43018120Y44393001D01*
X42912666Y44393001D01*
X42844759Y44374805D01*
X42810805Y44365707D01*
X42719477Y44312978D01*
X32919522Y34513023D01*
X32919518Y34513017D01*
X32866792Y34421695D01*
X32866793Y34421694D01*
X32839500Y34319834D01*
X32839500Y30895620D01*
X32839500Y30790166D01*
X32851350Y30745941D01*
X32866793Y30688304D01*
X32893156Y30642643D01*
X32919520Y30596980D01*
X32919522Y30596978D01*
X33164521Y30351979D01*
X33198006Y30290656D01*
X33193022Y30220964D01*
X33184229Y30202301D01*
X33167017Y30172488D01*
X33167016Y30172487D01*
X33148258Y30102480D01*
X33129500Y30032475D01*
X33129500Y29887525D01*
X33164770Y29755897D01*
X33167017Y29747512D01*
X33239488Y29621989D01*
X33239490Y29621987D01*
X33239491Y29621985D01*
X33341985Y29519491D01*
X33341986Y29519490D01*
X33341988Y29519489D01*
X33467511Y29447018D01*
X33467512Y29447018D01*
X33467515Y29447016D01*
X33607525Y29409500D01*
X33607528Y29409500D01*
X33752472Y29409500D01*
X33752475Y29409500D01*
X33892485Y29447016D01*
X34018015Y29519491D01*
X34120509Y29621985D01*
X34192984Y29747515D01*
X34230500Y29887525D01*
X34230500Y30032475D01*
X34192984Y30172485D01*
X34179182Y30196390D01*
X34120511Y30298012D01*
X34120506Y30298018D01*
X34116819Y30301705D01*
X34083334Y30363028D01*
X34081426Y30374263D01*
X34080500Y30381799D01*
X34080500Y30455620D01*
X34063744Y30518152D01*
X34062688Y30526753D01*
X34067016Y30553018D01*
X34067650Y30579633D01*
X34072792Y30588071D01*
X34074049Y30595692D01*
X34084477Y30607240D01*
X34098081Y30629557D01*
X34121569Y30653045D01*
X34180509Y30711985D01*
X34252984Y30837515D01*
X34290500Y30977525D01*
X34290500Y30982745D01*
X34310185Y31049784D01*
X34326819Y31070426D01*
X35000450Y31744057D01*
X65604500Y31744057D01*
X65604500Y31585943D01*
X65626391Y31504247D01*
X65645423Y31433217D01*
X65645426Y31433210D01*
X65724475Y31296291D01*
X65724479Y31296286D01*
X65724480Y31296284D01*
X65836284Y31184480D01*
X65836286Y31184479D01*
X65836290Y31184476D01*
X65856644Y31172725D01*
X65973216Y31105423D01*
X66125943Y31064500D01*
X66187745Y31064500D01*
X66254784Y31044815D01*
X66275426Y31028181D01*
X66313181Y30990426D01*
X66346666Y30929103D01*
X66349500Y30902745D01*
X66349500Y29667274D01*
X66376793Y29565411D01*
X66402656Y29520617D01*
X66429520Y29474087D01*
X66429522Y29474085D01*
X69343181Y26560426D01*
X69376666Y26499103D01*
X69379500Y26472745D01*
X69379500Y22120098D01*
X69359815Y22053059D01*
X69343181Y22032417D01*
X69299481Y21988718D01*
X69299475Y21988710D01*
X69220426Y21851791D01*
X69220423Y21851784D01*
X69179500Y21699057D01*
X69179500Y21540943D01*
X69188685Y21506666D01*
X69220423Y21388217D01*
X69220426Y21388210D01*
X69299475Y21251291D01*
X69299479Y21251286D01*
X69299480Y21251284D01*
X69411284Y21139480D01*
X69411286Y21139479D01*
X69411290Y21139476D01*
X69548209Y21060427D01*
X69548216Y21060423D01*
X69700943Y21019500D01*
X69700945Y21019500D01*
X69859055Y21019500D01*
X69859057Y21019500D01*
X70011784Y21060423D01*
X70148716Y21139480D01*
X70260520Y21251284D01*
X70339577Y21388216D01*
X70380500Y21540943D01*
X70380500Y21699057D01*
X70339577Y21851784D01*
X70339573Y21851791D01*
X70260524Y21988710D01*
X70260518Y21988718D01*
X70216819Y22032417D01*
X70183334Y22093740D01*
X70180500Y22120098D01*
X70180500Y22749611D01*
X75908100Y22749611D01*
X75908100Y22576389D01*
X75914305Y22537214D01*
X75933704Y22414728D01*
X75935198Y22405299D01*
X75988727Y22240555D01*
X76067368Y22086212D01*
X76169186Y21946072D01*
X76291672Y21823586D01*
X76431812Y21721768D01*
X76586155Y21643127D01*
X76750899Y21589598D01*
X76921989Y21562500D01*
X76921990Y21562500D01*
X77095210Y21562500D01*
X77095211Y21562500D01*
X77266301Y21589598D01*
X77431045Y21643127D01*
X77585388Y21721768D01*
X77725528Y21823586D01*
X77848014Y21946072D01*
X77949832Y22086212D01*
X78028473Y22240555D01*
X78082002Y22405299D01*
X78109100Y22576389D01*
X78109100Y22749611D01*
X78082002Y22920701D01*
X78028473Y23085445D01*
X77949832Y23239788D01*
X77848014Y23379928D01*
X77725528Y23502414D01*
X77585388Y23604232D01*
X77431045Y23682873D01*
X77266301Y23736402D01*
X77266299Y23736403D01*
X77266298Y23736403D01*
X77134871Y23757219D01*
X77095211Y23763500D01*
X76921989Y23763500D01*
X76882328Y23757219D01*
X76750902Y23736403D01*
X76586152Y23682872D01*
X76431811Y23604232D01*
X76351856Y23546141D01*
X76291672Y23502414D01*
X76291670Y23502412D01*
X76291669Y23502412D01*
X76169188Y23379931D01*
X76169188Y23379930D01*
X76169186Y23379928D01*
X76125459Y23319744D01*
X76067368Y23239789D01*
X75988728Y23085448D01*
X75935197Y22920698D01*
X75911520Y22771203D01*
X75908100Y22749611D01*
X70180500Y22749611D01*
X70180500Y24783745D01*
X70200185Y24850784D01*
X70252989Y24896539D01*
X70322147Y24906483D01*
X70385703Y24877458D01*
X70392181Y24871426D01*
X70393181Y24870426D01*
X70426666Y24809103D01*
X70429500Y24782745D01*
X70429500Y24777525D01*
X70467016Y24637515D01*
X70467017Y24637512D01*
X70539488Y24511989D01*
X70539490Y24511987D01*
X70539491Y24511985D01*
X70641985Y24409491D01*
X70641986Y24409490D01*
X70641988Y24409489D01*
X70767511Y24337018D01*
X70767512Y24337018D01*
X70767515Y24337016D01*
X70907525Y24299500D01*
X70907528Y24299500D01*
X71052472Y24299500D01*
X71052475Y24299500D01*
X71192485Y24337016D01*
X71318015Y24409491D01*
X71420509Y24511985D01*
X71492984Y24637515D01*
X71530500Y24777525D01*
X71530500Y24922475D01*
X71492984Y25062485D01*
X71484481Y25077212D01*
X71420511Y25188012D01*
X71420506Y25188018D01*
X71318913Y25289611D01*
X75908100Y25289611D01*
X75908100Y25116390D01*
X75933704Y24954728D01*
X75935198Y24945299D01*
X75988727Y24780555D01*
X76067368Y24626212D01*
X76169186Y24486072D01*
X76291672Y24363586D01*
X76431812Y24261768D01*
X76586155Y24183127D01*
X76750899Y24129598D01*
X76921989Y24102500D01*
X76921990Y24102500D01*
X77095210Y24102500D01*
X77095211Y24102500D01*
X77266301Y24129598D01*
X77431045Y24183127D01*
X77585388Y24261768D01*
X77725528Y24363586D01*
X77848014Y24486072D01*
X77949832Y24626212D01*
X78028473Y24780555D01*
X78082002Y24945299D01*
X78109100Y25116389D01*
X78109100Y25289611D01*
X78082002Y25460701D01*
X78028473Y25625445D01*
X77949832Y25779788D01*
X77848014Y25919928D01*
X77725528Y26042414D01*
X77585388Y26144232D01*
X77431045Y26222873D01*
X77266301Y26276402D01*
X77266299Y26276403D01*
X77266298Y26276403D01*
X77134871Y26297219D01*
X77095211Y26303500D01*
X76921989Y26303500D01*
X76882328Y26297219D01*
X76750902Y26276403D01*
X76586152Y26222872D01*
X76431811Y26144232D01*
X76395723Y26118012D01*
X76291672Y26042414D01*
X76291670Y26042412D01*
X76291669Y26042412D01*
X76169188Y25919931D01*
X76169188Y25919930D01*
X76169186Y25919928D01*
X76125459Y25859744D01*
X76067368Y25779789D01*
X75988728Y25625448D01*
X75935197Y25460698D01*
X75908100Y25289611D01*
X71318913Y25289611D01*
X71318017Y25290507D01*
X71318011Y25290512D01*
X71192488Y25362983D01*
X71192489Y25362983D01*
X71175944Y25367417D01*
X71052475Y25400500D01*
X71052473Y25400500D01*
X71048310Y25401048D01*
X71045058Y25402487D01*
X71044624Y25402603D01*
X71044642Y25402671D01*
X70984415Y25429317D01*
X70945946Y25487643D01*
X70940500Y25523987D01*
X70940500Y27152725D01*
X70940500Y27152727D01*
X70913207Y27254587D01*
X70913207Y27254588D01*
X70860480Y27345913D01*
X70151819Y28054574D01*
X70118334Y28115897D01*
X70115500Y28142255D01*
X70115500Y28147473D01*
X70115500Y28147475D01*
X70077984Y28287485D01*
X70071955Y28297927D01*
X70006623Y28411085D01*
X70005509Y28413015D01*
X69903015Y28515509D01*
X69777485Y28587984D01*
X69637475Y28625500D01*
X69492525Y28625500D01*
X69363993Y28591060D01*
X69352511Y28587983D01*
X69226988Y28515512D01*
X69226982Y28515507D01*
X69124493Y28413018D01*
X69124488Y28413012D01*
X69052017Y28287489D01*
X69052015Y28287486D01*
X69043548Y28255885D01*
X69007182Y28196225D01*
X68944334Y28165697D01*
X68874959Y28173994D01*
X68836093Y28200300D01*
X67186819Y29849574D01*
X67153334Y29910897D01*
X67150500Y29937255D01*
X67150500Y31172725D01*
X67150500Y31172727D01*
X67123207Y31274587D01*
X67070480Y31365913D01*
X66995913Y31440480D01*
X66841819Y31594574D01*
X66808334Y31655897D01*
X66805500Y31682255D01*
X66805500Y31744055D01*
X66805500Y31744057D01*
X66764577Y31896784D01*
X66756681Y31910461D01*
X66685524Y32033710D01*
X66685518Y32033718D01*
X66573717Y32145519D01*
X66573709Y32145525D01*
X66436790Y32224574D01*
X66436786Y32224576D01*
X66436784Y32224577D01*
X66284057Y32265500D01*
X66125943Y32265500D01*
X65973216Y32224577D01*
X65973209Y32224574D01*
X65836290Y32145525D01*
X65836282Y32145519D01*
X65724481Y32033718D01*
X65724475Y32033710D01*
X65645426Y31896791D01*
X65645423Y31896784D01*
X65604500Y31744057D01*
X35000450Y31744057D01*
X37718868Y34462475D01*
X39609500Y34462475D01*
X39609500Y34317525D01*
X39647016Y34177515D01*
X39647017Y34177512D01*
X39719488Y34051989D01*
X39719490Y34051987D01*
X39719491Y34051985D01*
X39821985Y33949491D01*
X39821986Y33949490D01*
X39821988Y33949489D01*
X39947511Y33877018D01*
X39947512Y33877018D01*
X39947515Y33877016D01*
X40087525Y33839500D01*
X40087528Y33839500D01*
X40232472Y33839500D01*
X40232475Y33839500D01*
X40372485Y33877016D01*
X40498015Y33949491D01*
X40501705Y33953181D01*
X40563028Y33986666D01*
X40589386Y33989500D01*
X41432745Y33989500D01*
X41499784Y33969815D01*
X41520426Y33953181D01*
X42073181Y33400427D01*
X42106666Y33339104D01*
X42109500Y33312746D01*
X42109500Y33307525D01*
X42133341Y33218550D01*
X42147017Y33167512D01*
X42219488Y33041989D01*
X42219490Y33041987D01*
X42219491Y33041985D01*
X42321985Y32939491D01*
X42321986Y32939490D01*
X42321988Y32939489D01*
X42447511Y32867018D01*
X42447512Y32867018D01*
X42447515Y32867016D01*
X42587525Y32829500D01*
X42587528Y32829500D01*
X42732472Y32829500D01*
X42732475Y32829500D01*
X42872485Y32867016D01*
X42998015Y32939491D01*
X43100509Y33041985D01*
X43172984Y33167515D01*
X43210500Y33307525D01*
X43210500Y33452475D01*
X43172984Y33592485D01*
X43100509Y33718015D01*
X42998015Y33820509D01*
X42998013Y33820510D01*
X42998011Y33820512D01*
X42872488Y33892983D01*
X42872489Y33892983D01*
X42861006Y33896060D01*
X42732475Y33930500D01*
X42732472Y33930500D01*
X42727254Y33930500D01*
X42660215Y33950185D01*
X42639573Y33966819D01*
X41895915Y34710478D01*
X41895914Y34710479D01*
X41895913Y34710480D01*
X41850250Y34736844D01*
X41804589Y34763207D01*
X41753657Y34776854D01*
X41702727Y34790500D01*
X41702726Y34790500D01*
X40589386Y34790500D01*
X40522347Y34810185D01*
X40501705Y34826819D01*
X40498017Y34830507D01*
X40498011Y34830512D01*
X40372488Y34902983D01*
X40372489Y34902983D01*
X40361006Y34906060D01*
X40232475Y34940500D01*
X40087525Y34940500D01*
X39958993Y34906060D01*
X39947511Y34902983D01*
X39821988Y34830512D01*
X39821982Y34830507D01*
X39719493Y34728018D01*
X39719488Y34728012D01*
X39647017Y34602489D01*
X39647016Y34602485D01*
X39609500Y34462475D01*
X37718868Y34462475D01*
X45219574Y41963181D01*
X45280897Y41996666D01*
X45307255Y41999500D01*
X55290902Y41999500D01*
X55357941Y41979815D01*
X55403696Y41927011D01*
X55413640Y41857853D01*
X55384615Y41794297D01*
X55378583Y41787819D01*
X55339481Y41748718D01*
X55339475Y41748710D01*
X55260426Y41611791D01*
X55260423Y41611784D01*
X55219500Y41459057D01*
X55219500Y41300944D01*
X55260423Y41148217D01*
X55260426Y41148210D01*
X55339475Y41011291D01*
X55339481Y41011283D01*
X55383181Y40967583D01*
X55416666Y40906260D01*
X55419500Y40879902D01*
X55419500Y39032727D01*
X55419500Y38927273D01*
X55433146Y38876343D01*
X55446793Y38825411D01*
X55473156Y38779750D01*
X55499520Y38734087D01*
X55499521Y38734086D01*
X55499522Y38734085D01*
X57583181Y36650427D01*
X57616666Y36589104D01*
X57619500Y36562746D01*
X57619500Y36500943D01*
X57656995Y36361012D01*
X57660423Y36348217D01*
X57660426Y36348210D01*
X57739475Y36211291D01*
X57739479Y36211286D01*
X57739480Y36211284D01*
X57851284Y36099480D01*
X57851286Y36099479D01*
X57851290Y36099476D01*
X57988209Y36020427D01*
X57988216Y36020423D01*
X58140943Y35979500D01*
X58140945Y35979500D01*
X58299055Y35979500D01*
X58299057Y35979500D01*
X58451784Y36020423D01*
X58588716Y36099480D01*
X58700520Y36211284D01*
X58779577Y36348216D01*
X58820500Y36500943D01*
X58820500Y36659057D01*
X58779577Y36811784D01*
X58739028Y36882018D01*
X58700524Y36948710D01*
X58700518Y36948718D01*
X58588717Y37060519D01*
X58588709Y37060525D01*
X58451790Y37139574D01*
X58451786Y37139576D01*
X58451784Y37139577D01*
X58299057Y37180500D01*
X58299056Y37180500D01*
X58237254Y37180500D01*
X58170215Y37200185D01*
X58149573Y37216819D01*
X56256819Y39109574D01*
X56223334Y39170897D01*
X56220500Y39197255D01*
X56220500Y40879902D01*
X56240185Y40946941D01*
X56256819Y40967583D01*
X56300520Y41011284D01*
X56379577Y41148216D01*
X56420500Y41300943D01*
X56420500Y41459057D01*
X56379577Y41611784D01*
X56370069Y41628252D01*
X56300524Y41748710D01*
X56300518Y41748718D01*
X56261417Y41787819D01*
X56227932Y41849142D01*
X56232916Y41918834D01*
X56274788Y41974767D01*
X56340252Y41999184D01*
X56349098Y41999500D01*
X63740614Y41999500D01*
X63807653Y41979815D01*
X63828295Y41963181D01*
X63831985Y41959491D01*
X63831986Y41959490D01*
X63831988Y41959489D01*
X63957511Y41887018D01*
X63957512Y41887018D01*
X63957515Y41887016D01*
X64097525Y41849500D01*
X64097528Y41849500D01*
X64242472Y41849500D01*
X64242475Y41849500D01*
X64382485Y41887016D01*
X64508015Y41959491D01*
X64610509Y42061985D01*
X64682984Y42187515D01*
X64720500Y42327525D01*
X64720500Y42472475D01*
X64682984Y42612485D01*
X64645636Y42677173D01*
X64610511Y42738012D01*
X64610506Y42738018D01*
X64508017Y42840507D01*
X64508011Y42840512D01*
X64382488Y42912983D01*
X64382489Y42912983D01*
X64371006Y42916060D01*
X64242475Y42950500D01*
X64097525Y42950500D01*
X63968993Y42916060D01*
X63957511Y42912983D01*
X63831988Y42840512D01*
X63831982Y42840507D01*
X63828295Y42836819D01*
X63766972Y42803334D01*
X63740614Y42800500D01*
X45037273Y42800500D01*
X44935410Y42773207D01*
X44844087Y42720480D01*
X44844084Y42720478D01*
X33852181Y31728574D01*
X33790858Y31695089D01*
X33721166Y31700073D01*
X33665233Y31741945D01*
X33640816Y31807409D01*
X33640500Y31816255D01*
X33640500Y34049853D01*
X33660185Y34116892D01*
X33676819Y34137534D01*
X43094966Y43555681D01*
X43156289Y43589166D01*
X43182647Y43592000D01*
X49792725Y43592000D01*
X49792727Y43592000D01*
X49894588Y43619293D01*
X49985913Y43672020D01*
X51705003Y45391112D01*
X51766326Y45424596D01*
X51836018Y45419612D01*
X51880365Y45391111D01*
X51961985Y45309491D01*
X51961986Y45309490D01*
X51961988Y45309489D01*
X52087511Y45237018D01*
X52087512Y45237018D01*
X52087515Y45237016D01*
X52227525Y45199500D01*
X52227528Y45199500D01*
X52372472Y45199500D01*
X52372475Y45199500D01*
X52512485Y45237016D01*
X52638015Y45309491D01*
X52740509Y45411985D01*
X52812984Y45537515D01*
X52850500Y45677525D01*
X52850500Y45682745D01*
X52870185Y45749784D01*
X52886819Y45770426D01*
X52936057Y45819664D01*
X53020480Y45904087D01*
X53054158Y45962419D01*
X53054196Y45962484D01*
X53054196Y45962485D01*
X53073207Y45995413D01*
X53100500Y46097273D01*
X53100500Y47142475D01*
X70499500Y47142475D01*
X70499500Y46997525D01*
X70535146Y46864495D01*
X70537017Y46857512D01*
X70609488Y46731989D01*
X70609490Y46731987D01*
X70609491Y46731985D01*
X70711985Y46629491D01*
X70837500Y46557025D01*
X70885716Y46506458D01*
X70899500Y46449638D01*
X70899500Y37824386D01*
X70879815Y37757347D01*
X70863181Y37736705D01*
X70859493Y37733018D01*
X70859488Y37733012D01*
X70787017Y37607489D01*
X70787016Y37607485D01*
X70749500Y37467475D01*
X70749500Y37322525D01*
X70783537Y37195498D01*
X70787017Y37182512D01*
X70859488Y37056989D01*
X70859490Y37056987D01*
X70859491Y37056985D01*
X70961985Y36954491D01*
X70961986Y36954490D01*
X70961988Y36954489D01*
X71087511Y36882018D01*
X71087512Y36882018D01*
X71087515Y36882016D01*
X71227525Y36844500D01*
X71227528Y36844500D01*
X71372472Y36844500D01*
X71372475Y36844500D01*
X71512485Y36882016D01*
X71638015Y36954491D01*
X71740509Y37056985D01*
X71812984Y37182515D01*
X71850500Y37322525D01*
X71850500Y37467475D01*
X71812984Y37607485D01*
X71785706Y37654731D01*
X71740511Y37733012D01*
X71740506Y37733018D01*
X71736819Y37736705D01*
X71703334Y37798028D01*
X71700500Y37824386D01*
X71700500Y46872725D01*
X71700500Y46872727D01*
X71673207Y46974587D01*
X71620480Y47065913D01*
X71620478Y47065915D01*
X71617113Y47071744D01*
X71600500Y47133744D01*
X71600500Y47142473D01*
X71600500Y47142475D01*
X71562984Y47282485D01*
X71490509Y47408015D01*
X71388015Y47510509D01*
X71388013Y47510510D01*
X71388011Y47510512D01*
X71262488Y47582983D01*
X71262489Y47582983D01*
X71251006Y47586060D01*
X71122475Y47620500D01*
X70977525Y47620500D01*
X70848993Y47586060D01*
X70837511Y47582983D01*
X70711988Y47510512D01*
X70711982Y47510507D01*
X70609493Y47408018D01*
X70609488Y47408012D01*
X70537017Y47282489D01*
X70537016Y47282485D01*
X70499500Y47142475D01*
X53100500Y47142475D01*
X53100500Y48362727D01*
X53073207Y48464587D01*
X53020480Y48555913D01*
X52945913Y48630480D01*
X50968574Y50607819D01*
X50935089Y50669142D01*
X50940073Y50738834D01*
X50981945Y50794767D01*
X51047409Y50819184D01*
X51056255Y50819500D01*
X70367297Y50819500D01*
X70367299Y50819500D01*
X70440991Y50850024D01*
X70497393Y50906426D01*
X70527917Y50980118D01*
X70527917Y58025500D01*
X70547602Y58092539D01*
X70600406Y58138294D01*
X70651917Y58149500D01*
X82065500Y58149500D01*
X82132539Y58129815D01*
X82178294Y58077011D01*
X82189500Y58025500D01*
X82189500Y25427517D01*
X82188448Y25423937D01*
X82188518Y25423650D01*
X82187505Y25420725D01*
X82169815Y25360478D01*
X82117011Y25314723D01*
X82047853Y25304779D01*
X82041248Y25307796D01*
X82041192Y25307790D01*
X82040665Y25308062D01*
X81984297Y25333804D01*
X81979568Y25339558D01*
X81979089Y25339805D01*
X81972938Y25347626D01*
X81957829Y25366012D01*
X81953451Y25373676D01*
X81953207Y25374587D01*
X81927270Y25419511D01*
X81900480Y25465913D01*
X81825913Y25540480D01*
X81821582Y25544811D01*
X81821571Y25544821D01*
X78095915Y29270478D01*
X78095914Y29270479D01*
X78095913Y29270480D01*
X78050250Y29296844D01*
X78004589Y29323207D01*
X77966743Y29333348D01*
X77902727Y29350500D01*
X77902725Y29350500D01*
X77897015Y29352030D01*
X77837355Y29388395D01*
X77806825Y29451241D01*
X77815119Y29520617D01*
X77841426Y29559485D01*
X77848014Y29566072D01*
X77949832Y29706212D01*
X78028473Y29860555D01*
X78082002Y30025299D01*
X78109100Y30196389D01*
X78109100Y30369611D01*
X78082002Y30540701D01*
X78028473Y30705445D01*
X77949832Y30859788D01*
X77848014Y30999928D01*
X77725528Y31122414D01*
X77585388Y31224232D01*
X77431045Y31302873D01*
X77266301Y31356402D01*
X77266299Y31356403D01*
X77266298Y31356403D01*
X77134871Y31377219D01*
X77095211Y31383500D01*
X76921989Y31383500D01*
X76882328Y31377219D01*
X76750902Y31356403D01*
X76586152Y31302872D01*
X76431811Y31224232D01*
X76360922Y31172727D01*
X76291672Y31122414D01*
X76291670Y31122412D01*
X76291669Y31122412D01*
X76169188Y30999931D01*
X76169188Y30999930D01*
X76169186Y30999928D01*
X76135895Y30954107D01*
X76067368Y30859789D01*
X75988728Y30705448D01*
X75935197Y30540698D01*
X75908100Y30369611D01*
X75908100Y30196390D01*
X75934061Y30032473D01*
X75935198Y30025299D01*
X75988727Y29860555D01*
X76067368Y29706212D01*
X76169186Y29566072D01*
X76169188Y29566070D01*
X76173077Y29562181D01*
X76206562Y29500858D01*
X76201578Y29431166D01*
X76159706Y29375233D01*
X76094242Y29350816D01*
X76085396Y29350500D01*
X70582255Y29350500D01*
X70515216Y29370185D01*
X70494574Y29386819D01*
X70186819Y29694574D01*
X70153334Y29755897D01*
X70150500Y29782255D01*
X70150500Y29787473D01*
X70150500Y29787475D01*
X70112984Y29927485D01*
X70107343Y29937255D01*
X70040511Y30053012D01*
X70040506Y30053018D01*
X69938017Y30155507D01*
X69938011Y30155512D01*
X69812488Y30227983D01*
X69812489Y30227983D01*
X69801006Y30231060D01*
X69672475Y30265500D01*
X69527525Y30265500D01*
X69398993Y30231060D01*
X69387511Y30227983D01*
X69261988Y30155512D01*
X69261982Y30155507D01*
X69159493Y30053018D01*
X69159488Y30053012D01*
X69087017Y29927489D01*
X69087016Y29927485D01*
X69049500Y29787475D01*
X69049500Y29642525D01*
X69082468Y29519489D01*
X69087017Y29502512D01*
X69159488Y29376989D01*
X69159490Y29376987D01*
X69159491Y29376985D01*
X69261985Y29274491D01*
X69261986Y29274490D01*
X69261988Y29274489D01*
X69387511Y29202018D01*
X69387512Y29202018D01*
X69387515Y29202016D01*
X69527525Y29164500D01*
X69532745Y29164500D01*
X69599784Y29144815D01*
X69620426Y29128181D01*
X70044519Y28704088D01*
X70044520Y28704087D01*
X70119087Y28629520D01*
X70210413Y28576793D01*
X70312273Y28549500D01*
X70417727Y28549500D01*
X74757273Y28549500D01*
X75990900Y28549500D01*
X76057939Y28529815D01*
X76103694Y28477011D01*
X76113638Y28407853D01*
X76091217Y28352614D01*
X76067370Y28319793D01*
X75988728Y28165448D01*
X75988727Y28165446D01*
X75988727Y28165445D01*
X75981192Y28142255D01*
X75935197Y28000698D01*
X75908100Y27829611D01*
X75908100Y27656390D01*
X75933704Y27494728D01*
X75935198Y27485299D01*
X75988727Y27320555D01*
X76067368Y27166212D01*
X76169186Y27026072D01*
X76291672Y26903586D01*
X76431812Y26801768D01*
X76586155Y26723127D01*
X76750899Y26669598D01*
X76921989Y26642500D01*
X76921990Y26642500D01*
X77095210Y26642500D01*
X77095211Y26642500D01*
X77266301Y26669598D01*
X77431045Y26723127D01*
X77585388Y26801768D01*
X77725528Y26903586D01*
X77848014Y27026072D01*
X77949832Y27166212D01*
X78028473Y27320555D01*
X78082002Y27485299D01*
X78109100Y27656389D01*
X78109100Y27825146D01*
X78128785Y27892185D01*
X78181589Y27937940D01*
X78250747Y27947884D01*
X78314303Y27918859D01*
X78320781Y27912827D01*
X81143181Y25090427D01*
X81176666Y25029104D01*
X81179500Y25002746D01*
X81179500Y13639386D01*
X81159815Y13572347D01*
X81143181Y13551705D01*
X81109493Y13518018D01*
X81109492Y13518016D01*
X81109491Y13518015D01*
X81091807Y13487386D01*
X81037017Y13392489D01*
X81037016Y13392485D01*
X80999500Y13252475D01*
X80999500Y13107525D01*
X81037016Y12967515D01*
X81037017Y12967512D01*
X81109488Y12841989D01*
X81109490Y12841987D01*
X81109491Y12841985D01*
X81211985Y12739491D01*
X81211986Y12739490D01*
X81211988Y12739489D01*
X81337511Y12667018D01*
X81337512Y12667018D01*
X81337515Y12667016D01*
X81477525Y12629500D01*
X81477528Y12629500D01*
X81622472Y12629500D01*
X81622475Y12629500D01*
X81762485Y12667016D01*
X81888015Y12739491D01*
X81977819Y12829295D01*
X82039142Y12862780D01*
X82108834Y12857796D01*
X82164767Y12815924D01*
X82189184Y12750460D01*
X82189500Y12741614D01*
X82189500Y-40325500D01*
X82169815Y-40392539D01*
X82117011Y-40438294D01*
X82065500Y-40449500D01*
X23714500Y-40449500D01*
X23647461Y-40429815D01*
X23601706Y-40377011D01*
X23590500Y-40325500D01*
X23590500Y-36023389D01*
X31239500Y-36023389D01*
X31239500Y-36196611D01*
X31266598Y-36367701D01*
X31320127Y-36532445D01*
X31398768Y-36686788D01*
X31500586Y-36826928D01*
X31623072Y-36949414D01*
X31763212Y-37051232D01*
X31917555Y-37129873D01*
X32082299Y-37183402D01*
X32253389Y-37210500D01*
X32253390Y-37210500D01*
X32426610Y-37210500D01*
X32426611Y-37210500D01*
X32597701Y-37183402D01*
X32762445Y-37129873D01*
X32916788Y-37051232D01*
X33056928Y-36949414D01*
X33179414Y-36826928D01*
X33281232Y-36686788D01*
X33359873Y-36532445D01*
X33413402Y-36367701D01*
X33440500Y-36196611D01*
X33440500Y-36023389D01*
X33418326Y-35883389D01*
X53980677Y-35883389D01*
X53980677Y-36056610D01*
X54014467Y-36226481D01*
X54014470Y-36226493D01*
X54080750Y-36386509D01*
X54080757Y-36386522D01*
X54176984Y-36530535D01*
X54176987Y-36530539D01*
X54299460Y-36653012D01*
X54299464Y-36653015D01*
X54443477Y-36749242D01*
X54443490Y-36749249D01*
X54603506Y-36815529D01*
X54603511Y-36815531D01*
X54773389Y-36849322D01*
X54773392Y-36849323D01*
X54773394Y-36849323D01*
X54946608Y-36849323D01*
X54946609Y-36849322D01*
X55116489Y-36815531D01*
X55276516Y-36749246D01*
X55420536Y-36653015D01*
X55543015Y-36530536D01*
X55639246Y-36386516D01*
X55705531Y-36226489D01*
X55739323Y-36056606D01*
X55739323Y-35883394D01*
X55739323Y-35883391D01*
X55739322Y-35883389D01*
X55705532Y-35713518D01*
X55705531Y-35713511D01*
X55694780Y-35687555D01*
X55639249Y-35553490D01*
X55639242Y-35553477D01*
X55543015Y-35409464D01*
X55543012Y-35409460D01*
X55420539Y-35286987D01*
X55420535Y-35286984D01*
X55276522Y-35190757D01*
X55276509Y-35190750D01*
X55116493Y-35124470D01*
X55116481Y-35124467D01*
X54946609Y-35090677D01*
X54946606Y-35090677D01*
X54773394Y-35090677D01*
X54773391Y-35090677D01*
X54603518Y-35124467D01*
X54603506Y-35124470D01*
X54443490Y-35190750D01*
X54443477Y-35190757D01*
X54299464Y-35286984D01*
X54299460Y-35286987D01*
X54176987Y-35409460D01*
X54176984Y-35409464D01*
X54080757Y-35553477D01*
X54080750Y-35553490D01*
X54014470Y-35713506D01*
X54014467Y-35713518D01*
X53980677Y-35883389D01*
X33418326Y-35883389D01*
X33413402Y-35852299D01*
X33359873Y-35687555D01*
X33281232Y-35533212D01*
X33179414Y-35393072D01*
X33056928Y-35270586D01*
X32916788Y-35168768D01*
X32762445Y-35090127D01*
X32597701Y-35036598D01*
X32597699Y-35036597D01*
X32597698Y-35036597D01*
X32466271Y-35015781D01*
X32426611Y-35009500D01*
X32253389Y-35009500D01*
X32213728Y-35015781D01*
X32082302Y-35036597D01*
X31917552Y-35090128D01*
X31763211Y-35168768D01*
X31683256Y-35226859D01*
X31623072Y-35270586D01*
X31623070Y-35270588D01*
X31623069Y-35270588D01*
X31500588Y-35393069D01*
X31500588Y-35393070D01*
X31500586Y-35393072D01*
X31456859Y-35453256D01*
X31398768Y-35533211D01*
X31320128Y-35687552D01*
X31266597Y-35852302D01*
X31239500Y-36023389D01*
X23590500Y-36023389D01*
X23590500Y-15883389D01*
X44480677Y-15883389D01*
X44480677Y-16056610D01*
X44514467Y-16226481D01*
X44514470Y-16226493D01*
X44580750Y-16386509D01*
X44580757Y-16386522D01*
X44676984Y-16530535D01*
X44676987Y-16530539D01*
X44799460Y-16653012D01*
X44799464Y-16653015D01*
X44943477Y-16749242D01*
X44943490Y-16749249D01*
X45089846Y-16809871D01*
X45103511Y-16815531D01*
X45273389Y-16849322D01*
X45273392Y-16849323D01*
X45273394Y-16849323D01*
X45446608Y-16849323D01*
X45446609Y-16849322D01*
X45616489Y-16815531D01*
X45776516Y-16749246D01*
X45920536Y-16653015D01*
X46043015Y-16530536D01*
X46139246Y-16386516D01*
X46205531Y-16226489D01*
X46239323Y-16056606D01*
X46239323Y-15883394D01*
X46239323Y-15883391D01*
X46239322Y-15883389D01*
X46207361Y-15722708D01*
X46205532Y-15713516D01*
X46205531Y-15713515D01*
X46205531Y-15713511D01*
X46201338Y-15703389D01*
X75689500Y-15703389D01*
X75689500Y-15876611D01*
X75716598Y-16047701D01*
X75770127Y-16212445D01*
X75848768Y-16366788D01*
X75950586Y-16506928D01*
X76073072Y-16629414D01*
X76213212Y-16731232D01*
X76367555Y-16809873D01*
X76532299Y-16863402D01*
X76703389Y-16890500D01*
X76703390Y-16890500D01*
X76876610Y-16890500D01*
X76876611Y-16890500D01*
X77047701Y-16863402D01*
X77212445Y-16809873D01*
X77366788Y-16731232D01*
X77506928Y-16629414D01*
X77629414Y-16506928D01*
X77731232Y-16366788D01*
X77809873Y-16212445D01*
X77863402Y-16047701D01*
X77890500Y-15876611D01*
X77890500Y-15703389D01*
X77863402Y-15532299D01*
X77809873Y-15367555D01*
X77731232Y-15213212D01*
X77629414Y-15073072D01*
X77506928Y-14950586D01*
X77366788Y-14848768D01*
X77212445Y-14770127D01*
X77047701Y-14716598D01*
X77047699Y-14716597D01*
X77047698Y-14716597D01*
X76916271Y-14695781D01*
X76876611Y-14689500D01*
X76703389Y-14689500D01*
X76663728Y-14695781D01*
X76532302Y-14716597D01*
X76367552Y-14770128D01*
X76213211Y-14848768D01*
X76133256Y-14906859D01*
X76073072Y-14950586D01*
X76073070Y-14950588D01*
X76073069Y-14950588D01*
X75950588Y-15073069D01*
X75950588Y-15073070D01*
X75950586Y-15073072D01*
X75913245Y-15124467D01*
X75848768Y-15213211D01*
X75770128Y-15367552D01*
X75716597Y-15532302D01*
X75689500Y-15703389D01*
X46201338Y-15703389D01*
X46139249Y-15553490D01*
X46139242Y-15553477D01*
X46043015Y-15409464D01*
X46043012Y-15409460D01*
X45920539Y-15286987D01*
X45920535Y-15286984D01*
X45776522Y-15190757D01*
X45776509Y-15190750D01*
X45616493Y-15124470D01*
X45616481Y-15124467D01*
X45446609Y-15090677D01*
X45446606Y-15090677D01*
X45273394Y-15090677D01*
X45273391Y-15090677D01*
X45103518Y-15124467D01*
X45103506Y-15124470D01*
X44943490Y-15190750D01*
X44943477Y-15190757D01*
X44799464Y-15286984D01*
X44799460Y-15286987D01*
X44676987Y-15409460D01*
X44676984Y-15409464D01*
X44580757Y-15553477D01*
X44580750Y-15553490D01*
X44514470Y-15713506D01*
X44514467Y-15713518D01*
X44480677Y-15883389D01*
X23590500Y-15883389D01*
X23590500Y-9157525D01*
X45679500Y-9157525D01*
X45679500Y-9302475D01*
X45705498Y-9399500D01*
X45717017Y-9442488D01*
X45789488Y-9568011D01*
X45789490Y-9568013D01*
X45789491Y-9568015D01*
X45891985Y-9670509D01*
X45891986Y-9670510D01*
X45891988Y-9670511D01*
X46017511Y-9742982D01*
X46017512Y-9742982D01*
X46017515Y-9742984D01*
X46157525Y-9780500D01*
X46162745Y-9780500D01*
X46229784Y-9800185D01*
X46250426Y-9816819D01*
X46629518Y-10195910D01*
X46629520Y-10195913D01*
X46704087Y-10270480D01*
X46734459Y-10288015D01*
X46795412Y-10323207D01*
X46897273Y-10350500D01*
X59110614Y-10350500D01*
X59177653Y-10370185D01*
X59198295Y-10386819D01*
X59201985Y-10390509D01*
X59201986Y-10390510D01*
X59201988Y-10390511D01*
X59327511Y-10462982D01*
X59327512Y-10462982D01*
X59327515Y-10462984D01*
X59467525Y-10500500D01*
X59467528Y-10500500D01*
X59612472Y-10500500D01*
X59612475Y-10500500D01*
X59752485Y-10462984D01*
X59878015Y-10390509D01*
X59980509Y-10288015D01*
X60052984Y-10162485D01*
X60090500Y-10022475D01*
X60090500Y-9877525D01*
X60052984Y-9737515D01*
X60014296Y-9670506D01*
X59980511Y-9611988D01*
X59980506Y-9611982D01*
X59878017Y-9509493D01*
X59878011Y-9509488D01*
X59752488Y-9437017D01*
X59752489Y-9437017D01*
X59741006Y-9433940D01*
X59612475Y-9399500D01*
X59467525Y-9399500D01*
X59338993Y-9433940D01*
X59327511Y-9437017D01*
X59201988Y-9509488D01*
X59201982Y-9509493D01*
X59198295Y-9513181D01*
X59136972Y-9546666D01*
X59110614Y-9549500D01*
X47167254Y-9549500D01*
X47100215Y-9529815D01*
X47079573Y-9513181D01*
X46816819Y-9250426D01*
X46783334Y-9189103D01*
X46780500Y-9162745D01*
X46780500Y-9157527D01*
X46780500Y-9157525D01*
X46742984Y-9017515D01*
X46670509Y-8891985D01*
X46568015Y-8789491D01*
X46568013Y-8789490D01*
X46568011Y-8789488D01*
X46442488Y-8717017D01*
X46442489Y-8717017D01*
X46418167Y-8710500D01*
X46302475Y-8679500D01*
X46157525Y-8679500D01*
X46041833Y-8710500D01*
X46017511Y-8717017D01*
X45891988Y-8789488D01*
X45891982Y-8789493D01*
X45789493Y-8891982D01*
X45789488Y-8891988D01*
X45717017Y-9017511D01*
X45717016Y-9017515D01*
X45679500Y-9157525D01*
X23590500Y-9157525D01*
X23590500Y-8237525D01*
X54089500Y-8237525D01*
X54089500Y-8382475D01*
X54127016Y-8522485D01*
X54127017Y-8522488D01*
X54199488Y-8648011D01*
X54199490Y-8648013D01*
X54199491Y-8648015D01*
X54301985Y-8750509D01*
X54301986Y-8750510D01*
X54301988Y-8750511D01*
X54427511Y-8822982D01*
X54427512Y-8822982D01*
X54427515Y-8822984D01*
X54567525Y-8860500D01*
X54567528Y-8860500D01*
X54712472Y-8860500D01*
X54712475Y-8860500D01*
X54852485Y-8822984D01*
X54978015Y-8750509D01*
X54981705Y-8746819D01*
X55043028Y-8713334D01*
X55069386Y-8710500D01*
X56332725Y-8710500D01*
X56332727Y-8710500D01*
X56434588Y-8683207D01*
X56525913Y-8630480D01*
X59859574Y-5296819D01*
X59920897Y-5263334D01*
X59947255Y-5260500D01*
X59952472Y-5260500D01*
X59952475Y-5260500D01*
X60092485Y-5222984D01*
X60192935Y-5164989D01*
X75908100Y-5164989D01*
X75908100Y-5338211D01*
X75935198Y-5509301D01*
X75988727Y-5674045D01*
X76067368Y-5828388D01*
X76169186Y-5968528D01*
X76291672Y-6091014D01*
X76431812Y-6192832D01*
X76586155Y-6271473D01*
X76750899Y-6325002D01*
X76921989Y-6352100D01*
X76921990Y-6352100D01*
X77095210Y-6352100D01*
X77095211Y-6352100D01*
X77266301Y-6325002D01*
X77431045Y-6271473D01*
X77585388Y-6192832D01*
X77725528Y-6091014D01*
X77848014Y-5968528D01*
X77949832Y-5828388D01*
X78028473Y-5674045D01*
X78082002Y-5509301D01*
X78109100Y-5338211D01*
X78109100Y-5164989D01*
X78082002Y-4993899D01*
X78028473Y-4829155D01*
X77949832Y-4674812D01*
X77848014Y-4534672D01*
X77725528Y-4412186D01*
X77585388Y-4310368D01*
X77431045Y-4231727D01*
X77266301Y-4178198D01*
X77266299Y-4178197D01*
X77266298Y-4178197D01*
X77134871Y-4157381D01*
X77095211Y-4151100D01*
X76921989Y-4151100D01*
X76882328Y-4157381D01*
X76750902Y-4178197D01*
X76586152Y-4231728D01*
X76431811Y-4310368D01*
X76351856Y-4368459D01*
X76291672Y-4412186D01*
X76291670Y-4412188D01*
X76291669Y-4412188D01*
X76169188Y-4534669D01*
X76169188Y-4534670D01*
X76169186Y-4534672D01*
X76150732Y-4560072D01*
X76067368Y-4674811D01*
X75988728Y-4829152D01*
X75935197Y-4993902D01*
X75922759Y-5072436D01*
X75908100Y-5164989D01*
X60192935Y-5164989D01*
X60218015Y-5150509D01*
X60320509Y-5048015D01*
X60392984Y-4922485D01*
X60430500Y-4782475D01*
X60430500Y-4637525D01*
X60392984Y-4497515D01*
X60364406Y-4448017D01*
X60320511Y-4371988D01*
X60320506Y-4371982D01*
X60218017Y-4269493D01*
X60218011Y-4269488D01*
X60092488Y-4197017D01*
X60092489Y-4197017D01*
X60081006Y-4193940D01*
X59952475Y-4159500D01*
X59807525Y-4159500D01*
X59678993Y-4193940D01*
X59667511Y-4197017D01*
X59541988Y-4269488D01*
X59541982Y-4269493D01*
X59439493Y-4371982D01*
X59439488Y-4371988D01*
X59367017Y-4497511D01*
X59367016Y-4497515D01*
X59329500Y-4637525D01*
X59329500Y-4637527D01*
X59329500Y-4642745D01*
X59309815Y-4709784D01*
X59293181Y-4730426D01*
X56150426Y-7873181D01*
X56089103Y-7906666D01*
X56062745Y-7909500D01*
X55069386Y-7909500D01*
X55002347Y-7889815D01*
X54981705Y-7873181D01*
X54978017Y-7869493D01*
X54978011Y-7869488D01*
X54852488Y-7797017D01*
X54852489Y-7797017D01*
X54841006Y-7793940D01*
X54712475Y-7759500D01*
X54567525Y-7759500D01*
X54438993Y-7793940D01*
X54427511Y-7797017D01*
X54301988Y-7869488D01*
X54301982Y-7869493D01*
X54199493Y-7971982D01*
X54199488Y-7971988D01*
X54127017Y-8097511D01*
X54127016Y-8097515D01*
X54089500Y-8237525D01*
X23590500Y-8237525D01*
X23590500Y-2650389D01*
X27622700Y-2650389D01*
X27622700Y-2823610D01*
X27649341Y-2991821D01*
X27649798Y-2994701D01*
X27703327Y-3159445D01*
X27781968Y-3313788D01*
X27883786Y-3453928D01*
X28006272Y-3576414D01*
X28146412Y-3678232D01*
X28300755Y-3756873D01*
X28465499Y-3810402D01*
X28636589Y-3837500D01*
X28636590Y-3837500D01*
X28809810Y-3837500D01*
X28809811Y-3837500D01*
X28980901Y-3810402D01*
X29145645Y-3756873D01*
X29299988Y-3678232D01*
X29440128Y-3576414D01*
X29562614Y-3453928D01*
X29664432Y-3313788D01*
X29719757Y-3205206D01*
X29767731Y-3154409D01*
X29830242Y-3137500D01*
X31745725Y-3137500D01*
X31745727Y-3137500D01*
X31847588Y-3110207D01*
X31938913Y-3057480D01*
X35239573Y243182D01*
X35300896Y276666D01*
X35327254Y279500D01*
X37720614Y279500D01*
X37787653Y259815D01*
X37791856Y256992D01*
X37800673Y250803D01*
X37811985Y239491D01*
X37839045Y223868D01*
X37843531Y220719D01*
X37862031Y197519D01*
X37882504Y176048D01*
X37883572Y170505D01*
X37887092Y166091D01*
X37890111Y136579D01*
X37895728Y107441D01*
X37893629Y102200D01*
X37894204Y96585D01*
X37880789Y70126D01*
X37869760Y42576D01*
X37864519Y38035D01*
X37862609Y34267D01*
X37855069Y29846D01*
X37834296Y11844D01*
X37831991Y10514D01*
X37831982Y10507D01*
X37729493Y-91982D01*
X37729488Y-91988D01*
X37657017Y-217511D01*
X37657016Y-217515D01*
X37619500Y-357525D01*
X37619500Y-357527D01*
X37619500Y-362745D01*
X37599815Y-429784D01*
X37583181Y-450426D01*
X33193426Y-4840181D01*
X33132103Y-4873666D01*
X33105745Y-4876500D01*
X29830242Y-4876500D01*
X29763203Y-4856815D01*
X29719757Y-4808794D01*
X29664433Y-4700213D01*
X29635579Y-4660500D01*
X29562614Y-4560072D01*
X29440128Y-4437586D01*
X29299988Y-4335768D01*
X29145645Y-4257127D01*
X28980901Y-4203598D01*
X28980899Y-4203597D01*
X28980898Y-4203597D01*
X28847517Y-4182472D01*
X28809811Y-4176500D01*
X28636589Y-4176500D01*
X28598883Y-4182472D01*
X28465502Y-4203597D01*
X28300752Y-4257128D01*
X28146411Y-4335768D01*
X28066456Y-4393859D01*
X28006272Y-4437586D01*
X28006270Y-4437588D01*
X28006269Y-4437588D01*
X27883788Y-4560069D01*
X27883788Y-4560070D01*
X27883786Y-4560072D01*
X27840059Y-4620256D01*
X27781968Y-4700211D01*
X27703328Y-4854552D01*
X27649797Y-5019302D01*
X27641382Y-5072436D01*
X27622700Y-5190389D01*
X27622700Y-5363611D01*
X27649798Y-5534701D01*
X27703327Y-5699445D01*
X27781968Y-5853788D01*
X27883786Y-5993928D01*
X28006272Y-6116414D01*
X28146412Y-6218232D01*
X28300755Y-6296873D01*
X28465499Y-6350402D01*
X28636589Y-6377500D01*
X28636590Y-6377500D01*
X28809810Y-6377500D01*
X28809811Y-6377500D01*
X28980901Y-6350402D01*
X29145645Y-6296873D01*
X29299988Y-6218232D01*
X29440128Y-6116414D01*
X29562614Y-5993928D01*
X29664432Y-5853788D01*
X29719757Y-5745206D01*
X29767731Y-5694409D01*
X29830242Y-5677500D01*
X33375725Y-5677500D01*
X33375727Y-5677500D01*
X33477588Y-5650207D01*
X33568913Y-5597480D01*
X36321134Y-2845259D01*
X57529500Y-2845259D01*
X57529500Y-2990209D01*
X57561654Y-3110207D01*
X57567017Y-3130222D01*
X57639488Y-3255745D01*
X57639490Y-3255747D01*
X57639491Y-3255749D01*
X57741985Y-3358243D01*
X57741986Y-3358244D01*
X57741988Y-3358245D01*
X57867511Y-3430716D01*
X57867513Y-3430717D01*
X57867515Y-3430718D01*
X57907593Y-3441456D01*
X57967253Y-3477820D01*
X57997783Y-3540667D01*
X57999500Y-3561231D01*
X57999500Y-3680614D01*
X57979815Y-3747653D01*
X57963181Y-3768295D01*
X57959493Y-3771982D01*
X57959488Y-3771988D01*
X57887017Y-3897511D01*
X57887016Y-3897515D01*
X57849500Y-4037525D01*
X57849500Y-4182475D01*
X57872817Y-4269493D01*
X57887017Y-4322488D01*
X57959488Y-4448011D01*
X57959490Y-4448013D01*
X57959491Y-4448015D01*
X58061985Y-4550509D01*
X58061986Y-4550510D01*
X58061988Y-4550511D01*
X58187511Y-4622982D01*
X58187512Y-4622982D01*
X58187515Y-4622984D01*
X58327525Y-4660500D01*
X58327528Y-4660500D01*
X58472472Y-4660500D01*
X58472475Y-4660500D01*
X58612485Y-4622984D01*
X58738015Y-4550509D01*
X58840509Y-4448015D01*
X58912984Y-4322485D01*
X58950500Y-4182475D01*
X58950500Y-4037525D01*
X58912984Y-3897515D01*
X58878334Y-3837500D01*
X58840511Y-3771988D01*
X58840506Y-3771982D01*
X58836819Y-3768295D01*
X58803334Y-3706972D01*
X58800500Y-3680614D01*
X58800500Y-3185009D01*
X58800500Y-3185007D01*
X58773207Y-3083147D01*
X58720480Y-2991821D01*
X58666819Y-2938160D01*
X58635501Y-2885339D01*
X58630500Y-2868267D01*
X58630500Y-2845259D01*
X58592984Y-2705249D01*
X58546646Y-2624989D01*
X75908100Y-2624989D01*
X75908100Y-2798210D01*
X75930265Y-2938160D01*
X75935198Y-2969301D01*
X75988727Y-3134045D01*
X76067368Y-3288388D01*
X76169186Y-3428528D01*
X76291672Y-3551014D01*
X76431812Y-3652832D01*
X76586155Y-3731473D01*
X76750899Y-3785002D01*
X76921989Y-3812100D01*
X76921990Y-3812100D01*
X77095210Y-3812100D01*
X77095211Y-3812100D01*
X77266301Y-3785002D01*
X77431045Y-3731473D01*
X77585388Y-3652832D01*
X77725528Y-3551014D01*
X77848014Y-3428528D01*
X77949832Y-3288388D01*
X78028473Y-3134045D01*
X78082002Y-2969301D01*
X78109100Y-2798211D01*
X78109100Y-2624989D01*
X78082002Y-2453899D01*
X78028473Y-2289155D01*
X77949832Y-2134812D01*
X77848014Y-1994672D01*
X77725528Y-1872186D01*
X77585388Y-1770368D01*
X77431045Y-1691727D01*
X77266301Y-1638198D01*
X77266299Y-1638197D01*
X77266298Y-1638197D01*
X77134871Y-1617381D01*
X77095211Y-1611100D01*
X76921989Y-1611100D01*
X76882328Y-1617381D01*
X76750902Y-1638197D01*
X76750899Y-1638198D01*
X76592040Y-1689815D01*
X76586152Y-1691728D01*
X76431811Y-1770368D01*
X76351856Y-1828459D01*
X76291672Y-1872186D01*
X76291670Y-1872188D01*
X76291669Y-1872188D01*
X76169188Y-1994669D01*
X76169188Y-1994670D01*
X76169186Y-1994672D01*
X76150732Y-2020072D01*
X76067368Y-2134811D01*
X75988728Y-2289152D01*
X75935197Y-2453902D01*
X75908100Y-2624989D01*
X58546646Y-2624989D01*
X58520509Y-2579719D01*
X58418015Y-2477225D01*
X58418013Y-2477224D01*
X58418011Y-2477222D01*
X58292488Y-2404751D01*
X58292489Y-2404751D01*
X58281006Y-2401674D01*
X58152475Y-2367234D01*
X58007525Y-2367234D01*
X57878993Y-2401674D01*
X57867511Y-2404751D01*
X57741988Y-2477222D01*
X57741982Y-2477227D01*
X57639493Y-2579716D01*
X57639488Y-2579722D01*
X57567017Y-2705245D01*
X57567016Y-2705249D01*
X57529500Y-2845259D01*
X36321134Y-2845259D01*
X37393868Y-1772525D01*
X45484500Y-1772525D01*
X45484500Y-1917475D01*
X45520633Y-2052323D01*
X45522017Y-2057488D01*
X45594488Y-2183011D01*
X45594490Y-2183013D01*
X45594491Y-2183015D01*
X45696985Y-2285509D01*
X45696986Y-2285510D01*
X45696988Y-2285511D01*
X45822511Y-2357982D01*
X45822512Y-2357982D01*
X45822515Y-2357984D01*
X45962525Y-2395500D01*
X45967745Y-2395500D01*
X45998089Y-2404218D01*
X46003995Y-2404066D01*
X46013039Y-2408514D01*
X46033568Y-2414413D01*
X46045482Y-2421875D01*
X46054087Y-2430480D01*
X46117747Y-2467234D01*
X46132817Y-2475935D01*
X46145407Y-2483204D01*
X46145410Y-2483206D01*
X46145412Y-2483206D01*
X46145413Y-2483207D01*
X46247273Y-2510501D01*
X46247275Y-2510501D01*
X46360323Y-2510501D01*
X46360339Y-2510500D01*
X46762745Y-2510500D01*
X46829784Y-2530185D01*
X46850426Y-2546819D01*
X46904087Y-2600480D01*
X46995412Y-2653207D01*
X47097273Y-2680500D01*
X47097275Y-2680500D01*
X51592725Y-2680500D01*
X51592727Y-2680500D01*
X51694588Y-2653207D01*
X51785913Y-2600480D01*
X52410235Y-1976158D01*
X52471558Y-1942673D01*
X52497916Y-1939839D01*
X53279953Y-1939839D01*
X53346992Y-1959524D01*
X53367634Y-1976158D01*
X53371324Y-1979848D01*
X53371325Y-1979849D01*
X53371327Y-1979850D01*
X53496850Y-2052321D01*
X53496851Y-2052321D01*
X53496854Y-2052323D01*
X53636864Y-2089839D01*
X53636867Y-2089839D01*
X53781811Y-2089839D01*
X53781814Y-2089839D01*
X53921824Y-2052323D01*
X54047354Y-1979848D01*
X54149848Y-1877354D01*
X54222323Y-1751824D01*
X54259839Y-1611814D01*
X54259839Y-1466864D01*
X54222323Y-1326854D01*
X54205375Y-1297500D01*
X54149850Y-1201327D01*
X54149845Y-1201321D01*
X54047356Y-1098832D01*
X54047350Y-1098827D01*
X53921827Y-1026356D01*
X53921828Y-1026356D01*
X53910345Y-1023279D01*
X53781814Y-988839D01*
X53636864Y-988839D01*
X53508332Y-1023279D01*
X53496850Y-1026356D01*
X53371327Y-1098827D01*
X53371321Y-1098832D01*
X53367634Y-1102520D01*
X53306311Y-1136005D01*
X53279953Y-1138839D01*
X52227934Y-1138839D01*
X52126071Y-1166132D01*
X52034748Y-1218859D01*
X52034745Y-1218861D01*
X51410426Y-1843181D01*
X51349103Y-1876666D01*
X51322745Y-1879500D01*
X47367255Y-1879500D01*
X47300216Y-1859815D01*
X47279574Y-1843181D01*
X47225915Y-1789522D01*
X47225913Y-1789520D01*
X47180250Y-1763156D01*
X47134589Y-1736793D01*
X47083657Y-1723146D01*
X47032727Y-1709500D01*
X47032726Y-1709500D01*
X46662726Y-1709500D01*
X46595687Y-1689815D01*
X46552105Y-1639519D01*
X46552048Y-1639553D01*
X46551874Y-1639253D01*
X46549932Y-1637011D01*
X46548161Y-1632943D01*
X46547985Y-1632521D01*
X46547984Y-1632515D01*
X46475509Y-1506985D01*
X46373015Y-1404491D01*
X46373013Y-1404490D01*
X46373011Y-1404488D01*
X46247488Y-1332017D01*
X46247489Y-1332017D01*
X46228205Y-1326850D01*
X46107475Y-1294500D01*
X45962525Y-1294500D01*
X45841795Y-1326850D01*
X45822511Y-1332017D01*
X45696988Y-1404488D01*
X45696982Y-1404493D01*
X45594493Y-1506982D01*
X45594488Y-1506988D01*
X45522017Y-1632511D01*
X45520139Y-1639519D01*
X45484500Y-1772525D01*
X37393868Y-1772525D01*
X38149574Y-1016819D01*
X38210897Y-983334D01*
X38237255Y-980500D01*
X38242472Y-980500D01*
X38242475Y-980500D01*
X38382485Y-942984D01*
X38508015Y-870509D01*
X38610509Y-768015D01*
X38682984Y-642485D01*
X38720500Y-502475D01*
X38720500Y-357525D01*
X38682984Y-217515D01*
X38610509Y-91985D01*
X38603513Y-84989D01*
X75908100Y-84989D01*
X75908100Y-258210D01*
X75932791Y-414107D01*
X75935198Y-429301D01*
X75988727Y-594045D01*
X76067368Y-748388D01*
X76169186Y-888528D01*
X76291672Y-1011014D01*
X76431812Y-1112832D01*
X76586155Y-1191473D01*
X76750899Y-1245002D01*
X76921989Y-1272100D01*
X76921990Y-1272100D01*
X77095210Y-1272100D01*
X77095211Y-1272100D01*
X77266301Y-1245002D01*
X77431045Y-1191473D01*
X77585388Y-1112832D01*
X77725528Y-1011014D01*
X77848014Y-888528D01*
X77949832Y-748388D01*
X78028473Y-594045D01*
X78082002Y-429301D01*
X78109100Y-258211D01*
X78109100Y-84989D01*
X78082002Y86101D01*
X78028473Y250845D01*
X77949832Y405188D01*
X77848014Y545328D01*
X77725528Y667814D01*
X77585388Y769632D01*
X77431045Y848273D01*
X77266301Y901802D01*
X77266299Y901803D01*
X77266298Y901803D01*
X77134871Y922619D01*
X77095211Y928900D01*
X76921989Y928900D01*
X76882328Y922619D01*
X76750902Y901803D01*
X76586152Y848272D01*
X76431811Y769632D01*
X76351856Y711541D01*
X76291672Y667814D01*
X76291670Y667812D01*
X76291669Y667812D01*
X76169188Y545331D01*
X76169188Y545330D01*
X76169186Y545328D01*
X76137694Y501983D01*
X76067368Y405189D01*
X75988728Y250848D01*
X75935197Y86098D01*
X75908100Y-84989D01*
X38603513Y-84989D01*
X38508015Y10509D01*
X38485708Y23388D01*
X38437494Y73955D01*
X38424272Y142562D01*
X38450240Y207426D01*
X38485714Y238163D01*
X38488015Y239491D01*
X38590509Y341985D01*
X38662984Y467515D01*
X38700500Y607525D01*
X38700500Y752475D01*
X38662984Y892485D01*
X38657604Y901803D01*
X38590511Y1018012D01*
X38590506Y1018018D01*
X38488017Y1120507D01*
X38488011Y1120512D01*
X38362488Y1192983D01*
X38362489Y1192983D01*
X38351006Y1196060D01*
X38222475Y1230500D01*
X38077525Y1230500D01*
X37948993Y1196060D01*
X37937511Y1192983D01*
X37811988Y1120512D01*
X37811982Y1120507D01*
X37808295Y1116819D01*
X37746972Y1083334D01*
X37720614Y1080500D01*
X35170339Y1080500D01*
X35170323Y1080501D01*
X35162727Y1080501D01*
X35057273Y1080501D01*
X34955412Y1053207D01*
X34909750Y1026844D01*
X34894453Y1018012D01*
X34864087Y1000480D01*
X34864084Y1000478D01*
X31563426Y-2300181D01*
X31502103Y-2333666D01*
X31475745Y-2336500D01*
X29830242Y-2336500D01*
X29763203Y-2316815D01*
X29719757Y-2268794D01*
X29664433Y-2160213D01*
X29645977Y-2134811D01*
X29562614Y-2020072D01*
X29440128Y-1897586D01*
X29299988Y-1795768D01*
X29145645Y-1717127D01*
X28980901Y-1663598D01*
X28980899Y-1663597D01*
X28980898Y-1663597D01*
X28849471Y-1642781D01*
X28809811Y-1636500D01*
X28636589Y-1636500D01*
X28596928Y-1642781D01*
X28465502Y-1663597D01*
X28300752Y-1717128D01*
X28146411Y-1795768D01*
X28081154Y-1843181D01*
X28006272Y-1897586D01*
X28006270Y-1897588D01*
X28006269Y-1897588D01*
X27883788Y-2020069D01*
X27883788Y-2020070D01*
X27883786Y-2020072D01*
X27860356Y-2052321D01*
X27781968Y-2160211D01*
X27703328Y-2314552D01*
X27649797Y-2479302D01*
X27622700Y-2650389D01*
X23590500Y-2650389D01*
X23590500Y-110389D01*
X27622700Y-110389D01*
X27622700Y-283610D01*
X27645851Y-429784D01*
X27649798Y-454701D01*
X27703327Y-619445D01*
X27781968Y-773788D01*
X27883786Y-913928D01*
X28006272Y-1036414D01*
X28146412Y-1138232D01*
X28300755Y-1216873D01*
X28465499Y-1270402D01*
X28636589Y-1297500D01*
X28636590Y-1297500D01*
X28809810Y-1297500D01*
X28809811Y-1297500D01*
X28980901Y-1270402D01*
X29145645Y-1216873D01*
X29299988Y-1138232D01*
X29440128Y-1036414D01*
X29562614Y-913928D01*
X29664432Y-773788D01*
X29743073Y-619445D01*
X29796602Y-454701D01*
X29823700Y-283611D01*
X29823700Y-110389D01*
X29796602Y60701D01*
X29743073Y225445D01*
X29664432Y379788D01*
X29562614Y519928D01*
X29440128Y642414D01*
X29299988Y744232D01*
X29145645Y822873D01*
X28980901Y876402D01*
X28980899Y876403D01*
X28980898Y876403D01*
X28849471Y897219D01*
X28809811Y903500D01*
X28636589Y903500D01*
X28596928Y897219D01*
X28465502Y876403D01*
X28300752Y822872D01*
X28146411Y744232D01*
X28068348Y687515D01*
X28006272Y642414D01*
X28006270Y642412D01*
X28006269Y642412D01*
X27883788Y519931D01*
X27883788Y519930D01*
X27883786Y519928D01*
X27845706Y467515D01*
X27781968Y379789D01*
X27703328Y225448D01*
X27649797Y60698D01*
X27622700Y-110389D01*
X23590500Y-110389D01*
X23590500Y2429611D01*
X27622700Y2429611D01*
X27622700Y2256390D01*
X27633606Y2187528D01*
X27649798Y2085299D01*
X27703327Y1920555D01*
X27781968Y1766212D01*
X27883786Y1626072D01*
X28006272Y1503586D01*
X28146412Y1401768D01*
X28300755Y1323127D01*
X28465499Y1269598D01*
X28636589Y1242500D01*
X28636590Y1242500D01*
X28809810Y1242500D01*
X28809811Y1242500D01*
X28980901Y1269598D01*
X29145645Y1323127D01*
X29299988Y1401768D01*
X29440128Y1503586D01*
X29562614Y1626072D01*
X29664432Y1766212D01*
X29743073Y1920555D01*
X29796602Y2085299D01*
X29823700Y2256389D01*
X29823700Y2429611D01*
X29796602Y2600701D01*
X29743073Y2765445D01*
X29664432Y2919788D01*
X29562614Y3059928D01*
X29440128Y3182414D01*
X29299988Y3284232D01*
X29145645Y3362873D01*
X28980901Y3416402D01*
X28980899Y3416403D01*
X28980898Y3416403D01*
X28849471Y3437219D01*
X28809811Y3443500D01*
X28636589Y3443500D01*
X28596928Y3437219D01*
X28465502Y3416403D01*
X28300752Y3362872D01*
X28146411Y3284232D01*
X28082778Y3237999D01*
X28006272Y3182414D01*
X28006270Y3182412D01*
X28006269Y3182412D01*
X27883788Y3059931D01*
X27883788Y3059930D01*
X27883786Y3059928D01*
X27864372Y3033207D01*
X27781968Y2919789D01*
X27703328Y2765448D01*
X27649797Y2600698D01*
X27622700Y2429611D01*
X23590500Y2429611D01*
X23590500Y4969611D01*
X27622700Y4969611D01*
X27622700Y4796389D01*
X27649798Y4625299D01*
X27703327Y4460555D01*
X27781968Y4306212D01*
X27883786Y4166072D01*
X28006272Y4043586D01*
X28146412Y3941768D01*
X28300755Y3863127D01*
X28465499Y3809598D01*
X28636589Y3782500D01*
X28636590Y3782500D01*
X28809810Y3782500D01*
X28809811Y3782500D01*
X28980901Y3809598D01*
X29145645Y3863127D01*
X29299988Y3941768D01*
X29440128Y4043586D01*
X29562614Y4166072D01*
X29664432Y4306212D01*
X29743073Y4460555D01*
X29796602Y4625299D01*
X29823700Y4796389D01*
X29823700Y4969611D01*
X29796602Y5140701D01*
X29743073Y5305445D01*
X29664432Y5459788D01*
X29562614Y5599928D01*
X29440128Y5722414D01*
X29299988Y5824232D01*
X29145645Y5902873D01*
X28980901Y5956402D01*
X28980899Y5956403D01*
X28980898Y5956403D01*
X28844385Y5978024D01*
X28809811Y5983500D01*
X28636589Y5983500D01*
X28602015Y5978024D01*
X28465502Y5956403D01*
X28300752Y5902872D01*
X28146411Y5824232D01*
X28066456Y5766141D01*
X28006272Y5722414D01*
X28006270Y5722412D01*
X28006269Y5722412D01*
X27883788Y5599931D01*
X27883788Y5599930D01*
X27883786Y5599928D01*
X27840059Y5539744D01*
X27781968Y5459789D01*
X27703328Y5305448D01*
X27649797Y5140698D01*
X27641295Y5087018D01*
X27622700Y4969611D01*
X23590500Y4969611D01*
X23590500Y7509611D01*
X27622700Y7509611D01*
X27622700Y7336390D01*
X27644733Y7197274D01*
X27649798Y7165299D01*
X27703327Y7000555D01*
X27781968Y6846212D01*
X27883786Y6706072D01*
X28006272Y6583586D01*
X28146412Y6481768D01*
X28300755Y6403127D01*
X28465499Y6349598D01*
X28636589Y6322500D01*
X28636590Y6322500D01*
X28809810Y6322500D01*
X28809811Y6322500D01*
X28980901Y6349598D01*
X29145645Y6403127D01*
X29299988Y6481768D01*
X29440128Y6583586D01*
X29562614Y6706072D01*
X29664432Y6846212D01*
X29743073Y7000555D01*
X29796602Y7165299D01*
X29823700Y7336389D01*
X29823700Y7509611D01*
X29822960Y7514282D01*
X29831914Y7583573D01*
X29857749Y7621358D01*
X29928866Y7692475D01*
X33319500Y7692475D01*
X33319500Y7547525D01*
X33329660Y7509609D01*
X33357017Y7407512D01*
X33429488Y7281989D01*
X33429493Y7281983D01*
X33433181Y7278295D01*
X33466666Y7216972D01*
X33467924Y7205266D01*
X33468439Y7205333D01*
X33469500Y7197274D01*
X33469500Y7197273D01*
X33478066Y7165303D01*
X33496793Y7095411D01*
X33523156Y7049750D01*
X33549520Y7004087D01*
X38214087Y2339520D01*
X38305412Y2286793D01*
X38407273Y2259500D01*
X50535066Y2259500D01*
X50602105Y2239815D01*
X50647860Y2187011D01*
X50654841Y2167594D01*
X50687017Y2047512D01*
X50759488Y1921989D01*
X50759490Y1921987D01*
X50759491Y1921985D01*
X50861985Y1819491D01*
X50861986Y1819490D01*
X50861988Y1819489D01*
X50987511Y1747018D01*
X50987512Y1747018D01*
X50987515Y1747016D01*
X51127525Y1709500D01*
X51127528Y1709500D01*
X51272472Y1709500D01*
X51272475Y1709500D01*
X51412485Y1747016D01*
X51538015Y1819491D01*
X51640509Y1921985D01*
X51712984Y2047515D01*
X51750500Y2187525D01*
X51750500Y2332475D01*
X51712984Y2472485D01*
X51640509Y2598015D01*
X51538015Y2700509D01*
X51538013Y2700510D01*
X51538011Y2700512D01*
X51412488Y2772983D01*
X51412489Y2772983D01*
X51401006Y2776060D01*
X51272475Y2810500D01*
X51272472Y2810500D01*
X51267255Y2810500D01*
X51200216Y2830185D01*
X51179574Y2846819D01*
X51045915Y2980478D01*
X51045913Y2980480D01*
X51000250Y3006844D01*
X50954589Y3033207D01*
X50903657Y3046854D01*
X50852727Y3060500D01*
X50852726Y3060500D01*
X38677255Y3060500D01*
X38610216Y3080185D01*
X38589574Y3096819D01*
X36063918Y5622475D01*
X45809500Y5622475D01*
X45809500Y5477525D01*
X45847016Y5337515D01*
X45847017Y5337512D01*
X45919488Y5211989D01*
X45919490Y5211987D01*
X45919491Y5211985D01*
X46021985Y5109491D01*
X46021986Y5109490D01*
X46021988Y5109489D01*
X46147511Y5037018D01*
X46147512Y5037018D01*
X46147515Y5037016D01*
X46287525Y4999500D01*
X46287528Y4999500D01*
X46432472Y4999500D01*
X46432475Y4999500D01*
X46572485Y5037016D01*
X46698015Y5109491D01*
X46701705Y5113181D01*
X46763028Y5146666D01*
X46789386Y5149500D01*
X55442745Y5149500D01*
X55509784Y5129815D01*
X55530426Y5113181D01*
X59723181Y920426D01*
X59756666Y859103D01*
X59759500Y832745D01*
X59759500Y827525D01*
X59781819Y744232D01*
X59797017Y687512D01*
X59869488Y561989D01*
X59869490Y561987D01*
X59869491Y561985D01*
X59971985Y459491D01*
X59971986Y459490D01*
X59971988Y459489D01*
X60097511Y387018D01*
X60097512Y387018D01*
X60097515Y387016D01*
X60237525Y349500D01*
X60237528Y349500D01*
X60382472Y349500D01*
X60382475Y349500D01*
X60522485Y387016D01*
X60648015Y459491D01*
X60750509Y561985D01*
X60822984Y687515D01*
X60860500Y827525D01*
X60860500Y912475D01*
X70519500Y912475D01*
X70519500Y767525D01*
X70557016Y627515D01*
X70557017Y627512D01*
X70629488Y501989D01*
X70629490Y501987D01*
X70629491Y501985D01*
X70731985Y399491D01*
X70731986Y399490D01*
X70731988Y399489D01*
X70857511Y327018D01*
X70857512Y327018D01*
X70857515Y327016D01*
X70997525Y289500D01*
X70997528Y289500D01*
X71142472Y289500D01*
X71142475Y289500D01*
X71282485Y327016D01*
X71408015Y399491D01*
X71510509Y501985D01*
X71582984Y627515D01*
X71620500Y767525D01*
X71620500Y772747D01*
X71640185Y839786D01*
X71656814Y860423D01*
X73251402Y2455011D01*
X75908100Y2455011D01*
X75908100Y2281789D01*
X75935198Y2110699D01*
X75988727Y1945955D01*
X76067368Y1791612D01*
X76169186Y1651472D01*
X76291672Y1528986D01*
X76431812Y1427168D01*
X76586155Y1348527D01*
X76750899Y1294998D01*
X76921989Y1267900D01*
X76921990Y1267900D01*
X77095210Y1267900D01*
X77095211Y1267900D01*
X77266301Y1294998D01*
X77431045Y1348527D01*
X77585388Y1427168D01*
X77725528Y1528986D01*
X77848014Y1651472D01*
X77949832Y1791612D01*
X78028473Y1945955D01*
X78082002Y2110699D01*
X78109100Y2281789D01*
X78109100Y2455011D01*
X78082002Y2626101D01*
X78028473Y2790845D01*
X77949832Y2945188D01*
X77848014Y3085328D01*
X77725528Y3207814D01*
X77585388Y3309632D01*
X77431045Y3388273D01*
X77266301Y3441802D01*
X77266299Y3441803D01*
X77266298Y3441803D01*
X77134871Y3462619D01*
X77095211Y3468900D01*
X76921989Y3468900D01*
X76882328Y3462619D01*
X76750902Y3441803D01*
X76586152Y3388272D01*
X76431811Y3309632D01*
X76351856Y3251541D01*
X76291672Y3207814D01*
X76291670Y3207812D01*
X76291669Y3207812D01*
X76169188Y3085331D01*
X76169188Y3085330D01*
X76169186Y3085328D01*
X76150732Y3059928D01*
X76067368Y2945189D01*
X75988728Y2790848D01*
X75935197Y2626098D01*
X75930749Y2598012D01*
X75908100Y2455011D01*
X73251402Y2455011D01*
X75185703Y4389313D01*
X75185708Y4389316D01*
X75195911Y4399520D01*
X75195913Y4399520D01*
X75270480Y4474087D01*
X75323207Y4565413D01*
X75326202Y4576589D01*
X75350501Y4667273D01*
X75350501Y4772727D01*
X75350501Y4780322D01*
X75350500Y4780340D01*
X75350500Y4995011D01*
X75908100Y4995011D01*
X75908100Y4821789D01*
X75935198Y4650699D01*
X75962909Y4565413D01*
X75988728Y4485953D01*
X76001669Y4460555D01*
X76067368Y4331612D01*
X76169186Y4191472D01*
X76291672Y4068986D01*
X76431812Y3967168D01*
X76586155Y3888527D01*
X76750899Y3834998D01*
X76921989Y3807900D01*
X76921990Y3807900D01*
X77095210Y3807900D01*
X77095211Y3807900D01*
X77266301Y3834998D01*
X77431045Y3888527D01*
X77585388Y3967168D01*
X77725528Y4068986D01*
X77848014Y4191472D01*
X77949832Y4331612D01*
X78028473Y4485955D01*
X78082002Y4650699D01*
X78109100Y4821789D01*
X78109100Y4995011D01*
X78082002Y5166101D01*
X78028473Y5330845D01*
X77949832Y5485188D01*
X77848014Y5625328D01*
X77725528Y5747814D01*
X77585388Y5849632D01*
X77431045Y5928273D01*
X77266301Y5981802D01*
X77266299Y5981803D01*
X77266298Y5981803D01*
X77132285Y6003028D01*
X77095211Y6008900D01*
X76921989Y6008900D01*
X76884915Y6003028D01*
X76750902Y5981803D01*
X76586152Y5928272D01*
X76431811Y5849632D01*
X76351856Y5791541D01*
X76291672Y5747814D01*
X76291670Y5747812D01*
X76291669Y5747812D01*
X76169188Y5625331D01*
X76169188Y5625330D01*
X76169186Y5625328D01*
X76150732Y5599928D01*
X76067368Y5485189D01*
X75988728Y5330848D01*
X75935197Y5166098D01*
X75922672Y5087018D01*
X75908100Y4995011D01*
X75350500Y4995011D01*
X75350500Y7535011D01*
X75908100Y7535011D01*
X75908100Y7361790D01*
X75934156Y7197273D01*
X75935198Y7190699D01*
X75988727Y7025955D01*
X76067368Y6871612D01*
X76169186Y6731472D01*
X76291672Y6608986D01*
X76431812Y6507168D01*
X76586155Y6428527D01*
X76750899Y6374998D01*
X76921989Y6347900D01*
X76921990Y6347900D01*
X77095210Y6347900D01*
X77095211Y6347900D01*
X77266301Y6374998D01*
X77431045Y6428527D01*
X77585388Y6507168D01*
X77725528Y6608986D01*
X77848014Y6731472D01*
X77949832Y6871612D01*
X78028473Y7025955D01*
X78082002Y7190699D01*
X78109100Y7361789D01*
X78109100Y7535011D01*
X78082002Y7706101D01*
X78028473Y7870845D01*
X77949832Y8025188D01*
X77848014Y8165328D01*
X77725528Y8287814D01*
X77585388Y8389632D01*
X77431045Y8468273D01*
X77266301Y8521802D01*
X77266299Y8521803D01*
X77266298Y8521803D01*
X77134871Y8542619D01*
X77095211Y8548900D01*
X76921989Y8548900D01*
X76882328Y8542619D01*
X76750902Y8521803D01*
X76586152Y8468272D01*
X76431811Y8389632D01*
X76363480Y8339986D01*
X76291672Y8287814D01*
X76291670Y8287812D01*
X76291669Y8287812D01*
X76169188Y8165331D01*
X76169188Y8165330D01*
X76169186Y8165328D01*
X76150732Y8139928D01*
X76067368Y8025189D01*
X75988728Y7870848D01*
X75988727Y7870846D01*
X75988727Y7870845D01*
X75987124Y7865912D01*
X75935197Y7706098D01*
X75908100Y7535011D01*
X75350500Y7535011D01*
X75350500Y13287271D01*
X75350501Y13287284D01*
X75350501Y13402724D01*
X75350501Y13402726D01*
X75323207Y13504587D01*
X75323205Y13504590D01*
X75323206Y13504590D01*
X75319898Y13510319D01*
X75319896Y13510322D01*
X75315454Y13518015D01*
X75270480Y13595913D01*
X75195913Y13670480D01*
X75195910Y13670482D01*
X74504741Y14361651D01*
X73803890Y15062503D01*
X72476819Y16389574D01*
X72443334Y16450897D01*
X72442667Y16454174D01*
X72440500Y16465613D01*
X72440500Y16482475D01*
X72402984Y16622485D01*
X72330509Y16748015D01*
X72228015Y16850509D01*
X72228013Y16850510D01*
X72228011Y16850512D01*
X72102488Y16922983D01*
X72102489Y16922983D01*
X72091006Y16926060D01*
X71962475Y16960500D01*
X71817525Y16960500D01*
X71688993Y16926060D01*
X71677511Y16922983D01*
X71551988Y16850512D01*
X71551982Y16850507D01*
X71449493Y16748018D01*
X71449488Y16748012D01*
X71377017Y16622489D01*
X71377016Y16622485D01*
X71339500Y16482475D01*
X71339500Y16337525D01*
X71375676Y16202515D01*
X71377017Y16197512D01*
X71449488Y16071989D01*
X71449490Y16071987D01*
X71449491Y16071985D01*
X71551985Y15969491D01*
X71551986Y15969490D01*
X71551988Y15969489D01*
X71677511Y15897018D01*
X71677512Y15897018D01*
X71677515Y15897016D01*
X71817525Y15859500D01*
X71822745Y15859500D01*
X71889784Y15839815D01*
X71910426Y15823181D01*
X74513181Y13220427D01*
X74546666Y13159104D01*
X74549500Y13132746D01*
X74549500Y4937255D01*
X74529815Y4870216D01*
X74513181Y4849574D01*
X73833030Y4169424D01*
X73771707Y4135939D01*
X73702015Y4140923D01*
X73646082Y4182795D01*
X73637961Y4195107D01*
X73630509Y4208015D01*
X73528015Y4310509D01*
X73528013Y4310510D01*
X73528011Y4310512D01*
X73402488Y4382983D01*
X73402489Y4382983D01*
X73378854Y4389316D01*
X73262475Y4420500D01*
X73117525Y4420500D01*
X73001146Y4389316D01*
X72977511Y4382983D01*
X72851988Y4310512D01*
X72851982Y4310507D01*
X72848295Y4306819D01*
X72786972Y4273334D01*
X72760614Y4270500D01*
X72347289Y4270500D01*
X72299838Y4279938D01*
X72292486Y4282984D01*
X72257482Y4292363D01*
X72152475Y4320500D01*
X72007525Y4320500D01*
X71878993Y4286060D01*
X71867511Y4282983D01*
X71741988Y4210512D01*
X71741982Y4210507D01*
X71639493Y4108018D01*
X71639488Y4108012D01*
X71567017Y3982489D01*
X71567016Y3982485D01*
X71529500Y3842475D01*
X71529500Y3697525D01*
X71567016Y3557515D01*
X71567017Y3557512D01*
X71639488Y3431989D01*
X71639490Y3431987D01*
X71639491Y3431985D01*
X71741985Y3329491D01*
X71741986Y3329490D01*
X71741988Y3329489D01*
X71867511Y3257018D01*
X71867512Y3257018D01*
X71867515Y3257016D01*
X72007525Y3219500D01*
X72007528Y3219500D01*
X72152472Y3219500D01*
X72152475Y3219500D01*
X72292485Y3257016D01*
X72418015Y3329491D01*
X72520509Y3431985D01*
X72520509Y3431986D01*
X72521705Y3433181D01*
X72583028Y3466666D01*
X72609386Y3469500D01*
X72760614Y3469500D01*
X72827653Y3449815D01*
X72848295Y3433181D01*
X72851985Y3429491D01*
X72864894Y3422038D01*
X72913110Y3371471D01*
X72926333Y3302864D01*
X72900365Y3237999D01*
X72890575Y3226970D01*
X71090426Y1426819D01*
X71029103Y1393334D01*
X71002745Y1390500D01*
X70997525Y1390500D01*
X70868993Y1356060D01*
X70857511Y1352983D01*
X70731988Y1280512D01*
X70731982Y1280507D01*
X70629493Y1178018D01*
X70629488Y1178012D01*
X70557017Y1052489D01*
X70557016Y1052485D01*
X70519500Y912475D01*
X60860500Y912475D01*
X60860500Y972475D01*
X60822984Y1112485D01*
X60818352Y1120507D01*
X60750511Y1238012D01*
X60750506Y1238018D01*
X60648017Y1340507D01*
X60648011Y1340512D01*
X60522488Y1412983D01*
X60522489Y1412983D01*
X60511006Y1416060D01*
X60382475Y1450500D01*
X60382472Y1450500D01*
X60377255Y1450500D01*
X60310216Y1470185D01*
X60289574Y1486819D01*
X55905915Y5870478D01*
X55905913Y5870480D01*
X55849807Y5902873D01*
X55814589Y5923207D01*
X55745551Y5941705D01*
X55712727Y5950500D01*
X55712726Y5950500D01*
X46789386Y5950500D01*
X46722347Y5970185D01*
X46701705Y5986819D01*
X46698017Y5990507D01*
X46698011Y5990512D01*
X46572488Y6062983D01*
X46572489Y6062983D01*
X46561006Y6066060D01*
X46432475Y6100500D01*
X46287525Y6100500D01*
X46158993Y6066060D01*
X46147511Y6062983D01*
X46021988Y5990512D01*
X46021982Y5990507D01*
X45919493Y5888018D01*
X45919488Y5888012D01*
X45847017Y5762489D01*
X45847016Y5762485D01*
X45809500Y5622475D01*
X36063918Y5622475D01*
X34411078Y7275315D01*
X34377593Y7336638D01*
X34382077Y7399344D01*
X34380880Y7399664D01*
X34382544Y7405877D01*
X34382577Y7406330D01*
X34382856Y7407040D01*
X34382982Y7407513D01*
X34382984Y7407515D01*
X34420500Y7547525D01*
X34420500Y7692475D01*
X34382984Y7832485D01*
X34363684Y7865913D01*
X34310511Y7958012D01*
X34310506Y7958018D01*
X34208017Y8060507D01*
X34208011Y8060512D01*
X34082488Y8132983D01*
X34082489Y8132983D01*
X34056562Y8139930D01*
X33942475Y8170500D01*
X33797525Y8170500D01*
X33683438Y8139930D01*
X33657511Y8132983D01*
X33531988Y8060512D01*
X33531982Y8060507D01*
X33429493Y7958018D01*
X33429488Y7958012D01*
X33357017Y7832489D01*
X33357016Y7832485D01*
X33319500Y7692475D01*
X29928866Y7692475D01*
X31778867Y9542475D01*
X44159500Y9542475D01*
X44159500Y9397525D01*
X44197016Y9257515D01*
X44197017Y9257512D01*
X44269488Y9131989D01*
X44269490Y9131987D01*
X44269491Y9131985D01*
X44371985Y9029491D01*
X44371986Y9029490D01*
X44371988Y9029489D01*
X44497511Y8957018D01*
X44497512Y8957018D01*
X44497515Y8957016D01*
X44637525Y8919500D01*
X44637528Y8919500D01*
X44782472Y8919500D01*
X44782475Y8919500D01*
X44922485Y8957016D01*
X45048015Y9029491D01*
X45048020Y9029497D01*
X45053726Y9033874D01*
X45118894Y9059070D01*
X45129215Y9059500D01*
X60232725Y9059500D01*
X60232727Y9059500D01*
X60334588Y9086793D01*
X60425913Y9139520D01*
X61139574Y9853181D01*
X61200897Y9886666D01*
X61227255Y9889500D01*
X61232472Y9889500D01*
X61232475Y9889500D01*
X61372485Y9927016D01*
X61498015Y9999491D01*
X61600509Y10101985D01*
X61672984Y10227515D01*
X61710500Y10367525D01*
X61710500Y10512475D01*
X61672984Y10652485D01*
X61600509Y10778015D01*
X61498015Y10880509D01*
X61498013Y10880510D01*
X61498011Y10880512D01*
X61372488Y10952983D01*
X61372489Y10952983D01*
X61361006Y10956060D01*
X61232475Y10990500D01*
X61087525Y10990500D01*
X60958993Y10956060D01*
X60947511Y10952983D01*
X60821988Y10880512D01*
X60821982Y10880507D01*
X60719493Y10778018D01*
X60719488Y10778012D01*
X60647017Y10652489D01*
X60647016Y10652485D01*
X60609500Y10512475D01*
X60609500Y10512473D01*
X60609500Y10507255D01*
X60589815Y10440216D01*
X60573181Y10419574D01*
X60050426Y9896819D01*
X59989103Y9863334D01*
X59962745Y9860500D01*
X45149386Y9860500D01*
X45082347Y9880185D01*
X45061705Y9896819D01*
X45048017Y9910507D01*
X45048011Y9910512D01*
X44922488Y9982983D01*
X44922489Y9982983D01*
X44911006Y9986060D01*
X44782475Y10020500D01*
X44637525Y10020500D01*
X44508993Y9986060D01*
X44497511Y9982983D01*
X44371988Y9910512D01*
X44371982Y9910507D01*
X44269493Y9808018D01*
X44269488Y9808012D01*
X44197017Y9682489D01*
X44197016Y9682485D01*
X44159500Y9542475D01*
X31778867Y9542475D01*
X33729574Y11493181D01*
X33790897Y11526666D01*
X33817255Y11529500D01*
X65699852Y11529500D01*
X65766891Y11509815D01*
X65787533Y11493181D01*
X69653181Y7627533D01*
X69686666Y7566210D01*
X69689500Y7539852D01*
X69689500Y6029386D01*
X69669815Y5962347D01*
X69653181Y5941705D01*
X69649493Y5938018D01*
X69649488Y5938012D01*
X69577017Y5812489D01*
X69577016Y5812485D01*
X69539500Y5672475D01*
X69539500Y5527525D01*
X69577016Y5387515D01*
X69577017Y5387512D01*
X69649488Y5261989D01*
X69649490Y5261987D01*
X69649491Y5261985D01*
X69751985Y5159491D01*
X69751986Y5159490D01*
X69751988Y5159489D01*
X69877511Y5087018D01*
X69877512Y5087018D01*
X69877515Y5087016D01*
X70017525Y5049500D01*
X70017528Y5049500D01*
X70162472Y5049500D01*
X70162475Y5049500D01*
X70302485Y5087016D01*
X70428015Y5159491D01*
X70530509Y5261985D01*
X70602984Y5387515D01*
X70640500Y5527525D01*
X70640500Y5672475D01*
X70602984Y5812485D01*
X70569500Y5870480D01*
X70530511Y5938012D01*
X70530506Y5938018D01*
X70526819Y5941705D01*
X70493334Y6003028D01*
X70490500Y6029386D01*
X70490500Y7809832D01*
X70490499Y7809836D01*
X70484429Y7832489D01*
X70475474Y7865913D01*
X70463207Y7911695D01*
X70410480Y8003020D01*
X66163020Y12250480D01*
X66117357Y12276844D01*
X66071696Y12303207D01*
X66020764Y12316854D01*
X65969834Y12330500D01*
X33652727Y12330500D01*
X33547273Y12330500D01*
X33445410Y12303207D01*
X33354087Y12250480D01*
X33354084Y12250478D01*
X29472092Y8368487D01*
X29410769Y8335002D01*
X29341077Y8339986D01*
X29311526Y8355849D01*
X29299987Y8364233D01*
X29145647Y8442872D01*
X29145646Y8442873D01*
X29145645Y8442873D01*
X28980901Y8496402D01*
X28980899Y8496403D01*
X28980898Y8496403D01*
X28849471Y8517219D01*
X28809811Y8523500D01*
X28636589Y8523500D01*
X28596928Y8517219D01*
X28465502Y8496403D01*
X28300752Y8442872D01*
X28146411Y8364232D01*
X28113040Y8339986D01*
X28006272Y8262414D01*
X28006270Y8262412D01*
X28006269Y8262412D01*
X27883788Y8139931D01*
X27883788Y8139930D01*
X27883786Y8139928D01*
X27840059Y8079744D01*
X27781968Y7999789D01*
X27703328Y7845448D01*
X27649797Y7680698D01*
X27622700Y7509611D01*
X23590500Y7509611D01*
X23590500Y10049611D01*
X27622700Y10049611D01*
X27622700Y9876389D01*
X27649798Y9705299D01*
X27703327Y9540555D01*
X27781968Y9386212D01*
X27883786Y9246072D01*
X28006272Y9123586D01*
X28146412Y9021768D01*
X28300755Y8943127D01*
X28465499Y8889598D01*
X28636589Y8862500D01*
X28636590Y8862500D01*
X28809810Y8862500D01*
X28809811Y8862500D01*
X28980901Y8889598D01*
X29145645Y8943127D01*
X29299988Y9021768D01*
X29440128Y9123586D01*
X29562614Y9246072D01*
X29664432Y9386212D01*
X29743073Y9540555D01*
X29796602Y9705299D01*
X29823700Y9876389D01*
X29823700Y10049611D01*
X29796602Y10220701D01*
X29743073Y10385445D01*
X29664432Y10539788D01*
X29562614Y10679928D01*
X29440128Y10802414D01*
X29299988Y10904232D01*
X29145645Y10982873D01*
X28980901Y11036402D01*
X28980899Y11036403D01*
X28980898Y11036403D01*
X28849471Y11057219D01*
X28809811Y11063500D01*
X28636589Y11063500D01*
X28596928Y11057219D01*
X28465502Y11036403D01*
X28300752Y10982872D01*
X28146411Y10904232D01*
X28113764Y10880512D01*
X28006272Y10802414D01*
X28006270Y10802412D01*
X28006269Y10802412D01*
X27883788Y10679931D01*
X27883788Y10679930D01*
X27883786Y10679928D01*
X27840059Y10619744D01*
X27781968Y10539789D01*
X27703328Y10385448D01*
X27649797Y10220698D01*
X27630996Y10101989D01*
X27622700Y10049611D01*
X23590500Y10049611D01*
X23590500Y12589611D01*
X27622700Y12589611D01*
X27622700Y12416390D01*
X27648977Y12250478D01*
X27649798Y12245299D01*
X27703327Y12080555D01*
X27781968Y11926212D01*
X27883786Y11786072D01*
X28006272Y11663586D01*
X28146412Y11561768D01*
X28300755Y11483127D01*
X28465499Y11429598D01*
X28636589Y11402500D01*
X28636590Y11402500D01*
X28809810Y11402500D01*
X28809811Y11402500D01*
X28980901Y11429598D01*
X29145645Y11483127D01*
X29299988Y11561768D01*
X29440128Y11663586D01*
X29562614Y11786072D01*
X29664432Y11926212D01*
X29743073Y12080555D01*
X29796602Y12245299D01*
X29823700Y12416389D01*
X29823700Y12589611D01*
X29796602Y12760701D01*
X29743073Y12925445D01*
X29664432Y13079788D01*
X29562614Y13219928D01*
X29440128Y13342414D01*
X29299988Y13444232D01*
X29155179Y13518015D01*
X29145647Y13522872D01*
X29145646Y13522873D01*
X29145645Y13522873D01*
X28980901Y13576402D01*
X28980899Y13576403D01*
X28980898Y13576403D01*
X28849471Y13597219D01*
X28809811Y13603500D01*
X28636589Y13603500D01*
X28596928Y13597219D01*
X28465502Y13576403D01*
X28300752Y13522872D01*
X28146411Y13444232D01*
X28066456Y13386141D01*
X28006272Y13342414D01*
X28006270Y13342412D01*
X28006269Y13342412D01*
X27883788Y13219931D01*
X27883788Y13219930D01*
X27883786Y13219928D01*
X27857761Y13184108D01*
X27781968Y13079789D01*
X27703328Y12925448D01*
X27649797Y12760698D01*
X27622700Y12589611D01*
X23590500Y12589611D01*
X23590500Y15472475D01*
X49469500Y15472475D01*
X49469500Y15327525D01*
X49504369Y15197394D01*
X49507017Y15187512D01*
X49579488Y15061989D01*
X49579490Y15061987D01*
X49579491Y15061985D01*
X49681985Y14959491D01*
X49681986Y14959490D01*
X49681988Y14959489D01*
X49807511Y14887018D01*
X49807512Y14887018D01*
X49807515Y14887016D01*
X49947525Y14849500D01*
X49947528Y14849500D01*
X50092472Y14849500D01*
X50092475Y14849500D01*
X50232485Y14887016D01*
X50358015Y14959491D01*
X50361705Y14963181D01*
X50423028Y14996666D01*
X50449386Y14999500D01*
X51502725Y14999500D01*
X51502727Y14999500D01*
X51604588Y15026793D01*
X51695913Y15079520D01*
X54557893Y17941500D01*
X72117458Y17941500D01*
X72117458Y17796550D01*
X72147263Y17685318D01*
X72154975Y17656537D01*
X72227446Y17531014D01*
X72227448Y17531012D01*
X72227449Y17531010D01*
X72329943Y17428516D01*
X72329944Y17428515D01*
X72329946Y17428514D01*
X72455469Y17356043D01*
X72455470Y17356043D01*
X72455473Y17356041D01*
X72595483Y17318525D01*
X72595486Y17318525D01*
X72740430Y17318525D01*
X72740433Y17318525D01*
X72880443Y17356041D01*
X73005973Y17428516D01*
X73108467Y17531010D01*
X73180942Y17656540D01*
X73188653Y17685318D01*
X75708600Y17685318D01*
X75708600Y17480683D01*
X75740609Y17278583D01*
X75803844Y17083969D01*
X75896741Y16901650D01*
X75896747Y16901641D01*
X75929123Y16857079D01*
X75929124Y16857078D01*
X76608600Y17536554D01*
X76608600Y17530339D01*
X76635859Y17428606D01*
X76688520Y17337394D01*
X76762994Y17262920D01*
X76854206Y17210259D01*
X76955939Y17183000D01*
X76962153Y17183000D01*
X76282676Y16503526D01*
X76327250Y16471141D01*
X76420780Y16423485D01*
X76471576Y16375511D01*
X76488371Y16307690D01*
X76465834Y16241555D01*
X76420780Y16202515D01*
X76327244Y16154857D01*
X76282677Y16122477D01*
X76282677Y16122476D01*
X76962154Y15443000D01*
X76955939Y15443000D01*
X76854206Y15415741D01*
X76762994Y15363080D01*
X76688520Y15288606D01*
X76635859Y15197394D01*
X76608600Y15095661D01*
X76608600Y15089447D01*
X75929124Y15768923D01*
X75929123Y15768923D01*
X75896743Y15724356D01*
X75803844Y15542032D01*
X75740609Y15347418D01*
X75708600Y15145318D01*
X75708600Y14940683D01*
X75740609Y14738583D01*
X75803844Y14543969D01*
X75896741Y14361650D01*
X75896747Y14361641D01*
X75929123Y14317079D01*
X75929124Y14317078D01*
X76608600Y14996554D01*
X76608600Y14990339D01*
X76635859Y14888606D01*
X76688520Y14797394D01*
X76762994Y14722920D01*
X76854206Y14670259D01*
X76955939Y14643000D01*
X76962153Y14643000D01*
X76282676Y13963526D01*
X76327250Y13931141D01*
X76509570Y13838245D01*
X76670213Y13786048D01*
X76727889Y13746610D01*
X76755087Y13682252D01*
X76743172Y13613405D01*
X76695928Y13561930D01*
X76670215Y13550186D01*
X76586149Y13522871D01*
X76431811Y13444232D01*
X76351856Y13386141D01*
X76291672Y13342414D01*
X76291670Y13342412D01*
X76291669Y13342412D01*
X76169188Y13219931D01*
X76169188Y13219930D01*
X76169186Y13219928D01*
X76143161Y13184108D01*
X76067368Y13079789D01*
X75988728Y12925448D01*
X75935197Y12760698D01*
X75908100Y12589611D01*
X75908100Y12416390D01*
X75934377Y12250478D01*
X75935198Y12245299D01*
X75988727Y12080555D01*
X76067368Y11926212D01*
X76169186Y11786072D01*
X76291672Y11663586D01*
X76431812Y11561768D01*
X76586155Y11483127D01*
X76750899Y11429598D01*
X76921989Y11402500D01*
X76921990Y11402500D01*
X77095210Y11402500D01*
X77095211Y11402500D01*
X77266301Y11429598D01*
X77431045Y11483127D01*
X77585388Y11561768D01*
X77725528Y11663586D01*
X77848014Y11786072D01*
X77949832Y11926212D01*
X78028473Y12080555D01*
X78082002Y12245299D01*
X78109100Y12416389D01*
X78109100Y12589611D01*
X78082002Y12760701D01*
X78028473Y12925445D01*
X77949832Y13079788D01*
X77848014Y13219928D01*
X77725528Y13342414D01*
X77585388Y13444232D01*
X77431049Y13522872D01*
X77346985Y13550186D01*
X77289310Y13589624D01*
X77262112Y13653983D01*
X77274027Y13722829D01*
X77321272Y13774305D01*
X77346986Y13786048D01*
X77507629Y13838245D01*
X77689949Y13931141D01*
X77734521Y13963526D01*
X77055047Y14643000D01*
X77061261Y14643000D01*
X77162994Y14670259D01*
X77254206Y14722920D01*
X77328680Y14797394D01*
X77381341Y14888606D01*
X77408600Y14990339D01*
X77408600Y14996553D01*
X78088074Y14317079D01*
X78120459Y14361651D01*
X78213355Y14543969D01*
X78276590Y14738583D01*
X78308600Y14940683D01*
X78308600Y15145318D01*
X78276590Y15347418D01*
X78213355Y15542032D01*
X78120459Y15724350D01*
X78088074Y15768923D01*
X78088074Y15768924D01*
X77408600Y15089449D01*
X77408600Y15095661D01*
X77381341Y15197394D01*
X77328680Y15288606D01*
X77254206Y15363080D01*
X77162994Y15415741D01*
X77061261Y15443000D01*
X77055046Y15443000D01*
X77734522Y16122476D01*
X77734521Y16122477D01*
X77689959Y16154853D01*
X77689950Y16154859D01*
X77596419Y16202515D01*
X77545623Y16250489D01*
X77528828Y16318310D01*
X77551365Y16384445D01*
X77596420Y16423485D01*
X77689946Y16471139D01*
X77689947Y16471139D01*
X77734521Y16503526D01*
X77055047Y17183000D01*
X77061261Y17183000D01*
X77162994Y17210259D01*
X77254206Y17262920D01*
X77328680Y17337394D01*
X77381341Y17428606D01*
X77408600Y17530339D01*
X77408600Y17536553D01*
X78088074Y16857079D01*
X78120459Y16901651D01*
X78213355Y17083969D01*
X78276590Y17278583D01*
X78308600Y17480683D01*
X78308600Y17685318D01*
X78276590Y17887418D01*
X78213355Y18082032D01*
X78120459Y18264350D01*
X78088074Y18308923D01*
X78088074Y18308924D01*
X77408600Y17629449D01*
X77408600Y17635661D01*
X77381341Y17737394D01*
X77328680Y17828606D01*
X77254206Y17903080D01*
X77162994Y17955741D01*
X77061261Y17983000D01*
X77055046Y17983000D01*
X77734522Y18662476D01*
X77734521Y18662477D01*
X77689959Y18694853D01*
X77689950Y18694859D01*
X77507631Y18787756D01*
X77346985Y18839953D01*
X77289310Y18879391D01*
X77262112Y18943750D01*
X77274027Y19012596D01*
X77321271Y19064072D01*
X77346981Y19075813D01*
X77431045Y19103127D01*
X77585388Y19181768D01*
X77725528Y19283586D01*
X77848014Y19406072D01*
X77949832Y19546212D01*
X78028473Y19700555D01*
X78082002Y19865299D01*
X78109100Y20036389D01*
X78109100Y20209611D01*
X78082002Y20380701D01*
X78028473Y20545445D01*
X77949832Y20699788D01*
X77848014Y20839928D01*
X77725528Y20962414D01*
X77585388Y21064232D01*
X77431045Y21142873D01*
X77266301Y21196402D01*
X77266299Y21196403D01*
X77266298Y21196403D01*
X77134871Y21217219D01*
X77095211Y21223500D01*
X76921989Y21223500D01*
X76882328Y21217219D01*
X76750902Y21196403D01*
X76586152Y21142872D01*
X76431811Y21064232D01*
X76370245Y21019501D01*
X76291672Y20962414D01*
X76291670Y20962412D01*
X76291669Y20962412D01*
X76169188Y20839931D01*
X76169188Y20839930D01*
X76169186Y20839928D01*
X76125459Y20779744D01*
X76067368Y20699789D01*
X75988728Y20545448D01*
X75935197Y20380698D01*
X75908100Y20209611D01*
X75908100Y20036390D01*
X75933704Y19874728D01*
X75935198Y19865299D01*
X75988727Y19700555D01*
X76067368Y19546212D01*
X76169186Y19406072D01*
X76291672Y19283586D01*
X76431812Y19181768D01*
X76586155Y19103127D01*
X76670213Y19075815D01*
X76727889Y19036377D01*
X76755087Y18972019D01*
X76743172Y18903172D01*
X76695928Y18851697D01*
X76670214Y18839953D01*
X76509568Y18787756D01*
X76327244Y18694857D01*
X76282677Y18662477D01*
X76282677Y18662476D01*
X76962154Y17983000D01*
X76955939Y17983000D01*
X76854206Y17955741D01*
X76762994Y17903080D01*
X76688520Y17828606D01*
X76635859Y17737394D01*
X76608600Y17635661D01*
X76608600Y17629447D01*
X75929124Y18308923D01*
X75929123Y18308923D01*
X75896743Y18264356D01*
X75803844Y18082032D01*
X75740609Y17887418D01*
X75708600Y17685318D01*
X73188653Y17685318D01*
X73218458Y17796550D01*
X73218458Y17941500D01*
X73180942Y18081510D01*
X73148368Y18137929D01*
X73108469Y18207037D01*
X73108464Y18207043D01*
X73005975Y18309532D01*
X73005969Y18309537D01*
X72880446Y18382008D01*
X72880447Y18382008D01*
X72868964Y18385085D01*
X72740433Y18419525D01*
X72595483Y18419525D01*
X72466951Y18385085D01*
X72455469Y18382008D01*
X72329946Y18309537D01*
X72329940Y18309532D01*
X72227451Y18207043D01*
X72227446Y18207037D01*
X72154975Y18081514D01*
X72154974Y18081510D01*
X72117458Y17941500D01*
X54557893Y17941500D01*
X58089574Y21473181D01*
X58150897Y21506666D01*
X58177255Y21509500D01*
X58182472Y21509500D01*
X58182475Y21509500D01*
X58322485Y21547016D01*
X58448015Y21619491D01*
X58550509Y21721985D01*
X58622984Y21847515D01*
X58660500Y21987525D01*
X58660500Y22132475D01*
X58622984Y22272485D01*
X58621769Y22274589D01*
X58550511Y22398012D01*
X58550506Y22398018D01*
X58448017Y22500507D01*
X58448011Y22500512D01*
X58322488Y22572983D01*
X58322489Y22572983D01*
X58311006Y22576060D01*
X58182475Y22610500D01*
X58037525Y22610500D01*
X57908993Y22576060D01*
X57897511Y22572983D01*
X57771988Y22500512D01*
X57771982Y22500507D01*
X57669493Y22398018D01*
X57669488Y22398012D01*
X57597017Y22272489D01*
X57597016Y22272485D01*
X57559500Y22132475D01*
X57559500Y22132473D01*
X57559500Y22127255D01*
X57539815Y22060216D01*
X57523181Y22039574D01*
X51320426Y15836819D01*
X51259103Y15803334D01*
X51232745Y15800500D01*
X50449386Y15800500D01*
X50382347Y15820185D01*
X50361705Y15836819D01*
X50358017Y15840507D01*
X50358011Y15840512D01*
X50232488Y15912983D01*
X50232489Y15912983D01*
X50221006Y15916060D01*
X50092475Y15950500D01*
X49947525Y15950500D01*
X49818993Y15916060D01*
X49807511Y15912983D01*
X49681988Y15840512D01*
X49681982Y15840507D01*
X49579493Y15738018D01*
X49579488Y15738012D01*
X49507017Y15612489D01*
X49507016Y15612485D01*
X49469500Y15472475D01*
X23590500Y15472475D01*
X23590500Y16704411D01*
X27622700Y16704411D01*
X27622700Y16531190D01*
X27645129Y16389574D01*
X27649798Y16360099D01*
X27703327Y16195355D01*
X27781968Y16041012D01*
X27883786Y15900872D01*
X28006272Y15778386D01*
X28146412Y15676568D01*
X28300755Y15597927D01*
X28465499Y15544398D01*
X28636589Y15517300D01*
X28636590Y15517300D01*
X28809810Y15517300D01*
X28809811Y15517300D01*
X28980901Y15544398D01*
X29145645Y15597927D01*
X29299988Y15676568D01*
X29440128Y15778386D01*
X29562614Y15900872D01*
X29664432Y16041012D01*
X29743073Y16195355D01*
X29796602Y16360099D01*
X29823700Y16531189D01*
X29823700Y16704411D01*
X29796602Y16875501D01*
X29743073Y17040245D01*
X29664432Y17194588D01*
X29562614Y17334728D01*
X29440128Y17457214D01*
X29299988Y17559032D01*
X29145645Y17637673D01*
X28980901Y17691202D01*
X28980899Y17691203D01*
X28980898Y17691203D01*
X28849471Y17712019D01*
X28809811Y17718300D01*
X28636589Y17718300D01*
X28596928Y17712019D01*
X28465502Y17691203D01*
X28300752Y17637672D01*
X28146411Y17559032D01*
X28066456Y17500941D01*
X28006272Y17457214D01*
X28006270Y17457212D01*
X28006269Y17457212D01*
X27883788Y17334731D01*
X27883788Y17334730D01*
X27883786Y17334728D01*
X27872014Y17318525D01*
X27781968Y17194589D01*
X27703328Y17040248D01*
X27649797Y16875498D01*
X27622700Y16704411D01*
X23590500Y16704411D01*
X23590500Y19244411D01*
X27622700Y19244411D01*
X27622700Y19071189D01*
X27649798Y18900099D01*
X27703327Y18735355D01*
X27781968Y18581012D01*
X27883786Y18440872D01*
X28006272Y18318386D01*
X28146412Y18216568D01*
X28300755Y18137927D01*
X28465499Y18084398D01*
X28636589Y18057300D01*
X28636590Y18057300D01*
X28809810Y18057300D01*
X28809811Y18057300D01*
X28980901Y18084398D01*
X29145645Y18137927D01*
X29299988Y18216568D01*
X29440128Y18318386D01*
X29562614Y18440872D01*
X29664432Y18581012D01*
X29743073Y18735355D01*
X29796602Y18900099D01*
X29823700Y19071189D01*
X29823700Y19244411D01*
X29796602Y19415501D01*
X29743073Y19580245D01*
X29664432Y19734588D01*
X29562614Y19874728D01*
X29440128Y19997214D01*
X29299988Y20099032D01*
X29145645Y20177673D01*
X28980901Y20231202D01*
X28980899Y20231203D01*
X28980898Y20231203D01*
X28849471Y20252019D01*
X28809811Y20258300D01*
X28636589Y20258300D01*
X28596928Y20252019D01*
X28465502Y20231203D01*
X28300752Y20177672D01*
X28146411Y20099032D01*
X28066456Y20040941D01*
X28006272Y19997214D01*
X28006270Y19997212D01*
X28006269Y19997212D01*
X27883788Y19874731D01*
X27883788Y19874730D01*
X27883786Y19874728D01*
X27840059Y19814544D01*
X27781968Y19734589D01*
X27703328Y19580248D01*
X27649797Y19415498D01*
X27648304Y19406071D01*
X27622700Y19244411D01*
X23590500Y19244411D01*
X23590500Y21784411D01*
X27622700Y21784411D01*
X27622700Y21611189D01*
X27649798Y21440099D01*
X27703327Y21275355D01*
X27781968Y21121012D01*
X27883786Y20980872D01*
X28006272Y20858386D01*
X28146412Y20756568D01*
X28300755Y20677927D01*
X28465499Y20624398D01*
X28636589Y20597300D01*
X28636590Y20597300D01*
X28809810Y20597300D01*
X28809811Y20597300D01*
X28980901Y20624398D01*
X29145645Y20677927D01*
X29299988Y20756568D01*
X29440128Y20858386D01*
X29562614Y20980872D01*
X29664432Y21121012D01*
X29743073Y21275355D01*
X29796602Y21440099D01*
X29823700Y21611189D01*
X29823700Y21784411D01*
X29796602Y21955501D01*
X29743073Y22120245D01*
X29664432Y22274588D01*
X29562614Y22414728D01*
X29440128Y22537214D01*
X29299988Y22639032D01*
X29145645Y22717673D01*
X28980901Y22771202D01*
X28980899Y22771203D01*
X28980898Y22771203D01*
X28849471Y22792019D01*
X28809811Y22798300D01*
X28636589Y22798300D01*
X28596928Y22792019D01*
X28465502Y22771203D01*
X28300752Y22717672D01*
X28146411Y22639032D01*
X28107141Y22610500D01*
X28006272Y22537214D01*
X28006270Y22537212D01*
X28006269Y22537212D01*
X27883788Y22414731D01*
X27883788Y22414730D01*
X27883786Y22414728D01*
X27871641Y22398012D01*
X27781968Y22274589D01*
X27703328Y22120248D01*
X27649797Y21955498D01*
X27648304Y21946071D01*
X27622700Y21784411D01*
X23590500Y21784411D01*
X23590500Y24324411D01*
X27622700Y24324411D01*
X27622700Y24151189D01*
X27649798Y23980099D01*
X27703327Y23815355D01*
X27781968Y23661012D01*
X27883786Y23520872D01*
X28006272Y23398386D01*
X28146412Y23296568D01*
X28300755Y23217927D01*
X28465499Y23164398D01*
X28636589Y23137300D01*
X28636590Y23137300D01*
X28809810Y23137300D01*
X28809811Y23137300D01*
X28980901Y23164398D01*
X29145645Y23217927D01*
X29299988Y23296568D01*
X29440128Y23398386D01*
X29562614Y23520872D01*
X29664432Y23661012D01*
X29743073Y23815355D01*
X29796602Y23980099D01*
X29823700Y24151189D01*
X29823700Y24324411D01*
X29796602Y24495501D01*
X29743073Y24660245D01*
X29664432Y24814588D01*
X29562614Y24954728D01*
X29440128Y25077214D01*
X29299988Y25179032D01*
X29145645Y25257673D01*
X28980901Y25311202D01*
X28980899Y25311203D01*
X28980898Y25311203D01*
X28849471Y25332019D01*
X28809811Y25338300D01*
X28636589Y25338300D01*
X28596928Y25332019D01*
X28465502Y25311203D01*
X28300752Y25257672D01*
X28146411Y25179032D01*
X28066456Y25120941D01*
X28006272Y25077214D01*
X28006270Y25077212D01*
X28006269Y25077212D01*
X27883788Y24954731D01*
X27883788Y24954730D01*
X27883786Y24954728D01*
X27848734Y24906483D01*
X27781968Y24814589D01*
X27703328Y24660248D01*
X27649797Y24495498D01*
X27648304Y24486071D01*
X27622700Y24324411D01*
X23590500Y24324411D01*
X23590500Y26864411D01*
X27622700Y26864411D01*
X27622700Y26691189D01*
X27649798Y26520099D01*
X27703327Y26355355D01*
X27781968Y26201012D01*
X27883786Y26060872D01*
X28006272Y25938386D01*
X28146412Y25836568D01*
X28300755Y25757927D01*
X28465499Y25704398D01*
X28636589Y25677300D01*
X28636590Y25677300D01*
X28809810Y25677300D01*
X28809811Y25677300D01*
X28980901Y25704398D01*
X29145645Y25757927D01*
X29299988Y25836568D01*
X29321882Y25852475D01*
X43637000Y25852475D01*
X43637000Y25707525D01*
X43658993Y25625448D01*
X43674517Y25567512D01*
X43746988Y25441989D01*
X43746990Y25441987D01*
X43746991Y25441985D01*
X43849485Y25339491D01*
X43849486Y25339490D01*
X43849488Y25339489D01*
X43975011Y25267018D01*
X43975012Y25267018D01*
X43975015Y25267016D01*
X44115025Y25229500D01*
X44115028Y25229500D01*
X44259972Y25229500D01*
X44259975Y25229500D01*
X44399985Y25267016D01*
X44525515Y25339491D01*
X44628009Y25441985D01*
X44700484Y25567515D01*
X44738000Y25707525D01*
X44738000Y25852475D01*
X44700484Y25992485D01*
X44671657Y26042414D01*
X44628011Y26118012D01*
X44628006Y26118018D01*
X44525517Y26220507D01*
X44525511Y26220512D01*
X44399988Y26292983D01*
X44399989Y26292983D01*
X44360739Y26303500D01*
X44259975Y26330500D01*
X44115025Y26330500D01*
X44014261Y26303500D01*
X43975011Y26292983D01*
X43849488Y26220512D01*
X43849482Y26220507D01*
X43746993Y26118018D01*
X43746988Y26118012D01*
X43674517Y25992489D01*
X43674516Y25992485D01*
X43637000Y25852475D01*
X29321882Y25852475D01*
X29440128Y25938386D01*
X29562614Y26060872D01*
X29664432Y26201012D01*
X29743073Y26355355D01*
X29796602Y26520099D01*
X29823700Y26691189D01*
X29823700Y26864411D01*
X29796602Y27035501D01*
X29743073Y27200245D01*
X29664432Y27354588D01*
X29562614Y27494728D01*
X29440128Y27617214D01*
X29299988Y27719032D01*
X29145645Y27797673D01*
X28980901Y27851202D01*
X28980899Y27851203D01*
X28980898Y27851203D01*
X28849471Y27872019D01*
X28809811Y27878300D01*
X28636589Y27878300D01*
X28596928Y27872019D01*
X28465502Y27851203D01*
X28300752Y27797672D01*
X28146411Y27719032D01*
X28066456Y27660941D01*
X28006272Y27617214D01*
X28006270Y27617212D01*
X28006269Y27617212D01*
X27883788Y27494731D01*
X27883788Y27494730D01*
X27883786Y27494728D01*
X27840059Y27434544D01*
X27781968Y27354589D01*
X27703328Y27200248D01*
X27649797Y27035498D01*
X27648304Y27026071D01*
X27622700Y26864411D01*
X23590500Y26864411D01*
X23590500Y31960118D01*
X27423200Y31960118D01*
X27423200Y31755483D01*
X27455209Y31553383D01*
X27518444Y31358769D01*
X27611341Y31176450D01*
X27611347Y31176441D01*
X27643723Y31131879D01*
X27643724Y31131878D01*
X28323200Y31811354D01*
X28323200Y31805139D01*
X28350459Y31703406D01*
X28403120Y31612194D01*
X28477594Y31537720D01*
X28568806Y31485059D01*
X28670539Y31457800D01*
X28676753Y31457800D01*
X27997276Y30778326D01*
X28041850Y30745941D01*
X28224170Y30653045D01*
X28384813Y30600848D01*
X28442489Y30561410D01*
X28469687Y30497052D01*
X28457772Y30428205D01*
X28410528Y30376730D01*
X28384815Y30364986D01*
X28300749Y30337671D01*
X28146411Y30259032D01*
X28094016Y30220964D01*
X28006272Y30157214D01*
X28006270Y30157212D01*
X28006269Y30157212D01*
X27883788Y30034731D01*
X27883788Y30034730D01*
X27883786Y30034728D01*
X27840059Y29974544D01*
X27781968Y29894589D01*
X27703328Y29740248D01*
X27649797Y29575498D01*
X27622700Y29404411D01*
X27622700Y29231190D01*
X27633262Y29164500D01*
X27649798Y29060099D01*
X27703327Y28895355D01*
X27781968Y28741012D01*
X27883786Y28600872D01*
X28006272Y28478386D01*
X28146412Y28376568D01*
X28300755Y28297927D01*
X28465499Y28244398D01*
X28636589Y28217300D01*
X28636590Y28217300D01*
X28809810Y28217300D01*
X28809811Y28217300D01*
X28980901Y28244398D01*
X29145645Y28297927D01*
X29299988Y28376568D01*
X29440128Y28478386D01*
X29562614Y28600872D01*
X29664432Y28741012D01*
X29743073Y28895355D01*
X29796602Y29060099D01*
X29823700Y29231189D01*
X29823700Y29404411D01*
X29796602Y29575501D01*
X29743073Y29740245D01*
X29664432Y29894588D01*
X29562614Y30034728D01*
X29440128Y30157214D01*
X29299988Y30259032D01*
X29287294Y30265500D01*
X29145649Y30337672D01*
X29061585Y30364986D01*
X29003910Y30404424D01*
X28976712Y30468783D01*
X28988627Y30537629D01*
X29035872Y30589105D01*
X29061586Y30600848D01*
X29222229Y30653045D01*
X29404549Y30745941D01*
X29449121Y30778326D01*
X28769647Y31457800D01*
X28775861Y31457800D01*
X28877594Y31485059D01*
X28968806Y31537720D01*
X29043280Y31612194D01*
X29095941Y31703406D01*
X29123200Y31805139D01*
X29123200Y31811352D01*
X29802674Y31131878D01*
X29802674Y31131879D01*
X29835059Y31176451D01*
X29927955Y31358769D01*
X29991190Y31553383D01*
X30023200Y31755483D01*
X30023200Y31960118D01*
X29991190Y32162218D01*
X29927955Y32356832D01*
X29835059Y32539150D01*
X29802674Y32583723D01*
X29802674Y32583724D01*
X29123200Y31904249D01*
X29123200Y31910461D01*
X29095941Y32012194D01*
X29043280Y32103406D01*
X28968806Y32177880D01*
X28877594Y32230541D01*
X28775861Y32257800D01*
X28769646Y32257800D01*
X29449122Y32937276D01*
X29449121Y32937277D01*
X29404559Y32969653D01*
X29404550Y32969659D01*
X29222231Y33062556D01*
X29061585Y33114753D01*
X29003910Y33154191D01*
X28976712Y33218550D01*
X28988627Y33287396D01*
X29035871Y33338872D01*
X29061581Y33350613D01*
X29145645Y33377927D01*
X29299988Y33456568D01*
X29440128Y33558386D01*
X29562614Y33680872D01*
X29664432Y33821012D01*
X29743073Y33975355D01*
X29796602Y34140099D01*
X29823700Y34311189D01*
X29823700Y34484411D01*
X29796602Y34655501D01*
X29743073Y34820245D01*
X29664432Y34974588D01*
X29562614Y35114728D01*
X29440128Y35237214D01*
X29299988Y35339032D01*
X29145645Y35417673D01*
X28980901Y35471202D01*
X28980899Y35471203D01*
X28980898Y35471203D01*
X28849471Y35492019D01*
X28809811Y35498300D01*
X28636589Y35498300D01*
X28596928Y35492019D01*
X28465502Y35471203D01*
X28300752Y35417672D01*
X28146411Y35339032D01*
X28066456Y35280941D01*
X28006272Y35237214D01*
X28006270Y35237212D01*
X28006269Y35237212D01*
X27883788Y35114731D01*
X27883788Y35114730D01*
X27883786Y35114728D01*
X27840059Y35054544D01*
X27781968Y34974589D01*
X27703328Y34820248D01*
X27649797Y34655498D01*
X27641401Y34602485D01*
X27622700Y34484411D01*
X27622700Y34311189D01*
X27649798Y34140099D01*
X27703327Y33975355D01*
X27781968Y33821012D01*
X27883786Y33680872D01*
X28006272Y33558386D01*
X28146412Y33456568D01*
X28300755Y33377927D01*
X28384813Y33350615D01*
X28442489Y33311177D01*
X28469687Y33246819D01*
X28457772Y33177972D01*
X28410528Y33126497D01*
X28384814Y33114753D01*
X28224168Y33062556D01*
X28041844Y32969657D01*
X27997277Y32937277D01*
X27997277Y32937276D01*
X28676754Y32257800D01*
X28670539Y32257800D01*
X28568806Y32230541D01*
X28477594Y32177880D01*
X28403120Y32103406D01*
X28350459Y32012194D01*
X28323200Y31910461D01*
X28323200Y31904247D01*
X27643724Y32583723D01*
X27643723Y32583723D01*
X27611343Y32539156D01*
X27518444Y32356832D01*
X27455209Y32162218D01*
X27423200Y31960118D01*
X23590500Y31960118D01*
X23590500Y37024411D01*
X27622700Y37024411D01*
X27622700Y36851189D01*
X27649798Y36680099D01*
X27703327Y36515355D01*
X27781968Y36361012D01*
X27883786Y36220872D01*
X28006272Y36098386D01*
X28146412Y35996568D01*
X28300755Y35917927D01*
X28465499Y35864398D01*
X28636589Y35837300D01*
X28636590Y35837300D01*
X28809810Y35837300D01*
X28809811Y35837300D01*
X28980901Y35864398D01*
X29145645Y35917927D01*
X29299988Y35996568D01*
X29440128Y36098386D01*
X29562614Y36220872D01*
X29664432Y36361012D01*
X29743073Y36515355D01*
X29796602Y36680099D01*
X29823700Y36851189D01*
X29823700Y37024411D01*
X29796602Y37195501D01*
X29743073Y37360245D01*
X29664432Y37514588D01*
X29562614Y37654728D01*
X29440128Y37777214D01*
X29299988Y37879032D01*
X29145645Y37957673D01*
X28980901Y38011202D01*
X28980899Y38011203D01*
X28980898Y38011203D01*
X28849471Y38032019D01*
X28809811Y38038300D01*
X28636589Y38038300D01*
X28596928Y38032019D01*
X28465502Y38011203D01*
X28300752Y37957672D01*
X28146411Y37879032D01*
X28071198Y37824386D01*
X28006272Y37777214D01*
X28006270Y37777212D01*
X28006269Y37777212D01*
X27883788Y37654731D01*
X27883788Y37654730D01*
X27883786Y37654728D01*
X27849465Y37607489D01*
X27781968Y37514589D01*
X27703328Y37360248D01*
X27649797Y37195498D01*
X27640940Y37139574D01*
X27622700Y37024411D01*
X23590500Y37024411D01*
X23590500Y39564411D01*
X27622700Y39564411D01*
X27622700Y39391189D01*
X27649798Y39220099D01*
X27703327Y39055355D01*
X27781968Y38901012D01*
X27883786Y38760872D01*
X28006272Y38638386D01*
X28146412Y38536568D01*
X28300755Y38457927D01*
X28465499Y38404398D01*
X28636589Y38377300D01*
X28636590Y38377300D01*
X28809810Y38377300D01*
X28809811Y38377300D01*
X28980901Y38404398D01*
X29145645Y38457927D01*
X29299988Y38536568D01*
X29440128Y38638386D01*
X29562614Y38760872D01*
X29664432Y38901012D01*
X29743073Y39055355D01*
X29796602Y39220099D01*
X29823700Y39391189D01*
X29823700Y39564411D01*
X29796602Y39735501D01*
X29743073Y39900245D01*
X29664432Y40054588D01*
X29562614Y40194728D01*
X29440128Y40317214D01*
X29299988Y40419032D01*
X29145645Y40497673D01*
X28980901Y40551202D01*
X28980899Y40551203D01*
X28980898Y40551203D01*
X28849471Y40572019D01*
X28809811Y40578300D01*
X28636589Y40578300D01*
X28596928Y40572019D01*
X28465502Y40551203D01*
X28300752Y40497672D01*
X28146411Y40419032D01*
X28066456Y40360941D01*
X28006272Y40317214D01*
X28006270Y40317212D01*
X28006269Y40317212D01*
X27883788Y40194731D01*
X27883788Y40194730D01*
X27883786Y40194728D01*
X27840059Y40134544D01*
X27781968Y40054589D01*
X27703328Y39900248D01*
X27649797Y39735498D01*
X27622700Y39564411D01*
X23590500Y39564411D01*
X23590500Y41417667D01*
X23610185Y41484706D01*
X23662989Y41530461D01*
X23732147Y41540405D01*
X23783393Y41520768D01*
X23786319Y41518813D01*
X23786328Y41518808D01*
X23968306Y41443431D01*
X23968318Y41443428D01*
X24161504Y41405001D01*
X24161508Y41405000D01*
X24360000Y41405000D01*
X24360000Y42155000D01*
X24860000Y42155000D01*
X24860000Y41405000D01*
X25058492Y41405000D01*
X25058495Y41405001D01*
X25251681Y41443428D01*
X25251693Y41443431D01*
X25433671Y41518808D01*
X25433684Y41518815D01*
X25597462Y41628249D01*
X25597466Y41628252D01*
X25736748Y41767534D01*
X25736751Y41767538D01*
X25846185Y41931316D01*
X25846192Y41931329D01*
X25921569Y42113308D01*
X25921569Y42113310D01*
X25929862Y42155000D01*
X25009728Y42155000D01*
X25101614Y42193060D01*
X25171940Y42263386D01*
X25210000Y42355272D01*
X25210000Y42454728D01*
X25171940Y42546614D01*
X25101614Y42616940D01*
X25009728Y42655000D01*
X25929862Y42655000D01*
X27090138Y42655000D01*
X28010272Y42655000D01*
X27918386Y42616940D01*
X27848060Y42546614D01*
X27810000Y42454728D01*
X27810000Y42355272D01*
X27848060Y42263386D01*
X27918386Y42193060D01*
X28010272Y42155000D01*
X27090138Y42155000D01*
X27098430Y42113310D01*
X27098430Y42113308D01*
X27173807Y41931329D01*
X27173814Y41931316D01*
X27283248Y41767538D01*
X27283251Y41767534D01*
X27422533Y41628252D01*
X27422537Y41628249D01*
X27586315Y41518815D01*
X27586328Y41518808D01*
X27768306Y41443431D01*
X27768318Y41443428D01*
X27961504Y41405001D01*
X27961508Y41405000D01*
X28160000Y41405000D01*
X28160000Y42155000D01*
X28660000Y42155000D01*
X28660000Y41405000D01*
X28858492Y41405000D01*
X28858495Y41405001D01*
X29051681Y41443428D01*
X29051693Y41443431D01*
X29233671Y41518808D01*
X29233684Y41518815D01*
X29397462Y41628249D01*
X29397466Y41628252D01*
X29536748Y41767534D01*
X29536751Y41767538D01*
X29646185Y41931316D01*
X29646192Y41931329D01*
X29721569Y42113308D01*
X29721569Y42113310D01*
X29729862Y42155000D01*
X28809728Y42155000D01*
X28901614Y42193060D01*
X28971940Y42263386D01*
X29010000Y42355272D01*
X29010000Y42454728D01*
X28971940Y42546614D01*
X28901614Y42616940D01*
X28809728Y42655000D01*
X29729862Y42655000D01*
X29721569Y42696691D01*
X29721569Y42696693D01*
X29646192Y42878672D01*
X29646185Y42878685D01*
X29536751Y43042463D01*
X29536748Y43042467D01*
X29397466Y43181749D01*
X29397462Y43181752D01*
X29233684Y43291186D01*
X29233671Y43291193D01*
X29051693Y43366570D01*
X29051681Y43366573D01*
X28858495Y43405000D01*
X28660000Y43405000D01*
X28660000Y42655000D01*
X28160000Y42655000D01*
X28160000Y43405000D01*
X27961504Y43405000D01*
X27768318Y43366573D01*
X27768306Y43366570D01*
X27586328Y43291193D01*
X27586315Y43291186D01*
X27422537Y43181752D01*
X27422533Y43181749D01*
X27283251Y43042467D01*
X27283248Y43042463D01*
X27173814Y42878685D01*
X27173807Y42878672D01*
X27098430Y42696693D01*
X27098430Y42696691D01*
X27090138Y42655000D01*
X25929862Y42655000D01*
X25921569Y42696691D01*
X25921569Y42696693D01*
X25846192Y42878672D01*
X25846185Y42878685D01*
X25736751Y43042463D01*
X25736748Y43042467D01*
X25597466Y43181749D01*
X25597462Y43181752D01*
X25433684Y43291186D01*
X25433671Y43291193D01*
X25251693Y43366570D01*
X25251681Y43366573D01*
X25058495Y43405000D01*
X24860000Y43405000D01*
X24860000Y42655000D01*
X24360000Y42655000D01*
X24360000Y43405000D01*
X24161504Y43405000D01*
X23968318Y43366573D01*
X23968306Y43366570D01*
X23786328Y43291193D01*
X23786314Y43291185D01*
X23783384Y43289227D01*
X23781615Y43288674D01*
X23780947Y43288316D01*
X23780879Y43288443D01*
X23716705Y43268354D01*
X23649326Y43286843D01*
X23602640Y43338825D01*
X23590500Y43392334D01*
X23590500Y47329057D01*
X29249500Y47329057D01*
X29249500Y47170943D01*
X29276081Y47071744D01*
X29290423Y47018217D01*
X29290426Y47018210D01*
X29369475Y46881291D01*
X29369481Y46881283D01*
X29425583Y46825181D01*
X29459068Y46763858D01*
X29454084Y46694166D01*
X29425583Y46649819D01*
X29369481Y46593718D01*
X29369475Y46593710D01*
X29290426Y46456791D01*
X29290423Y46456784D01*
X29249500Y46304057D01*
X29249500Y46145943D01*
X29289835Y45995413D01*
X29290423Y45993217D01*
X29290426Y45993210D01*
X29369475Y45856291D01*
X29369481Y45856283D01*
X29413181Y45812583D01*
X29446666Y45751260D01*
X29449500Y45724902D01*
X29449500Y44777723D01*
X29449500Y44672269D01*
X29463146Y44621339D01*
X29476793Y44570407D01*
X29479122Y44566374D01*
X29529520Y44479083D01*
X29529522Y44479081D01*
X30199082Y43809521D01*
X30204764Y43805161D01*
X30216959Y43794466D01*
X30434463Y43576962D01*
X30445154Y43564773D01*
X30449522Y43559081D01*
X30632000Y43376603D01*
X30665485Y43315280D01*
X30660501Y43245588D01*
X30632003Y43201243D01*
X30619475Y43188715D01*
X30619471Y43188710D01*
X30540422Y43051791D01*
X30540419Y43051784D01*
X30499496Y42899057D01*
X30499496Y42740943D01*
X30532723Y42616940D01*
X30540419Y42588217D01*
X30540422Y42588210D01*
X30619471Y42451291D01*
X30619475Y42451286D01*
X30619476Y42451284D01*
X30731280Y42339480D01*
X30731282Y42339479D01*
X30731286Y42339476D01*
X30831445Y42281650D01*
X30868212Y42260423D01*
X31020939Y42219500D01*
X31020941Y42219500D01*
X31179051Y42219500D01*
X31179053Y42219500D01*
X31331780Y42260423D01*
X31427998Y42315975D01*
X31495899Y42332447D01*
X31551997Y42315975D01*
X31648216Y42260423D01*
X31800943Y42219500D01*
X31800945Y42219500D01*
X31959055Y42219500D01*
X31959057Y42219500D01*
X32111784Y42260423D01*
X32248716Y42339480D01*
X32360520Y42451284D01*
X32439577Y42588216D01*
X32480500Y42740943D01*
X32480500Y42899057D01*
X32439577Y43051784D01*
X32426173Y43075000D01*
X32360524Y43188710D01*
X32360521Y43188714D01*
X32360520Y43188716D01*
X32356993Y43192243D01*
X32323508Y43253566D01*
X32320674Y43279924D01*
X32320674Y44472845D01*
X34140000Y44472845D01*
X34140000Y43825000D01*
X35056988Y43825000D01*
X35024075Y43767993D01*
X34990000Y43640826D01*
X34990000Y43509174D01*
X35024075Y43382007D01*
X35056988Y43325000D01*
X34140000Y43325000D01*
X34140000Y42677156D01*
X34146401Y42617628D01*
X34146403Y42617621D01*
X34196645Y42482914D01*
X34196649Y42482907D01*
X34282809Y42367813D01*
X34282812Y42367810D01*
X34397906Y42281650D01*
X34397913Y42281646D01*
X34532620Y42231404D01*
X34532627Y42231402D01*
X34592155Y42225001D01*
X34592172Y42225000D01*
X35240000Y42225000D01*
X35240000Y43141988D01*
X35297007Y43109075D01*
X35424174Y43075000D01*
X35555826Y43075000D01*
X35682993Y43109075D01*
X35740000Y43141988D01*
X35740000Y42225000D01*
X36387828Y42225000D01*
X36387844Y42225001D01*
X36447372Y42231402D01*
X36447379Y42231404D01*
X36582086Y42281646D01*
X36582093Y42281650D01*
X36697187Y42367810D01*
X36697190Y42367813D01*
X36783350Y42482907D01*
X36783354Y42482914D01*
X36833596Y42617621D01*
X36833598Y42617628D01*
X36839999Y42677156D01*
X36840000Y42677173D01*
X36840000Y43325000D01*
X35923012Y43325000D01*
X35955925Y43382007D01*
X35990000Y43509174D01*
X35990000Y43640826D01*
X35955925Y43767993D01*
X35923012Y43825000D01*
X36840000Y43825000D01*
X36840000Y44472828D01*
X36839999Y44472845D01*
X36833598Y44532373D01*
X36833596Y44532380D01*
X36783354Y44667087D01*
X36783350Y44667094D01*
X36697190Y44782188D01*
X36697187Y44782191D01*
X36582093Y44868351D01*
X36582086Y44868355D01*
X36447379Y44918597D01*
X36447372Y44918599D01*
X36387844Y44925000D01*
X36191087Y44925000D01*
X36124048Y44944685D01*
X36078293Y44997489D01*
X36068349Y45066647D01*
X36080156Y45092500D01*
X47593554Y45092500D01*
X47840000Y44846054D01*
X48086446Y45092500D01*
X48993554Y45092500D01*
X49240000Y44846054D01*
X49486446Y45092500D01*
X49240000Y45338946D01*
X48993554Y45092500D01*
X48086446Y45092500D01*
X47840000Y45338946D01*
X47593554Y45092500D01*
X36080156Y45092500D01*
X36097374Y45130203D01*
X36117910Y45149106D01*
X36118007Y45149178D01*
X36239501Y45237447D01*
X36367553Y45365499D01*
X36473996Y45512006D01*
X36556211Y45673361D01*
X36572124Y45722337D01*
X36586432Y45766374D01*
X47090000Y45766374D01*
X47090000Y45618627D01*
X47118820Y45473741D01*
X47118822Y45473733D01*
X47162421Y45368476D01*
X47486446Y45692500D01*
X47486446Y45692501D01*
X47456610Y45722337D01*
X47690000Y45722337D01*
X47690000Y45662663D01*
X47712836Y45607532D01*
X47755032Y45565336D01*
X47810163Y45542500D01*
X47869837Y45542500D01*
X47924968Y45565336D01*
X47967164Y45607532D01*
X47990000Y45662663D01*
X47990000Y45692501D01*
X48193554Y45692501D01*
X48193554Y45692499D01*
X48517929Y45368124D01*
X48562069Y45368124D01*
X48886446Y45692500D01*
X48856609Y45722337D01*
X49090000Y45722337D01*
X49090000Y45662663D01*
X49112836Y45607532D01*
X49155032Y45565336D01*
X49210163Y45542500D01*
X49269837Y45542500D01*
X49324968Y45565336D01*
X49367164Y45607532D01*
X49390000Y45662663D01*
X49390000Y45692501D01*
X49593554Y45692501D01*
X49593554Y45692499D01*
X49917577Y45368476D01*
X49917578Y45368476D01*
X49961175Y45473725D01*
X49961179Y45473740D01*
X49989999Y45618627D01*
X49990000Y45618629D01*
X49990000Y45766372D01*
X49989999Y45766374D01*
X49961179Y45911260D01*
X49961178Y45911264D01*
X49917577Y46016525D01*
X49593554Y45692501D01*
X49390000Y45692501D01*
X49390000Y45722337D01*
X49367164Y45777468D01*
X49324968Y45819664D01*
X49269837Y45842500D01*
X49210163Y45842500D01*
X49155032Y45819664D01*
X49112836Y45777468D01*
X49090000Y45722337D01*
X48856609Y45722337D01*
X48562068Y46016878D01*
X48517930Y46016878D01*
X48193554Y45692501D01*
X47990000Y45692501D01*
X47990000Y45722337D01*
X47967164Y45777468D01*
X47924968Y45819664D01*
X47869837Y45842500D01*
X47810163Y45842500D01*
X47755032Y45819664D01*
X47712836Y45777468D01*
X47690000Y45722337D01*
X47456610Y45722337D01*
X47162421Y46016526D01*
X47162420Y46016526D01*
X47118823Y45911272D01*
X47118820Y45911260D01*
X47090000Y45766374D01*
X36586432Y45766374D01*
X36600860Y45810778D01*
X36600860Y45810780D01*
X36601446Y45812583D01*
X36612171Y45845591D01*
X36630685Y45962484D01*
X36640500Y46024449D01*
X36640500Y46205552D01*
X36626729Y46292500D01*
X47593554Y46292500D01*
X47840000Y46046054D01*
X48086446Y46292500D01*
X48993554Y46292500D01*
X49240000Y46046054D01*
X49486446Y46292500D01*
X49240000Y46538946D01*
X48993554Y46292500D01*
X48086446Y46292500D01*
X47840000Y46538946D01*
X47593554Y46292500D01*
X36626729Y46292500D01*
X36621666Y46324464D01*
X36616916Y46354447D01*
X36612171Y46384409D01*
X36572516Y46506458D01*
X36556212Y46556637D01*
X36556211Y46556640D01*
X36508733Y46649819D01*
X36473996Y46717994D01*
X36439600Y46765336D01*
X36367558Y46864495D01*
X36367554Y46864500D01*
X36265680Y46966374D01*
X47090000Y46966374D01*
X47090000Y46818627D01*
X47118820Y46673741D01*
X47118822Y46673733D01*
X47162421Y46568476D01*
X47486446Y46892500D01*
X47486446Y46892501D01*
X47456610Y46922337D01*
X47690000Y46922337D01*
X47690000Y46862663D01*
X47712836Y46807532D01*
X47755032Y46765336D01*
X47810163Y46742500D01*
X47869837Y46742500D01*
X47924968Y46765336D01*
X47967164Y46807532D01*
X47990000Y46862663D01*
X47990000Y46892501D01*
X48193554Y46892501D01*
X48193554Y46892499D01*
X48517929Y46568124D01*
X48562069Y46568124D01*
X48886446Y46892500D01*
X48856609Y46922337D01*
X49090000Y46922337D01*
X49090000Y46862663D01*
X49112836Y46807532D01*
X49155032Y46765336D01*
X49210163Y46742500D01*
X49269837Y46742500D01*
X49324968Y46765336D01*
X49367164Y46807532D01*
X49390000Y46862663D01*
X49390000Y46892501D01*
X49593554Y46892501D01*
X49593554Y46892499D01*
X49917577Y46568476D01*
X49917578Y46568476D01*
X49961175Y46673725D01*
X49961179Y46673740D01*
X49989999Y46818627D01*
X49990000Y46818629D01*
X49990000Y46966372D01*
X49989999Y46966374D01*
X49961179Y47111260D01*
X49961178Y47111264D01*
X49917577Y47216525D01*
X49593554Y46892501D01*
X49390000Y46892501D01*
X49390000Y46922337D01*
X49367164Y46977468D01*
X49324968Y47019664D01*
X49269837Y47042500D01*
X49210163Y47042500D01*
X49155032Y47019664D01*
X49112836Y46977468D01*
X49090000Y46922337D01*
X48856609Y46922337D01*
X48562068Y47216878D01*
X48517930Y47216878D01*
X48193554Y46892501D01*
X47990000Y46892501D01*
X47990000Y46922337D01*
X47967164Y46977468D01*
X47924968Y47019664D01*
X47869837Y47042500D01*
X47810163Y47042500D01*
X47755032Y47019664D01*
X47712836Y46977468D01*
X47690000Y46922337D01*
X47456610Y46922337D01*
X47162421Y47216526D01*
X47162420Y47216526D01*
X47118823Y47111272D01*
X47118820Y47111260D01*
X47090000Y46966374D01*
X36265680Y46966374D01*
X36239499Y46992555D01*
X36239494Y46992559D01*
X36092997Y47098994D01*
X36092996Y47098995D01*
X36092994Y47098996D01*
X36024798Y47133744D01*
X35931639Y47181212D01*
X35931636Y47181213D01*
X35759410Y47237171D01*
X35580551Y47265500D01*
X35580546Y47265500D01*
X35399454Y47265500D01*
X35399449Y47265500D01*
X35220589Y47237171D01*
X35048363Y47181213D01*
X35048360Y47181212D01*
X34887002Y47098994D01*
X34740505Y46992559D01*
X34740500Y46992555D01*
X34612445Y46864500D01*
X34612441Y46864495D01*
X34506006Y46717998D01*
X34423788Y46556640D01*
X34423787Y46556637D01*
X34367829Y46384411D01*
X34339500Y46205552D01*
X34339500Y46024449D01*
X34367829Y45845590D01*
X34423787Y45673364D01*
X34423788Y45673361D01*
X34478831Y45565336D01*
X34493006Y45537515D01*
X34506006Y45512003D01*
X34612441Y45365506D01*
X34612445Y45365501D01*
X34740504Y45237442D01*
X34861798Y45149318D01*
X34904464Y45093989D01*
X34910443Y45024375D01*
X34877838Y44962580D01*
X34816999Y44928223D01*
X34788913Y44925000D01*
X34592155Y44925000D01*
X34532627Y44918599D01*
X34532620Y44918597D01*
X34397913Y44868355D01*
X34397906Y44868351D01*
X34282812Y44782191D01*
X34282809Y44782188D01*
X34196649Y44667094D01*
X34196645Y44667087D01*
X34146403Y44532380D01*
X34146401Y44532373D01*
X34140000Y44472845D01*
X32320674Y44472845D01*
X32320674Y45257551D01*
X32320674Y45257553D01*
X32293381Y45359414D01*
X32240654Y45450739D01*
X30486819Y47204574D01*
X30453334Y47265897D01*
X30453209Y47266476D01*
X30450500Y47279222D01*
X30450500Y47329057D01*
X30409577Y47481784D01*
X30406207Y47487621D01*
X30406207Y47487622D01*
X30358600Y47570080D01*
X47515974Y47570080D01*
X47515974Y47570079D01*
X47840000Y47246054D01*
X47840001Y47246054D01*
X48164024Y47570079D01*
X48164022Y47570080D01*
X48915974Y47570080D01*
X48915974Y47570079D01*
X49240000Y47246054D01*
X49240001Y47246054D01*
X49564024Y47570079D01*
X49458767Y47613678D01*
X49458759Y47613680D01*
X49313872Y47642500D01*
X49166128Y47642500D01*
X49021240Y47613680D01*
X49021228Y47613677D01*
X48915974Y47570080D01*
X48164022Y47570080D01*
X48058767Y47613678D01*
X48058759Y47613680D01*
X47913872Y47642500D01*
X47766128Y47642500D01*
X47621240Y47613680D01*
X47621228Y47613677D01*
X47515974Y47570080D01*
X30358600Y47570080D01*
X30330524Y47618710D01*
X30330518Y47618718D01*
X30218717Y47730519D01*
X30218709Y47730525D01*
X30081790Y47809574D01*
X30081786Y47809576D01*
X30081784Y47809577D01*
X29929057Y47850500D01*
X29770943Y47850500D01*
X29618216Y47809577D01*
X29618209Y47809574D01*
X29481290Y47730525D01*
X29481282Y47730519D01*
X29369481Y47618718D01*
X29369475Y47618710D01*
X29290426Y47481791D01*
X29290423Y47481784D01*
X29249500Y47329057D01*
X23590500Y47329057D01*
X23590500Y50057667D01*
X23610185Y50124706D01*
X23662989Y50170461D01*
X23732147Y50180405D01*
X23783393Y50160768D01*
X23786319Y50158813D01*
X23786328Y50158808D01*
X23968306Y50083431D01*
X23968318Y50083428D01*
X24161504Y50045001D01*
X24161508Y50045000D01*
X24360000Y50045000D01*
X24360000Y50795000D01*
X24860000Y50795000D01*
X24860000Y50045000D01*
X25058492Y50045000D01*
X25058495Y50045001D01*
X25251681Y50083428D01*
X25251693Y50083431D01*
X25433671Y50158808D01*
X25433684Y50158815D01*
X25597462Y50268249D01*
X25597466Y50268252D01*
X25736748Y50407534D01*
X25736751Y50407538D01*
X25846185Y50571316D01*
X25846192Y50571329D01*
X25921569Y50753308D01*
X25921569Y50753310D01*
X25929862Y50795000D01*
X25009728Y50795000D01*
X25101614Y50833060D01*
X25171940Y50903386D01*
X25210000Y50995272D01*
X25210000Y51094728D01*
X25171940Y51186614D01*
X25101614Y51256940D01*
X25009728Y51295000D01*
X25929862Y51295000D01*
X27090138Y51295000D01*
X28010272Y51295000D01*
X27918386Y51256940D01*
X27848060Y51186614D01*
X27810000Y51094728D01*
X27810000Y50995272D01*
X27848060Y50903386D01*
X27918386Y50833060D01*
X28010272Y50795000D01*
X27090138Y50795000D01*
X27098430Y50753310D01*
X27098430Y50753308D01*
X27173807Y50571329D01*
X27173814Y50571316D01*
X27283248Y50407538D01*
X27283251Y50407534D01*
X27422533Y50268252D01*
X27422537Y50268249D01*
X27586315Y50158815D01*
X27586328Y50158808D01*
X27768306Y50083431D01*
X27768318Y50083428D01*
X27961504Y50045001D01*
X27961508Y50045000D01*
X28160000Y50045000D01*
X28160000Y50795000D01*
X28660000Y50795000D01*
X28660000Y50045000D01*
X28858492Y50045000D01*
X28858495Y50045001D01*
X29051681Y50083428D01*
X29051693Y50083431D01*
X29233671Y50158808D01*
X29233684Y50158815D01*
X29397462Y50268249D01*
X29397466Y50268252D01*
X29536748Y50407534D01*
X29536751Y50407538D01*
X29646185Y50571316D01*
X29646192Y50571329D01*
X29721569Y50753308D01*
X29721569Y50753310D01*
X29729862Y50795000D01*
X28809728Y50795000D01*
X28901614Y50833060D01*
X28971940Y50903386D01*
X29010000Y50995272D01*
X29010000Y51094728D01*
X28971940Y51186614D01*
X28901614Y51256940D01*
X28809728Y51295000D01*
X29729862Y51295000D01*
X29721569Y51336691D01*
X29721569Y51336693D01*
X29646192Y51518672D01*
X29646185Y51518685D01*
X29536751Y51682463D01*
X29536748Y51682467D01*
X29397466Y51821749D01*
X29397462Y51821752D01*
X29233684Y51931186D01*
X29233671Y51931193D01*
X29051693Y52006570D01*
X29051681Y52006573D01*
X28858495Y52045000D01*
X28660000Y52045000D01*
X28660000Y51295000D01*
X28160000Y51295000D01*
X28160000Y52045000D01*
X27961504Y52045000D01*
X27768318Y52006573D01*
X27768306Y52006570D01*
X27586328Y51931193D01*
X27586315Y51931186D01*
X27422537Y51821752D01*
X27422533Y51821749D01*
X27283251Y51682467D01*
X27283248Y51682463D01*
X27173814Y51518685D01*
X27173807Y51518672D01*
X27098430Y51336693D01*
X27098430Y51336691D01*
X27090138Y51295000D01*
X25929862Y51295000D01*
X25921569Y51336691D01*
X25921569Y51336693D01*
X25846192Y51518672D01*
X25846185Y51518685D01*
X25736751Y51682463D01*
X25736748Y51682467D01*
X25597466Y51821749D01*
X25597462Y51821752D01*
X25433684Y51931186D01*
X25433671Y51931193D01*
X25251693Y52006570D01*
X25251681Y52006573D01*
X25058495Y52045000D01*
X24860000Y52045000D01*
X24860000Y51295000D01*
X24360000Y51295000D01*
X24360000Y52045000D01*
X24161504Y52045000D01*
X23968318Y52006573D01*
X23968306Y52006570D01*
X23786328Y51931193D01*
X23786314Y51931185D01*
X23783384Y51929227D01*
X23781615Y51928674D01*
X23780947Y51928316D01*
X23780879Y51928443D01*
X23716705Y51908354D01*
X23649326Y51926843D01*
X23602640Y51978825D01*
X23590500Y52032334D01*
X23590500Y53142475D01*
X27869500Y53142475D01*
X27869500Y52997525D01*
X27905284Y52863979D01*
X27907017Y52857512D01*
X27979488Y52731989D01*
X27979490Y52731987D01*
X27979491Y52731985D01*
X28081985Y52629491D01*
X28081986Y52629490D01*
X28081988Y52629489D01*
X28207511Y52557018D01*
X28207512Y52557018D01*
X28207515Y52557016D01*
X28347525Y52519500D01*
X28347528Y52519500D01*
X28492472Y52519500D01*
X28492475Y52519500D01*
X28632485Y52557016D01*
X28758015Y52629491D01*
X28860509Y52731985D01*
X28932984Y52857515D01*
X28932985Y52857521D01*
X28936092Y52865019D01*
X28938603Y52863979D01*
X28968035Y52912259D01*
X29030884Y52942784D01*
X29051440Y52944500D01*
X34684170Y52944500D01*
X34751209Y52924815D01*
X34796964Y52872011D01*
X34806908Y52802853D01*
X34784488Y52747615D01*
X34758142Y52711353D01*
X34665244Y52529032D01*
X34602009Y52334418D01*
X34570000Y52132318D01*
X34570000Y51927683D01*
X34602009Y51725583D01*
X34665244Y51530969D01*
X34758141Y51348650D01*
X34758147Y51348641D01*
X34790523Y51304079D01*
X34790524Y51304078D01*
X35470000Y51983554D01*
X35470000Y51977339D01*
X35497259Y51875606D01*
X35549920Y51784394D01*
X35624394Y51709920D01*
X35715606Y51657259D01*
X35817339Y51630000D01*
X35823553Y51630000D01*
X35144076Y50950526D01*
X35188650Y50918141D01*
X35370968Y50825245D01*
X35565582Y50762010D01*
X35767683Y50730000D01*
X35972317Y50730000D01*
X36174417Y50762010D01*
X36369031Y50825245D01*
X36551349Y50918141D01*
X36595921Y50950526D01*
X35916447Y51630000D01*
X35922661Y51630000D01*
X36024394Y51657259D01*
X36115606Y51709920D01*
X36190080Y51784394D01*
X36242741Y51875606D01*
X36270000Y51977339D01*
X36270000Y51983553D01*
X36949473Y51304079D01*
X36976016Y51306168D01*
X37044393Y51291804D01*
X37073427Y51270231D01*
X37153072Y51190586D01*
X37293212Y51088768D01*
X37447555Y51010127D01*
X37612299Y50956598D01*
X37783389Y50929500D01*
X37783390Y50929500D01*
X37956610Y50929500D01*
X37956611Y50929500D01*
X38127701Y50956598D01*
X38292445Y51010127D01*
X38446788Y51088768D01*
X38586928Y51190586D01*
X38709414Y51313072D01*
X38811232Y51453212D01*
X38889873Y51607555D01*
X38943402Y51772299D01*
X38970500Y51943389D01*
X38970500Y52116611D01*
X38943402Y52287701D01*
X38889873Y52452445D01*
X38811232Y52606788D01*
X38709414Y52746928D01*
X38709411Y52746931D01*
X38708915Y52747614D01*
X38685435Y52813420D01*
X38701260Y52881474D01*
X38751366Y52930169D01*
X38809233Y52944500D01*
X42032763Y52944500D01*
X42094763Y52927887D01*
X42217511Y52857018D01*
X42217512Y52857018D01*
X42217515Y52857016D01*
X42357525Y52819500D01*
X42357528Y52819500D01*
X42502472Y52819500D01*
X42502475Y52819500D01*
X42642485Y52857016D01*
X42768015Y52929491D01*
X42870509Y53031985D01*
X42942984Y53157515D01*
X42980500Y53297525D01*
X42980500Y53442475D01*
X42942984Y53582485D01*
X42942696Y53582983D01*
X42870511Y53708012D01*
X42870506Y53708018D01*
X42768017Y53810507D01*
X42768011Y53810512D01*
X42642488Y53882983D01*
X42642489Y53882983D01*
X42631006Y53886060D01*
X42502475Y53920500D01*
X42357525Y53920500D01*
X42228993Y53886060D01*
X42217511Y53882983D01*
X42094763Y53812113D01*
X42032763Y53795500D01*
X28663982Y53795500D01*
X28555763Y53766503D01*
X28555760Y53766502D01*
X28458740Y53710487D01*
X28458738Y53710486D01*
X28400015Y53651763D01*
X28344428Y53619671D01*
X28251487Y53594767D01*
X28207511Y53582983D01*
X28081988Y53510512D01*
X28081982Y53510507D01*
X27979493Y53408018D01*
X27979488Y53408012D01*
X27907017Y53282489D01*
X27907016Y53282485D01*
X27869500Y53142475D01*
X23590500Y53142475D01*
X23590500Y55162475D01*
X27759500Y55162475D01*
X27759500Y55017525D01*
X27793004Y54892489D01*
X27797017Y54877512D01*
X27869488Y54751989D01*
X27869490Y54751987D01*
X27869491Y54751985D01*
X27971985Y54649491D01*
X27971986Y54649490D01*
X27971988Y54649489D01*
X28097511Y54577018D01*
X28097512Y54577018D01*
X28097515Y54577016D01*
X28237525Y54539500D01*
X28237528Y54539500D01*
X28382472Y54539500D01*
X28382475Y54539500D01*
X28522485Y54577016D01*
X28645237Y54647887D01*
X28707237Y54664500D01*
X41925614Y54664500D01*
X41992653Y54644815D01*
X42013295Y54628181D01*
X42051985Y54589491D01*
X42051986Y54589490D01*
X42051988Y54589489D01*
X42177511Y54517018D01*
X42177512Y54517018D01*
X42177515Y54517016D01*
X42317525Y54479500D01*
X42317528Y54479500D01*
X42462472Y54479500D01*
X42462475Y54479500D01*
X42602485Y54517016D01*
X42728015Y54589491D01*
X42830509Y54691985D01*
X42902984Y54817515D01*
X42940500Y54957525D01*
X42940500Y55102475D01*
X42902984Y55242485D01*
X42830509Y55368015D01*
X42728015Y55470509D01*
X42728013Y55470510D01*
X42728011Y55470512D01*
X42602488Y55542983D01*
X42602489Y55542983D01*
X42591006Y55546060D01*
X42462475Y55580500D01*
X42317525Y55580500D01*
X42233519Y55557991D01*
X42177513Y55542984D01*
X42177512Y55542983D01*
X42158686Y55532113D01*
X42096686Y55515500D01*
X28707237Y55515500D01*
X28645237Y55532113D01*
X28522488Y55602983D01*
X28522489Y55602983D01*
X28511006Y55606060D01*
X28382475Y55640500D01*
X28237525Y55640500D01*
X28108993Y55606060D01*
X28097511Y55602983D01*
X27971988Y55530512D01*
X27971982Y55530507D01*
X27869493Y55428018D01*
X27869488Y55428012D01*
X27797017Y55302489D01*
X27797016Y55302485D01*
X27759500Y55162475D01*
X23590500Y55162475D01*
X23590500Y58025500D01*
X23610185Y58092539D01*
X23662989Y58138294D01*
X23714500Y58149500D01*
X27363129Y58149500D01*
X27430168Y58129815D01*
G37*
%TD.AperFunction*%
%TD*%
M02*
