%TF.GenerationSoftware,KiCad,Pcbnew,10.0.0*%
%TF.CreationDate,2026-04-06T20:51:42-04:00*%
%TF.ProjectId,SpecterShield-BE-ATDT,53706563-7465-4725-9368-69656c642d42,rev?*%
%TF.SameCoordinates,Original*%
%TF.FileFunction,Soldermask,Bot*%
%TF.FilePolarity,Negative*%
%FSLAX46Y46*%
G04 Gerber Fmt 4.6, Leading zero omitted, Abs format (unit mm)*
G04 Created by KiCad (PCBNEW 10.0.0) date 2026-04-06 20:51:42*
%MOMM*%
%LPD*%
G01*
G04 APERTURE LIST*
G04 Aperture macros list*
%AMRoundRect*
0 Rectangle with rounded corners*
0 $1 Rounding radius*
0 $2 $3 $4 $5 $6 $7 $8 $9 X,Y pos of 4 corners*
0 Add a 4 corners polygon primitive as box body*
4,1,4,$2,$3,$4,$5,$6,$7,$8,$9,$2,$3,0*
0 Add four circle primitives for the rounded corners*
1,1,$1+$1,$2,$3*
1,1,$1+$1,$4,$5*
1,1,$1+$1,$6,$7*
1,1,$1+$1,$8,$9*
0 Add four rect primitives between the rounded corners*
20,1,$1+$1,$2,$3,$4,$5,0*
20,1,$1+$1,$4,$5,$6,$7,0*
20,1,$1+$1,$6,$7,$8,$9,0*
20,1,$1+$1,$8,$9,$2,$3,0*%
G04 Aperture macros list end*
%ADD10C,1.676000*%
%ADD11C,2.276000*%
%ADD12RoundRect,0.038000X0.850000X0.850000X-0.850000X0.850000X-0.850000X-0.850000X0.850000X-0.850000X0*%
%ADD13C,1.776000*%
%ADD14O,1.776000X1.076000*%
G04 APERTURE END LIST*
D10*
%TO.C,J201*%
X77008600Y30283000D03*
X77008600Y27743000D03*
X77008600Y25203000D03*
X77008600Y22663000D03*
X77008600Y20123000D03*
X77008600Y17583000D03*
X77008600Y15043000D03*
X77008600Y12503000D03*
%TD*%
%TO.C,J202*%
X77008600Y7448400D03*
X77008600Y4908400D03*
X77008600Y2368400D03*
X77008600Y-171600D03*
X77008600Y-2711600D03*
X77008600Y-5251600D03*
%TD*%
%TO.C,J203*%
X28723200Y16617800D03*
X28723200Y19157800D03*
X28723200Y21697800D03*
X28723200Y24237800D03*
X28723200Y26777800D03*
X28723200Y29317800D03*
X28723200Y31857800D03*
X28723200Y34397800D03*
X28723200Y36937800D03*
X28723200Y39477800D03*
%TD*%
%TO.C,J204*%
X28723200Y-5277000D03*
X28723200Y-2737000D03*
X28723200Y-197000D03*
X28723200Y2343000D03*
X28723200Y4883000D03*
X28723200Y7423000D03*
X28723200Y9963000D03*
X28723200Y12503000D03*
%TD*%
%TO.C,J303*%
X37870000Y52030000D03*
X35870000Y52030000D03*
%TD*%
D11*
%TO.C,J401*%
X32340000Y-36110000D03*
X76790000Y-15790000D03*
%TD*%
D12*
%TO.C,J302*%
X35490000Y43575000D03*
D13*
X35490000Y46115000D03*
%TD*%
D14*
%TO.C,J301*%
X28410000Y51045000D03*
X24610000Y51045000D03*
X28410000Y42405000D03*
X24610000Y42405000D03*
%TD*%
M02*
