G04 Layer_Color=7318015*
%FSLAX44Y44*%
%MOMM*%
G71*
G01*
G75*
%ADD10C,2.0000*%
%ADD11R,0.8500X0.2800*%
%ADD12R,1.7000X2.1500*%
%ADD13R,0.2500X0.7000*%
%ADD14O,1.4000X0.3700*%
%ADD15R,1.2500X1.4500*%
%ADD16R,0.8000X1.0000*%
%ADD17O,2.5000X1.0000*%
%ADD18R,0.5500X0.6000*%
%ADD19R,0.6200X0.6600*%
%ADD20R,0.6600X0.6200*%
%ADD21R,0.4800X0.4000*%
%ADD22R,0.3500X0.8000*%
G04:AMPARAMS|DCode=23|XSize=0.3mm|YSize=0.52mm|CornerRadius=0.03mm|HoleSize=0mm|Usage=FLASHONLY|Rotation=180.000|XOffset=0mm|YOffset=0mm|HoleType=Round|Shape=RoundedRectangle|*
%AMROUNDEDRECTD23*
21,1,0.3000,0.4600,0,0,180.0*
21,1,0.2400,0.5200,0,0,180.0*
1,1,0.0600,-0.1200,0.2300*
1,1,0.0600,0.1200,0.2300*
1,1,0.0600,0.1200,-0.2300*
1,1,0.0600,-0.1200,-0.2300*
%
%ADD23ROUNDEDRECTD23*%
%ADD24R,0.6000X0.5500*%
%ADD25R,2.0000X2.5000*%
%ADD26R,0.8500X0.9500*%
G04:AMPARAMS|DCode=27|XSize=2.8mm|YSize=1.8mm|CornerRadius=0.27mm|HoleSize=0mm|Usage=FLASHONLY|Rotation=270.000|XOffset=0mm|YOffset=0mm|HoleType=Round|Shape=RoundedRectangle|*
%AMROUNDEDRECTD27*
21,1,2.8000,1.2600,0,0,270.0*
21,1,2.2600,1.8000,0,0,270.0*
1,1,0.5400,-0.6300,-1.1300*
1,1,0.5400,-0.6300,1.1300*
1,1,0.5400,0.6300,1.1300*
1,1,0.5400,0.6300,-1.1300*
%
%ADD27ROUNDEDRECTD27*%
%ADD28R,1.5000X4.0000*%
%ADD29R,0.5000X1.0500*%
%ADD30R,1.4500X1.2500*%
%ADD31C,1.9050*%
%ADD32R,0.8000X0.9000*%
%ADD33R,3.5000X1.0160*%
%ADD34R,3.4000X1.6002*%
%ADD35R,0.4000X1.3000*%
%ADD38R,1.1000X1.1000*%
%ADD39R,0.4000X1.3500*%
%ADD40R,1.6000X1.4000*%
%ADD41R,1.9000X1.9000*%
%ADD42R,1.3500X0.6500*%
%ADD43R,0.9000X0.7000*%
%ADD44R,0.9500X0.8500*%
%ADD45R,0.8500X0.9000*%
%ADD46R,0.9000X0.8500*%
G04:AMPARAMS|DCode=47|XSize=3.1mm|YSize=1.3mm|CornerRadius=0.325mm|HoleSize=0mm|Usage=FLASHONLY|Rotation=270.000|XOffset=0mm|YOffset=0mm|HoleType=Round|Shape=RoundedRectangle|*
%AMROUNDEDRECTD47*
21,1,3.1000,0.6500,0,0,270.0*
21,1,2.4500,1.3000,0,0,270.0*
1,1,0.6500,-0.3250,-1.2250*
1,1,0.6500,-0.3250,1.2250*
1,1,0.6500,0.3250,1.2250*
1,1,0.6500,0.3250,-1.2250*
%
%ADD47ROUNDEDRECTD47*%
%ADD88R,0.2500X0.5000*%
%ADD89R,0.6000X0.6400*%
%ADD90R,1.5600X0.0000*%
D10*
X4168658Y3209000D02*
D03*
X3704000Y3177000D02*
D03*
X3707000Y2203000D02*
D03*
D11*
X4121750Y2104000D02*
D03*
Y2109000D02*
D03*
Y2114000D02*
D03*
Y2119000D02*
D03*
Y2124000D02*
D03*
X4090250D02*
D03*
Y2119000D02*
D03*
Y2114000D02*
D03*
Y2109000D02*
D03*
Y2104000D02*
D03*
D12*
X4106000Y2114000D02*
D03*
D13*
X4112000Y2099750D02*
D03*
X4108000D02*
D03*
X4104000D02*
D03*
X4100000D02*
D03*
X4112000Y2128250D02*
D03*
X4108000D02*
D03*
X4104000D02*
D03*
X4100000D02*
D03*
D14*
X3730500Y2143750D02*
D03*
Y2137250D02*
D03*
Y2130750D02*
D03*
Y2124250D02*
D03*
X3777500Y2143750D02*
D03*
Y2137250D02*
D03*
Y2130750D02*
D03*
Y2124250D02*
D03*
D15*
X3953000Y2148000D02*
D03*
X3936500D02*
D03*
X3821750Y3069000D02*
D03*
X3838250D02*
D03*
X3821750Y3029635D02*
D03*
X3838250D02*
D03*
D16*
X3695500Y2312000D02*
D03*
X3710500D02*
D03*
D17*
X3689920Y2681510D02*
D03*
X3722920Y2706910D02*
D03*
X3689920Y2630710D02*
D03*
X3722920Y2656110D02*
D03*
X3689920Y2529110D02*
D03*
X3722920Y2554510D02*
D03*
Y2605310D02*
D03*
X3689920Y2579910D02*
D03*
X3689920Y2950750D02*
D03*
X3722920Y2976151D02*
D03*
X3689920Y2798351D02*
D03*
X3722920Y2823750D02*
D03*
Y2772950D02*
D03*
X3689920Y2747550D02*
D03*
X3722920Y2874550D02*
D03*
X3689920Y2849150D02*
D03*
X3722920Y2925350D02*
D03*
X3689920Y2899950D02*
D03*
X4205520Y2732310D02*
D03*
X4172520Y2706910D02*
D03*
X4205520Y2783110D02*
D03*
X4172520Y2757710D02*
D03*
X4205520Y2884710D02*
D03*
X4172520Y2859310D02*
D03*
Y2808510D02*
D03*
X4205520Y2833911D02*
D03*
Y2605310D02*
D03*
X4172520Y2579910D02*
D03*
Y2630710D02*
D03*
X4205520Y2656110D02*
D03*
X4172520Y2529110D02*
D03*
X4205520Y2554510D02*
D03*
D18*
X3670090Y2828750D02*
D03*
Y2837250D02*
D03*
Y2819000D02*
D03*
Y2810500D02*
D03*
X4089000Y2049250D02*
D03*
Y2057750D02*
D03*
X4098000D02*
D03*
Y2049250D02*
D03*
X3991000Y2141500D02*
D03*
Y2133000D02*
D03*
X4000000Y2067500D02*
D03*
Y2076000D02*
D03*
X3712000Y2141118D02*
D03*
Y2149618D02*
D03*
Y2131000D02*
D03*
Y2122500D02*
D03*
X3691000Y2141000D02*
D03*
Y2149500D02*
D03*
X3795000Y2158250D02*
D03*
Y2149750D02*
D03*
D19*
X3819930Y3143800D02*
D03*
Y3135000D02*
D03*
X3839000Y3129000D02*
D03*
Y3137800D02*
D03*
X3816000Y3099000D02*
D03*
Y3090200D02*
D03*
X3892515Y3052800D02*
D03*
Y3044000D02*
D03*
X3908000Y3052800D02*
D03*
Y3044000D02*
D03*
X3923000Y3052800D02*
D03*
Y3044000D02*
D03*
X4134000Y2129457D02*
D03*
Y2120657D02*
D03*
X4122000Y2088000D02*
D03*
Y2079200D02*
D03*
X4079434Y2057750D02*
D03*
Y2048950D02*
D03*
X4055657Y2077000D02*
D03*
Y2068200D02*
D03*
X4077000Y2127800D02*
D03*
Y2119000D02*
D03*
X4077907Y2270000D02*
D03*
Y2261200D02*
D03*
X3938000Y2100060D02*
D03*
Y2108860D02*
D03*
X3948000Y2100060D02*
D03*
Y2108860D02*
D03*
X3958000Y2100060D02*
D03*
Y2108860D02*
D03*
X3990000Y2076000D02*
D03*
Y2067200D02*
D03*
X4009500Y2076000D02*
D03*
Y2067200D02*
D03*
X3701000Y2141118D02*
D03*
Y2149918D02*
D03*
Y2130750D02*
D03*
Y2121950D02*
D03*
D20*
X3978400Y3023785D02*
D03*
X3969600D02*
D03*
X4198315Y2923374D02*
D03*
X4207114D02*
D03*
X4221966Y2313100D02*
D03*
Y2304300D02*
D03*
X4142400Y2096000D02*
D03*
X4133600D02*
D03*
X4142400Y2085750D02*
D03*
X4133600D02*
D03*
X3868200Y2120000D02*
D03*
X3877000D02*
D03*
X3868200Y2110000D02*
D03*
X3877000D02*
D03*
X3777500Y2156000D02*
D03*
X3768700D02*
D03*
D21*
X4210400Y3013000D02*
D03*
X4223600D02*
D03*
X4210400Y3002000D02*
D03*
X4223600D02*
D03*
X4210400Y2301900D02*
D03*
Y2315100D02*
D03*
X4205560Y2290000D02*
D03*
X4192360D02*
D03*
X4192430Y2278000D02*
D03*
X4205630D02*
D03*
D22*
X4205000Y2972500D02*
D03*
X4200000Y2986000D02*
D03*
X4210000D02*
D03*
X4192400Y2302000D02*
D03*
X4187400Y2315500D02*
D03*
X4197400D02*
D03*
X4025000Y2070750D02*
D03*
X4030000Y2057250D02*
D03*
X4020000D02*
D03*
D23*
X4210714Y2948374D02*
D03*
X4205714Y2940674D02*
D03*
X4200714Y2948374D02*
D03*
Y2940674D02*
D03*
X4205714Y2948374D02*
D03*
X4210714Y2940674D02*
D03*
D24*
X4197500Y2508000D02*
D03*
X4189000D02*
D03*
X4152045Y2085750D02*
D03*
X4160545D02*
D03*
X4136000Y2065750D02*
D03*
X4144500D02*
D03*
X4055657Y2087000D02*
D03*
X4047157D02*
D03*
X3998500Y2086000D02*
D03*
X3990000D02*
D03*
X3971750D02*
D03*
X3980250D02*
D03*
X4029000Y2045000D02*
D03*
X4020500D02*
D03*
X4011000D02*
D03*
X4002500D02*
D03*
X3964250Y2054000D02*
D03*
X3955750D02*
D03*
X3691250Y2130750D02*
D03*
X3682750D02*
D03*
X3759000Y2110000D02*
D03*
X3750500D02*
D03*
X3754750Y2059720D02*
D03*
X3763250D02*
D03*
D25*
X4205280Y2482500D02*
D03*
Y2434000D02*
D03*
X4205081Y2347921D02*
D03*
Y2396421D02*
D03*
X4053000Y2219250D02*
D03*
Y2170750D02*
D03*
X4117523Y2215750D02*
D03*
Y2264250D02*
D03*
D26*
X4218000Y2278000D02*
D03*
X4231500D02*
D03*
X3955000Y2130000D02*
D03*
X3941500D02*
D03*
X3957500Y2084560D02*
D03*
X3944000D02*
D03*
D27*
X4188000Y2252500D02*
D03*
Y2169500D02*
D03*
D28*
X4089000Y2171500D02*
D03*
X4125000D02*
D03*
D29*
X4066434Y2069500D02*
D03*
X4079434D02*
D03*
X4072934Y2087000D02*
D03*
D30*
X4148658Y2117560D02*
D03*
Y2134060D02*
D03*
X4168658Y2117560D02*
D03*
Y2134060D02*
D03*
X4188658Y2117560D02*
D03*
Y2134060D02*
D03*
X4209000Y2117560D02*
D03*
Y2134061D02*
D03*
X4060657Y2121750D02*
D03*
Y2138250D02*
D03*
X4040657Y2121750D02*
D03*
Y2138250D02*
D03*
X4231000Y2700000D02*
D03*
Y2716500D02*
D03*
D31*
X4136000Y2048000D02*
D03*
D32*
X4044407Y2250000D02*
D03*
X4063407D02*
D03*
X4053907Y2270000D02*
D03*
X3749500Y2072600D02*
D03*
X3768500D02*
D03*
X3759000Y2092600D02*
D03*
D33*
X3994750Y2235000D02*
D03*
Y2215000D02*
D03*
Y2195000D02*
D03*
X3942000Y2225000D02*
D03*
Y2205000D02*
D03*
D34*
X3937250Y2258500D02*
D03*
Y2171500D02*
D03*
X3884500Y2248500D02*
D03*
Y2181500D02*
D03*
D35*
X3915095Y2097741D02*
D03*
X3903595D02*
D03*
Y2127741D02*
D03*
X3915095D02*
D03*
D38*
X3976000Y2038000D02*
D03*
X3956000D02*
D03*
D39*
X3865000Y2071250D02*
D03*
X3858500D02*
D03*
X3871500D02*
D03*
X3878000D02*
D03*
X3852000D02*
D03*
D40*
X3831000Y2069000D02*
D03*
X3899036D02*
D03*
D41*
X3877700Y2044500D02*
D03*
X3852300D02*
D03*
D42*
X3877500Y2095000D02*
D03*
X3853500D02*
D03*
D43*
X3828960Y2137620D02*
D03*
Y2151620D02*
D03*
D44*
X3796000Y2137860D02*
D03*
Y2124360D02*
D03*
D45*
X3798000Y2068850D02*
D03*
X3811000D02*
D03*
D46*
X4231166Y2808510D02*
D03*
Y2795510D02*
D03*
D47*
X3848355Y2245000D02*
D03*
X3812678D02*
D03*
X3777000D02*
D03*
D88*
X3971247Y2100060D02*
D03*
X3976249Y2100063D02*
D03*
X3981249D02*
D03*
X3986247Y2100060D02*
D03*
X3991247D02*
D03*
X3971250Y2119057D02*
D03*
X3976253Y2119061D02*
D03*
X3981253D02*
D03*
X3986250Y2119057D02*
D03*
X3991250D02*
D03*
D89*
X3973250Y2109560D02*
D03*
X3981250Y2109557D02*
D03*
X3989250Y2109560D02*
D03*
D90*
X3981250Y2109560D02*
D03*
M02*
