G04 Layer_Color=16770453*
%FSLAX44Y44*%
%MOMM*%
G71*
G01*
G75*
%ADD10C,2.0000*%
%ADD18R,0.5500X0.6000*%
%ADD19R,0.6200X0.6600*%
%ADD20R,0.6600X0.6200*%
%ADD24R,0.6000X0.5500*%
%ADD26R,0.8500X0.9500*%
%ADD30R,1.4500X1.2500*%
%ADD74O,1.2000X2.2000*%
%ADD75R,2.4000X2.4000*%
%ADD76O,0.7000X0.2800*%
%ADD77O,0.2800X0.7000*%
%ADD78O,0.3000X1.4000*%
G04:AMPARAMS|DCode=79|XSize=2.65mm|YSize=1.1mm|CornerRadius=0.275mm|HoleSize=0mm|Usage=FLASHONLY|Rotation=0.000|XOffset=0mm|YOffset=0mm|HoleType=Round|Shape=RoundedRectangle|*
%AMROUNDEDRECTD79*
21,1,2.6500,0.5500,0,0,0.0*
21,1,2.1000,1.1000,0,0,0.0*
1,1,0.5500,1.0500,-0.2750*
1,1,0.5500,-1.0500,-0.2750*
1,1,0.5500,-1.0500,0.2750*
1,1,0.5500,1.0500,0.2750*
%
%ADD79ROUNDEDRECTD79*%
%ADD80R,0.8000X0.3500*%
D10*
X4221000Y2218000D02*
D03*
X3739000Y2206000D02*
D03*
X3778000Y3185000D02*
D03*
D18*
X3794370Y3001000D02*
D03*
Y3009500D02*
D03*
X4055657Y2967300D02*
D03*
Y2958800D02*
D03*
X4180000Y2992000D02*
D03*
Y3000500D02*
D03*
X4176000Y3176750D02*
D03*
Y3185250D02*
D03*
D19*
X3814935Y3081650D02*
D03*
Y3090450D02*
D03*
X3784285Y3009500D02*
D03*
Y3000700D02*
D03*
X3826750Y3006535D02*
D03*
Y2997735D02*
D03*
X3815750Y3006450D02*
D03*
Y2997650D02*
D03*
X3804370Y3009500D02*
D03*
Y3000700D02*
D03*
X4067000Y2967300D02*
D03*
Y2958500D02*
D03*
X4110000Y3046000D02*
D03*
Y3037200D02*
D03*
X4140000Y2987000D02*
D03*
Y2995800D02*
D03*
X4191000Y2992000D02*
D03*
Y2983200D02*
D03*
X4202000Y2992000D02*
D03*
Y2983200D02*
D03*
D20*
X3836950Y3006535D02*
D03*
X3845750D02*
D03*
X3836950Y2997050D02*
D03*
X3845750D02*
D03*
X3836950Y2969300D02*
D03*
X3828150D02*
D03*
X3836950Y2959300D02*
D03*
X3828150D02*
D03*
X4004000Y2946000D02*
D03*
X3995200D02*
D03*
X4036400D02*
D03*
X4027600D02*
D03*
X3781650Y3067343D02*
D03*
X3790450D02*
D03*
D24*
X3781950Y3057720D02*
D03*
X3790450D02*
D03*
X3781950Y3048770D02*
D03*
X3790450D02*
D03*
X3781950Y3039770D02*
D03*
X3790450D02*
D03*
X3781950Y3030770D02*
D03*
X3790450D02*
D03*
Y3021220D02*
D03*
X3781950D02*
D03*
X3984850Y2946000D02*
D03*
X3976350D02*
D03*
X4055726Y2978000D02*
D03*
X4047226D02*
D03*
X4153500Y2971000D02*
D03*
X4162000D02*
D03*
D26*
X3944995Y2944705D02*
D03*
X3958495D02*
D03*
D30*
X3901469Y2961300D02*
D03*
Y2977800D02*
D03*
D74*
X3995400Y2629400D02*
D03*
X4020800D02*
D03*
X3970000D02*
D03*
X3868400Y2806400D02*
D03*
X3944600Y2873400D02*
D03*
X3970000D02*
D03*
X4020800D02*
D03*
X3995400D02*
D03*
X3944600Y2629400D02*
D03*
X3893800Y2806400D02*
D03*
D75*
X3829450Y3048220D02*
D03*
D76*
X3809450Y3060720D02*
D03*
Y3055720D02*
D03*
Y3050720D02*
D03*
Y3045720D02*
D03*
Y3040720D02*
D03*
Y3035720D02*
D03*
X3849450D02*
D03*
Y3040720D02*
D03*
Y3045720D02*
D03*
Y3050720D02*
D03*
Y3055720D02*
D03*
Y3060720D02*
D03*
D77*
X3816950Y3028220D02*
D03*
X3821950D02*
D03*
X3826950D02*
D03*
X3831950D02*
D03*
X3836950D02*
D03*
X3841950D02*
D03*
Y3068220D02*
D03*
X3836950D02*
D03*
X3831950D02*
D03*
X3826950D02*
D03*
X3821950D02*
D03*
X3816950D02*
D03*
D78*
X3951500Y2965050D02*
D03*
X3946500D02*
D03*
X3956500D02*
D03*
X3961500D02*
D03*
X3966500D02*
D03*
X3971500D02*
D03*
X3976500D02*
D03*
X4001500D02*
D03*
X3996500D02*
D03*
X3991500D02*
D03*
X3986500D02*
D03*
X3981500D02*
D03*
D79*
X3928750Y2976550D02*
D03*
X4019250D02*
D03*
D80*
X4153500Y2987000D02*
D03*
X4167000Y2982000D02*
D03*
Y2992000D02*
D03*
M02*
